G04 (created by PCBNEW (2013-mar-13)-testing) date Sun 04 Aug 2013 11:03:18 AM EDT*
%MOIN*%
G04 Gerber Fmt 3.4, Leading zero omitted, Abs format*
%FSLAX34Y34*%
G01*
G70*
G90*
G04 APERTURE LIST*
%ADD10C,0.005906*%
%ADD11R,0.055118X0.055118*%
%ADD12C,0.055118*%
%ADD13C,0.062992*%
%ADD14C,0.135000*%
%ADD15R,0.055100X0.023600*%
%ADD16R,0.045000X0.020000*%
%ADD17C,0.150000*%
%ADD18R,0.060000X0.060000*%
%ADD19C,0.060000*%
%ADD20R,0.023600X0.055100*%
%ADD21R,0.078740X0.299213*%
%ADD22R,0.078700X0.299213*%
%ADD23R,0.039400X0.031500*%
%ADD24R,0.055000X0.035000*%
%ADD25R,0.035000X0.055000*%
%ADD26R,0.082700X0.220500*%
%ADD27R,0.070900X0.086600*%
%ADD28R,0.078740X0.208661*%
%ADD29R,0.120000X0.065000*%
%ADD30R,0.240000X0.240000*%
%ADD31R,0.070000X0.070000*%
%ADD32C,0.070000*%
%ADD33R,0.078740X0.078740*%
%ADD34C,0.082677*%
%ADD35R,0.031500X0.039400*%
%ADD36R,0.070900X0.125984*%
%ADD37R,0.125984X0.070900*%
%ADD38C,0.175000*%
%ADD39C,0.055000*%
%ADD40R,0.055000X0.055000*%
%ADD41R,0.098425X0.098425*%
%ADD42C,0.098425*%
%ADD43C,0.059100*%
%ADD44O,0.212598X0.366142*%
%ADD45C,0.030000*%
%ADD46R,0.016000X0.060000*%
%ADD47R,0.060000X0.016000*%
%ADD48C,0.080300*%
%ADD49R,0.080300X0.080300*%
%ADD50C,0.140000*%
%ADD51C,0.160000*%
%ADD52C,0.035000*%
%ADD53C,0.030000*%
%ADD54C,0.050000*%
%ADD55C,0.100000*%
%ADD56C,0.020000*%
%ADD57C,0.015000*%
%ADD58C,0.075000*%
%ADD59C,0.060000*%
%ADD60C,0.010000*%
G04 APERTURE END LIST*
G54D10*
G54D11*
X45592Y-18674D03*
G54D12*
X44607Y-18674D03*
X45592Y-17100D03*
X44607Y-17100D03*
X45592Y-16312D03*
X44607Y-16312D03*
X45592Y-15525D03*
X44607Y-15525D03*
G54D13*
X45100Y-19501D03*
X45100Y-14698D03*
G54D14*
X8559Y-27500D03*
X12300Y-24192D03*
X12300Y-30807D03*
X15607Y-27500D03*
X15607Y-25964D03*
X15607Y-29035D03*
X7024Y-27500D03*
X10095Y-27500D03*
G54D15*
X6750Y-33300D03*
X6750Y-34300D03*
X8850Y-33300D03*
X8850Y-34300D03*
G54D16*
X31270Y-32305D03*
X31270Y-33305D03*
X31270Y-33805D03*
X31270Y-34305D03*
X31270Y-34805D03*
X31270Y-35305D03*
X31270Y-35805D03*
X28770Y-35805D03*
X28770Y-35305D03*
X28770Y-34805D03*
X28770Y-34305D03*
X28770Y-33805D03*
X28770Y-33305D03*
X28770Y-32805D03*
X28770Y-32305D03*
X31270Y-32805D03*
G54D17*
X27100Y-38100D03*
X36950Y-38100D03*
G54D18*
X34150Y-37550D03*
G54D19*
X33100Y-37550D03*
X32000Y-37550D03*
X30950Y-37550D03*
X29850Y-37550D03*
X33650Y-38650D03*
X32550Y-38650D03*
X31500Y-38650D03*
X30400Y-38650D03*
G54D11*
X21675Y-38242D03*
G54D12*
X21675Y-37257D03*
X23250Y-38242D03*
X23250Y-37257D03*
X24037Y-38242D03*
X24037Y-37257D03*
X24824Y-38242D03*
X24824Y-37257D03*
G54D13*
X20848Y-37750D03*
X25651Y-37750D03*
G54D20*
X44700Y-21500D03*
X44700Y-23600D03*
X45200Y-21500D03*
X45700Y-21500D03*
X46200Y-21500D03*
X45200Y-23600D03*
X45700Y-23600D03*
X46200Y-23600D03*
X44150Y-32150D03*
X44150Y-34250D03*
X44650Y-32150D03*
X45150Y-32150D03*
X45650Y-32150D03*
X44650Y-34250D03*
X45150Y-34250D03*
X45650Y-34250D03*
G54D21*
X49019Y-22800D03*
G54D22*
X51381Y-22800D03*
G54D21*
X49019Y-19200D03*
G54D22*
X51381Y-19200D03*
G54D21*
X49019Y-26550D03*
G54D22*
X51381Y-26550D03*
G54D21*
X49019Y-35700D03*
G54D22*
X51381Y-35700D03*
G54D23*
X47133Y-33800D03*
X46267Y-34175D03*
X46267Y-33425D03*
X47017Y-21300D03*
X47883Y-20925D03*
X47883Y-21675D03*
G54D24*
X33600Y-20475D03*
X33600Y-19725D03*
X32675Y-19725D03*
X32675Y-20475D03*
X26900Y-23225D03*
X26900Y-23975D03*
G54D25*
X30225Y-19700D03*
X30975Y-19700D03*
X30225Y-20600D03*
X30975Y-20600D03*
X35175Y-24600D03*
X34425Y-24600D03*
X7025Y-32400D03*
X7775Y-32400D03*
G54D24*
X26920Y-32780D03*
X26920Y-32030D03*
G54D25*
X30375Y-31300D03*
X29625Y-31300D03*
G54D24*
X27720Y-32430D03*
X27720Y-33180D03*
G54D25*
X27345Y-34005D03*
X28095Y-34005D03*
X27345Y-34805D03*
X28095Y-34805D03*
G54D24*
X26900Y-21825D03*
X26900Y-22575D03*
G54D25*
X34575Y-23800D03*
X33825Y-23800D03*
G54D24*
X23800Y-23625D03*
X23800Y-24375D03*
X23800Y-25225D03*
X23800Y-25975D03*
G54D25*
X44525Y-7200D03*
X45275Y-7200D03*
X30280Y-27310D03*
X31030Y-27310D03*
X40575Y-39600D03*
X39825Y-39600D03*
X41225Y-39600D03*
X41975Y-39600D03*
G54D24*
X34200Y-25325D03*
X34200Y-26075D03*
X24600Y-18775D03*
X24600Y-18025D03*
X22700Y-33375D03*
X22700Y-32625D03*
G54D25*
X25025Y-30500D03*
X25775Y-30500D03*
G54D24*
X22700Y-31675D03*
X22700Y-30925D03*
G54D25*
X25025Y-31400D03*
X25775Y-31400D03*
X47125Y-14150D03*
X46375Y-14150D03*
G54D24*
X26900Y-20325D03*
X26900Y-21075D03*
X43700Y-22925D03*
X43700Y-22175D03*
G54D25*
X44825Y-24550D03*
X45575Y-24550D03*
X44175Y-25800D03*
X43425Y-25800D03*
X46475Y-25800D03*
X45725Y-25800D03*
X45075Y-20550D03*
X44325Y-20550D03*
X45825Y-20550D03*
X46575Y-20550D03*
X44775Y-31300D03*
X44025Y-31300D03*
X45425Y-31300D03*
X46175Y-31300D03*
G54D24*
X43400Y-33475D03*
X43400Y-32725D03*
G54D25*
X44325Y-35100D03*
X45075Y-35100D03*
X47975Y-22600D03*
X47225Y-22600D03*
X47975Y-20000D03*
X47225Y-20000D03*
X46325Y-32550D03*
X47075Y-32550D03*
X46325Y-35050D03*
X47075Y-35050D03*
G54D24*
X31800Y-19725D03*
X31800Y-20475D03*
G54D26*
X25470Y-22681D03*
X25470Y-26499D03*
G54D27*
X51040Y-8450D03*
X49460Y-8450D03*
G54D28*
X48900Y-10550D03*
X51499Y-10550D03*
G54D18*
X48000Y-6300D03*
G54D19*
X49000Y-6300D03*
X50000Y-6300D03*
X51000Y-6300D03*
G54D29*
X48200Y-38050D03*
G54D30*
X50700Y-38950D03*
G54D29*
X48200Y-39850D03*
X48200Y-28900D03*
G54D30*
X50700Y-29800D03*
G54D29*
X48200Y-30700D03*
X48200Y-12400D03*
G54D30*
X50700Y-13300D03*
G54D29*
X48200Y-14200D03*
G54D31*
X41800Y-27300D03*
G54D32*
X41800Y-29300D03*
G54D31*
X40800Y-31800D03*
G54D32*
X40800Y-33800D03*
G54D31*
X40800Y-22800D03*
G54D32*
X40800Y-24800D03*
G54D31*
X40800Y-18300D03*
G54D32*
X40800Y-20300D03*
G54D31*
X40800Y-9300D03*
G54D32*
X40800Y-11300D03*
G54D31*
X40800Y-13800D03*
G54D32*
X40800Y-15800D03*
G54D33*
X53700Y-23366D03*
G54D34*
X53700Y-21988D03*
X53700Y-20611D03*
X53700Y-19233D03*
G54D33*
X53700Y-31116D03*
G54D34*
X53700Y-29738D03*
X53700Y-28361D03*
X53700Y-26983D03*
G54D33*
X14683Y-38250D03*
G54D34*
X16061Y-38250D03*
X17438Y-38250D03*
X18816Y-38250D03*
G54D33*
X53700Y-40266D03*
G54D34*
X53700Y-38888D03*
X53700Y-37511D03*
X53700Y-36133D03*
G54D33*
X44588Y-40900D03*
G54D34*
X43211Y-40900D03*
G54D33*
X53700Y-10738D03*
G54D34*
X53700Y-9361D03*
G54D33*
X53700Y-15238D03*
G54D34*
X53700Y-13861D03*
G54D18*
X43800Y-6300D03*
G54D19*
X44800Y-6300D03*
X45800Y-6300D03*
G54D32*
X41100Y-36600D03*
G54D31*
X42100Y-36600D03*
G54D32*
X43100Y-36600D03*
G54D18*
X23500Y-8000D03*
G54D19*
X23500Y-7000D03*
X24500Y-8000D03*
X24500Y-7000D03*
X25500Y-8000D03*
X25500Y-7000D03*
X26500Y-8000D03*
X26500Y-7000D03*
G54D18*
X28500Y-8000D03*
G54D19*
X28500Y-7000D03*
X29500Y-8000D03*
X29500Y-7000D03*
X30500Y-8000D03*
X30500Y-7000D03*
X31500Y-8000D03*
X31500Y-7000D03*
X32500Y-8000D03*
X32500Y-7000D03*
X33500Y-8000D03*
X33500Y-7000D03*
X34500Y-8000D03*
X34500Y-7000D03*
X35500Y-8000D03*
X35500Y-7000D03*
G54D35*
X35600Y-8867D03*
X35975Y-9733D03*
X35225Y-9733D03*
G54D36*
X51577Y-16050D03*
X48822Y-16050D03*
X46077Y-9300D03*
X43322Y-9300D03*
G54D37*
X45900Y-36322D03*
X45900Y-39077D03*
G54D36*
X14477Y-33000D03*
X11722Y-33000D03*
X51577Y-32550D03*
X48822Y-32550D03*
X51577Y-41700D03*
X48822Y-41700D03*
G54D38*
X7000Y-42000D03*
X56000Y-7000D03*
X56000Y-42000D03*
X7000Y-7000D03*
G54D39*
X37400Y-35100D03*
G54D40*
X37400Y-36100D03*
X21400Y-36100D03*
G54D39*
X21400Y-35100D03*
X21400Y-34100D03*
X21400Y-33100D03*
X21400Y-32100D03*
X21400Y-31100D03*
X21400Y-8100D03*
X21400Y-7100D03*
X37400Y-8100D03*
X37400Y-7100D03*
G54D41*
X12750Y-11990D03*
X12750Y-13572D03*
G54D42*
X8750Y-15990D03*
X8750Y-17572D03*
X12750Y-19927D03*
X12750Y-21509D03*
G54D19*
X13250Y-9500D03*
X8750Y-9500D03*
G54D32*
X15000Y-13552D03*
X15000Y-7647D03*
G54D43*
X23813Y-18800D03*
X23813Y-19552D03*
X23813Y-18048D03*
G54D44*
X15387Y-20886D03*
X15387Y-16713D03*
G54D45*
X14700Y-16300D03*
X14700Y-16800D03*
X14700Y-17300D03*
X14800Y-17800D03*
X15100Y-18200D03*
X15600Y-18200D03*
X16100Y-17900D03*
X16100Y-17300D03*
X16100Y-16800D03*
X16100Y-16300D03*
X16100Y-15800D03*
X15100Y-15400D03*
X15600Y-15400D03*
X14800Y-15800D03*
X15100Y-19400D03*
X15600Y-19400D03*
X14700Y-20800D03*
X14700Y-20300D03*
X14800Y-19800D03*
X16000Y-19800D03*
X16100Y-20300D03*
X16100Y-20800D03*
X16100Y-21300D03*
X16100Y-21800D03*
X14700Y-21300D03*
X14700Y-21800D03*
X15100Y-22200D03*
X15600Y-22200D03*
G54D46*
X30450Y-21800D03*
X30135Y-21800D03*
X29820Y-21800D03*
X29505Y-21800D03*
X29190Y-21800D03*
X28875Y-21800D03*
X30765Y-21800D03*
X31080Y-21800D03*
X31395Y-21800D03*
X31710Y-21800D03*
X32025Y-21800D03*
X30450Y-26300D03*
X30135Y-26300D03*
X29820Y-26300D03*
X29505Y-26300D03*
X29190Y-26300D03*
X28875Y-26300D03*
X30765Y-26300D03*
X31080Y-26300D03*
X31395Y-26300D03*
X31710Y-26300D03*
X32025Y-26300D03*
G54D47*
X28200Y-24050D03*
X32700Y-24050D03*
X28200Y-24365D03*
X32700Y-24365D03*
X32700Y-24680D03*
X28200Y-24680D03*
X28200Y-24995D03*
X32700Y-24995D03*
X32700Y-25310D03*
X28200Y-25310D03*
X28200Y-25625D03*
X32700Y-25625D03*
X32700Y-23735D03*
X28200Y-23735D03*
X28200Y-23420D03*
X32700Y-23420D03*
X32700Y-23105D03*
X28200Y-23105D03*
X28200Y-22790D03*
X32700Y-22790D03*
X32700Y-22475D03*
X28200Y-22475D03*
G54D48*
X40500Y-6100D03*
G54D49*
X41500Y-7100D03*
G54D48*
X39500Y-7100D03*
G54D50*
X56250Y-12250D03*
X56250Y-17250D03*
X56250Y-25250D03*
X56250Y-33500D03*
G54D23*
X24433Y-31300D03*
X23567Y-31675D03*
X23567Y-30925D03*
X24433Y-33000D03*
X23567Y-33375D03*
X23567Y-32625D03*
G54D18*
X17500Y-8500D03*
G54D19*
X17500Y-7500D03*
X18500Y-8500D03*
X18500Y-7500D03*
X19500Y-8500D03*
X19500Y-7500D03*
G54D51*
X20580Y-12860D03*
X38220Y-29800D03*
G54D52*
X12900Y-41200D03*
X9570Y-34310D03*
X18200Y-32000D03*
X47950Y-16050D03*
X47700Y-41700D03*
X47950Y-32550D03*
X27000Y-17600D03*
X32400Y-17600D03*
X27500Y-8000D03*
X25100Y-18000D03*
X39700Y-35900D03*
X39700Y-36600D03*
X35300Y-31500D03*
X30250Y-28350D03*
X35625Y-24500D03*
X31150Y-18675D03*
X32430Y-31560D03*
X44800Y-38000D03*
X43200Y-18800D03*
X16600Y-19200D03*
X18200Y-19200D03*
X19600Y-19200D03*
X18950Y-19850D03*
X17450Y-19850D03*
X14200Y-24400D03*
X15200Y-24350D03*
X15950Y-24350D03*
X17450Y-24350D03*
X18950Y-24350D03*
X19700Y-23600D03*
X18200Y-23600D03*
X16700Y-23600D03*
X16700Y-20600D03*
X18200Y-20600D03*
X19700Y-20600D03*
X18950Y-21350D03*
X17450Y-21350D03*
X14200Y-21400D03*
X16700Y-22100D03*
X18200Y-22100D03*
X19700Y-22100D03*
X18950Y-22850D03*
X17450Y-22850D03*
X15950Y-22850D03*
X15200Y-22850D03*
X14200Y-22800D03*
X14450Y-23600D03*
X19700Y-29600D03*
X18200Y-29600D03*
X16700Y-29600D03*
X17450Y-28850D03*
X18950Y-28850D03*
X19700Y-28100D03*
X18200Y-28100D03*
X16700Y-28100D03*
X17450Y-27350D03*
X18950Y-27350D03*
X19700Y-26600D03*
X18200Y-26600D03*
X16700Y-26600D03*
X17450Y-25850D03*
X18950Y-25850D03*
X19700Y-25100D03*
X18200Y-25100D03*
X16700Y-25100D03*
X14450Y-25100D03*
X14200Y-25800D03*
X14450Y-26600D03*
X14200Y-27400D03*
X14450Y-28100D03*
X14200Y-28800D03*
X14450Y-29600D03*
X8000Y-14250D03*
X9500Y-14250D03*
X8750Y-13500D03*
X8000Y-12750D03*
X9500Y-12750D03*
X8750Y-12000D03*
X8000Y-11250D03*
X9500Y-11250D03*
X8750Y-10500D03*
X8000Y-9750D03*
X8000Y-9000D03*
X9500Y-9000D03*
X9500Y-9750D03*
X13500Y-16500D03*
X16500Y-15000D03*
X18000Y-15000D03*
X19500Y-15000D03*
X18750Y-15750D03*
X17250Y-15750D03*
X16500Y-16500D03*
X18000Y-16500D03*
X19500Y-16500D03*
X18750Y-17250D03*
X17250Y-17250D03*
X16500Y-18000D03*
X18000Y-18000D03*
X14250Y-15000D03*
X12750Y-15000D03*
X11250Y-15000D03*
X9750Y-15000D03*
X8250Y-15000D03*
X6750Y-15000D03*
X7500Y-15750D03*
X10500Y-15750D03*
X12000Y-15750D03*
X13500Y-15750D03*
X12750Y-16500D03*
X11250Y-16500D03*
X9750Y-16500D03*
X6750Y-16500D03*
X7500Y-17250D03*
X10500Y-17250D03*
X12000Y-17250D03*
X13500Y-17250D03*
X14250Y-18000D03*
X12750Y-18000D03*
X11250Y-18000D03*
X9750Y-18000D03*
X8250Y-18000D03*
X6750Y-18000D03*
X7500Y-28500D03*
X9000Y-28500D03*
X10500Y-28500D03*
X11000Y-26250D03*
X9750Y-26250D03*
X8250Y-26250D03*
X6750Y-26250D03*
X7500Y-25500D03*
X9000Y-25500D03*
X10500Y-25500D03*
X11000Y-24750D03*
X9750Y-24750D03*
X8250Y-24750D03*
X6750Y-24750D03*
X7500Y-24000D03*
X9000Y-24000D03*
X10500Y-24000D03*
X11000Y-23250D03*
X9750Y-23250D03*
X8250Y-23250D03*
X6750Y-23250D03*
X12000Y-22500D03*
X10500Y-22500D03*
X9000Y-22500D03*
X6750Y-21750D03*
X7500Y-21000D03*
X9000Y-21000D03*
X10500Y-21000D03*
X12000Y-21000D03*
X11250Y-20250D03*
X9750Y-20250D03*
X8250Y-20250D03*
X6750Y-20250D03*
X7500Y-19500D03*
X9000Y-19500D03*
X10500Y-19500D03*
X12000Y-19500D03*
X7500Y-22500D03*
X8250Y-21750D03*
X9750Y-21750D03*
X11250Y-21750D03*
X34800Y-16200D03*
X38200Y-10300D03*
X35300Y-16200D03*
X43770Y-34890D03*
X36600Y-32300D03*
X38300Y-32300D03*
X36200Y-21700D03*
X38800Y-27000D03*
X43500Y-30500D03*
X38400Y-28250D03*
X43300Y-23700D03*
X38000Y-28000D03*
X42600Y-19900D03*
X15250Y-33150D03*
X26900Y-19900D03*
X43500Y-41500D03*
X44000Y-42000D03*
X43000Y-42000D03*
X42000Y-42000D03*
X41000Y-42000D03*
X40500Y-41500D03*
X41500Y-41500D03*
X42500Y-41500D03*
X42000Y-41000D03*
X41000Y-41000D03*
X40500Y-40500D03*
X41500Y-40500D03*
X42500Y-40500D03*
X43600Y-40400D03*
X45700Y-34800D03*
X47200Y-25800D03*
X46450Y-24050D03*
X47450Y-15050D03*
X47250Y-22050D03*
X47250Y-20450D03*
X46500Y-40100D03*
X47200Y-30800D03*
X26900Y-34800D03*
X26200Y-28050D03*
X23150Y-26900D03*
X27250Y-23960D03*
X26265Y-21155D03*
X24050Y-21150D03*
X26550Y-25110D03*
X24300Y-28050D03*
X23800Y-24850D03*
X19700Y-34300D03*
X17030Y-34290D03*
X29860Y-20195D03*
X32200Y-19200D03*
X33325Y-24000D03*
X34200Y-26700D03*
X31820Y-32805D03*
X29000Y-31300D03*
X26920Y-31455D03*
X34500Y-23200D03*
X31500Y-27500D03*
X23150Y-24850D03*
X23100Y-22150D03*
X34000Y-8800D03*
X30500Y-8800D03*
X10300Y-33000D03*
X32520Y-33305D03*
X32420Y-33805D03*
X41950Y-9300D03*
X33620Y-18120D03*
X38200Y-8900D03*
X35100Y-15400D03*
X36450Y-24500D03*
X44000Y-37400D03*
X35050Y-22725D03*
X23775Y-28600D03*
X25600Y-9700D03*
X25100Y-9700D03*
X25600Y-10750D03*
X25050Y-10750D03*
X18500Y-9400D03*
X25250Y-11500D03*
X24700Y-11500D03*
X35800Y-12300D03*
X35400Y-11700D03*
X36950Y-24500D03*
X37450Y-14600D03*
X47100Y-12400D03*
X36700Y-24900D03*
X43600Y-28300D03*
X45500Y-28300D03*
X47100Y-28800D03*
X38800Y-26400D03*
X22600Y-29200D03*
X22900Y-34600D03*
X22900Y-36100D03*
X30300Y-29900D03*
X28800Y-29800D03*
X22200Y-30000D03*
X24500Y-30300D03*
X22600Y-36500D03*
X23200Y-31300D03*
X23200Y-32200D03*
X45200Y-22550D03*
X44700Y-33200D03*
X45000Y-25800D03*
X19000Y-11100D03*
G54D53*
X21196Y-23396D02*
X27000Y-17600D01*
G54D54*
X12900Y-41200D02*
X14300Y-42600D01*
X9560Y-34300D02*
X9570Y-34310D01*
X8850Y-34300D02*
X9560Y-34300D01*
X14300Y-42600D02*
X14400Y-42600D01*
X47700Y-41700D02*
X46800Y-42600D01*
X46800Y-42600D02*
X14400Y-42600D01*
G54D53*
X18200Y-32000D02*
X21200Y-29000D01*
X21200Y-29000D02*
X21196Y-23396D01*
G54D55*
X46077Y-9300D02*
X48610Y-9300D01*
X48610Y-9300D02*
X49460Y-8450D01*
G54D54*
X45592Y-15525D02*
X46075Y-15475D01*
X46075Y-15475D02*
X46050Y-15450D01*
X44607Y-15525D02*
X45592Y-15525D01*
G54D53*
X46375Y-14150D02*
X46375Y-14075D01*
X46375Y-14075D02*
X46050Y-13750D01*
G54D55*
X48900Y-10550D02*
X46950Y-10550D01*
X46650Y-16050D02*
X48822Y-16050D01*
X46050Y-15450D02*
X46650Y-16050D01*
X46050Y-11450D02*
X46050Y-13750D01*
X46050Y-13750D02*
X46050Y-15450D01*
X46950Y-10550D02*
X46050Y-11450D01*
X49460Y-8450D02*
X49460Y-8540D01*
X49460Y-8540D02*
X48900Y-9099D01*
X48900Y-9099D02*
X48900Y-10550D01*
X53700Y-40266D02*
X53933Y-40266D01*
X53933Y-40266D02*
X54850Y-39350D01*
X54850Y-39350D02*
X54850Y-30450D01*
X53700Y-31116D02*
X54183Y-31116D01*
X54183Y-31116D02*
X54850Y-30450D01*
X54850Y-16388D02*
X53700Y-15238D01*
X54850Y-30450D02*
X54850Y-16388D01*
X47950Y-16050D02*
X48822Y-16050D01*
X48822Y-41700D02*
X47700Y-41700D01*
X48822Y-32550D02*
X47950Y-32550D01*
G54D53*
X27000Y-17600D02*
X27000Y-17600D01*
X33600Y-19725D02*
X33600Y-18900D01*
X33600Y-18900D02*
X32400Y-17700D01*
X32400Y-17700D02*
X32400Y-17600D01*
G54D56*
X44800Y-6300D02*
X44800Y-5300D01*
G54D53*
X38700Y-6300D02*
X39700Y-5300D01*
X48000Y-6300D02*
X48000Y-6300D01*
X47000Y-5300D02*
X48000Y-6300D01*
X39700Y-5300D02*
X44800Y-5300D01*
X44800Y-5300D02*
X47000Y-5300D01*
G54D56*
X35500Y-7000D02*
X35500Y-6300D01*
X39500Y-7100D02*
X38700Y-6300D01*
G54D53*
X38700Y-6300D02*
X35500Y-6300D01*
X35500Y-6300D02*
X27500Y-6300D01*
X27500Y-8000D02*
X27500Y-6300D01*
G54D56*
X32430Y-31560D02*
X32430Y-31130D01*
X26600Y-30900D02*
X25775Y-30900D01*
X26700Y-30800D02*
X26600Y-30900D01*
X32100Y-30800D02*
X26700Y-30800D01*
X32430Y-31130D02*
X32100Y-30800D01*
G54D57*
X25775Y-31400D02*
X25775Y-30900D01*
X25775Y-30900D02*
X25775Y-30500D01*
G54D53*
X24600Y-18025D02*
X23836Y-18025D01*
X23836Y-18025D02*
X23813Y-18048D01*
X25100Y-18000D02*
X25075Y-18025D01*
X25075Y-18025D02*
X24600Y-18025D01*
G54D58*
X37400Y-36100D02*
X39500Y-36100D01*
X39500Y-36100D02*
X39700Y-35900D01*
X39700Y-36600D02*
X39700Y-35900D01*
X39700Y-35900D02*
X39700Y-35900D01*
G54D54*
X41975Y-39600D02*
X42400Y-39600D01*
X43100Y-38900D02*
X43100Y-36600D01*
X42400Y-39600D02*
X43100Y-38900D01*
G54D58*
X43100Y-36600D02*
X45622Y-36600D01*
X45622Y-36600D02*
X45900Y-36322D01*
X43100Y-36600D02*
X43100Y-34800D01*
G54D59*
X41900Y-32100D02*
X42700Y-31300D01*
G54D58*
X41900Y-33600D02*
X41900Y-32100D01*
X43100Y-34800D02*
X41900Y-33600D01*
G54D56*
X43400Y-32725D02*
X43400Y-32400D01*
X43650Y-32150D02*
X44150Y-32150D01*
X43400Y-32400D02*
X43650Y-32150D01*
X26900Y-22575D02*
X26900Y-23225D01*
G54D53*
X14683Y-38250D02*
X14683Y-39433D01*
X14683Y-39433D02*
X15750Y-40500D01*
X15750Y-40500D02*
X20100Y-40500D01*
X20100Y-40500D02*
X21000Y-39600D01*
G54D54*
X14683Y-38250D02*
X14683Y-38433D01*
X21400Y-36100D02*
X20650Y-36100D01*
X20650Y-36100D02*
X19900Y-36850D01*
X19900Y-36850D02*
X19900Y-38500D01*
X43425Y-25800D02*
X42700Y-25800D01*
X43700Y-22175D02*
X43075Y-22175D01*
X43075Y-22175D02*
X42700Y-22550D01*
X42700Y-22550D02*
X42700Y-25800D01*
X42700Y-25800D02*
X42700Y-27550D01*
X42700Y-27550D02*
X42700Y-31300D01*
X42700Y-31300D02*
X44025Y-31300D01*
G54D57*
X43700Y-22175D02*
X43700Y-21800D01*
X44000Y-21500D02*
X44700Y-21500D01*
X43700Y-21800D02*
X44000Y-21500D01*
X44700Y-21500D02*
X44700Y-21300D01*
X44325Y-20925D02*
X44325Y-20550D01*
X44700Y-21300D02*
X44325Y-20925D01*
G54D54*
X35300Y-36900D02*
X35300Y-36800D01*
X36000Y-36100D02*
X37400Y-36100D01*
X35300Y-36800D02*
X36000Y-36100D01*
X35300Y-38300D02*
X35300Y-36900D01*
X35300Y-36900D02*
X35300Y-36500D01*
X35300Y-36100D02*
X37400Y-36100D01*
X37400Y-36100D02*
X36100Y-36100D01*
X36100Y-36100D02*
X35300Y-35300D01*
X37400Y-36100D02*
X36200Y-36100D01*
X35300Y-31500D02*
X35300Y-35300D01*
X35300Y-35300D02*
X35300Y-36100D01*
X35300Y-36100D02*
X35300Y-36500D01*
X35300Y-38300D02*
X34000Y-39600D01*
X19900Y-38500D02*
X21000Y-39600D01*
X21000Y-39600D02*
X34000Y-39600D01*
X30255Y-27560D02*
X30275Y-28325D01*
X30250Y-28350D02*
X30275Y-28325D01*
G54D56*
X30450Y-26300D02*
X30430Y-27385D01*
X30430Y-27385D02*
X30255Y-27560D01*
G54D54*
X35175Y-24600D02*
X35175Y-24450D01*
X35175Y-24450D02*
X35625Y-24500D01*
X30975Y-18850D02*
X30975Y-19700D01*
X31150Y-18675D02*
X30975Y-18850D01*
G54D53*
X32427Y-31562D02*
X32430Y-31560D01*
X31127Y-31562D02*
X32427Y-31562D01*
G54D57*
X28200Y-23735D02*
X27553Y-23735D01*
X27115Y-23290D02*
X26805Y-23290D01*
X27355Y-23530D02*
X27115Y-23290D01*
X27355Y-23536D02*
X27355Y-23530D01*
X27553Y-23735D02*
X27355Y-23536D01*
G54D56*
X30375Y-31300D02*
X30800Y-31300D01*
X31270Y-31705D02*
X31270Y-32305D01*
X30800Y-31300D02*
X31127Y-31562D01*
X31127Y-31562D02*
X31270Y-31705D01*
G54D54*
X30975Y-20600D02*
X30975Y-19725D01*
X30975Y-19725D02*
X31000Y-19700D01*
G54D56*
X30765Y-21800D02*
X30764Y-22400D01*
G54D54*
X30764Y-22400D02*
X29300Y-24150D01*
X29300Y-24150D02*
X29300Y-24550D01*
X29300Y-24550D02*
X30450Y-25700D01*
G54D56*
X30450Y-25700D02*
X30450Y-26300D01*
X28200Y-23735D02*
X28880Y-23722D01*
G54D54*
X28880Y-23722D02*
X29300Y-24150D01*
G54D56*
X29300Y-24150D02*
X29300Y-24150D01*
X30765Y-21800D02*
X30765Y-20999D01*
X31018Y-20656D02*
X30975Y-20600D01*
X31018Y-20657D02*
X31018Y-20656D01*
X30765Y-20999D02*
X31018Y-20657D01*
X17400Y-8500D02*
X16900Y-8250D01*
X16900Y-6800D02*
X17400Y-6300D01*
X27500Y-6300D02*
X17400Y-6300D01*
X17400Y-8500D02*
X17500Y-8500D01*
X16900Y-8250D02*
X16900Y-6800D01*
G54D54*
X44800Y-38000D02*
X45877Y-39077D01*
X45877Y-39077D02*
X45900Y-39077D01*
X44607Y-18674D02*
X43375Y-18624D01*
X43200Y-18800D02*
X43375Y-18624D01*
G54D58*
X44607Y-18674D02*
X45592Y-18674D01*
X45900Y-39077D02*
X45900Y-39138D01*
X45900Y-39138D02*
X44588Y-40900D01*
G54D60*
X16700Y-20600D02*
X17450Y-19850D01*
X18200Y-19200D02*
X16600Y-19200D01*
X18950Y-19850D02*
X19600Y-19200D01*
X16700Y-23600D02*
X14450Y-23600D01*
X15200Y-24350D02*
X15950Y-24350D01*
X17450Y-24350D02*
X18950Y-24350D01*
X19700Y-23600D02*
X18200Y-23600D01*
X14450Y-25100D02*
X14200Y-24400D01*
X16700Y-20600D02*
X14450Y-20600D01*
X19700Y-20600D02*
X18200Y-20600D01*
X17450Y-21350D02*
X18950Y-21350D01*
X15200Y-21350D02*
X15950Y-21350D01*
X14450Y-22100D02*
X14200Y-21400D01*
X18200Y-22100D02*
X16700Y-22100D01*
X18950Y-22850D02*
X19700Y-22100D01*
X15950Y-22850D02*
X17450Y-22850D01*
X14200Y-22800D02*
X15200Y-22850D01*
X16700Y-29600D02*
X18200Y-29600D01*
X18950Y-28850D02*
X17450Y-28850D01*
X18200Y-28100D02*
X19700Y-28100D01*
X17450Y-27350D02*
X16700Y-28100D01*
X19700Y-26600D02*
X18950Y-27350D01*
X16700Y-26600D02*
X18200Y-26600D01*
X18950Y-25850D02*
X17450Y-25850D01*
X18200Y-25100D02*
X19700Y-25100D01*
X14450Y-25100D02*
X16700Y-25100D01*
X14450Y-26600D02*
X14200Y-25800D01*
X14450Y-28100D02*
X14200Y-27400D01*
X14450Y-29600D02*
X14200Y-28800D01*
X8000Y-14250D02*
X9500Y-14250D01*
X8750Y-13500D02*
X8000Y-12750D01*
X9500Y-12750D02*
X8750Y-12000D01*
X8000Y-11250D02*
X9500Y-11250D01*
X8750Y-10500D02*
X8000Y-9750D01*
X8000Y-9000D02*
X9500Y-9000D01*
X9500Y-9750D02*
X9150Y-9400D01*
X9150Y-9400D02*
X8750Y-9400D01*
X15387Y-16831D02*
X13831Y-16831D01*
X13831Y-16831D02*
X13500Y-16500D01*
X15387Y-16831D02*
X15387Y-16112D01*
X15387Y-16112D02*
X16500Y-15000D01*
X18000Y-15000D02*
X19500Y-15000D01*
X18750Y-15750D02*
X17250Y-15750D01*
X16500Y-16500D02*
X18000Y-16500D01*
X19500Y-16500D02*
X18750Y-17250D01*
X17250Y-17250D02*
X16500Y-18000D01*
X18000Y-18000D02*
X19500Y-18000D01*
X14250Y-15000D02*
X12750Y-15000D01*
X11250Y-15000D02*
X9750Y-15000D01*
X8250Y-15000D02*
X6750Y-15000D01*
X7500Y-15750D02*
X10500Y-15750D01*
X12000Y-15750D02*
X13500Y-15750D01*
X12750Y-16500D02*
X11250Y-16500D01*
X9750Y-16500D02*
X6750Y-16500D01*
X7500Y-17250D02*
X10500Y-17250D01*
X12000Y-17250D02*
X13500Y-17250D01*
X14250Y-18000D02*
X12750Y-18000D01*
X11250Y-18000D02*
X9750Y-18000D01*
X8250Y-18000D02*
X6750Y-18000D01*
G54D55*
X12750Y-11990D02*
X13437Y-11990D01*
X13437Y-11990D02*
X15000Y-13552D01*
X15000Y-13552D02*
X14312Y-13552D01*
X14312Y-13552D02*
X12750Y-11990D01*
X15000Y-13552D02*
X12770Y-13552D01*
X12770Y-13552D02*
X12750Y-13572D01*
X12750Y-13572D02*
X12750Y-11990D01*
G54D60*
X7500Y-22500D02*
X6750Y-23250D01*
X9000Y-28500D02*
X7500Y-28500D01*
X10500Y-27000D02*
X10500Y-28500D01*
X11000Y-26250D02*
X10500Y-27000D01*
X8250Y-26250D02*
X9750Y-26250D01*
X7500Y-25500D02*
X6750Y-26250D01*
X10500Y-25500D02*
X9000Y-25500D01*
X9750Y-24750D02*
X11000Y-24750D01*
X6750Y-24750D02*
X8250Y-24750D01*
X9000Y-24000D02*
X7500Y-24000D01*
X11000Y-23250D02*
X10500Y-24000D01*
X8250Y-23250D02*
X9750Y-23250D01*
X9000Y-22500D02*
X10500Y-22500D01*
X7500Y-21000D02*
X6750Y-21750D01*
X10500Y-21000D02*
X9000Y-21000D01*
X11250Y-20250D02*
X12000Y-21000D01*
X8250Y-20250D02*
X9750Y-20250D01*
X7500Y-19500D02*
X6750Y-20250D01*
X10500Y-19500D02*
X9000Y-19500D01*
X12427Y-19927D02*
X12000Y-19500D01*
X12427Y-19927D02*
X12750Y-19927D01*
X8250Y-21750D02*
X7500Y-22500D01*
X11250Y-21750D02*
X9750Y-21750D01*
G54D55*
X53700Y-10738D02*
X51688Y-10738D01*
X51688Y-10738D02*
X51499Y-10550D01*
G54D60*
X34460Y-17170D02*
X34460Y-16540D01*
X34460Y-17170D02*
X34460Y-18730D01*
G54D57*
X31710Y-21800D02*
X31710Y-21360D01*
X34460Y-20700D02*
X34460Y-18730D01*
X34000Y-21160D02*
X34460Y-20700D01*
X31910Y-21160D02*
X34000Y-21160D01*
X31710Y-21360D02*
X31910Y-21160D01*
G54D60*
X34460Y-16540D02*
X34800Y-16200D01*
X34720Y-17200D02*
X34720Y-16780D01*
X34720Y-16780D02*
X35300Y-16200D01*
G54D57*
X32025Y-21575D02*
X32180Y-21420D01*
X32180Y-21420D02*
X34100Y-21420D01*
X34100Y-21420D02*
X34720Y-20800D01*
X34720Y-20800D02*
X34720Y-18720D01*
X32025Y-21575D02*
X32025Y-21800D01*
G54D60*
X34720Y-17192D02*
X34720Y-17200D01*
X34720Y-17200D02*
X34720Y-18720D01*
G54D56*
X44150Y-34510D02*
X44150Y-34250D01*
X44150Y-34510D02*
X43770Y-34890D01*
G54D60*
X33125Y-22475D02*
X33900Y-21700D01*
X33900Y-21700D02*
X36200Y-21700D01*
X33125Y-22475D02*
X32700Y-22475D01*
G54D56*
X36600Y-32300D02*
X38300Y-32300D01*
X43400Y-33475D02*
X43400Y-34000D01*
X43650Y-34250D02*
X44150Y-34250D01*
X43400Y-34000D02*
X43650Y-34250D01*
G54D57*
X44325Y-35100D02*
X44300Y-35100D01*
X44300Y-35100D02*
X44150Y-34950D01*
X44150Y-34950D02*
X44150Y-34250D01*
G54D58*
X51577Y-41700D02*
X51577Y-39827D01*
X51577Y-39827D02*
X50700Y-38950D01*
X53700Y-38888D02*
X50761Y-38888D01*
X50761Y-38888D02*
X50700Y-38950D01*
X53700Y-37511D02*
X53192Y-37511D01*
X53192Y-37511D02*
X51381Y-35700D01*
G54D57*
X26475Y-35075D02*
X22175Y-35075D01*
X16061Y-36938D02*
X18000Y-35000D01*
X18000Y-35000D02*
X20800Y-35000D01*
X20800Y-35000D02*
X21200Y-34600D01*
X28770Y-35305D02*
X28395Y-35305D01*
X28395Y-35305D02*
X28250Y-35450D01*
X28250Y-35450D02*
X26850Y-35450D01*
X16061Y-36938D02*
X16061Y-38250D01*
X26850Y-35450D02*
X26475Y-35075D01*
X21700Y-34600D02*
X21200Y-34600D01*
X22175Y-35075D02*
X21700Y-34600D01*
X26350Y-35400D02*
X26755Y-35805D01*
X18800Y-35600D02*
X22800Y-35600D01*
X22800Y-35600D02*
X23000Y-35400D01*
X23000Y-35400D02*
X26350Y-35400D01*
X17438Y-38250D02*
X17438Y-36961D01*
X17438Y-36961D02*
X18800Y-35600D01*
X28770Y-35805D02*
X26755Y-35805D01*
G54D60*
X38420Y-27000D02*
X38800Y-27000D01*
X36420Y-29000D02*
X38420Y-27000D01*
G54D56*
X44340Y-30500D02*
X43500Y-30500D01*
X44775Y-30935D02*
X44340Y-30500D01*
X44775Y-31300D02*
X44775Y-30935D01*
G54D60*
X29860Y-29000D02*
X29620Y-28760D01*
X36420Y-29000D02*
X29860Y-29000D01*
X29820Y-26300D02*
X29820Y-26640D01*
X29820Y-26640D02*
X29620Y-26840D01*
X29620Y-26840D02*
X29620Y-28760D01*
G54D56*
X44650Y-32150D02*
X44650Y-31425D01*
X44650Y-31425D02*
X44775Y-31300D01*
G54D57*
X45425Y-31300D02*
X44775Y-31300D01*
G54D58*
X53700Y-28361D02*
X53192Y-28361D01*
X53192Y-28361D02*
X51381Y-26550D01*
G54D60*
X38290Y-28360D02*
X38400Y-28250D01*
X37720Y-28360D02*
X38290Y-28360D01*
X36600Y-29479D02*
X37720Y-28360D01*
X38400Y-28250D02*
X38400Y-28260D01*
X29575Y-29475D02*
X29160Y-29060D01*
X29190Y-26590D02*
X29190Y-26300D01*
X29160Y-26620D02*
X29160Y-29060D01*
X29190Y-26590D02*
X29160Y-26620D01*
X36600Y-29479D02*
X29575Y-29475D01*
G54D56*
X43300Y-23700D02*
X43700Y-23300D01*
X43700Y-23300D02*
X43700Y-22925D01*
G54D57*
X43700Y-22925D02*
X43700Y-23300D01*
X44825Y-24550D02*
X44825Y-24175D01*
X44700Y-24050D02*
X44700Y-23600D01*
X44825Y-24175D02*
X44700Y-24050D01*
X44700Y-23600D02*
X44000Y-23600D01*
X43700Y-23300D02*
X43700Y-22925D01*
X44000Y-23600D02*
X43700Y-23300D01*
G54D55*
X53700Y-21988D02*
X52192Y-21988D01*
X52192Y-21988D02*
X51381Y-22800D01*
G54D60*
X36480Y-29250D02*
X36510Y-29250D01*
X37760Y-28000D02*
X38000Y-28000D01*
X36510Y-29250D02*
X37760Y-28000D01*
G54D56*
X42600Y-19900D02*
X44700Y-19900D01*
X45075Y-20550D02*
X45075Y-20275D01*
X45075Y-20275D02*
X44700Y-19900D01*
G54D60*
X36480Y-29250D02*
X29785Y-29250D01*
X29770Y-29230D02*
X29380Y-28840D01*
X29505Y-26615D02*
X29380Y-26740D01*
X29505Y-26300D02*
X29505Y-26615D01*
X29380Y-26740D02*
X29380Y-28840D01*
G54D57*
X45075Y-20550D02*
X45075Y-20925D01*
X45200Y-21050D02*
X45200Y-21500D01*
X45075Y-20925D02*
X45200Y-21050D01*
X45825Y-20550D02*
X45075Y-20550D01*
G54D55*
X53700Y-20611D02*
X52692Y-20611D01*
X52692Y-20611D02*
X51381Y-19200D01*
G54D57*
X35975Y-9733D02*
X36367Y-9733D01*
X37400Y-8700D02*
X37400Y-8100D01*
X36367Y-9733D02*
X37400Y-8700D01*
G54D53*
X23813Y-18800D02*
X24575Y-18800D01*
X24575Y-18800D02*
X24600Y-18775D01*
G54D58*
X15100Y-33000D02*
X14477Y-33000D01*
X15250Y-33150D02*
X15100Y-33000D01*
G54D56*
X26900Y-20325D02*
X26900Y-19900D01*
G54D53*
X44525Y-7200D02*
X44300Y-7200D01*
X43800Y-6700D02*
X43800Y-6300D01*
X44300Y-7200D02*
X43800Y-6700D01*
G54D60*
X44000Y-42000D02*
X43500Y-41500D01*
X42000Y-42000D02*
X43000Y-42000D01*
X40500Y-41500D02*
X41000Y-42000D01*
X42500Y-41500D02*
X41500Y-41500D01*
X41000Y-41000D02*
X42000Y-41000D01*
X41500Y-40500D02*
X40500Y-40500D01*
X43500Y-40500D02*
X42500Y-40500D01*
X43600Y-40400D02*
X43500Y-40500D01*
G54D54*
X40900Y-39600D02*
X40900Y-40500D01*
X41225Y-39600D02*
X41225Y-40325D01*
X41225Y-40325D02*
X41800Y-40900D01*
X40575Y-39600D02*
X40575Y-40175D01*
X40575Y-40175D02*
X40900Y-40500D01*
X40900Y-40500D02*
X41300Y-40900D01*
X41300Y-40900D02*
X41800Y-40900D01*
X41800Y-40900D02*
X43211Y-40900D01*
X40900Y-39600D02*
X40900Y-38500D01*
X40900Y-38500D02*
X40900Y-38600D01*
X40900Y-38600D02*
X40900Y-38500D01*
X40575Y-39600D02*
X40900Y-39600D01*
X40900Y-39600D02*
X41225Y-39600D01*
X42100Y-36600D02*
X42100Y-37300D01*
X42100Y-37300D02*
X40900Y-38500D01*
X40900Y-38500D02*
X40575Y-38825D01*
X40575Y-38825D02*
X40575Y-39600D01*
X41225Y-38175D02*
X41225Y-39600D01*
X42100Y-37300D02*
X41225Y-38175D01*
G54D53*
X45650Y-34250D02*
X45650Y-34750D01*
X45650Y-34750D02*
X45700Y-34800D01*
G54D54*
X46475Y-25800D02*
X47200Y-25800D01*
G54D58*
X40800Y-33800D02*
X42100Y-36600D01*
G54D54*
X46200Y-23600D02*
X46200Y-23800D01*
X46200Y-23800D02*
X46450Y-24050D01*
X47075Y-32550D02*
X47075Y-30925D01*
X47075Y-30925D02*
X47200Y-30800D01*
G54D58*
X47450Y-15050D02*
X47450Y-14950D01*
X47450Y-14950D02*
X48200Y-14200D01*
G54D54*
X47125Y-14150D02*
X47125Y-14725D01*
X47125Y-14725D02*
X47450Y-15050D01*
X48200Y-14200D02*
X47175Y-14200D01*
X47175Y-14200D02*
X47125Y-14150D01*
X47200Y-22100D02*
X47200Y-22675D01*
X47250Y-22050D02*
X47200Y-22100D01*
X47017Y-21300D02*
X47250Y-21067D01*
X47250Y-21067D02*
X47250Y-20450D01*
X47200Y-22675D02*
X47200Y-21483D01*
X47200Y-21483D02*
X47017Y-21300D01*
X47250Y-19825D02*
X47250Y-21067D01*
X47133Y-33800D02*
X47133Y-34992D01*
X47133Y-34992D02*
X47075Y-35050D01*
G54D55*
X53700Y-9361D02*
X53700Y-9300D01*
X52650Y-8450D02*
X51040Y-8450D01*
X53700Y-9300D02*
X52650Y-8450D01*
G54D53*
X47075Y-33858D02*
X47133Y-33800D01*
G54D54*
X47075Y-32550D02*
X47075Y-33742D01*
X47075Y-33742D02*
X47133Y-33800D01*
G54D55*
X46500Y-40100D02*
X48100Y-39950D01*
X48100Y-39950D02*
X48200Y-39850D01*
X47200Y-30800D02*
X48100Y-30800D01*
X48100Y-30800D02*
X48200Y-30700D01*
G54D56*
X27345Y-34805D02*
X26905Y-34805D01*
X26905Y-34805D02*
X26900Y-34800D01*
G54D53*
X24300Y-28050D02*
X26200Y-28050D01*
X23100Y-22150D02*
X24050Y-21150D01*
X24050Y-21150D02*
X26265Y-21155D01*
X26265Y-23710D02*
X26265Y-21155D01*
X26515Y-23960D02*
X26265Y-23710D01*
X27250Y-23960D02*
X26515Y-23960D01*
X23150Y-26900D02*
X23150Y-25300D01*
X26200Y-28050D02*
X26550Y-27700D01*
X26550Y-27700D02*
X26550Y-25110D01*
X23150Y-26900D02*
X24300Y-28050D01*
G54D60*
X26805Y-24040D02*
X27170Y-24040D01*
X27170Y-24040D02*
X27250Y-23960D01*
G54D54*
X23150Y-24850D02*
X23800Y-24850D01*
X23800Y-25225D02*
X23150Y-25225D01*
X23150Y-25225D02*
X23100Y-25275D01*
X23100Y-25275D02*
X23100Y-25300D01*
X23100Y-25300D02*
X23150Y-25300D01*
X23800Y-24375D02*
X23150Y-24375D01*
X23150Y-24375D02*
X23200Y-24325D01*
X23200Y-24325D02*
X23200Y-24300D01*
X23200Y-24300D02*
X23150Y-24300D01*
X23800Y-24375D02*
X23800Y-25225D01*
X23800Y-25225D02*
X23525Y-25225D01*
X23525Y-25225D02*
X23150Y-24850D01*
X23800Y-24375D02*
X23625Y-24375D01*
X23625Y-24375D02*
X23150Y-24850D01*
G54D58*
X17030Y-34290D02*
X19690Y-34290D01*
X19690Y-34290D02*
X19700Y-34300D01*
G54D53*
X6750Y-34300D02*
X6750Y-34770D01*
X16080Y-35240D02*
X17030Y-34290D01*
X7220Y-35240D02*
X16080Y-35240D01*
X6750Y-34770D02*
X7220Y-35240D01*
X29860Y-20195D02*
X29860Y-20065D01*
X30225Y-20600D02*
X29860Y-20195D01*
X29860Y-20065D02*
X30225Y-19700D01*
G54D57*
X32675Y-19725D02*
X32675Y-19675D01*
X32675Y-19675D02*
X32200Y-19200D01*
X32200Y-19200D02*
X31800Y-19725D01*
X32700Y-24050D02*
X33050Y-24050D01*
X33050Y-24050D02*
X33100Y-24000D01*
X33100Y-24000D02*
X33325Y-24000D01*
X33315Y-24010D02*
X33325Y-24000D01*
G54D56*
X34200Y-26075D02*
X34200Y-26700D01*
X31270Y-32805D02*
X31820Y-32805D01*
X29625Y-31300D02*
X29000Y-31300D01*
X26920Y-32030D02*
X26920Y-31455D01*
X28200Y-24050D02*
X27300Y-24050D01*
X27300Y-24050D02*
X27250Y-23960D01*
G54D53*
X34575Y-23800D02*
X34500Y-23200D01*
X31005Y-27560D02*
X31500Y-27500D01*
X23150Y-25300D02*
X23150Y-24850D01*
X23150Y-24850D02*
X23150Y-24300D01*
X23150Y-24300D02*
X23150Y-22200D01*
X23150Y-22200D02*
X23100Y-22150D01*
X23150Y-24850D02*
X23200Y-24800D01*
X23800Y-24800D02*
X23200Y-24800D01*
G54D56*
X23800Y-24750D02*
X23850Y-24750D01*
X23850Y-24750D02*
X23800Y-24800D01*
X30450Y-21800D02*
X30450Y-20950D01*
X30225Y-20725D02*
X30225Y-20600D01*
X30450Y-20950D02*
X30225Y-20725D01*
X31005Y-27560D02*
X31005Y-27385D01*
X31005Y-27385D02*
X30765Y-26865D01*
X30765Y-26865D02*
X30765Y-26300D01*
X23800Y-24375D02*
X23800Y-24750D01*
X23800Y-24750D02*
X23800Y-25225D01*
X35600Y-8867D02*
X35600Y-8100D01*
X35600Y-8100D02*
X35500Y-8000D01*
G54D58*
X51577Y-16050D02*
X51577Y-14177D01*
X51577Y-14177D02*
X50700Y-13300D01*
G54D55*
X53700Y-13861D02*
X51261Y-13861D01*
X51261Y-13861D02*
X50700Y-13300D01*
G54D53*
X47975Y-20000D02*
X48319Y-20000D01*
X48319Y-20000D02*
X49019Y-19200D01*
X47975Y-20000D02*
X47975Y-20833D01*
X47975Y-20833D02*
X47883Y-20925D01*
X46575Y-20550D02*
X46575Y-19625D01*
X46575Y-19625D02*
X46900Y-19300D01*
X46900Y-19300D02*
X49019Y-19200D01*
G54D56*
X46575Y-20550D02*
X46575Y-20925D01*
X46200Y-21300D02*
X46200Y-21500D01*
X46575Y-20925D02*
X46200Y-21300D01*
G54D53*
X47975Y-22600D02*
X47975Y-21767D01*
X47975Y-21767D02*
X47883Y-21675D01*
X49019Y-22800D02*
X48175Y-22800D01*
X48175Y-22800D02*
X47975Y-22600D01*
X45575Y-24550D02*
X45950Y-24550D01*
X47219Y-24600D02*
X49019Y-22800D01*
X46000Y-24600D02*
X47219Y-24600D01*
X45950Y-24550D02*
X46000Y-24600D01*
G54D56*
X45700Y-23600D02*
X45700Y-24425D01*
X45700Y-24425D02*
X45575Y-24550D01*
G54D57*
X45650Y-32150D02*
X45650Y-32808D01*
X45650Y-32808D02*
X46267Y-33425D01*
X45650Y-32150D02*
X45925Y-32150D01*
X45925Y-32150D02*
X46325Y-32550D01*
G54D54*
X46267Y-33425D02*
X46267Y-32608D01*
X46267Y-32608D02*
X46325Y-32550D01*
X49019Y-26550D02*
X48300Y-26550D01*
X46325Y-28525D02*
X46325Y-32550D01*
X48300Y-26550D02*
X46325Y-28525D01*
G54D57*
X46175Y-31300D02*
X45675Y-31875D01*
X45675Y-31875D02*
X45650Y-32150D01*
X46325Y-35050D02*
X46150Y-35050D01*
X46150Y-35050D02*
X45900Y-35300D01*
X45900Y-35300D02*
X45275Y-35300D01*
X45275Y-35300D02*
X45075Y-35100D01*
X45075Y-35100D02*
X45075Y-34925D01*
X45150Y-34850D02*
X45150Y-34250D01*
X45075Y-34925D02*
X45150Y-34850D01*
G54D54*
X46325Y-35050D02*
X46325Y-34233D01*
X46325Y-34233D02*
X46267Y-34175D01*
G54D53*
X49019Y-35700D02*
X46700Y-35700D01*
X46450Y-35050D02*
X46200Y-35300D01*
X46700Y-35700D02*
X46325Y-35325D01*
G54D57*
X32700Y-24365D02*
X33065Y-24365D01*
X33065Y-24365D02*
X33300Y-24600D01*
X33300Y-24600D02*
X34425Y-24600D01*
G54D56*
X34350Y-25300D02*
X34425Y-24600D01*
G54D60*
X28095Y-34805D02*
X28220Y-34805D01*
X28320Y-34805D02*
X28770Y-34805D01*
X28220Y-34805D02*
X28320Y-34805D01*
X34000Y-8800D02*
X30500Y-8800D01*
G54D55*
X40800Y-20300D02*
X40800Y-22800D01*
X13250Y-9500D02*
X15000Y-7647D01*
G54D58*
X10300Y-33000D02*
X11722Y-33000D01*
G54D54*
X10300Y-33000D02*
X10275Y-33025D01*
X10275Y-33025D02*
X10300Y-33000D01*
X8850Y-33300D02*
X10000Y-33300D01*
X10000Y-33300D02*
X10300Y-33000D01*
G54D56*
X6750Y-33300D02*
X6850Y-32575D01*
X6850Y-32575D02*
X7025Y-32400D01*
X32520Y-33305D02*
X31270Y-33305D01*
X32420Y-33805D02*
X31270Y-33805D01*
G54D60*
X28770Y-32805D02*
X26920Y-32780D01*
X28770Y-32305D02*
X28070Y-32305D01*
X27945Y-32430D02*
X27720Y-32430D01*
X28070Y-32305D02*
X27945Y-32430D01*
X27720Y-33180D02*
X28645Y-33180D01*
X28645Y-33180D02*
X28770Y-33305D01*
X28770Y-33805D02*
X28680Y-33805D01*
X27345Y-33600D02*
X27345Y-34005D01*
X27380Y-33565D02*
X27345Y-33600D01*
X28440Y-33565D02*
X27380Y-33565D01*
X28680Y-33805D02*
X28440Y-33565D01*
X28095Y-34005D02*
X28095Y-34080D01*
X28420Y-34305D02*
X28770Y-34305D01*
X28095Y-34080D02*
X28420Y-34305D01*
G54D57*
X33600Y-20475D02*
X32675Y-20475D01*
G54D56*
X31800Y-20475D02*
X32675Y-20475D01*
G54D60*
X31080Y-21800D02*
X31080Y-21160D01*
X31425Y-20850D02*
X31800Y-20475D01*
X31390Y-20850D02*
X31425Y-20850D01*
X31080Y-21160D02*
X31390Y-20850D01*
G54D56*
X31800Y-20475D02*
X31800Y-20425D01*
G54D55*
X41800Y-29300D02*
X40800Y-31800D01*
X40800Y-11300D02*
X40800Y-13800D01*
X40800Y-15800D02*
X40800Y-18300D01*
X40800Y-24800D02*
X41800Y-27300D01*
X39650Y-30950D02*
X39656Y-30950D01*
X40090Y-28470D02*
X39650Y-27650D01*
X40090Y-30240D02*
X40090Y-28470D01*
X39656Y-30950D02*
X40090Y-30240D01*
G54D58*
X39650Y-34250D02*
X40500Y-35400D01*
G54D55*
X40800Y-9300D02*
X39650Y-10450D01*
X39650Y-10450D02*
X39650Y-27650D01*
X39650Y-30950D02*
X39650Y-34250D01*
G54D58*
X40500Y-35400D02*
X41100Y-36600D01*
G54D54*
X41100Y-36600D02*
X41025Y-36600D01*
X41025Y-36600D02*
X39825Y-37800D01*
X39825Y-37800D02*
X39825Y-39600D01*
G54D55*
X43322Y-9300D02*
X41950Y-9300D01*
X41950Y-9300D02*
X40800Y-9300D01*
G54D60*
X23800Y-23625D02*
X24515Y-23625D01*
X25459Y-22681D02*
X25470Y-22681D01*
X24515Y-23625D02*
X25459Y-22681D01*
X28200Y-24375D02*
X26415Y-24375D01*
X25468Y-23428D02*
X25470Y-22681D01*
X26415Y-24375D02*
X25468Y-23428D01*
X23800Y-25975D02*
X24545Y-25975D01*
X25069Y-26499D02*
X25470Y-26499D01*
X24545Y-25975D02*
X25069Y-26499D01*
X25470Y-26499D02*
X25491Y-25638D01*
X26450Y-24680D02*
X28200Y-24680D01*
X25491Y-25638D02*
X26450Y-24680D01*
X32700Y-23735D02*
X33090Y-23735D01*
X33675Y-23650D02*
X33825Y-23800D01*
X33175Y-23650D02*
X33675Y-23650D01*
X33090Y-23735D02*
X33175Y-23650D01*
G54D57*
X31395Y-21800D02*
X31395Y-21305D01*
X34200Y-18700D02*
X33620Y-18120D01*
X34200Y-20600D02*
X34200Y-18700D01*
X33900Y-20900D02*
X34200Y-20600D01*
X31800Y-20900D02*
X33900Y-20900D01*
X31395Y-21305D02*
X31800Y-20900D01*
G54D60*
X32700Y-22790D02*
X33160Y-22790D01*
X36600Y-16900D02*
X35100Y-15400D01*
X36600Y-21850D02*
X36600Y-16900D01*
X36400Y-22050D02*
X36600Y-21850D01*
X33900Y-22050D02*
X36400Y-22050D01*
X33160Y-22790D02*
X33900Y-22050D01*
G54D53*
X45275Y-7200D02*
X45275Y-6825D01*
X45275Y-6825D02*
X45800Y-6300D01*
G54D60*
X33990Y-22260D02*
X35860Y-22260D01*
X32700Y-23105D02*
X33145Y-23105D01*
X33145Y-23105D02*
X33990Y-22260D01*
X36450Y-22850D02*
X36450Y-24500D01*
X35860Y-22260D02*
X36450Y-22850D01*
G54D56*
X45850Y-38050D02*
X48200Y-38050D01*
X45200Y-37400D02*
X44000Y-37400D01*
X45850Y-38050D02*
X45200Y-37400D01*
G54D57*
X15300Y-34800D02*
X15300Y-34800D01*
X15300Y-34800D02*
X16585Y-33515D01*
X23675Y-28700D02*
X22600Y-28700D01*
X33155Y-23420D02*
X33850Y-22725D01*
X33850Y-22725D02*
X35050Y-22725D01*
X32700Y-23420D02*
X33155Y-23420D01*
X23775Y-28600D02*
X23675Y-28700D01*
X16585Y-33515D02*
X17785Y-33515D01*
X17785Y-33515D02*
X22600Y-28700D01*
X8100Y-34800D02*
X15300Y-34800D01*
X7775Y-34475D02*
X8100Y-34800D01*
X7775Y-32400D02*
X7775Y-34475D01*
G54D60*
X29500Y-12300D02*
X25750Y-8550D01*
X25750Y-8550D02*
X23750Y-8550D01*
X23750Y-8550D02*
X23500Y-8300D01*
X23500Y-8300D02*
X23500Y-8000D01*
X30135Y-21800D02*
X30135Y-21235D01*
X29500Y-20600D02*
X29500Y-12300D01*
X30135Y-21235D02*
X29500Y-20600D01*
X29820Y-21220D02*
X29250Y-20650D01*
X29250Y-20650D02*
X29250Y-12550D01*
X29820Y-21800D02*
X29820Y-21220D01*
X26500Y-10100D02*
X25200Y-8800D01*
X25200Y-8800D02*
X23400Y-8800D01*
X23400Y-8800D02*
X22950Y-8350D01*
X22950Y-8350D02*
X22950Y-7350D01*
X22950Y-7350D02*
X23300Y-7000D01*
X23500Y-7000D02*
X23300Y-7000D01*
X26800Y-10100D02*
X26500Y-10100D01*
X29250Y-12550D02*
X26800Y-10100D01*
X29000Y-12800D02*
X26600Y-10400D01*
X26300Y-10400D02*
X25600Y-9700D01*
X26600Y-10400D02*
X26300Y-10400D01*
X29505Y-21205D02*
X29000Y-20700D01*
X29000Y-20700D02*
X29000Y-12800D01*
X29505Y-21205D02*
X29505Y-21800D01*
X29190Y-21210D02*
X28750Y-20770D01*
X28750Y-20770D02*
X28750Y-13050D01*
X29190Y-21800D02*
X29190Y-21210D01*
X26100Y-10700D02*
X25100Y-9700D01*
X26400Y-10700D02*
X26100Y-10700D01*
X28750Y-13050D02*
X26400Y-10700D01*
X28875Y-21225D02*
X28875Y-21800D01*
X25800Y-10950D02*
X25600Y-10750D01*
X26100Y-10950D02*
X25800Y-10950D01*
X28500Y-13350D02*
X26100Y-10950D01*
X28500Y-20850D02*
X28500Y-13350D01*
X28875Y-21225D02*
X28500Y-20850D01*
X28250Y-13700D02*
X25800Y-11250D01*
X28200Y-22475D02*
X28200Y-21350D01*
X28200Y-21350D02*
X28250Y-21300D01*
X28250Y-21300D02*
X28250Y-13700D01*
X25800Y-11250D02*
X25550Y-11250D01*
X25550Y-11250D02*
X25050Y-10750D01*
X25050Y-10750D02*
X25050Y-10350D01*
X19700Y-9700D02*
X18500Y-8500D01*
X24400Y-9700D02*
X19700Y-9700D01*
X25050Y-10350D02*
X24400Y-9700D01*
X28200Y-22790D02*
X27870Y-22790D01*
X25300Y-11550D02*
X25250Y-11500D01*
X25550Y-11550D02*
X25300Y-11550D01*
X28000Y-14000D02*
X25550Y-11550D01*
X28000Y-21050D02*
X28000Y-14000D01*
X27950Y-21100D02*
X28000Y-21050D01*
X27950Y-21870D02*
X27950Y-21100D01*
X27740Y-22080D02*
X27950Y-21870D01*
X27740Y-22660D02*
X27740Y-22080D01*
X27870Y-22790D02*
X27740Y-22660D01*
X25250Y-11500D02*
X25250Y-11450D01*
X25250Y-11450D02*
X24000Y-10200D01*
X18500Y-9400D02*
X19300Y-10200D01*
X19300Y-10200D02*
X24000Y-10200D01*
X27700Y-16800D02*
X27700Y-14500D01*
X28200Y-23105D02*
X27877Y-23105D01*
X27700Y-21750D02*
X27700Y-16800D01*
X27530Y-21919D02*
X27700Y-21750D01*
X27530Y-22757D02*
X27530Y-21919D01*
X27877Y-23105D02*
X27530Y-22757D01*
X27700Y-14500D02*
X24700Y-11500D01*
X23850Y-10650D02*
X19250Y-10650D01*
X24700Y-11500D02*
X23850Y-10650D01*
X18000Y-8000D02*
X18500Y-7500D01*
X18000Y-9400D02*
X18000Y-8000D01*
X19250Y-10650D02*
X18000Y-9400D01*
X38550Y-23400D02*
X38350Y-23200D01*
X36130Y-28570D02*
X38550Y-26150D01*
X31080Y-26300D02*
X31080Y-26620D01*
X32220Y-27320D02*
X33470Y-28570D01*
X31780Y-27320D02*
X32220Y-27320D01*
X31080Y-26620D02*
X31780Y-27320D01*
X33470Y-28570D02*
X36130Y-28570D01*
X38350Y-16150D02*
X35800Y-13600D01*
X35800Y-13600D02*
X35800Y-12300D01*
X38350Y-23200D02*
X38350Y-16150D01*
X38550Y-23400D02*
X38550Y-26150D01*
X38300Y-23550D02*
X38100Y-23350D01*
X35840Y-28360D02*
X38300Y-25900D01*
X31395Y-26635D02*
X31860Y-27100D01*
X31860Y-27100D02*
X32320Y-27100D01*
X32320Y-27100D02*
X33580Y-28360D01*
X31395Y-26635D02*
X31395Y-26300D01*
X33580Y-28360D02*
X35840Y-28360D01*
X38300Y-25900D02*
X38300Y-23550D01*
X35400Y-13600D02*
X35400Y-11700D01*
X38100Y-16300D02*
X35400Y-13600D01*
X38100Y-23350D02*
X38100Y-16300D01*
X35000Y-10500D02*
X34800Y-10300D01*
X38050Y-23700D02*
X37850Y-23500D01*
X35650Y-28150D02*
X33680Y-28150D01*
X35650Y-28150D02*
X38050Y-25750D01*
X31710Y-26300D02*
X31710Y-26660D01*
X31920Y-26870D02*
X31710Y-26660D01*
X32400Y-26870D02*
X31920Y-26870D01*
X33680Y-28150D02*
X32400Y-26870D01*
X38050Y-25750D02*
X38050Y-23700D01*
X35000Y-13600D02*
X35000Y-10500D01*
X37850Y-16450D02*
X35000Y-13600D01*
X37850Y-23500D02*
X37850Y-16450D01*
X35000Y-7500D02*
X34500Y-7000D01*
X35000Y-8700D02*
X35000Y-7500D01*
X34800Y-8900D02*
X35000Y-8700D01*
X34800Y-10300D02*
X34800Y-8900D01*
X34500Y-8000D02*
X34500Y-8000D01*
X37550Y-16550D02*
X35400Y-14400D01*
X34500Y-13500D02*
X34500Y-8000D01*
X33745Y-27925D02*
X35375Y-27925D01*
X37800Y-23950D02*
X37550Y-23700D01*
X37800Y-25500D02*
X37800Y-23950D01*
X32120Y-26300D02*
X33745Y-27925D01*
X32120Y-26300D02*
X32025Y-26300D01*
X35375Y-27925D02*
X37800Y-25500D01*
X37550Y-23700D02*
X37550Y-16550D01*
X35400Y-14400D02*
X34500Y-13500D01*
X35300Y-14700D02*
X37250Y-16650D01*
X34200Y-14700D02*
X35300Y-14700D01*
X29500Y-10000D02*
X34200Y-14700D01*
X35225Y-27675D02*
X33800Y-27675D01*
X37550Y-25350D02*
X37550Y-24150D01*
X35225Y-27675D02*
X37550Y-25350D01*
X37550Y-24150D02*
X37250Y-23850D01*
X32700Y-25625D02*
X32700Y-26575D01*
X33800Y-27675D02*
X32700Y-26575D01*
X37250Y-23850D02*
X37250Y-16650D01*
X29500Y-10000D02*
X29500Y-8000D01*
X29000Y-9900D02*
X29000Y-7800D01*
X36950Y-16750D02*
X35200Y-15000D01*
X35200Y-15000D02*
X34100Y-15000D01*
X34100Y-15000D02*
X29000Y-9900D01*
X37300Y-25200D02*
X37300Y-24300D01*
X37300Y-24300D02*
X36950Y-23950D01*
X35030Y-27470D02*
X37300Y-25200D01*
X33319Y-25400D02*
X33319Y-26899D01*
X33229Y-25310D02*
X33319Y-25400D01*
X32700Y-25310D02*
X33229Y-25310D01*
X33319Y-26899D02*
X33890Y-27470D01*
X33890Y-27470D02*
X35030Y-27470D01*
X36950Y-23950D02*
X36950Y-16750D01*
X30000Y-7500D02*
X30500Y-8000D01*
X29300Y-7500D02*
X30000Y-7500D01*
X29000Y-7800D02*
X29300Y-7500D01*
X35225Y-9733D02*
X35225Y-9825D01*
X37450Y-14600D02*
X37233Y-14383D01*
X37233Y-14383D02*
X37233Y-10875D01*
X36558Y-10200D02*
X37233Y-10875D01*
X35600Y-10200D02*
X36558Y-10200D01*
X35225Y-9825D02*
X35600Y-10200D01*
X36950Y-24500D02*
X37000Y-24500D01*
X34860Y-27240D02*
X36900Y-25200D01*
X33519Y-26799D02*
X33960Y-27240D01*
X32995Y-24995D02*
X32700Y-24995D01*
X33400Y-25040D02*
X33519Y-25160D01*
X33040Y-25040D02*
X33400Y-25040D01*
X32995Y-24995D02*
X33040Y-25040D01*
X33519Y-25160D02*
X33519Y-26799D01*
X33960Y-27240D02*
X34860Y-27240D01*
X37099Y-25000D02*
X36900Y-25200D01*
X37099Y-24599D02*
X37099Y-25000D01*
X37000Y-24500D02*
X37099Y-24599D01*
X37005Y-24555D02*
X36950Y-24500D01*
G54D56*
X48200Y-12400D02*
X47100Y-12400D01*
G54D60*
X34055Y-27035D02*
X34565Y-27035D01*
X33720Y-26700D02*
X34055Y-27035D01*
X32700Y-24680D02*
X33020Y-24680D01*
X33540Y-24840D02*
X33720Y-25020D01*
X33180Y-24840D02*
X33540Y-24840D01*
X33020Y-24680D02*
X33180Y-24840D01*
X33720Y-25020D02*
X33720Y-26700D01*
X34565Y-27035D02*
X36700Y-24900D01*
X36700Y-24900D02*
X36700Y-24900D01*
X36700Y-24900D02*
X36700Y-24940D01*
X36300Y-28790D02*
X29970Y-28790D01*
X30135Y-26715D02*
X29840Y-27010D01*
X29840Y-27010D02*
X29840Y-28660D01*
X29840Y-28660D02*
X29970Y-28790D01*
G54D57*
X30135Y-26715D02*
X30135Y-26300D01*
G54D56*
X48200Y-28900D02*
X47200Y-28900D01*
X45500Y-28300D02*
X43600Y-28300D01*
X47200Y-28900D02*
X47100Y-28800D01*
G54D60*
X36310Y-28790D02*
X38700Y-26400D01*
X38700Y-26400D02*
X38800Y-26400D01*
X25800Y-29200D02*
X22600Y-29200D01*
X28200Y-24995D02*
X27205Y-24995D01*
X27205Y-24995D02*
X26900Y-25300D01*
X26900Y-25300D02*
X26900Y-28100D01*
X26900Y-28100D02*
X25800Y-29200D01*
X24824Y-37257D02*
X24824Y-37075D01*
X24824Y-37075D02*
X25800Y-36100D01*
X25800Y-36100D02*
X29200Y-36100D01*
X29200Y-36100D02*
X30200Y-35100D01*
X30200Y-35100D02*
X30200Y-35100D01*
X30200Y-35100D02*
X30995Y-34305D01*
X30995Y-34305D02*
X31270Y-34305D01*
G54D57*
X24700Y-31300D02*
X24700Y-31600D01*
X21675Y-36824D02*
X21675Y-37257D01*
X24600Y-31700D02*
X24700Y-31600D01*
X24500Y-31800D02*
X24600Y-31700D01*
X24000Y-32300D02*
X24500Y-31800D01*
X24000Y-33700D02*
X24000Y-32300D01*
X23800Y-33900D02*
X24000Y-33700D01*
X23600Y-33900D02*
X23800Y-33900D01*
X22900Y-34600D02*
X23600Y-33900D01*
X22400Y-36100D02*
X22900Y-36100D01*
X21675Y-36824D02*
X22400Y-36100D01*
X24500Y-31367D02*
X24433Y-31300D01*
X24900Y-31300D02*
X24800Y-31300D01*
X24433Y-31300D02*
X24700Y-31300D01*
X24700Y-31300D02*
X24800Y-31300D01*
X24800Y-31300D02*
X24925Y-31300D01*
X24925Y-31300D02*
X25025Y-31400D01*
G54D60*
X28800Y-29800D02*
X28200Y-29200D01*
X28200Y-29200D02*
X28200Y-25625D01*
X31270Y-35805D02*
X32195Y-35805D01*
X32195Y-35805D02*
X33700Y-34300D01*
X33700Y-34300D02*
X33700Y-30800D01*
X33700Y-30800D02*
X32800Y-29900D01*
X32800Y-29900D02*
X30300Y-29900D01*
G54D58*
X51577Y-32550D02*
X51577Y-30677D01*
X51577Y-30677D02*
X50700Y-29800D01*
X53700Y-29738D02*
X50761Y-29738D01*
X50761Y-29738D02*
X50700Y-29800D01*
G54D57*
X22700Y-31675D02*
X23567Y-31675D01*
X21400Y-31100D02*
X21900Y-31600D01*
X22625Y-31600D02*
X22700Y-31675D01*
X21900Y-31600D02*
X22625Y-31600D01*
X22700Y-33375D02*
X23567Y-33375D01*
X21400Y-32100D02*
X21400Y-32200D01*
X22275Y-33375D02*
X22700Y-33375D01*
X22000Y-33100D02*
X22275Y-33375D01*
X22000Y-32800D02*
X22000Y-33100D01*
X21400Y-32200D02*
X22000Y-32800D01*
G54D60*
X25800Y-29500D02*
X22800Y-29500D01*
X22800Y-29500D02*
X22200Y-30000D01*
X28200Y-25310D02*
X27290Y-25310D01*
X27290Y-25310D02*
X27100Y-25499D01*
X27100Y-25499D02*
X27100Y-28199D01*
X27100Y-28199D02*
X25800Y-29500D01*
X31270Y-34805D02*
X30795Y-34805D01*
X30795Y-34805D02*
X30500Y-35100D01*
X30500Y-35100D02*
X30500Y-35100D01*
X30500Y-35100D02*
X29299Y-36300D01*
X29299Y-36300D02*
X26399Y-36300D01*
X26399Y-36300D02*
X24824Y-37875D01*
X24824Y-37875D02*
X24824Y-38242D01*
G54D57*
X25025Y-30500D02*
X25025Y-30525D01*
X24900Y-33000D02*
X24433Y-33000D01*
X25400Y-32500D02*
X24900Y-33000D01*
X25400Y-30900D02*
X25400Y-32500D01*
X25025Y-30525D02*
X25400Y-30900D01*
G54D60*
X24500Y-30300D02*
X24600Y-30400D01*
X24600Y-30400D02*
X25025Y-30500D01*
X22600Y-37000D02*
X22600Y-36500D01*
X21675Y-37924D02*
X22600Y-37000D01*
X21675Y-38242D02*
X21675Y-37924D01*
X31270Y-35305D02*
X32320Y-35305D01*
X32320Y-35305D02*
X33425Y-34200D01*
X33425Y-34200D02*
X33425Y-30900D01*
X33425Y-30900D02*
X32775Y-30250D01*
X32775Y-30250D02*
X29850Y-30250D01*
X29850Y-30250D02*
X28875Y-29275D01*
X28875Y-29275D02*
X28875Y-26300D01*
G54D56*
X23200Y-30925D02*
X23200Y-31100D01*
X23200Y-31100D02*
X23200Y-31300D01*
X23200Y-32200D02*
X23200Y-32400D01*
X23200Y-32400D02*
X23200Y-32625D01*
G54D57*
X23200Y-32625D02*
X23200Y-32600D01*
X23200Y-32600D02*
X23200Y-32625D01*
X23200Y-32200D02*
X23125Y-32200D01*
X23567Y-30925D02*
X23567Y-30933D01*
X23567Y-32567D02*
X23567Y-32625D01*
G54D56*
X22700Y-32625D02*
X23100Y-32625D01*
X23100Y-32625D02*
X23200Y-32625D01*
X23200Y-32625D02*
X23567Y-32625D01*
X23567Y-30925D02*
X23300Y-30925D01*
X23300Y-30925D02*
X23200Y-30925D01*
X23200Y-30925D02*
X23000Y-30925D01*
X23000Y-30925D02*
X22700Y-30925D01*
G54D57*
X21400Y-34100D02*
X21400Y-33900D01*
X21400Y-33900D02*
X20900Y-33400D01*
X20900Y-33400D02*
X20900Y-30900D01*
X20900Y-30900D02*
X21200Y-30600D01*
X21200Y-30600D02*
X22375Y-30600D01*
X22375Y-30600D02*
X22700Y-30925D01*
G54D56*
X45150Y-32150D02*
X45150Y-32750D01*
X45150Y-32750D02*
X44700Y-33200D01*
X44650Y-34250D02*
X44700Y-33200D01*
G54D53*
X44175Y-25800D02*
X45000Y-25800D01*
X45000Y-25800D02*
X45725Y-25800D01*
G54D57*
X45200Y-23600D02*
X45200Y-22550D01*
X45700Y-21500D02*
X45700Y-22050D01*
X45700Y-22050D02*
X45200Y-22550D01*
G54D60*
X23550Y-11100D02*
X19000Y-11100D01*
X27225Y-21075D02*
X26900Y-21075D01*
X27400Y-20900D02*
X27225Y-21075D01*
X27400Y-14950D02*
X27400Y-20900D01*
X23550Y-11100D02*
X27400Y-14950D01*
G54D56*
X26900Y-21825D02*
X26900Y-21075D01*
G54D60*
X28200Y-23420D02*
X27910Y-23420D01*
X27330Y-22255D02*
X26900Y-21825D01*
X27330Y-22840D02*
X27330Y-22255D01*
X27910Y-23420D02*
X27330Y-22840D01*
G54D10*
G36*
X19950Y-29269D02*
X19931Y-29399D01*
X19878Y-29514D01*
X19793Y-29614D01*
X19311Y-30035D01*
X19170Y-30120D01*
X19007Y-30150D01*
X14404Y-30150D01*
X14228Y-30114D01*
X14082Y-30017D01*
X13985Y-29871D01*
X13950Y-29695D01*
X13950Y-19504D01*
X13985Y-19328D01*
X14082Y-19182D01*
X14228Y-19085D01*
X14404Y-19050D01*
X19495Y-19050D01*
X19671Y-19085D01*
X19817Y-19182D01*
X19914Y-19328D01*
X19950Y-19504D01*
X19950Y-29269D01*
X19950Y-29269D01*
G37*
G54D60*
X19950Y-29269D02*
X19931Y-29399D01*
X19878Y-29514D01*
X19793Y-29614D01*
X19311Y-30035D01*
X19170Y-30120D01*
X19007Y-30150D01*
X14404Y-30150D01*
X14228Y-30114D01*
X14082Y-30017D01*
X13985Y-29871D01*
X13950Y-29695D01*
X13950Y-19504D01*
X13985Y-19328D01*
X14082Y-19182D01*
X14228Y-19085D01*
X14404Y-19050D01*
X19495Y-19050D01*
X19671Y-19085D01*
X19817Y-19182D01*
X19914Y-19328D01*
X19950Y-19504D01*
X19950Y-29269D01*
G54D10*
G36*
X19950Y-18095D02*
X19914Y-18271D01*
X19817Y-18417D01*
X19671Y-18514D01*
X19495Y-18550D01*
X6704Y-18550D01*
X6528Y-18514D01*
X6382Y-18417D01*
X6285Y-18271D01*
X6250Y-18095D01*
X6250Y-15104D01*
X6285Y-14928D01*
X6382Y-14782D01*
X6528Y-14685D01*
X6704Y-14650D01*
X7154Y-14650D01*
X7360Y-14609D01*
X7539Y-14489D01*
X7659Y-14310D01*
X7700Y-14104D01*
X7700Y-9204D01*
X7735Y-9028D01*
X7832Y-8882D01*
X7978Y-8785D01*
X8154Y-8750D01*
X9495Y-8750D01*
X9671Y-8785D01*
X9817Y-8882D01*
X9914Y-9028D01*
X9950Y-9204D01*
X9950Y-14104D01*
X9990Y-14310D01*
X10110Y-14489D01*
X10289Y-14609D01*
X10495Y-14650D01*
X19495Y-14650D01*
X19671Y-14685D01*
X19817Y-14782D01*
X19914Y-14928D01*
X19950Y-15104D01*
X19950Y-18095D01*
X19950Y-18095D01*
G37*
G54D60*
X19950Y-18095D02*
X19914Y-18271D01*
X19817Y-18417D01*
X19671Y-18514D01*
X19495Y-18550D01*
X6704Y-18550D01*
X6528Y-18514D01*
X6382Y-18417D01*
X6285Y-18271D01*
X6250Y-18095D01*
X6250Y-15104D01*
X6285Y-14928D01*
X6382Y-14782D01*
X6528Y-14685D01*
X6704Y-14650D01*
X7154Y-14650D01*
X7360Y-14609D01*
X7539Y-14489D01*
X7659Y-14310D01*
X7700Y-14104D01*
X7700Y-9204D01*
X7735Y-9028D01*
X7832Y-8882D01*
X7978Y-8785D01*
X8154Y-8750D01*
X9495Y-8750D01*
X9671Y-8785D01*
X9817Y-8882D01*
X9914Y-9028D01*
X9950Y-9204D01*
X9950Y-14104D01*
X9990Y-14310D01*
X10110Y-14489D01*
X10289Y-14609D01*
X10495Y-14650D01*
X19495Y-14650D01*
X19671Y-14685D01*
X19817Y-14782D01*
X19914Y-14928D01*
X19950Y-15104D01*
X19950Y-18095D01*
G54D10*
G36*
X13350Y-22495D02*
X13314Y-22671D01*
X13217Y-22817D01*
X13071Y-22914D01*
X12895Y-22950D01*
X11695Y-22950D01*
X11489Y-22990D01*
X11310Y-23110D01*
X11190Y-23289D01*
X11150Y-23495D01*
X11150Y-28295D01*
X11114Y-28471D01*
X11017Y-28617D01*
X10871Y-28714D01*
X10695Y-28750D01*
X6704Y-28750D01*
X6528Y-28714D01*
X6382Y-28617D01*
X6285Y-28471D01*
X6250Y-28295D01*
X6250Y-19504D01*
X6285Y-19328D01*
X6382Y-19182D01*
X6528Y-19085D01*
X6704Y-19050D01*
X12895Y-19050D01*
X13071Y-19085D01*
X13217Y-19182D01*
X13314Y-19328D01*
X13350Y-19504D01*
X13350Y-22495D01*
X13350Y-22495D01*
G37*
G54D60*
X13350Y-22495D02*
X13314Y-22671D01*
X13217Y-22817D01*
X13071Y-22914D01*
X12895Y-22950D01*
X11695Y-22950D01*
X11489Y-22990D01*
X11310Y-23110D01*
X11190Y-23289D01*
X11150Y-23495D01*
X11150Y-28295D01*
X11114Y-28471D01*
X11017Y-28617D01*
X10871Y-28714D01*
X10695Y-28750D01*
X6704Y-28750D01*
X6528Y-28714D01*
X6382Y-28617D01*
X6285Y-28471D01*
X6250Y-28295D01*
X6250Y-19504D01*
X6285Y-19328D01*
X6382Y-19182D01*
X6528Y-19085D01*
X6704Y-19050D01*
X12895Y-19050D01*
X13071Y-19085D01*
X13217Y-19182D01*
X13314Y-19328D01*
X13350Y-19504D01*
X13350Y-22495D01*
G54D10*
G36*
X53400Y-37695D02*
X53383Y-37776D01*
X53340Y-37840D01*
X53276Y-37883D01*
X53195Y-37900D01*
X53070Y-37900D01*
X52964Y-37887D01*
X52864Y-37851D01*
X51752Y-37295D01*
X51617Y-37193D01*
X51531Y-37052D01*
X51500Y-36886D01*
X51500Y-34704D01*
X51535Y-34528D01*
X51632Y-34382D01*
X51778Y-34285D01*
X51954Y-34250D01*
X52085Y-34250D01*
X52227Y-34272D01*
X52352Y-34335D01*
X52451Y-34433D01*
X52517Y-34561D01*
X53036Y-36117D01*
X53036Y-36264D01*
X53137Y-36508D01*
X53181Y-36552D01*
X53375Y-37135D01*
X53400Y-37285D01*
X53400Y-37695D01*
X53400Y-37695D01*
G37*
G54D60*
X53400Y-37695D02*
X53383Y-37776D01*
X53340Y-37840D01*
X53276Y-37883D01*
X53195Y-37900D01*
X53070Y-37900D01*
X52964Y-37887D01*
X52864Y-37851D01*
X51752Y-37295D01*
X51617Y-37193D01*
X51531Y-37052D01*
X51500Y-36886D01*
X51500Y-34704D01*
X51535Y-34528D01*
X51632Y-34382D01*
X51778Y-34285D01*
X51954Y-34250D01*
X52085Y-34250D01*
X52227Y-34272D01*
X52352Y-34335D01*
X52451Y-34433D01*
X52517Y-34561D01*
X53036Y-36117D01*
X53036Y-36264D01*
X53137Y-36508D01*
X53181Y-36552D01*
X53375Y-37135D01*
X53400Y-37285D01*
X53400Y-37695D01*
G54D10*
G36*
X53400Y-39136D02*
X53368Y-39302D01*
X53282Y-39443D01*
X53147Y-39545D01*
X52199Y-40019D01*
X52042Y-40138D01*
X51936Y-40310D01*
X51900Y-40504D01*
X51900Y-41945D01*
X51864Y-42121D01*
X51767Y-42267D01*
X51621Y-42364D01*
X51450Y-42399D01*
X51278Y-42364D01*
X51132Y-42267D01*
X51035Y-42121D01*
X51000Y-41945D01*
X51000Y-38204D01*
X51035Y-38028D01*
X51132Y-37882D01*
X51278Y-37785D01*
X51454Y-37750D01*
X51829Y-37750D01*
X51935Y-37762D01*
X52035Y-37798D01*
X53147Y-38354D01*
X53282Y-38456D01*
X53368Y-38597D01*
X53400Y-38763D01*
X53400Y-39136D01*
X53400Y-39136D01*
G37*
G54D60*
X53400Y-39136D02*
X53368Y-39302D01*
X53282Y-39443D01*
X53147Y-39545D01*
X52199Y-40019D01*
X52042Y-40138D01*
X51936Y-40310D01*
X51900Y-40504D01*
X51900Y-41945D01*
X51864Y-42121D01*
X51767Y-42267D01*
X51621Y-42364D01*
X51450Y-42399D01*
X51278Y-42364D01*
X51132Y-42267D01*
X51035Y-42121D01*
X51000Y-41945D01*
X51000Y-38204D01*
X51035Y-38028D01*
X51132Y-37882D01*
X51278Y-37785D01*
X51454Y-37750D01*
X51829Y-37750D01*
X51935Y-37762D01*
X52035Y-37798D01*
X53147Y-38354D01*
X53282Y-38456D01*
X53368Y-38597D01*
X53400Y-38763D01*
X53400Y-39136D01*
G54D10*
G36*
X53400Y-28420D02*
X53383Y-28503D01*
X53339Y-28570D01*
X53273Y-28616D01*
X53195Y-28633D01*
X53111Y-28619D01*
X51795Y-28126D01*
X51673Y-28058D01*
X51580Y-27959D01*
X51521Y-27837D01*
X51500Y-27699D01*
X51500Y-25554D01*
X51535Y-25378D01*
X51632Y-25232D01*
X51778Y-25135D01*
X51954Y-25100D01*
X52085Y-25100D01*
X52227Y-25122D01*
X52352Y-25185D01*
X52451Y-25283D01*
X52517Y-25411D01*
X53036Y-26967D01*
X53036Y-27114D01*
X53137Y-27358D01*
X53181Y-27402D01*
X53375Y-27985D01*
X53400Y-28135D01*
X53400Y-28420D01*
X53400Y-28420D01*
G37*
G54D60*
X53400Y-28420D02*
X53383Y-28503D01*
X53339Y-28570D01*
X53273Y-28616D01*
X53195Y-28633D01*
X53111Y-28619D01*
X51795Y-28126D01*
X51673Y-28058D01*
X51580Y-27959D01*
X51521Y-27837D01*
X51500Y-27699D01*
X51500Y-25554D01*
X51535Y-25378D01*
X51632Y-25232D01*
X51778Y-25135D01*
X51954Y-25100D01*
X52085Y-25100D01*
X52227Y-25122D01*
X52352Y-25185D01*
X52451Y-25283D01*
X52517Y-25411D01*
X53036Y-26967D01*
X53036Y-27114D01*
X53137Y-27358D01*
X53181Y-27402D01*
X53375Y-27985D01*
X53400Y-28135D01*
X53400Y-28420D01*
G54D10*
G36*
X53900Y-29796D02*
X53878Y-29936D01*
X53816Y-30060D01*
X53716Y-30162D01*
X53302Y-30473D01*
X53256Y-30473D01*
X53164Y-30511D01*
X53094Y-30581D01*
X53065Y-30650D01*
X52056Y-31407D01*
X51925Y-31476D01*
X51779Y-31500D01*
X51579Y-31500D01*
X51451Y-31474D01*
X51345Y-31404D01*
X51275Y-31298D01*
X51250Y-31170D01*
X51250Y-28929D01*
X51275Y-28801D01*
X51345Y-28695D01*
X51451Y-28625D01*
X51579Y-28600D01*
X51854Y-28600D01*
X52021Y-28630D01*
X53604Y-29223D01*
X53726Y-29291D01*
X53819Y-29390D01*
X53878Y-29512D01*
X53900Y-29650D01*
X53900Y-29796D01*
X53900Y-29796D01*
G37*
G54D60*
X53900Y-29796D02*
X53878Y-29936D01*
X53816Y-30060D01*
X53716Y-30162D01*
X53302Y-30473D01*
X53256Y-30473D01*
X53164Y-30511D01*
X53094Y-30581D01*
X53065Y-30650D01*
X52056Y-31407D01*
X51925Y-31476D01*
X51779Y-31500D01*
X51579Y-31500D01*
X51451Y-31474D01*
X51345Y-31404D01*
X51275Y-31298D01*
X51250Y-31170D01*
X51250Y-28929D01*
X51275Y-28801D01*
X51345Y-28695D01*
X51451Y-28625D01*
X51579Y-28600D01*
X51854Y-28600D01*
X52021Y-28630D01*
X53604Y-29223D01*
X53726Y-29291D01*
X53819Y-29390D01*
X53878Y-29512D01*
X53900Y-29650D01*
X53900Y-29796D01*
G54D10*
G36*
X53900Y-14012D02*
X53873Y-14168D01*
X53797Y-14301D01*
X53677Y-14404D01*
X53457Y-14537D01*
X53412Y-14546D01*
X53339Y-14595D01*
X53256Y-14595D01*
X53164Y-14633D01*
X53094Y-14703D01*
X53066Y-14772D01*
X52913Y-14863D01*
X52774Y-14983D01*
X52681Y-15147D01*
X52650Y-15328D01*
X52650Y-16295D01*
X52614Y-16471D01*
X52517Y-16617D01*
X52371Y-16714D01*
X52195Y-16750D01*
X51704Y-16750D01*
X51528Y-16714D01*
X51382Y-16617D01*
X51285Y-16471D01*
X51250Y-16295D01*
X51250Y-12554D01*
X51285Y-12378D01*
X51382Y-12232D01*
X51528Y-12135D01*
X51704Y-12100D01*
X52462Y-12100D01*
X52595Y-12119D01*
X52713Y-12175D01*
X52813Y-12264D01*
X53792Y-13439D01*
X53872Y-13578D01*
X53900Y-13735D01*
X53900Y-14012D01*
X53900Y-14012D01*
G37*
G54D60*
X53900Y-14012D02*
X53873Y-14168D01*
X53797Y-14301D01*
X53677Y-14404D01*
X53457Y-14537D01*
X53412Y-14546D01*
X53339Y-14595D01*
X53256Y-14595D01*
X53164Y-14633D01*
X53094Y-14703D01*
X53066Y-14772D01*
X52913Y-14863D01*
X52774Y-14983D01*
X52681Y-15147D01*
X52650Y-15328D01*
X52650Y-16295D01*
X52614Y-16471D01*
X52517Y-16617D01*
X52371Y-16714D01*
X52195Y-16750D01*
X51704Y-16750D01*
X51528Y-16714D01*
X51382Y-16617D01*
X51285Y-16471D01*
X51250Y-16295D01*
X51250Y-12554D01*
X51285Y-12378D01*
X51382Y-12232D01*
X51528Y-12135D01*
X51704Y-12100D01*
X52462Y-12100D01*
X52595Y-12119D01*
X52713Y-12175D01*
X52813Y-12264D01*
X53792Y-13439D01*
X53872Y-13578D01*
X53900Y-13735D01*
X53900Y-14012D01*
G54D10*
G36*
X44250Y-32495D02*
X44214Y-32671D01*
X44117Y-32817D01*
X43971Y-32914D01*
X43795Y-32950D01*
X42504Y-32950D01*
X42328Y-32914D01*
X42182Y-32817D01*
X42085Y-32671D01*
X42050Y-32495D01*
X42050Y-31304D01*
X42085Y-31128D01*
X42182Y-30982D01*
X42328Y-30885D01*
X42504Y-30850D01*
X43248Y-30850D01*
X43258Y-30860D01*
X43415Y-30924D01*
X43584Y-30925D01*
X43740Y-30860D01*
X43750Y-30850D01*
X43795Y-30850D01*
X43971Y-30885D01*
X44117Y-30982D01*
X44214Y-31128D01*
X44250Y-31304D01*
X44250Y-32495D01*
X44250Y-32495D01*
G37*
G54D60*
X44250Y-32495D02*
X44214Y-32671D01*
X44117Y-32817D01*
X43971Y-32914D01*
X43795Y-32950D01*
X42504Y-32950D01*
X42328Y-32914D01*
X42182Y-32817D01*
X42085Y-32671D01*
X42050Y-32495D01*
X42050Y-31304D01*
X42085Y-31128D01*
X42182Y-30982D01*
X42328Y-30885D01*
X42504Y-30850D01*
X43248Y-30850D01*
X43258Y-30860D01*
X43415Y-30924D01*
X43584Y-30925D01*
X43740Y-30860D01*
X43750Y-30850D01*
X43795Y-30850D01*
X43971Y-30885D01*
X44117Y-30982D01*
X44214Y-31128D01*
X44250Y-31304D01*
X44250Y-32495D01*
G54D10*
G36*
X44874Y-21921D02*
X44864Y-21971D01*
X44767Y-22117D01*
X44621Y-22214D01*
X44445Y-22250D01*
X43474Y-22250D01*
X43298Y-22283D01*
X43140Y-22380D01*
X43032Y-22523D01*
X43019Y-22549D01*
X42937Y-22657D01*
X42827Y-22725D01*
X42700Y-22749D01*
X42623Y-22733D01*
X42559Y-22690D01*
X42516Y-22626D01*
X42500Y-22545D01*
X42500Y-22385D01*
X42524Y-22235D01*
X43132Y-20411D01*
X43198Y-20283D01*
X43232Y-20250D01*
X44340Y-20250D01*
X44374Y-20301D01*
X44400Y-20429D01*
X44400Y-20597D01*
X44440Y-20803D01*
X44557Y-20978D01*
X44764Y-21185D01*
X44832Y-21286D01*
X44832Y-21825D01*
X44870Y-21917D01*
X44874Y-21921D01*
X44874Y-21921D01*
G37*
G54D60*
X44874Y-21921D02*
X44864Y-21971D01*
X44767Y-22117D01*
X44621Y-22214D01*
X44445Y-22250D01*
X43474Y-22250D01*
X43298Y-22283D01*
X43140Y-22380D01*
X43032Y-22523D01*
X43019Y-22549D01*
X42937Y-22657D01*
X42827Y-22725D01*
X42700Y-22749D01*
X42623Y-22733D01*
X42559Y-22690D01*
X42516Y-22626D01*
X42500Y-22545D01*
X42500Y-22385D01*
X42524Y-22235D01*
X43132Y-20411D01*
X43198Y-20283D01*
X43232Y-20250D01*
X44340Y-20250D01*
X44374Y-20301D01*
X44400Y-20429D01*
X44400Y-20597D01*
X44440Y-20803D01*
X44557Y-20978D01*
X44764Y-21185D01*
X44832Y-21286D01*
X44832Y-21825D01*
X44870Y-21917D01*
X44874Y-21921D01*
G54D10*
G36*
X49900Y-11295D02*
X49864Y-11471D01*
X49767Y-11617D01*
X49621Y-11714D01*
X49445Y-11750D01*
X45454Y-11750D01*
X45278Y-11714D01*
X45132Y-11617D01*
X45035Y-11471D01*
X45000Y-11295D01*
X45000Y-8304D01*
X45035Y-8128D01*
X45132Y-7982D01*
X45278Y-7885D01*
X45454Y-7850D01*
X49445Y-7850D01*
X49621Y-7885D01*
X49767Y-7982D01*
X49864Y-8128D01*
X49900Y-8304D01*
X49900Y-11295D01*
X49900Y-11295D01*
G37*
G54D60*
X49900Y-11295D02*
X49864Y-11471D01*
X49767Y-11617D01*
X49621Y-11714D01*
X49445Y-11750D01*
X45454Y-11750D01*
X45278Y-11714D01*
X45132Y-11617D01*
X45035Y-11471D01*
X45000Y-11295D01*
X45000Y-8304D01*
X45035Y-8128D01*
X45132Y-7982D01*
X45278Y-7885D01*
X45454Y-7850D01*
X49445Y-7850D01*
X49621Y-7885D01*
X49767Y-7982D01*
X49864Y-8128D01*
X49900Y-8304D01*
X49900Y-11295D01*
G54D10*
G36*
X53900Y-11045D02*
X53864Y-11221D01*
X53767Y-11367D01*
X53621Y-11464D01*
X53445Y-11500D01*
X51704Y-11500D01*
X51528Y-11464D01*
X51382Y-11367D01*
X51285Y-11221D01*
X51250Y-11045D01*
X51250Y-10054D01*
X51285Y-9878D01*
X51382Y-9732D01*
X51528Y-9635D01*
X51704Y-9600D01*
X52329Y-9600D01*
X52435Y-9612D01*
X52535Y-9648D01*
X53647Y-10204D01*
X53782Y-10306D01*
X53868Y-10447D01*
X53900Y-10613D01*
X53900Y-11045D01*
X53900Y-11045D01*
G37*
G54D60*
X53900Y-11045D02*
X53864Y-11221D01*
X53767Y-11367D01*
X53621Y-11464D01*
X53445Y-11500D01*
X51704Y-11500D01*
X51528Y-11464D01*
X51382Y-11367D01*
X51285Y-11221D01*
X51250Y-11045D01*
X51250Y-10054D01*
X51285Y-9878D01*
X51382Y-9732D01*
X51528Y-9635D01*
X51704Y-9600D01*
X52329Y-9600D01*
X52435Y-9612D01*
X52535Y-9648D01*
X53647Y-10204D01*
X53782Y-10306D01*
X53868Y-10447D01*
X53900Y-10613D01*
X53900Y-11045D01*
M02*
