G04 (created by PCBNEW (2013-mar-13)-testing) date Sat 12 Oct 2013 12:16:47 AM EDT*
%MOIN*%
G04 Gerber Fmt 3.4, Leading zero omitted, Abs format*
%FSLAX34Y34*%
G01*
G70*
G90*
G04 APERTURE LIST*
%ADD10C,0.005906*%
%ADD11C,0.135000*%
%ADD12C,0.150000*%
%ADD13R,0.060000X0.060000*%
%ADD14C,0.060000*%
%ADD15R,0.070000X0.070000*%
%ADD16C,0.070000*%
%ADD17R,0.078740X0.078740*%
%ADD18C,0.082677*%
%ADD19C,0.175000*%
%ADD20C,0.055000*%
%ADD21R,0.055000X0.055000*%
%ADD22R,0.098425X0.098425*%
%ADD23C,0.098425*%
%ADD24C,0.059100*%
%ADD25O,0.212598X0.366142*%
%ADD26C,0.030000*%
%ADD27C,0.080300*%
%ADD28R,0.080300X0.080300*%
%ADD29C,0.160000*%
%ADD30C,0.140000*%
%ADD31R,0.055118X0.055118*%
%ADD32C,0.055118*%
%ADD33C,0.062992*%
%ADD34C,0.035000*%
%ADD35C,0.050000*%
%ADD36C,0.030000*%
%ADD37C,0.100000*%
%ADD38C,0.010000*%
%ADD39C,0.015000*%
%ADD40C,0.020000*%
%ADD41C,0.075000*%
%ADD42C,0.060000*%
G04 APERTURE END LIST*
G54D10*
G54D11*
X8559Y-27500D03*
X12300Y-24192D03*
X12300Y-30807D03*
X15607Y-27500D03*
X15607Y-25964D03*
X15607Y-29035D03*
X7024Y-27500D03*
X10095Y-27500D03*
G54D12*
X27100Y-38100D03*
X36950Y-38100D03*
G54D13*
X34150Y-37550D03*
G54D14*
X33100Y-37550D03*
X32000Y-37550D03*
X30950Y-37550D03*
X29850Y-37550D03*
X33650Y-38650D03*
X32550Y-38650D03*
X31500Y-38650D03*
X30400Y-38650D03*
G54D13*
X48000Y-6300D03*
G54D14*
X49000Y-6300D03*
X50000Y-6300D03*
X51000Y-6300D03*
G54D15*
X41800Y-27300D03*
G54D16*
X41800Y-29300D03*
G54D15*
X40800Y-31800D03*
G54D16*
X40800Y-33800D03*
G54D15*
X40800Y-22900D03*
G54D16*
X40800Y-24900D03*
G54D15*
X40800Y-18400D03*
G54D16*
X40800Y-20400D03*
G54D15*
X40800Y-9400D03*
G54D16*
X40800Y-11400D03*
G54D15*
X40800Y-13900D03*
G54D16*
X40800Y-15900D03*
G54D17*
X53700Y-23466D03*
G54D18*
X53700Y-22088D03*
X53700Y-20711D03*
X53700Y-19333D03*
G54D17*
X53700Y-31566D03*
G54D18*
X53700Y-30188D03*
X53700Y-28811D03*
X53700Y-27433D03*
G54D17*
X14683Y-38250D03*
G54D18*
X16061Y-38250D03*
X17438Y-38250D03*
X18816Y-38250D03*
G54D17*
X53700Y-39266D03*
G54D18*
X53700Y-37888D03*
X53700Y-36511D03*
X53700Y-35133D03*
G54D17*
X43788Y-40900D03*
G54D18*
X42411Y-40900D03*
G54D17*
X53700Y-10738D03*
G54D18*
X53700Y-9361D03*
G54D17*
X53700Y-15238D03*
G54D18*
X53700Y-13861D03*
G54D13*
X43800Y-6300D03*
G54D14*
X44800Y-6300D03*
X45800Y-6300D03*
G54D16*
X39600Y-36300D03*
G54D15*
X40600Y-36300D03*
G54D16*
X41600Y-36300D03*
G54D13*
X23500Y-8000D03*
G54D14*
X23500Y-7000D03*
X24500Y-8000D03*
X24500Y-7000D03*
X25500Y-8000D03*
X25500Y-7000D03*
X26500Y-8000D03*
X26500Y-7000D03*
G54D13*
X28500Y-8000D03*
G54D14*
X28500Y-7000D03*
X29500Y-8000D03*
X29500Y-7000D03*
X30500Y-8000D03*
X30500Y-7000D03*
X31500Y-8000D03*
X31500Y-7000D03*
X32500Y-8000D03*
X32500Y-7000D03*
X33500Y-8000D03*
X33500Y-7000D03*
X34500Y-8000D03*
X34500Y-7000D03*
X35500Y-8000D03*
X35500Y-7000D03*
G54D19*
X7000Y-42000D03*
X56000Y-7000D03*
X56000Y-42000D03*
X7000Y-7000D03*
G54D20*
X37400Y-35100D03*
G54D21*
X37400Y-36100D03*
X21400Y-36100D03*
G54D20*
X21400Y-35100D03*
X21400Y-34100D03*
X21400Y-33100D03*
X21400Y-32100D03*
X21400Y-31100D03*
X21400Y-8100D03*
X21400Y-7100D03*
X37400Y-8100D03*
X37400Y-7100D03*
G54D22*
X12750Y-11990D03*
X12750Y-13572D03*
G54D23*
X8750Y-15990D03*
X8750Y-17572D03*
X12750Y-19927D03*
X12750Y-21509D03*
G54D14*
X13250Y-9500D03*
X8750Y-9500D03*
G54D16*
X15100Y-13052D03*
X15100Y-7147D03*
G54D24*
X23813Y-18800D03*
X23813Y-19552D03*
X23813Y-18048D03*
G54D25*
X15387Y-20886D03*
X15387Y-16713D03*
G54D26*
X14700Y-16300D03*
X14700Y-16800D03*
X14700Y-17300D03*
X14800Y-17800D03*
X15100Y-18200D03*
X15600Y-18200D03*
X16100Y-17900D03*
X16100Y-17300D03*
X16100Y-16800D03*
X16100Y-16300D03*
X16100Y-15800D03*
X15100Y-15400D03*
X15600Y-15400D03*
X14800Y-15800D03*
X15100Y-19400D03*
X15600Y-19400D03*
X14700Y-20800D03*
X14700Y-20300D03*
X14800Y-19800D03*
X16000Y-19800D03*
X16100Y-20300D03*
X16100Y-20800D03*
X16100Y-21300D03*
X16100Y-21800D03*
X14700Y-21300D03*
X14700Y-21800D03*
X15100Y-22200D03*
X15600Y-22200D03*
G54D27*
X40500Y-6100D03*
G54D28*
X41500Y-7100D03*
G54D27*
X39500Y-7100D03*
G54D13*
X17500Y-8500D03*
G54D14*
X17500Y-7500D03*
X18500Y-8500D03*
X18500Y-7500D03*
X19500Y-8500D03*
X19500Y-7500D03*
G54D29*
X38220Y-29900D03*
X20580Y-12800D03*
G54D30*
X56300Y-12200D03*
X56300Y-17100D03*
X56300Y-25500D03*
X56300Y-33200D03*
X16600Y-42300D03*
G54D31*
X21725Y-38592D03*
G54D32*
X21725Y-37607D03*
X23300Y-38592D03*
X23300Y-37607D03*
X24087Y-38592D03*
X24087Y-37607D03*
X24874Y-38592D03*
X24874Y-37607D03*
G54D33*
X20898Y-38100D03*
X25701Y-38100D03*
G54D31*
X44892Y-15474D03*
G54D32*
X43907Y-15474D03*
X44892Y-13900D03*
X43907Y-13900D03*
X44892Y-13112D03*
X43907Y-13112D03*
X44892Y-12325D03*
X43907Y-12325D03*
G54D33*
X44400Y-16301D03*
X44400Y-11498D03*
G54D34*
X9400Y-33400D03*
X13500Y-40100D03*
X18200Y-32000D03*
X48400Y-16100D03*
X27000Y-17600D03*
X32400Y-17600D03*
X42900Y-35900D03*
X42500Y-35900D03*
X38800Y-37000D03*
X38000Y-37000D03*
X38400Y-36500D03*
X38800Y-35900D03*
X38000Y-35900D03*
X42500Y-36900D03*
X42900Y-36900D03*
X35000Y-31800D03*
X35600Y-31800D03*
X35600Y-31200D03*
X35000Y-31200D03*
X32430Y-31560D03*
X35300Y-31500D03*
X27500Y-8000D03*
X25100Y-18000D03*
X30250Y-28350D03*
X35625Y-24500D03*
X31150Y-18675D03*
X46400Y-26500D03*
X46400Y-33100D03*
X46100Y-34300D03*
X43800Y-34700D03*
X47200Y-32900D03*
X48500Y-27800D03*
X16600Y-19200D03*
X18200Y-19200D03*
X19600Y-19200D03*
X18950Y-19850D03*
X17450Y-19850D03*
X14200Y-24400D03*
X15200Y-24350D03*
X15950Y-24350D03*
X17450Y-24350D03*
X18950Y-24350D03*
X19700Y-23600D03*
X18200Y-23600D03*
X16700Y-23600D03*
X16700Y-20600D03*
X18200Y-20600D03*
X19700Y-20600D03*
X18950Y-21350D03*
X17450Y-21350D03*
X14200Y-21400D03*
X16700Y-22100D03*
X18200Y-22100D03*
X19700Y-22100D03*
X18950Y-22850D03*
X17450Y-22850D03*
X15950Y-22850D03*
X15200Y-22850D03*
X14200Y-22800D03*
X14450Y-23600D03*
X19500Y-29600D03*
X18200Y-29600D03*
X16700Y-29600D03*
X17450Y-28850D03*
X18950Y-28850D03*
X19700Y-28100D03*
X18200Y-28100D03*
X16700Y-28100D03*
X17450Y-27350D03*
X18950Y-27350D03*
X19700Y-26600D03*
X18200Y-26600D03*
X16700Y-26600D03*
X17450Y-25850D03*
X18950Y-25850D03*
X19700Y-25100D03*
X18200Y-25100D03*
X16700Y-25100D03*
X14450Y-25100D03*
X14200Y-25800D03*
X14450Y-26600D03*
X14200Y-27400D03*
X14450Y-28100D03*
X14200Y-28800D03*
X14450Y-29600D03*
X8000Y-14250D03*
X9500Y-14250D03*
X8750Y-13500D03*
X8000Y-12750D03*
X9500Y-12750D03*
X8750Y-12000D03*
X8000Y-11250D03*
X9500Y-11250D03*
X8750Y-10500D03*
X8000Y-9750D03*
X8000Y-9000D03*
X9500Y-9000D03*
X9500Y-9750D03*
X13500Y-16500D03*
X16500Y-15000D03*
X18000Y-15000D03*
X19500Y-15000D03*
X18750Y-15750D03*
X17250Y-15750D03*
X16500Y-16500D03*
X18000Y-16500D03*
X19500Y-16500D03*
X18750Y-17250D03*
X17250Y-17250D03*
X16500Y-18000D03*
X18000Y-18000D03*
X14250Y-15000D03*
X12750Y-15000D03*
X11250Y-15000D03*
X9750Y-15000D03*
X8250Y-15000D03*
X6750Y-15000D03*
X7500Y-15750D03*
X10500Y-15750D03*
X12000Y-15750D03*
X13500Y-15750D03*
X12750Y-16500D03*
X11250Y-16500D03*
X9750Y-16500D03*
X6750Y-16500D03*
X7500Y-17250D03*
X10500Y-17250D03*
X12000Y-17250D03*
X13500Y-17250D03*
X14250Y-18000D03*
X12750Y-18000D03*
X11250Y-18000D03*
X9750Y-18000D03*
X8250Y-18000D03*
X6750Y-18000D03*
X7500Y-28500D03*
X9000Y-28500D03*
X10500Y-28500D03*
X11000Y-26250D03*
X9750Y-26250D03*
X8250Y-26250D03*
X6750Y-26250D03*
X7500Y-25500D03*
X9000Y-25500D03*
X10500Y-25500D03*
X11000Y-24750D03*
X9750Y-24750D03*
X8250Y-24750D03*
X6750Y-24750D03*
X7500Y-24000D03*
X9000Y-24000D03*
X10500Y-24000D03*
X11000Y-23250D03*
X9750Y-23250D03*
X8250Y-23250D03*
X6750Y-23250D03*
X12000Y-22500D03*
X10500Y-22500D03*
X9000Y-22500D03*
X6750Y-21750D03*
X7500Y-21000D03*
X9000Y-21000D03*
X10500Y-21000D03*
X12000Y-21000D03*
X11250Y-20250D03*
X9750Y-20250D03*
X8250Y-20250D03*
X6750Y-20250D03*
X7500Y-19500D03*
X9000Y-19500D03*
X10500Y-19500D03*
X12000Y-19500D03*
X7500Y-22500D03*
X8250Y-21750D03*
X9750Y-21750D03*
X11250Y-21750D03*
X34800Y-16200D03*
X35300Y-16200D03*
X42900Y-33400D03*
X38300Y-32300D03*
X36600Y-32300D03*
X36200Y-21700D03*
X43500Y-29800D03*
X38800Y-27000D03*
X42800Y-24600D03*
X45000Y-23800D03*
X38300Y-28500D03*
X45700Y-18200D03*
X38000Y-28000D03*
X47400Y-16900D03*
X47600Y-26300D03*
X47550Y-24275D03*
X44800Y-22000D03*
X46700Y-18300D03*
X48200Y-17300D03*
X42800Y-41500D03*
X47700Y-22000D03*
X47000Y-35400D03*
X43600Y-35300D03*
X45900Y-33700D03*
X43100Y-32600D03*
X47900Y-30200D03*
X48600Y-30200D03*
X48500Y-33900D03*
X47900Y-40800D03*
X48600Y-40800D03*
X31850Y-32350D03*
X51600Y-8400D03*
X42900Y-40500D03*
X41700Y-40500D03*
X40700Y-40500D03*
X40200Y-41000D03*
X39700Y-40500D03*
X15100Y-33400D03*
X26900Y-19900D03*
X42200Y-42000D03*
X41200Y-42000D03*
X40200Y-42000D03*
X39700Y-41500D03*
X40700Y-41500D03*
X41700Y-41500D03*
X41200Y-41000D03*
X48300Y-14800D03*
X26900Y-34800D03*
X26200Y-28050D03*
X23150Y-26900D03*
X27250Y-23960D03*
X26265Y-21155D03*
X24050Y-21150D03*
X26550Y-25110D03*
X24300Y-28050D03*
X23800Y-24850D03*
X19700Y-34300D03*
X17030Y-34290D03*
X29860Y-20195D03*
X32200Y-19200D03*
X33325Y-24000D03*
X34200Y-26700D03*
X31820Y-32805D03*
X29000Y-31300D03*
X26920Y-31455D03*
X34500Y-23200D03*
X31500Y-27500D03*
X23150Y-24850D03*
X23100Y-22150D03*
X41950Y-9300D03*
X32420Y-33805D03*
X34000Y-8800D03*
X30500Y-8800D03*
X32520Y-33305D03*
X33620Y-18120D03*
X35100Y-15400D03*
X44000Y-38700D03*
X36450Y-24500D03*
X35050Y-22800D03*
X23775Y-28600D03*
X25600Y-9700D03*
X25100Y-9700D03*
X25600Y-10750D03*
X25050Y-10750D03*
X18500Y-9400D03*
X25250Y-11500D03*
X24700Y-11500D03*
X35800Y-12300D03*
X35400Y-11700D03*
X37450Y-14600D03*
X36950Y-24500D03*
X47100Y-12400D03*
X36700Y-24900D03*
X43600Y-28300D03*
X38800Y-26400D03*
X22600Y-29200D03*
X22900Y-36000D03*
X23000Y-34600D03*
X30300Y-29900D03*
X28800Y-29800D03*
X22200Y-30000D03*
X22700Y-36500D03*
X22900Y-34000D03*
X23200Y-31300D03*
X23200Y-32200D03*
X19000Y-11100D03*
G54D35*
X13500Y-40100D02*
X13500Y-37500D01*
X13500Y-37500D02*
X9400Y-33400D01*
G54D36*
X18200Y-32000D02*
X18200Y-34500D01*
X13500Y-37600D02*
X13500Y-40100D01*
X14900Y-36200D02*
X13500Y-37600D01*
X16500Y-36200D02*
X14900Y-36200D01*
X18200Y-34500D02*
X16500Y-36200D01*
X18200Y-32000D02*
X18250Y-32050D01*
G54D37*
X53700Y-15238D02*
X53511Y-15238D01*
X53511Y-15238D02*
X52700Y-16100D01*
X52700Y-16100D02*
X48400Y-16100D01*
G54D36*
X27000Y-17600D02*
X32400Y-17600D01*
G54D38*
X42500Y-35900D02*
X42900Y-35900D01*
G54D39*
X38000Y-36800D02*
X38000Y-37000D01*
X38400Y-36500D02*
X38000Y-36800D01*
X38000Y-35900D02*
X38800Y-35900D01*
G54D38*
X42500Y-36900D02*
X42900Y-36900D01*
X35000Y-31800D02*
X35600Y-31800D01*
X35600Y-31200D02*
X35000Y-31200D01*
G54D37*
X35300Y-31400D02*
X35300Y-28950D01*
X35300Y-28950D02*
X34950Y-28600D01*
G54D35*
X35240Y-31560D02*
X35300Y-31500D01*
X32430Y-31560D02*
X35240Y-31560D01*
G54D40*
X28500Y-8000D02*
X27500Y-8000D01*
G54D36*
X34700Y-18600D02*
X34700Y-17600D01*
X34700Y-17600D02*
X27500Y-10400D01*
X27500Y-10400D02*
X27500Y-8000D01*
X34700Y-18600D02*
X34700Y-18500D01*
X34700Y-18500D02*
X33300Y-17100D01*
X33300Y-17100D02*
X26800Y-17100D01*
X26800Y-17100D02*
X25900Y-18000D01*
X25900Y-18000D02*
X25100Y-18000D01*
G54D41*
X41600Y-36300D02*
X42700Y-37100D01*
G54D35*
X30500Y-28600D02*
X33425Y-28600D01*
X33425Y-28600D02*
X33950Y-28600D01*
X30250Y-28350D02*
X30500Y-28600D01*
X30250Y-28350D02*
X30250Y-28350D01*
X33950Y-28600D02*
X34950Y-28600D01*
X35625Y-27925D02*
X35625Y-24500D01*
X34950Y-28600D02*
X35300Y-28250D01*
X35300Y-28250D02*
X35625Y-27925D01*
X35625Y-24500D02*
X35650Y-24475D01*
X35650Y-24475D02*
X35650Y-19550D01*
X35650Y-19550D02*
X34700Y-18600D01*
X34700Y-18600D02*
X34800Y-18700D01*
X34750Y-18650D02*
X31175Y-18650D01*
X31175Y-18650D02*
X31150Y-18675D01*
X34800Y-18700D02*
X34750Y-18650D01*
X46400Y-33100D02*
X46400Y-26500D01*
X43788Y-40900D02*
X43800Y-40900D01*
X43800Y-40900D02*
X46100Y-38600D01*
X46100Y-38600D02*
X46100Y-34300D01*
G54D36*
X46100Y-34300D02*
X46000Y-34400D01*
X44100Y-34400D02*
X43800Y-34700D01*
X46000Y-34400D02*
X44100Y-34400D01*
X48500Y-27800D02*
X48400Y-27800D01*
X48400Y-27800D02*
X47000Y-29200D01*
X47000Y-29200D02*
X47000Y-32700D01*
X47000Y-32700D02*
X47200Y-32900D01*
G54D38*
X19600Y-19200D02*
X18200Y-19200D01*
X17450Y-19850D02*
X18950Y-19850D01*
X14200Y-24400D02*
X15200Y-24350D01*
X15950Y-24350D02*
X17450Y-24350D01*
X18950Y-24350D02*
X19700Y-23600D01*
X18200Y-23600D02*
X16700Y-23600D01*
X14450Y-20600D02*
X14000Y-20000D01*
X18200Y-20600D02*
X16700Y-20600D01*
X18950Y-21350D02*
X19700Y-20600D01*
X15950Y-21350D02*
X17450Y-21350D01*
X14200Y-21400D02*
X15200Y-21350D01*
X16700Y-22100D02*
X14450Y-22100D01*
X19700Y-22100D02*
X18200Y-22100D01*
X17450Y-22850D02*
X18950Y-22850D01*
X15200Y-22850D02*
X15950Y-22850D01*
X14450Y-23600D02*
X14200Y-22800D01*
X15607Y-29035D02*
X15014Y-29035D01*
X18200Y-29600D02*
X19500Y-29600D01*
X17450Y-28850D02*
X16700Y-29600D01*
X19700Y-28100D02*
X18950Y-28850D01*
X16700Y-28100D02*
X18200Y-28100D01*
X18950Y-27350D02*
X17450Y-27350D01*
X18200Y-26600D02*
X19700Y-26600D01*
X17450Y-25850D02*
X16700Y-26600D01*
X19700Y-25100D02*
X18950Y-25850D01*
X16700Y-25100D02*
X18200Y-25100D01*
X14200Y-25800D02*
X14450Y-25100D01*
X14200Y-27400D02*
X14450Y-26600D01*
X14200Y-28800D02*
X14450Y-28100D01*
X15014Y-29035D02*
X14450Y-29600D01*
X8750Y-15000D02*
X8000Y-14250D01*
X9500Y-14250D02*
X8750Y-13500D01*
X8000Y-12750D02*
X9500Y-12750D01*
X8750Y-12000D02*
X8000Y-11250D01*
X9500Y-11250D02*
X8750Y-10500D01*
X8000Y-9750D02*
X8000Y-9000D01*
X9500Y-9000D02*
X9500Y-9750D01*
X16500Y-15000D02*
X18000Y-15000D01*
X19500Y-15000D02*
X18750Y-15750D01*
X17250Y-15750D02*
X16500Y-16500D01*
X18000Y-16500D02*
X19500Y-16500D01*
X18750Y-17250D02*
X17250Y-17250D01*
X16500Y-18000D02*
X18000Y-18000D01*
X15387Y-16831D02*
X15387Y-16137D01*
X15387Y-16137D02*
X14250Y-15000D01*
X12750Y-15000D02*
X11250Y-15000D01*
X9750Y-15000D02*
X8250Y-15000D01*
X6750Y-15000D02*
X7500Y-15750D01*
X10500Y-15750D02*
X12000Y-15750D01*
X13500Y-15750D02*
X12750Y-16500D01*
X11250Y-16500D02*
X9750Y-16500D01*
X6750Y-16500D02*
X7500Y-17250D01*
X10500Y-17250D02*
X12000Y-17250D01*
X13500Y-17250D02*
X14250Y-18000D01*
X12750Y-18000D02*
X11250Y-18000D01*
X9750Y-18000D02*
X8250Y-18000D01*
G54D37*
X12750Y-11990D02*
X13437Y-11990D01*
X13437Y-11990D02*
X15100Y-13052D01*
X12750Y-11990D02*
X12750Y-12000D01*
X12750Y-12000D02*
X14322Y-13572D01*
X12750Y-13572D02*
X14322Y-13572D01*
X14322Y-13572D02*
X15079Y-13072D01*
X15079Y-13072D02*
X15100Y-13052D01*
X12750Y-11990D02*
X12750Y-13572D01*
G54D38*
X7024Y-28024D02*
X7024Y-27500D01*
X7500Y-28500D02*
X7024Y-28024D01*
X10500Y-28500D02*
X9000Y-28500D01*
X9750Y-26250D02*
X11000Y-26250D01*
X6750Y-26250D02*
X8250Y-26250D01*
X9000Y-25500D02*
X7500Y-25500D01*
X11000Y-24750D02*
X10500Y-25500D01*
X8250Y-24750D02*
X9750Y-24750D01*
X7500Y-24000D02*
X6750Y-24750D01*
X10500Y-24000D02*
X9000Y-24000D01*
X9750Y-23250D02*
X11000Y-23250D01*
X6750Y-23250D02*
X8250Y-23250D01*
X7500Y-22500D02*
X9000Y-22500D01*
X10500Y-22500D02*
X12000Y-22500D01*
X12750Y-21509D02*
X11490Y-21509D01*
X9000Y-21000D02*
X7500Y-21000D01*
X12000Y-21000D02*
X10500Y-21000D01*
X9750Y-20250D02*
X11250Y-20250D01*
X6750Y-20250D02*
X8250Y-20250D01*
X9000Y-19500D02*
X7500Y-19500D01*
X12000Y-19500D02*
X10500Y-19500D01*
X7500Y-22500D02*
X6750Y-21750D01*
X9750Y-21750D02*
X8250Y-21750D01*
X11490Y-21509D02*
X11250Y-21750D01*
G54D39*
X39350Y-8350D02*
X47450Y-8350D01*
X34800Y-16200D02*
X37600Y-13400D01*
X37600Y-13400D02*
X37600Y-10100D01*
X37600Y-10100D02*
X38200Y-9500D01*
X49000Y-6800D02*
X49000Y-6300D01*
X49000Y-6800D02*
X47450Y-8350D01*
X38200Y-9500D02*
X39350Y-8350D01*
X50000Y-6800D02*
X46500Y-10300D01*
X46500Y-10300D02*
X38600Y-10300D01*
X38600Y-10300D02*
X38200Y-10700D01*
X50000Y-6800D02*
X50000Y-6300D01*
X38200Y-13300D02*
X38200Y-10700D01*
X35300Y-16200D02*
X38200Y-13300D01*
G54D40*
X42900Y-33400D02*
X42100Y-32600D01*
X42100Y-32600D02*
X39700Y-32600D01*
X39700Y-32600D02*
X39400Y-32300D01*
X39400Y-32300D02*
X38300Y-32300D01*
X38275Y-32325D02*
X38300Y-32300D01*
G54D39*
X36100Y-31800D02*
X36600Y-32300D01*
G54D38*
X36100Y-21800D02*
X36100Y-31800D01*
X36200Y-21700D02*
X36100Y-21800D01*
G54D40*
X43500Y-29800D02*
X43500Y-29000D01*
X43500Y-29000D02*
X43000Y-28500D01*
X43000Y-28500D02*
X40200Y-28500D01*
X40200Y-28500D02*
X38800Y-27100D01*
X38800Y-27100D02*
X38800Y-27000D01*
X38800Y-27000D02*
X38800Y-27000D01*
G54D35*
X47800Y-25000D02*
X43200Y-25000D01*
X42800Y-24600D02*
X43200Y-25000D01*
X53700Y-23466D02*
X49333Y-23466D01*
X49333Y-23466D02*
X47800Y-25000D01*
G54D40*
X45000Y-23800D02*
X44800Y-24000D01*
X44800Y-24000D02*
X40300Y-24000D01*
X40300Y-24000D02*
X38375Y-25924D01*
X38375Y-25924D02*
X38375Y-28424D01*
X38375Y-28424D02*
X38300Y-28500D01*
X45700Y-18200D02*
X44000Y-19900D01*
X44000Y-19900D02*
X42300Y-19900D01*
X41525Y-23200D02*
X41100Y-23625D01*
X41525Y-20675D02*
X41525Y-23200D01*
X42300Y-19900D02*
X41525Y-20675D01*
X38075Y-27925D02*
X38075Y-25750D01*
X38000Y-28000D02*
X38075Y-27925D01*
X40200Y-23625D02*
X38075Y-25750D01*
X41100Y-23625D02*
X40200Y-23625D01*
G54D35*
X47400Y-16900D02*
X47400Y-15700D01*
X47400Y-15700D02*
X48300Y-14800D01*
X47600Y-26300D02*
X48100Y-26800D01*
X48100Y-26800D02*
X51000Y-26800D01*
X51000Y-26800D02*
X51700Y-27500D01*
X51700Y-27500D02*
X51600Y-27500D01*
G54D37*
X53700Y-27433D02*
X54733Y-27433D01*
X54733Y-27433D02*
X54800Y-27500D01*
X53700Y-19333D02*
X54866Y-19333D01*
X54866Y-19333D02*
X54900Y-19300D01*
X54900Y-19300D02*
X54900Y-11600D01*
G54D35*
X47700Y-23800D02*
X47700Y-22000D01*
X47550Y-24275D02*
X47700Y-23800D01*
G54D37*
X44800Y-22000D02*
X46200Y-20600D01*
X46200Y-20600D02*
X47000Y-20600D01*
X47000Y-20600D02*
X47200Y-20600D01*
X46700Y-18300D02*
X47200Y-18300D01*
X47200Y-18300D02*
X48200Y-17300D01*
X47200Y-20300D02*
X47200Y-20600D01*
X47200Y-20600D02*
X47200Y-20900D01*
X47000Y-20500D02*
X47200Y-20300D01*
X53700Y-19333D02*
X48166Y-19333D01*
G54D36*
X51600Y-27500D02*
X51600Y-27500D01*
X51600Y-27500D02*
X51600Y-27433D01*
G54D37*
X46800Y-18300D02*
X48100Y-19600D01*
X47700Y-22000D02*
X47700Y-21500D01*
X47700Y-21500D02*
X47200Y-20900D01*
X47200Y-20900D02*
X46900Y-20600D01*
X48100Y-19333D02*
X48166Y-19333D01*
X48166Y-19333D02*
X46900Y-20600D01*
G54D42*
X47000Y-35400D02*
X48500Y-33900D01*
G54D36*
X43600Y-35300D02*
X43300Y-35000D01*
X43300Y-35000D02*
X43300Y-34000D01*
X43300Y-34000D02*
X43900Y-33400D01*
G54D35*
X48500Y-33900D02*
X46900Y-33900D01*
X46900Y-33900D02*
X46700Y-33700D01*
X46700Y-33700D02*
X45900Y-33700D01*
X45900Y-33700D02*
X44200Y-33700D01*
X44200Y-33700D02*
X43900Y-33400D01*
X43900Y-33400D02*
X43600Y-33100D01*
X43600Y-33100D02*
X43100Y-32600D01*
G54D41*
X40800Y-33800D02*
X40800Y-35500D01*
X40800Y-35500D02*
X40600Y-35700D01*
X40600Y-35700D02*
X40600Y-36300D01*
G54D37*
X48600Y-30200D02*
X48800Y-30200D01*
X48800Y-30200D02*
X51100Y-27900D01*
X47900Y-30200D02*
X48600Y-30200D01*
X53700Y-27433D02*
X51600Y-27433D01*
X51600Y-27433D02*
X51566Y-27433D01*
X51566Y-27433D02*
X51100Y-27900D01*
X51100Y-27900D02*
X50900Y-28100D01*
X50900Y-35200D02*
X50900Y-35133D01*
X48500Y-33900D02*
X50300Y-35700D01*
X53700Y-35133D02*
X50900Y-35133D01*
X50900Y-35133D02*
X50866Y-35133D01*
X50866Y-35133D02*
X50300Y-35700D01*
X50300Y-35700D02*
X50000Y-36000D01*
X50000Y-36000D02*
X50000Y-38800D01*
X50000Y-38800D02*
X47900Y-40800D01*
G54D41*
X47900Y-40800D02*
X48600Y-40800D01*
G54D37*
X35350Y-40050D02*
X37500Y-42200D01*
X37500Y-42200D02*
X46600Y-42200D01*
X46600Y-42200D02*
X47900Y-40800D01*
X35350Y-40000D02*
X35350Y-40050D01*
X53700Y-35133D02*
X54700Y-34100D01*
G54D41*
X40600Y-36300D02*
X40600Y-35700D01*
G54D37*
X40600Y-35700D02*
X40000Y-35100D01*
X40000Y-35100D02*
X37400Y-35100D01*
G54D35*
X35350Y-36500D02*
X35350Y-33600D01*
X35350Y-33600D02*
X34100Y-32350D01*
X34100Y-32350D02*
X31850Y-32350D01*
G54D40*
X29850Y-37550D02*
X29850Y-36350D01*
X29850Y-36350D02*
X28300Y-34800D01*
X28300Y-34800D02*
X26900Y-34800D01*
G54D37*
X37400Y-35100D02*
X36750Y-35100D01*
X36750Y-35100D02*
X35350Y-36500D01*
X35350Y-36500D02*
X35350Y-40000D01*
X35350Y-40000D02*
X35350Y-39900D01*
G54D38*
X52600Y-8400D02*
X51600Y-8400D01*
X53561Y-9361D02*
X52600Y-8400D01*
X53700Y-9361D02*
X53561Y-9361D01*
G54D37*
X53700Y-9361D02*
X51838Y-9361D01*
X48300Y-13700D02*
X48300Y-14800D01*
X51838Y-9361D02*
X48300Y-13700D01*
G54D38*
X41700Y-40500D02*
X40700Y-40500D01*
X39700Y-40500D02*
X40200Y-41000D01*
G54D37*
X21400Y-21700D02*
X21400Y-14300D01*
X21400Y-11150D02*
X21400Y-8100D01*
X22100Y-12200D02*
X21400Y-11150D01*
X22100Y-13600D02*
X22100Y-12200D01*
X21400Y-14300D02*
X22100Y-13600D01*
G54D40*
X41500Y-7100D02*
X41500Y-5300D01*
X43800Y-6300D02*
X42800Y-5300D01*
G54D36*
X50050Y-5300D02*
X51000Y-6300D01*
X50050Y-5300D02*
X42800Y-5300D01*
X42800Y-5300D02*
X41500Y-5300D01*
X41500Y-5300D02*
X36550Y-5300D01*
X35900Y-5950D02*
X36550Y-5300D01*
X35900Y-5950D02*
X35900Y-6000D01*
G54D40*
X30500Y-7000D02*
X30500Y-6000D01*
X30500Y-6000D02*
X30500Y-6100D01*
X30500Y-6100D02*
X30500Y-6000D01*
X28500Y-7000D02*
X28500Y-6000D01*
G54D37*
X21400Y-8100D02*
X21800Y-8100D01*
X21800Y-8100D02*
X22400Y-7500D01*
X22400Y-7500D02*
X22400Y-6400D01*
X22400Y-6400D02*
X22800Y-6000D01*
X22800Y-6000D02*
X28500Y-6000D01*
X37100Y-8100D02*
X37400Y-8100D01*
X35900Y-6000D02*
X36500Y-6600D01*
X36500Y-6600D02*
X36500Y-7500D01*
X36500Y-7500D02*
X37100Y-8100D01*
X28500Y-6000D02*
X30500Y-6000D01*
X30500Y-6000D02*
X35900Y-6000D01*
G54D40*
X19500Y-8500D02*
X21400Y-8500D01*
G54D36*
X23100Y-22150D02*
X23100Y-19300D01*
X23600Y-18800D02*
X23813Y-18800D01*
X23100Y-19300D02*
X23600Y-18800D01*
G54D41*
X15100Y-33400D02*
X12300Y-30807D01*
X16100Y-33400D02*
X15110Y-33390D01*
X15110Y-33390D02*
X15100Y-33400D01*
X18816Y-38250D02*
X18950Y-38250D01*
X18950Y-38250D02*
X19796Y-38011D01*
G54D38*
X42200Y-42000D02*
X43200Y-42000D01*
X40200Y-42000D02*
X41200Y-42000D01*
X40700Y-41500D02*
X39700Y-41500D01*
X41200Y-41000D02*
X41700Y-41500D01*
G54D37*
X54800Y-34200D02*
X54800Y-27500D01*
X54800Y-27500D02*
X54800Y-27400D01*
X54800Y-27400D02*
X54900Y-11600D01*
X54900Y-11600D02*
X54850Y-19500D01*
X54850Y-19500D02*
X54850Y-18083D01*
X48300Y-14800D02*
X49850Y-12650D01*
X49850Y-12650D02*
X54850Y-12650D01*
X53700Y-9361D02*
X54261Y-9361D01*
X54261Y-9361D02*
X54850Y-9950D01*
X54850Y-9950D02*
X54850Y-12650D01*
X54850Y-12650D02*
X54850Y-18083D01*
G54D36*
X22250Y-22150D02*
X21400Y-23000D01*
X21400Y-23000D02*
X21300Y-23000D01*
X21300Y-23000D02*
X21400Y-23000D01*
X21400Y-21700D02*
X21800Y-21700D01*
X21800Y-21700D02*
X22250Y-22150D01*
G54D35*
X23100Y-22150D02*
X22250Y-22150D01*
G54D36*
X22250Y-22150D02*
X21450Y-22150D01*
X21450Y-22150D02*
X21400Y-22200D01*
G54D35*
X23800Y-24850D02*
X23800Y-24800D01*
G54D41*
X19700Y-34300D02*
X19805Y-34300D01*
X19805Y-34300D02*
X19700Y-34300D01*
X19700Y-34300D02*
X19805Y-34300D01*
G54D35*
X21400Y-35100D02*
X19805Y-35100D01*
G54D41*
X19805Y-35100D02*
X19800Y-35100D01*
X19800Y-35100D02*
X19805Y-35100D01*
X21400Y-33100D02*
X19805Y-33100D01*
X19805Y-33100D02*
X19800Y-33105D01*
X19800Y-33105D02*
X19800Y-33200D01*
X19800Y-33200D02*
X19805Y-33200D01*
G54D37*
X21200Y-39900D02*
X35350Y-39900D01*
X19805Y-35100D02*
X19796Y-38011D01*
X19796Y-38011D02*
X19859Y-38554D01*
X19859Y-38554D02*
X21200Y-39900D01*
X21400Y-29710D02*
X19805Y-31305D01*
X21400Y-22200D02*
X21400Y-23000D01*
X21400Y-23000D02*
X21400Y-29710D01*
X19805Y-31305D02*
X19805Y-33200D01*
X19805Y-33200D02*
X19805Y-34300D01*
X19805Y-34300D02*
X19805Y-35100D01*
G54D40*
X23100Y-22150D02*
X23100Y-22150D01*
G54D37*
X21400Y-21700D02*
X21400Y-22200D01*
G54D36*
X17037Y-34282D02*
X17042Y-34282D01*
X17030Y-34290D02*
X17037Y-34282D01*
G54D41*
X16100Y-33400D02*
X17042Y-34282D01*
G54D39*
X33325Y-24000D02*
X33325Y-23980D01*
G54D36*
X23150Y-24850D02*
X23100Y-24800D01*
G54D37*
X40800Y-9400D02*
X41950Y-9300D01*
G54D40*
X32000Y-37550D02*
X32720Y-36905D01*
X32520Y-33805D02*
X32420Y-33805D01*
X32720Y-34105D02*
X32520Y-33805D01*
X32720Y-36905D02*
X32720Y-34105D01*
G54D38*
X30500Y-8800D02*
X30400Y-8800D01*
G54D39*
X40500Y-7100D02*
X39900Y-7700D01*
X39900Y-7700D02*
X38800Y-7700D01*
X38800Y-7700D02*
X37700Y-8800D01*
X40500Y-6100D02*
X40500Y-7100D01*
X37700Y-8800D02*
X34000Y-8800D01*
G54D38*
X30000Y-7500D02*
X29500Y-7000D01*
X30000Y-8400D02*
X30000Y-7500D01*
X30400Y-8800D02*
X30000Y-8400D01*
G54D37*
X15100Y-7147D02*
X13250Y-9500D01*
X40800Y-22900D02*
X40800Y-20400D01*
G54D40*
X33120Y-33905D02*
X32520Y-33305D01*
X33100Y-37550D02*
X33120Y-33905D01*
G54D37*
X40800Y-13900D02*
X40800Y-11400D01*
X40800Y-18400D02*
X40800Y-15900D01*
X41800Y-27300D02*
X40800Y-24900D01*
X40800Y-31800D02*
X41800Y-29300D01*
G54D39*
X23813Y-19552D02*
X24848Y-19552D01*
X24848Y-19552D02*
X26280Y-18120D01*
X26280Y-18120D02*
X33620Y-18120D01*
X38200Y-8900D02*
X37000Y-10100D01*
X37000Y-10100D02*
X37000Y-13600D01*
X37000Y-13600D02*
X35200Y-15400D01*
X35200Y-15400D02*
X35100Y-15400D01*
X45700Y-6300D02*
X44000Y-8000D01*
X44000Y-8000D02*
X39100Y-8000D01*
X39100Y-8000D02*
X38200Y-8900D01*
X45700Y-6300D02*
X45800Y-6300D01*
G54D40*
X44000Y-38700D02*
X43800Y-38700D01*
X43800Y-38700D02*
X43500Y-38400D01*
X43500Y-38400D02*
X43500Y-35800D01*
X43500Y-35800D02*
X41500Y-33800D01*
X41500Y-33800D02*
X41500Y-33300D01*
X41500Y-33300D02*
X41200Y-33000D01*
X41200Y-33000D02*
X38400Y-33000D01*
G54D38*
X36450Y-24500D02*
X36450Y-24550D01*
G54D40*
X44000Y-38700D02*
X44000Y-38700D01*
X37000Y-31600D02*
X38400Y-33000D01*
X37000Y-26100D02*
X37000Y-31600D01*
G54D39*
X36350Y-25450D02*
X37000Y-26100D01*
G54D38*
X36350Y-24633D02*
X36350Y-25450D01*
X36450Y-24550D02*
X36350Y-24633D01*
G54D39*
X35050Y-22800D02*
X35050Y-27575D01*
X26550Y-28600D02*
X23775Y-28600D01*
X27230Y-27920D02*
X26550Y-28600D01*
X34705Y-27920D02*
X27230Y-27920D01*
X35050Y-27575D02*
X34705Y-27920D01*
G54D38*
X24500Y-8000D02*
X24500Y-8600D01*
X25600Y-9700D02*
X24500Y-8600D01*
X24000Y-8600D02*
X24000Y-7500D01*
X24500Y-7000D02*
X24000Y-7500D01*
X24000Y-8600D02*
X25100Y-9700D01*
X25100Y-9700D02*
X25100Y-9800D01*
X25600Y-10600D02*
X26250Y-9950D01*
X26250Y-9950D02*
X26250Y-8750D01*
X25500Y-8000D02*
X26250Y-8750D01*
X25600Y-10750D02*
X25600Y-10600D01*
X25050Y-10750D02*
X25100Y-10750D01*
X25000Y-7500D02*
X25500Y-7000D01*
X25000Y-8350D02*
X25000Y-7500D01*
X26000Y-9350D02*
X25000Y-8350D01*
X26000Y-9850D02*
X26000Y-9350D01*
X25100Y-10750D02*
X26000Y-9850D01*
X18000Y-8900D02*
X18500Y-9400D01*
X25250Y-11500D02*
X25850Y-11500D01*
X26750Y-8250D02*
X26500Y-8000D01*
X26750Y-10600D02*
X26750Y-8250D01*
X25850Y-11500D02*
X26750Y-10600D01*
X17500Y-7500D02*
X18000Y-8000D01*
X18000Y-8000D02*
X18000Y-8900D01*
X26500Y-7000D02*
X26000Y-7500D01*
X25100Y-11100D02*
X24700Y-11500D01*
X25800Y-11100D02*
X25100Y-11100D01*
X26500Y-10400D02*
X25800Y-11100D01*
X26500Y-8700D02*
X26500Y-10400D01*
X26000Y-8200D02*
X26500Y-8700D01*
X26000Y-7500D02*
X26000Y-8200D01*
X35800Y-12300D02*
X35600Y-12100D01*
X35600Y-12100D02*
X34100Y-12100D01*
X34100Y-12100D02*
X33000Y-11000D01*
X33000Y-11000D02*
X33000Y-7400D01*
X33000Y-7400D02*
X33500Y-7000D01*
X33500Y-8000D02*
X33500Y-10800D01*
X34200Y-11500D02*
X33500Y-10800D01*
X35200Y-11500D02*
X34200Y-11500D01*
X35400Y-11700D02*
X35200Y-11500D01*
G54D39*
X37450Y-24000D02*
X37450Y-14600D01*
X37450Y-24000D02*
X36950Y-24500D01*
G54D40*
X47100Y-12400D02*
X47100Y-12400D01*
X47100Y-12400D02*
X45500Y-10800D01*
X45500Y-10800D02*
X42600Y-10800D01*
X42600Y-10800D02*
X41600Y-11800D01*
X41600Y-11800D02*
X41600Y-15200D01*
X36700Y-24900D02*
X37150Y-24900D01*
X41120Y-19430D02*
X38720Y-19430D01*
X41600Y-18950D02*
X41120Y-19430D01*
X41600Y-15200D02*
X41600Y-18950D01*
X38720Y-19430D02*
X37750Y-20400D01*
X37150Y-24900D02*
X37750Y-24300D01*
X37750Y-24300D02*
X37750Y-20400D01*
X39600Y-27200D02*
X40400Y-27200D01*
X40400Y-27200D02*
X41300Y-28100D01*
X41300Y-28100D02*
X43400Y-28100D01*
X43400Y-28100D02*
X43600Y-28300D01*
X38800Y-26400D02*
X39600Y-27200D01*
X39600Y-27200D02*
X39575Y-27175D01*
G54D38*
X23300Y-37607D02*
X23107Y-37607D01*
X23107Y-37607D02*
X22200Y-36700D01*
X22600Y-29200D02*
X22600Y-30100D01*
X22600Y-30100D02*
X22200Y-30500D01*
X22200Y-30500D02*
X22200Y-36700D01*
G54D39*
X22900Y-34700D02*
X22900Y-36000D01*
X23000Y-34600D02*
X22900Y-34700D01*
G54D38*
X30300Y-29900D02*
X30200Y-29800D01*
X30200Y-29800D02*
X28800Y-29800D01*
X23300Y-38592D02*
X23300Y-38300D01*
X21950Y-36950D02*
X21950Y-30250D01*
X21950Y-30250D02*
X22200Y-30000D01*
X23300Y-38300D02*
X21950Y-36950D01*
X22200Y-30000D02*
X22200Y-30100D01*
X22200Y-30000D02*
X22200Y-30100D01*
G54D39*
X22500Y-34400D02*
X22900Y-34000D01*
X22500Y-36300D02*
X22500Y-34400D01*
X22700Y-36500D02*
X22500Y-36300D01*
G54D40*
X23200Y-31300D02*
X23200Y-32200D01*
G54D38*
X19000Y-11100D02*
X19000Y-7900D01*
X19000Y-7900D02*
X19400Y-7500D01*
X19400Y-7500D02*
X19500Y-7500D01*
G54D10*
G36*
X34650Y-27195D02*
X34614Y-27371D01*
X34517Y-27517D01*
X34401Y-27595D01*
X27230Y-27595D01*
X27230Y-27594D01*
X27105Y-27619D01*
X27050Y-27656D01*
X26930Y-27674D01*
X26780Y-27748D01*
X26662Y-27861D01*
X26462Y-28121D01*
X26361Y-28218D01*
X26246Y-28275D01*
X24336Y-28275D01*
X24285Y-28264D01*
X24135Y-28164D01*
X23084Y-27113D01*
X23010Y-27017D01*
X22965Y-26909D01*
X22950Y-26789D01*
X22950Y-22206D01*
X22983Y-22033D01*
X23079Y-21885D01*
X25586Y-19289D01*
X25682Y-19213D01*
X25793Y-19166D01*
X25915Y-19150D01*
X31024Y-19150D01*
X31150Y-19175D01*
X31275Y-19150D01*
X34195Y-19150D01*
X34371Y-19185D01*
X34517Y-19282D01*
X34614Y-19428D01*
X34650Y-19604D01*
X34650Y-22655D01*
X34625Y-22715D01*
X34624Y-22884D01*
X34650Y-22944D01*
X34650Y-27195D01*
X34650Y-27195D01*
G37*
G54D38*
X34650Y-27195D02*
X34614Y-27371D01*
X34517Y-27517D01*
X34401Y-27595D01*
X27230Y-27595D01*
X27230Y-27594D01*
X27105Y-27619D01*
X27050Y-27656D01*
X26930Y-27674D01*
X26780Y-27748D01*
X26662Y-27861D01*
X26462Y-28121D01*
X26361Y-28218D01*
X26246Y-28275D01*
X24336Y-28275D01*
X24285Y-28264D01*
X24135Y-28164D01*
X23084Y-27113D01*
X23010Y-27017D01*
X22965Y-26909D01*
X22950Y-26789D01*
X22950Y-22206D01*
X22983Y-22033D01*
X23079Y-21885D01*
X25586Y-19289D01*
X25682Y-19213D01*
X25793Y-19166D01*
X25915Y-19150D01*
X31024Y-19150D01*
X31150Y-19175D01*
X31275Y-19150D01*
X34195Y-19150D01*
X34371Y-19185D01*
X34517Y-19282D01*
X34614Y-19428D01*
X34650Y-19604D01*
X34650Y-22655D01*
X34625Y-22715D01*
X34624Y-22884D01*
X34650Y-22944D01*
X34650Y-27195D01*
G54D10*
G36*
X31970Y-36200D02*
X31934Y-36376D01*
X31837Y-36522D01*
X31691Y-36619D01*
X31515Y-36655D01*
X24024Y-36655D01*
X23848Y-36619D01*
X23702Y-36522D01*
X23605Y-36376D01*
X23570Y-36200D01*
X23570Y-32417D01*
X23624Y-32284D01*
X23625Y-32115D01*
X23570Y-31982D01*
X23570Y-31517D01*
X23624Y-31384D01*
X23625Y-31215D01*
X23587Y-31123D01*
X23605Y-31033D01*
X23702Y-30887D01*
X23848Y-30790D01*
X24024Y-30755D01*
X31515Y-30755D01*
X31691Y-30790D01*
X31837Y-30887D01*
X31934Y-31033D01*
X31970Y-31209D01*
X31970Y-31365D01*
X31968Y-31368D01*
X31930Y-31560D01*
X31968Y-31751D01*
X31970Y-31754D01*
X31970Y-36200D01*
X31970Y-36200D01*
G37*
G54D38*
X31970Y-36200D02*
X31934Y-36376D01*
X31837Y-36522D01*
X31691Y-36619D01*
X31515Y-36655D01*
X24024Y-36655D01*
X23848Y-36619D01*
X23702Y-36522D01*
X23605Y-36376D01*
X23570Y-36200D01*
X23570Y-32417D01*
X23624Y-32284D01*
X23625Y-32115D01*
X23570Y-31982D01*
X23570Y-31517D01*
X23624Y-31384D01*
X23625Y-31215D01*
X23587Y-31123D01*
X23605Y-31033D01*
X23702Y-30887D01*
X23848Y-30790D01*
X24024Y-30755D01*
X31515Y-30755D01*
X31691Y-30790D01*
X31837Y-30887D01*
X31934Y-31033D01*
X31970Y-31209D01*
X31970Y-31365D01*
X31968Y-31368D01*
X31930Y-31560D01*
X31968Y-31751D01*
X31970Y-31754D01*
X31970Y-36200D01*
G54D10*
G36*
X19950Y-18095D02*
X19914Y-18271D01*
X19817Y-18417D01*
X19671Y-18514D01*
X19495Y-18550D01*
X6704Y-18550D01*
X6528Y-18514D01*
X6382Y-18417D01*
X6285Y-18271D01*
X6250Y-18095D01*
X6250Y-15104D01*
X6285Y-14928D01*
X6382Y-14782D01*
X6528Y-14685D01*
X6704Y-14650D01*
X7154Y-14650D01*
X7360Y-14609D01*
X7539Y-14489D01*
X7659Y-14310D01*
X7700Y-14104D01*
X7700Y-9204D01*
X7735Y-9028D01*
X7832Y-8882D01*
X7978Y-8785D01*
X8154Y-8750D01*
X9495Y-8750D01*
X9671Y-8785D01*
X9817Y-8882D01*
X9914Y-9028D01*
X9950Y-9204D01*
X9950Y-14104D01*
X9990Y-14310D01*
X10110Y-14489D01*
X10289Y-14609D01*
X10495Y-14650D01*
X19495Y-14650D01*
X19671Y-14685D01*
X19817Y-14782D01*
X19914Y-14928D01*
X19950Y-15104D01*
X19950Y-18095D01*
X19950Y-18095D01*
G37*
G54D38*
X19950Y-18095D02*
X19914Y-18271D01*
X19817Y-18417D01*
X19671Y-18514D01*
X19495Y-18550D01*
X6704Y-18550D01*
X6528Y-18514D01*
X6382Y-18417D01*
X6285Y-18271D01*
X6250Y-18095D01*
X6250Y-15104D01*
X6285Y-14928D01*
X6382Y-14782D01*
X6528Y-14685D01*
X6704Y-14650D01*
X7154Y-14650D01*
X7360Y-14609D01*
X7539Y-14489D01*
X7659Y-14310D01*
X7700Y-14104D01*
X7700Y-9204D01*
X7735Y-9028D01*
X7832Y-8882D01*
X7978Y-8785D01*
X8154Y-8750D01*
X9495Y-8750D01*
X9671Y-8785D01*
X9817Y-8882D01*
X9914Y-9028D01*
X9950Y-9204D01*
X9950Y-14104D01*
X9990Y-14310D01*
X10110Y-14489D01*
X10289Y-14609D01*
X10495Y-14650D01*
X19495Y-14650D01*
X19671Y-14685D01*
X19817Y-14782D01*
X19914Y-14928D01*
X19950Y-15104D01*
X19950Y-18095D01*
G54D10*
G36*
X19950Y-29269D02*
X19931Y-29399D01*
X19878Y-29514D01*
X19793Y-29614D01*
X19311Y-30035D01*
X19170Y-30120D01*
X19007Y-30150D01*
X14404Y-30150D01*
X14228Y-30114D01*
X14082Y-30017D01*
X13985Y-29871D01*
X13950Y-29695D01*
X13950Y-19504D01*
X13985Y-19328D01*
X14082Y-19182D01*
X14228Y-19085D01*
X14404Y-19050D01*
X19495Y-19050D01*
X19671Y-19085D01*
X19817Y-19182D01*
X19914Y-19328D01*
X19950Y-19504D01*
X19950Y-29269D01*
X19950Y-29269D01*
G37*
G54D38*
X19950Y-29269D02*
X19931Y-29399D01*
X19878Y-29514D01*
X19793Y-29614D01*
X19311Y-30035D01*
X19170Y-30120D01*
X19007Y-30150D01*
X14404Y-30150D01*
X14228Y-30114D01*
X14082Y-30017D01*
X13985Y-29871D01*
X13950Y-29695D01*
X13950Y-19504D01*
X13985Y-19328D01*
X14082Y-19182D01*
X14228Y-19085D01*
X14404Y-19050D01*
X19495Y-19050D01*
X19671Y-19085D01*
X19817Y-19182D01*
X19914Y-19328D01*
X19950Y-19504D01*
X19950Y-29269D01*
G54D10*
G36*
X13350Y-22495D02*
X13314Y-22671D01*
X13217Y-22817D01*
X13071Y-22914D01*
X12895Y-22950D01*
X11695Y-22950D01*
X11489Y-22990D01*
X11310Y-23110D01*
X11190Y-23289D01*
X11150Y-23495D01*
X11150Y-28295D01*
X11114Y-28471D01*
X11017Y-28617D01*
X10871Y-28714D01*
X10695Y-28750D01*
X6704Y-28750D01*
X6528Y-28714D01*
X6382Y-28617D01*
X6285Y-28471D01*
X6250Y-28295D01*
X6250Y-19504D01*
X6285Y-19328D01*
X6382Y-19182D01*
X6528Y-19085D01*
X6704Y-19050D01*
X12895Y-19050D01*
X13071Y-19085D01*
X13217Y-19182D01*
X13314Y-19328D01*
X13350Y-19504D01*
X13350Y-22495D01*
X13350Y-22495D01*
G37*
G54D38*
X13350Y-22495D02*
X13314Y-22671D01*
X13217Y-22817D01*
X13071Y-22914D01*
X12895Y-22950D01*
X11695Y-22950D01*
X11489Y-22990D01*
X11310Y-23110D01*
X11190Y-23289D01*
X11150Y-23495D01*
X11150Y-28295D01*
X11114Y-28471D01*
X11017Y-28617D01*
X10871Y-28714D01*
X10695Y-28750D01*
X6704Y-28750D01*
X6528Y-28714D01*
X6382Y-28617D01*
X6285Y-28471D01*
X6250Y-28295D01*
X6250Y-19504D01*
X6285Y-19328D01*
X6382Y-19182D01*
X6528Y-19085D01*
X6704Y-19050D01*
X12895Y-19050D01*
X13071Y-19085D01*
X13217Y-19182D01*
X13314Y-19328D01*
X13350Y-19504D01*
X13350Y-22495D01*
G54D10*
G36*
X43050Y-38297D02*
X43041Y-38387D01*
X43015Y-38472D01*
X42973Y-38549D01*
X42918Y-38618D01*
X42849Y-38673D01*
X42772Y-38715D01*
X42687Y-38741D01*
X42597Y-38750D01*
X38402Y-38750D01*
X38312Y-38741D01*
X38227Y-38715D01*
X38150Y-38673D01*
X38081Y-38618D01*
X38026Y-38549D01*
X37986Y-38476D01*
X37998Y-38448D01*
X38046Y-38238D01*
X38050Y-37992D01*
X38008Y-37780D01*
X37950Y-37639D01*
X37950Y-36202D01*
X37958Y-36112D01*
X37984Y-36027D01*
X38026Y-35950D01*
X38026Y-35950D01*
X38773Y-35950D01*
X38773Y-35950D01*
X38815Y-36027D01*
X38841Y-36112D01*
X38850Y-36202D01*
X38850Y-36502D01*
X38860Y-36607D01*
X38891Y-36710D01*
X38942Y-36805D01*
X39010Y-36889D01*
X39094Y-36957D01*
X39189Y-37008D01*
X39292Y-37039D01*
X39397Y-37050D01*
X40702Y-37050D01*
X40807Y-37039D01*
X40910Y-37008D01*
X40926Y-37000D01*
X40984Y-37000D01*
X41052Y-36986D01*
X41115Y-36960D01*
X41173Y-36921D01*
X41221Y-36873D01*
X41260Y-36815D01*
X41286Y-36752D01*
X41300Y-36684D01*
X41300Y-36615D01*
X41300Y-36479D01*
X41309Y-36450D01*
X41324Y-36310D01*
X41325Y-36300D01*
X41325Y-36137D01*
X41382Y-36032D01*
X41432Y-35873D01*
X41435Y-35841D01*
X41466Y-35785D01*
X41467Y-35781D01*
X41469Y-35778D01*
X41488Y-35714D01*
X41509Y-35650D01*
X41509Y-35646D01*
X41510Y-35643D01*
X41517Y-35576D01*
X41524Y-35510D01*
X41524Y-35502D01*
X41524Y-35502D01*
X41524Y-35502D01*
X41525Y-35500D01*
X41525Y-35486D01*
X41527Y-35484D01*
X41612Y-35458D01*
X41702Y-35450D01*
X42490Y-35450D01*
X42516Y-35452D01*
X43047Y-35983D01*
X43050Y-36009D01*
X43050Y-38297D01*
X43050Y-38297D01*
G37*
G54D38*
X43050Y-38297D02*
X43041Y-38387D01*
X43015Y-38472D01*
X42973Y-38549D01*
X42918Y-38618D01*
X42849Y-38673D01*
X42772Y-38715D01*
X42687Y-38741D01*
X42597Y-38750D01*
X38402Y-38750D01*
X38312Y-38741D01*
X38227Y-38715D01*
X38150Y-38673D01*
X38081Y-38618D01*
X38026Y-38549D01*
X37986Y-38476D01*
X37998Y-38448D01*
X38046Y-38238D01*
X38050Y-37992D01*
X38008Y-37780D01*
X37950Y-37639D01*
X37950Y-36202D01*
X37958Y-36112D01*
X37984Y-36027D01*
X38026Y-35950D01*
X38026Y-35950D01*
X38773Y-35950D01*
X38773Y-35950D01*
X38815Y-36027D01*
X38841Y-36112D01*
X38850Y-36202D01*
X38850Y-36502D01*
X38860Y-36607D01*
X38891Y-36710D01*
X38942Y-36805D01*
X39010Y-36889D01*
X39094Y-36957D01*
X39189Y-37008D01*
X39292Y-37039D01*
X39397Y-37050D01*
X40702Y-37050D01*
X40807Y-37039D01*
X40910Y-37008D01*
X40926Y-37000D01*
X40984Y-37000D01*
X41052Y-36986D01*
X41115Y-36960D01*
X41173Y-36921D01*
X41221Y-36873D01*
X41260Y-36815D01*
X41286Y-36752D01*
X41300Y-36684D01*
X41300Y-36615D01*
X41300Y-36479D01*
X41309Y-36450D01*
X41324Y-36310D01*
X41325Y-36300D01*
X41325Y-36137D01*
X41382Y-36032D01*
X41432Y-35873D01*
X41435Y-35841D01*
X41466Y-35785D01*
X41467Y-35781D01*
X41469Y-35778D01*
X41488Y-35714D01*
X41509Y-35650D01*
X41509Y-35646D01*
X41510Y-35643D01*
X41517Y-35576D01*
X41524Y-35510D01*
X41524Y-35502D01*
X41524Y-35502D01*
X41524Y-35502D01*
X41525Y-35500D01*
X41525Y-35486D01*
X41527Y-35484D01*
X41612Y-35458D01*
X41702Y-35450D01*
X42490Y-35450D01*
X42516Y-35452D01*
X43047Y-35983D01*
X43050Y-36009D01*
X43050Y-38297D01*
M02*
