G04 (created by PCBNEW (2013-mar-13)-testing) date Tue 02 Jul 2013 01:16:46 PM EDT*
%MOIN*%
G04 Gerber Fmt 3.4, Leading zero omitted, Abs format*
%FSLAX34Y34*%
G01*
G70*
G90*
G04 APERTURE LIST*
%ADD10C,0.005906*%
G04 APERTURE END LIST*
G54D10*
G36*
X7045Y-32438D02*
X6454Y-32438D01*
X6454Y-32161D01*
X7045Y-32161D01*
X7045Y-32438D01*
X7045Y-32438D01*
G37*
G36*
X7045Y-33438D02*
X6454Y-33438D01*
X6454Y-33161D01*
X7045Y-33161D01*
X7045Y-33438D01*
X7045Y-33438D01*
G37*
G36*
X7220Y-31695D02*
X6829Y-31695D01*
X6829Y-31104D01*
X7220Y-31104D01*
X7220Y-31695D01*
X7220Y-31695D01*
G37*
G36*
X7320Y-6421D02*
X7317Y-6601D01*
X7281Y-6761D01*
X7217Y-6905D01*
X7122Y-7039D01*
X7008Y-7148D01*
X6870Y-7236D01*
X6723Y-7293D01*
X6561Y-7321D01*
X6403Y-7318D01*
X6243Y-7283D01*
X6099Y-7220D01*
X5964Y-7126D01*
X5855Y-7013D01*
X5766Y-6875D01*
X5708Y-6728D01*
X5678Y-6567D01*
X5680Y-6409D01*
X5714Y-6249D01*
X5776Y-6104D01*
X5869Y-5968D01*
X5982Y-5858D01*
X6119Y-5768D01*
X6265Y-5709D01*
X6427Y-5679D01*
X6584Y-5680D01*
X6745Y-5713D01*
X6890Y-5774D01*
X7026Y-5866D01*
X7137Y-5977D01*
X7228Y-6114D01*
X7288Y-6259D01*
X7320Y-6421D01*
X7320Y-6421D01*
G37*
G36*
X7320Y-39421D02*
X7317Y-39601D01*
X7281Y-39761D01*
X7217Y-39905D01*
X7122Y-40039D01*
X7008Y-40148D01*
X6870Y-40236D01*
X6723Y-40293D01*
X6561Y-40321D01*
X6403Y-40318D01*
X6243Y-40283D01*
X6099Y-40220D01*
X5964Y-40126D01*
X5855Y-40013D01*
X5766Y-39875D01*
X5708Y-39728D01*
X5678Y-39567D01*
X5680Y-39409D01*
X5714Y-39249D01*
X5776Y-39104D01*
X5869Y-38968D01*
X5982Y-38858D01*
X6119Y-38768D01*
X6265Y-38709D01*
X6427Y-38679D01*
X6584Y-38680D01*
X6745Y-38713D01*
X6890Y-38774D01*
X7026Y-38866D01*
X7137Y-38977D01*
X7228Y-39114D01*
X7288Y-39259D01*
X7320Y-39421D01*
X7320Y-39421D01*
G37*
G36*
X7562Y-10791D02*
X7560Y-10903D01*
X7537Y-11004D01*
X7498Y-11093D01*
X7438Y-11177D01*
X7368Y-11244D01*
X7280Y-11300D01*
X7189Y-11335D01*
X7087Y-11353D01*
X6990Y-11351D01*
X6889Y-11329D01*
X6800Y-11290D01*
X6715Y-11231D01*
X6647Y-11161D01*
X6591Y-11073D01*
X6555Y-10983D01*
X6536Y-10881D01*
X6538Y-10784D01*
X6559Y-10682D01*
X6598Y-10593D01*
X6656Y-10507D01*
X6726Y-10440D01*
X6813Y-10383D01*
X6902Y-10346D01*
X7005Y-10327D01*
X7101Y-10328D01*
X7204Y-10348D01*
X7293Y-10386D01*
X7379Y-10444D01*
X7447Y-10513D01*
X7505Y-10600D01*
X7542Y-10689D01*
X7562Y-10791D01*
X7562Y-10791D01*
G37*
G36*
X7562Y-12374D02*
X7560Y-12485D01*
X7537Y-12586D01*
X7498Y-12675D01*
X7438Y-12760D01*
X7368Y-12827D01*
X7280Y-12882D01*
X7189Y-12918D01*
X7087Y-12936D01*
X6990Y-12934D01*
X6889Y-12911D01*
X6800Y-12872D01*
X6715Y-12813D01*
X6647Y-12743D01*
X6591Y-12656D01*
X6555Y-12566D01*
X6536Y-12464D01*
X6538Y-12367D01*
X6559Y-12265D01*
X6598Y-12176D01*
X6656Y-12090D01*
X6726Y-12022D01*
X6813Y-11965D01*
X6902Y-11929D01*
X7005Y-11910D01*
X7101Y-11910D01*
X7204Y-11931D01*
X7293Y-11969D01*
X7379Y-12027D01*
X7447Y-12095D01*
X7505Y-12182D01*
X7542Y-12272D01*
X7562Y-12374D01*
X7562Y-12374D01*
G37*
G36*
X7562Y-19289D02*
X6537Y-19289D01*
X6537Y-18264D01*
X7562Y-18264D01*
X7562Y-19289D01*
X7562Y-19289D01*
G37*
G36*
X7562Y-20872D02*
X6537Y-20872D01*
X6537Y-19847D01*
X7562Y-19847D01*
X7562Y-20872D01*
X7562Y-20872D01*
G37*
G36*
X7719Y-26433D02*
X7717Y-26586D01*
X7686Y-26721D01*
X7632Y-26843D01*
X7552Y-26957D01*
X7455Y-27049D01*
X7338Y-27124D01*
X7213Y-27172D01*
X7076Y-27196D01*
X6943Y-27193D01*
X6807Y-27163D01*
X6685Y-27110D01*
X6570Y-27030D01*
X6477Y-26935D01*
X6402Y-26817D01*
X6353Y-26694D01*
X6328Y-26556D01*
X6330Y-26423D01*
X6359Y-26287D01*
X6411Y-26164D01*
X6490Y-26049D01*
X6585Y-25956D01*
X6702Y-25880D01*
X6825Y-25830D01*
X6962Y-25804D01*
X7095Y-25805D01*
X7232Y-25833D01*
X7355Y-25884D01*
X7471Y-25962D01*
X7564Y-26057D01*
X7642Y-26173D01*
X7692Y-26296D01*
X7692Y-26298D01*
X7719Y-26433D01*
X7719Y-26433D01*
G37*
G36*
X7970Y-31695D02*
X7579Y-31695D01*
X7579Y-31104D01*
X7970Y-31104D01*
X7970Y-31695D01*
X7970Y-31695D01*
G37*
G36*
X9092Y-7972D02*
X9091Y-8035D01*
X9078Y-8094D01*
X9055Y-8145D01*
X9020Y-8194D01*
X8981Y-8232D01*
X8929Y-8265D01*
X8878Y-8285D01*
X8818Y-8295D01*
X8763Y-8294D01*
X8704Y-8281D01*
X8653Y-8259D01*
X8603Y-8224D01*
X8565Y-8185D01*
X8532Y-8134D01*
X8512Y-8083D01*
X8501Y-8023D01*
X8502Y-7968D01*
X8515Y-7908D01*
X8536Y-7858D01*
X8571Y-7808D01*
X8610Y-7769D01*
X8661Y-7736D01*
X8711Y-7715D01*
X8772Y-7704D01*
X8826Y-7704D01*
X8886Y-7717D01*
X8936Y-7738D01*
X8987Y-7772D01*
X9025Y-7811D01*
X9060Y-7862D01*
X9080Y-7912D01*
X9081Y-7914D01*
X9092Y-7971D01*
X9092Y-7972D01*
X9092Y-7972D01*
G37*
G36*
X9145Y-32438D02*
X8554Y-32438D01*
X8554Y-32161D01*
X9145Y-32161D01*
X9145Y-32438D01*
X9145Y-32438D01*
G37*
G36*
X9145Y-33438D02*
X8554Y-33438D01*
X8554Y-33161D01*
X9145Y-33161D01*
X9145Y-33438D01*
X9145Y-33438D01*
G37*
G36*
X9255Y-26433D02*
X9253Y-26586D01*
X9222Y-26721D01*
X9167Y-26843D01*
X9087Y-26957D01*
X8991Y-27049D01*
X8873Y-27124D01*
X8749Y-27172D01*
X8611Y-27196D01*
X8478Y-27193D01*
X8342Y-27163D01*
X8220Y-27110D01*
X8105Y-27030D01*
X8013Y-26935D01*
X7937Y-26817D01*
X7888Y-26694D01*
X7863Y-26556D01*
X7865Y-26423D01*
X7894Y-26287D01*
X7946Y-26164D01*
X8025Y-26049D01*
X8120Y-25956D01*
X8237Y-25880D01*
X8360Y-25830D01*
X8498Y-25804D01*
X8631Y-25805D01*
X8768Y-25833D01*
X8890Y-25884D01*
X9006Y-25962D01*
X9099Y-26057D01*
X9177Y-26173D01*
X9228Y-26296D01*
X9228Y-26298D01*
X9255Y-26433D01*
X9255Y-26433D01*
G37*
G36*
X10745Y-32445D02*
X9854Y-32445D01*
X9854Y-31554D01*
X10745Y-31554D01*
X10745Y-32445D01*
X10745Y-32445D01*
G37*
G36*
X10790Y-26433D02*
X10788Y-26586D01*
X10757Y-26721D01*
X10703Y-26843D01*
X10623Y-26957D01*
X10526Y-27049D01*
X10408Y-27124D01*
X10284Y-27172D01*
X10147Y-27196D01*
X10014Y-27193D01*
X9877Y-27163D01*
X9755Y-27110D01*
X9641Y-27030D01*
X9548Y-26935D01*
X9473Y-26817D01*
X9424Y-26694D01*
X9399Y-26556D01*
X9400Y-26423D01*
X9429Y-26287D01*
X9482Y-26164D01*
X9561Y-26049D01*
X9656Y-25956D01*
X9773Y-25880D01*
X9896Y-25830D01*
X10033Y-25804D01*
X10166Y-25805D01*
X10303Y-25833D01*
X10425Y-25884D01*
X10542Y-25962D01*
X10635Y-26057D01*
X10712Y-26173D01*
X10763Y-26296D01*
X10763Y-26298D01*
X10790Y-26433D01*
X10790Y-26433D01*
G37*
G36*
X11070Y-6220D02*
X11069Y-6288D01*
X11054Y-6352D01*
X11030Y-6407D01*
X10992Y-6461D01*
X10949Y-6502D01*
X10893Y-6537D01*
X10837Y-6559D01*
X10773Y-6570D01*
X10713Y-6569D01*
X10649Y-6555D01*
X10594Y-6531D01*
X10540Y-6493D01*
X10498Y-6451D01*
X10463Y-6395D01*
X10441Y-6340D01*
X10429Y-6275D01*
X10430Y-6215D01*
X10443Y-6151D01*
X10467Y-6096D01*
X10504Y-6041D01*
X10547Y-6000D01*
X10602Y-5964D01*
X10657Y-5941D01*
X10722Y-5929D01*
X10781Y-5929D01*
X10846Y-5943D01*
X10901Y-5966D01*
X10956Y-6003D01*
X10998Y-6045D01*
X11034Y-6100D01*
X11057Y-6155D01*
X11070Y-6220D01*
X11070Y-6220D01*
G37*
G36*
X11562Y-14728D02*
X11560Y-14840D01*
X11537Y-14941D01*
X11498Y-15030D01*
X11438Y-15114D01*
X11368Y-15181D01*
X11280Y-15237D01*
X11189Y-15272D01*
X11087Y-15290D01*
X10990Y-15288D01*
X10889Y-15266D01*
X10800Y-15227D01*
X10715Y-15168D01*
X10647Y-15098D01*
X10591Y-15010D01*
X10555Y-14920D01*
X10536Y-14818D01*
X10538Y-14721D01*
X10559Y-14619D01*
X10598Y-14530D01*
X10656Y-14444D01*
X10726Y-14377D01*
X10813Y-14320D01*
X10902Y-14283D01*
X11005Y-14264D01*
X11101Y-14265D01*
X11204Y-14285D01*
X11293Y-14323D01*
X11379Y-14381D01*
X11447Y-14450D01*
X11505Y-14537D01*
X11542Y-14626D01*
X11562Y-14728D01*
X11562Y-14728D01*
G37*
G36*
X11562Y-16311D02*
X11560Y-16422D01*
X11537Y-16523D01*
X11498Y-16612D01*
X11438Y-16697D01*
X11368Y-16764D01*
X11280Y-16819D01*
X11189Y-16855D01*
X11087Y-16873D01*
X10990Y-16871D01*
X10889Y-16848D01*
X10800Y-16809D01*
X10715Y-16750D01*
X10647Y-16680D01*
X10591Y-16593D01*
X10555Y-16503D01*
X10536Y-16401D01*
X10538Y-16304D01*
X10559Y-16202D01*
X10598Y-16113D01*
X10656Y-16027D01*
X10726Y-15959D01*
X10813Y-15902D01*
X10902Y-15866D01*
X11005Y-15847D01*
X11101Y-15847D01*
X11204Y-15868D01*
X11293Y-15906D01*
X11379Y-15964D01*
X11447Y-16033D01*
X11505Y-16119D01*
X11542Y-16209D01*
X11562Y-16311D01*
X11562Y-16311D01*
G37*
G36*
X12995Y-23126D02*
X12993Y-23279D01*
X12962Y-23414D01*
X12908Y-23536D01*
X12827Y-23650D01*
X12731Y-23742D01*
X12613Y-23817D01*
X12489Y-23865D01*
X12352Y-23889D01*
X12218Y-23886D01*
X12082Y-23856D01*
X11960Y-23803D01*
X11846Y-23723D01*
X11753Y-23628D01*
X11677Y-23510D01*
X11628Y-23387D01*
X11603Y-23249D01*
X11605Y-23116D01*
X11634Y-22980D01*
X11687Y-22857D01*
X11766Y-22742D01*
X11860Y-22649D01*
X11977Y-22573D01*
X12101Y-22523D01*
X12238Y-22497D01*
X12371Y-22498D01*
X12508Y-22526D01*
X12630Y-22577D01*
X12746Y-22655D01*
X12840Y-22749D01*
X12917Y-22866D01*
X12968Y-22989D01*
X12968Y-22991D01*
X12995Y-23126D01*
X12995Y-23126D01*
G37*
G36*
X12995Y-29740D02*
X12993Y-29893D01*
X12962Y-30028D01*
X12908Y-30150D01*
X12827Y-30264D01*
X12731Y-30356D01*
X12613Y-30431D01*
X12489Y-30479D01*
X12352Y-30503D01*
X12218Y-30500D01*
X12082Y-30470D01*
X11960Y-30417D01*
X11846Y-30337D01*
X11753Y-30242D01*
X11677Y-30124D01*
X11628Y-30001D01*
X11603Y-29863D01*
X11605Y-29730D01*
X11634Y-29594D01*
X11687Y-29472D01*
X11766Y-29356D01*
X11860Y-29263D01*
X11977Y-29187D01*
X12101Y-29137D01*
X12238Y-29111D01*
X12371Y-29112D01*
X12508Y-29140D01*
X12630Y-29191D01*
X12746Y-29270D01*
X12840Y-29364D01*
X12917Y-29480D01*
X12968Y-29603D01*
X12968Y-29605D01*
X12995Y-29740D01*
X12995Y-29740D01*
G37*
G36*
X14998Y-7972D02*
X14997Y-8035D01*
X14983Y-8094D01*
X14961Y-8145D01*
X14926Y-8194D01*
X14886Y-8232D01*
X14835Y-8265D01*
X14783Y-8285D01*
X14723Y-8295D01*
X14669Y-8294D01*
X14609Y-8281D01*
X14559Y-8259D01*
X14509Y-8224D01*
X14471Y-8185D01*
X14438Y-8134D01*
X14418Y-8083D01*
X14407Y-8023D01*
X14407Y-7968D01*
X14420Y-7908D01*
X14442Y-7858D01*
X14476Y-7808D01*
X14515Y-7769D01*
X14566Y-7736D01*
X14617Y-7715D01*
X14677Y-7704D01*
X14731Y-7704D01*
X14792Y-7717D01*
X14842Y-7738D01*
X14893Y-7772D01*
X14931Y-7811D01*
X14965Y-7862D01*
X14986Y-7912D01*
X14986Y-7914D01*
X14997Y-7971D01*
X14998Y-7972D01*
X14998Y-7972D01*
G37*
G36*
X15070Y-6220D02*
X15069Y-6288D01*
X15054Y-6352D01*
X15030Y-6407D01*
X14992Y-6461D01*
X14949Y-6502D01*
X14893Y-6537D01*
X14837Y-6559D01*
X14773Y-6570D01*
X14713Y-6569D01*
X14649Y-6555D01*
X14594Y-6531D01*
X14540Y-6493D01*
X14498Y-6451D01*
X14463Y-6395D01*
X14441Y-6340D01*
X14429Y-6275D01*
X14430Y-6215D01*
X14443Y-6151D01*
X14467Y-6096D01*
X14504Y-6041D01*
X14547Y-6000D01*
X14602Y-5964D01*
X14657Y-5941D01*
X14722Y-5929D01*
X14781Y-5929D01*
X14846Y-5943D01*
X14901Y-5966D01*
X14956Y-6003D01*
X14998Y-6045D01*
X15034Y-6100D01*
X15057Y-6155D01*
X15070Y-6220D01*
X15070Y-6220D01*
G37*
G36*
X16302Y-24897D02*
X16300Y-25050D01*
X16269Y-25186D01*
X16215Y-25308D01*
X16134Y-25422D01*
X16038Y-25514D01*
X15920Y-25588D01*
X15796Y-25636D01*
X15659Y-25661D01*
X15525Y-25658D01*
X15389Y-25628D01*
X15267Y-25575D01*
X15153Y-25495D01*
X15060Y-25399D01*
X14985Y-25282D01*
X14936Y-25158D01*
X14910Y-25021D01*
X14912Y-24888D01*
X14941Y-24751D01*
X14994Y-24629D01*
X15073Y-24514D01*
X15168Y-24421D01*
X15285Y-24344D01*
X15408Y-24294D01*
X15545Y-24268D01*
X15678Y-24269D01*
X15815Y-24297D01*
X15937Y-24349D01*
X16053Y-24427D01*
X16147Y-24521D01*
X16224Y-24638D01*
X16275Y-24760D01*
X16275Y-24762D01*
X16302Y-24897D01*
X16302Y-24897D01*
G37*
G36*
X16302Y-26433D02*
X16300Y-26586D01*
X16269Y-26721D01*
X16215Y-26843D01*
X16134Y-26957D01*
X16038Y-27049D01*
X15920Y-27124D01*
X15796Y-27172D01*
X15659Y-27196D01*
X15525Y-27193D01*
X15389Y-27163D01*
X15267Y-27110D01*
X15153Y-27030D01*
X15060Y-26935D01*
X14985Y-26817D01*
X14936Y-26694D01*
X14910Y-26556D01*
X14912Y-26423D01*
X14941Y-26287D01*
X14994Y-26164D01*
X15073Y-26049D01*
X15168Y-25956D01*
X15285Y-25880D01*
X15408Y-25830D01*
X15545Y-25804D01*
X15678Y-25805D01*
X15815Y-25833D01*
X15937Y-25884D01*
X16053Y-25962D01*
X16147Y-26057D01*
X16224Y-26173D01*
X16275Y-26296D01*
X16275Y-26298D01*
X16302Y-26433D01*
X16302Y-26433D01*
G37*
G36*
X16302Y-27968D02*
X16300Y-28121D01*
X16269Y-28257D01*
X16215Y-28379D01*
X16134Y-28492D01*
X16038Y-28584D01*
X15920Y-28659D01*
X15796Y-28707D01*
X15659Y-28732D01*
X15525Y-28729D01*
X15389Y-28699D01*
X15267Y-28645D01*
X15153Y-28566D01*
X15060Y-28470D01*
X14985Y-28353D01*
X14936Y-28229D01*
X14910Y-28092D01*
X14912Y-27959D01*
X14941Y-27822D01*
X14994Y-27700D01*
X15073Y-27585D01*
X15168Y-27492D01*
X15285Y-27415D01*
X15408Y-27365D01*
X15545Y-27339D01*
X15678Y-27340D01*
X15815Y-27368D01*
X15937Y-27420D01*
X16053Y-27498D01*
X16147Y-27592D01*
X16224Y-27709D01*
X16275Y-27831D01*
X16275Y-27833D01*
X16302Y-27968D01*
X16302Y-27968D01*
G37*
G36*
X16345Y-31957D02*
X16343Y-32054D01*
X16323Y-32142D01*
X16289Y-32219D01*
X16237Y-32293D01*
X16176Y-32351D01*
X16100Y-32399D01*
X16021Y-32430D01*
X15932Y-32446D01*
X15848Y-32444D01*
X15760Y-32424D01*
X15683Y-32391D01*
X15608Y-32339D01*
X15550Y-32279D01*
X15501Y-32202D01*
X15470Y-32124D01*
X15454Y-32035D01*
X15455Y-31951D01*
X15474Y-31863D01*
X15507Y-31786D01*
X15558Y-31711D01*
X15618Y-31652D01*
X15694Y-31602D01*
X15771Y-31571D01*
X15861Y-31554D01*
X15944Y-31554D01*
X16034Y-31573D01*
X16111Y-31605D01*
X16186Y-31656D01*
X16245Y-31715D01*
X16295Y-31791D01*
X16327Y-31868D01*
X16345Y-31957D01*
X16345Y-31957D01*
G37*
G36*
X16371Y-14286D02*
X16371Y-14301D01*
X16370Y-14305D01*
X16370Y-14305D01*
X16347Y-14515D01*
X16347Y-14515D01*
X16347Y-14515D01*
X16283Y-14716D01*
X16181Y-14902D01*
X16045Y-15063D01*
X15880Y-15196D01*
X15693Y-15294D01*
X15490Y-15353D01*
X15280Y-15373D01*
X15069Y-15351D01*
X14868Y-15288D01*
X14682Y-15187D01*
X14519Y-15053D01*
X14385Y-14889D01*
X14286Y-14702D01*
X14225Y-14500D01*
X14204Y-14286D01*
X14204Y-12740D01*
X14204Y-12725D01*
X14204Y-12721D01*
X14204Y-12721D01*
X14228Y-12511D01*
X14228Y-12511D01*
X14228Y-12511D01*
X14292Y-12310D01*
X14394Y-12124D01*
X14529Y-11962D01*
X14694Y-11830D01*
X14881Y-11732D01*
X15085Y-11672D01*
X15295Y-11653D01*
X15505Y-11675D01*
X15707Y-11738D01*
X15893Y-11838D01*
X16056Y-11973D01*
X16189Y-12137D01*
X16289Y-12323D01*
X16350Y-12526D01*
X16371Y-12740D01*
X16371Y-14286D01*
X16371Y-14286D01*
G37*
G36*
X16371Y-18459D02*
X16371Y-18474D01*
X16370Y-18478D01*
X16370Y-18478D01*
X16347Y-18688D01*
X16347Y-18688D01*
X16347Y-18688D01*
X16283Y-18889D01*
X16181Y-19075D01*
X16045Y-19237D01*
X15880Y-19369D01*
X15693Y-19467D01*
X15490Y-19527D01*
X15280Y-19546D01*
X15069Y-19524D01*
X14868Y-19461D01*
X14682Y-19361D01*
X14519Y-19226D01*
X14385Y-19062D01*
X14286Y-18876D01*
X14225Y-18673D01*
X14204Y-18459D01*
X14204Y-16913D01*
X14204Y-16898D01*
X14204Y-16894D01*
X14204Y-16894D01*
X14228Y-16684D01*
X14228Y-16684D01*
X14228Y-16684D01*
X14292Y-16483D01*
X14394Y-16297D01*
X14529Y-16136D01*
X14694Y-16003D01*
X14881Y-15905D01*
X15085Y-15846D01*
X15295Y-15826D01*
X15505Y-15848D01*
X15707Y-15911D01*
X15893Y-16012D01*
X16056Y-16146D01*
X16189Y-16310D01*
X16289Y-16497D01*
X16350Y-16699D01*
X16371Y-16913D01*
X16371Y-18459D01*
X16371Y-18459D01*
G37*
G36*
X21695Y-6072D02*
X21694Y-6135D01*
X21680Y-6194D01*
X21658Y-6245D01*
X21623Y-6294D01*
X21583Y-6332D01*
X21532Y-6365D01*
X21481Y-6385D01*
X21421Y-6395D01*
X21366Y-6394D01*
X21306Y-6381D01*
X21256Y-6359D01*
X21206Y-6324D01*
X21168Y-6285D01*
X21135Y-6234D01*
X21115Y-6183D01*
X21104Y-6123D01*
X21105Y-6068D01*
X21117Y-6008D01*
X21139Y-5958D01*
X21173Y-5908D01*
X21212Y-5869D01*
X21264Y-5836D01*
X21314Y-5815D01*
X21374Y-5804D01*
X21429Y-5804D01*
X21489Y-5817D01*
X21539Y-5838D01*
X21590Y-5872D01*
X21628Y-5911D01*
X21662Y-5962D01*
X21683Y-6012D01*
X21683Y-6014D01*
X21695Y-6071D01*
X21695Y-6072D01*
X21695Y-6072D01*
G37*
G36*
X21695Y-7072D02*
X21694Y-7135D01*
X21680Y-7194D01*
X21658Y-7245D01*
X21623Y-7294D01*
X21583Y-7332D01*
X21532Y-7365D01*
X21481Y-7385D01*
X21421Y-7395D01*
X21366Y-7394D01*
X21306Y-7381D01*
X21256Y-7359D01*
X21206Y-7324D01*
X21168Y-7285D01*
X21135Y-7234D01*
X21115Y-7183D01*
X21104Y-7123D01*
X21105Y-7068D01*
X21117Y-7008D01*
X21139Y-6958D01*
X21173Y-6908D01*
X21212Y-6869D01*
X21264Y-6836D01*
X21314Y-6815D01*
X21374Y-6804D01*
X21429Y-6804D01*
X21489Y-6817D01*
X21539Y-6838D01*
X21590Y-6872D01*
X21628Y-6911D01*
X21662Y-6962D01*
X21683Y-7012D01*
X21683Y-7014D01*
X21695Y-7071D01*
X21695Y-7072D01*
X21695Y-7072D01*
G37*
G36*
X21695Y-30072D02*
X21694Y-30135D01*
X21680Y-30194D01*
X21658Y-30245D01*
X21623Y-30294D01*
X21583Y-30332D01*
X21532Y-30365D01*
X21481Y-30385D01*
X21421Y-30395D01*
X21366Y-30394D01*
X21306Y-30381D01*
X21256Y-30359D01*
X21206Y-30324D01*
X21168Y-30285D01*
X21135Y-30234D01*
X21115Y-30183D01*
X21104Y-30123D01*
X21105Y-30068D01*
X21117Y-30008D01*
X21139Y-29958D01*
X21173Y-29908D01*
X21212Y-29869D01*
X21264Y-29836D01*
X21314Y-29815D01*
X21374Y-29804D01*
X21429Y-29804D01*
X21489Y-29817D01*
X21539Y-29838D01*
X21590Y-29872D01*
X21628Y-29911D01*
X21662Y-29962D01*
X21683Y-30012D01*
X21683Y-30014D01*
X21695Y-30071D01*
X21695Y-30072D01*
X21695Y-30072D01*
G37*
G36*
X21695Y-31072D02*
X21694Y-31135D01*
X21680Y-31194D01*
X21658Y-31245D01*
X21623Y-31294D01*
X21583Y-31332D01*
X21532Y-31365D01*
X21481Y-31385D01*
X21421Y-31395D01*
X21366Y-31394D01*
X21306Y-31381D01*
X21256Y-31359D01*
X21206Y-31324D01*
X21168Y-31285D01*
X21135Y-31234D01*
X21115Y-31183D01*
X21104Y-31123D01*
X21105Y-31068D01*
X21117Y-31008D01*
X21139Y-30958D01*
X21173Y-30908D01*
X21212Y-30869D01*
X21264Y-30836D01*
X21314Y-30815D01*
X21374Y-30804D01*
X21429Y-30804D01*
X21489Y-30817D01*
X21539Y-30838D01*
X21590Y-30872D01*
X21628Y-30911D01*
X21662Y-30962D01*
X21683Y-31012D01*
X21683Y-31014D01*
X21695Y-31071D01*
X21695Y-31072D01*
X21695Y-31072D01*
G37*
G36*
X21695Y-32072D02*
X21694Y-32135D01*
X21680Y-32194D01*
X21658Y-32245D01*
X21623Y-32294D01*
X21583Y-32332D01*
X21532Y-32365D01*
X21481Y-32385D01*
X21421Y-32395D01*
X21366Y-32394D01*
X21306Y-32381D01*
X21256Y-32359D01*
X21206Y-32324D01*
X21168Y-32285D01*
X21135Y-32234D01*
X21115Y-32183D01*
X21104Y-32123D01*
X21105Y-32068D01*
X21117Y-32008D01*
X21139Y-31958D01*
X21173Y-31908D01*
X21212Y-31869D01*
X21264Y-31836D01*
X21314Y-31815D01*
X21374Y-31804D01*
X21429Y-31804D01*
X21489Y-31817D01*
X21539Y-31838D01*
X21590Y-31872D01*
X21628Y-31911D01*
X21662Y-31962D01*
X21683Y-32012D01*
X21683Y-32014D01*
X21695Y-32071D01*
X21695Y-32072D01*
X21695Y-32072D01*
G37*
G36*
X21695Y-33072D02*
X21694Y-33135D01*
X21680Y-33194D01*
X21658Y-33245D01*
X21623Y-33294D01*
X21583Y-33332D01*
X21532Y-33365D01*
X21481Y-33385D01*
X21421Y-33395D01*
X21366Y-33394D01*
X21306Y-33381D01*
X21256Y-33359D01*
X21206Y-33324D01*
X21168Y-33285D01*
X21135Y-33234D01*
X21115Y-33183D01*
X21104Y-33123D01*
X21105Y-33068D01*
X21117Y-33008D01*
X21139Y-32958D01*
X21173Y-32908D01*
X21212Y-32869D01*
X21264Y-32836D01*
X21314Y-32815D01*
X21374Y-32804D01*
X21429Y-32804D01*
X21489Y-32817D01*
X21539Y-32838D01*
X21590Y-32872D01*
X21628Y-32911D01*
X21662Y-32962D01*
X21683Y-33012D01*
X21683Y-33014D01*
X21695Y-33071D01*
X21695Y-33072D01*
X21695Y-33072D01*
G37*
G36*
X21695Y-34072D02*
X21694Y-34135D01*
X21680Y-34194D01*
X21658Y-34245D01*
X21623Y-34294D01*
X21583Y-34332D01*
X21532Y-34365D01*
X21481Y-34385D01*
X21421Y-34395D01*
X21366Y-34394D01*
X21306Y-34381D01*
X21256Y-34359D01*
X21206Y-34324D01*
X21168Y-34285D01*
X21135Y-34234D01*
X21115Y-34183D01*
X21104Y-34123D01*
X21105Y-34068D01*
X21117Y-34008D01*
X21139Y-33958D01*
X21173Y-33908D01*
X21212Y-33869D01*
X21264Y-33836D01*
X21314Y-33815D01*
X21374Y-33804D01*
X21429Y-33804D01*
X21489Y-33817D01*
X21539Y-33838D01*
X21590Y-33872D01*
X21628Y-33911D01*
X21662Y-33962D01*
X21683Y-34012D01*
X21683Y-34014D01*
X21695Y-34071D01*
X21695Y-34072D01*
X21695Y-34072D01*
G37*
G36*
X21695Y-35395D02*
X21104Y-35395D01*
X21104Y-34804D01*
X21695Y-34804D01*
X21695Y-35395D01*
X21695Y-35395D01*
G37*
G36*
X24028Y-14818D02*
X24027Y-14886D01*
X24013Y-14949D01*
X23989Y-15003D01*
X23952Y-15056D01*
X23909Y-15097D01*
X23854Y-15131D01*
X23799Y-15153D01*
X23735Y-15164D01*
X23676Y-15163D01*
X23613Y-15149D01*
X23559Y-15125D01*
X23506Y-15088D01*
X23465Y-15046D01*
X23430Y-14991D01*
X23408Y-14937D01*
X23396Y-14872D01*
X23397Y-14814D01*
X23411Y-14750D01*
X23434Y-14696D01*
X23471Y-14642D01*
X23512Y-14601D01*
X23567Y-14566D01*
X23621Y-14544D01*
X23686Y-14531D01*
X23744Y-14532D01*
X23808Y-14545D01*
X23862Y-14568D01*
X23916Y-14604D01*
X23957Y-14646D01*
X23993Y-14700D01*
X24016Y-14754D01*
X24028Y-14818D01*
X24028Y-14818D01*
G37*
G36*
X24028Y-15570D02*
X24027Y-15638D01*
X24013Y-15701D01*
X23989Y-15755D01*
X23952Y-15808D01*
X23909Y-15849D01*
X23854Y-15883D01*
X23799Y-15905D01*
X23735Y-15916D01*
X23676Y-15915D01*
X23613Y-15901D01*
X23559Y-15877D01*
X23506Y-15840D01*
X23465Y-15798D01*
X23430Y-15743D01*
X23408Y-15689D01*
X23396Y-15624D01*
X23397Y-15566D01*
X23411Y-15502D01*
X23434Y-15448D01*
X23471Y-15394D01*
X23512Y-15353D01*
X23567Y-15318D01*
X23621Y-15296D01*
X23686Y-15283D01*
X23744Y-15284D01*
X23808Y-15297D01*
X23862Y-15320D01*
X23916Y-15356D01*
X23957Y-15398D01*
X23993Y-15452D01*
X24016Y-15506D01*
X24028Y-15570D01*
X24028Y-15570D01*
G37*
G36*
X24028Y-16322D02*
X24027Y-16390D01*
X24013Y-16453D01*
X23989Y-16507D01*
X23952Y-16560D01*
X23909Y-16601D01*
X23854Y-16635D01*
X23799Y-16657D01*
X23735Y-16668D01*
X23676Y-16667D01*
X23613Y-16653D01*
X23559Y-16629D01*
X23506Y-16592D01*
X23465Y-16550D01*
X23430Y-16495D01*
X23408Y-16441D01*
X23396Y-16376D01*
X23397Y-16318D01*
X23411Y-16254D01*
X23434Y-16200D01*
X23471Y-16146D01*
X23512Y-16105D01*
X23567Y-16070D01*
X23621Y-16048D01*
X23686Y-16035D01*
X23744Y-16036D01*
X23808Y-16049D01*
X23862Y-16072D01*
X23916Y-16108D01*
X23957Y-16150D01*
X23993Y-16204D01*
X24016Y-16258D01*
X24028Y-16322D01*
X24028Y-16322D01*
G37*
G36*
X24095Y-22820D02*
X23504Y-22820D01*
X23504Y-22429D01*
X24095Y-22429D01*
X24095Y-22820D01*
X24095Y-22820D01*
G37*
G36*
X24095Y-23570D02*
X23504Y-23570D01*
X23504Y-23179D01*
X24095Y-23179D01*
X24095Y-23570D01*
X24095Y-23570D01*
G37*
G36*
X24095Y-24420D02*
X23504Y-24420D01*
X23504Y-24029D01*
X24095Y-24029D01*
X24095Y-24420D01*
X24095Y-24420D01*
G37*
G36*
X24095Y-25170D02*
X23504Y-25170D01*
X23504Y-24779D01*
X24095Y-24779D01*
X24095Y-25170D01*
X24095Y-25170D01*
G37*
G36*
X24215Y-32620D02*
X23624Y-32620D01*
X23624Y-32229D01*
X24215Y-32229D01*
X24215Y-32620D01*
X24215Y-32620D01*
G37*
G36*
X24215Y-33370D02*
X23624Y-33370D01*
X23624Y-32979D01*
X24215Y-32979D01*
X24215Y-33370D01*
X24215Y-33370D01*
G37*
G36*
X24260Y-30130D02*
X23669Y-30130D01*
X23669Y-29739D01*
X24260Y-29739D01*
X24260Y-30130D01*
X24260Y-30130D01*
G37*
G36*
X24260Y-30880D02*
X23669Y-30880D01*
X23669Y-30489D01*
X24260Y-30489D01*
X24260Y-30880D01*
X24260Y-30880D01*
G37*
G36*
X24865Y-32000D02*
X24474Y-32000D01*
X24474Y-31409D01*
X24865Y-31409D01*
X24865Y-32000D01*
X24865Y-32000D01*
G37*
G36*
X24895Y-29540D02*
X24504Y-29540D01*
X24504Y-28949D01*
X24895Y-28949D01*
X24895Y-29540D01*
X24895Y-29540D01*
G37*
G36*
X24934Y-30112D02*
X24499Y-30112D01*
X24499Y-29757D01*
X24934Y-29757D01*
X24934Y-30112D01*
X24934Y-30112D01*
G37*
G36*
X24934Y-30862D02*
X24499Y-30862D01*
X24499Y-30507D01*
X24934Y-30507D01*
X24934Y-30862D01*
X24934Y-30862D01*
G37*
G36*
X24934Y-32602D02*
X24499Y-32602D01*
X24499Y-32247D01*
X24934Y-32247D01*
X24934Y-32602D01*
X24934Y-32602D01*
G37*
G36*
X24934Y-33352D02*
X24499Y-33352D01*
X24499Y-32997D01*
X24934Y-32997D01*
X24934Y-33352D01*
X24934Y-33352D01*
G37*
G36*
X24995Y-15020D02*
X24404Y-15020D01*
X24404Y-14629D01*
X24995Y-14629D01*
X24995Y-15020D01*
X24995Y-15020D01*
G37*
G36*
X24995Y-15770D02*
X24404Y-15770D01*
X24404Y-15379D01*
X24995Y-15379D01*
X24995Y-15770D01*
X24995Y-15770D01*
G37*
G36*
X25615Y-32000D02*
X25224Y-32000D01*
X25224Y-31409D01*
X25615Y-31409D01*
X25615Y-32000D01*
X25615Y-32000D01*
G37*
G36*
X25645Y-29540D02*
X25254Y-29540D01*
X25254Y-28949D01*
X25645Y-28949D01*
X25645Y-29540D01*
X25645Y-29540D01*
G37*
G36*
X25800Y-30487D02*
X25365Y-30487D01*
X25365Y-30132D01*
X25800Y-30132D01*
X25800Y-30487D01*
X25800Y-30487D01*
G37*
G36*
X25800Y-32977D02*
X25365Y-32977D01*
X25365Y-32622D01*
X25800Y-32622D01*
X25800Y-32977D01*
X25800Y-32977D01*
G37*
G36*
X25903Y-22803D02*
X25036Y-22803D01*
X25036Y-20558D01*
X25903Y-20558D01*
X25903Y-22803D01*
X25903Y-22803D01*
G37*
G36*
X25903Y-26621D02*
X25036Y-26621D01*
X25036Y-24376D01*
X25903Y-24376D01*
X25903Y-26621D01*
X25903Y-26621D01*
G37*
G36*
X27100Y-22485D02*
X26509Y-22485D01*
X26509Y-22094D01*
X27100Y-22094D01*
X27100Y-22485D01*
X27100Y-22485D01*
G37*
G36*
X27100Y-23235D02*
X26509Y-23235D01*
X26509Y-22844D01*
X27100Y-22844D01*
X27100Y-23235D01*
X27100Y-23235D01*
G37*
G36*
X27215Y-31225D02*
X26624Y-31225D01*
X26624Y-30834D01*
X27215Y-30834D01*
X27215Y-31225D01*
X27215Y-31225D01*
G37*
G36*
X27215Y-31975D02*
X26624Y-31975D01*
X26624Y-31584D01*
X27215Y-31584D01*
X27215Y-31975D01*
X27215Y-31975D01*
G37*
G36*
X27540Y-33300D02*
X27149Y-33300D01*
X27149Y-32709D01*
X27540Y-32709D01*
X27540Y-33300D01*
X27540Y-33300D01*
G37*
G36*
X27540Y-34100D02*
X27149Y-34100D01*
X27149Y-33509D01*
X27540Y-33509D01*
X27540Y-34100D01*
X27540Y-34100D01*
G37*
G36*
X27870Y-37025D02*
X27867Y-37195D01*
X27833Y-37345D01*
X27773Y-37480D01*
X27684Y-37606D01*
X27577Y-37708D01*
X27447Y-37791D01*
X27309Y-37844D01*
X27157Y-37871D01*
X27009Y-37868D01*
X26859Y-37835D01*
X26723Y-37776D01*
X26597Y-37688D01*
X26494Y-37581D01*
X26410Y-37452D01*
X26356Y-37314D01*
X26328Y-37163D01*
X26330Y-37015D01*
X26362Y-36864D01*
X26420Y-36728D01*
X26508Y-36601D01*
X26613Y-36497D01*
X26743Y-36413D01*
X26879Y-36358D01*
X27031Y-36329D01*
X27179Y-36330D01*
X27330Y-36361D01*
X27466Y-36418D01*
X27594Y-36504D01*
X27698Y-36609D01*
X27784Y-36738D01*
X27840Y-36874D01*
X27870Y-37025D01*
X27870Y-37025D01*
G37*
G36*
X28015Y-31625D02*
X27424Y-31625D01*
X27424Y-31234D01*
X28015Y-31234D01*
X28015Y-31625D01*
X28015Y-31625D01*
G37*
G36*
X28015Y-32375D02*
X27424Y-32375D01*
X27424Y-31984D01*
X28015Y-31984D01*
X28015Y-32375D01*
X28015Y-32375D01*
G37*
G36*
X28290Y-33300D02*
X27899Y-33300D01*
X27899Y-32709D01*
X28290Y-32709D01*
X28290Y-33300D01*
X28290Y-33300D01*
G37*
G36*
X28290Y-34100D02*
X27899Y-34100D01*
X27899Y-33509D01*
X28290Y-33509D01*
X28290Y-34100D01*
X28290Y-34100D01*
G37*
G36*
X28520Y-21575D02*
X27879Y-21575D01*
X27879Y-21374D01*
X28520Y-21374D01*
X28520Y-21575D01*
X28520Y-21575D01*
G37*
G36*
X28520Y-21890D02*
X27879Y-21890D01*
X27879Y-21689D01*
X28520Y-21689D01*
X28520Y-21890D01*
X28520Y-21890D01*
G37*
G36*
X28520Y-22205D02*
X27879Y-22205D01*
X27879Y-22004D01*
X28520Y-22004D01*
X28520Y-22205D01*
X28520Y-22205D01*
G37*
G36*
X28520Y-22520D02*
X27879Y-22520D01*
X27879Y-22319D01*
X28520Y-22319D01*
X28520Y-22520D01*
X28520Y-22520D01*
G37*
G36*
X28520Y-22835D02*
X27879Y-22835D01*
X27879Y-22634D01*
X28520Y-22634D01*
X28520Y-22835D01*
X28520Y-22835D01*
G37*
G36*
X28520Y-23150D02*
X27879Y-23150D01*
X27879Y-22949D01*
X28520Y-22949D01*
X28520Y-23150D01*
X28520Y-23150D01*
G37*
G36*
X28520Y-23465D02*
X27879Y-23465D01*
X27879Y-23264D01*
X28520Y-23264D01*
X28520Y-23465D01*
X28520Y-23465D01*
G37*
G36*
X28520Y-23780D02*
X27879Y-23780D01*
X27879Y-23579D01*
X28520Y-23579D01*
X28520Y-23780D01*
X28520Y-23780D01*
G37*
G36*
X28520Y-24095D02*
X27879Y-24095D01*
X27879Y-23894D01*
X28520Y-23894D01*
X28520Y-24095D01*
X28520Y-24095D01*
G37*
G36*
X28520Y-24410D02*
X27879Y-24410D01*
X27879Y-24209D01*
X28520Y-24209D01*
X28520Y-24410D01*
X28520Y-24410D01*
G37*
G36*
X28520Y-24725D02*
X27879Y-24725D01*
X27879Y-24524D01*
X28520Y-24524D01*
X28520Y-24725D01*
X28520Y-24725D01*
G37*
G36*
X28975Y-21120D02*
X28774Y-21120D01*
X28774Y-20479D01*
X28975Y-20479D01*
X28975Y-21120D01*
X28975Y-21120D01*
G37*
G36*
X28975Y-25620D02*
X28774Y-25620D01*
X28774Y-24979D01*
X28975Y-24979D01*
X28975Y-25620D01*
X28975Y-25620D01*
G37*
G36*
X29015Y-31425D02*
X28524Y-31425D01*
X28524Y-31184D01*
X29015Y-31184D01*
X29015Y-31425D01*
X29015Y-31425D01*
G37*
G36*
X29015Y-31925D02*
X28524Y-31925D01*
X28524Y-31684D01*
X29015Y-31684D01*
X29015Y-31925D01*
X29015Y-31925D01*
G37*
G36*
X29015Y-32425D02*
X28524Y-32425D01*
X28524Y-32184D01*
X29015Y-32184D01*
X29015Y-32425D01*
X29015Y-32425D01*
G37*
G36*
X29015Y-32925D02*
X28524Y-32925D01*
X28524Y-32684D01*
X29015Y-32684D01*
X29015Y-32925D01*
X29015Y-32925D01*
G37*
G36*
X29015Y-33425D02*
X28524Y-33425D01*
X28524Y-33184D01*
X29015Y-33184D01*
X29015Y-33425D01*
X29015Y-33425D01*
G37*
G36*
X29015Y-33925D02*
X28524Y-33925D01*
X28524Y-33684D01*
X29015Y-33684D01*
X29015Y-33925D01*
X29015Y-33925D01*
G37*
G36*
X29015Y-34425D02*
X28524Y-34425D01*
X28524Y-34184D01*
X29015Y-34184D01*
X29015Y-34425D01*
X29015Y-34425D01*
G37*
G36*
X29015Y-34925D02*
X28524Y-34925D01*
X28524Y-34684D01*
X29015Y-34684D01*
X29015Y-34925D01*
X29015Y-34925D01*
G37*
G36*
X29290Y-21120D02*
X29089Y-21120D01*
X29089Y-20479D01*
X29290Y-20479D01*
X29290Y-21120D01*
X29290Y-21120D01*
G37*
G36*
X29290Y-25620D02*
X29089Y-25620D01*
X29089Y-24979D01*
X29290Y-24979D01*
X29290Y-25620D01*
X29290Y-25620D01*
G37*
G36*
X29605Y-21120D02*
X29404Y-21120D01*
X29404Y-20479D01*
X29605Y-20479D01*
X29605Y-21120D01*
X29605Y-21120D01*
G37*
G36*
X29605Y-25620D02*
X29404Y-25620D01*
X29404Y-24979D01*
X29605Y-24979D01*
X29605Y-25620D01*
X29605Y-25620D01*
G37*
G36*
X29740Y-30700D02*
X29349Y-30700D01*
X29349Y-30109D01*
X29740Y-30109D01*
X29740Y-30700D01*
X29740Y-30700D01*
G37*
G36*
X29920Y-21120D02*
X29719Y-21120D01*
X29719Y-20479D01*
X29920Y-20479D01*
X29920Y-21120D01*
X29920Y-21120D01*
G37*
G36*
X29920Y-25620D02*
X29719Y-25620D01*
X29719Y-24979D01*
X29920Y-24979D01*
X29920Y-25620D01*
X29920Y-25620D01*
G37*
G36*
X30170Y-36520D02*
X30169Y-36588D01*
X30154Y-36652D01*
X30130Y-36707D01*
X30092Y-36761D01*
X30049Y-36802D01*
X29993Y-36837D01*
X29937Y-36859D01*
X29873Y-36870D01*
X29813Y-36869D01*
X29749Y-36855D01*
X29694Y-36831D01*
X29640Y-36793D01*
X29598Y-36751D01*
X29563Y-36695D01*
X29541Y-36640D01*
X29529Y-36575D01*
X29530Y-36515D01*
X29543Y-36451D01*
X29567Y-36396D01*
X29604Y-36341D01*
X29647Y-36300D01*
X29702Y-36264D01*
X29757Y-36241D01*
X29822Y-36229D01*
X29881Y-36229D01*
X29946Y-36243D01*
X30001Y-36266D01*
X30056Y-36303D01*
X30098Y-36345D01*
X30134Y-36400D01*
X30157Y-36455D01*
X30170Y-36520D01*
X30170Y-36520D01*
G37*
G36*
X30235Y-21120D02*
X30034Y-21120D01*
X30034Y-20479D01*
X30235Y-20479D01*
X30235Y-21120D01*
X30235Y-21120D01*
G37*
G36*
X30235Y-25620D02*
X30034Y-25620D01*
X30034Y-24979D01*
X30235Y-24979D01*
X30235Y-25620D01*
X30235Y-25620D01*
G37*
G36*
X30420Y-18995D02*
X30029Y-18995D01*
X30029Y-18404D01*
X30420Y-18404D01*
X30420Y-18995D01*
X30420Y-18995D01*
G37*
G36*
X30420Y-19895D02*
X30029Y-19895D01*
X30029Y-19304D01*
X30420Y-19304D01*
X30420Y-19895D01*
X30420Y-19895D01*
G37*
G36*
X30475Y-26605D02*
X30084Y-26605D01*
X30084Y-26014D01*
X30475Y-26014D01*
X30475Y-26605D01*
X30475Y-26605D01*
G37*
G36*
X30490Y-30700D02*
X30099Y-30700D01*
X30099Y-30109D01*
X30490Y-30109D01*
X30490Y-30700D01*
X30490Y-30700D01*
G37*
G36*
X30550Y-21120D02*
X30349Y-21120D01*
X30349Y-20479D01*
X30550Y-20479D01*
X30550Y-21120D01*
X30550Y-21120D01*
G37*
G36*
X30550Y-25620D02*
X30349Y-25620D01*
X30349Y-24979D01*
X30550Y-24979D01*
X30550Y-25620D01*
X30550Y-25620D01*
G37*
G36*
X30720Y-37620D02*
X30719Y-37688D01*
X30704Y-37752D01*
X30680Y-37807D01*
X30642Y-37861D01*
X30599Y-37902D01*
X30543Y-37937D01*
X30487Y-37959D01*
X30423Y-37970D01*
X30363Y-37969D01*
X30299Y-37955D01*
X30244Y-37931D01*
X30190Y-37893D01*
X30148Y-37851D01*
X30113Y-37795D01*
X30091Y-37740D01*
X30079Y-37675D01*
X30080Y-37615D01*
X30093Y-37551D01*
X30117Y-37496D01*
X30154Y-37441D01*
X30197Y-37400D01*
X30252Y-37364D01*
X30307Y-37341D01*
X30372Y-37329D01*
X30431Y-37329D01*
X30496Y-37343D01*
X30551Y-37366D01*
X30606Y-37403D01*
X30648Y-37445D01*
X30684Y-37500D01*
X30707Y-37555D01*
X30720Y-37620D01*
X30720Y-37620D01*
G37*
G36*
X30865Y-21120D02*
X30664Y-21120D01*
X30664Y-20479D01*
X30865Y-20479D01*
X30865Y-21120D01*
X30865Y-21120D01*
G37*
G36*
X30865Y-25620D02*
X30664Y-25620D01*
X30664Y-24979D01*
X30865Y-24979D01*
X30865Y-25620D01*
X30865Y-25620D01*
G37*
G36*
X31170Y-18995D02*
X30779Y-18995D01*
X30779Y-18404D01*
X31170Y-18404D01*
X31170Y-18995D01*
X31170Y-18995D01*
G37*
G36*
X31170Y-19895D02*
X30779Y-19895D01*
X30779Y-19304D01*
X31170Y-19304D01*
X31170Y-19895D01*
X31170Y-19895D01*
G37*
G36*
X31180Y-21120D02*
X30979Y-21120D01*
X30979Y-20479D01*
X31180Y-20479D01*
X31180Y-21120D01*
X31180Y-21120D01*
G37*
G36*
X31180Y-25620D02*
X30979Y-25620D01*
X30979Y-24979D01*
X31180Y-24979D01*
X31180Y-25620D01*
X31180Y-25620D01*
G37*
G36*
X31225Y-26605D02*
X30834Y-26605D01*
X30834Y-26014D01*
X31225Y-26014D01*
X31225Y-26605D01*
X31225Y-26605D01*
G37*
G36*
X31270Y-36520D02*
X31269Y-36588D01*
X31254Y-36652D01*
X31230Y-36707D01*
X31192Y-36761D01*
X31149Y-36802D01*
X31093Y-36837D01*
X31037Y-36859D01*
X30973Y-36870D01*
X30913Y-36869D01*
X30849Y-36855D01*
X30794Y-36831D01*
X30740Y-36793D01*
X30698Y-36751D01*
X30663Y-36695D01*
X30641Y-36640D01*
X30629Y-36575D01*
X30630Y-36515D01*
X30643Y-36451D01*
X30667Y-36396D01*
X30704Y-36341D01*
X30747Y-36300D01*
X30802Y-36264D01*
X30857Y-36241D01*
X30922Y-36229D01*
X30981Y-36229D01*
X31046Y-36243D01*
X31101Y-36266D01*
X31156Y-36303D01*
X31198Y-36345D01*
X31234Y-36400D01*
X31257Y-36455D01*
X31270Y-36520D01*
X31270Y-36520D01*
G37*
G36*
X31495Y-21120D02*
X31294Y-21120D01*
X31294Y-20479D01*
X31495Y-20479D01*
X31495Y-21120D01*
X31495Y-21120D01*
G37*
G36*
X31495Y-25620D02*
X31294Y-25620D01*
X31294Y-24979D01*
X31495Y-24979D01*
X31495Y-25620D01*
X31495Y-25620D01*
G37*
G36*
X31515Y-31425D02*
X31024Y-31425D01*
X31024Y-31184D01*
X31515Y-31184D01*
X31515Y-31425D01*
X31515Y-31425D01*
G37*
G36*
X31515Y-31925D02*
X31024Y-31925D01*
X31024Y-31684D01*
X31515Y-31684D01*
X31515Y-31925D01*
X31515Y-31925D01*
G37*
G36*
X31515Y-32425D02*
X31024Y-32425D01*
X31024Y-32184D01*
X31515Y-32184D01*
X31515Y-32425D01*
X31515Y-32425D01*
G37*
G36*
X31515Y-32925D02*
X31024Y-32925D01*
X31024Y-32684D01*
X31515Y-32684D01*
X31515Y-32925D01*
X31515Y-32925D01*
G37*
G36*
X31515Y-33425D02*
X31024Y-33425D01*
X31024Y-33184D01*
X31515Y-33184D01*
X31515Y-33425D01*
X31515Y-33425D01*
G37*
G36*
X31515Y-33925D02*
X31024Y-33925D01*
X31024Y-33684D01*
X31515Y-33684D01*
X31515Y-33925D01*
X31515Y-33925D01*
G37*
G36*
X31515Y-34425D02*
X31024Y-34425D01*
X31024Y-34184D01*
X31515Y-34184D01*
X31515Y-34425D01*
X31515Y-34425D01*
G37*
G36*
X31515Y-34925D02*
X31024Y-34925D01*
X31024Y-34684D01*
X31515Y-34684D01*
X31515Y-34925D01*
X31515Y-34925D01*
G37*
G36*
X31810Y-21120D02*
X31609Y-21120D01*
X31609Y-20479D01*
X31810Y-20479D01*
X31810Y-21120D01*
X31810Y-21120D01*
G37*
G36*
X31810Y-25620D02*
X31609Y-25620D01*
X31609Y-24979D01*
X31810Y-24979D01*
X31810Y-25620D01*
X31810Y-25620D01*
G37*
G36*
X31820Y-37620D02*
X31819Y-37688D01*
X31804Y-37752D01*
X31780Y-37807D01*
X31742Y-37861D01*
X31699Y-37902D01*
X31643Y-37937D01*
X31587Y-37959D01*
X31523Y-37970D01*
X31463Y-37969D01*
X31399Y-37955D01*
X31344Y-37931D01*
X31290Y-37893D01*
X31248Y-37851D01*
X31213Y-37795D01*
X31191Y-37740D01*
X31179Y-37675D01*
X31180Y-37615D01*
X31193Y-37551D01*
X31217Y-37496D01*
X31254Y-37441D01*
X31297Y-37400D01*
X31352Y-37364D01*
X31407Y-37341D01*
X31472Y-37329D01*
X31531Y-37329D01*
X31596Y-37343D01*
X31651Y-37366D01*
X31706Y-37403D01*
X31748Y-37445D01*
X31784Y-37500D01*
X31807Y-37555D01*
X31820Y-37620D01*
X31820Y-37620D01*
G37*
G36*
X32095Y-18920D02*
X31504Y-18920D01*
X31504Y-18529D01*
X32095Y-18529D01*
X32095Y-18920D01*
X32095Y-18920D01*
G37*
G36*
X32095Y-19670D02*
X31504Y-19670D01*
X31504Y-19279D01*
X32095Y-19279D01*
X32095Y-19670D01*
X32095Y-19670D01*
G37*
G36*
X32125Y-21120D02*
X31924Y-21120D01*
X31924Y-20479D01*
X32125Y-20479D01*
X32125Y-21120D01*
X32125Y-21120D01*
G37*
G36*
X32125Y-25620D02*
X31924Y-25620D01*
X31924Y-24979D01*
X32125Y-24979D01*
X32125Y-25620D01*
X32125Y-25620D01*
G37*
G36*
X32320Y-36520D02*
X32319Y-36588D01*
X32304Y-36652D01*
X32280Y-36707D01*
X32242Y-36761D01*
X32199Y-36802D01*
X32143Y-36837D01*
X32087Y-36859D01*
X32023Y-36870D01*
X31963Y-36869D01*
X31899Y-36855D01*
X31844Y-36831D01*
X31790Y-36793D01*
X31748Y-36751D01*
X31713Y-36695D01*
X31691Y-36640D01*
X31679Y-36575D01*
X31680Y-36515D01*
X31693Y-36451D01*
X31717Y-36396D01*
X31754Y-36341D01*
X31797Y-36300D01*
X31852Y-36264D01*
X31907Y-36241D01*
X31972Y-36229D01*
X32031Y-36229D01*
X32096Y-36243D01*
X32151Y-36266D01*
X32206Y-36303D01*
X32248Y-36345D01*
X32284Y-36400D01*
X32307Y-36455D01*
X32320Y-36520D01*
X32320Y-36520D01*
G37*
G36*
X32870Y-37620D02*
X32869Y-37688D01*
X32854Y-37752D01*
X32830Y-37807D01*
X32792Y-37861D01*
X32749Y-37902D01*
X32693Y-37937D01*
X32637Y-37959D01*
X32573Y-37970D01*
X32513Y-37969D01*
X32449Y-37955D01*
X32394Y-37931D01*
X32340Y-37893D01*
X32298Y-37851D01*
X32263Y-37795D01*
X32241Y-37740D01*
X32229Y-37675D01*
X32230Y-37615D01*
X32243Y-37551D01*
X32267Y-37496D01*
X32304Y-37441D01*
X32347Y-37400D01*
X32402Y-37364D01*
X32457Y-37341D01*
X32522Y-37329D01*
X32581Y-37329D01*
X32646Y-37343D01*
X32701Y-37366D01*
X32756Y-37403D01*
X32798Y-37445D01*
X32834Y-37500D01*
X32857Y-37555D01*
X32870Y-37620D01*
X32870Y-37620D01*
G37*
G36*
X32970Y-18920D02*
X32379Y-18920D01*
X32379Y-18529D01*
X32970Y-18529D01*
X32970Y-18920D01*
X32970Y-18920D01*
G37*
G36*
X32970Y-19670D02*
X32379Y-19670D01*
X32379Y-19279D01*
X32970Y-19279D01*
X32970Y-19670D01*
X32970Y-19670D01*
G37*
G36*
X33020Y-21575D02*
X32379Y-21575D01*
X32379Y-21374D01*
X33020Y-21374D01*
X33020Y-21575D01*
X33020Y-21575D01*
G37*
G36*
X33020Y-21890D02*
X32379Y-21890D01*
X32379Y-21689D01*
X33020Y-21689D01*
X33020Y-21890D01*
X33020Y-21890D01*
G37*
G36*
X33020Y-22205D02*
X32379Y-22205D01*
X32379Y-22004D01*
X33020Y-22004D01*
X33020Y-22205D01*
X33020Y-22205D01*
G37*
G36*
X33020Y-22520D02*
X32379Y-22520D01*
X32379Y-22319D01*
X33020Y-22319D01*
X33020Y-22520D01*
X33020Y-22520D01*
G37*
G36*
X33020Y-22835D02*
X32379Y-22835D01*
X32379Y-22634D01*
X33020Y-22634D01*
X33020Y-22835D01*
X33020Y-22835D01*
G37*
G36*
X33020Y-23150D02*
X32379Y-23150D01*
X32379Y-22949D01*
X33020Y-22949D01*
X33020Y-23150D01*
X33020Y-23150D01*
G37*
G36*
X33020Y-23465D02*
X32379Y-23465D01*
X32379Y-23264D01*
X33020Y-23264D01*
X33020Y-23465D01*
X33020Y-23465D01*
G37*
G36*
X33020Y-23780D02*
X32379Y-23780D01*
X32379Y-23579D01*
X33020Y-23579D01*
X33020Y-23780D01*
X33020Y-23780D01*
G37*
G36*
X33020Y-24095D02*
X32379Y-24095D01*
X32379Y-23894D01*
X33020Y-23894D01*
X33020Y-24095D01*
X33020Y-24095D01*
G37*
G36*
X33020Y-24410D02*
X32379Y-24410D01*
X32379Y-24209D01*
X33020Y-24209D01*
X33020Y-24410D01*
X33020Y-24410D01*
G37*
G36*
X33020Y-24725D02*
X32379Y-24725D01*
X32379Y-24524D01*
X33020Y-24524D01*
X33020Y-24725D01*
X33020Y-24725D01*
G37*
G36*
X33420Y-36520D02*
X33419Y-36588D01*
X33404Y-36652D01*
X33380Y-36707D01*
X33342Y-36761D01*
X33299Y-36802D01*
X33243Y-36837D01*
X33187Y-36859D01*
X33123Y-36870D01*
X33063Y-36869D01*
X32999Y-36855D01*
X32944Y-36831D01*
X32890Y-36793D01*
X32848Y-36751D01*
X32813Y-36695D01*
X32791Y-36640D01*
X32779Y-36575D01*
X32780Y-36515D01*
X32793Y-36451D01*
X32817Y-36396D01*
X32854Y-36341D01*
X32897Y-36300D01*
X32952Y-36264D01*
X33007Y-36241D01*
X33072Y-36229D01*
X33131Y-36229D01*
X33196Y-36243D01*
X33251Y-36266D01*
X33306Y-36303D01*
X33348Y-36345D01*
X33384Y-36400D01*
X33407Y-36455D01*
X33420Y-36520D01*
X33420Y-36520D01*
G37*
G36*
X33895Y-18920D02*
X33304Y-18920D01*
X33304Y-18529D01*
X33895Y-18529D01*
X33895Y-18920D01*
X33895Y-18920D01*
G37*
G36*
X33895Y-19670D02*
X33304Y-19670D01*
X33304Y-19279D01*
X33895Y-19279D01*
X33895Y-19670D01*
X33895Y-19670D01*
G37*
G36*
X33970Y-37620D02*
X33969Y-37688D01*
X33954Y-37752D01*
X33930Y-37807D01*
X33892Y-37861D01*
X33849Y-37902D01*
X33793Y-37937D01*
X33737Y-37959D01*
X33673Y-37970D01*
X33613Y-37969D01*
X33549Y-37955D01*
X33494Y-37931D01*
X33440Y-37893D01*
X33398Y-37851D01*
X33363Y-37795D01*
X33341Y-37740D01*
X33329Y-37675D01*
X33330Y-37615D01*
X33343Y-37551D01*
X33367Y-37496D01*
X33404Y-37441D01*
X33447Y-37400D01*
X33502Y-37364D01*
X33557Y-37341D01*
X33622Y-37329D01*
X33681Y-37329D01*
X33746Y-37343D01*
X33801Y-37366D01*
X33856Y-37403D01*
X33898Y-37445D01*
X33934Y-37500D01*
X33957Y-37555D01*
X33970Y-37620D01*
X33970Y-37620D01*
G37*
G36*
X34020Y-23095D02*
X33629Y-23095D01*
X33629Y-22504D01*
X34020Y-22504D01*
X34020Y-23095D01*
X34020Y-23095D01*
G37*
G36*
X34470Y-36870D02*
X33829Y-36870D01*
X33829Y-36229D01*
X34470Y-36229D01*
X34470Y-36870D01*
X34470Y-36870D01*
G37*
G36*
X34495Y-24520D02*
X33904Y-24520D01*
X33904Y-24129D01*
X34495Y-24129D01*
X34495Y-24520D01*
X34495Y-24520D01*
G37*
G36*
X34495Y-25270D02*
X33904Y-25270D01*
X33904Y-24879D01*
X34495Y-24879D01*
X34495Y-25270D01*
X34495Y-25270D01*
G37*
G36*
X34620Y-23895D02*
X34229Y-23895D01*
X34229Y-23304D01*
X34620Y-23304D01*
X34620Y-23895D01*
X34620Y-23895D01*
G37*
G36*
X34770Y-23095D02*
X34379Y-23095D01*
X34379Y-22504D01*
X34770Y-22504D01*
X34770Y-23095D01*
X34770Y-23095D01*
G37*
G36*
X35370Y-23895D02*
X34979Y-23895D01*
X34979Y-23304D01*
X35370Y-23304D01*
X35370Y-23895D01*
X35370Y-23895D01*
G37*
G36*
X37695Y-6072D02*
X37694Y-6135D01*
X37680Y-6194D01*
X37658Y-6245D01*
X37623Y-6294D01*
X37583Y-6332D01*
X37532Y-6365D01*
X37481Y-6385D01*
X37421Y-6395D01*
X37366Y-6394D01*
X37306Y-6381D01*
X37256Y-6359D01*
X37206Y-6324D01*
X37168Y-6285D01*
X37135Y-6234D01*
X37115Y-6183D01*
X37104Y-6123D01*
X37105Y-6068D01*
X37117Y-6008D01*
X37139Y-5958D01*
X37173Y-5908D01*
X37212Y-5869D01*
X37264Y-5836D01*
X37314Y-5815D01*
X37374Y-5804D01*
X37429Y-5804D01*
X37489Y-5817D01*
X37539Y-5838D01*
X37590Y-5872D01*
X37628Y-5911D01*
X37662Y-5962D01*
X37683Y-6012D01*
X37683Y-6014D01*
X37695Y-6071D01*
X37695Y-6072D01*
X37695Y-6072D01*
G37*
G36*
X37695Y-7072D02*
X37694Y-7135D01*
X37680Y-7194D01*
X37658Y-7245D01*
X37623Y-7294D01*
X37583Y-7332D01*
X37532Y-7365D01*
X37481Y-7385D01*
X37421Y-7395D01*
X37366Y-7394D01*
X37306Y-7381D01*
X37256Y-7359D01*
X37206Y-7324D01*
X37168Y-7285D01*
X37135Y-7234D01*
X37115Y-7183D01*
X37104Y-7123D01*
X37105Y-7068D01*
X37117Y-7008D01*
X37139Y-6958D01*
X37173Y-6908D01*
X37212Y-6869D01*
X37264Y-6836D01*
X37314Y-6815D01*
X37374Y-6804D01*
X37429Y-6804D01*
X37489Y-6817D01*
X37539Y-6838D01*
X37590Y-6872D01*
X37628Y-6911D01*
X37662Y-6962D01*
X37683Y-7012D01*
X37683Y-7014D01*
X37695Y-7071D01*
X37695Y-7072D01*
X37695Y-7072D01*
G37*
G36*
X37695Y-34072D02*
X37694Y-34135D01*
X37680Y-34194D01*
X37658Y-34245D01*
X37623Y-34294D01*
X37583Y-34332D01*
X37532Y-34365D01*
X37481Y-34385D01*
X37421Y-34395D01*
X37366Y-34394D01*
X37306Y-34381D01*
X37256Y-34359D01*
X37206Y-34324D01*
X37168Y-34285D01*
X37135Y-34234D01*
X37115Y-34183D01*
X37104Y-34123D01*
X37105Y-34068D01*
X37117Y-34008D01*
X37139Y-33958D01*
X37173Y-33908D01*
X37212Y-33869D01*
X37264Y-33836D01*
X37314Y-33815D01*
X37374Y-33804D01*
X37429Y-33804D01*
X37489Y-33817D01*
X37539Y-33838D01*
X37590Y-33872D01*
X37628Y-33911D01*
X37662Y-33962D01*
X37683Y-34012D01*
X37683Y-34014D01*
X37695Y-34071D01*
X37695Y-34072D01*
X37695Y-34072D01*
G37*
G36*
X37695Y-35395D02*
X37104Y-35395D01*
X37104Y-34804D01*
X37695Y-34804D01*
X37695Y-35395D01*
X37695Y-35395D01*
G37*
G36*
X37720Y-37025D02*
X37717Y-37195D01*
X37683Y-37345D01*
X37623Y-37480D01*
X37534Y-37606D01*
X37427Y-37708D01*
X37297Y-37791D01*
X37159Y-37844D01*
X37007Y-37871D01*
X36859Y-37868D01*
X36709Y-37835D01*
X36573Y-37776D01*
X36447Y-37688D01*
X36344Y-37581D01*
X36260Y-37452D01*
X36206Y-37314D01*
X36178Y-37163D01*
X36180Y-37015D01*
X36212Y-36864D01*
X36270Y-36728D01*
X36358Y-36601D01*
X36463Y-36497D01*
X36593Y-36413D01*
X36729Y-36358D01*
X36881Y-36329D01*
X37029Y-36330D01*
X37180Y-36361D01*
X37316Y-36418D01*
X37444Y-36504D01*
X37548Y-36609D01*
X37634Y-36738D01*
X37690Y-36874D01*
X37720Y-37025D01*
X37720Y-37025D01*
G37*
G36*
X39120Y-16870D02*
X39119Y-16938D01*
X39104Y-17002D01*
X39080Y-17057D01*
X39042Y-17111D01*
X38999Y-17152D01*
X38943Y-17187D01*
X38887Y-17209D01*
X38823Y-17220D01*
X38763Y-17219D01*
X38699Y-17205D01*
X38644Y-17181D01*
X38590Y-17143D01*
X38548Y-17101D01*
X38513Y-17045D01*
X38491Y-16990D01*
X38479Y-16925D01*
X38480Y-16865D01*
X38493Y-16801D01*
X38517Y-16746D01*
X38554Y-16691D01*
X38597Y-16650D01*
X38652Y-16614D01*
X38707Y-16591D01*
X38772Y-16579D01*
X38831Y-16579D01*
X38896Y-16593D01*
X38951Y-16616D01*
X39006Y-16653D01*
X39048Y-16695D01*
X39084Y-16750D01*
X39107Y-16805D01*
X39120Y-16870D01*
X39120Y-16870D01*
G37*
G36*
X39120Y-17870D02*
X39119Y-17938D01*
X39104Y-18002D01*
X39080Y-18057D01*
X39042Y-18111D01*
X38999Y-18152D01*
X38943Y-18187D01*
X38887Y-18209D01*
X38823Y-18220D01*
X38763Y-18219D01*
X38699Y-18205D01*
X38644Y-18181D01*
X38590Y-18143D01*
X38548Y-18101D01*
X38513Y-18045D01*
X38491Y-17990D01*
X38479Y-17925D01*
X38480Y-17865D01*
X38493Y-17801D01*
X38517Y-17746D01*
X38554Y-17691D01*
X38597Y-17650D01*
X38652Y-17614D01*
X38707Y-17591D01*
X38772Y-17579D01*
X38831Y-17579D01*
X38896Y-17593D01*
X38951Y-17616D01*
X39006Y-17653D01*
X39048Y-17695D01*
X39084Y-17750D01*
X39107Y-17805D01*
X39120Y-17870D01*
X39120Y-17870D01*
G37*
G36*
X39120Y-18870D02*
X39119Y-18938D01*
X39104Y-19002D01*
X39080Y-19057D01*
X39042Y-19111D01*
X38999Y-19152D01*
X38943Y-19187D01*
X38887Y-19209D01*
X38823Y-19220D01*
X38763Y-19219D01*
X38699Y-19205D01*
X38644Y-19181D01*
X38590Y-19143D01*
X38548Y-19101D01*
X38513Y-19045D01*
X38491Y-18990D01*
X38479Y-18925D01*
X38480Y-18865D01*
X38493Y-18801D01*
X38517Y-18746D01*
X38554Y-18691D01*
X38597Y-18650D01*
X38652Y-18614D01*
X38707Y-18591D01*
X38772Y-18579D01*
X38831Y-18579D01*
X38896Y-18593D01*
X38951Y-18616D01*
X39006Y-18653D01*
X39048Y-18695D01*
X39084Y-18750D01*
X39107Y-18805D01*
X39120Y-18870D01*
X39120Y-18870D01*
G37*
G36*
X39120Y-19870D02*
X39119Y-19938D01*
X39104Y-20002D01*
X39080Y-20057D01*
X39042Y-20111D01*
X38999Y-20152D01*
X38943Y-20187D01*
X38887Y-20209D01*
X38823Y-20220D01*
X38763Y-20219D01*
X38699Y-20205D01*
X38644Y-20181D01*
X38590Y-20143D01*
X38548Y-20101D01*
X38513Y-20045D01*
X38491Y-19990D01*
X38479Y-19925D01*
X38480Y-19865D01*
X38493Y-19801D01*
X38517Y-19746D01*
X38554Y-19691D01*
X38597Y-19650D01*
X38652Y-19614D01*
X38707Y-19591D01*
X38772Y-19579D01*
X38831Y-19579D01*
X38896Y-19593D01*
X38951Y-19616D01*
X39006Y-19653D01*
X39048Y-19695D01*
X39084Y-19750D01*
X39107Y-19805D01*
X39120Y-19870D01*
X39120Y-19870D01*
G37*
G36*
X39120Y-20870D02*
X39119Y-20938D01*
X39104Y-21002D01*
X39080Y-21057D01*
X39042Y-21111D01*
X38999Y-21152D01*
X38943Y-21187D01*
X38887Y-21209D01*
X38823Y-21220D01*
X38763Y-21219D01*
X38699Y-21205D01*
X38644Y-21181D01*
X38590Y-21143D01*
X38548Y-21101D01*
X38513Y-21045D01*
X38491Y-20990D01*
X38479Y-20925D01*
X38480Y-20865D01*
X38493Y-20801D01*
X38517Y-20746D01*
X38554Y-20691D01*
X38597Y-20650D01*
X38652Y-20614D01*
X38707Y-20591D01*
X38772Y-20579D01*
X38831Y-20579D01*
X38896Y-20593D01*
X38951Y-20616D01*
X39006Y-20653D01*
X39048Y-20695D01*
X39084Y-20750D01*
X39107Y-20805D01*
X39120Y-20870D01*
X39120Y-20870D01*
G37*
G36*
X39120Y-21870D02*
X39119Y-21938D01*
X39104Y-22002D01*
X39080Y-22057D01*
X39042Y-22111D01*
X38999Y-22152D01*
X38943Y-22187D01*
X38887Y-22209D01*
X38823Y-22220D01*
X38763Y-22219D01*
X38699Y-22205D01*
X38644Y-22181D01*
X38590Y-22143D01*
X38548Y-22101D01*
X38513Y-22045D01*
X38491Y-21990D01*
X38479Y-21925D01*
X38480Y-21865D01*
X38493Y-21801D01*
X38517Y-21746D01*
X38554Y-21691D01*
X38597Y-21650D01*
X38652Y-21614D01*
X38707Y-21591D01*
X38772Y-21579D01*
X38831Y-21579D01*
X38896Y-21593D01*
X38951Y-21616D01*
X39006Y-21653D01*
X39048Y-21695D01*
X39084Y-21750D01*
X39107Y-21805D01*
X39120Y-21870D01*
X39120Y-21870D01*
G37*
G36*
X39120Y-22870D02*
X39119Y-22938D01*
X39104Y-23002D01*
X39080Y-23057D01*
X39042Y-23111D01*
X38999Y-23152D01*
X38943Y-23187D01*
X38887Y-23209D01*
X38823Y-23220D01*
X38763Y-23219D01*
X38699Y-23205D01*
X38644Y-23181D01*
X38590Y-23143D01*
X38548Y-23101D01*
X38513Y-23045D01*
X38491Y-22990D01*
X38479Y-22925D01*
X38480Y-22865D01*
X38493Y-22801D01*
X38517Y-22746D01*
X38554Y-22691D01*
X38597Y-22650D01*
X38652Y-22614D01*
X38707Y-22591D01*
X38772Y-22579D01*
X38831Y-22579D01*
X38896Y-22593D01*
X38951Y-22616D01*
X39006Y-22653D01*
X39048Y-22695D01*
X39084Y-22750D01*
X39107Y-22805D01*
X39120Y-22870D01*
X39120Y-22870D01*
G37*
G36*
X39120Y-16220D02*
X38479Y-16220D01*
X38479Y-15579D01*
X39120Y-15579D01*
X39120Y-16220D01*
X39120Y-16220D01*
G37*
G36*
X39320Y-7870D02*
X39319Y-7938D01*
X39304Y-8002D01*
X39280Y-8057D01*
X39242Y-8111D01*
X39199Y-8152D01*
X39143Y-8187D01*
X39087Y-8209D01*
X39023Y-8220D01*
X38963Y-8219D01*
X38899Y-8205D01*
X38844Y-8181D01*
X38790Y-8143D01*
X38748Y-8101D01*
X38713Y-8045D01*
X38691Y-7990D01*
X38679Y-7925D01*
X38680Y-7865D01*
X38693Y-7801D01*
X38717Y-7746D01*
X38754Y-7691D01*
X38797Y-7650D01*
X38852Y-7614D01*
X38907Y-7591D01*
X38972Y-7579D01*
X39031Y-7579D01*
X39096Y-7593D01*
X39151Y-7616D01*
X39206Y-7653D01*
X39248Y-7695D01*
X39284Y-7750D01*
X39307Y-7805D01*
X39320Y-7870D01*
X39320Y-7870D01*
G37*
G36*
X39320Y-8870D02*
X39319Y-8938D01*
X39304Y-9002D01*
X39280Y-9057D01*
X39242Y-9111D01*
X39199Y-9152D01*
X39143Y-9187D01*
X39087Y-9209D01*
X39023Y-9220D01*
X38963Y-9219D01*
X38899Y-9205D01*
X38844Y-9181D01*
X38790Y-9143D01*
X38748Y-9101D01*
X38713Y-9045D01*
X38691Y-8990D01*
X38679Y-8925D01*
X38680Y-8865D01*
X38693Y-8801D01*
X38717Y-8746D01*
X38754Y-8691D01*
X38797Y-8650D01*
X38852Y-8614D01*
X38907Y-8591D01*
X38972Y-8579D01*
X39031Y-8579D01*
X39096Y-8593D01*
X39151Y-8616D01*
X39206Y-8653D01*
X39248Y-8695D01*
X39284Y-8750D01*
X39307Y-8805D01*
X39320Y-8870D01*
X39320Y-8870D01*
G37*
G36*
X39320Y-7220D02*
X38679Y-7220D01*
X38679Y-6579D01*
X39320Y-6579D01*
X39320Y-7220D01*
X39320Y-7220D01*
G37*
G36*
X40120Y-15870D02*
X40119Y-15938D01*
X40104Y-16002D01*
X40080Y-16057D01*
X40042Y-16111D01*
X39999Y-16152D01*
X39943Y-16187D01*
X39887Y-16209D01*
X39823Y-16220D01*
X39763Y-16219D01*
X39699Y-16205D01*
X39644Y-16181D01*
X39590Y-16143D01*
X39548Y-16101D01*
X39513Y-16045D01*
X39491Y-15990D01*
X39479Y-15925D01*
X39480Y-15865D01*
X39493Y-15801D01*
X39517Y-15746D01*
X39554Y-15691D01*
X39597Y-15650D01*
X39652Y-15614D01*
X39707Y-15591D01*
X39772Y-15579D01*
X39831Y-15579D01*
X39896Y-15593D01*
X39951Y-15616D01*
X40006Y-15653D01*
X40048Y-15695D01*
X40084Y-15750D01*
X40107Y-15805D01*
X40120Y-15870D01*
X40120Y-15870D01*
G37*
G36*
X40120Y-16870D02*
X40119Y-16938D01*
X40104Y-17002D01*
X40080Y-17057D01*
X40042Y-17111D01*
X39999Y-17152D01*
X39943Y-17187D01*
X39887Y-17209D01*
X39823Y-17220D01*
X39763Y-17219D01*
X39699Y-17205D01*
X39644Y-17181D01*
X39590Y-17143D01*
X39548Y-17101D01*
X39513Y-17045D01*
X39491Y-16990D01*
X39479Y-16925D01*
X39480Y-16865D01*
X39493Y-16801D01*
X39517Y-16746D01*
X39554Y-16691D01*
X39597Y-16650D01*
X39652Y-16614D01*
X39707Y-16591D01*
X39772Y-16579D01*
X39831Y-16579D01*
X39896Y-16593D01*
X39951Y-16616D01*
X40006Y-16653D01*
X40048Y-16695D01*
X40084Y-16750D01*
X40107Y-16805D01*
X40120Y-16870D01*
X40120Y-16870D01*
G37*
G36*
X40120Y-17870D02*
X40119Y-17938D01*
X40104Y-18002D01*
X40080Y-18057D01*
X40042Y-18111D01*
X39999Y-18152D01*
X39943Y-18187D01*
X39887Y-18209D01*
X39823Y-18220D01*
X39763Y-18219D01*
X39699Y-18205D01*
X39644Y-18181D01*
X39590Y-18143D01*
X39548Y-18101D01*
X39513Y-18045D01*
X39491Y-17990D01*
X39479Y-17925D01*
X39480Y-17865D01*
X39493Y-17801D01*
X39517Y-17746D01*
X39554Y-17691D01*
X39597Y-17650D01*
X39652Y-17614D01*
X39707Y-17591D01*
X39772Y-17579D01*
X39831Y-17579D01*
X39896Y-17593D01*
X39951Y-17616D01*
X40006Y-17653D01*
X40048Y-17695D01*
X40084Y-17750D01*
X40107Y-17805D01*
X40120Y-17870D01*
X40120Y-17870D01*
G37*
G36*
X40120Y-18870D02*
X40119Y-18938D01*
X40104Y-19002D01*
X40080Y-19057D01*
X40042Y-19111D01*
X39999Y-19152D01*
X39943Y-19187D01*
X39887Y-19209D01*
X39823Y-19220D01*
X39763Y-19219D01*
X39699Y-19205D01*
X39644Y-19181D01*
X39590Y-19143D01*
X39548Y-19101D01*
X39513Y-19045D01*
X39491Y-18990D01*
X39479Y-18925D01*
X39480Y-18865D01*
X39493Y-18801D01*
X39517Y-18746D01*
X39554Y-18691D01*
X39597Y-18650D01*
X39652Y-18614D01*
X39707Y-18591D01*
X39772Y-18579D01*
X39831Y-18579D01*
X39896Y-18593D01*
X39951Y-18616D01*
X40006Y-18653D01*
X40048Y-18695D01*
X40084Y-18750D01*
X40107Y-18805D01*
X40120Y-18870D01*
X40120Y-18870D01*
G37*
G36*
X40120Y-19870D02*
X40119Y-19938D01*
X40104Y-20002D01*
X40080Y-20057D01*
X40042Y-20111D01*
X39999Y-20152D01*
X39943Y-20187D01*
X39887Y-20209D01*
X39823Y-20220D01*
X39763Y-20219D01*
X39699Y-20205D01*
X39644Y-20181D01*
X39590Y-20143D01*
X39548Y-20101D01*
X39513Y-20045D01*
X39491Y-19990D01*
X39479Y-19925D01*
X39480Y-19865D01*
X39493Y-19801D01*
X39517Y-19746D01*
X39554Y-19691D01*
X39597Y-19650D01*
X39652Y-19614D01*
X39707Y-19591D01*
X39772Y-19579D01*
X39831Y-19579D01*
X39896Y-19593D01*
X39951Y-19616D01*
X40006Y-19653D01*
X40048Y-19695D01*
X40084Y-19750D01*
X40107Y-19805D01*
X40120Y-19870D01*
X40120Y-19870D01*
G37*
G36*
X40120Y-20870D02*
X40119Y-20938D01*
X40104Y-21002D01*
X40080Y-21057D01*
X40042Y-21111D01*
X39999Y-21152D01*
X39943Y-21187D01*
X39887Y-21209D01*
X39823Y-21220D01*
X39763Y-21219D01*
X39699Y-21205D01*
X39644Y-21181D01*
X39590Y-21143D01*
X39548Y-21101D01*
X39513Y-21045D01*
X39491Y-20990D01*
X39479Y-20925D01*
X39480Y-20865D01*
X39493Y-20801D01*
X39517Y-20746D01*
X39554Y-20691D01*
X39597Y-20650D01*
X39652Y-20614D01*
X39707Y-20591D01*
X39772Y-20579D01*
X39831Y-20579D01*
X39896Y-20593D01*
X39951Y-20616D01*
X40006Y-20653D01*
X40048Y-20695D01*
X40084Y-20750D01*
X40107Y-20805D01*
X40120Y-20870D01*
X40120Y-20870D01*
G37*
G36*
X40120Y-21870D02*
X40119Y-21938D01*
X40104Y-22002D01*
X40080Y-22057D01*
X40042Y-22111D01*
X39999Y-22152D01*
X39943Y-22187D01*
X39887Y-22209D01*
X39823Y-22220D01*
X39763Y-22219D01*
X39699Y-22205D01*
X39644Y-22181D01*
X39590Y-22143D01*
X39548Y-22101D01*
X39513Y-22045D01*
X39491Y-21990D01*
X39479Y-21925D01*
X39480Y-21865D01*
X39493Y-21801D01*
X39517Y-21746D01*
X39554Y-21691D01*
X39597Y-21650D01*
X39652Y-21614D01*
X39707Y-21591D01*
X39772Y-21579D01*
X39831Y-21579D01*
X39896Y-21593D01*
X39951Y-21616D01*
X40006Y-21653D01*
X40048Y-21695D01*
X40084Y-21750D01*
X40107Y-21805D01*
X40120Y-21870D01*
X40120Y-21870D01*
G37*
G36*
X40120Y-22870D02*
X40119Y-22938D01*
X40104Y-23002D01*
X40080Y-23057D01*
X40042Y-23111D01*
X39999Y-23152D01*
X39943Y-23187D01*
X39887Y-23209D01*
X39823Y-23220D01*
X39763Y-23219D01*
X39699Y-23205D01*
X39644Y-23181D01*
X39590Y-23143D01*
X39548Y-23101D01*
X39513Y-23045D01*
X39491Y-22990D01*
X39479Y-22925D01*
X39480Y-22865D01*
X39493Y-22801D01*
X39517Y-22746D01*
X39554Y-22691D01*
X39597Y-22650D01*
X39652Y-22614D01*
X39707Y-22591D01*
X39772Y-22579D01*
X39831Y-22579D01*
X39896Y-22593D01*
X39951Y-22616D01*
X40006Y-22653D01*
X40048Y-22695D01*
X40084Y-22750D01*
X40107Y-22805D01*
X40120Y-22870D01*
X40120Y-22870D01*
G37*
G36*
X40320Y-6870D02*
X40319Y-6938D01*
X40304Y-7002D01*
X40280Y-7057D01*
X40242Y-7111D01*
X40199Y-7152D01*
X40143Y-7187D01*
X40087Y-7209D01*
X40023Y-7220D01*
X39963Y-7219D01*
X39899Y-7205D01*
X39844Y-7181D01*
X39790Y-7143D01*
X39748Y-7101D01*
X39713Y-7045D01*
X39691Y-6990D01*
X39679Y-6925D01*
X39680Y-6865D01*
X39693Y-6801D01*
X39717Y-6746D01*
X39754Y-6691D01*
X39797Y-6650D01*
X39852Y-6614D01*
X39907Y-6591D01*
X39972Y-6579D01*
X40031Y-6579D01*
X40096Y-6593D01*
X40151Y-6616D01*
X40206Y-6653D01*
X40248Y-6695D01*
X40284Y-6750D01*
X40307Y-6805D01*
X40320Y-6870D01*
X40320Y-6870D01*
G37*
G36*
X40320Y-7870D02*
X40319Y-7938D01*
X40304Y-8002D01*
X40280Y-8057D01*
X40242Y-8111D01*
X40199Y-8152D01*
X40143Y-8187D01*
X40087Y-8209D01*
X40023Y-8220D01*
X39963Y-8219D01*
X39899Y-8205D01*
X39844Y-8181D01*
X39790Y-8143D01*
X39748Y-8101D01*
X39713Y-8045D01*
X39691Y-7990D01*
X39679Y-7925D01*
X39680Y-7865D01*
X39693Y-7801D01*
X39717Y-7746D01*
X39754Y-7691D01*
X39797Y-7650D01*
X39852Y-7614D01*
X39907Y-7591D01*
X39972Y-7579D01*
X40031Y-7579D01*
X40096Y-7593D01*
X40151Y-7616D01*
X40206Y-7653D01*
X40248Y-7695D01*
X40284Y-7750D01*
X40307Y-7805D01*
X40320Y-7870D01*
X40320Y-7870D01*
G37*
G36*
X40320Y-8870D02*
X40319Y-8938D01*
X40304Y-9002D01*
X40280Y-9057D01*
X40242Y-9111D01*
X40199Y-9152D01*
X40143Y-9187D01*
X40087Y-9209D01*
X40023Y-9220D01*
X39963Y-9219D01*
X39899Y-9205D01*
X39844Y-9181D01*
X39790Y-9143D01*
X39748Y-9101D01*
X39713Y-9045D01*
X39691Y-8990D01*
X39679Y-8925D01*
X39680Y-8865D01*
X39693Y-8801D01*
X39717Y-8746D01*
X39754Y-8691D01*
X39797Y-8650D01*
X39852Y-8614D01*
X39907Y-8591D01*
X39972Y-8579D01*
X40031Y-8579D01*
X40096Y-8593D01*
X40151Y-8616D01*
X40206Y-8653D01*
X40248Y-8695D01*
X40284Y-8750D01*
X40307Y-8805D01*
X40320Y-8870D01*
X40320Y-8870D01*
G37*
G36*
X40570Y-25445D02*
X40569Y-25525D01*
X40552Y-25598D01*
X40524Y-25662D01*
X40480Y-25724D01*
X40430Y-25772D01*
X40366Y-25812D01*
X40301Y-25837D01*
X40226Y-25850D01*
X40157Y-25849D01*
X40083Y-25833D01*
X40019Y-25805D01*
X39957Y-25762D01*
X39909Y-25712D01*
X39868Y-25648D01*
X39842Y-25584D01*
X39829Y-25509D01*
X39830Y-25440D01*
X39845Y-25365D01*
X39873Y-25302D01*
X39916Y-25239D01*
X39965Y-25191D01*
X40029Y-25149D01*
X40093Y-25123D01*
X40168Y-25109D01*
X40237Y-25109D01*
X40311Y-25125D01*
X40375Y-25151D01*
X40438Y-25194D01*
X40487Y-25243D01*
X40529Y-25307D01*
X40555Y-25370D01*
X40570Y-25445D01*
X40570Y-25445D01*
G37*
G36*
X40570Y-29945D02*
X40569Y-30025D01*
X40552Y-30098D01*
X40524Y-30162D01*
X40480Y-30224D01*
X40430Y-30272D01*
X40366Y-30312D01*
X40301Y-30337D01*
X40226Y-30350D01*
X40157Y-30349D01*
X40083Y-30333D01*
X40019Y-30305D01*
X39957Y-30262D01*
X39909Y-30212D01*
X39868Y-30148D01*
X39842Y-30084D01*
X39829Y-30009D01*
X39830Y-29940D01*
X39845Y-29865D01*
X39873Y-29802D01*
X39916Y-29739D01*
X39965Y-29691D01*
X40029Y-29649D01*
X40093Y-29623D01*
X40168Y-29609D01*
X40237Y-29609D01*
X40311Y-29625D01*
X40375Y-29651D01*
X40438Y-29694D01*
X40487Y-29743D01*
X40529Y-29807D01*
X40555Y-29870D01*
X40570Y-29945D01*
X40570Y-29945D01*
G37*
G36*
X40570Y-27850D02*
X39829Y-27850D01*
X39829Y-27109D01*
X40570Y-27109D01*
X40570Y-27850D01*
X40570Y-27850D01*
G37*
G36*
X40570Y-32350D02*
X39829Y-32350D01*
X39829Y-31609D01*
X40570Y-31609D01*
X40570Y-32350D01*
X40570Y-32350D01*
G37*
G36*
X41345Y-21067D02*
X41344Y-21142D01*
X41328Y-21210D01*
X41302Y-21270D01*
X41261Y-21327D01*
X41214Y-21372D01*
X41155Y-21410D01*
X41094Y-21433D01*
X41025Y-21445D01*
X40960Y-21444D01*
X40891Y-21429D01*
X40832Y-21403D01*
X40773Y-21363D01*
X40729Y-21316D01*
X40690Y-21257D01*
X40667Y-21197D01*
X40654Y-21127D01*
X40655Y-21063D01*
X40669Y-20993D01*
X40695Y-20934D01*
X40735Y-20875D01*
X40781Y-20830D01*
X40840Y-20791D01*
X40900Y-20767D01*
X40970Y-20754D01*
X41034Y-20754D01*
X41104Y-20769D01*
X41163Y-20794D01*
X41222Y-20833D01*
X41267Y-20879D01*
X41307Y-20938D01*
X41331Y-20997D01*
X41345Y-21067D01*
X41345Y-21067D01*
G37*
G36*
X41345Y-21967D02*
X41344Y-22042D01*
X41328Y-22110D01*
X41302Y-22170D01*
X41261Y-22227D01*
X41214Y-22272D01*
X41155Y-22310D01*
X41094Y-22333D01*
X41025Y-22345D01*
X40960Y-22344D01*
X40891Y-22329D01*
X40832Y-22303D01*
X40773Y-22263D01*
X40729Y-22216D01*
X40690Y-22157D01*
X40667Y-22097D01*
X40654Y-22027D01*
X40655Y-21963D01*
X40669Y-21893D01*
X40695Y-21834D01*
X40735Y-21775D01*
X40781Y-21730D01*
X40840Y-21691D01*
X40900Y-21667D01*
X40970Y-21654D01*
X41034Y-21654D01*
X41104Y-21669D01*
X41163Y-21694D01*
X41222Y-21733D01*
X41267Y-21779D01*
X41307Y-21838D01*
X41331Y-21897D01*
X41345Y-21967D01*
X41345Y-21967D01*
G37*
G36*
X41345Y-22867D02*
X41344Y-22942D01*
X41328Y-23010D01*
X41302Y-23070D01*
X41261Y-23127D01*
X41214Y-23172D01*
X41155Y-23210D01*
X41094Y-23233D01*
X41025Y-23245D01*
X40960Y-23244D01*
X40891Y-23229D01*
X40832Y-23203D01*
X40773Y-23163D01*
X40729Y-23116D01*
X40690Y-23057D01*
X40667Y-22997D01*
X40654Y-22927D01*
X40655Y-22863D01*
X40669Y-22793D01*
X40695Y-22734D01*
X40735Y-22675D01*
X40781Y-22630D01*
X40840Y-22591D01*
X40900Y-22567D01*
X40970Y-22554D01*
X41034Y-22554D01*
X41104Y-22569D01*
X41163Y-22594D01*
X41222Y-22633D01*
X41267Y-22679D01*
X41307Y-22738D01*
X41331Y-22797D01*
X41345Y-22867D01*
X41345Y-22867D01*
G37*
G36*
X41521Y-17460D02*
X41520Y-17551D01*
X41501Y-17635D01*
X41469Y-17708D01*
X41419Y-17777D01*
X41362Y-17832D01*
X41289Y-17878D01*
X41215Y-17907D01*
X41130Y-17922D01*
X41051Y-17920D01*
X40967Y-17902D01*
X40894Y-17870D01*
X40824Y-17821D01*
X40768Y-17764D01*
X40722Y-17692D01*
X40693Y-17618D01*
X40677Y-17533D01*
X40678Y-17454D01*
X40696Y-17370D01*
X40727Y-17297D01*
X40776Y-17226D01*
X40833Y-17170D01*
X40905Y-17123D01*
X40978Y-17094D01*
X41063Y-17077D01*
X41142Y-17078D01*
X41227Y-17095D01*
X41299Y-17126D01*
X41371Y-17174D01*
X41427Y-17230D01*
X41475Y-17302D01*
X41505Y-17375D01*
X41521Y-17460D01*
X41521Y-17460D01*
G37*
G36*
X41620Y-5970D02*
X41619Y-6038D01*
X41604Y-6102D01*
X41580Y-6157D01*
X41542Y-6211D01*
X41499Y-6252D01*
X41443Y-6287D01*
X41387Y-6309D01*
X41323Y-6320D01*
X41263Y-6319D01*
X41199Y-6305D01*
X41144Y-6281D01*
X41090Y-6243D01*
X41048Y-6201D01*
X41013Y-6145D01*
X40991Y-6090D01*
X40979Y-6025D01*
X40980Y-5965D01*
X40993Y-5901D01*
X41017Y-5846D01*
X41054Y-5791D01*
X41097Y-5750D01*
X41152Y-5714D01*
X41207Y-5691D01*
X41272Y-5679D01*
X41331Y-5679D01*
X41396Y-5693D01*
X41451Y-5716D01*
X41506Y-5753D01*
X41548Y-5795D01*
X41584Y-5850D01*
X41607Y-5905D01*
X41620Y-5970D01*
X41620Y-5970D01*
G37*
G36*
X41620Y-6970D02*
X41619Y-7038D01*
X41604Y-7102D01*
X41580Y-7157D01*
X41542Y-7211D01*
X41499Y-7252D01*
X41443Y-7287D01*
X41387Y-7309D01*
X41323Y-7320D01*
X41263Y-7319D01*
X41199Y-7305D01*
X41144Y-7281D01*
X41090Y-7243D01*
X41048Y-7201D01*
X41013Y-7145D01*
X40991Y-7090D01*
X40979Y-7025D01*
X40980Y-6965D01*
X40993Y-6901D01*
X41017Y-6846D01*
X41054Y-6791D01*
X41097Y-6750D01*
X41152Y-6714D01*
X41207Y-6691D01*
X41272Y-6679D01*
X41331Y-6679D01*
X41396Y-6693D01*
X41451Y-6716D01*
X41506Y-6753D01*
X41548Y-6795D01*
X41584Y-6850D01*
X41607Y-6905D01*
X41620Y-6970D01*
X41620Y-6970D01*
G37*
G36*
X41620Y-7970D02*
X41619Y-8038D01*
X41604Y-8102D01*
X41580Y-8157D01*
X41542Y-8211D01*
X41499Y-8252D01*
X41443Y-8287D01*
X41387Y-8309D01*
X41323Y-8320D01*
X41263Y-8319D01*
X41199Y-8305D01*
X41144Y-8281D01*
X41090Y-8243D01*
X41048Y-8201D01*
X41013Y-8145D01*
X40991Y-8090D01*
X40979Y-8025D01*
X40980Y-7965D01*
X40993Y-7901D01*
X41017Y-7846D01*
X41054Y-7791D01*
X41097Y-7750D01*
X41152Y-7714D01*
X41207Y-7691D01*
X41272Y-7679D01*
X41331Y-7679D01*
X41396Y-7693D01*
X41451Y-7716D01*
X41506Y-7753D01*
X41548Y-7795D01*
X41584Y-7850D01*
X41607Y-7905D01*
X41620Y-7970D01*
X41620Y-7970D01*
G37*
G36*
X41620Y-8970D02*
X41619Y-9038D01*
X41604Y-9102D01*
X41580Y-9157D01*
X41542Y-9211D01*
X41499Y-9252D01*
X41443Y-9287D01*
X41387Y-9309D01*
X41323Y-9320D01*
X41263Y-9319D01*
X41199Y-9305D01*
X41144Y-9281D01*
X41090Y-9243D01*
X41048Y-9201D01*
X41013Y-9145D01*
X40991Y-9090D01*
X40979Y-9025D01*
X40980Y-8965D01*
X40993Y-8901D01*
X41017Y-8846D01*
X41054Y-8791D01*
X41097Y-8750D01*
X41152Y-8714D01*
X41207Y-8691D01*
X41272Y-8679D01*
X41331Y-8679D01*
X41396Y-8693D01*
X41451Y-8716D01*
X41506Y-8753D01*
X41548Y-8795D01*
X41584Y-8850D01*
X41607Y-8905D01*
X41620Y-8970D01*
X41620Y-8970D01*
G37*
G36*
X41620Y-9970D02*
X41619Y-10038D01*
X41604Y-10102D01*
X41580Y-10157D01*
X41542Y-10211D01*
X41499Y-10252D01*
X41443Y-10287D01*
X41387Y-10309D01*
X41323Y-10320D01*
X41263Y-10319D01*
X41199Y-10305D01*
X41144Y-10281D01*
X41090Y-10243D01*
X41048Y-10201D01*
X41013Y-10145D01*
X40991Y-10090D01*
X40979Y-10025D01*
X40980Y-9965D01*
X40993Y-9901D01*
X41017Y-9846D01*
X41054Y-9791D01*
X41097Y-9750D01*
X41152Y-9714D01*
X41207Y-9691D01*
X41272Y-9679D01*
X41331Y-9679D01*
X41396Y-9693D01*
X41451Y-9716D01*
X41506Y-9753D01*
X41548Y-9795D01*
X41584Y-9850D01*
X41607Y-9905D01*
X41620Y-9970D01*
X41620Y-9970D01*
G37*
G36*
X41620Y-10970D02*
X41619Y-11038D01*
X41604Y-11102D01*
X41580Y-11157D01*
X41542Y-11211D01*
X41499Y-11252D01*
X41443Y-11287D01*
X41387Y-11309D01*
X41323Y-11320D01*
X41263Y-11319D01*
X41199Y-11305D01*
X41144Y-11281D01*
X41090Y-11243D01*
X41048Y-11201D01*
X41013Y-11145D01*
X40991Y-11090D01*
X40979Y-11025D01*
X40980Y-10965D01*
X40993Y-10901D01*
X41017Y-10846D01*
X41054Y-10791D01*
X41097Y-10750D01*
X41152Y-10714D01*
X41207Y-10691D01*
X41272Y-10679D01*
X41331Y-10679D01*
X41396Y-10693D01*
X41451Y-10716D01*
X41506Y-10753D01*
X41548Y-10795D01*
X41584Y-10850D01*
X41607Y-10905D01*
X41620Y-10970D01*
X41620Y-10970D01*
G37*
G36*
X41620Y-11970D02*
X41619Y-12038D01*
X41604Y-12102D01*
X41580Y-12157D01*
X41542Y-12211D01*
X41499Y-12252D01*
X41443Y-12287D01*
X41387Y-12309D01*
X41323Y-12320D01*
X41263Y-12319D01*
X41199Y-12305D01*
X41144Y-12281D01*
X41090Y-12243D01*
X41048Y-12201D01*
X41013Y-12145D01*
X40991Y-12090D01*
X40979Y-12025D01*
X40980Y-11965D01*
X40993Y-11901D01*
X41017Y-11846D01*
X41054Y-11791D01*
X41097Y-11750D01*
X41152Y-11714D01*
X41207Y-11691D01*
X41272Y-11679D01*
X41331Y-11679D01*
X41396Y-11693D01*
X41451Y-11716D01*
X41506Y-11753D01*
X41548Y-11795D01*
X41584Y-11850D01*
X41607Y-11905D01*
X41620Y-11970D01*
X41620Y-11970D01*
G37*
G36*
X41620Y-13320D02*
X40979Y-13320D01*
X40979Y-12679D01*
X41620Y-12679D01*
X41620Y-13320D01*
X41620Y-13320D01*
G37*
G36*
X42170Y-14635D02*
X41579Y-14635D01*
X41579Y-14244D01*
X42170Y-14244D01*
X42170Y-14635D01*
X42170Y-14635D01*
G37*
G36*
X42170Y-15385D02*
X41579Y-15385D01*
X41579Y-14994D01*
X42170Y-14994D01*
X42170Y-15385D01*
X42170Y-15385D01*
G37*
G36*
X42290Y-34585D02*
X42289Y-34665D01*
X42272Y-34738D01*
X42244Y-34802D01*
X42200Y-34864D01*
X42150Y-34912D01*
X42086Y-34952D01*
X42021Y-34977D01*
X41946Y-34990D01*
X41877Y-34989D01*
X41803Y-34973D01*
X41739Y-34945D01*
X41677Y-34902D01*
X41629Y-34852D01*
X41588Y-34788D01*
X41562Y-34724D01*
X41549Y-34649D01*
X41550Y-34580D01*
X41565Y-34505D01*
X41593Y-34442D01*
X41636Y-34379D01*
X41685Y-34331D01*
X41749Y-34289D01*
X41813Y-34263D01*
X41888Y-34249D01*
X41957Y-34249D01*
X42031Y-34265D01*
X42095Y-34291D01*
X42158Y-34334D01*
X42207Y-34383D01*
X42249Y-34447D01*
X42275Y-34510D01*
X42290Y-34585D01*
X42290Y-34585D01*
G37*
G36*
X42521Y-18460D02*
X42520Y-18551D01*
X42501Y-18635D01*
X42469Y-18708D01*
X42419Y-18777D01*
X42362Y-18832D01*
X42289Y-18878D01*
X42215Y-18907D01*
X42130Y-18922D01*
X42051Y-18920D01*
X41967Y-18902D01*
X41894Y-18870D01*
X41824Y-18821D01*
X41768Y-18764D01*
X41722Y-18692D01*
X41693Y-18618D01*
X41677Y-18533D01*
X41678Y-18454D01*
X41696Y-18370D01*
X41727Y-18297D01*
X41776Y-18226D01*
X41833Y-18170D01*
X41905Y-18123D01*
X41978Y-18094D01*
X42063Y-18077D01*
X42142Y-18078D01*
X42227Y-18095D01*
X42299Y-18126D01*
X42371Y-18174D01*
X42427Y-18230D01*
X42475Y-18302D01*
X42505Y-18375D01*
X42521Y-18460D01*
X42521Y-18460D01*
G37*
G36*
X42521Y-16921D02*
X41678Y-16921D01*
X41678Y-16078D01*
X42521Y-16078D01*
X42521Y-16921D01*
X42521Y-16921D01*
G37*
G36*
X43120Y-6970D02*
X43119Y-7038D01*
X43104Y-7102D01*
X43080Y-7157D01*
X43042Y-7211D01*
X42999Y-7252D01*
X42943Y-7287D01*
X42887Y-7309D01*
X42823Y-7320D01*
X42763Y-7319D01*
X42699Y-7305D01*
X42644Y-7281D01*
X42590Y-7243D01*
X42548Y-7201D01*
X42513Y-7145D01*
X42491Y-7090D01*
X42479Y-7025D01*
X42480Y-6965D01*
X42493Y-6901D01*
X42517Y-6846D01*
X42554Y-6791D01*
X42597Y-6750D01*
X42652Y-6714D01*
X42707Y-6691D01*
X42772Y-6679D01*
X42831Y-6679D01*
X42896Y-6693D01*
X42951Y-6716D01*
X43006Y-6753D01*
X43048Y-6795D01*
X43084Y-6850D01*
X43107Y-6905D01*
X43120Y-6970D01*
X43120Y-6970D01*
G37*
G36*
X43120Y-7970D02*
X43119Y-8038D01*
X43104Y-8102D01*
X43080Y-8157D01*
X43042Y-8211D01*
X42999Y-8252D01*
X42943Y-8287D01*
X42887Y-8309D01*
X42823Y-8320D01*
X42763Y-8319D01*
X42699Y-8305D01*
X42644Y-8281D01*
X42590Y-8243D01*
X42548Y-8201D01*
X42513Y-8145D01*
X42491Y-8090D01*
X42479Y-8025D01*
X42480Y-7965D01*
X42493Y-7901D01*
X42517Y-7846D01*
X42554Y-7791D01*
X42597Y-7750D01*
X42652Y-7714D01*
X42707Y-7691D01*
X42772Y-7679D01*
X42831Y-7679D01*
X42896Y-7693D01*
X42951Y-7716D01*
X43006Y-7753D01*
X43048Y-7795D01*
X43084Y-7850D01*
X43107Y-7905D01*
X43120Y-7970D01*
X43120Y-7970D01*
G37*
G36*
X43120Y-8970D02*
X43119Y-9038D01*
X43104Y-9102D01*
X43080Y-9157D01*
X43042Y-9211D01*
X42999Y-9252D01*
X42943Y-9287D01*
X42887Y-9309D01*
X42823Y-9320D01*
X42763Y-9319D01*
X42699Y-9305D01*
X42644Y-9281D01*
X42590Y-9243D01*
X42548Y-9201D01*
X42513Y-9145D01*
X42491Y-9090D01*
X42479Y-9025D01*
X42480Y-8965D01*
X42493Y-8901D01*
X42517Y-8846D01*
X42554Y-8791D01*
X42597Y-8750D01*
X42652Y-8714D01*
X42707Y-8691D01*
X42772Y-8679D01*
X42831Y-8679D01*
X42896Y-8693D01*
X42951Y-8716D01*
X43006Y-8753D01*
X43048Y-8795D01*
X43084Y-8850D01*
X43107Y-8905D01*
X43120Y-8970D01*
X43120Y-8970D01*
G37*
G36*
X43120Y-9970D02*
X43119Y-10038D01*
X43104Y-10102D01*
X43080Y-10157D01*
X43042Y-10211D01*
X42999Y-10252D01*
X42943Y-10287D01*
X42887Y-10309D01*
X42823Y-10320D01*
X42763Y-10319D01*
X42699Y-10305D01*
X42644Y-10281D01*
X42590Y-10243D01*
X42548Y-10201D01*
X42513Y-10145D01*
X42491Y-10090D01*
X42479Y-10025D01*
X42480Y-9965D01*
X42493Y-9901D01*
X42517Y-9846D01*
X42554Y-9791D01*
X42597Y-9750D01*
X42652Y-9714D01*
X42707Y-9691D01*
X42772Y-9679D01*
X42831Y-9679D01*
X42896Y-9693D01*
X42951Y-9716D01*
X43006Y-9753D01*
X43048Y-9795D01*
X43084Y-9850D01*
X43107Y-9905D01*
X43120Y-9970D01*
X43120Y-9970D01*
G37*
G36*
X43120Y-13070D02*
X43119Y-13138D01*
X43104Y-13202D01*
X43080Y-13257D01*
X43042Y-13311D01*
X42999Y-13352D01*
X42943Y-13387D01*
X42887Y-13409D01*
X42823Y-13420D01*
X42763Y-13419D01*
X42699Y-13405D01*
X42644Y-13381D01*
X42590Y-13343D01*
X42548Y-13301D01*
X42513Y-13245D01*
X42491Y-13190D01*
X42479Y-13125D01*
X42480Y-13065D01*
X42493Y-13001D01*
X42517Y-12946D01*
X42554Y-12891D01*
X42597Y-12850D01*
X42652Y-12814D01*
X42707Y-12791D01*
X42772Y-12779D01*
X42831Y-12779D01*
X42896Y-12793D01*
X42951Y-12816D01*
X43006Y-12853D01*
X43048Y-12895D01*
X43084Y-12950D01*
X43107Y-13005D01*
X43120Y-13070D01*
X43120Y-13070D01*
G37*
G36*
X43120Y-14070D02*
X43119Y-14138D01*
X43104Y-14202D01*
X43080Y-14257D01*
X43042Y-14311D01*
X42999Y-14352D01*
X42943Y-14387D01*
X42887Y-14409D01*
X42823Y-14420D01*
X42763Y-14419D01*
X42699Y-14405D01*
X42644Y-14381D01*
X42590Y-14343D01*
X42548Y-14301D01*
X42513Y-14245D01*
X42491Y-14190D01*
X42479Y-14125D01*
X42480Y-14065D01*
X42493Y-14001D01*
X42517Y-13946D01*
X42554Y-13891D01*
X42597Y-13850D01*
X42652Y-13814D01*
X42707Y-13791D01*
X42772Y-13779D01*
X42831Y-13779D01*
X42896Y-13793D01*
X42951Y-13816D01*
X43006Y-13853D01*
X43048Y-13895D01*
X43084Y-13950D01*
X43107Y-14005D01*
X43120Y-14070D01*
X43120Y-14070D01*
G37*
G36*
X43120Y-6320D02*
X42479Y-6320D01*
X42479Y-5679D01*
X43120Y-5679D01*
X43120Y-6320D01*
X43120Y-6320D01*
G37*
G36*
X43120Y-12420D02*
X42479Y-12420D01*
X42479Y-11779D01*
X43120Y-11779D01*
X43120Y-12420D01*
X43120Y-12420D01*
G37*
G36*
X44070Y-26170D02*
X43329Y-26170D01*
X43329Y-25429D01*
X44070Y-25429D01*
X44070Y-26170D01*
X44070Y-26170D01*
G37*
G36*
X44290Y-34990D02*
X43549Y-34990D01*
X43549Y-34249D01*
X44290Y-34249D01*
X44290Y-34990D01*
X44290Y-34990D01*
G37*
G36*
X44795Y-38570D02*
X44204Y-38570D01*
X44204Y-38179D01*
X44795Y-38179D01*
X44795Y-38570D01*
X44795Y-38570D01*
G37*
G36*
X44795Y-39320D02*
X44204Y-39320D01*
X44204Y-38929D01*
X44795Y-38929D01*
X44795Y-39320D01*
X44795Y-39320D01*
G37*
G36*
X44970Y-31265D02*
X44969Y-31345D01*
X44952Y-31418D01*
X44924Y-31482D01*
X44880Y-31544D01*
X44830Y-31592D01*
X44766Y-31632D01*
X44701Y-31657D01*
X44626Y-31670D01*
X44557Y-31669D01*
X44483Y-31653D01*
X44419Y-31625D01*
X44357Y-31582D01*
X44309Y-31532D01*
X44268Y-31468D01*
X44242Y-31404D01*
X44229Y-31329D01*
X44230Y-31260D01*
X44245Y-31185D01*
X44273Y-31122D01*
X44316Y-31059D01*
X44365Y-31011D01*
X44429Y-30969D01*
X44493Y-30943D01*
X44568Y-30929D01*
X44637Y-30929D01*
X44711Y-30945D01*
X44775Y-30971D01*
X44838Y-31014D01*
X44887Y-31063D01*
X44929Y-31127D01*
X44955Y-31190D01*
X44970Y-31265D01*
X44970Y-31265D01*
G37*
G36*
X44970Y-29670D02*
X44229Y-29670D01*
X44229Y-28929D01*
X44970Y-28929D01*
X44970Y-29670D01*
X44970Y-29670D01*
G37*
G36*
X45445Y-14357D02*
X45443Y-14454D01*
X45423Y-14542D01*
X45389Y-14619D01*
X45337Y-14693D01*
X45276Y-14751D01*
X45200Y-14799D01*
X45121Y-14830D01*
X45032Y-14846D01*
X44948Y-14844D01*
X44860Y-14824D01*
X44783Y-14791D01*
X44708Y-14739D01*
X44650Y-14679D01*
X44601Y-14602D01*
X44570Y-14524D01*
X44554Y-14435D01*
X44555Y-14351D01*
X44574Y-14263D01*
X44607Y-14186D01*
X44658Y-14111D01*
X44718Y-14052D01*
X44794Y-14002D01*
X44871Y-13971D01*
X44961Y-13954D01*
X45044Y-13954D01*
X45134Y-13973D01*
X45211Y-14005D01*
X45286Y-14056D01*
X45345Y-14115D01*
X45395Y-14191D01*
X45427Y-14268D01*
X45445Y-14357D01*
X45445Y-14357D01*
G37*
G36*
X45445Y-20445D02*
X44554Y-20445D01*
X44554Y-19554D01*
X45445Y-19554D01*
X45445Y-20445D01*
X45445Y-20445D01*
G37*
G36*
X45545Y-21067D02*
X45544Y-21142D01*
X45528Y-21210D01*
X45502Y-21270D01*
X45461Y-21327D01*
X45414Y-21372D01*
X45355Y-21410D01*
X45294Y-21433D01*
X45225Y-21445D01*
X45160Y-21444D01*
X45091Y-21429D01*
X45032Y-21403D01*
X44973Y-21363D01*
X44929Y-21316D01*
X44890Y-21257D01*
X44867Y-21197D01*
X44854Y-21127D01*
X44855Y-21063D01*
X44869Y-20993D01*
X44895Y-20934D01*
X44935Y-20875D01*
X44981Y-20830D01*
X45040Y-20791D01*
X45100Y-20767D01*
X45170Y-20754D01*
X45234Y-20754D01*
X45304Y-20769D01*
X45363Y-20794D01*
X45422Y-20833D01*
X45467Y-20879D01*
X45507Y-20938D01*
X45531Y-20997D01*
X45545Y-21067D01*
X45545Y-21067D01*
G37*
G36*
X45545Y-21967D02*
X45544Y-22042D01*
X45528Y-22110D01*
X45502Y-22170D01*
X45461Y-22227D01*
X45414Y-22272D01*
X45355Y-22310D01*
X45294Y-22333D01*
X45225Y-22345D01*
X45160Y-22344D01*
X45091Y-22329D01*
X45032Y-22303D01*
X44973Y-22263D01*
X44929Y-22216D01*
X44890Y-22157D01*
X44867Y-22097D01*
X44854Y-22027D01*
X44855Y-21963D01*
X44869Y-21893D01*
X44895Y-21834D01*
X44935Y-21775D01*
X44981Y-21730D01*
X45040Y-21691D01*
X45100Y-21667D01*
X45170Y-21654D01*
X45234Y-21654D01*
X45304Y-21669D01*
X45363Y-21694D01*
X45422Y-21733D01*
X45467Y-21779D01*
X45507Y-21838D01*
X45531Y-21897D01*
X45545Y-21967D01*
X45545Y-21967D01*
G37*
G36*
X45545Y-22867D02*
X45544Y-22942D01*
X45528Y-23010D01*
X45502Y-23070D01*
X45461Y-23127D01*
X45414Y-23172D01*
X45355Y-23210D01*
X45294Y-23233D01*
X45225Y-23245D01*
X45160Y-23244D01*
X45091Y-23229D01*
X45032Y-23203D01*
X44973Y-23163D01*
X44929Y-23116D01*
X44890Y-23057D01*
X44867Y-22997D01*
X44854Y-22927D01*
X44855Y-22863D01*
X44869Y-22793D01*
X44895Y-22734D01*
X44935Y-22675D01*
X44981Y-22630D01*
X45040Y-22591D01*
X45100Y-22567D01*
X45170Y-22554D01*
X45234Y-22554D01*
X45304Y-22569D01*
X45363Y-22594D01*
X45422Y-22633D01*
X45467Y-22679D01*
X45507Y-22738D01*
X45531Y-22797D01*
X45545Y-22867D01*
X45545Y-22867D01*
G37*
G36*
X45745Y-11467D02*
X45744Y-11542D01*
X45728Y-11610D01*
X45702Y-11670D01*
X45661Y-11727D01*
X45614Y-11772D01*
X45555Y-11810D01*
X45494Y-11833D01*
X45425Y-11845D01*
X45360Y-11844D01*
X45291Y-11829D01*
X45232Y-11803D01*
X45173Y-11763D01*
X45129Y-11716D01*
X45090Y-11657D01*
X45067Y-11597D01*
X45054Y-11527D01*
X45055Y-11463D01*
X45069Y-11393D01*
X45095Y-11334D01*
X45135Y-11275D01*
X45181Y-11230D01*
X45240Y-11191D01*
X45300Y-11167D01*
X45370Y-11154D01*
X45434Y-11154D01*
X45504Y-11169D01*
X45563Y-11194D01*
X45622Y-11233D01*
X45667Y-11279D01*
X45707Y-11338D01*
X45731Y-11397D01*
X45745Y-11467D01*
X45745Y-11467D01*
G37*
G36*
X45745Y-12367D02*
X45744Y-12442D01*
X45728Y-12510D01*
X45702Y-12570D01*
X45661Y-12627D01*
X45614Y-12672D01*
X45555Y-12710D01*
X45494Y-12733D01*
X45425Y-12745D01*
X45360Y-12744D01*
X45291Y-12729D01*
X45232Y-12703D01*
X45173Y-12663D01*
X45129Y-12616D01*
X45090Y-12557D01*
X45067Y-12497D01*
X45054Y-12427D01*
X45055Y-12363D01*
X45069Y-12293D01*
X45095Y-12234D01*
X45135Y-12175D01*
X45181Y-12130D01*
X45240Y-12091D01*
X45300Y-12067D01*
X45370Y-12054D01*
X45434Y-12054D01*
X45504Y-12069D01*
X45563Y-12094D01*
X45622Y-12133D01*
X45667Y-12179D01*
X45707Y-12238D01*
X45731Y-12297D01*
X45745Y-12367D01*
X45745Y-12367D01*
G37*
G36*
X45745Y-13267D02*
X45744Y-13342D01*
X45728Y-13410D01*
X45702Y-13470D01*
X45661Y-13527D01*
X45614Y-13572D01*
X45555Y-13610D01*
X45494Y-13633D01*
X45425Y-13645D01*
X45360Y-13644D01*
X45291Y-13629D01*
X45232Y-13603D01*
X45173Y-13563D01*
X45129Y-13516D01*
X45090Y-13457D01*
X45067Y-13397D01*
X45054Y-13327D01*
X45055Y-13263D01*
X45069Y-13193D01*
X45095Y-13134D01*
X45135Y-13075D01*
X45181Y-13030D01*
X45240Y-12991D01*
X45300Y-12967D01*
X45370Y-12954D01*
X45434Y-12954D01*
X45504Y-12969D01*
X45563Y-12994D01*
X45622Y-13033D01*
X45667Y-13079D01*
X45707Y-13138D01*
X45731Y-13197D01*
X45745Y-13267D01*
X45745Y-13267D01*
G37*
G36*
X45945Y-7967D02*
X45944Y-8042D01*
X45928Y-8110D01*
X45902Y-8170D01*
X45861Y-8227D01*
X45814Y-8272D01*
X45755Y-8310D01*
X45694Y-8333D01*
X45625Y-8345D01*
X45560Y-8344D01*
X45491Y-8329D01*
X45432Y-8303D01*
X45373Y-8263D01*
X45329Y-8216D01*
X45290Y-8157D01*
X45267Y-8097D01*
X45254Y-8027D01*
X45255Y-7963D01*
X45269Y-7893D01*
X45295Y-7834D01*
X45335Y-7775D01*
X45381Y-7730D01*
X45440Y-7691D01*
X45500Y-7667D01*
X45570Y-7654D01*
X45634Y-7654D01*
X45704Y-7669D01*
X45763Y-7694D01*
X45822Y-7733D01*
X45867Y-7779D01*
X45907Y-7838D01*
X45931Y-7897D01*
X45945Y-7967D01*
X45945Y-7967D01*
G37*
G36*
X45945Y-8867D02*
X45944Y-8942D01*
X45928Y-9010D01*
X45902Y-9070D01*
X45861Y-9127D01*
X45814Y-9172D01*
X45755Y-9210D01*
X45694Y-9233D01*
X45625Y-9245D01*
X45560Y-9244D01*
X45491Y-9229D01*
X45432Y-9203D01*
X45373Y-9163D01*
X45329Y-9116D01*
X45290Y-9057D01*
X45267Y-8997D01*
X45254Y-8927D01*
X45255Y-8863D01*
X45269Y-8793D01*
X45295Y-8734D01*
X45335Y-8675D01*
X45381Y-8630D01*
X45440Y-8591D01*
X45500Y-8567D01*
X45570Y-8554D01*
X45634Y-8554D01*
X45704Y-8569D01*
X45763Y-8594D01*
X45822Y-8633D01*
X45867Y-8679D01*
X45907Y-8738D01*
X45931Y-8797D01*
X45945Y-8867D01*
X45945Y-8867D01*
G37*
G36*
X45945Y-9767D02*
X45944Y-9842D01*
X45928Y-9910D01*
X45902Y-9970D01*
X45861Y-10027D01*
X45814Y-10072D01*
X45755Y-10110D01*
X45694Y-10133D01*
X45625Y-10145D01*
X45560Y-10144D01*
X45491Y-10129D01*
X45432Y-10103D01*
X45373Y-10063D01*
X45329Y-10016D01*
X45290Y-9957D01*
X45267Y-9897D01*
X45254Y-9827D01*
X45255Y-9763D01*
X45269Y-9693D01*
X45295Y-9634D01*
X45335Y-9575D01*
X45381Y-9530D01*
X45440Y-9491D01*
X45500Y-9467D01*
X45570Y-9454D01*
X45634Y-9454D01*
X45704Y-9469D01*
X45763Y-9494D01*
X45822Y-9533D01*
X45867Y-9579D01*
X45907Y-9638D01*
X45931Y-9697D01*
X45945Y-9767D01*
X45945Y-9767D01*
G37*
G36*
X46070Y-25765D02*
X46069Y-25845D01*
X46052Y-25918D01*
X46024Y-25982D01*
X45980Y-26044D01*
X45930Y-26092D01*
X45866Y-26132D01*
X45801Y-26157D01*
X45726Y-26170D01*
X45657Y-26169D01*
X45583Y-26153D01*
X45519Y-26125D01*
X45457Y-26082D01*
X45409Y-26032D01*
X45368Y-25968D01*
X45342Y-25904D01*
X45329Y-25829D01*
X45330Y-25760D01*
X45345Y-25685D01*
X45373Y-25622D01*
X45416Y-25559D01*
X45465Y-25511D01*
X45529Y-25469D01*
X45593Y-25443D01*
X45668Y-25429D01*
X45737Y-25429D01*
X45811Y-25445D01*
X45875Y-25471D01*
X45938Y-25514D01*
X45987Y-25563D01*
X46029Y-25627D01*
X46055Y-25690D01*
X46070Y-25765D01*
X46070Y-25765D01*
G37*
G36*
X46225Y-35125D02*
X45334Y-35125D01*
X45334Y-34234D01*
X46225Y-34234D01*
X46225Y-35125D01*
X46225Y-35125D01*
G37*
G36*
X46620Y-38465D02*
X46619Y-38545D01*
X46602Y-38618D01*
X46574Y-38682D01*
X46530Y-38744D01*
X46480Y-38792D01*
X46416Y-38832D01*
X46351Y-38857D01*
X46276Y-38870D01*
X46207Y-38869D01*
X46133Y-38853D01*
X46069Y-38825D01*
X46007Y-38782D01*
X45959Y-38732D01*
X45918Y-38668D01*
X45892Y-38604D01*
X45879Y-38529D01*
X45880Y-38460D01*
X45895Y-38385D01*
X45923Y-38322D01*
X45966Y-38259D01*
X46015Y-38211D01*
X46079Y-38169D01*
X46143Y-38143D01*
X46218Y-38129D01*
X46287Y-38129D01*
X46361Y-38145D01*
X46425Y-38171D01*
X46488Y-38214D01*
X46537Y-38263D01*
X46579Y-38327D01*
X46605Y-38390D01*
X46620Y-38465D01*
X46620Y-38465D01*
G37*
G36*
X47270Y-27395D02*
X46879Y-27395D01*
X46879Y-26804D01*
X47270Y-26804D01*
X47270Y-27395D01*
X47270Y-27395D01*
G37*
G36*
X47270Y-28295D02*
X46879Y-28295D01*
X46879Y-27704D01*
X47270Y-27704D01*
X47270Y-28295D01*
X47270Y-28295D01*
G37*
G36*
X47595Y-13620D02*
X47004Y-13620D01*
X47004Y-13229D01*
X47595Y-13229D01*
X47595Y-13620D01*
X47595Y-13620D01*
G37*
G36*
X47595Y-14370D02*
X47004Y-14370D01*
X47004Y-13979D01*
X47595Y-13979D01*
X47595Y-14370D01*
X47595Y-14370D01*
G37*
G36*
X47620Y-38870D02*
X46879Y-38870D01*
X46879Y-38129D01*
X47620Y-38129D01*
X47620Y-38870D01*
X47620Y-38870D01*
G37*
G36*
X47645Y-22057D02*
X47643Y-22154D01*
X47623Y-22242D01*
X47589Y-22319D01*
X47537Y-22393D01*
X47476Y-22451D01*
X47400Y-22499D01*
X47321Y-22530D01*
X47232Y-22546D01*
X47148Y-22544D01*
X47060Y-22524D01*
X46983Y-22491D01*
X46908Y-22439D01*
X46850Y-22379D01*
X46801Y-22302D01*
X46770Y-22224D01*
X46754Y-22135D01*
X46755Y-22051D01*
X46774Y-21963D01*
X46807Y-21886D01*
X46858Y-21811D01*
X46918Y-21752D01*
X46994Y-21702D01*
X47071Y-21671D01*
X47161Y-21654D01*
X47244Y-21654D01*
X47334Y-21673D01*
X47411Y-21705D01*
X47486Y-21756D01*
X47545Y-21815D01*
X47595Y-21891D01*
X47627Y-21968D01*
X47645Y-22057D01*
X47645Y-22057D01*
G37*
G36*
X47645Y-16945D02*
X46754Y-16945D01*
X46754Y-16054D01*
X47645Y-16054D01*
X47645Y-16945D01*
X47645Y-16945D01*
G37*
G36*
X47745Y-12357D02*
X47743Y-12454D01*
X47723Y-12542D01*
X47689Y-12619D01*
X47637Y-12693D01*
X47576Y-12751D01*
X47500Y-12799D01*
X47421Y-12830D01*
X47332Y-12846D01*
X47248Y-12844D01*
X47160Y-12824D01*
X47083Y-12791D01*
X47008Y-12739D01*
X46950Y-12679D01*
X46901Y-12602D01*
X46870Y-12524D01*
X46854Y-12435D01*
X46855Y-12351D01*
X46874Y-12263D01*
X46907Y-12186D01*
X46958Y-12111D01*
X47018Y-12052D01*
X47094Y-12002D01*
X47171Y-11971D01*
X47261Y-11954D01*
X47344Y-11954D01*
X47434Y-11973D01*
X47511Y-12005D01*
X47586Y-12056D01*
X47645Y-12115D01*
X47695Y-12191D01*
X47727Y-12268D01*
X47745Y-12357D01*
X47745Y-12357D01*
G37*
G36*
X47745Y-7245D02*
X46854Y-7245D01*
X46854Y-6354D01*
X47745Y-6354D01*
X47745Y-7245D01*
X47745Y-7245D01*
G37*
G36*
X48020Y-27395D02*
X47629Y-27395D01*
X47629Y-26804D01*
X48020Y-26804D01*
X48020Y-27395D01*
X48020Y-27395D01*
G37*
G36*
X48020Y-28295D02*
X47629Y-28295D01*
X47629Y-27704D01*
X48020Y-27704D01*
X48020Y-28295D01*
X48020Y-28295D01*
G37*
G36*
X48320Y-31720D02*
X47579Y-31720D01*
X47579Y-30979D01*
X48320Y-30979D01*
X48320Y-31720D01*
X48320Y-31720D01*
G37*
G36*
X48620Y-38465D02*
X48619Y-38545D01*
X48602Y-38618D01*
X48574Y-38682D01*
X48530Y-38744D01*
X48480Y-38792D01*
X48416Y-38832D01*
X48351Y-38857D01*
X48276Y-38870D01*
X48207Y-38869D01*
X48133Y-38853D01*
X48069Y-38825D01*
X48007Y-38782D01*
X47959Y-38732D01*
X47918Y-38668D01*
X47892Y-38604D01*
X47879Y-38529D01*
X47880Y-38460D01*
X47895Y-38385D01*
X47923Y-38322D01*
X47966Y-38259D01*
X48015Y-38211D01*
X48079Y-38169D01*
X48143Y-38143D01*
X48218Y-38129D01*
X48287Y-38129D01*
X48361Y-38145D01*
X48425Y-38171D01*
X48488Y-38214D01*
X48537Y-38263D01*
X48579Y-38327D01*
X48605Y-38390D01*
X48620Y-38465D01*
X48620Y-38465D01*
G37*
G36*
X50214Y-7879D02*
X49385Y-7879D01*
X49385Y-7051D01*
X50214Y-7051D01*
X50214Y-7879D01*
X50214Y-7879D01*
G37*
G36*
X50233Y-8802D02*
X50232Y-8896D01*
X50212Y-8982D01*
X50179Y-9057D01*
X50128Y-9129D01*
X50069Y-9185D01*
X49995Y-9232D01*
X49918Y-9262D01*
X49831Y-9277D01*
X49749Y-9276D01*
X49663Y-9257D01*
X49588Y-9224D01*
X49516Y-9174D01*
X49459Y-9115D01*
X49411Y-9040D01*
X49381Y-8964D01*
X49365Y-8878D01*
X49366Y-8796D01*
X49385Y-8709D01*
X49417Y-8634D01*
X49467Y-8561D01*
X49525Y-8504D01*
X49599Y-8456D01*
X49675Y-8425D01*
X49762Y-8409D01*
X49843Y-8409D01*
X49930Y-8427D01*
X50005Y-8459D01*
X50079Y-8508D01*
X50136Y-8566D01*
X50185Y-8640D01*
X50216Y-8715D01*
X50233Y-8802D01*
X50233Y-8802D01*
G37*
G36*
X50233Y-10180D02*
X50232Y-10274D01*
X50212Y-10360D01*
X50179Y-10435D01*
X50128Y-10507D01*
X50069Y-10563D01*
X49995Y-10610D01*
X49918Y-10640D01*
X49831Y-10655D01*
X49749Y-10654D01*
X49663Y-10635D01*
X49588Y-10602D01*
X49516Y-10551D01*
X49459Y-10493D01*
X49411Y-10418D01*
X49381Y-10342D01*
X49365Y-10256D01*
X49366Y-10174D01*
X49385Y-10087D01*
X49417Y-10012D01*
X49467Y-9939D01*
X49525Y-9882D01*
X49599Y-9834D01*
X49675Y-9803D01*
X49762Y-9787D01*
X49843Y-9787D01*
X49930Y-9805D01*
X50005Y-9837D01*
X50079Y-9886D01*
X50136Y-9944D01*
X50185Y-10018D01*
X50216Y-10093D01*
X50233Y-10180D01*
X50233Y-10180D01*
G37*
G36*
X50233Y-11558D02*
X50232Y-11652D01*
X50212Y-11738D01*
X50179Y-11813D01*
X50128Y-11884D01*
X50069Y-11941D01*
X49995Y-11988D01*
X49918Y-12018D01*
X49831Y-12033D01*
X49749Y-12031D01*
X49663Y-12013D01*
X49588Y-11980D01*
X49516Y-11929D01*
X49459Y-11871D01*
X49411Y-11796D01*
X49381Y-11720D01*
X49365Y-11633D01*
X49366Y-11552D01*
X49385Y-11465D01*
X49417Y-11390D01*
X49467Y-11317D01*
X49525Y-11260D01*
X49599Y-11212D01*
X49675Y-11181D01*
X49762Y-11165D01*
X49843Y-11165D01*
X49930Y-11183D01*
X50005Y-11215D01*
X50079Y-11264D01*
X50136Y-11322D01*
X50185Y-11396D01*
X50216Y-11471D01*
X50233Y-11558D01*
X50233Y-11558D01*
G37*
G36*
X50233Y-12936D02*
X50232Y-13030D01*
X50212Y-13116D01*
X50179Y-13191D01*
X50128Y-13262D01*
X50069Y-13319D01*
X49995Y-13366D01*
X49918Y-13396D01*
X49831Y-13411D01*
X49749Y-13409D01*
X49663Y-13390D01*
X49588Y-13358D01*
X49516Y-13307D01*
X49459Y-13249D01*
X49411Y-13174D01*
X49381Y-13098D01*
X49365Y-13011D01*
X49366Y-12930D01*
X49385Y-12843D01*
X49417Y-12768D01*
X49467Y-12695D01*
X49525Y-12638D01*
X49599Y-12590D01*
X49675Y-12559D01*
X49762Y-12543D01*
X49843Y-12543D01*
X49930Y-12561D01*
X50005Y-12593D01*
X50079Y-12642D01*
X50136Y-12700D01*
X50185Y-12774D01*
X50216Y-12849D01*
X50233Y-12936D01*
X50233Y-12936D01*
G37*
G36*
X50233Y-14314D02*
X50232Y-14408D01*
X50212Y-14493D01*
X50179Y-14569D01*
X50128Y-14640D01*
X50069Y-14697D01*
X49995Y-14744D01*
X49918Y-14774D01*
X49831Y-14789D01*
X49749Y-14787D01*
X49663Y-14768D01*
X49588Y-14736D01*
X49516Y-14685D01*
X49459Y-14626D01*
X49411Y-14552D01*
X49381Y-14476D01*
X49365Y-14389D01*
X49366Y-14308D01*
X49385Y-14221D01*
X49417Y-14146D01*
X49467Y-14073D01*
X49525Y-14016D01*
X49599Y-13968D01*
X49675Y-13937D01*
X49762Y-13921D01*
X49843Y-13921D01*
X49930Y-13939D01*
X50005Y-13970D01*
X50079Y-14020D01*
X50136Y-14078D01*
X50185Y-14152D01*
X50216Y-14227D01*
X50233Y-14314D01*
X50233Y-14314D01*
G37*
G36*
X50233Y-15692D02*
X50232Y-15786D01*
X50212Y-15871D01*
X50179Y-15946D01*
X50128Y-16018D01*
X50069Y-16075D01*
X49995Y-16122D01*
X49918Y-16152D01*
X49831Y-16167D01*
X49749Y-16165D01*
X49663Y-16146D01*
X49588Y-16114D01*
X49516Y-16063D01*
X49459Y-16004D01*
X49411Y-15930D01*
X49381Y-15854D01*
X49365Y-15767D01*
X49366Y-15686D01*
X49385Y-15599D01*
X49417Y-15524D01*
X49467Y-15451D01*
X49525Y-15394D01*
X49599Y-15346D01*
X49675Y-15315D01*
X49762Y-15299D01*
X49843Y-15299D01*
X49930Y-15317D01*
X50005Y-15348D01*
X50079Y-15398D01*
X50136Y-15456D01*
X50185Y-15530D01*
X50216Y-15605D01*
X50233Y-15692D01*
X50233Y-15692D01*
G37*
G36*
X50233Y-17069D02*
X50232Y-17164D01*
X50212Y-17249D01*
X50179Y-17324D01*
X50128Y-17396D01*
X50069Y-17453D01*
X49995Y-17500D01*
X49918Y-17530D01*
X49831Y-17545D01*
X49749Y-17543D01*
X49663Y-17524D01*
X49588Y-17492D01*
X49516Y-17441D01*
X49459Y-17382D01*
X49411Y-17308D01*
X49381Y-17232D01*
X49365Y-17145D01*
X49366Y-17064D01*
X49385Y-16977D01*
X49417Y-16902D01*
X49467Y-16829D01*
X49525Y-16772D01*
X49599Y-16724D01*
X49675Y-16693D01*
X49762Y-16676D01*
X49843Y-16677D01*
X49930Y-16695D01*
X50005Y-16726D01*
X50079Y-16776D01*
X50136Y-16834D01*
X50185Y-16908D01*
X50216Y-16983D01*
X50233Y-17069D01*
X50233Y-17069D01*
G37*
G36*
X50233Y-18447D02*
X50232Y-18542D01*
X50212Y-18627D01*
X50179Y-18702D01*
X50128Y-18774D01*
X50069Y-18831D01*
X49995Y-18878D01*
X49918Y-18908D01*
X49831Y-18923D01*
X49749Y-18921D01*
X49663Y-18902D01*
X49588Y-18870D01*
X49516Y-18819D01*
X49459Y-18760D01*
X49411Y-18686D01*
X49381Y-18610D01*
X49365Y-18523D01*
X49366Y-18442D01*
X49385Y-18355D01*
X49417Y-18280D01*
X49467Y-18207D01*
X49525Y-18150D01*
X49599Y-18102D01*
X49675Y-18071D01*
X49762Y-18054D01*
X49843Y-18055D01*
X49930Y-18073D01*
X50005Y-18104D01*
X50079Y-18154D01*
X50136Y-18212D01*
X50185Y-18286D01*
X50216Y-18361D01*
X50233Y-18447D01*
X50233Y-18447D01*
G37*
G36*
X50233Y-19825D02*
X50232Y-19920D01*
X50212Y-20005D01*
X50179Y-20080D01*
X50128Y-20152D01*
X50069Y-20209D01*
X49995Y-20256D01*
X49918Y-20286D01*
X49831Y-20301D01*
X49749Y-20299D01*
X49663Y-20280D01*
X49588Y-20247D01*
X49516Y-20197D01*
X49459Y-20138D01*
X49411Y-20064D01*
X49381Y-19988D01*
X49365Y-19901D01*
X49366Y-19820D01*
X49385Y-19733D01*
X49417Y-19658D01*
X49467Y-19585D01*
X49525Y-19528D01*
X49599Y-19480D01*
X49675Y-19449D01*
X49762Y-19432D01*
X49843Y-19433D01*
X49930Y-19451D01*
X50005Y-19482D01*
X50079Y-19532D01*
X50136Y-19590D01*
X50185Y-19664D01*
X50216Y-19739D01*
X50233Y-19825D01*
X50233Y-19825D01*
G37*
G36*
X50233Y-21203D02*
X50232Y-21298D01*
X50212Y-21383D01*
X50179Y-21458D01*
X50128Y-21530D01*
X50069Y-21587D01*
X49995Y-21634D01*
X49918Y-21664D01*
X49831Y-21679D01*
X49749Y-21677D01*
X49663Y-21658D01*
X49588Y-21625D01*
X49516Y-21575D01*
X49459Y-21516D01*
X49411Y-21442D01*
X49381Y-21366D01*
X49365Y-21279D01*
X49366Y-21198D01*
X49385Y-21111D01*
X49417Y-21036D01*
X49467Y-20963D01*
X49525Y-20906D01*
X49599Y-20857D01*
X49675Y-20827D01*
X49762Y-20810D01*
X49843Y-20811D01*
X49930Y-20829D01*
X50005Y-20860D01*
X50079Y-20910D01*
X50136Y-20968D01*
X50185Y-21042D01*
X50216Y-21117D01*
X50233Y-21203D01*
X50233Y-21203D01*
G37*
G36*
X50233Y-22581D02*
X50232Y-22676D01*
X50212Y-22761D01*
X50179Y-22836D01*
X50128Y-22908D01*
X50069Y-22965D01*
X49995Y-23012D01*
X49918Y-23042D01*
X49831Y-23057D01*
X49749Y-23055D01*
X49663Y-23036D01*
X49588Y-23003D01*
X49516Y-22953D01*
X49459Y-22894D01*
X49411Y-22820D01*
X49381Y-22744D01*
X49365Y-22657D01*
X49366Y-22575D01*
X49385Y-22489D01*
X49417Y-22414D01*
X49467Y-22341D01*
X49525Y-22284D01*
X49599Y-22235D01*
X49675Y-22205D01*
X49762Y-22188D01*
X49843Y-22189D01*
X49930Y-22207D01*
X50005Y-22238D01*
X50079Y-22288D01*
X50136Y-22346D01*
X50185Y-22420D01*
X50216Y-22495D01*
X50233Y-22581D01*
X50233Y-22581D01*
G37*
G36*
X50233Y-23959D02*
X50232Y-24053D01*
X50212Y-24139D01*
X50179Y-24214D01*
X50128Y-24286D01*
X50069Y-24343D01*
X49995Y-24390D01*
X49918Y-24419D01*
X49831Y-24435D01*
X49749Y-24433D01*
X49663Y-24414D01*
X49588Y-24381D01*
X49516Y-24331D01*
X49459Y-24272D01*
X49411Y-24198D01*
X49381Y-24122D01*
X49365Y-24035D01*
X49366Y-23953D01*
X49385Y-23867D01*
X49417Y-23792D01*
X49467Y-23719D01*
X49525Y-23662D01*
X49599Y-23613D01*
X49675Y-23583D01*
X49762Y-23566D01*
X49843Y-23567D01*
X49930Y-23585D01*
X50005Y-23616D01*
X50079Y-23666D01*
X50136Y-23723D01*
X50185Y-23797D01*
X50216Y-23873D01*
X50233Y-23959D01*
X50233Y-23959D01*
G37*
G36*
X50233Y-25337D02*
X50232Y-25431D01*
X50212Y-25517D01*
X50179Y-25592D01*
X50128Y-25664D01*
X50069Y-25721D01*
X49995Y-25768D01*
X49918Y-25797D01*
X49831Y-25813D01*
X49749Y-25811D01*
X49663Y-25792D01*
X49588Y-25759D01*
X49516Y-25709D01*
X49459Y-25650D01*
X49411Y-25576D01*
X49381Y-25500D01*
X49365Y-25413D01*
X49366Y-25331D01*
X49385Y-25245D01*
X49417Y-25170D01*
X49467Y-25097D01*
X49525Y-25040D01*
X49599Y-24991D01*
X49675Y-24961D01*
X49762Y-24944D01*
X49843Y-24945D01*
X49930Y-24963D01*
X50005Y-24994D01*
X50079Y-25044D01*
X50136Y-25101D01*
X50185Y-25175D01*
X50216Y-25250D01*
X50233Y-25337D01*
X50233Y-25337D01*
G37*
G36*
X50233Y-26715D02*
X50232Y-26809D01*
X50212Y-26895D01*
X50179Y-26970D01*
X50128Y-27042D01*
X50069Y-27099D01*
X49995Y-27146D01*
X49918Y-27175D01*
X49831Y-27191D01*
X49749Y-27189D01*
X49663Y-27170D01*
X49588Y-27137D01*
X49516Y-27087D01*
X49459Y-27028D01*
X49411Y-26954D01*
X49381Y-26878D01*
X49365Y-26791D01*
X49366Y-26709D01*
X49385Y-26623D01*
X49417Y-26548D01*
X49467Y-26475D01*
X49525Y-26418D01*
X49599Y-26369D01*
X49675Y-26339D01*
X49762Y-26322D01*
X49843Y-26323D01*
X49930Y-26341D01*
X50005Y-26372D01*
X50079Y-26422D01*
X50136Y-26479D01*
X50185Y-26553D01*
X50216Y-26628D01*
X50233Y-26715D01*
X50233Y-26715D01*
G37*
G36*
X50233Y-28093D02*
X50232Y-28187D01*
X50212Y-28273D01*
X50179Y-28348D01*
X50128Y-28420D01*
X50069Y-28477D01*
X49995Y-28524D01*
X49918Y-28553D01*
X49831Y-28569D01*
X49749Y-28567D01*
X49663Y-28548D01*
X49588Y-28515D01*
X49516Y-28465D01*
X49459Y-28406D01*
X49411Y-28332D01*
X49381Y-28256D01*
X49365Y-28169D01*
X49366Y-28087D01*
X49385Y-28001D01*
X49417Y-27926D01*
X49467Y-27853D01*
X49525Y-27796D01*
X49599Y-27747D01*
X49675Y-27717D01*
X49762Y-27700D01*
X49843Y-27701D01*
X49930Y-27719D01*
X50005Y-27750D01*
X50079Y-27800D01*
X50136Y-27857D01*
X50185Y-27931D01*
X50216Y-28006D01*
X50233Y-28093D01*
X50233Y-28093D01*
G37*
G36*
X50295Y-38570D02*
X49704Y-38570D01*
X49704Y-38179D01*
X50295Y-38179D01*
X50295Y-38570D01*
X50295Y-38570D01*
G37*
G36*
X50295Y-39320D02*
X49704Y-39320D01*
X49704Y-38929D01*
X50295Y-38929D01*
X50295Y-39320D01*
X50295Y-39320D01*
G37*
G36*
X50320Y-31315D02*
X50319Y-31395D01*
X50302Y-31468D01*
X50274Y-31532D01*
X50230Y-31594D01*
X50180Y-31642D01*
X50116Y-31682D01*
X50051Y-31707D01*
X49976Y-31720D01*
X49907Y-31719D01*
X49833Y-31703D01*
X49769Y-31675D01*
X49707Y-31632D01*
X49659Y-31582D01*
X49618Y-31518D01*
X49592Y-31454D01*
X49579Y-31379D01*
X49580Y-31310D01*
X49595Y-31235D01*
X49623Y-31172D01*
X49666Y-31109D01*
X49715Y-31061D01*
X49779Y-31019D01*
X49843Y-30993D01*
X49918Y-30979D01*
X49987Y-30979D01*
X50061Y-30995D01*
X50125Y-31021D01*
X50188Y-31064D01*
X50237Y-31113D01*
X50279Y-31177D01*
X50305Y-31240D01*
X50320Y-31315D01*
X50320Y-31315D01*
G37*
G36*
X51595Y-33120D02*
X51004Y-33120D01*
X51004Y-32729D01*
X51595Y-32729D01*
X51595Y-33120D01*
X51595Y-33120D01*
G37*
G36*
X51595Y-33870D02*
X51004Y-33870D01*
X51004Y-33479D01*
X51595Y-33479D01*
X51595Y-33870D01*
X51595Y-33870D01*
G37*
G36*
X51825Y-34637D02*
X51823Y-34734D01*
X51803Y-34822D01*
X51769Y-34899D01*
X51717Y-34973D01*
X51656Y-35031D01*
X51580Y-35079D01*
X51501Y-35110D01*
X51412Y-35126D01*
X51328Y-35124D01*
X51240Y-35104D01*
X51163Y-35071D01*
X51088Y-35019D01*
X51030Y-34959D01*
X50981Y-34882D01*
X50950Y-34804D01*
X50934Y-34715D01*
X50935Y-34631D01*
X50954Y-34543D01*
X50987Y-34466D01*
X51038Y-34391D01*
X51098Y-34332D01*
X51174Y-34282D01*
X51251Y-34251D01*
X51341Y-34234D01*
X51424Y-34234D01*
X51514Y-34253D01*
X51591Y-34285D01*
X51666Y-34336D01*
X51725Y-34395D01*
X51775Y-34471D01*
X51807Y-34548D01*
X51825Y-34637D01*
X51825Y-34637D01*
G37*
G36*
X53320Y-6421D02*
X53317Y-6601D01*
X53281Y-6761D01*
X53217Y-6905D01*
X53122Y-7039D01*
X53008Y-7148D01*
X52870Y-7236D01*
X52723Y-7293D01*
X52561Y-7321D01*
X52403Y-7318D01*
X52243Y-7283D01*
X52099Y-7220D01*
X51964Y-7126D01*
X51855Y-7013D01*
X51766Y-6875D01*
X51708Y-6728D01*
X51678Y-6567D01*
X51680Y-6409D01*
X51714Y-6249D01*
X51776Y-6104D01*
X51869Y-5968D01*
X51982Y-5858D01*
X52119Y-5768D01*
X52265Y-5709D01*
X52427Y-5679D01*
X52584Y-5680D01*
X52745Y-5713D01*
X52890Y-5774D01*
X53026Y-5866D01*
X53137Y-5977D01*
X53228Y-6114D01*
X53288Y-6259D01*
X53320Y-6421D01*
X53320Y-6421D01*
G37*
G36*
X53320Y-39421D02*
X53317Y-39601D01*
X53281Y-39761D01*
X53217Y-39905D01*
X53122Y-40039D01*
X53008Y-40148D01*
X52870Y-40236D01*
X52723Y-40293D01*
X52561Y-40321D01*
X52403Y-40318D01*
X52243Y-40283D01*
X52099Y-40220D01*
X51964Y-40126D01*
X51855Y-40013D01*
X51766Y-39875D01*
X51708Y-39728D01*
X51678Y-39567D01*
X51680Y-39409D01*
X51714Y-39249D01*
X51776Y-39104D01*
X51869Y-38968D01*
X51982Y-38858D01*
X52119Y-38768D01*
X52265Y-38709D01*
X52427Y-38679D01*
X52584Y-38680D01*
X52745Y-38713D01*
X52890Y-38774D01*
X53026Y-38866D01*
X53137Y-38977D01*
X53228Y-39114D01*
X53288Y-39259D01*
X53320Y-39421D01*
X53320Y-39421D01*
G37*
M02*
