G04 (created by PCBNEW (2013-mar-13)-testing) date Sun 04 Aug 2013 11:03:18 AM EDT*
%MOIN*%
G04 Gerber Fmt 3.4, Leading zero omitted, Abs format*
%FSLAX34Y34*%
G01*
G70*
G90*
G04 APERTURE LIST*
%ADD10C,0.005906*%
%ADD11R,0.055118X0.055118*%
%ADD12C,0.055118*%
%ADD13C,0.062992*%
%ADD14C,0.135000*%
%ADD15C,0.150000*%
%ADD16R,0.060000X0.060000*%
%ADD17C,0.060000*%
%ADD18R,0.070000X0.070000*%
%ADD19C,0.070000*%
%ADD20R,0.078740X0.078740*%
%ADD21C,0.082677*%
%ADD22C,0.175000*%
%ADD23C,0.055000*%
%ADD24R,0.055000X0.055000*%
%ADD25R,0.098425X0.098425*%
%ADD26C,0.098425*%
%ADD27C,0.059100*%
%ADD28O,0.212598X0.366142*%
%ADD29C,0.030000*%
%ADD30C,0.080300*%
%ADD31R,0.080300X0.080300*%
%ADD32C,0.140000*%
%ADD33C,0.160000*%
%ADD34C,0.035000*%
%ADD35C,0.050000*%
%ADD36C,0.030000*%
%ADD37C,0.100000*%
%ADD38C,0.020000*%
%ADD39C,0.075000*%
%ADD40C,0.010000*%
%ADD41C,0.015000*%
G04 APERTURE END LIST*
G54D10*
G54D11*
X45592Y-18674D03*
G54D12*
X44607Y-18674D03*
X45592Y-17100D03*
X44607Y-17100D03*
X45592Y-16312D03*
X44607Y-16312D03*
X45592Y-15525D03*
X44607Y-15525D03*
G54D13*
X45100Y-19501D03*
X45100Y-14698D03*
G54D14*
X8559Y-27500D03*
X12300Y-24192D03*
X12300Y-30807D03*
X15607Y-27500D03*
X15607Y-25964D03*
X15607Y-29035D03*
X7024Y-27500D03*
X10095Y-27500D03*
G54D15*
X27100Y-38100D03*
X36950Y-38100D03*
G54D16*
X34150Y-37550D03*
G54D17*
X33100Y-37550D03*
X32000Y-37550D03*
X30950Y-37550D03*
X29850Y-37550D03*
X33650Y-38650D03*
X32550Y-38650D03*
X31500Y-38650D03*
X30400Y-38650D03*
G54D11*
X21675Y-38242D03*
G54D12*
X21675Y-37257D03*
X23250Y-38242D03*
X23250Y-37257D03*
X24037Y-38242D03*
X24037Y-37257D03*
X24824Y-38242D03*
X24824Y-37257D03*
G54D13*
X20848Y-37750D03*
X25651Y-37750D03*
G54D16*
X48000Y-6300D03*
G54D17*
X49000Y-6300D03*
X50000Y-6300D03*
X51000Y-6300D03*
G54D18*
X41800Y-27300D03*
G54D19*
X41800Y-29300D03*
G54D18*
X40800Y-31800D03*
G54D19*
X40800Y-33800D03*
G54D18*
X40800Y-22800D03*
G54D19*
X40800Y-24800D03*
G54D18*
X40800Y-18300D03*
G54D19*
X40800Y-20300D03*
G54D18*
X40800Y-9300D03*
G54D19*
X40800Y-11300D03*
G54D18*
X40800Y-13800D03*
G54D19*
X40800Y-15800D03*
G54D20*
X53700Y-23366D03*
G54D21*
X53700Y-21988D03*
X53700Y-20611D03*
X53700Y-19233D03*
G54D20*
X53700Y-31116D03*
G54D21*
X53700Y-29738D03*
X53700Y-28361D03*
X53700Y-26983D03*
G54D20*
X14683Y-38250D03*
G54D21*
X16061Y-38250D03*
X17438Y-38250D03*
X18816Y-38250D03*
G54D20*
X53700Y-40266D03*
G54D21*
X53700Y-38888D03*
X53700Y-37511D03*
X53700Y-36133D03*
G54D20*
X44588Y-40900D03*
G54D21*
X43211Y-40900D03*
G54D20*
X53700Y-10738D03*
G54D21*
X53700Y-9361D03*
G54D20*
X53700Y-15238D03*
G54D21*
X53700Y-13861D03*
G54D16*
X43800Y-6300D03*
G54D17*
X44800Y-6300D03*
X45800Y-6300D03*
G54D19*
X41100Y-36600D03*
G54D18*
X42100Y-36600D03*
G54D19*
X43100Y-36600D03*
G54D16*
X23500Y-8000D03*
G54D17*
X23500Y-7000D03*
X24500Y-8000D03*
X24500Y-7000D03*
X25500Y-8000D03*
X25500Y-7000D03*
X26500Y-8000D03*
X26500Y-7000D03*
G54D16*
X28500Y-8000D03*
G54D17*
X28500Y-7000D03*
X29500Y-8000D03*
X29500Y-7000D03*
X30500Y-8000D03*
X30500Y-7000D03*
X31500Y-8000D03*
X31500Y-7000D03*
X32500Y-8000D03*
X32500Y-7000D03*
X33500Y-8000D03*
X33500Y-7000D03*
X34500Y-8000D03*
X34500Y-7000D03*
X35500Y-8000D03*
X35500Y-7000D03*
G54D22*
X7000Y-42000D03*
X56000Y-7000D03*
X56000Y-42000D03*
X7000Y-7000D03*
G54D23*
X37400Y-35100D03*
G54D24*
X37400Y-36100D03*
X21400Y-36100D03*
G54D23*
X21400Y-35100D03*
X21400Y-34100D03*
X21400Y-33100D03*
X21400Y-32100D03*
X21400Y-31100D03*
X21400Y-8100D03*
X21400Y-7100D03*
X37400Y-8100D03*
X37400Y-7100D03*
G54D25*
X12750Y-11990D03*
X12750Y-13572D03*
G54D26*
X8750Y-15990D03*
X8750Y-17572D03*
X12750Y-19927D03*
X12750Y-21509D03*
G54D17*
X13250Y-9500D03*
X8750Y-9500D03*
G54D19*
X15000Y-13552D03*
X15000Y-7647D03*
G54D27*
X23813Y-18800D03*
X23813Y-19552D03*
X23813Y-18048D03*
G54D28*
X15387Y-20886D03*
X15387Y-16713D03*
G54D29*
X14700Y-16300D03*
X14700Y-16800D03*
X14700Y-17300D03*
X14800Y-17800D03*
X15100Y-18200D03*
X15600Y-18200D03*
X16100Y-17900D03*
X16100Y-17300D03*
X16100Y-16800D03*
X16100Y-16300D03*
X16100Y-15800D03*
X15100Y-15400D03*
X15600Y-15400D03*
X14800Y-15800D03*
X15100Y-19400D03*
X15600Y-19400D03*
X14700Y-20800D03*
X14700Y-20300D03*
X14800Y-19800D03*
X16000Y-19800D03*
X16100Y-20300D03*
X16100Y-20800D03*
X16100Y-21300D03*
X16100Y-21800D03*
X14700Y-21300D03*
X14700Y-21800D03*
X15100Y-22200D03*
X15600Y-22200D03*
G54D30*
X40500Y-6100D03*
G54D31*
X41500Y-7100D03*
G54D30*
X39500Y-7100D03*
G54D32*
X56250Y-12250D03*
X56250Y-17250D03*
X56250Y-25250D03*
X56250Y-33500D03*
G54D16*
X17500Y-8500D03*
G54D17*
X17500Y-7500D03*
X18500Y-8500D03*
X18500Y-7500D03*
X19500Y-8500D03*
X19500Y-7500D03*
G54D33*
X20580Y-12860D03*
X38220Y-29800D03*
G54D34*
X12900Y-41200D03*
X9570Y-34310D03*
X18200Y-32000D03*
X47950Y-16050D03*
X47700Y-41700D03*
X47950Y-32550D03*
X27000Y-17600D03*
X32400Y-17600D03*
X27500Y-8000D03*
X25100Y-18000D03*
X39700Y-35900D03*
X39700Y-36600D03*
X35300Y-31500D03*
X30250Y-28350D03*
X35625Y-24500D03*
X31150Y-18675D03*
X32430Y-31560D03*
X44800Y-38000D03*
X43200Y-18800D03*
X16600Y-19200D03*
X18200Y-19200D03*
X19600Y-19200D03*
X18950Y-19850D03*
X17450Y-19850D03*
X14200Y-24400D03*
X15200Y-24350D03*
X15950Y-24350D03*
X17450Y-24350D03*
X18950Y-24350D03*
X19700Y-23600D03*
X18200Y-23600D03*
X16700Y-23600D03*
X16700Y-20600D03*
X18200Y-20600D03*
X19700Y-20600D03*
X18950Y-21350D03*
X17450Y-21350D03*
X14200Y-21400D03*
X16700Y-22100D03*
X18200Y-22100D03*
X19700Y-22100D03*
X18950Y-22850D03*
X17450Y-22850D03*
X15950Y-22850D03*
X15200Y-22850D03*
X14200Y-22800D03*
X14450Y-23600D03*
X19700Y-29600D03*
X18200Y-29600D03*
X16700Y-29600D03*
X17450Y-28850D03*
X18950Y-28850D03*
X19700Y-28100D03*
X18200Y-28100D03*
X16700Y-28100D03*
X17450Y-27350D03*
X18950Y-27350D03*
X19700Y-26600D03*
X18200Y-26600D03*
X16700Y-26600D03*
X17450Y-25850D03*
X18950Y-25850D03*
X19700Y-25100D03*
X18200Y-25100D03*
X16700Y-25100D03*
X14450Y-25100D03*
X14200Y-25800D03*
X14450Y-26600D03*
X14200Y-27400D03*
X14450Y-28100D03*
X14200Y-28800D03*
X14450Y-29600D03*
X8000Y-14250D03*
X9500Y-14250D03*
X8750Y-13500D03*
X8000Y-12750D03*
X9500Y-12750D03*
X8750Y-12000D03*
X8000Y-11250D03*
X9500Y-11250D03*
X8750Y-10500D03*
X8000Y-9750D03*
X8000Y-9000D03*
X9500Y-9000D03*
X9500Y-9750D03*
X13500Y-16500D03*
X16500Y-15000D03*
X18000Y-15000D03*
X19500Y-15000D03*
X18750Y-15750D03*
X17250Y-15750D03*
X16500Y-16500D03*
X18000Y-16500D03*
X19500Y-16500D03*
X18750Y-17250D03*
X17250Y-17250D03*
X16500Y-18000D03*
X18000Y-18000D03*
X14250Y-15000D03*
X12750Y-15000D03*
X11250Y-15000D03*
X9750Y-15000D03*
X8250Y-15000D03*
X6750Y-15000D03*
X7500Y-15750D03*
X10500Y-15750D03*
X12000Y-15750D03*
X13500Y-15750D03*
X12750Y-16500D03*
X11250Y-16500D03*
X9750Y-16500D03*
X6750Y-16500D03*
X7500Y-17250D03*
X10500Y-17250D03*
X12000Y-17250D03*
X13500Y-17250D03*
X14250Y-18000D03*
X12750Y-18000D03*
X11250Y-18000D03*
X9750Y-18000D03*
X8250Y-18000D03*
X6750Y-18000D03*
X7500Y-28500D03*
X9000Y-28500D03*
X10500Y-28500D03*
X11000Y-26250D03*
X9750Y-26250D03*
X8250Y-26250D03*
X6750Y-26250D03*
X7500Y-25500D03*
X9000Y-25500D03*
X10500Y-25500D03*
X11000Y-24750D03*
X9750Y-24750D03*
X8250Y-24750D03*
X6750Y-24750D03*
X7500Y-24000D03*
X9000Y-24000D03*
X10500Y-24000D03*
X11000Y-23250D03*
X9750Y-23250D03*
X8250Y-23250D03*
X6750Y-23250D03*
X12000Y-22500D03*
X10500Y-22500D03*
X9000Y-22500D03*
X6750Y-21750D03*
X7500Y-21000D03*
X9000Y-21000D03*
X10500Y-21000D03*
X12000Y-21000D03*
X11250Y-20250D03*
X9750Y-20250D03*
X8250Y-20250D03*
X6750Y-20250D03*
X7500Y-19500D03*
X9000Y-19500D03*
X10500Y-19500D03*
X12000Y-19500D03*
X7500Y-22500D03*
X8250Y-21750D03*
X9750Y-21750D03*
X11250Y-21750D03*
X34800Y-16200D03*
X38200Y-10300D03*
X35300Y-16200D03*
X43770Y-34890D03*
X36600Y-32300D03*
X38300Y-32300D03*
X36200Y-21700D03*
X38800Y-27000D03*
X43500Y-30500D03*
X38400Y-28250D03*
X43300Y-23700D03*
X38000Y-28000D03*
X42600Y-19900D03*
X15250Y-33150D03*
X26900Y-19900D03*
X43500Y-41500D03*
X44000Y-42000D03*
X43000Y-42000D03*
X42000Y-42000D03*
X41000Y-42000D03*
X40500Y-41500D03*
X41500Y-41500D03*
X42500Y-41500D03*
X42000Y-41000D03*
X41000Y-41000D03*
X40500Y-40500D03*
X41500Y-40500D03*
X42500Y-40500D03*
X43600Y-40400D03*
X45700Y-34800D03*
X47200Y-25800D03*
X46450Y-24050D03*
X47450Y-15050D03*
X47250Y-22050D03*
X47250Y-20450D03*
X46500Y-40100D03*
X47200Y-30800D03*
X26900Y-34800D03*
X26200Y-28050D03*
X23150Y-26900D03*
X27250Y-23960D03*
X26265Y-21155D03*
X24050Y-21150D03*
X26550Y-25110D03*
X24300Y-28050D03*
X23800Y-24850D03*
X19700Y-34300D03*
X17030Y-34290D03*
X29860Y-20195D03*
X32200Y-19200D03*
X33325Y-24000D03*
X34200Y-26700D03*
X31820Y-32805D03*
X29000Y-31300D03*
X26920Y-31455D03*
X34500Y-23200D03*
X31500Y-27500D03*
X23150Y-24850D03*
X23100Y-22150D03*
X34000Y-8800D03*
X30500Y-8800D03*
X10300Y-33000D03*
X32520Y-33305D03*
X32420Y-33805D03*
X41950Y-9300D03*
X33620Y-18120D03*
X38200Y-8900D03*
X35100Y-15400D03*
X36450Y-24500D03*
X44000Y-37400D03*
X35050Y-22725D03*
X23775Y-28600D03*
X25600Y-9700D03*
X25100Y-9700D03*
X25600Y-10750D03*
X25050Y-10750D03*
X18500Y-9400D03*
X25250Y-11500D03*
X24700Y-11500D03*
X35800Y-12300D03*
X35400Y-11700D03*
X36950Y-24500D03*
X37450Y-14600D03*
X47100Y-12400D03*
X36700Y-24900D03*
X43600Y-28300D03*
X45500Y-28300D03*
X47100Y-28800D03*
X38800Y-26400D03*
X22600Y-29200D03*
X22900Y-34600D03*
X22900Y-36100D03*
X30300Y-29900D03*
X28800Y-29800D03*
X22200Y-30000D03*
X24500Y-30300D03*
X22600Y-36500D03*
X23200Y-31300D03*
X23200Y-32200D03*
X45200Y-22550D03*
X44700Y-33200D03*
X45000Y-25800D03*
X19000Y-11100D03*
G54D35*
X12900Y-41150D02*
X9570Y-37820D01*
X12900Y-41200D02*
X12900Y-41150D01*
X9570Y-34310D02*
X9570Y-37820D01*
G54D36*
X18200Y-32000D02*
X18250Y-32050D01*
X18250Y-32050D02*
X18250Y-34000D01*
X18250Y-34000D02*
X16500Y-35750D01*
X16500Y-35750D02*
X14750Y-35750D01*
X14750Y-35750D02*
X12947Y-37552D01*
X12947Y-37552D02*
X12947Y-41197D01*
G54D37*
X53700Y-15238D02*
X53511Y-15238D01*
X53511Y-15238D02*
X52700Y-16050D01*
X52700Y-16050D02*
X47950Y-16050D01*
X50883Y-40266D02*
X53700Y-40266D01*
X50883Y-40266D02*
X49450Y-41700D01*
X47700Y-41700D02*
X49450Y-41700D01*
X53633Y-31116D02*
X53700Y-31116D01*
X52450Y-32550D02*
X47950Y-32550D01*
X53633Y-31116D02*
X52450Y-32550D01*
G54D36*
X27000Y-17600D02*
X32400Y-17600D01*
G54D38*
X28500Y-8000D02*
X27500Y-8000D01*
G54D36*
X34700Y-18600D02*
X34700Y-17600D01*
X34700Y-17600D02*
X33400Y-16300D01*
X33400Y-16300D02*
X29400Y-16300D01*
X29400Y-16300D02*
X27500Y-14400D01*
X27500Y-14400D02*
X27500Y-8000D01*
X34700Y-18600D02*
X34700Y-18500D01*
X34700Y-18500D02*
X33300Y-17100D01*
X33300Y-17100D02*
X26800Y-17100D01*
X26800Y-17100D02*
X25900Y-18000D01*
X25900Y-18000D02*
X25100Y-18000D01*
G54D39*
X39700Y-35900D02*
X39700Y-36600D01*
X43100Y-37300D02*
X42700Y-37700D01*
X42700Y-37700D02*
X40800Y-37700D01*
X40800Y-37700D02*
X39700Y-36600D01*
X39700Y-36600D02*
X39700Y-35900D01*
X43100Y-36600D02*
X43100Y-37300D01*
G54D35*
X35300Y-31500D02*
X35300Y-28250D01*
X32430Y-31560D02*
X35240Y-31560D01*
X35240Y-31560D02*
X35300Y-31500D01*
X30500Y-28600D02*
X33425Y-28600D01*
X33425Y-28600D02*
X33950Y-28600D01*
X30250Y-28350D02*
X30500Y-28600D01*
X30250Y-28350D02*
X30250Y-28350D01*
X33950Y-28600D02*
X34950Y-28600D01*
X35625Y-27925D02*
X35625Y-24500D01*
X34950Y-28600D02*
X35300Y-28250D01*
X35300Y-28250D02*
X35625Y-27925D01*
X35625Y-24500D02*
X35650Y-24475D01*
X35650Y-24475D02*
X35650Y-19550D01*
X35650Y-19550D02*
X34700Y-18600D01*
X34700Y-18600D02*
X34800Y-18700D01*
X34750Y-18650D02*
X31175Y-18650D01*
X31175Y-18650D02*
X31150Y-18675D01*
X34800Y-18700D02*
X34750Y-18650D01*
X43200Y-18800D02*
X43200Y-20400D01*
X44100Y-34400D02*
X44800Y-35100D01*
X44800Y-35100D02*
X44800Y-38000D01*
X44100Y-32700D02*
X44100Y-34400D01*
X44400Y-32400D02*
X44100Y-32700D01*
X44400Y-21600D02*
X44400Y-32400D01*
X43200Y-20400D02*
X44400Y-21600D01*
G54D40*
X19600Y-19200D02*
X18200Y-19200D01*
X17450Y-19850D02*
X18950Y-19850D01*
X14200Y-24400D02*
X15200Y-24350D01*
X15950Y-24350D02*
X17450Y-24350D01*
X18950Y-24350D02*
X19700Y-23600D01*
X18200Y-23600D02*
X16700Y-23600D01*
X14450Y-20600D02*
X14000Y-20000D01*
X18200Y-20600D02*
X16700Y-20600D01*
X18950Y-21350D02*
X19700Y-20600D01*
X15950Y-21350D02*
X17450Y-21350D01*
X14200Y-21400D02*
X15200Y-21350D01*
X16700Y-22100D02*
X14450Y-22100D01*
X19700Y-22100D02*
X18200Y-22100D01*
X17450Y-22850D02*
X18950Y-22850D01*
X15200Y-22850D02*
X15950Y-22850D01*
X14450Y-23600D02*
X14200Y-22800D01*
X15607Y-29035D02*
X15014Y-29035D01*
X18200Y-29600D02*
X19700Y-29600D01*
X17450Y-28850D02*
X16700Y-29600D01*
X19700Y-28100D02*
X18950Y-28850D01*
X16700Y-28100D02*
X18200Y-28100D01*
X18950Y-27350D02*
X17450Y-27350D01*
X18200Y-26600D02*
X19700Y-26600D01*
X17450Y-25850D02*
X16700Y-26600D01*
X19700Y-25100D02*
X18950Y-25850D01*
X16700Y-25100D02*
X18200Y-25100D01*
X14200Y-25800D02*
X14450Y-25100D01*
X14200Y-27400D02*
X14450Y-26600D01*
X14200Y-28800D02*
X14450Y-28100D01*
X15014Y-29035D02*
X14450Y-29600D01*
X8750Y-15000D02*
X8000Y-14250D01*
X9500Y-14250D02*
X8750Y-13500D01*
X8000Y-12750D02*
X9500Y-12750D01*
X8750Y-12000D02*
X8000Y-11250D01*
X9500Y-11250D02*
X8750Y-10500D01*
X8000Y-9750D02*
X8000Y-9000D01*
X9500Y-9000D02*
X9500Y-9750D01*
X16500Y-15000D02*
X18000Y-15000D01*
X19500Y-15000D02*
X18750Y-15750D01*
X17250Y-15750D02*
X16500Y-16500D01*
X18000Y-16500D02*
X19500Y-16500D01*
X18750Y-17250D02*
X17250Y-17250D01*
X16500Y-18000D02*
X18000Y-18000D01*
X15387Y-16831D02*
X15387Y-16137D01*
X15387Y-16137D02*
X14250Y-15000D01*
X12750Y-15000D02*
X11250Y-15000D01*
X9750Y-15000D02*
X8250Y-15000D01*
X6750Y-15000D02*
X7500Y-15750D01*
X10500Y-15750D02*
X12000Y-15750D01*
X13500Y-15750D02*
X12750Y-16500D01*
X11250Y-16500D02*
X9750Y-16500D01*
X6750Y-16500D02*
X7500Y-17250D01*
X10500Y-17250D02*
X12000Y-17250D01*
X13500Y-17250D02*
X14250Y-18000D01*
X12750Y-18000D02*
X11250Y-18000D01*
X9750Y-18000D02*
X8250Y-18000D01*
G54D37*
X12750Y-11990D02*
X13437Y-11990D01*
X13437Y-11990D02*
X15000Y-13552D01*
X12750Y-11990D02*
X12750Y-12000D01*
X12750Y-12000D02*
X14322Y-13572D01*
X12750Y-13572D02*
X14322Y-13572D01*
X14322Y-13572D02*
X14979Y-13572D01*
X14979Y-13572D02*
X15000Y-13552D01*
X12750Y-11990D02*
X12750Y-13572D01*
G54D40*
X7024Y-28024D02*
X7024Y-27500D01*
X7500Y-28500D02*
X7024Y-28024D01*
X10500Y-28500D02*
X9000Y-28500D01*
X9750Y-26250D02*
X11000Y-26250D01*
X6750Y-26250D02*
X8250Y-26250D01*
X9000Y-25500D02*
X7500Y-25500D01*
X11000Y-24750D02*
X10500Y-25500D01*
X8250Y-24750D02*
X9750Y-24750D01*
X7500Y-24000D02*
X6750Y-24750D01*
X10500Y-24000D02*
X9000Y-24000D01*
X9750Y-23250D02*
X11000Y-23250D01*
X6750Y-23250D02*
X8250Y-23250D01*
X7500Y-22500D02*
X9000Y-22500D01*
X10500Y-22500D02*
X12000Y-22500D01*
X12750Y-21509D02*
X11490Y-21509D01*
X9000Y-21000D02*
X7500Y-21000D01*
X12000Y-21000D02*
X10500Y-21000D01*
X9750Y-20250D02*
X11250Y-20250D01*
X6750Y-20250D02*
X8250Y-20250D01*
X9000Y-19500D02*
X7500Y-19500D01*
X12000Y-19500D02*
X10500Y-19500D01*
X7500Y-22500D02*
X6750Y-21750D01*
X9750Y-21750D02*
X8250Y-21750D01*
X11490Y-21509D02*
X11250Y-21750D01*
G54D38*
X38200Y-9600D02*
X38200Y-9500D01*
X39350Y-8350D02*
X47450Y-8350D01*
X38200Y-9500D02*
X39350Y-8350D01*
X49000Y-6800D02*
X47450Y-8350D01*
X49000Y-6800D02*
X49000Y-6300D01*
G54D40*
X37800Y-10000D02*
X38200Y-9600D01*
X37800Y-13200D02*
X37800Y-10000D01*
X34800Y-16200D02*
X37800Y-13200D01*
G54D38*
X50000Y-6800D02*
X46300Y-10500D01*
X46300Y-10500D02*
X38400Y-10500D01*
X38400Y-10500D02*
X38200Y-10300D01*
X50000Y-6800D02*
X50000Y-6300D01*
G54D40*
X38200Y-13300D02*
X38200Y-10300D01*
X35300Y-16200D02*
X38200Y-13300D01*
G54D38*
X38300Y-32300D02*
X38500Y-32550D01*
X43690Y-34890D02*
X41350Y-32550D01*
X41350Y-32550D02*
X38500Y-32550D01*
X43770Y-34890D02*
X43690Y-34890D01*
X38275Y-32325D02*
X38300Y-32300D01*
G54D40*
X36200Y-21700D02*
X36100Y-21800D01*
X36100Y-21800D02*
X36100Y-31800D01*
X36100Y-31800D02*
X36600Y-32300D01*
G54D38*
X39200Y-28200D02*
X39575Y-28575D01*
X39200Y-27400D02*
X39200Y-28200D01*
X38800Y-27000D02*
X39200Y-27400D01*
X43500Y-30500D02*
X43500Y-29200D01*
X43500Y-29200D02*
X42875Y-28575D01*
X42875Y-28575D02*
X39575Y-28575D01*
G54D35*
X44607Y-17100D02*
X44600Y-17100D01*
X43900Y-20200D02*
X47066Y-23366D01*
X43900Y-17644D02*
X43900Y-20200D01*
X44600Y-17100D02*
X43900Y-17644D01*
X45592Y-17100D02*
X44607Y-17100D01*
X53700Y-23366D02*
X47066Y-23366D01*
G54D38*
X40599Y-24000D02*
X42999Y-24000D01*
X38400Y-28250D02*
X38400Y-26200D01*
X38400Y-26200D02*
X40599Y-24000D01*
X42999Y-24000D02*
X43300Y-23700D01*
X38075Y-27925D02*
X38075Y-26050D01*
X38000Y-28000D02*
X38075Y-27925D01*
X42600Y-19900D02*
X42300Y-19900D01*
X40600Y-23525D02*
X38075Y-26050D01*
X41100Y-23525D02*
X40600Y-23525D01*
X41525Y-23100D02*
X41100Y-23525D01*
X41525Y-20675D02*
X41525Y-23100D01*
X42300Y-19900D02*
X41525Y-20675D01*
G54D37*
X21400Y-21700D02*
X21400Y-14300D01*
X21400Y-11150D02*
X21400Y-8100D01*
X22100Y-12200D02*
X21400Y-11150D01*
X22100Y-13600D02*
X22100Y-12200D01*
X21400Y-14300D02*
X22100Y-13600D01*
G54D38*
X41500Y-7100D02*
X41500Y-5300D01*
X43800Y-6300D02*
X42800Y-5300D01*
G54D36*
X50050Y-5300D02*
X51000Y-6300D01*
X50050Y-5300D02*
X42800Y-5300D01*
X42800Y-5300D02*
X41500Y-5300D01*
X41500Y-5300D02*
X36550Y-5300D01*
X35900Y-5950D02*
X36550Y-5300D01*
X35900Y-5950D02*
X35900Y-6000D01*
G54D38*
X30500Y-7000D02*
X30500Y-6000D01*
X30500Y-6000D02*
X30500Y-6100D01*
X30500Y-6100D02*
X30500Y-6000D01*
X28500Y-7000D02*
X28500Y-6000D01*
G54D37*
X21400Y-8100D02*
X21800Y-8100D01*
X21800Y-8100D02*
X22400Y-7500D01*
X22400Y-7500D02*
X22400Y-6400D01*
X22400Y-6400D02*
X22800Y-6000D01*
X22800Y-6000D02*
X28500Y-6000D01*
X37100Y-8100D02*
X37400Y-8100D01*
X35900Y-6000D02*
X36500Y-6600D01*
X36500Y-6600D02*
X36500Y-7500D01*
X36500Y-7500D02*
X37100Y-8100D01*
X28500Y-6000D02*
X30500Y-6000D01*
X30500Y-6000D02*
X35900Y-6000D01*
G54D38*
X19500Y-8500D02*
X21400Y-8500D01*
G54D36*
X23100Y-22150D02*
X23100Y-19300D01*
X23600Y-18800D02*
X23813Y-18800D01*
X23100Y-19300D02*
X23600Y-18800D01*
G54D39*
X15250Y-33150D02*
X14642Y-33150D01*
X14642Y-33150D02*
X12300Y-30807D01*
X15900Y-33140D02*
X15260Y-33140D01*
X15260Y-33140D02*
X15250Y-33150D01*
G54D35*
X47200Y-30800D02*
X47200Y-30700D01*
X47200Y-30700D02*
X47800Y-30100D01*
X47800Y-30100D02*
X47800Y-26400D01*
X47800Y-26400D02*
X47200Y-25800D01*
G54D39*
X18816Y-38250D02*
X18950Y-38250D01*
X18950Y-38250D02*
X19805Y-37395D01*
G54D37*
X40000Y-42300D02*
X40000Y-41600D01*
X40000Y-41600D02*
X38109Y-39709D01*
X46500Y-40100D02*
X46500Y-40900D01*
X45100Y-42300D02*
X40000Y-42300D01*
X46500Y-40900D02*
X45100Y-42300D01*
X37818Y-40000D02*
X38109Y-39709D01*
X38109Y-39709D02*
X38400Y-39419D01*
X37400Y-35100D02*
X38000Y-35100D01*
X38000Y-35100D02*
X38400Y-35500D01*
X38400Y-35500D02*
X38400Y-39419D01*
X37818Y-40000D02*
X29300Y-39986D01*
G54D40*
X43211Y-40900D02*
X43211Y-40788D01*
X43000Y-42000D02*
X44000Y-42000D01*
X41000Y-42000D02*
X42000Y-42000D01*
X41500Y-41500D02*
X40500Y-41500D01*
X42000Y-41000D02*
X42500Y-41500D01*
X40500Y-40500D02*
X41000Y-41000D01*
X42500Y-40500D02*
X41500Y-40500D01*
X43211Y-40788D02*
X43600Y-40400D01*
G54D35*
X45700Y-34800D02*
X45950Y-34300D01*
X45950Y-34300D02*
X45950Y-32050D01*
X45950Y-32050D02*
X47200Y-30800D01*
G54D39*
X40800Y-33800D02*
X42100Y-36600D01*
G54D35*
X18816Y-38250D02*
X18816Y-38183D01*
X18816Y-38183D02*
X20639Y-39360D01*
X20639Y-39360D02*
X20639Y-39360D01*
X46450Y-24050D02*
X47200Y-24800D01*
X47200Y-24800D02*
X47200Y-25800D01*
G54D37*
X53700Y-36133D02*
X53700Y-36100D01*
X54850Y-34950D02*
X54850Y-25750D01*
X53700Y-36100D02*
X54850Y-34950D01*
X53700Y-26983D02*
X53700Y-26900D01*
X53700Y-26900D02*
X54850Y-25750D01*
X54850Y-25750D02*
X54850Y-18083D01*
X47450Y-15050D02*
X49850Y-12650D01*
X49850Y-12650D02*
X54850Y-12650D01*
X53700Y-9361D02*
X54261Y-9361D01*
X54261Y-9361D02*
X54850Y-9950D01*
X54850Y-9950D02*
X54850Y-12650D01*
X54850Y-18083D02*
X53700Y-19233D01*
X54850Y-12650D02*
X54850Y-18083D01*
X47250Y-20450D02*
X47250Y-22050D01*
X48466Y-19233D02*
X53700Y-19233D01*
X47250Y-20450D02*
X48466Y-19233D01*
X46500Y-40100D02*
X49200Y-39950D01*
X53016Y-36133D02*
X49200Y-39950D01*
X53700Y-36133D02*
X53016Y-36133D01*
X53516Y-26983D02*
X49950Y-30800D01*
X49950Y-30800D02*
X47200Y-30800D01*
X53700Y-26983D02*
X53516Y-26983D01*
G54D35*
X29850Y-37550D02*
X29850Y-36550D01*
G54D40*
X29850Y-36550D02*
X29900Y-36500D01*
G54D36*
X22250Y-22150D02*
X21400Y-23000D01*
X21400Y-23000D02*
X21300Y-23000D01*
X21300Y-23000D02*
X21400Y-23000D01*
X21400Y-21700D02*
X21800Y-21700D01*
X21800Y-21700D02*
X22250Y-22150D01*
G54D35*
X23100Y-22150D02*
X22250Y-22150D01*
G54D36*
X22250Y-22150D02*
X21450Y-22150D01*
X21450Y-22150D02*
X21400Y-22200D01*
G54D35*
X23800Y-24850D02*
X23800Y-24800D01*
X29850Y-37550D02*
X29300Y-38100D01*
X29300Y-38100D02*
X29300Y-39986D01*
X29300Y-39986D02*
X29300Y-40100D01*
X29300Y-40100D02*
X29300Y-39986D01*
G54D39*
X19700Y-34300D02*
X19805Y-34300D01*
X19805Y-34300D02*
X19700Y-34300D01*
X19700Y-34300D02*
X19805Y-34300D01*
G54D35*
X21400Y-35100D02*
X19805Y-35100D01*
G54D39*
X19805Y-35100D02*
X19800Y-35100D01*
X19800Y-35100D02*
X19805Y-35100D01*
X21400Y-33100D02*
X19805Y-33100D01*
X19805Y-33100D02*
X19800Y-33105D01*
X19800Y-33105D02*
X19800Y-33200D01*
X19800Y-33200D02*
X19805Y-33200D01*
G54D37*
X21241Y-39972D02*
X29300Y-39986D01*
X19805Y-35100D02*
X19805Y-37395D01*
X19805Y-37395D02*
X19805Y-38512D01*
X19805Y-38512D02*
X20639Y-39360D01*
X20639Y-39360D02*
X21241Y-39972D01*
X21400Y-29710D02*
X19805Y-31305D01*
X21400Y-22200D02*
X21400Y-23000D01*
X21400Y-23000D02*
X21400Y-29710D01*
X19805Y-31305D02*
X19805Y-33200D01*
X19805Y-33200D02*
X19805Y-34300D01*
X19805Y-34300D02*
X19805Y-35100D01*
G54D38*
X23100Y-22150D02*
X23100Y-22150D01*
G54D37*
X21400Y-21700D02*
X21400Y-22200D01*
G54D36*
X17037Y-34282D02*
X17042Y-34282D01*
X17030Y-34290D02*
X17037Y-34282D01*
X15900Y-33000D02*
X15900Y-33140D01*
G54D39*
X15900Y-33140D02*
X17042Y-34282D01*
G54D41*
X33325Y-24000D02*
X33325Y-23980D01*
G54D36*
X23150Y-24850D02*
X23100Y-24800D01*
G54D40*
X30500Y-8800D02*
X30400Y-8800D01*
G54D41*
X40500Y-7100D02*
X39900Y-7700D01*
X39900Y-7700D02*
X38800Y-7700D01*
X38800Y-7700D02*
X37700Y-8800D01*
X40500Y-6100D02*
X40500Y-7100D01*
X37700Y-8800D02*
X34000Y-8800D01*
G54D40*
X30000Y-7500D02*
X29500Y-7000D01*
X30000Y-8400D02*
X30000Y-7500D01*
X30400Y-8800D02*
X30000Y-8400D01*
G54D37*
X40800Y-22800D02*
X40800Y-20300D01*
X15000Y-7647D02*
X13250Y-9500D01*
G54D39*
X10300Y-33000D02*
X10300Y-30700D01*
X12300Y-28700D02*
X12300Y-24192D01*
X10300Y-30700D02*
X12300Y-28700D01*
G54D38*
X33120Y-33905D02*
X32520Y-33305D01*
X33100Y-37550D02*
X33120Y-33905D01*
X32000Y-37550D02*
X32720Y-36905D01*
X32520Y-33805D02*
X32420Y-33805D01*
X32720Y-34105D02*
X32520Y-33805D01*
X32720Y-36905D02*
X32720Y-34105D01*
G54D37*
X40800Y-31800D02*
X41800Y-29300D01*
X40800Y-13800D02*
X40800Y-11300D01*
X40800Y-18300D02*
X40800Y-15800D01*
X41800Y-27300D02*
X40800Y-24800D01*
X40800Y-9300D02*
X41950Y-9300D01*
G54D41*
X23813Y-19552D02*
X24848Y-19552D01*
X24848Y-19552D02*
X26280Y-18120D01*
X26280Y-18120D02*
X33620Y-18120D01*
G54D38*
X45700Y-6300D02*
X45800Y-6300D01*
X39100Y-8000D02*
X38200Y-8900D01*
X44000Y-8000D02*
X39100Y-8000D01*
X45700Y-6300D02*
X44000Y-8000D01*
G54D40*
X35200Y-15400D02*
X35100Y-15400D01*
X37500Y-13100D02*
X35200Y-15400D01*
X37500Y-9600D02*
X37500Y-13100D01*
X38200Y-8900D02*
X37500Y-9600D01*
G54D38*
X41100Y-33000D02*
X38400Y-33000D01*
G54D40*
X36450Y-24550D02*
X36350Y-24633D01*
X36350Y-24633D02*
X36350Y-25450D01*
X36350Y-25450D02*
X37000Y-26100D01*
X37000Y-26100D02*
X37000Y-31600D01*
G54D38*
X37000Y-31600D02*
X38400Y-33000D01*
X41700Y-33600D02*
X41100Y-33000D01*
X41700Y-34300D02*
X41700Y-33600D01*
X43800Y-36400D02*
X41700Y-34300D01*
X43800Y-37200D02*
X43800Y-36400D01*
X44000Y-37400D02*
X43800Y-37200D01*
G54D40*
X36450Y-24500D02*
X36450Y-24550D01*
G54D41*
X35050Y-22725D02*
X35050Y-27575D01*
X26550Y-28600D02*
X23775Y-28600D01*
X27230Y-27920D02*
X26550Y-28600D01*
X34705Y-27920D02*
X27230Y-27920D01*
X35050Y-27575D02*
X34705Y-27920D01*
G54D40*
X24500Y-8000D02*
X24500Y-8600D01*
X25600Y-9700D02*
X24500Y-8600D01*
X24000Y-8600D02*
X24000Y-7500D01*
X24500Y-7000D02*
X24000Y-7500D01*
X24000Y-8600D02*
X25100Y-9700D01*
X25100Y-9700D02*
X25100Y-9800D01*
X25600Y-10600D02*
X26250Y-9950D01*
X26250Y-9950D02*
X26250Y-8750D01*
X25500Y-8000D02*
X26250Y-8750D01*
X25600Y-10750D02*
X25600Y-10600D01*
X25050Y-10750D02*
X25100Y-10750D01*
X25000Y-7500D02*
X25500Y-7000D01*
X25000Y-8350D02*
X25000Y-7500D01*
X26000Y-9350D02*
X25000Y-8350D01*
X26000Y-9850D02*
X26000Y-9350D01*
X25100Y-10750D02*
X26000Y-9850D01*
X18000Y-8900D02*
X18500Y-9400D01*
X25250Y-11500D02*
X25850Y-11500D01*
X26750Y-8250D02*
X26500Y-8000D01*
X26750Y-10600D02*
X26750Y-8250D01*
X25850Y-11500D02*
X26750Y-10600D01*
X17500Y-7500D02*
X18000Y-8000D01*
X18000Y-8000D02*
X18000Y-8900D01*
X26500Y-7000D02*
X26000Y-7500D01*
X25100Y-11100D02*
X24700Y-11500D01*
X25800Y-11100D02*
X25100Y-11100D01*
X26500Y-10400D02*
X25800Y-11100D01*
X26500Y-8700D02*
X26500Y-10400D01*
X26000Y-8200D02*
X26500Y-8700D01*
X26000Y-7500D02*
X26000Y-8200D01*
X35800Y-12300D02*
X35600Y-12100D01*
X35600Y-12100D02*
X34100Y-12100D01*
X34100Y-12100D02*
X33000Y-11000D01*
X33000Y-11000D02*
X33000Y-7400D01*
X33000Y-7400D02*
X33500Y-7000D01*
X33500Y-8000D02*
X33500Y-10800D01*
X34200Y-11500D02*
X33500Y-10800D01*
X35200Y-11500D02*
X34200Y-11500D01*
X35400Y-11700D02*
X35200Y-11500D01*
X37450Y-23800D02*
X36950Y-24500D01*
X37450Y-23800D02*
X37450Y-14600D01*
X36700Y-24900D02*
X37050Y-24900D01*
G54D38*
X41320Y-19030D02*
X39120Y-19030D01*
X41600Y-18750D02*
X41320Y-19030D01*
X41600Y-16700D02*
X41600Y-18750D01*
X44300Y-14000D02*
X41600Y-16700D01*
X45500Y-14000D02*
X44300Y-14000D01*
X47100Y-12400D02*
X45500Y-14000D01*
X39120Y-19030D02*
X37750Y-20400D01*
G54D40*
X37050Y-24900D02*
X37750Y-24200D01*
X37750Y-24200D02*
X37750Y-20400D01*
G54D38*
X39575Y-28025D02*
X43325Y-28025D01*
X43325Y-28025D02*
X43600Y-28300D01*
X46600Y-28300D02*
X45500Y-28300D01*
X47100Y-28800D02*
X46600Y-28300D01*
X38800Y-26400D02*
X39575Y-27175D01*
X39575Y-27175D02*
X39575Y-28025D01*
G54D40*
X22600Y-29200D02*
X22600Y-30100D01*
X22600Y-30100D02*
X22200Y-30500D01*
X22200Y-30500D02*
X22200Y-36700D01*
X22200Y-36700D02*
X22757Y-37257D01*
X22757Y-37257D02*
X23250Y-37257D01*
G54D41*
X22900Y-36100D02*
X22900Y-34600D01*
G54D40*
X30300Y-29900D02*
X30200Y-29800D01*
X30200Y-29800D02*
X28800Y-29800D01*
X23250Y-38242D02*
X23250Y-38050D01*
X21950Y-30250D02*
X22200Y-30000D01*
X21950Y-36750D02*
X21950Y-30250D01*
X23250Y-38050D02*
X21950Y-36750D01*
X22200Y-30000D02*
X22200Y-30100D01*
X22200Y-30000D02*
X22200Y-30100D01*
X22600Y-36500D02*
X22500Y-36300D01*
X22500Y-36300D02*
X22500Y-35100D01*
X22500Y-35100D02*
X22500Y-30600D01*
X22500Y-30600D02*
X22900Y-30200D01*
X22900Y-30200D02*
X24300Y-30200D01*
X24300Y-30200D02*
X24500Y-30300D01*
G54D38*
X23200Y-31300D02*
X23200Y-32200D01*
G54D36*
X45200Y-22550D02*
X44950Y-22800D01*
X44950Y-22800D02*
X45000Y-25800D01*
X45000Y-25800D02*
X45000Y-32600D01*
X45000Y-32600D02*
X44700Y-33200D01*
G54D40*
X19000Y-11100D02*
X19000Y-7900D01*
X19000Y-7900D02*
X19400Y-7500D01*
X19400Y-7500D02*
X19500Y-7500D01*
G54D10*
G36*
X34650Y-27195D02*
X34614Y-27371D01*
X34517Y-27517D01*
X34401Y-27595D01*
X27230Y-27595D01*
X27230Y-27594D01*
X27105Y-27619D01*
X27050Y-27656D01*
X26930Y-27674D01*
X26780Y-27748D01*
X26662Y-27861D01*
X26462Y-28121D01*
X26361Y-28218D01*
X26246Y-28275D01*
X24336Y-28275D01*
X24285Y-28264D01*
X24135Y-28164D01*
X23084Y-27113D01*
X23010Y-27017D01*
X22965Y-26909D01*
X22950Y-26789D01*
X22950Y-22206D01*
X22983Y-22033D01*
X23079Y-21885D01*
X25586Y-19289D01*
X25682Y-19213D01*
X25793Y-19166D01*
X25915Y-19150D01*
X31024Y-19150D01*
X31150Y-19175D01*
X31275Y-19150D01*
X34195Y-19150D01*
X34371Y-19185D01*
X34517Y-19282D01*
X34614Y-19428D01*
X34650Y-19604D01*
X34650Y-22580D01*
X34625Y-22640D01*
X34624Y-22809D01*
X34650Y-22869D01*
X34650Y-27195D01*
X34650Y-27195D01*
G37*
G54D40*
X34650Y-27195D02*
X34614Y-27371D01*
X34517Y-27517D01*
X34401Y-27595D01*
X27230Y-27595D01*
X27230Y-27594D01*
X27105Y-27619D01*
X27050Y-27656D01*
X26930Y-27674D01*
X26780Y-27748D01*
X26662Y-27861D01*
X26462Y-28121D01*
X26361Y-28218D01*
X26246Y-28275D01*
X24336Y-28275D01*
X24285Y-28264D01*
X24135Y-28164D01*
X23084Y-27113D01*
X23010Y-27017D01*
X22965Y-26909D01*
X22950Y-26789D01*
X22950Y-22206D01*
X22983Y-22033D01*
X23079Y-21885D01*
X25586Y-19289D01*
X25682Y-19213D01*
X25793Y-19166D01*
X25915Y-19150D01*
X31024Y-19150D01*
X31150Y-19175D01*
X31275Y-19150D01*
X34195Y-19150D01*
X34371Y-19185D01*
X34517Y-19282D01*
X34614Y-19428D01*
X34650Y-19604D01*
X34650Y-22580D01*
X34625Y-22640D01*
X34624Y-22809D01*
X34650Y-22869D01*
X34650Y-27195D01*
G54D10*
G36*
X31970Y-36200D02*
X31934Y-36376D01*
X31837Y-36522D01*
X31691Y-36619D01*
X31515Y-36655D01*
X24024Y-36655D01*
X23848Y-36619D01*
X23702Y-36522D01*
X23605Y-36376D01*
X23570Y-36200D01*
X23570Y-32417D01*
X23624Y-32284D01*
X23625Y-32115D01*
X23570Y-31982D01*
X23570Y-31517D01*
X23624Y-31384D01*
X23625Y-31215D01*
X23587Y-31123D01*
X23605Y-31033D01*
X23702Y-30887D01*
X23848Y-30790D01*
X24024Y-30755D01*
X31515Y-30755D01*
X31691Y-30790D01*
X31837Y-30887D01*
X31934Y-31033D01*
X31970Y-31209D01*
X31970Y-31365D01*
X31968Y-31368D01*
X31930Y-31560D01*
X31968Y-31751D01*
X31970Y-31754D01*
X31970Y-36200D01*
X31970Y-36200D01*
G37*
G54D40*
X31970Y-36200D02*
X31934Y-36376D01*
X31837Y-36522D01*
X31691Y-36619D01*
X31515Y-36655D01*
X24024Y-36655D01*
X23848Y-36619D01*
X23702Y-36522D01*
X23605Y-36376D01*
X23570Y-36200D01*
X23570Y-32417D01*
X23624Y-32284D01*
X23625Y-32115D01*
X23570Y-31982D01*
X23570Y-31517D01*
X23624Y-31384D01*
X23625Y-31215D01*
X23587Y-31123D01*
X23605Y-31033D01*
X23702Y-30887D01*
X23848Y-30790D01*
X24024Y-30755D01*
X31515Y-30755D01*
X31691Y-30790D01*
X31837Y-30887D01*
X31934Y-31033D01*
X31970Y-31209D01*
X31970Y-31365D01*
X31968Y-31368D01*
X31930Y-31560D01*
X31968Y-31751D01*
X31970Y-31754D01*
X31970Y-36200D01*
G54D10*
G36*
X19950Y-18095D02*
X19914Y-18271D01*
X19817Y-18417D01*
X19671Y-18514D01*
X19495Y-18550D01*
X6704Y-18550D01*
X6528Y-18514D01*
X6382Y-18417D01*
X6285Y-18271D01*
X6250Y-18095D01*
X6250Y-15104D01*
X6285Y-14928D01*
X6382Y-14782D01*
X6528Y-14685D01*
X6704Y-14650D01*
X7154Y-14650D01*
X7360Y-14609D01*
X7539Y-14489D01*
X7659Y-14310D01*
X7700Y-14104D01*
X7700Y-9204D01*
X7735Y-9028D01*
X7832Y-8882D01*
X7978Y-8785D01*
X8154Y-8750D01*
X9495Y-8750D01*
X9671Y-8785D01*
X9817Y-8882D01*
X9914Y-9028D01*
X9950Y-9204D01*
X9950Y-14104D01*
X9990Y-14310D01*
X10110Y-14489D01*
X10289Y-14609D01*
X10495Y-14650D01*
X19495Y-14650D01*
X19671Y-14685D01*
X19817Y-14782D01*
X19914Y-14928D01*
X19950Y-15104D01*
X19950Y-18095D01*
X19950Y-18095D01*
G37*
G54D40*
X19950Y-18095D02*
X19914Y-18271D01*
X19817Y-18417D01*
X19671Y-18514D01*
X19495Y-18550D01*
X6704Y-18550D01*
X6528Y-18514D01*
X6382Y-18417D01*
X6285Y-18271D01*
X6250Y-18095D01*
X6250Y-15104D01*
X6285Y-14928D01*
X6382Y-14782D01*
X6528Y-14685D01*
X6704Y-14650D01*
X7154Y-14650D01*
X7360Y-14609D01*
X7539Y-14489D01*
X7659Y-14310D01*
X7700Y-14104D01*
X7700Y-9204D01*
X7735Y-9028D01*
X7832Y-8882D01*
X7978Y-8785D01*
X8154Y-8750D01*
X9495Y-8750D01*
X9671Y-8785D01*
X9817Y-8882D01*
X9914Y-9028D01*
X9950Y-9204D01*
X9950Y-14104D01*
X9990Y-14310D01*
X10110Y-14489D01*
X10289Y-14609D01*
X10495Y-14650D01*
X19495Y-14650D01*
X19671Y-14685D01*
X19817Y-14782D01*
X19914Y-14928D01*
X19950Y-15104D01*
X19950Y-18095D01*
G54D10*
G36*
X19950Y-29269D02*
X19931Y-29399D01*
X19878Y-29514D01*
X19793Y-29614D01*
X19311Y-30035D01*
X19170Y-30120D01*
X19007Y-30150D01*
X14404Y-30150D01*
X14228Y-30114D01*
X14082Y-30017D01*
X13985Y-29871D01*
X13950Y-29695D01*
X13950Y-19504D01*
X13985Y-19328D01*
X14082Y-19182D01*
X14228Y-19085D01*
X14404Y-19050D01*
X19495Y-19050D01*
X19671Y-19085D01*
X19817Y-19182D01*
X19914Y-19328D01*
X19950Y-19504D01*
X19950Y-29269D01*
X19950Y-29269D01*
G37*
G54D40*
X19950Y-29269D02*
X19931Y-29399D01*
X19878Y-29514D01*
X19793Y-29614D01*
X19311Y-30035D01*
X19170Y-30120D01*
X19007Y-30150D01*
X14404Y-30150D01*
X14228Y-30114D01*
X14082Y-30017D01*
X13985Y-29871D01*
X13950Y-29695D01*
X13950Y-19504D01*
X13985Y-19328D01*
X14082Y-19182D01*
X14228Y-19085D01*
X14404Y-19050D01*
X19495Y-19050D01*
X19671Y-19085D01*
X19817Y-19182D01*
X19914Y-19328D01*
X19950Y-19504D01*
X19950Y-29269D01*
G54D10*
G36*
X13350Y-22495D02*
X13314Y-22671D01*
X13217Y-22817D01*
X13071Y-22914D01*
X12895Y-22950D01*
X11695Y-22950D01*
X11489Y-22990D01*
X11310Y-23110D01*
X11190Y-23289D01*
X11150Y-23495D01*
X11150Y-28295D01*
X11114Y-28471D01*
X11017Y-28617D01*
X10871Y-28714D01*
X10695Y-28750D01*
X6704Y-28750D01*
X6528Y-28714D01*
X6382Y-28617D01*
X6285Y-28471D01*
X6250Y-28295D01*
X6250Y-19504D01*
X6285Y-19328D01*
X6382Y-19182D01*
X6528Y-19085D01*
X6704Y-19050D01*
X12895Y-19050D01*
X13071Y-19085D01*
X13217Y-19182D01*
X13314Y-19328D01*
X13350Y-19504D01*
X13350Y-22495D01*
X13350Y-22495D01*
G37*
G54D40*
X13350Y-22495D02*
X13314Y-22671D01*
X13217Y-22817D01*
X13071Y-22914D01*
X12895Y-22950D01*
X11695Y-22950D01*
X11489Y-22990D01*
X11310Y-23110D01*
X11190Y-23289D01*
X11150Y-23495D01*
X11150Y-28295D01*
X11114Y-28471D01*
X11017Y-28617D01*
X10871Y-28714D01*
X10695Y-28750D01*
X6704Y-28750D01*
X6528Y-28714D01*
X6382Y-28617D01*
X6285Y-28471D01*
X6250Y-28295D01*
X6250Y-19504D01*
X6285Y-19328D01*
X6382Y-19182D01*
X6528Y-19085D01*
X6704Y-19050D01*
X12895Y-19050D01*
X13071Y-19085D01*
X13217Y-19182D01*
X13314Y-19328D01*
X13350Y-19504D01*
X13350Y-22495D01*
G54D10*
G36*
X46934Y-39917D02*
X46864Y-42308D01*
X46825Y-42480D01*
X46727Y-42622D01*
X46583Y-42716D01*
X46409Y-42750D01*
X13904Y-42750D01*
X13728Y-42714D01*
X13582Y-42617D01*
X13485Y-42471D01*
X13450Y-42295D01*
X13450Y-40604D01*
X13485Y-40428D01*
X13582Y-40282D01*
X13728Y-40185D01*
X13904Y-40150D01*
X43495Y-40150D01*
X43671Y-40185D01*
X43817Y-40282D01*
X43914Y-40428D01*
X43945Y-40581D01*
X43945Y-41343D01*
X43983Y-41435D01*
X44053Y-41505D01*
X44145Y-41543D01*
X44245Y-41543D01*
X44463Y-41543D01*
X44495Y-41550D01*
X44704Y-41550D01*
X44736Y-41543D01*
X45032Y-41543D01*
X45124Y-41505D01*
X45194Y-41435D01*
X45232Y-41343D01*
X45232Y-41243D01*
X45232Y-41092D01*
X45250Y-41004D01*
X45250Y-39904D01*
X45285Y-39728D01*
X45382Y-39582D01*
X45528Y-39485D01*
X45704Y-39450D01*
X46481Y-39450D01*
X46626Y-39473D01*
X46753Y-39539D01*
X46853Y-39642D01*
X46915Y-39771D01*
X46934Y-39917D01*
X46934Y-39917D01*
G37*
G54D40*
X46934Y-39917D02*
X46864Y-42308D01*
X46825Y-42480D01*
X46727Y-42622D01*
X46583Y-42716D01*
X46409Y-42750D01*
X13904Y-42750D01*
X13728Y-42714D01*
X13582Y-42617D01*
X13485Y-42471D01*
X13450Y-42295D01*
X13450Y-40604D01*
X13485Y-40428D01*
X13582Y-40282D01*
X13728Y-40185D01*
X13904Y-40150D01*
X43495Y-40150D01*
X43671Y-40185D01*
X43817Y-40282D01*
X43914Y-40428D01*
X43945Y-40581D01*
X43945Y-41343D01*
X43983Y-41435D01*
X44053Y-41505D01*
X44145Y-41543D01*
X44245Y-41543D01*
X44463Y-41543D01*
X44495Y-41550D01*
X44704Y-41550D01*
X44736Y-41543D01*
X45032Y-41543D01*
X45124Y-41505D01*
X45194Y-41435D01*
X45232Y-41343D01*
X45232Y-41243D01*
X45232Y-41092D01*
X45250Y-41004D01*
X45250Y-39904D01*
X45285Y-39728D01*
X45382Y-39582D01*
X45528Y-39485D01*
X45704Y-39450D01*
X46481Y-39450D01*
X46626Y-39473D01*
X46753Y-39539D01*
X46853Y-39642D01*
X46915Y-39771D01*
X46934Y-39917D01*
M02*
