G04 (created by PCBNEW (2013-mar-13)-testing) date Tue 02 Jul 2013 01:16:44 PM EDT*
%MOIN*%
G04 Gerber Fmt 3.4, Leading zero omitted, Abs format*
%FSLAX34Y34*%
G01*
G70*
G90*
G04 APERTURE LIST*
%ADD10C,0.005906*%
%ADD11C,0.005000*%
%ADD12C,0.015000*%
%ADD13C,0.009843*%
%ADD14C,0.010000*%
%ADD15C,0.008000*%
%ADD16C,0.003900*%
%ADD17C,0.006000*%
%ADD18C,0.012000*%
%ADD19C,0.011811*%
%ADD20C,0.003100*%
%ADD21C,0.000100*%
%ADD22C,0.010700*%
G04 APERTURE END LIST*
G54D10*
G54D11*
X19085Y-40335D02*
X19085Y-40578D01*
X19071Y-40607D01*
X19057Y-40621D01*
X19028Y-40635D01*
X18985Y-40635D01*
X18957Y-40621D01*
X19085Y-40521D02*
X19057Y-40535D01*
X18999Y-40535D01*
X18971Y-40521D01*
X18957Y-40507D01*
X18942Y-40478D01*
X18942Y-40392D01*
X18957Y-40364D01*
X18971Y-40350D01*
X18999Y-40335D01*
X19057Y-40335D01*
X19085Y-40350D01*
X19228Y-40535D02*
X19228Y-40335D01*
X19228Y-40235D02*
X19214Y-40250D01*
X19228Y-40264D01*
X19242Y-40250D01*
X19228Y-40235D01*
X19228Y-40264D01*
X19328Y-40335D02*
X19442Y-40335D01*
X19371Y-40235D02*
X19371Y-40492D01*
X19385Y-40521D01*
X19414Y-40535D01*
X19442Y-40535D01*
X19542Y-40535D02*
X19542Y-40235D01*
X19671Y-40535D02*
X19671Y-40378D01*
X19657Y-40350D01*
X19628Y-40335D01*
X19585Y-40335D01*
X19557Y-40350D01*
X19542Y-40364D01*
X19942Y-40335D02*
X19942Y-40535D01*
X19814Y-40335D02*
X19814Y-40492D01*
X19828Y-40521D01*
X19857Y-40535D01*
X19900Y-40535D01*
X19928Y-40521D01*
X19942Y-40507D01*
X20085Y-40535D02*
X20085Y-40235D01*
X20085Y-40350D02*
X20114Y-40335D01*
X20171Y-40335D01*
X20200Y-40350D01*
X20214Y-40364D01*
X20228Y-40392D01*
X20228Y-40478D01*
X20214Y-40507D01*
X20200Y-40521D01*
X20171Y-40535D01*
X20114Y-40535D01*
X20085Y-40521D01*
X20357Y-40507D02*
X20371Y-40521D01*
X20357Y-40535D01*
X20342Y-40521D01*
X20357Y-40507D01*
X20357Y-40535D01*
X20628Y-40521D02*
X20600Y-40535D01*
X20542Y-40535D01*
X20514Y-40521D01*
X20500Y-40507D01*
X20485Y-40478D01*
X20485Y-40392D01*
X20500Y-40364D01*
X20514Y-40350D01*
X20542Y-40335D01*
X20600Y-40335D01*
X20628Y-40350D01*
X20800Y-40535D02*
X20771Y-40521D01*
X20757Y-40507D01*
X20742Y-40478D01*
X20742Y-40392D01*
X20757Y-40364D01*
X20771Y-40350D01*
X20800Y-40335D01*
X20842Y-40335D01*
X20871Y-40350D01*
X20885Y-40364D01*
X20900Y-40392D01*
X20900Y-40478D01*
X20885Y-40507D01*
X20871Y-40521D01*
X20842Y-40535D01*
X20800Y-40535D01*
X21028Y-40535D02*
X21028Y-40335D01*
X21028Y-40364D02*
X21042Y-40350D01*
X21071Y-40335D01*
X21114Y-40335D01*
X21142Y-40350D01*
X21157Y-40378D01*
X21157Y-40535D01*
X21157Y-40378D02*
X21171Y-40350D01*
X21200Y-40335D01*
X21242Y-40335D01*
X21271Y-40350D01*
X21285Y-40378D01*
X21285Y-40535D01*
X21642Y-40221D02*
X21385Y-40607D01*
X21742Y-40535D02*
X21742Y-40335D01*
X21742Y-40235D02*
X21728Y-40250D01*
X21742Y-40264D01*
X21757Y-40250D01*
X21742Y-40235D01*
X21742Y-40264D01*
X22014Y-40335D02*
X22014Y-40578D01*
X22000Y-40607D01*
X21985Y-40621D01*
X21957Y-40635D01*
X21914Y-40635D01*
X21885Y-40621D01*
X22014Y-40521D02*
X21985Y-40535D01*
X21928Y-40535D01*
X21900Y-40521D01*
X21885Y-40507D01*
X21871Y-40478D01*
X21871Y-40392D01*
X21885Y-40364D01*
X21900Y-40350D01*
X21928Y-40335D01*
X21985Y-40335D01*
X22014Y-40350D01*
X22285Y-40335D02*
X22285Y-40578D01*
X22271Y-40607D01*
X22257Y-40621D01*
X22228Y-40635D01*
X22185Y-40635D01*
X22157Y-40621D01*
X22285Y-40521D02*
X22257Y-40535D01*
X22200Y-40535D01*
X22171Y-40521D01*
X22157Y-40507D01*
X22142Y-40478D01*
X22142Y-40392D01*
X22157Y-40364D01*
X22171Y-40350D01*
X22200Y-40335D01*
X22257Y-40335D01*
X22285Y-40350D01*
X22642Y-40221D02*
X22385Y-40607D01*
X22842Y-40378D02*
X22885Y-40392D01*
X22900Y-40407D01*
X22914Y-40435D01*
X22914Y-40478D01*
X22900Y-40507D01*
X22885Y-40521D01*
X22857Y-40535D01*
X22742Y-40535D01*
X22742Y-40235D01*
X22842Y-40235D01*
X22871Y-40250D01*
X22885Y-40264D01*
X22900Y-40292D01*
X22900Y-40321D01*
X22885Y-40350D01*
X22871Y-40364D01*
X22842Y-40378D01*
X22742Y-40378D01*
X23142Y-40378D02*
X23185Y-40392D01*
X23200Y-40407D01*
X23214Y-40435D01*
X23214Y-40478D01*
X23200Y-40507D01*
X23185Y-40521D01*
X23157Y-40535D01*
X23042Y-40535D01*
X23042Y-40235D01*
X23142Y-40235D01*
X23171Y-40250D01*
X23185Y-40264D01*
X23200Y-40292D01*
X23200Y-40321D01*
X23185Y-40350D01*
X23171Y-40364D01*
X23142Y-40378D01*
X23042Y-40378D01*
X23342Y-40535D02*
X23342Y-40235D01*
X23414Y-40235D01*
X23457Y-40250D01*
X23485Y-40278D01*
X23500Y-40307D01*
X23514Y-40364D01*
X23514Y-40407D01*
X23500Y-40464D01*
X23485Y-40492D01*
X23457Y-40521D01*
X23414Y-40535D01*
X23342Y-40535D01*
X23657Y-40535D02*
X23714Y-40535D01*
X23742Y-40521D01*
X23757Y-40507D01*
X23785Y-40464D01*
X23800Y-40407D01*
X23800Y-40292D01*
X23785Y-40264D01*
X23771Y-40250D01*
X23742Y-40235D01*
X23685Y-40235D01*
X23657Y-40250D01*
X23642Y-40264D01*
X23628Y-40292D01*
X23628Y-40364D01*
X23642Y-40392D01*
X23657Y-40407D01*
X23685Y-40421D01*
X23742Y-40421D01*
X23771Y-40407D01*
X23785Y-40392D01*
X23800Y-40364D01*
X23985Y-40235D02*
X24014Y-40235D01*
X24042Y-40250D01*
X24057Y-40264D01*
X24071Y-40292D01*
X24085Y-40350D01*
X24085Y-40421D01*
X24071Y-40478D01*
X24057Y-40507D01*
X24042Y-40521D01*
X24014Y-40535D01*
X23985Y-40535D01*
X23957Y-40521D01*
X23942Y-40507D01*
X23928Y-40478D01*
X23914Y-40421D01*
X23914Y-40350D01*
X23928Y-40292D01*
X23942Y-40264D01*
X23957Y-40250D01*
X23985Y-40235D01*
X24271Y-40235D02*
X24300Y-40235D01*
X24328Y-40250D01*
X24342Y-40264D01*
X24357Y-40292D01*
X24371Y-40350D01*
X24371Y-40421D01*
X24357Y-40478D01*
X24342Y-40507D01*
X24328Y-40521D01*
X24300Y-40535D01*
X24271Y-40535D01*
X24242Y-40521D01*
X24228Y-40507D01*
X24214Y-40478D01*
X24200Y-40421D01*
X24200Y-40350D01*
X24214Y-40292D01*
X24228Y-40264D01*
X24242Y-40250D01*
X24271Y-40235D01*
X24557Y-40235D02*
X24585Y-40235D01*
X24614Y-40250D01*
X24628Y-40264D01*
X24642Y-40292D01*
X24657Y-40350D01*
X24657Y-40421D01*
X24642Y-40478D01*
X24628Y-40507D01*
X24614Y-40521D01*
X24585Y-40535D01*
X24557Y-40535D01*
X24528Y-40521D01*
X24514Y-40507D01*
X24500Y-40478D01*
X24485Y-40421D01*
X24485Y-40350D01*
X24500Y-40292D01*
X24514Y-40264D01*
X24528Y-40250D01*
X24557Y-40235D01*
G54D12*
X8933Y-40083D02*
X9033Y-40116D01*
X9200Y-40116D01*
X9266Y-40083D01*
X9300Y-40050D01*
X9333Y-39983D01*
X9333Y-39916D01*
X9300Y-39850D01*
X9266Y-39816D01*
X9200Y-39783D01*
X9066Y-39750D01*
X9000Y-39716D01*
X8966Y-39683D01*
X8933Y-39616D01*
X8933Y-39550D01*
X8966Y-39483D01*
X9000Y-39450D01*
X9066Y-39416D01*
X9233Y-39416D01*
X9333Y-39450D01*
X9633Y-40116D02*
X9633Y-39650D01*
X9633Y-39716D02*
X9666Y-39683D01*
X9733Y-39650D01*
X9833Y-39650D01*
X9900Y-39683D01*
X9933Y-39750D01*
X9933Y-40116D01*
X9933Y-39750D02*
X9966Y-39683D01*
X10033Y-39650D01*
X10133Y-39650D01*
X10200Y-39683D01*
X10233Y-39750D01*
X10233Y-40116D01*
X10866Y-40116D02*
X10866Y-39750D01*
X10833Y-39683D01*
X10766Y-39650D01*
X10633Y-39650D01*
X10566Y-39683D01*
X10866Y-40083D02*
X10800Y-40116D01*
X10633Y-40116D01*
X10566Y-40083D01*
X10533Y-40016D01*
X10533Y-39950D01*
X10566Y-39883D01*
X10633Y-39850D01*
X10800Y-39850D01*
X10866Y-39816D01*
X11200Y-40116D02*
X11200Y-39650D01*
X11200Y-39783D02*
X11233Y-39716D01*
X11266Y-39683D01*
X11333Y-39650D01*
X11400Y-39650D01*
X11533Y-39650D02*
X11800Y-39650D01*
X11633Y-39416D02*
X11633Y-40016D01*
X11666Y-40083D01*
X11733Y-40116D01*
X11800Y-40116D01*
X12033Y-40116D02*
X12033Y-39416D01*
X12500Y-39416D02*
X12633Y-39416D01*
X12700Y-39450D01*
X12766Y-39516D01*
X12800Y-39650D01*
X12800Y-39883D01*
X12766Y-40016D01*
X12700Y-40083D01*
X12633Y-40116D01*
X12500Y-40116D01*
X12433Y-40083D01*
X12366Y-40016D01*
X12333Y-39883D01*
X12333Y-39650D01*
X12366Y-39516D01*
X12433Y-39450D01*
X12500Y-39416D01*
X13633Y-40116D02*
X13633Y-39416D01*
X13866Y-39916D01*
X14100Y-39416D01*
X14100Y-40116D01*
X14433Y-40116D02*
X14433Y-39416D01*
X14500Y-39850D02*
X14700Y-40116D01*
X14700Y-39650D02*
X14433Y-39916D01*
X15466Y-39416D02*
X15900Y-39416D01*
X15666Y-39683D01*
X15766Y-39683D01*
X15833Y-39716D01*
X15866Y-39750D01*
X15900Y-39816D01*
X15900Y-39983D01*
X15866Y-40050D01*
X15833Y-40083D01*
X15766Y-40116D01*
X15566Y-40116D01*
X15500Y-40083D01*
X15466Y-40050D01*
X16200Y-40050D02*
X16233Y-40083D01*
X16200Y-40116D01*
X16166Y-40083D01*
X16200Y-40050D01*
X16200Y-40116D01*
X16466Y-39416D02*
X16900Y-39416D01*
X16666Y-39683D01*
X16766Y-39683D01*
X16833Y-39716D01*
X16866Y-39750D01*
X16900Y-39816D01*
X16900Y-39983D01*
X16866Y-40050D01*
X16833Y-40083D01*
X16766Y-40116D01*
X16566Y-40116D01*
X16500Y-40083D01*
X16466Y-40050D01*
G54D13*
X5403Y-25394D02*
X5641Y-25228D01*
X5403Y-25109D02*
X5903Y-25109D01*
X5903Y-25299D01*
X5880Y-25347D01*
X5856Y-25370D01*
X5808Y-25394D01*
X5737Y-25394D01*
X5689Y-25370D01*
X5665Y-25347D01*
X5641Y-25299D01*
X5641Y-25109D01*
X5427Y-25799D02*
X5403Y-25751D01*
X5403Y-25656D01*
X5427Y-25609D01*
X5475Y-25585D01*
X5665Y-25585D01*
X5713Y-25609D01*
X5737Y-25656D01*
X5737Y-25751D01*
X5713Y-25799D01*
X5665Y-25823D01*
X5618Y-25823D01*
X5570Y-25585D01*
X5403Y-26109D02*
X5427Y-26061D01*
X5475Y-26037D01*
X5903Y-26037D01*
X5403Y-26513D02*
X5665Y-26513D01*
X5713Y-26489D01*
X5737Y-26442D01*
X5737Y-26347D01*
X5713Y-26299D01*
X5427Y-26513D02*
X5403Y-26466D01*
X5403Y-26347D01*
X5427Y-26299D01*
X5475Y-26275D01*
X5522Y-26275D01*
X5570Y-26299D01*
X5594Y-26347D01*
X5594Y-26466D01*
X5618Y-26513D01*
X5737Y-26704D02*
X5403Y-26823D01*
X5737Y-26942D02*
X5403Y-26823D01*
X5284Y-26775D01*
X5260Y-26751D01*
X5237Y-26704D01*
X17819Y-15226D02*
X17819Y-15630D01*
X17842Y-15678D01*
X17866Y-15702D01*
X17914Y-15726D01*
X18009Y-15726D01*
X18057Y-15702D01*
X18080Y-15678D01*
X18104Y-15630D01*
X18104Y-15226D01*
X18295Y-15226D02*
X18604Y-15226D01*
X18438Y-15416D01*
X18509Y-15416D01*
X18557Y-15440D01*
X18580Y-15464D01*
X18604Y-15511D01*
X18604Y-15630D01*
X18580Y-15678D01*
X18557Y-15702D01*
X18509Y-15726D01*
X18366Y-15726D01*
X18319Y-15702D01*
X18295Y-15678D01*
X19176Y-15583D02*
X19414Y-15583D01*
X19128Y-15726D02*
X19295Y-15226D01*
X19461Y-15726D01*
X19914Y-15678D02*
X19890Y-15702D01*
X19819Y-15726D01*
X19771Y-15726D01*
X19700Y-15702D01*
X19652Y-15654D01*
X19628Y-15607D01*
X19604Y-15511D01*
X19604Y-15440D01*
X19628Y-15345D01*
X19652Y-15297D01*
X19700Y-15250D01*
X19771Y-15226D01*
X19819Y-15226D01*
X19890Y-15250D01*
X19914Y-15273D01*
X20104Y-15702D02*
X20176Y-15726D01*
X20295Y-15726D01*
X20342Y-15702D01*
X20366Y-15678D01*
X20390Y-15630D01*
X20390Y-15583D01*
X20366Y-15535D01*
X20342Y-15511D01*
X20295Y-15488D01*
X20200Y-15464D01*
X20152Y-15440D01*
X20128Y-15416D01*
X20104Y-15369D01*
X20104Y-15321D01*
X20128Y-15273D01*
X20152Y-15250D01*
X20200Y-15226D01*
X20319Y-15226D01*
X20390Y-15250D01*
X20557Y-15226D02*
X20890Y-15226D01*
X20676Y-15726D01*
X21319Y-15226D02*
X21080Y-15226D01*
X21057Y-15464D01*
X21080Y-15440D01*
X21128Y-15416D01*
X21247Y-15416D01*
X21295Y-15440D01*
X21319Y-15464D01*
X21342Y-15511D01*
X21342Y-15630D01*
X21319Y-15678D01*
X21295Y-15702D01*
X21247Y-15726D01*
X21128Y-15726D01*
X21080Y-15702D01*
X21057Y-15678D01*
X21795Y-15226D02*
X21557Y-15226D01*
X21533Y-15464D01*
X21557Y-15440D01*
X21604Y-15416D01*
X21723Y-15416D01*
X21771Y-15440D01*
X21795Y-15464D01*
X21819Y-15511D01*
X21819Y-15630D01*
X21795Y-15678D01*
X21771Y-15702D01*
X21723Y-15726D01*
X21604Y-15726D01*
X21557Y-15702D01*
X21533Y-15678D01*
X17819Y-16524D02*
X17819Y-16191D01*
X17819Y-16286D02*
X17842Y-16238D01*
X17866Y-16215D01*
X17914Y-16191D01*
X17961Y-16191D01*
X18319Y-16500D02*
X18271Y-16524D01*
X18176Y-16524D01*
X18128Y-16500D01*
X18104Y-16453D01*
X18104Y-16262D01*
X18128Y-16215D01*
X18176Y-16191D01*
X18271Y-16191D01*
X18319Y-16215D01*
X18342Y-16262D01*
X18342Y-16310D01*
X18104Y-16357D01*
X18509Y-16191D02*
X18628Y-16524D01*
X18747Y-16191D01*
X19128Y-16500D02*
X19080Y-16524D01*
X18985Y-16524D01*
X18938Y-16500D01*
X18914Y-16453D01*
X18914Y-16262D01*
X18938Y-16215D01*
X18985Y-16191D01*
X19080Y-16191D01*
X19128Y-16215D01*
X19152Y-16262D01*
X19152Y-16310D01*
X18914Y-16357D01*
X19366Y-16524D02*
X19366Y-16191D01*
X19366Y-16286D02*
X19390Y-16238D01*
X19414Y-16215D01*
X19461Y-16191D01*
X19509Y-16191D01*
X19652Y-16500D02*
X19699Y-16524D01*
X19795Y-16524D01*
X19842Y-16500D01*
X19866Y-16453D01*
X19866Y-16429D01*
X19842Y-16381D01*
X19795Y-16357D01*
X19723Y-16357D01*
X19676Y-16334D01*
X19652Y-16286D01*
X19652Y-16262D01*
X19676Y-16215D01*
X19723Y-16191D01*
X19795Y-16191D01*
X19842Y-16215D01*
X20271Y-16500D02*
X20223Y-16524D01*
X20128Y-16524D01*
X20080Y-16500D01*
X20057Y-16453D01*
X20057Y-16262D01*
X20080Y-16215D01*
X20128Y-16191D01*
X20223Y-16191D01*
X20271Y-16215D01*
X20295Y-16262D01*
X20295Y-16310D01*
X20057Y-16357D01*
X20866Y-16500D02*
X20914Y-16524D01*
X21009Y-16524D01*
X21057Y-16500D01*
X21080Y-16453D01*
X21080Y-16429D01*
X21057Y-16381D01*
X21009Y-16357D01*
X20938Y-16357D01*
X20890Y-16334D01*
X20866Y-16286D01*
X20866Y-16262D01*
X20890Y-16215D01*
X20938Y-16191D01*
X21009Y-16191D01*
X21057Y-16215D01*
X21295Y-16524D02*
X21295Y-16191D01*
X21295Y-16024D02*
X21271Y-16048D01*
X21295Y-16072D01*
X21319Y-16048D01*
X21295Y-16024D01*
X21295Y-16072D01*
X21747Y-16524D02*
X21747Y-16024D01*
X21747Y-16500D02*
X21699Y-16524D01*
X21604Y-16524D01*
X21557Y-16500D01*
X21533Y-16476D01*
X21509Y-16429D01*
X21509Y-16286D01*
X21533Y-16238D01*
X21557Y-16215D01*
X21604Y-16191D01*
X21699Y-16191D01*
X21747Y-16215D01*
X22176Y-16500D02*
X22128Y-16524D01*
X22033Y-16524D01*
X21985Y-16500D01*
X21961Y-16453D01*
X21961Y-16262D01*
X21985Y-16215D01*
X22033Y-16191D01*
X22128Y-16191D01*
X22176Y-16215D01*
X22199Y-16262D01*
X22199Y-16310D01*
X21961Y-16357D01*
X30738Y-39076D02*
X30571Y-38838D01*
X30452Y-39076D02*
X30452Y-38576D01*
X30642Y-38576D01*
X30690Y-38600D01*
X30714Y-38623D01*
X30738Y-38671D01*
X30738Y-38742D01*
X30714Y-38790D01*
X30690Y-38814D01*
X30642Y-38838D01*
X30452Y-38838D01*
X30928Y-39052D02*
X30999Y-39076D01*
X31119Y-39076D01*
X31166Y-39052D01*
X31190Y-39028D01*
X31214Y-38980D01*
X31214Y-38933D01*
X31190Y-38885D01*
X31166Y-38861D01*
X31119Y-38838D01*
X31023Y-38814D01*
X30976Y-38790D01*
X30952Y-38766D01*
X30928Y-38719D01*
X30928Y-38671D01*
X30952Y-38623D01*
X30976Y-38600D01*
X31023Y-38576D01*
X31142Y-38576D01*
X31214Y-38600D01*
X31404Y-38623D02*
X31428Y-38600D01*
X31476Y-38576D01*
X31595Y-38576D01*
X31642Y-38600D01*
X31666Y-38623D01*
X31690Y-38671D01*
X31690Y-38719D01*
X31666Y-38790D01*
X31380Y-39076D01*
X31690Y-39076D01*
X31857Y-38576D02*
X32166Y-38576D01*
X31999Y-38766D01*
X32071Y-38766D01*
X32119Y-38790D01*
X32142Y-38814D01*
X32166Y-38861D01*
X32166Y-38980D01*
X32142Y-39028D01*
X32119Y-39052D01*
X32071Y-39076D01*
X31928Y-39076D01*
X31880Y-39052D01*
X31857Y-39028D01*
X32357Y-38623D02*
X32380Y-38600D01*
X32428Y-38576D01*
X32547Y-38576D01*
X32595Y-38600D01*
X32619Y-38623D01*
X32642Y-38671D01*
X32642Y-38719D01*
X32619Y-38790D01*
X32333Y-39076D01*
X32642Y-39076D01*
X32857Y-38885D02*
X33238Y-38885D01*
X33738Y-39076D02*
X33452Y-39076D01*
X33595Y-39076D02*
X33595Y-38576D01*
X33547Y-38647D01*
X33499Y-38695D01*
X33452Y-38719D01*
X34214Y-39076D02*
X33928Y-39076D01*
X34071Y-39076D02*
X34071Y-38576D01*
X34023Y-38647D01*
X33976Y-38695D01*
X33928Y-38719D01*
X34666Y-38576D02*
X34428Y-38576D01*
X34404Y-38814D01*
X34428Y-38790D01*
X34476Y-38766D01*
X34595Y-38766D01*
X34642Y-38790D01*
X34666Y-38814D01*
X34690Y-38861D01*
X34690Y-38980D01*
X34666Y-39028D01*
X34642Y-39052D01*
X34595Y-39076D01*
X34476Y-39076D01*
X34428Y-39052D01*
X34404Y-39028D01*
X34904Y-39028D02*
X34928Y-39052D01*
X34904Y-39076D01*
X34880Y-39052D01*
X34904Y-39028D01*
X34904Y-39076D01*
X35119Y-38623D02*
X35142Y-38600D01*
X35190Y-38576D01*
X35309Y-38576D01*
X35357Y-38600D01*
X35380Y-38623D01*
X35404Y-38671D01*
X35404Y-38719D01*
X35380Y-38790D01*
X35095Y-39076D01*
X35404Y-39076D01*
X35619Y-39076D02*
X35619Y-38576D01*
X35666Y-38885D02*
X35809Y-39076D01*
X35809Y-38742D02*
X35619Y-38933D01*
X36023Y-38885D02*
X36404Y-38885D01*
X36714Y-38790D02*
X36666Y-38766D01*
X36642Y-38742D01*
X36619Y-38695D01*
X36619Y-38671D01*
X36642Y-38623D01*
X36666Y-38600D01*
X36714Y-38576D01*
X36809Y-38576D01*
X36857Y-38600D01*
X36880Y-38623D01*
X36904Y-38671D01*
X36904Y-38695D01*
X36880Y-38742D01*
X36857Y-38766D01*
X36809Y-38790D01*
X36714Y-38790D01*
X36666Y-38814D01*
X36642Y-38838D01*
X36619Y-38885D01*
X36619Y-38980D01*
X36642Y-39028D01*
X36666Y-39052D01*
X36714Y-39076D01*
X36809Y-39076D01*
X36857Y-39052D01*
X36880Y-39028D01*
X36904Y-38980D01*
X36904Y-38885D01*
X36880Y-38838D01*
X36857Y-38814D01*
X36809Y-38790D01*
X37119Y-39076D02*
X37119Y-38576D01*
X37404Y-39076D01*
X37404Y-38576D01*
X37904Y-39076D02*
X37619Y-39076D01*
X37761Y-39076D02*
X37761Y-38576D01*
X37714Y-38647D01*
X37666Y-38695D01*
X37619Y-38719D01*
G54D14*
X5351Y-18430D02*
X5901Y-18430D01*
X5901Y-18640D01*
X5875Y-18692D01*
X5848Y-18719D01*
X5796Y-18745D01*
X5717Y-18745D01*
X5665Y-18719D01*
X5639Y-18692D01*
X5613Y-18640D01*
X5613Y-18430D01*
X5901Y-18928D02*
X5351Y-19059D01*
X5744Y-19164D01*
X5351Y-19269D01*
X5901Y-19400D01*
X5351Y-19923D02*
X5613Y-19740D01*
X5351Y-19609D02*
X5901Y-19609D01*
X5901Y-19819D01*
X5875Y-19871D01*
X5848Y-19897D01*
X5796Y-19923D01*
X5717Y-19923D01*
X5665Y-19897D01*
X5639Y-19871D01*
X5613Y-19819D01*
X5613Y-19609D01*
X5560Y-20159D02*
X5560Y-20578D01*
X5351Y-20840D02*
X5901Y-20840D01*
X5351Y-21102D02*
X5901Y-21102D01*
X5351Y-21416D01*
X5901Y-21416D01*
X5351Y-14030D02*
X5901Y-14030D01*
X5901Y-14240D01*
X5875Y-14292D01*
X5848Y-14319D01*
X5796Y-14345D01*
X5717Y-14345D01*
X5665Y-14319D01*
X5639Y-14292D01*
X5613Y-14240D01*
X5613Y-14030D01*
X5901Y-14528D02*
X5351Y-14659D01*
X5744Y-14764D01*
X5351Y-14869D01*
X5901Y-15000D01*
X5351Y-15523D02*
X5613Y-15340D01*
X5351Y-15209D02*
X5901Y-15209D01*
X5901Y-15419D01*
X5875Y-15471D01*
X5848Y-15497D01*
X5796Y-15523D01*
X5717Y-15523D01*
X5665Y-15497D01*
X5639Y-15471D01*
X5613Y-15419D01*
X5613Y-15209D01*
X5560Y-15759D02*
X5560Y-16178D01*
X5377Y-16414D02*
X5351Y-16492D01*
X5351Y-16623D01*
X5377Y-16676D01*
X5403Y-16702D01*
X5455Y-16728D01*
X5508Y-16728D01*
X5560Y-16702D01*
X5586Y-16676D01*
X5613Y-16623D01*
X5639Y-16519D01*
X5665Y-16466D01*
X5691Y-16440D01*
X5744Y-16414D01*
X5796Y-16414D01*
X5848Y-16440D01*
X5875Y-16466D01*
X5901Y-16519D01*
X5901Y-16650D01*
X5875Y-16728D01*
X5901Y-16911D02*
X5351Y-17042D01*
X5744Y-17147D01*
X5351Y-17252D01*
X5901Y-17383D01*
X5351Y-8930D02*
X5901Y-8930D01*
X5351Y-9245D01*
X5901Y-9245D01*
X5639Y-9507D02*
X5639Y-9690D01*
X5351Y-9769D02*
X5351Y-9507D01*
X5901Y-9507D01*
X5901Y-9769D01*
X5875Y-10292D02*
X5901Y-10240D01*
X5901Y-10161D01*
X5875Y-10083D01*
X5822Y-10030D01*
X5770Y-10004D01*
X5665Y-9978D01*
X5586Y-9978D01*
X5482Y-10004D01*
X5429Y-10030D01*
X5377Y-10083D01*
X5351Y-10161D01*
X5351Y-10214D01*
X5377Y-10292D01*
X5403Y-10319D01*
X5586Y-10319D01*
X5586Y-10214D01*
X5927Y-10947D02*
X5220Y-10476D01*
X5351Y-11130D02*
X5901Y-11130D01*
X5351Y-11445D01*
X5901Y-11445D01*
X5639Y-11707D02*
X5639Y-11890D01*
X5351Y-11969D02*
X5351Y-11707D01*
X5901Y-11707D01*
X5901Y-11969D01*
X5901Y-12204D02*
X5455Y-12204D01*
X5403Y-12230D01*
X5377Y-12257D01*
X5351Y-12309D01*
X5351Y-12414D01*
X5377Y-12466D01*
X5403Y-12492D01*
X5455Y-12519D01*
X5901Y-12519D01*
X5901Y-12702D02*
X5901Y-13016D01*
X5351Y-12859D02*
X5901Y-12859D01*
G54D13*
X51685Y-28164D02*
X51519Y-28164D01*
X51519Y-28426D02*
X51519Y-27926D01*
X51757Y-27926D01*
X52185Y-28426D02*
X51947Y-28426D01*
X51947Y-27926D01*
X52352Y-28426D02*
X52352Y-27926D01*
X52519Y-28283D01*
X52685Y-27926D01*
X52685Y-28426D01*
X52900Y-27973D02*
X52923Y-27950D01*
X52971Y-27926D01*
X53090Y-27926D01*
X53138Y-27950D01*
X53161Y-27973D01*
X53185Y-28021D01*
X53185Y-28069D01*
X53161Y-28140D01*
X52876Y-28426D01*
X53185Y-28426D01*
X51685Y-26764D02*
X51519Y-26764D01*
X51519Y-27026D02*
X51519Y-26526D01*
X51757Y-26526D01*
X52185Y-27026D02*
X51947Y-27026D01*
X51947Y-26526D01*
X52352Y-27026D02*
X52352Y-26526D01*
X52519Y-26883D01*
X52685Y-26526D01*
X52685Y-27026D01*
X53185Y-27026D02*
X52900Y-27026D01*
X53042Y-27026D02*
X53042Y-26526D01*
X52995Y-26597D01*
X52947Y-26645D01*
X52900Y-26669D01*
X51780Y-25150D02*
X51733Y-25126D01*
X51661Y-25126D01*
X51590Y-25150D01*
X51542Y-25197D01*
X51519Y-25245D01*
X51495Y-25340D01*
X51495Y-25411D01*
X51519Y-25507D01*
X51542Y-25554D01*
X51590Y-25602D01*
X51661Y-25626D01*
X51709Y-25626D01*
X51780Y-25602D01*
X51804Y-25578D01*
X51804Y-25411D01*
X51709Y-25411D01*
X52019Y-25626D02*
X52019Y-25126D01*
X52304Y-25626D01*
X52304Y-25126D01*
X52542Y-25626D02*
X52542Y-25126D01*
X52661Y-25126D01*
X52733Y-25150D01*
X52780Y-25197D01*
X52804Y-25245D01*
X52828Y-25340D01*
X52828Y-25411D01*
X52804Y-25507D01*
X52780Y-25554D01*
X52733Y-25602D01*
X52661Y-25626D01*
X52542Y-25626D01*
X51519Y-24235D02*
X51900Y-24235D01*
X51709Y-24426D02*
X51709Y-24045D01*
X52376Y-23926D02*
X52138Y-23926D01*
X52114Y-24164D01*
X52138Y-24140D01*
X52185Y-24116D01*
X52304Y-24116D01*
X52352Y-24140D01*
X52376Y-24164D01*
X52400Y-24211D01*
X52400Y-24330D01*
X52376Y-24378D01*
X52352Y-24402D01*
X52304Y-24426D01*
X52185Y-24426D01*
X52138Y-24402D01*
X52114Y-24378D01*
X52542Y-23926D02*
X52709Y-24426D01*
X52876Y-23926D01*
X51495Y-22883D02*
X51733Y-22883D01*
X51447Y-23026D02*
X51614Y-22526D01*
X51780Y-23026D01*
X51947Y-22526D02*
X51947Y-22930D01*
X51971Y-22978D01*
X51995Y-23002D01*
X52042Y-23026D01*
X52138Y-23026D01*
X52185Y-23002D01*
X52209Y-22978D01*
X52233Y-22930D01*
X52233Y-22526D01*
X52423Y-22526D02*
X52757Y-23026D01*
X52757Y-22526D02*
X52423Y-23026D01*
X52947Y-22835D02*
X53328Y-22835D01*
X51519Y-21435D02*
X51900Y-21435D01*
X51709Y-21626D02*
X51709Y-21245D01*
X52400Y-21626D02*
X52114Y-21626D01*
X52257Y-21626D02*
X52257Y-21126D01*
X52209Y-21197D01*
X52161Y-21245D01*
X52114Y-21269D01*
X52590Y-21173D02*
X52614Y-21150D01*
X52661Y-21126D01*
X52780Y-21126D01*
X52828Y-21150D01*
X52852Y-21173D01*
X52876Y-21221D01*
X52876Y-21269D01*
X52852Y-21340D01*
X52566Y-21626D01*
X52876Y-21626D01*
X53019Y-21126D02*
X53185Y-21626D01*
X53352Y-21126D01*
X51780Y-19750D02*
X51733Y-19726D01*
X51661Y-19726D01*
X51590Y-19750D01*
X51542Y-19797D01*
X51519Y-19845D01*
X51495Y-19940D01*
X51495Y-20011D01*
X51519Y-20107D01*
X51542Y-20154D01*
X51590Y-20202D01*
X51661Y-20226D01*
X51709Y-20226D01*
X51780Y-20202D01*
X51804Y-20178D01*
X51804Y-20011D01*
X51709Y-20011D01*
X52019Y-20226D02*
X52019Y-19726D01*
X52304Y-20226D01*
X52304Y-19726D01*
X52542Y-20226D02*
X52542Y-19726D01*
X52661Y-19726D01*
X52733Y-19750D01*
X52780Y-19797D01*
X52804Y-19845D01*
X52828Y-19940D01*
X52828Y-20011D01*
X52804Y-20107D01*
X52780Y-20154D01*
X52733Y-20202D01*
X52661Y-20226D01*
X52542Y-20226D01*
X51780Y-18350D02*
X51733Y-18326D01*
X51661Y-18326D01*
X51590Y-18350D01*
X51542Y-18397D01*
X51519Y-18445D01*
X51495Y-18540D01*
X51495Y-18611D01*
X51519Y-18707D01*
X51542Y-18754D01*
X51590Y-18802D01*
X51661Y-18826D01*
X51709Y-18826D01*
X51780Y-18802D01*
X51804Y-18778D01*
X51804Y-18611D01*
X51709Y-18611D01*
X52019Y-18826D02*
X52019Y-18326D01*
X52304Y-18826D01*
X52304Y-18326D01*
X52542Y-18826D02*
X52542Y-18326D01*
X52661Y-18326D01*
X52733Y-18350D01*
X52780Y-18397D01*
X52804Y-18445D01*
X52828Y-18540D01*
X52828Y-18611D01*
X52804Y-18707D01*
X52780Y-18754D01*
X52733Y-18802D01*
X52661Y-18826D01*
X52542Y-18826D01*
X51804Y-17378D02*
X51780Y-17402D01*
X51709Y-17426D01*
X51661Y-17426D01*
X51590Y-17402D01*
X51542Y-17354D01*
X51519Y-17307D01*
X51495Y-17211D01*
X51495Y-17140D01*
X51519Y-17045D01*
X51542Y-16997D01*
X51590Y-16950D01*
X51661Y-16926D01*
X51709Y-16926D01*
X51780Y-16950D01*
X51804Y-16973D01*
X52304Y-17378D02*
X52280Y-17402D01*
X52209Y-17426D01*
X52161Y-17426D01*
X52090Y-17402D01*
X52042Y-17354D01*
X52019Y-17307D01*
X51995Y-17211D01*
X51995Y-17140D01*
X52019Y-17045D01*
X52042Y-16997D01*
X52090Y-16950D01*
X52161Y-16926D01*
X52209Y-16926D01*
X52280Y-16950D01*
X52304Y-16973D01*
X52804Y-17426D02*
X52638Y-17188D01*
X52519Y-17426D02*
X52519Y-16926D01*
X52709Y-16926D01*
X52757Y-16950D01*
X52780Y-16973D01*
X52804Y-17021D01*
X52804Y-17092D01*
X52780Y-17140D01*
X52757Y-17164D01*
X52709Y-17188D01*
X52519Y-17188D01*
X52971Y-17426D02*
X53233Y-17092D01*
X52971Y-17092D02*
X53233Y-17426D01*
X51804Y-15978D02*
X51780Y-16002D01*
X51709Y-16026D01*
X51661Y-16026D01*
X51590Y-16002D01*
X51542Y-15954D01*
X51519Y-15907D01*
X51495Y-15811D01*
X51495Y-15740D01*
X51519Y-15645D01*
X51542Y-15597D01*
X51590Y-15550D01*
X51661Y-15526D01*
X51709Y-15526D01*
X51780Y-15550D01*
X51804Y-15573D01*
X52304Y-15978D02*
X52280Y-16002D01*
X52209Y-16026D01*
X52161Y-16026D01*
X52090Y-16002D01*
X52042Y-15954D01*
X52019Y-15907D01*
X51995Y-15811D01*
X51995Y-15740D01*
X52019Y-15645D01*
X52042Y-15597D01*
X52090Y-15550D01*
X52161Y-15526D01*
X52209Y-15526D01*
X52280Y-15550D01*
X52304Y-15573D01*
X52447Y-15526D02*
X52733Y-15526D01*
X52590Y-16026D02*
X52590Y-15526D01*
X52852Y-16026D02*
X53114Y-15692D01*
X52852Y-15692D02*
X53114Y-16026D01*
X51519Y-14435D02*
X51900Y-14435D01*
X51709Y-14626D02*
X51709Y-14245D01*
X52376Y-14126D02*
X52138Y-14126D01*
X52114Y-14364D01*
X52138Y-14340D01*
X52185Y-14316D01*
X52304Y-14316D01*
X52352Y-14340D01*
X52376Y-14364D01*
X52400Y-14411D01*
X52400Y-14530D01*
X52376Y-14578D01*
X52352Y-14602D01*
X52304Y-14626D01*
X52185Y-14626D01*
X52138Y-14602D01*
X52114Y-14578D01*
X52542Y-14126D02*
X52709Y-14626D01*
X52876Y-14126D01*
X51519Y-13226D02*
X51519Y-12726D01*
X51638Y-12726D01*
X51709Y-12750D01*
X51757Y-12797D01*
X51780Y-12845D01*
X51804Y-12940D01*
X51804Y-13011D01*
X51780Y-13107D01*
X51757Y-13154D01*
X51709Y-13202D01*
X51638Y-13226D01*
X51519Y-13226D01*
X52304Y-13226D02*
X52138Y-12988D01*
X52019Y-13226D02*
X52019Y-12726D01*
X52209Y-12726D01*
X52257Y-12750D01*
X52280Y-12773D01*
X52304Y-12821D01*
X52304Y-12892D01*
X52280Y-12940D01*
X52257Y-12964D01*
X52209Y-12988D01*
X52019Y-12988D01*
X52495Y-13202D02*
X52566Y-13226D01*
X52685Y-13226D01*
X52733Y-13202D01*
X52757Y-13178D01*
X52780Y-13130D01*
X52780Y-13083D01*
X52757Y-13035D01*
X52733Y-13011D01*
X52685Y-12988D01*
X52590Y-12964D01*
X52542Y-12940D01*
X52519Y-12916D01*
X52495Y-12869D01*
X52495Y-12821D01*
X52519Y-12773D01*
X52542Y-12750D01*
X52590Y-12726D01*
X52709Y-12726D01*
X52780Y-12750D01*
X52995Y-13226D02*
X52995Y-12726D01*
X53280Y-13226D01*
X53280Y-12726D01*
X51495Y-11802D02*
X51566Y-11826D01*
X51685Y-11826D01*
X51733Y-11802D01*
X51757Y-11778D01*
X51780Y-11730D01*
X51780Y-11683D01*
X51757Y-11635D01*
X51733Y-11611D01*
X51685Y-11588D01*
X51590Y-11564D01*
X51542Y-11540D01*
X51519Y-11516D01*
X51495Y-11469D01*
X51495Y-11421D01*
X51519Y-11373D01*
X51542Y-11350D01*
X51590Y-11326D01*
X51709Y-11326D01*
X51780Y-11350D01*
X51923Y-11326D02*
X52209Y-11326D01*
X52066Y-11826D02*
X52066Y-11326D01*
X52376Y-11826D02*
X52376Y-11326D01*
X52661Y-11826D02*
X52447Y-11540D01*
X52661Y-11326D02*
X52376Y-11611D01*
X52876Y-11635D02*
X53257Y-11635D01*
X51519Y-10235D02*
X51900Y-10235D01*
X51709Y-10426D02*
X51709Y-10045D01*
X52400Y-10426D02*
X52114Y-10426D01*
X52257Y-10426D02*
X52257Y-9926D01*
X52209Y-9997D01*
X52161Y-10045D01*
X52114Y-10069D01*
X52590Y-9973D02*
X52614Y-9950D01*
X52661Y-9926D01*
X52780Y-9926D01*
X52828Y-9950D01*
X52852Y-9973D01*
X52876Y-10021D01*
X52876Y-10069D01*
X52852Y-10140D01*
X52566Y-10426D01*
X52876Y-10426D01*
X53019Y-9926D02*
X53185Y-10426D01*
X53352Y-9926D01*
X51757Y-9226D02*
X51519Y-9226D01*
X51519Y-8726D01*
X52185Y-8750D02*
X52138Y-8726D01*
X52066Y-8726D01*
X51995Y-8750D01*
X51947Y-8797D01*
X51923Y-8845D01*
X51900Y-8940D01*
X51900Y-9011D01*
X51923Y-9107D01*
X51947Y-9154D01*
X51995Y-9202D01*
X52066Y-9226D01*
X52114Y-9226D01*
X52185Y-9202D01*
X52209Y-9178D01*
X52209Y-9011D01*
X52114Y-9011D01*
X52352Y-8726D02*
X52638Y-8726D01*
X52495Y-9226D02*
X52495Y-8726D01*
X52804Y-9035D02*
X53185Y-9035D01*
X51369Y-8035D02*
X51750Y-8035D01*
X51559Y-8226D02*
X51559Y-7845D01*
X52250Y-8226D02*
X51964Y-8226D01*
X52107Y-8226D02*
X52107Y-7726D01*
X52059Y-7797D01*
X52011Y-7845D01*
X51964Y-7869D01*
X52440Y-7773D02*
X52464Y-7750D01*
X52511Y-7726D01*
X52630Y-7726D01*
X52678Y-7750D01*
X52702Y-7773D01*
X52726Y-7821D01*
X52726Y-7869D01*
X52702Y-7940D01*
X52416Y-8226D01*
X52726Y-8226D01*
X52869Y-7726D02*
X53035Y-8226D01*
X53202Y-7726D01*
G54D15*
X16630Y-30830D02*
X16630Y-22169D01*
X16630Y-22169D02*
X6197Y-22169D01*
X6197Y-22169D02*
X6197Y-30830D01*
X6197Y-30830D02*
X16630Y-30830D01*
G54D10*
X20900Y-35600D02*
X20900Y-5600D01*
X20900Y-5600D02*
X37900Y-5600D01*
X37900Y-5600D02*
X37900Y-35600D01*
X37900Y-35600D02*
X20900Y-35600D01*
G54D15*
X38500Y-9400D02*
X38500Y-6400D01*
X40500Y-6400D02*
X40500Y-9400D01*
X40500Y-9400D02*
X38500Y-9400D01*
X38500Y-6400D02*
X40500Y-6400D01*
G54D16*
X33950Y-19750D02*
G75*
G03X33950Y-19750I-50J0D01*
G74*
G01*
X33900Y-19300D02*
X33900Y-19700D01*
X33900Y-19700D02*
X33300Y-19700D01*
X33300Y-19700D02*
X33300Y-19300D01*
X33300Y-18900D02*
X33300Y-18500D01*
X33300Y-18500D02*
X33900Y-18500D01*
X33900Y-18500D02*
X33900Y-18900D01*
X32425Y-18450D02*
G75*
G03X32425Y-18450I-50J0D01*
G74*
G01*
X32375Y-18900D02*
X32375Y-18500D01*
X32375Y-18500D02*
X32975Y-18500D01*
X32975Y-18500D02*
X32975Y-18900D01*
X32975Y-19300D02*
X32975Y-19700D01*
X32975Y-19700D02*
X32375Y-19700D01*
X32375Y-19700D02*
X32375Y-19300D01*
X26555Y-22015D02*
G75*
G03X26555Y-22015I-50J0D01*
G74*
G01*
X26505Y-22465D02*
X26505Y-22065D01*
X26505Y-22065D02*
X27105Y-22065D01*
X27105Y-22065D02*
X27105Y-22465D01*
X27105Y-22865D02*
X27105Y-23265D01*
X27105Y-23265D02*
X26505Y-23265D01*
X26505Y-23265D02*
X26505Y-22865D01*
X31550Y-18450D02*
G75*
G03X31550Y-18450I-50J0D01*
G74*
G01*
X31500Y-18900D02*
X31500Y-18500D01*
X31500Y-18500D02*
X32100Y-18500D01*
X32100Y-18500D02*
X32100Y-18900D01*
X32100Y-19300D02*
X32100Y-19700D01*
X32100Y-19700D02*
X31500Y-19700D01*
X31500Y-19700D02*
X31500Y-19300D01*
X30000Y-19000D02*
G75*
G03X30000Y-19000I-50J0D01*
G74*
G01*
X30400Y-19000D02*
X30000Y-19000D01*
X30000Y-19000D02*
X30000Y-18400D01*
X30000Y-18400D02*
X30400Y-18400D01*
X30800Y-18400D02*
X31200Y-18400D01*
X31200Y-18400D02*
X31200Y-19000D01*
X31200Y-19000D02*
X30800Y-19000D01*
X30000Y-19900D02*
G75*
G03X30000Y-19900I-50J0D01*
G74*
G01*
X30400Y-19900D02*
X30000Y-19900D01*
X30000Y-19900D02*
X30000Y-19300D01*
X30000Y-19300D02*
X30400Y-19300D01*
X30800Y-19300D02*
X31200Y-19300D01*
X31200Y-19300D02*
X31200Y-19900D01*
X31200Y-19900D02*
X30800Y-19900D01*
G54D17*
X42300Y-11600D02*
X43300Y-11600D01*
X43300Y-11600D02*
X43300Y-14600D01*
X43300Y-14600D02*
X42300Y-14600D01*
X42300Y-14600D02*
X42300Y-11600D01*
X43300Y-12600D02*
X42300Y-12600D01*
G54D18*
X41800Y-13500D02*
X40800Y-13500D01*
X40800Y-13500D02*
X40800Y-5500D01*
X40800Y-5500D02*
X41800Y-5500D01*
X41800Y-5500D02*
X41800Y-13500D01*
X41800Y-12500D02*
X40800Y-12500D01*
G54D12*
X42600Y-19500D02*
X40600Y-19500D01*
X41100Y-15500D02*
X42600Y-15500D01*
X42600Y-15500D02*
X42600Y-19500D01*
X40600Y-19500D02*
X40600Y-15500D01*
X40600Y-15500D02*
X41100Y-15500D01*
X42600Y-17000D02*
X42350Y-17500D01*
X42350Y-17500D02*
X42100Y-17250D01*
X42100Y-17250D02*
X42600Y-17000D01*
X41600Y-18000D02*
X42600Y-17000D01*
G54D16*
X46850Y-27400D02*
G75*
G03X46850Y-27400I-50J0D01*
G74*
G01*
X47250Y-27400D02*
X46850Y-27400D01*
X46850Y-27400D02*
X46850Y-26800D01*
X46850Y-26800D02*
X47250Y-26800D01*
X47650Y-26800D02*
X48050Y-26800D01*
X48050Y-26800D02*
X48050Y-27400D01*
X48050Y-27400D02*
X47650Y-27400D01*
X47050Y-13150D02*
G75*
G03X47050Y-13150I-50J0D01*
G74*
G01*
X47000Y-13600D02*
X47000Y-13200D01*
X47000Y-13200D02*
X47600Y-13200D01*
X47600Y-13200D02*
X47600Y-13600D01*
X47600Y-14000D02*
X47600Y-14400D01*
X47600Y-14400D02*
X47000Y-14400D01*
X47000Y-14400D02*
X47000Y-14000D01*
G54D15*
X45600Y-23300D02*
X45600Y-20700D01*
X45200Y-23300D02*
X45750Y-23300D01*
X45750Y-23300D02*
X45750Y-20700D01*
X45750Y-20700D02*
X44750Y-20700D01*
X44750Y-20700D02*
X44750Y-23300D01*
X44750Y-23300D02*
X45200Y-23300D01*
X45800Y-13700D02*
X45800Y-11100D01*
X45400Y-13700D02*
X45950Y-13700D01*
X45950Y-13700D02*
X45950Y-11100D01*
X45950Y-11100D02*
X44950Y-11100D01*
X44950Y-11100D02*
X44950Y-13700D01*
X44950Y-13700D02*
X45400Y-13700D01*
X46000Y-10200D02*
X46000Y-7600D01*
X45600Y-10200D02*
X46150Y-10200D01*
X46150Y-10200D02*
X46150Y-7600D01*
X46150Y-7600D02*
X45150Y-7600D01*
X45150Y-7600D02*
X45150Y-10200D01*
X45150Y-10200D02*
X45600Y-10200D01*
X41400Y-23300D02*
X41400Y-20700D01*
X41000Y-23300D02*
X41550Y-23300D01*
X41550Y-23300D02*
X41550Y-20700D01*
X41550Y-20700D02*
X40550Y-20700D01*
X40550Y-20700D02*
X40550Y-23300D01*
X40550Y-23300D02*
X41000Y-23300D01*
G54D18*
X38400Y-15500D02*
X40200Y-15500D01*
X40200Y-15500D02*
X40200Y-23300D01*
X40200Y-23300D02*
X38400Y-23300D01*
X38400Y-23300D02*
X38400Y-15500D01*
X43300Y-5500D02*
X42300Y-5500D01*
X42300Y-10500D02*
X43300Y-10500D01*
X43300Y-5500D02*
X43300Y-10500D01*
X42300Y-10500D02*
X42300Y-5500D01*
X32420Y-21080D02*
X32420Y-25020D01*
X32420Y-25020D02*
X28480Y-25020D01*
X28480Y-21270D02*
X28480Y-25020D01*
X28670Y-21080D02*
X32420Y-21080D01*
X28480Y-21270D02*
X28670Y-21080D01*
G54D15*
X29200Y-21550D02*
G75*
G03X29200Y-21550I-250J0D01*
G74*
G01*
G54D13*
X7450Y-32300D02*
G75*
G03X7450Y-32300I-50J0D01*
G74*
G01*
G54D10*
X7200Y-32000D02*
X7200Y-33600D01*
G54D11*
X7100Y-32000D02*
X7050Y-32000D01*
X7050Y-32000D02*
X7050Y-33600D01*
X8550Y-33600D02*
X8550Y-32000D01*
X8550Y-32000D02*
X7100Y-32000D01*
X8550Y-33600D02*
X7050Y-33600D01*
G54D15*
X30320Y-30855D02*
X30320Y-31155D01*
X30320Y-31155D02*
X29720Y-31155D01*
X29720Y-31155D02*
X29720Y-30855D01*
X30920Y-35255D02*
X29120Y-35255D01*
X29120Y-35255D02*
X29120Y-30855D01*
X29120Y-30855D02*
X30920Y-30855D01*
X30920Y-30855D02*
X30920Y-35255D01*
G54D16*
X35500Y-23300D02*
G75*
G03X35500Y-23300I-50J0D01*
G74*
G01*
X35000Y-23300D02*
X35400Y-23300D01*
X35400Y-23300D02*
X35400Y-23900D01*
X35400Y-23900D02*
X35000Y-23900D01*
X34600Y-23900D02*
X34200Y-23900D01*
X34200Y-23900D02*
X34200Y-23300D01*
X34200Y-23300D02*
X34600Y-23300D01*
X6800Y-31700D02*
G75*
G03X6800Y-31700I-50J0D01*
G74*
G01*
X7200Y-31700D02*
X6800Y-31700D01*
X6800Y-31700D02*
X6800Y-31100D01*
X6800Y-31100D02*
X7200Y-31100D01*
X7600Y-31100D02*
X8000Y-31100D01*
X8000Y-31100D02*
X8000Y-31700D01*
X8000Y-31700D02*
X7600Y-31700D01*
X27270Y-32055D02*
G75*
G03X27270Y-32055I-50J0D01*
G74*
G01*
X27220Y-31605D02*
X27220Y-32005D01*
X27220Y-32005D02*
X26620Y-32005D01*
X26620Y-32005D02*
X26620Y-31605D01*
X26620Y-31205D02*
X26620Y-30805D01*
X26620Y-30805D02*
X27220Y-30805D01*
X27220Y-30805D02*
X27220Y-31205D01*
X30620Y-30105D02*
G75*
G03X30620Y-30105I-50J0D01*
G74*
G01*
X30120Y-30105D02*
X30520Y-30105D01*
X30520Y-30105D02*
X30520Y-30705D01*
X30520Y-30705D02*
X30120Y-30705D01*
X29720Y-30705D02*
X29320Y-30705D01*
X29320Y-30705D02*
X29320Y-30105D01*
X29320Y-30105D02*
X29720Y-30105D01*
X27470Y-31155D02*
G75*
G03X27470Y-31155I-50J0D01*
G74*
G01*
X27420Y-31605D02*
X27420Y-31205D01*
X27420Y-31205D02*
X28020Y-31205D01*
X28020Y-31205D02*
X28020Y-31605D01*
X28020Y-32005D02*
X28020Y-32405D01*
X28020Y-32405D02*
X27420Y-32405D01*
X27420Y-32405D02*
X27420Y-32005D01*
X27120Y-33305D02*
G75*
G03X27120Y-33305I-50J0D01*
G74*
G01*
X27520Y-33305D02*
X27120Y-33305D01*
X27120Y-33305D02*
X27120Y-32705D01*
X27120Y-32705D02*
X27520Y-32705D01*
X27920Y-32705D02*
X28320Y-32705D01*
X28320Y-32705D02*
X28320Y-33305D01*
X28320Y-33305D02*
X27920Y-33305D01*
X27120Y-34105D02*
G75*
G03X27120Y-34105I-50J0D01*
G74*
G01*
X27520Y-34105D02*
X27120Y-34105D01*
X27120Y-34105D02*
X27120Y-33505D01*
X27120Y-33505D02*
X27520Y-33505D01*
X27920Y-33505D02*
X28320Y-33505D01*
X28320Y-33505D02*
X28320Y-34105D01*
X28320Y-34105D02*
X27920Y-34105D01*
X46850Y-28300D02*
G75*
G03X46850Y-28300I-50J0D01*
G74*
G01*
X47250Y-28300D02*
X46850Y-28300D01*
X46850Y-28300D02*
X46850Y-27700D01*
X46850Y-27700D02*
X47250Y-27700D01*
X47650Y-27700D02*
X48050Y-27700D01*
X48050Y-27700D02*
X48050Y-28300D01*
X48050Y-28300D02*
X47650Y-28300D01*
X34900Y-22500D02*
G75*
G03X34900Y-22500I-50J0D01*
G74*
G01*
X34400Y-22500D02*
X34800Y-22500D01*
X34800Y-22500D02*
X34800Y-23100D01*
X34800Y-23100D02*
X34400Y-23100D01*
X34000Y-23100D02*
X33600Y-23100D01*
X33600Y-23100D02*
X33600Y-22500D01*
X33600Y-22500D02*
X34000Y-22500D01*
X23550Y-22350D02*
G75*
G03X23550Y-22350I-50J0D01*
G74*
G01*
X23500Y-22800D02*
X23500Y-22400D01*
X23500Y-22400D02*
X24100Y-22400D01*
X24100Y-22400D02*
X24100Y-22800D01*
X24100Y-23200D02*
X24100Y-23600D01*
X24100Y-23600D02*
X23500Y-23600D01*
X23500Y-23600D02*
X23500Y-23200D01*
X23550Y-23950D02*
G75*
G03X23550Y-23950I-50J0D01*
G74*
G01*
X23500Y-24400D02*
X23500Y-24000D01*
X23500Y-24000D02*
X24100Y-24000D01*
X24100Y-24000D02*
X24100Y-24400D01*
X24100Y-24800D02*
X24100Y-25200D01*
X24100Y-25200D02*
X23500Y-25200D01*
X23500Y-25200D02*
X23500Y-24800D01*
X42225Y-15465D02*
G75*
G03X42225Y-15465I-50J0D01*
G74*
G01*
X42175Y-15015D02*
X42175Y-15415D01*
X42175Y-15415D02*
X41575Y-15415D01*
X41575Y-15415D02*
X41575Y-15015D01*
X41575Y-14615D02*
X41575Y-14215D01*
X41575Y-14215D02*
X42175Y-14215D01*
X42175Y-14215D02*
X42175Y-14615D01*
G54D19*
X51177Y-6579D02*
X48422Y-6579D01*
X51177Y-29020D02*
X48422Y-29020D01*
X51177Y-6579D02*
X51177Y-29020D01*
X48422Y-29020D02*
X48422Y-6579D01*
G54D18*
X26100Y-35850D02*
X26100Y-38450D01*
X26100Y-38450D02*
X37900Y-38450D01*
X37900Y-38450D02*
X37900Y-35850D01*
X37900Y-35850D02*
X26100Y-35850D01*
G54D12*
X24486Y-21287D02*
X24486Y-25893D01*
X26454Y-25893D02*
X26454Y-21287D01*
X24486Y-25893D02*
X24820Y-25893D01*
X26454Y-25893D02*
X26120Y-25893D01*
X24486Y-21287D02*
X24820Y-21287D01*
X26454Y-21287D02*
X26120Y-21287D01*
G54D18*
X42395Y-30980D02*
G75*
G03X42395Y-30980I-2195J0D01*
G74*
G01*
X45115Y-34620D02*
G75*
G03X45115Y-34620I-2195J0D01*
G74*
G01*
X42395Y-26480D02*
G75*
G03X42395Y-26480I-2195J0D01*
G74*
G01*
X46895Y-25800D02*
G75*
G03X46895Y-25800I-2195J0D01*
G74*
G01*
X51145Y-31350D02*
G75*
G03X51145Y-31350I-2195J0D01*
G74*
G01*
X46795Y-30300D02*
G75*
G03X46795Y-30300I-2195J0D01*
G74*
G01*
G54D16*
X30055Y-26610D02*
G75*
G03X30055Y-26610I-50J0D01*
G74*
G01*
X30455Y-26610D02*
X30055Y-26610D01*
X30055Y-26610D02*
X30055Y-26010D01*
X30055Y-26010D02*
X30455Y-26010D01*
X30855Y-26010D02*
X31255Y-26010D01*
X31255Y-26010D02*
X31255Y-26610D01*
X31255Y-26610D02*
X30855Y-26610D01*
G54D18*
X46080Y-34680D02*
X46580Y-34680D01*
X46580Y-34680D02*
X46580Y-35680D01*
X46580Y-35680D02*
X50580Y-35680D01*
X50580Y-35680D02*
X50580Y-34680D01*
X50580Y-34680D02*
X51080Y-34680D01*
X50580Y-34680D02*
X50580Y-33680D01*
X50580Y-33680D02*
X46580Y-33680D01*
X46580Y-33680D02*
X46580Y-34680D01*
X47080Y-35680D02*
X47080Y-33680D01*
X46980Y-35680D02*
X46980Y-33680D01*
X10600Y-32000D02*
X11100Y-32000D01*
X11100Y-32000D02*
X11100Y-33000D01*
X11100Y-33000D02*
X15100Y-33000D01*
X15100Y-33000D02*
X15100Y-32000D01*
X15100Y-32000D02*
X15600Y-32000D01*
X15100Y-32000D02*
X15100Y-31000D01*
X15100Y-31000D02*
X11100Y-31000D01*
X11100Y-31000D02*
X11100Y-32000D01*
X11600Y-33000D02*
X11600Y-31000D01*
X11500Y-33000D02*
X11500Y-31000D01*
X47200Y-16800D02*
X47200Y-17300D01*
X47200Y-17300D02*
X46200Y-17300D01*
X46200Y-17300D02*
X46200Y-21300D01*
X46200Y-21300D02*
X47200Y-21300D01*
X47200Y-21300D02*
X47200Y-21800D01*
X47200Y-21300D02*
X48200Y-21300D01*
X48200Y-21300D02*
X48200Y-17300D01*
X48200Y-17300D02*
X47200Y-17300D01*
X46200Y-17800D02*
X48200Y-17800D01*
X46200Y-17700D02*
X48200Y-17700D01*
X45000Y-19700D02*
X45000Y-19200D01*
X45000Y-19200D02*
X46000Y-19200D01*
X46000Y-19200D02*
X46000Y-15200D01*
X46000Y-15200D02*
X45000Y-15200D01*
X45000Y-15200D02*
X45000Y-14700D01*
X45000Y-15200D02*
X44000Y-15200D01*
X44000Y-15200D02*
X44000Y-19200D01*
X44000Y-19200D02*
X45000Y-19200D01*
X46000Y-18700D02*
X44000Y-18700D01*
X46000Y-18800D02*
X44000Y-18800D01*
X47300Y-7100D02*
X47300Y-7600D01*
X47300Y-7600D02*
X46300Y-7600D01*
X46300Y-7600D02*
X46300Y-11600D01*
X46300Y-11600D02*
X47300Y-11600D01*
X47300Y-11600D02*
X47300Y-12100D01*
X47300Y-11600D02*
X48300Y-11600D01*
X48300Y-11600D02*
X48300Y-7600D01*
X48300Y-7600D02*
X47300Y-7600D01*
X46300Y-8100D02*
X48300Y-8100D01*
X46300Y-8000D02*
X48300Y-8000D01*
X8206Y-6917D02*
X15293Y-6917D01*
X15293Y-6917D02*
X15293Y-9082D01*
X15293Y-9082D02*
X8206Y-9082D01*
X8206Y-9082D02*
X8206Y-6917D01*
X14750Y-6250D02*
X14350Y-6250D01*
X14350Y-6250D02*
X14350Y-6650D01*
X14350Y-6650D02*
X11150Y-6650D01*
X11150Y-6650D02*
X11150Y-5850D01*
X11150Y-5850D02*
X14350Y-5850D01*
X14350Y-5850D02*
X14350Y-6250D01*
X14350Y-6450D02*
X14150Y-6650D01*
X10750Y-6250D02*
X11150Y-6250D01*
G54D10*
X6187Y-21851D02*
X6187Y-9348D01*
X6187Y-9348D02*
X13577Y-9348D01*
X13589Y-9348D02*
X13589Y-21851D01*
X13589Y-21851D02*
X6187Y-21851D01*
G54D16*
X50350Y-39400D02*
G75*
G03X50350Y-39400I-50J0D01*
G74*
G01*
X50300Y-38950D02*
X50300Y-39350D01*
X50300Y-39350D02*
X49700Y-39350D01*
X49700Y-39350D02*
X49700Y-38950D01*
X49700Y-38550D02*
X49700Y-38150D01*
X49700Y-38150D02*
X50300Y-38150D01*
X50300Y-38150D02*
X50300Y-38550D01*
X44850Y-39400D02*
G75*
G03X44850Y-39400I-50J0D01*
G74*
G01*
X44800Y-38950D02*
X44800Y-39350D01*
X44800Y-39350D02*
X44200Y-39350D01*
X44200Y-39350D02*
X44200Y-38950D01*
X44200Y-38550D02*
X44200Y-38150D01*
X44200Y-38150D02*
X44800Y-38150D01*
X44800Y-38150D02*
X44800Y-38550D01*
G54D14*
X49515Y-39500D02*
X44985Y-39500D01*
X49515Y-35960D02*
X49515Y-39500D01*
X49515Y-39200D02*
X44985Y-39200D01*
X44985Y-39500D02*
X44985Y-35960D01*
X44985Y-35960D02*
X49515Y-35960D01*
G54D16*
X33950Y-24050D02*
G75*
G03X33950Y-24050I-50J0D01*
G74*
G01*
X33900Y-24500D02*
X33900Y-24100D01*
X33900Y-24100D02*
X34500Y-24100D01*
X34500Y-24100D02*
X34500Y-24500D01*
X34500Y-24900D02*
X34500Y-25300D01*
X34500Y-25300D02*
X33900Y-25300D01*
X33900Y-25300D02*
X33900Y-24900D01*
X25050Y-15850D02*
G75*
G03X25050Y-15850I-50J0D01*
G74*
G01*
X25000Y-15400D02*
X25000Y-15800D01*
X25000Y-15800D02*
X24400Y-15800D01*
X24400Y-15800D02*
X24400Y-15400D01*
X24400Y-15000D02*
X24400Y-14600D01*
X24400Y-14600D02*
X25000Y-14600D01*
X25000Y-14600D02*
X25000Y-15000D01*
G54D20*
X25074Y-29847D02*
G75*
G03X25074Y-29847I-62J0D01*
G74*
G01*
X25350Y-30810D02*
X24950Y-30810D01*
X25350Y-29785D02*
X24950Y-29785D01*
X24950Y-30810D02*
X24950Y-29785D01*
X25350Y-29785D02*
X25350Y-30810D01*
X25074Y-32337D02*
G75*
G03X25074Y-32337I-62J0D01*
G74*
G01*
X25350Y-33300D02*
X24950Y-33300D01*
X25350Y-32275D02*
X24950Y-32275D01*
X24950Y-33300D02*
X24950Y-32275D01*
X25350Y-32275D02*
X25350Y-33300D01*
G54D16*
X24315Y-30960D02*
G75*
G03X24315Y-30960I-50J0D01*
G74*
G01*
X24265Y-30510D02*
X24265Y-30910D01*
X24265Y-30910D02*
X23665Y-30910D01*
X23665Y-30910D02*
X23665Y-30510D01*
X23665Y-30110D02*
X23665Y-29710D01*
X23665Y-29710D02*
X24265Y-29710D01*
X24265Y-29710D02*
X24265Y-30110D01*
X25775Y-28945D02*
G75*
G03X25775Y-28945I-50J0D01*
G74*
G01*
X25275Y-28945D02*
X25675Y-28945D01*
X25675Y-28945D02*
X25675Y-29545D01*
X25675Y-29545D02*
X25275Y-29545D01*
X24875Y-29545D02*
X24475Y-29545D01*
X24475Y-29545D02*
X24475Y-28945D01*
X24475Y-28945D02*
X24875Y-28945D01*
X24270Y-33450D02*
G75*
G03X24270Y-33450I-50J0D01*
G74*
G01*
X24220Y-33000D02*
X24220Y-33400D01*
X24220Y-33400D02*
X23620Y-33400D01*
X23620Y-33400D02*
X23620Y-33000D01*
X23620Y-32600D02*
X23620Y-32200D01*
X23620Y-32200D02*
X24220Y-32200D01*
X24220Y-32200D02*
X24220Y-32600D01*
X25745Y-31405D02*
G75*
G03X25745Y-31405I-50J0D01*
G74*
G01*
X25245Y-31405D02*
X25645Y-31405D01*
X25645Y-31405D02*
X25645Y-32005D01*
X25645Y-32005D02*
X25245Y-32005D01*
X24845Y-32005D02*
X24445Y-32005D01*
X24445Y-32005D02*
X24445Y-31405D01*
X24445Y-31405D02*
X24845Y-31405D01*
X51050Y-32650D02*
G75*
G03X51050Y-32650I-50J0D01*
G74*
G01*
X51000Y-33100D02*
X51000Y-32700D01*
X51000Y-32700D02*
X51600Y-32700D01*
X51600Y-32700D02*
X51600Y-33100D01*
X51600Y-33500D02*
X51600Y-33900D01*
X51600Y-33900D02*
X51000Y-33900D01*
X51000Y-33900D02*
X51000Y-33500D01*
G54D12*
X7400Y-6500D02*
G75*
G03X7400Y-6500I-900J0D01*
G74*
G01*
X53400Y-6500D02*
G75*
G03X53400Y-6500I-900J0D01*
G74*
G01*
X53400Y-39500D02*
G75*
G03X53400Y-39500I-900J0D01*
G74*
G01*
X7400Y-39500D02*
G75*
G03X7400Y-39500I-900J0D01*
G74*
G01*
G54D21*
G36*
X20495Y-39872D02*
X20494Y-39895D01*
X20494Y-39912D01*
X20492Y-39924D01*
X20490Y-39933D01*
X20488Y-39940D01*
X20485Y-39947D01*
X20471Y-39966D01*
X20452Y-39985D01*
X20433Y-39998D01*
X20433Y-39850D01*
X20433Y-39841D01*
X20433Y-39814D01*
X20433Y-39795D01*
X20432Y-39781D01*
X20430Y-39771D01*
X20427Y-39764D01*
X20425Y-39760D01*
X20413Y-39745D01*
X20398Y-39737D01*
X20388Y-39736D01*
X20370Y-39735D01*
X20356Y-39739D01*
X20345Y-39747D01*
X20340Y-39751D01*
X20325Y-39766D01*
X20325Y-39840D01*
X20325Y-39870D01*
X20326Y-39893D01*
X20328Y-39910D01*
X20331Y-39922D01*
X20337Y-39930D01*
X20344Y-39937D01*
X20352Y-39942D01*
X20369Y-39947D01*
X20388Y-39948D01*
X20405Y-39943D01*
X20409Y-39941D01*
X20418Y-39934D01*
X20424Y-39926D01*
X20429Y-39915D01*
X20432Y-39899D01*
X20433Y-39878D01*
X20433Y-39850D01*
X20433Y-39998D01*
X20431Y-39999D01*
X20413Y-40007D01*
X20393Y-40010D01*
X20369Y-40010D01*
X20345Y-40007D01*
X20335Y-40005D01*
X20331Y-40004D01*
X20328Y-40005D01*
X20326Y-40009D01*
X20325Y-40019D01*
X20325Y-40035D01*
X20325Y-40052D01*
X20325Y-40103D01*
X20295Y-40116D01*
X20280Y-40123D01*
X20269Y-40127D01*
X20263Y-40129D01*
X20263Y-40129D01*
X20263Y-40125D01*
X20263Y-40112D01*
X20262Y-40093D01*
X20262Y-40067D01*
X20262Y-40036D01*
X20262Y-40001D01*
X20262Y-39962D01*
X20262Y-39949D01*
X20262Y-39902D01*
X20262Y-39864D01*
X20262Y-39832D01*
X20263Y-39807D01*
X20263Y-39788D01*
X20264Y-39773D01*
X20266Y-39762D01*
X20267Y-39754D01*
X20268Y-39749D01*
X20282Y-39721D01*
X20303Y-39698D01*
X20329Y-39682D01*
X20359Y-39674D01*
X20378Y-39672D01*
X20411Y-39676D01*
X20439Y-39687D01*
X20463Y-39706D01*
X20481Y-39732D01*
X20495Y-39756D01*
X20495Y-39842D01*
X20495Y-39872D01*
X20495Y-39872D01*
X20495Y-39872D01*
G37*
G36*
X21108Y-39989D02*
X21078Y-40003D01*
X21063Y-40009D01*
X21052Y-40014D01*
X21046Y-40016D01*
X21046Y-40016D01*
X21046Y-40012D01*
X21045Y-40000D01*
X21045Y-39981D01*
X21044Y-39956D01*
X21044Y-39927D01*
X21043Y-39894D01*
X21043Y-39889D01*
X21042Y-39762D01*
X21027Y-39749D01*
X21016Y-39740D01*
X21004Y-39736D01*
X20989Y-39736D01*
X20974Y-39736D01*
X20964Y-39740D01*
X20953Y-39749D01*
X20951Y-39751D01*
X20936Y-39766D01*
X20936Y-39878D01*
X20936Y-39989D01*
X20914Y-39999D01*
X20900Y-40005D01*
X20887Y-40010D01*
X20883Y-40012D01*
X20872Y-40016D01*
X20872Y-39892D01*
X20872Y-39853D01*
X20873Y-39822D01*
X20873Y-39798D01*
X20874Y-39779D01*
X20876Y-39766D01*
X20877Y-39755D01*
X20879Y-39749D01*
X20893Y-39721D01*
X20914Y-39698D01*
X20940Y-39682D01*
X20970Y-39674D01*
X20990Y-39672D01*
X21021Y-39676D01*
X21048Y-39686D01*
X21071Y-39704D01*
X21072Y-39705D01*
X21082Y-39715D01*
X21089Y-39724D01*
X21095Y-39734D01*
X21099Y-39745D01*
X21102Y-39759D01*
X21104Y-39778D01*
X21105Y-39801D01*
X21106Y-39832D01*
X21107Y-39870D01*
X21107Y-39873D01*
X21108Y-39989D01*
X21108Y-39989D01*
X21108Y-39989D01*
G37*
G36*
X20189Y-39872D02*
X20189Y-39894D01*
X20188Y-39909D01*
X20187Y-39921D01*
X20185Y-39930D01*
X20182Y-39938D01*
X20178Y-39946D01*
X20176Y-39949D01*
X20158Y-39975D01*
X20135Y-39994D01*
X20130Y-39996D01*
X20130Y-39842D01*
X20130Y-39812D01*
X20128Y-39789D01*
X20124Y-39772D01*
X20119Y-39760D01*
X20110Y-39750D01*
X20105Y-39745D01*
X20089Y-39738D01*
X20069Y-39736D01*
X20049Y-39740D01*
X20040Y-39745D01*
X20031Y-39753D01*
X20025Y-39763D01*
X20021Y-39777D01*
X20018Y-39796D01*
X20018Y-39821D01*
X20018Y-39853D01*
X20019Y-39917D01*
X20036Y-39933D01*
X20049Y-39943D01*
X20061Y-39947D01*
X20073Y-39948D01*
X20094Y-39945D01*
X20105Y-39939D01*
X20115Y-39929D01*
X20122Y-39918D01*
X20126Y-39904D01*
X20129Y-39884D01*
X20130Y-39858D01*
X20130Y-39842D01*
X20130Y-39996D01*
X20107Y-40007D01*
X20078Y-40012D01*
X20047Y-40009D01*
X20024Y-40001D01*
X20007Y-39991D01*
X19992Y-39979D01*
X19986Y-39973D01*
X19976Y-39961D01*
X19968Y-39950D01*
X19963Y-39938D01*
X19959Y-39924D01*
X19957Y-39906D01*
X19956Y-39882D01*
X19956Y-39851D01*
X19956Y-39844D01*
X19956Y-39809D01*
X19958Y-39782D01*
X19960Y-39760D01*
X19964Y-39744D01*
X19971Y-39730D01*
X19980Y-39718D01*
X19991Y-39706D01*
X19995Y-39702D01*
X20016Y-39686D01*
X20036Y-39677D01*
X20060Y-39673D01*
X20076Y-39672D01*
X20108Y-39677D01*
X20136Y-39689D01*
X20159Y-39709D01*
X20177Y-39736D01*
X20178Y-39738D01*
X20182Y-39747D01*
X20185Y-39755D01*
X20187Y-39765D01*
X20188Y-39777D01*
X20189Y-39795D01*
X20189Y-39818D01*
X20189Y-39843D01*
X20189Y-39872D01*
X20189Y-39872D01*
X20189Y-39872D01*
G37*
G36*
X20800Y-39890D02*
X20799Y-39911D01*
X20795Y-39928D01*
X20789Y-39943D01*
X20774Y-39965D01*
X20755Y-39986D01*
X20735Y-40001D01*
X20727Y-40005D01*
X20702Y-40011D01*
X20675Y-40011D01*
X20648Y-40006D01*
X20635Y-40001D01*
X20618Y-39991D01*
X20602Y-39979D01*
X20597Y-39973D01*
X20587Y-39961D01*
X20579Y-39950D01*
X20574Y-39938D01*
X20571Y-39924D01*
X20568Y-39907D01*
X20567Y-39884D01*
X20567Y-39854D01*
X20567Y-39842D01*
X20567Y-39813D01*
X20567Y-39791D01*
X20568Y-39775D01*
X20569Y-39763D01*
X20571Y-39754D01*
X20574Y-39746D01*
X20577Y-39739D01*
X20590Y-39720D01*
X20607Y-39702D01*
X20625Y-39687D01*
X20643Y-39678D01*
X20646Y-39677D01*
X20678Y-39672D01*
X20710Y-39676D01*
X20740Y-39687D01*
X20766Y-39705D01*
X20775Y-39714D01*
X20789Y-39734D01*
X20797Y-39754D01*
X20799Y-39779D01*
X20799Y-39794D01*
X20798Y-39822D01*
X20736Y-39850D01*
X20736Y-39769D01*
X20732Y-39761D01*
X20722Y-39751D01*
X20721Y-39750D01*
X20702Y-39739D01*
X20682Y-39735D01*
X20663Y-39739D01*
X20646Y-39749D01*
X20634Y-39766D01*
X20632Y-39770D01*
X20630Y-39780D01*
X20629Y-39794D01*
X20628Y-39808D01*
X20629Y-39820D01*
X20631Y-39826D01*
X20632Y-39826D01*
X20637Y-39824D01*
X20649Y-39820D01*
X20666Y-39813D01*
X20685Y-39804D01*
X20709Y-39793D01*
X20725Y-39784D01*
X20734Y-39776D01*
X20736Y-39769D01*
X20736Y-39850D01*
X20714Y-39860D01*
X20686Y-39872D01*
X20664Y-39882D01*
X20650Y-39889D01*
X20640Y-39895D01*
X20634Y-39900D01*
X20632Y-39903D01*
X20631Y-39907D01*
X20631Y-39908D01*
X20635Y-39918D01*
X20644Y-39929D01*
X20648Y-39934D01*
X20667Y-39945D01*
X20686Y-39949D01*
X20704Y-39945D01*
X20721Y-39934D01*
X20733Y-39916D01*
X20738Y-39904D01*
X20742Y-39893D01*
X20747Y-39885D01*
X20756Y-39879D01*
X20770Y-39872D01*
X20772Y-39871D01*
X20800Y-39858D01*
X20800Y-39890D01*
X20800Y-39890D01*
X20800Y-39890D01*
G37*
G36*
X21596Y-39992D02*
X21576Y-40002D01*
X21556Y-40011D01*
X21555Y-39894D01*
X21554Y-39858D01*
X21554Y-39831D01*
X21553Y-39810D01*
X21552Y-39794D01*
X21551Y-39783D01*
X21550Y-39775D01*
X21548Y-39770D01*
X21545Y-39766D01*
X21544Y-39765D01*
X21527Y-39747D01*
X21509Y-39737D01*
X21492Y-39735D01*
X21468Y-39738D01*
X21447Y-39749D01*
X21433Y-39764D01*
X21430Y-39769D01*
X21428Y-39776D01*
X21427Y-39784D01*
X21426Y-39796D01*
X21425Y-39812D01*
X21425Y-39834D01*
X21424Y-39863D01*
X21424Y-39886D01*
X21424Y-39922D01*
X21424Y-39949D01*
X21423Y-39970D01*
X21422Y-39984D01*
X21421Y-39992D01*
X21419Y-39995D01*
X21411Y-39998D01*
X21399Y-40003D01*
X21396Y-40005D01*
X21379Y-40012D01*
X21379Y-39804D01*
X21379Y-39596D01*
X21400Y-39587D01*
X21412Y-39581D01*
X21421Y-39578D01*
X21423Y-39577D01*
X21423Y-39582D01*
X21424Y-39593D01*
X21424Y-39611D01*
X21424Y-39633D01*
X21424Y-39643D01*
X21424Y-39708D01*
X21444Y-39699D01*
X21470Y-39692D01*
X21499Y-39692D01*
X21528Y-39698D01*
X21553Y-39711D01*
X21564Y-39719D01*
X21572Y-39729D01*
X21581Y-39743D01*
X21586Y-39752D01*
X21589Y-39759D01*
X21591Y-39766D01*
X21593Y-39774D01*
X21595Y-39785D01*
X21596Y-39799D01*
X21596Y-39819D01*
X21596Y-39844D01*
X21596Y-39877D01*
X21596Y-39883D01*
X21596Y-39992D01*
X21596Y-39992D01*
X21596Y-39992D01*
G37*
G36*
X21886Y-39993D02*
X21867Y-40002D01*
X21848Y-40010D01*
X21846Y-39929D01*
X21846Y-39903D01*
X21845Y-39881D01*
X21844Y-39864D01*
X21842Y-39853D01*
X21841Y-39850D01*
X21836Y-39852D01*
X21824Y-39856D01*
X21807Y-39863D01*
X21791Y-39869D01*
X21759Y-39883D01*
X21735Y-39897D01*
X21720Y-39911D01*
X21714Y-39925D01*
X21717Y-39939D01*
X21727Y-39953D01*
X21728Y-39954D01*
X21736Y-39961D01*
X21743Y-39965D01*
X21753Y-39966D01*
X21769Y-39966D01*
X21771Y-39966D01*
X21801Y-39964D01*
X21809Y-39983D01*
X21817Y-40002D01*
X21804Y-40007D01*
X21783Y-40011D01*
X21758Y-40011D01*
X21735Y-40007D01*
X21730Y-40005D01*
X21717Y-39998D01*
X21702Y-39987D01*
X21695Y-39982D01*
X21679Y-39960D01*
X21671Y-39937D01*
X21671Y-39913D01*
X21679Y-39890D01*
X21690Y-39876D01*
X21698Y-39869D01*
X21708Y-39861D01*
X21722Y-39854D01*
X21741Y-39845D01*
X21767Y-39833D01*
X21774Y-39831D01*
X21797Y-39821D01*
X21817Y-39813D01*
X21833Y-39806D01*
X21842Y-39802D01*
X21845Y-39801D01*
X21845Y-39796D01*
X21843Y-39785D01*
X21842Y-39782D01*
X21831Y-39761D01*
X21815Y-39746D01*
X21795Y-39736D01*
X21772Y-39734D01*
X21762Y-39736D01*
X21744Y-39745D01*
X21729Y-39760D01*
X21718Y-39777D01*
X21716Y-39786D01*
X21712Y-39799D01*
X21704Y-39806D01*
X21701Y-39807D01*
X21689Y-39812D01*
X21681Y-39815D01*
X21676Y-39816D01*
X21674Y-39812D01*
X21673Y-39801D01*
X21673Y-39797D01*
X21678Y-39769D01*
X21690Y-39742D01*
X21708Y-39719D01*
X21730Y-39701D01*
X21735Y-39699D01*
X21749Y-39694D01*
X21763Y-39691D01*
X21781Y-39691D01*
X21786Y-39691D01*
X21815Y-39696D01*
X21839Y-39708D01*
X21860Y-39727D01*
X21870Y-39740D01*
X21884Y-39759D01*
X21885Y-39876D01*
X21886Y-39993D01*
X21886Y-39993D01*
X21886Y-39993D01*
G37*
G36*
X22178Y-39793D02*
X22174Y-39798D01*
X22165Y-39803D01*
X22157Y-39807D01*
X22135Y-39817D01*
X22135Y-39801D01*
X22131Y-39777D01*
X22119Y-39757D01*
X22102Y-39743D01*
X22080Y-39735D01*
X22068Y-39735D01*
X22047Y-39738D01*
X22030Y-39749D01*
X22015Y-39765D01*
X22012Y-39769D01*
X22010Y-39774D01*
X22008Y-39782D01*
X22007Y-39793D01*
X22006Y-39808D01*
X22005Y-39829D01*
X22004Y-39857D01*
X22004Y-39886D01*
X22001Y-39994D01*
X21982Y-40003D01*
X21963Y-40011D01*
X21963Y-39893D01*
X21963Y-39857D01*
X21963Y-39829D01*
X21963Y-39807D01*
X21964Y-39791D01*
X21965Y-39779D01*
X21967Y-39770D01*
X21969Y-39762D01*
X21972Y-39755D01*
X21974Y-39751D01*
X21990Y-39725D01*
X22012Y-39706D01*
X22039Y-39695D01*
X22072Y-39691D01*
X22074Y-39691D01*
X22103Y-39695D01*
X22129Y-39707D01*
X22150Y-39726D01*
X22166Y-39753D01*
X22177Y-39785D01*
X22177Y-39785D01*
X22178Y-39793D01*
X22178Y-39793D01*
X22178Y-39793D01*
G37*
G36*
X22470Y-39666D02*
X22470Y-39698D01*
X22470Y-39732D01*
X22470Y-39766D01*
X22469Y-39801D01*
X22468Y-39834D01*
X22468Y-39864D01*
X22467Y-39890D01*
X22466Y-39911D01*
X22465Y-39926D01*
X22464Y-39934D01*
X22456Y-39952D01*
X22442Y-39972D01*
X22425Y-39989D01*
X22424Y-39990D01*
X22424Y-39850D01*
X22424Y-39822D01*
X22424Y-39802D01*
X22423Y-39788D01*
X22421Y-39778D01*
X22419Y-39770D01*
X22416Y-39764D01*
X22400Y-39747D01*
X22381Y-39737D01*
X22360Y-39734D01*
X22339Y-39738D01*
X22319Y-39749D01*
X22312Y-39756D01*
X22298Y-39772D01*
X22298Y-39847D01*
X22298Y-39879D01*
X22299Y-39903D01*
X22301Y-39921D01*
X22305Y-39935D01*
X22310Y-39944D01*
X22317Y-39952D01*
X22326Y-39958D01*
X22343Y-39964D01*
X22361Y-39966D01*
X22381Y-39964D01*
X22396Y-39958D01*
X22406Y-39951D01*
X22413Y-39943D01*
X22418Y-39932D01*
X22422Y-39918D01*
X22423Y-39899D01*
X22424Y-39873D01*
X22424Y-39850D01*
X22424Y-39990D01*
X22407Y-40002D01*
X22395Y-40007D01*
X22363Y-40012D01*
X22332Y-40008D01*
X22312Y-40000D01*
X22286Y-39982D01*
X22268Y-39959D01*
X22259Y-39940D01*
X22256Y-39928D01*
X22254Y-39909D01*
X22253Y-39885D01*
X22253Y-39858D01*
X22253Y-39831D01*
X22254Y-39805D01*
X22255Y-39783D01*
X22258Y-39767D01*
X22259Y-39762D01*
X22273Y-39735D01*
X22293Y-39714D01*
X22317Y-39700D01*
X22345Y-39692D01*
X22373Y-39691D01*
X22402Y-39698D01*
X22405Y-39699D01*
X22424Y-39708D01*
X22424Y-39652D01*
X22424Y-39596D01*
X22445Y-39587D01*
X22458Y-39581D01*
X22466Y-39578D01*
X22468Y-39577D01*
X22469Y-39582D01*
X22469Y-39594D01*
X22470Y-39613D01*
X22470Y-39637D01*
X22470Y-39666D01*
X22470Y-39666D01*
X22470Y-39666D01*
G37*
G36*
X22787Y-39775D02*
X22786Y-39804D01*
X22786Y-39834D01*
X22786Y-39863D01*
X22785Y-39891D01*
X22784Y-39915D01*
X22783Y-39935D01*
X22782Y-39948D01*
X22782Y-39954D01*
X22772Y-39974D01*
X22758Y-39992D01*
X22741Y-40004D01*
X22734Y-40007D01*
X22714Y-40011D01*
X22692Y-40009D01*
X22673Y-40004D01*
X22665Y-39999D01*
X22657Y-39994D01*
X22651Y-39993D01*
X22644Y-39996D01*
X22633Y-40001D01*
X22608Y-40010D01*
X22583Y-40011D01*
X22562Y-40005D01*
X22548Y-39996D01*
X22535Y-39983D01*
X22525Y-39969D01*
X22521Y-39960D01*
X22521Y-39953D01*
X22521Y-39939D01*
X22520Y-39917D01*
X22520Y-39891D01*
X22520Y-39861D01*
X22520Y-39829D01*
X22522Y-39707D01*
X22541Y-39699D01*
X22560Y-39691D01*
X22560Y-39818D01*
X22560Y-39857D01*
X22561Y-39888D01*
X22561Y-39911D01*
X22562Y-39929D01*
X22564Y-39942D01*
X22566Y-39951D01*
X22569Y-39957D01*
X22574Y-39961D01*
X22579Y-39965D01*
X22581Y-39966D01*
X22595Y-39970D01*
X22607Y-39968D01*
X22617Y-39960D01*
X22628Y-39949D01*
X22628Y-39829D01*
X22628Y-39710D01*
X22650Y-39700D01*
X22671Y-39691D01*
X22673Y-39822D01*
X22676Y-39954D01*
X22687Y-39963D01*
X22701Y-39969D01*
X22717Y-39968D01*
X22731Y-39960D01*
X22733Y-39957D01*
X22736Y-39953D01*
X22737Y-39948D01*
X22739Y-39940D01*
X22740Y-39928D01*
X22741Y-39912D01*
X22741Y-39890D01*
X22741Y-39860D01*
X22741Y-39829D01*
X22741Y-39710D01*
X22762Y-39700D01*
X22774Y-39695D01*
X22782Y-39691D01*
X22784Y-39690D01*
X22785Y-39695D01*
X22786Y-39707D01*
X22786Y-39725D01*
X22787Y-39748D01*
X22787Y-39775D01*
X22787Y-39775D01*
X22787Y-39775D01*
G37*
G36*
X23049Y-39993D02*
X23030Y-40002D01*
X23010Y-40010D01*
X23009Y-39929D01*
X23009Y-39899D01*
X23008Y-39877D01*
X23007Y-39862D01*
X23005Y-39853D01*
X23003Y-39850D01*
X23002Y-39850D01*
X22996Y-39853D01*
X22983Y-39858D01*
X22966Y-39864D01*
X22949Y-39871D01*
X22918Y-39885D01*
X22896Y-39899D01*
X22882Y-39912D01*
X22877Y-39926D01*
X22880Y-39940D01*
X22891Y-39954D01*
X22899Y-39961D01*
X22906Y-39965D01*
X22916Y-39966D01*
X22931Y-39966D01*
X22934Y-39966D01*
X22964Y-39964D01*
X22972Y-39983D01*
X22980Y-40002D01*
X22966Y-40007D01*
X22949Y-40010D01*
X22927Y-40011D01*
X22906Y-40009D01*
X22898Y-40007D01*
X22874Y-39996D01*
X22854Y-39979D01*
X22840Y-39959D01*
X22833Y-39936D01*
X22833Y-39918D01*
X22836Y-39902D01*
X22841Y-39890D01*
X22848Y-39879D01*
X22859Y-39868D01*
X22875Y-39858D01*
X22896Y-39847D01*
X22925Y-39835D01*
X22946Y-39826D01*
X22967Y-39817D01*
X22985Y-39810D01*
X22998Y-39803D01*
X23005Y-39800D01*
X23006Y-39799D01*
X23006Y-39791D01*
X23003Y-39779D01*
X22996Y-39765D01*
X22988Y-39754D01*
X22986Y-39752D01*
X22968Y-39740D01*
X22947Y-39735D01*
X22926Y-39737D01*
X22907Y-39744D01*
X22892Y-39757D01*
X22881Y-39775D01*
X22879Y-39785D01*
X22876Y-39796D01*
X22871Y-39802D01*
X22861Y-39808D01*
X22853Y-39812D01*
X22830Y-39821D01*
X22833Y-39796D01*
X22841Y-39765D01*
X22855Y-39737D01*
X22874Y-39715D01*
X22897Y-39700D01*
X22924Y-39692D01*
X22938Y-39690D01*
X22971Y-39694D01*
X22998Y-39705D01*
X23020Y-39724D01*
X23037Y-39750D01*
X23038Y-39751D01*
X23041Y-39759D01*
X23044Y-39766D01*
X23046Y-39774D01*
X23047Y-39785D01*
X23048Y-39799D01*
X23048Y-39819D01*
X23049Y-39844D01*
X23049Y-39877D01*
X23049Y-39884D01*
X23049Y-39993D01*
X23049Y-39993D01*
X23049Y-39993D01*
G37*
G36*
X23338Y-39784D02*
X23337Y-39793D01*
X23331Y-39800D01*
X23319Y-39807D01*
X23319Y-39807D01*
X23299Y-39816D01*
X23296Y-39794D01*
X23290Y-39770D01*
X23277Y-39751D01*
X23258Y-39739D01*
X23234Y-39735D01*
X23231Y-39735D01*
X23210Y-39738D01*
X23192Y-39749D01*
X23178Y-39765D01*
X23175Y-39769D01*
X23173Y-39774D01*
X23171Y-39782D01*
X23170Y-39793D01*
X23169Y-39808D01*
X23168Y-39829D01*
X23167Y-39857D01*
X23167Y-39886D01*
X23164Y-39994D01*
X23145Y-40003D01*
X23125Y-40011D01*
X23127Y-39885D01*
X23128Y-39759D01*
X23142Y-39740D01*
X23162Y-39716D01*
X23186Y-39700D01*
X23212Y-39692D01*
X23223Y-39691D01*
X23250Y-39692D01*
X23271Y-39696D01*
X23273Y-39697D01*
X23293Y-39709D01*
X23312Y-39726D01*
X23326Y-39746D01*
X23336Y-39768D01*
X23338Y-39784D01*
X23338Y-39784D01*
X23338Y-39784D01*
G37*
G36*
X23634Y-39881D02*
X23631Y-39905D01*
X23624Y-39937D01*
X23611Y-39963D01*
X23592Y-39985D01*
X23569Y-40001D01*
X23543Y-40010D01*
X23515Y-40011D01*
X23486Y-40005D01*
X23475Y-40000D01*
X23460Y-39991D01*
X23446Y-39980D01*
X23440Y-39974D01*
X23432Y-39961D01*
X23425Y-39950D01*
X23421Y-39937D01*
X23418Y-39921D01*
X23416Y-39900D01*
X23416Y-39874D01*
X23415Y-39850D01*
X23416Y-39822D01*
X23416Y-39801D01*
X23417Y-39785D01*
X23418Y-39774D01*
X23421Y-39764D01*
X23424Y-39755D01*
X23426Y-39751D01*
X23443Y-39725D01*
X23465Y-39706D01*
X23492Y-39694D01*
X23522Y-39690D01*
X23548Y-39693D01*
X23570Y-39701D01*
X23591Y-39717D01*
X23599Y-39724D01*
X23612Y-39738D01*
X23620Y-39750D01*
X23626Y-39763D01*
X23628Y-39773D01*
X23631Y-39789D01*
X23633Y-39801D01*
X23632Y-39810D01*
X23628Y-39818D01*
X23619Y-39826D01*
X23606Y-39834D01*
X23586Y-39843D01*
X23584Y-39844D01*
X23584Y-39784D01*
X23584Y-39783D01*
X23579Y-39764D01*
X23566Y-39749D01*
X23547Y-39739D01*
X23523Y-39735D01*
X23521Y-39735D01*
X23500Y-39738D01*
X23483Y-39748D01*
X23468Y-39764D01*
X23463Y-39774D01*
X23460Y-39788D01*
X23457Y-39805D01*
X23456Y-39822D01*
X23456Y-39836D01*
X23458Y-39846D01*
X23462Y-39849D01*
X23468Y-39847D01*
X23481Y-39842D01*
X23499Y-39835D01*
X23519Y-39826D01*
X23527Y-39822D01*
X23550Y-39812D01*
X23566Y-39804D01*
X23576Y-39798D01*
X23582Y-39794D01*
X23584Y-39789D01*
X23584Y-39784D01*
X23584Y-39844D01*
X23559Y-39855D01*
X23549Y-39860D01*
X23523Y-39871D01*
X23501Y-39882D01*
X23482Y-39890D01*
X23469Y-39896D01*
X23463Y-39900D01*
X23462Y-39900D01*
X23459Y-39907D01*
X23460Y-39918D01*
X23466Y-39932D01*
X23471Y-39940D01*
X23486Y-39956D01*
X23505Y-39964D01*
X23526Y-39966D01*
X23547Y-39962D01*
X23565Y-39952D01*
X23578Y-39936D01*
X23580Y-39933D01*
X23585Y-39920D01*
X23587Y-39910D01*
X23587Y-39909D01*
X23591Y-39902D01*
X23601Y-39895D01*
X23611Y-39891D01*
X23634Y-39881D01*
X23634Y-39881D01*
X23634Y-39881D01*
G37*
G36*
X23049Y-38426D02*
X23049Y-38461D01*
X23048Y-38489D01*
X23048Y-38510D01*
X23048Y-38526D01*
X23047Y-38537D01*
X23046Y-38545D01*
X23044Y-38549D01*
X23042Y-38551D01*
X23041Y-38552D01*
X23035Y-38553D01*
X23021Y-38556D01*
X23000Y-38560D01*
X22974Y-38565D01*
X22943Y-38571D01*
X22909Y-38577D01*
X22884Y-38582D01*
X22848Y-38589D01*
X22815Y-38595D01*
X22786Y-38601D01*
X22762Y-38606D01*
X22743Y-38610D01*
X22732Y-38614D01*
X22729Y-38615D01*
X22726Y-38620D01*
X22721Y-38633D01*
X22713Y-38652D01*
X22703Y-38676D01*
X22691Y-38704D01*
X22679Y-38735D01*
X22675Y-38743D01*
X22661Y-38780D01*
X22650Y-38809D01*
X22641Y-38831D01*
X22636Y-38848D01*
X22632Y-38860D01*
X22630Y-38868D01*
X22630Y-38874D01*
X22631Y-38877D01*
X22635Y-38883D01*
X22643Y-38896D01*
X22655Y-38914D01*
X22670Y-38936D01*
X22688Y-38963D01*
X22708Y-38991D01*
X22719Y-39007D01*
X22739Y-39037D01*
X22757Y-39064D01*
X22773Y-39088D01*
X22787Y-39107D01*
X22797Y-39122D01*
X22802Y-39131D01*
X22803Y-39133D01*
X22801Y-39138D01*
X22793Y-39148D01*
X22780Y-39162D01*
X22763Y-39180D01*
X22743Y-39201D01*
X22721Y-39224D01*
X22697Y-39248D01*
X22674Y-39272D01*
X22650Y-39295D01*
X22628Y-39316D01*
X22608Y-39335D01*
X22591Y-39351D01*
X22578Y-39362D01*
X22570Y-39368D01*
X22568Y-39369D01*
X22562Y-39367D01*
X22550Y-39360D01*
X22532Y-39349D01*
X22510Y-39334D01*
X22484Y-39317D01*
X22456Y-39298D01*
X22437Y-39286D01*
X22403Y-39262D01*
X22373Y-39243D01*
X22348Y-39226D01*
X22328Y-39214D01*
X22313Y-39205D01*
X22305Y-39202D01*
X22304Y-39202D01*
X22297Y-39204D01*
X22283Y-39210D01*
X22265Y-39218D01*
X22244Y-39229D01*
X22240Y-39231D01*
X22220Y-39242D01*
X22203Y-39251D01*
X22189Y-39257D01*
X22182Y-39260D01*
X22181Y-39261D01*
X22175Y-39257D01*
X22172Y-39253D01*
X22168Y-39245D01*
X22161Y-39230D01*
X22152Y-39208D01*
X22141Y-39181D01*
X22128Y-39150D01*
X22113Y-39115D01*
X22098Y-39077D01*
X22081Y-39037D01*
X22065Y-38996D01*
X22048Y-38955D01*
X22031Y-38914D01*
X22015Y-38875D01*
X22000Y-38838D01*
X21987Y-38804D01*
X21975Y-38775D01*
X21965Y-38750D01*
X21958Y-38731D01*
X21953Y-38718D01*
X21951Y-38713D01*
X21956Y-38709D01*
X21967Y-38701D01*
X21981Y-38691D01*
X21987Y-38687D01*
X22016Y-38666D01*
X22046Y-38640D01*
X22072Y-38614D01*
X22094Y-38588D01*
X22100Y-38580D01*
X22127Y-38532D01*
X22147Y-38482D01*
X22158Y-38432D01*
X22161Y-38381D01*
X22157Y-38330D01*
X22146Y-38281D01*
X22127Y-38235D01*
X22103Y-38191D01*
X22072Y-38151D01*
X22035Y-38116D01*
X21992Y-38086D01*
X21944Y-38062D01*
X21892Y-38045D01*
X21864Y-38040D01*
X21830Y-38038D01*
X21796Y-38038D01*
X21763Y-38040D01*
X21736Y-38045D01*
X21683Y-38062D01*
X21635Y-38086D01*
X21591Y-38117D01*
X21554Y-38153D01*
X21522Y-38194D01*
X21497Y-38240D01*
X21479Y-38288D01*
X21469Y-38339D01*
X21466Y-38392D01*
X21471Y-38445D01*
X21479Y-38477D01*
X21498Y-38528D01*
X21525Y-38576D01*
X21560Y-38620D01*
X21603Y-38660D01*
X21640Y-38687D01*
X21656Y-38698D01*
X21668Y-38706D01*
X21675Y-38712D01*
X21676Y-38713D01*
X21674Y-38718D01*
X21670Y-38730D01*
X21662Y-38748D01*
X21653Y-38773D01*
X21641Y-38802D01*
X21628Y-38836D01*
X21613Y-38872D01*
X21597Y-38912D01*
X21580Y-38952D01*
X21564Y-38993D01*
X21547Y-39034D01*
X21531Y-39074D01*
X21515Y-39112D01*
X21500Y-39148D01*
X21487Y-39179D01*
X21476Y-39207D01*
X21466Y-39228D01*
X21460Y-39244D01*
X21456Y-39252D01*
X21455Y-39253D01*
X21450Y-39259D01*
X21446Y-39261D01*
X21440Y-39259D01*
X21428Y-39253D01*
X21411Y-39244D01*
X21392Y-39234D01*
X21387Y-39231D01*
X21366Y-39220D01*
X21347Y-39211D01*
X21333Y-39205D01*
X21323Y-39202D01*
X21322Y-39202D01*
X21316Y-39204D01*
X21302Y-39212D01*
X21282Y-39224D01*
X21257Y-39240D01*
X21226Y-39261D01*
X21191Y-39284D01*
X21190Y-39286D01*
X21160Y-39306D01*
X21133Y-39324D01*
X21108Y-39340D01*
X21087Y-39353D01*
X21072Y-39363D01*
X21062Y-39368D01*
X21060Y-39369D01*
X21054Y-39366D01*
X21043Y-39357D01*
X21026Y-39342D01*
X21005Y-39322D01*
X20980Y-39297D01*
X20951Y-39269D01*
X20936Y-39254D01*
X20907Y-39224D01*
X20881Y-39198D01*
X20859Y-39175D01*
X20842Y-39156D01*
X20830Y-39143D01*
X20824Y-39135D01*
X20824Y-39133D01*
X20827Y-39128D01*
X20834Y-39116D01*
X20846Y-39099D01*
X20860Y-39077D01*
X20878Y-39052D01*
X20897Y-39024D01*
X20909Y-39007D01*
X20929Y-38978D01*
X20948Y-38950D01*
X20964Y-38925D01*
X20978Y-38905D01*
X20988Y-38889D01*
X20994Y-38879D01*
X20996Y-38877D01*
X20997Y-38873D01*
X20996Y-38867D01*
X20994Y-38857D01*
X20990Y-38844D01*
X20984Y-38826D01*
X20975Y-38802D01*
X20963Y-38771D01*
X20952Y-38743D01*
X20939Y-38712D01*
X20927Y-38683D01*
X20917Y-38658D01*
X20908Y-38637D01*
X20902Y-38623D01*
X20898Y-38615D01*
X20898Y-38615D01*
X20892Y-38613D01*
X20879Y-38609D01*
X20859Y-38605D01*
X20833Y-38599D01*
X20803Y-38593D01*
X20769Y-38587D01*
X20743Y-38582D01*
X20708Y-38575D01*
X20674Y-38569D01*
X20645Y-38563D01*
X20620Y-38559D01*
X20601Y-38555D01*
X20590Y-38553D01*
X20586Y-38552D01*
X20584Y-38551D01*
X20582Y-38548D01*
X20581Y-38543D01*
X20580Y-38535D01*
X20579Y-38523D01*
X20579Y-38506D01*
X20579Y-38483D01*
X20578Y-38453D01*
X20578Y-38416D01*
X20578Y-38382D01*
X20578Y-38337D01*
X20579Y-38300D01*
X20579Y-38271D01*
X20580Y-38249D01*
X20580Y-38232D01*
X20581Y-38221D01*
X20582Y-38215D01*
X20584Y-38213D01*
X20590Y-38211D01*
X20603Y-38209D01*
X20624Y-38205D01*
X20650Y-38200D01*
X20680Y-38194D01*
X20714Y-38187D01*
X20744Y-38182D01*
X20781Y-38175D01*
X20814Y-38168D01*
X20844Y-38163D01*
X20869Y-38158D01*
X20888Y-38154D01*
X20899Y-38151D01*
X20903Y-38150D01*
X20907Y-38145D01*
X20913Y-38133D01*
X20921Y-38115D01*
X20931Y-38093D01*
X20942Y-38067D01*
X20954Y-38040D01*
X20966Y-38012D01*
X20977Y-37984D01*
X20987Y-37959D01*
X20996Y-37937D01*
X21002Y-37919D01*
X21006Y-37908D01*
X21007Y-37904D01*
X21004Y-37898D01*
X20996Y-37886D01*
X20985Y-37869D01*
X20970Y-37847D01*
X20953Y-37821D01*
X20933Y-37792D01*
X20918Y-37770D01*
X20897Y-37740D01*
X20878Y-37711D01*
X20861Y-37686D01*
X20846Y-37665D01*
X20835Y-37649D01*
X20828Y-37638D01*
X20826Y-37635D01*
X20826Y-37632D01*
X20827Y-37628D01*
X20831Y-37622D01*
X20837Y-37613D01*
X20848Y-37601D01*
X20862Y-37586D01*
X20881Y-37566D01*
X20906Y-37542D01*
X20936Y-37511D01*
X20939Y-37509D01*
X20970Y-37478D01*
X20997Y-37451D01*
X21021Y-37429D01*
X21039Y-37411D01*
X21053Y-37400D01*
X21061Y-37394D01*
X21062Y-37393D01*
X21068Y-37396D01*
X21079Y-37404D01*
X21097Y-37415D01*
X21119Y-37430D01*
X21145Y-37447D01*
X21174Y-37467D01*
X21202Y-37486D01*
X21236Y-37509D01*
X21267Y-37530D01*
X21293Y-37547D01*
X21315Y-37561D01*
X21332Y-37571D01*
X21342Y-37576D01*
X21345Y-37577D01*
X21352Y-37576D01*
X21366Y-37571D01*
X21386Y-37564D01*
X21410Y-37554D01*
X21438Y-37543D01*
X21461Y-37534D01*
X21490Y-37522D01*
X21517Y-37511D01*
X21539Y-37502D01*
X21557Y-37494D01*
X21569Y-37490D01*
X21572Y-37488D01*
X21575Y-37487D01*
X21577Y-37483D01*
X21580Y-37478D01*
X21583Y-37468D01*
X21586Y-37455D01*
X21590Y-37437D01*
X21595Y-37413D01*
X21600Y-37382D01*
X21608Y-37344D01*
X21615Y-37306D01*
X21623Y-37260D01*
X21631Y-37222D01*
X21637Y-37193D01*
X21642Y-37171D01*
X21646Y-37157D01*
X21649Y-37150D01*
X21650Y-37149D01*
X21656Y-37147D01*
X21670Y-37146D01*
X21691Y-37145D01*
X21717Y-37144D01*
X21747Y-37143D01*
X21779Y-37143D01*
X21813Y-37142D01*
X21847Y-37143D01*
X21879Y-37143D01*
X21909Y-37144D01*
X21935Y-37144D01*
X21956Y-37146D01*
X21970Y-37147D01*
X21977Y-37148D01*
X21977Y-37149D01*
X21980Y-37154D01*
X21984Y-37165D01*
X21988Y-37184D01*
X21994Y-37210D01*
X22001Y-37244D01*
X22009Y-37286D01*
X22012Y-37306D01*
X22021Y-37351D01*
X22028Y-37388D01*
X22033Y-37417D01*
X22038Y-37440D01*
X22042Y-37458D01*
X22045Y-37470D01*
X22048Y-37479D01*
X22050Y-37484D01*
X22053Y-37487D01*
X22055Y-37488D01*
X22060Y-37490D01*
X22073Y-37496D01*
X22092Y-37503D01*
X22115Y-37513D01*
X22142Y-37524D01*
X22166Y-37534D01*
X22195Y-37546D01*
X22223Y-37556D01*
X22246Y-37565D01*
X22265Y-37572D01*
X22277Y-37576D01*
X22282Y-37577D01*
X22288Y-37575D01*
X22301Y-37568D01*
X22320Y-37556D01*
X22344Y-37541D01*
X22371Y-37522D01*
X22403Y-37501D01*
X22425Y-37486D01*
X22456Y-37465D01*
X22485Y-37445D01*
X22510Y-37428D01*
X22532Y-37414D01*
X22549Y-37403D01*
X22560Y-37396D01*
X22565Y-37393D01*
X22570Y-37396D01*
X22580Y-37405D01*
X22597Y-37419D01*
X22617Y-37439D01*
X22643Y-37464D01*
X22672Y-37493D01*
X22688Y-37509D01*
X22719Y-37540D01*
X22744Y-37565D01*
X22764Y-37585D01*
X22778Y-37600D01*
X22789Y-37612D01*
X22796Y-37621D01*
X22800Y-37627D01*
X22801Y-37631D01*
X22801Y-37634D01*
X22801Y-37635D01*
X22797Y-37640D01*
X22789Y-37652D01*
X22777Y-37670D01*
X22762Y-37693D01*
X22744Y-37719D01*
X22724Y-37748D01*
X22709Y-37770D01*
X22688Y-37800D01*
X22669Y-37828D01*
X22653Y-37853D01*
X22639Y-37874D01*
X22628Y-37890D01*
X22622Y-37900D01*
X22620Y-37904D01*
X22621Y-37909D01*
X22626Y-37922D01*
X22633Y-37941D01*
X22642Y-37963D01*
X22652Y-37989D01*
X22664Y-38017D01*
X22676Y-38045D01*
X22687Y-38072D01*
X22698Y-38097D01*
X22708Y-38119D01*
X22716Y-38136D01*
X22721Y-38147D01*
X22724Y-38150D01*
X22729Y-38152D01*
X22742Y-38154D01*
X22762Y-38159D01*
X22788Y-38164D01*
X22818Y-38170D01*
X22852Y-38176D01*
X22883Y-38182D01*
X22919Y-38189D01*
X22953Y-38195D01*
X22983Y-38201D01*
X23008Y-38206D01*
X23027Y-38209D01*
X23039Y-38212D01*
X23043Y-38213D01*
X23045Y-38215D01*
X23046Y-38221D01*
X23047Y-38232D01*
X23048Y-38249D01*
X23048Y-38271D01*
X23049Y-38300D01*
X23049Y-38337D01*
X23049Y-38382D01*
X23049Y-38426D01*
X23049Y-38426D01*
X23049Y-38426D01*
G37*
G36*
X11671Y-38917D02*
X11670Y-38949D01*
X11665Y-38971D01*
X11656Y-38990D01*
X11646Y-39004D01*
X11623Y-39027D01*
X11595Y-39047D01*
X11587Y-39051D01*
X11583Y-39052D01*
X11583Y-38924D01*
X11583Y-38918D01*
X11581Y-38888D01*
X11573Y-38867D01*
X11559Y-38849D01*
X11543Y-38833D01*
X11526Y-38824D01*
X11502Y-38820D01*
X11486Y-38818D01*
X11438Y-38820D01*
X11401Y-38833D01*
X11376Y-38857D01*
X11371Y-38866D01*
X11360Y-38901D01*
X11361Y-38938D01*
X11373Y-38971D01*
X11393Y-38996D01*
X11401Y-39001D01*
X11430Y-39014D01*
X11457Y-39020D01*
X11473Y-39020D01*
X11490Y-39017D01*
X11505Y-39017D01*
X11527Y-39010D01*
X11551Y-38992D01*
X11555Y-38988D01*
X11572Y-38968D01*
X11581Y-38950D01*
X11583Y-38924D01*
X11583Y-39052D01*
X11552Y-39062D01*
X11506Y-39069D01*
X11458Y-39071D01*
X11414Y-39069D01*
X11400Y-39066D01*
X11350Y-39049D01*
X11312Y-39021D01*
X11287Y-38982D01*
X11276Y-38934D01*
X11275Y-38915D01*
X11280Y-38868D01*
X11297Y-38832D01*
X11327Y-38802D01*
X11350Y-38788D01*
X11374Y-38776D01*
X11395Y-38769D01*
X11419Y-38765D01*
X11452Y-38764D01*
X11470Y-38764D01*
X11530Y-38767D01*
X11577Y-38778D01*
X11615Y-38798D01*
X11645Y-38827D01*
X11646Y-38830D01*
X11660Y-38850D01*
X11667Y-38869D01*
X11670Y-38894D01*
X11671Y-38917D01*
X11671Y-38917D01*
X11671Y-38917D01*
G37*
G36*
X13388Y-38917D02*
X13387Y-38949D01*
X13382Y-38971D01*
X13373Y-38990D01*
X13363Y-39004D01*
X13340Y-39027D01*
X13312Y-39047D01*
X13304Y-39051D01*
X13300Y-39052D01*
X13300Y-38918D01*
X13298Y-38888D01*
X13290Y-38867D01*
X13276Y-38849D01*
X13260Y-38833D01*
X13243Y-38824D01*
X13219Y-38820D01*
X13203Y-38818D01*
X13155Y-38820D01*
X13118Y-38833D01*
X13093Y-38857D01*
X13088Y-38866D01*
X13077Y-38901D01*
X13078Y-38938D01*
X13089Y-38971D01*
X13110Y-38996D01*
X13118Y-39001D01*
X13147Y-39014D01*
X13174Y-39020D01*
X13190Y-39020D01*
X13207Y-39017D01*
X13222Y-39017D01*
X13243Y-39010D01*
X13268Y-38992D01*
X13272Y-38988D01*
X13289Y-38968D01*
X13298Y-38950D01*
X13300Y-38924D01*
X13300Y-38918D01*
X13300Y-39052D01*
X13269Y-39062D01*
X13223Y-39069D01*
X13175Y-39071D01*
X13131Y-39069D01*
X13117Y-39066D01*
X13067Y-39049D01*
X13029Y-39021D01*
X13004Y-38982D01*
X12992Y-38934D01*
X12991Y-38915D01*
X12997Y-38868D01*
X13014Y-38832D01*
X13044Y-38802D01*
X13067Y-38788D01*
X13091Y-38776D01*
X13112Y-38769D01*
X13136Y-38765D01*
X13169Y-38764D01*
X13187Y-38764D01*
X13247Y-38767D01*
X13294Y-38778D01*
X13332Y-38798D01*
X13362Y-38827D01*
X13363Y-38830D01*
X13377Y-38850D01*
X13384Y-38869D01*
X13387Y-38894D01*
X13388Y-38917D01*
X13388Y-38917D01*
X13388Y-38917D01*
G37*
G36*
X14642Y-38973D02*
X14637Y-39006D01*
X14622Y-39030D01*
X14592Y-39049D01*
X14589Y-39050D01*
X14560Y-39059D01*
X14524Y-39067D01*
X14485Y-39071D01*
X14450Y-39072D01*
X14429Y-39070D01*
X14388Y-39060D01*
X14360Y-39051D01*
X14340Y-39041D01*
X14326Y-39029D01*
X14321Y-39023D01*
X14304Y-39000D01*
X14301Y-38985D01*
X14313Y-38977D01*
X14339Y-38975D01*
X14367Y-38977D01*
X14387Y-38986D01*
X14396Y-38995D01*
X14418Y-39010D01*
X14448Y-39019D01*
X14480Y-39022D01*
X14511Y-39019D01*
X14537Y-39010D01*
X14553Y-38995D01*
X14557Y-38986D01*
X14555Y-38975D01*
X14545Y-38965D01*
X14524Y-38957D01*
X14491Y-38949D01*
X14450Y-38942D01*
X14399Y-38931D01*
X14358Y-38918D01*
X14329Y-38904D01*
X14317Y-38891D01*
X14308Y-38859D01*
X14314Y-38826D01*
X14334Y-38799D01*
X14359Y-38782D01*
X14389Y-38770D01*
X14430Y-38764D01*
X14471Y-38763D01*
X14524Y-38767D01*
X14569Y-38781D01*
X14603Y-38802D01*
X14625Y-38830D01*
X14629Y-38840D01*
X14631Y-38850D01*
X14627Y-38856D01*
X14612Y-38858D01*
X14588Y-38858D01*
X14559Y-38857D01*
X14544Y-38852D01*
X14542Y-38847D01*
X14534Y-38834D01*
X14514Y-38823D01*
X14484Y-38816D01*
X14466Y-38815D01*
X14430Y-38818D01*
X14405Y-38828D01*
X14393Y-38844D01*
X14392Y-38850D01*
X14396Y-38860D01*
X14409Y-38869D01*
X14433Y-38878D01*
X14470Y-38886D01*
X14504Y-38891D01*
X14558Y-38902D01*
X14597Y-38914D01*
X14623Y-38929D01*
X14637Y-38948D01*
X14642Y-38971D01*
X14642Y-38973D01*
X14642Y-38973D01*
X14642Y-38973D01*
G37*
G36*
X15896Y-38917D02*
X15895Y-38949D01*
X15891Y-38971D01*
X15881Y-38990D01*
X15872Y-39004D01*
X15849Y-39027D01*
X15820Y-39047D01*
X15813Y-39051D01*
X15808Y-39052D01*
X15808Y-38924D01*
X15808Y-38918D01*
X15806Y-38888D01*
X15798Y-38867D01*
X15785Y-38849D01*
X15768Y-38833D01*
X15751Y-38824D01*
X15727Y-38820D01*
X15711Y-38818D01*
X15663Y-38820D01*
X15627Y-38833D01*
X15601Y-38857D01*
X15596Y-38866D01*
X15585Y-38901D01*
X15586Y-38938D01*
X15598Y-38971D01*
X15619Y-38996D01*
X15627Y-39001D01*
X15655Y-39014D01*
X15682Y-39020D01*
X15699Y-39020D01*
X15715Y-39017D01*
X15731Y-39017D01*
X15752Y-39010D01*
X15776Y-38992D01*
X15780Y-38988D01*
X15798Y-38968D01*
X15806Y-38950D01*
X15808Y-38924D01*
X15808Y-39052D01*
X15777Y-39062D01*
X15732Y-39069D01*
X15684Y-39071D01*
X15640Y-39069D01*
X15626Y-39066D01*
X15575Y-39049D01*
X15537Y-39021D01*
X15512Y-38982D01*
X15501Y-38934D01*
X15500Y-38915D01*
X15505Y-38868D01*
X15522Y-38832D01*
X15552Y-38802D01*
X15575Y-38788D01*
X15599Y-38776D01*
X15620Y-38769D01*
X15645Y-38765D01*
X15677Y-38764D01*
X15696Y-38764D01*
X15755Y-38767D01*
X15803Y-38778D01*
X15840Y-38798D01*
X15870Y-38827D01*
X15872Y-38830D01*
X15885Y-38850D01*
X15893Y-38869D01*
X15895Y-38894D01*
X15896Y-38917D01*
X15896Y-38917D01*
X15896Y-38917D01*
G37*
G36*
X16700Y-38858D02*
X16658Y-38858D01*
X16626Y-38856D01*
X16604Y-38847D01*
X16590Y-38838D01*
X16570Y-38824D01*
X16547Y-38818D01*
X16520Y-38817D01*
X16472Y-38822D01*
X16436Y-38839D01*
X16412Y-38867D01*
X16401Y-38906D01*
X16400Y-38923D01*
X16407Y-38961D01*
X16427Y-38989D01*
X16460Y-39008D01*
X16503Y-39016D01*
X16529Y-39015D01*
X16565Y-39009D01*
X16589Y-38997D01*
X16596Y-38992D01*
X16610Y-38977D01*
X16617Y-38966D01*
X16617Y-38965D01*
X16609Y-38961D01*
X16590Y-38959D01*
X16571Y-38958D01*
X16545Y-38958D01*
X16531Y-38955D01*
X16526Y-38948D01*
X16525Y-38934D01*
X16525Y-38933D01*
X16525Y-38908D01*
X16613Y-38908D01*
X16700Y-38908D01*
X16700Y-38988D01*
X16700Y-39067D01*
X16671Y-39067D01*
X16649Y-39064D01*
X16639Y-39053D01*
X16638Y-39050D01*
X16634Y-39040D01*
X16627Y-39038D01*
X16614Y-39043D01*
X16600Y-39050D01*
X16560Y-39064D01*
X16513Y-39071D01*
X16464Y-39070D01*
X16444Y-39067D01*
X16392Y-39049D01*
X16351Y-39022D01*
X16324Y-38986D01*
X16310Y-38945D01*
X16310Y-38899D01*
X16326Y-38853D01*
X16348Y-38819D01*
X16377Y-38795D01*
X16417Y-38779D01*
X16469Y-38770D01*
X16501Y-38768D01*
X16541Y-38767D01*
X16569Y-38768D01*
X16591Y-38772D01*
X16612Y-38779D01*
X16628Y-38786D01*
X16664Y-38807D01*
X16686Y-38830D01*
X16687Y-38833D01*
X16700Y-38858D01*
X16700Y-38858D01*
X16700Y-38858D01*
G37*
G36*
X9642Y-38982D02*
X9634Y-39009D01*
X9623Y-39023D01*
X9606Y-39037D01*
X9589Y-39047D01*
X9568Y-39054D01*
X9554Y-39057D01*
X9554Y-38975D01*
X9549Y-38956D01*
X9545Y-38953D01*
X9545Y-38855D01*
X9541Y-38841D01*
X9535Y-38833D01*
X9524Y-38829D01*
X9506Y-38826D01*
X9476Y-38825D01*
X9458Y-38825D01*
X9383Y-38825D01*
X9383Y-38854D01*
X9383Y-38883D01*
X9453Y-38883D01*
X9492Y-38882D01*
X9517Y-38879D01*
X9533Y-38873D01*
X9537Y-38870D01*
X9545Y-38855D01*
X9545Y-38953D01*
X9530Y-38942D01*
X9527Y-38941D01*
X9509Y-38937D01*
X9480Y-38934D01*
X9447Y-38933D01*
X9445Y-38933D01*
X9383Y-38933D01*
X9383Y-38976D01*
X9383Y-39019D01*
X9454Y-39015D01*
X9492Y-39012D01*
X9517Y-39008D01*
X9533Y-39002D01*
X9542Y-38995D01*
X9554Y-38975D01*
X9554Y-39057D01*
X9542Y-39059D01*
X9506Y-39062D01*
X9458Y-39064D01*
X9431Y-39065D01*
X9300Y-39069D01*
X9300Y-38917D01*
X9300Y-38764D01*
X9431Y-38768D01*
X9487Y-38770D01*
X9528Y-38773D01*
X9558Y-38777D01*
X9578Y-38782D01*
X9588Y-38786D01*
X9610Y-38804D01*
X9624Y-38829D01*
X9628Y-38855D01*
X9622Y-38878D01*
X9607Y-38892D01*
X9598Y-38899D01*
X9598Y-38906D01*
X9609Y-38918D01*
X9616Y-38925D01*
X9636Y-38952D01*
X9642Y-38982D01*
X9642Y-38982D01*
X9642Y-38982D01*
G37*
G36*
X10050Y-39057D02*
X10042Y-39063D01*
X10020Y-39066D01*
X10006Y-39067D01*
X9980Y-39066D01*
X9965Y-39062D01*
X9954Y-39051D01*
X9946Y-39035D01*
X9929Y-39004D01*
X9907Y-39004D01*
X9907Y-38950D01*
X9885Y-38900D01*
X9872Y-38875D01*
X9862Y-38857D01*
X9856Y-38850D01*
X9850Y-38857D01*
X9841Y-38874D01*
X9829Y-38897D01*
X9818Y-38920D01*
X9810Y-38938D01*
X9808Y-38947D01*
X9816Y-38949D01*
X9835Y-38950D01*
X9858Y-38950D01*
X9907Y-38950D01*
X9907Y-39004D01*
X9854Y-39004D01*
X9779Y-39004D01*
X9764Y-39035D01*
X9755Y-39053D01*
X9745Y-39063D01*
X9729Y-39066D01*
X9704Y-39067D01*
X9679Y-39066D01*
X9662Y-39064D01*
X9658Y-39062D01*
X9662Y-39054D01*
X9672Y-39033D01*
X9688Y-39002D01*
X9707Y-38964D01*
X9730Y-38919D01*
X9734Y-38912D01*
X9810Y-38767D01*
X9857Y-38767D01*
X9904Y-38767D01*
X9977Y-38907D01*
X10000Y-38952D01*
X10020Y-38991D01*
X10035Y-39024D01*
X10046Y-39047D01*
X10050Y-39057D01*
X10050Y-39057D01*
X10050Y-39057D01*
G37*
G36*
X10375Y-39067D02*
X10229Y-39067D01*
X10083Y-39067D01*
X10083Y-38917D01*
X10083Y-38767D01*
X10125Y-38767D01*
X10166Y-38767D01*
X10166Y-38888D01*
X10166Y-39008D01*
X10271Y-39008D01*
X10375Y-39008D01*
X10375Y-39038D01*
X10375Y-39067D01*
X10375Y-39067D01*
X10375Y-39067D01*
G37*
G36*
X10666Y-38825D02*
X10604Y-38825D01*
X10541Y-38825D01*
X10541Y-38946D01*
X10541Y-39067D01*
X10496Y-39067D01*
X10450Y-39067D01*
X10450Y-38946D01*
X10450Y-38825D01*
X10387Y-38825D01*
X10324Y-38825D01*
X10326Y-38798D01*
X10329Y-38771D01*
X10498Y-38769D01*
X10666Y-38766D01*
X10666Y-38796D01*
X10666Y-38825D01*
X10666Y-38825D01*
X10666Y-38825D01*
G37*
G36*
X10775Y-39067D02*
X10733Y-39067D01*
X10691Y-39067D01*
X10691Y-38917D01*
X10691Y-38767D01*
X10733Y-38767D01*
X10775Y-38767D01*
X10775Y-38917D01*
X10775Y-39067D01*
X10775Y-39067D01*
X10775Y-39067D01*
G37*
G36*
X11233Y-39067D02*
X11191Y-39067D01*
X11150Y-39067D01*
X11149Y-38952D01*
X11148Y-38838D01*
X11110Y-38952D01*
X11071Y-39067D01*
X11029Y-39067D01*
X10987Y-39067D01*
X10950Y-38952D01*
X10912Y-38838D01*
X10910Y-38952D01*
X10908Y-39067D01*
X10866Y-39067D01*
X10825Y-39067D01*
X10825Y-38917D01*
X10825Y-38767D01*
X10890Y-38767D01*
X10955Y-38767D01*
X10991Y-38879D01*
X11005Y-38919D01*
X11017Y-38951D01*
X11027Y-38974D01*
X11033Y-38985D01*
X11034Y-38985D01*
X11039Y-38975D01*
X11047Y-38953D01*
X11058Y-38921D01*
X11070Y-38882D01*
X11073Y-38875D01*
X11105Y-38771D01*
X11169Y-38768D01*
X11233Y-38766D01*
X11233Y-38916D01*
X11233Y-39067D01*
X11233Y-39067D01*
X11233Y-39067D01*
G37*
G36*
X12070Y-39062D02*
X12059Y-39065D01*
X12036Y-39067D01*
X12027Y-39067D01*
X11996Y-39065D01*
X11977Y-39059D01*
X11974Y-39054D01*
X11974Y-38856D01*
X11967Y-38838D01*
X11964Y-38835D01*
X11954Y-38829D01*
X11936Y-38826D01*
X11910Y-38824D01*
X11871Y-38824D01*
X11860Y-38824D01*
X11808Y-38825D01*
X11808Y-38863D01*
X11808Y-38900D01*
X11875Y-38900D01*
X11909Y-38899D01*
X11938Y-38896D01*
X11957Y-38892D01*
X11959Y-38891D01*
X11971Y-38877D01*
X11974Y-38856D01*
X11974Y-39054D01*
X11969Y-39045D01*
X11967Y-39019D01*
X11966Y-39008D01*
X11964Y-38982D01*
X11955Y-38965D01*
X11937Y-38955D01*
X11907Y-38951D01*
X11874Y-38950D01*
X11808Y-38950D01*
X11808Y-39008D01*
X11808Y-39067D01*
X11766Y-39067D01*
X11725Y-39067D01*
X11725Y-38917D01*
X11725Y-38767D01*
X11828Y-38767D01*
X11893Y-38768D01*
X11943Y-38771D01*
X11982Y-38777D01*
X12011Y-38786D01*
X12032Y-38798D01*
X12044Y-38808D01*
X12062Y-38837D01*
X12064Y-38865D01*
X12050Y-38892D01*
X12041Y-38901D01*
X12026Y-38917D01*
X12021Y-38927D01*
X12027Y-38935D01*
X12033Y-38940D01*
X12046Y-38959D01*
X12054Y-38991D01*
X12055Y-39000D01*
X12060Y-39027D01*
X12065Y-39049D01*
X12069Y-39056D01*
X12070Y-39062D01*
X12070Y-39062D01*
X12070Y-39062D01*
G37*
G36*
X12433Y-39067D02*
X12275Y-39067D01*
X12116Y-39067D01*
X12116Y-38916D01*
X12116Y-38766D01*
X12269Y-38769D01*
X12421Y-38771D01*
X12423Y-38798D01*
X12426Y-38825D01*
X12313Y-38825D01*
X12200Y-38825D01*
X12200Y-38854D01*
X12200Y-38883D01*
X12304Y-38883D01*
X12408Y-38883D01*
X12408Y-38908D01*
X12408Y-38933D01*
X12304Y-38933D01*
X12200Y-38933D01*
X12200Y-38971D01*
X12200Y-39008D01*
X12316Y-39008D01*
X12433Y-39008D01*
X12433Y-39038D01*
X12433Y-39067D01*
X12433Y-39067D01*
X12433Y-39067D01*
G37*
G36*
X12817Y-38982D02*
X12809Y-39009D01*
X12798Y-39023D01*
X12781Y-39037D01*
X12764Y-39047D01*
X12743Y-39054D01*
X12729Y-39057D01*
X12729Y-38975D01*
X12724Y-38956D01*
X12720Y-38953D01*
X12720Y-38855D01*
X12716Y-38841D01*
X12710Y-38833D01*
X12699Y-38829D01*
X12681Y-38826D01*
X12651Y-38825D01*
X12633Y-38825D01*
X12558Y-38825D01*
X12558Y-38854D01*
X12558Y-38883D01*
X12628Y-38883D01*
X12667Y-38882D01*
X12692Y-38879D01*
X12708Y-38873D01*
X12712Y-38870D01*
X12720Y-38855D01*
X12720Y-38953D01*
X12705Y-38942D01*
X12702Y-38941D01*
X12684Y-38937D01*
X12655Y-38934D01*
X12622Y-38933D01*
X12620Y-38933D01*
X12558Y-38933D01*
X12558Y-38976D01*
X12558Y-39019D01*
X12629Y-39015D01*
X12667Y-39012D01*
X12692Y-39008D01*
X12708Y-39002D01*
X12717Y-38995D01*
X12729Y-38975D01*
X12729Y-39057D01*
X12717Y-39059D01*
X12681Y-39062D01*
X12633Y-39064D01*
X12606Y-39065D01*
X12475Y-39069D01*
X12475Y-38917D01*
X12475Y-38764D01*
X12606Y-38768D01*
X12662Y-38770D01*
X12703Y-38773D01*
X12733Y-38777D01*
X12753Y-38782D01*
X12763Y-38786D01*
X12785Y-38804D01*
X12799Y-38829D01*
X12803Y-38855D01*
X12797Y-38878D01*
X12782Y-38892D01*
X12773Y-38899D01*
X12773Y-38906D01*
X12784Y-38918D01*
X12791Y-38925D01*
X12811Y-38952D01*
X12817Y-38982D01*
X12817Y-38982D01*
X12817Y-38982D01*
G37*
G36*
X12950Y-39067D02*
X12908Y-39067D01*
X12866Y-39067D01*
X12866Y-38917D01*
X12866Y-38767D01*
X12908Y-38767D01*
X12950Y-38767D01*
X12950Y-38917D01*
X12950Y-39067D01*
X12950Y-39067D01*
X12950Y-39067D01*
G37*
G36*
X13783Y-38905D02*
X13778Y-38952D01*
X13767Y-38980D01*
X13750Y-39009D01*
X13728Y-39032D01*
X13697Y-39048D01*
X13692Y-39049D01*
X13692Y-38911D01*
X13690Y-38881D01*
X13684Y-38862D01*
X13671Y-38845D01*
X13659Y-38835D01*
X13645Y-38829D01*
X13626Y-38826D01*
X13595Y-38825D01*
X13584Y-38825D01*
X13517Y-38825D01*
X13517Y-38921D01*
X13517Y-39017D01*
X13556Y-39017D01*
X13588Y-39015D01*
X13619Y-39010D01*
X13627Y-39008D01*
X13660Y-38992D01*
X13681Y-38966D01*
X13691Y-38929D01*
X13692Y-38911D01*
X13692Y-39049D01*
X13657Y-39058D01*
X13605Y-39064D01*
X13538Y-39066D01*
X13531Y-39066D01*
X13433Y-39067D01*
X13433Y-38915D01*
X13433Y-38764D01*
X13558Y-38769D01*
X13607Y-38771D01*
X13643Y-38773D01*
X13668Y-38776D01*
X13687Y-38780D01*
X13703Y-38786D01*
X13718Y-38794D01*
X13720Y-38795D01*
X13753Y-38823D01*
X13774Y-38861D01*
X13783Y-38905D01*
X13783Y-38905D01*
X13783Y-38905D01*
G37*
G36*
X13900Y-39067D02*
X13858Y-39067D01*
X13817Y-39067D01*
X13817Y-38917D01*
X13817Y-38767D01*
X13858Y-38767D01*
X13900Y-38767D01*
X13900Y-38917D01*
X13900Y-39067D01*
X13900Y-39067D01*
X13900Y-39067D01*
G37*
G36*
X14283Y-39067D02*
X14125Y-39067D01*
X13967Y-39067D01*
X13967Y-38916D01*
X13967Y-38766D01*
X14119Y-38769D01*
X14271Y-38771D01*
X14273Y-38798D01*
X14276Y-38825D01*
X14163Y-38825D01*
X14050Y-38825D01*
X14050Y-38854D01*
X14050Y-38883D01*
X14154Y-38883D01*
X14258Y-38883D01*
X14258Y-38908D01*
X14258Y-38933D01*
X14154Y-38933D01*
X14050Y-38933D01*
X14050Y-38971D01*
X14050Y-39008D01*
X14167Y-39008D01*
X14283Y-39008D01*
X14283Y-39038D01*
X14283Y-39067D01*
X14283Y-39067D01*
X14283Y-39067D01*
G37*
G36*
X15008Y-39067D02*
X14850Y-39067D01*
X14692Y-39067D01*
X14692Y-38916D01*
X14692Y-38766D01*
X14844Y-38769D01*
X14996Y-38771D01*
X14998Y-38798D01*
X15001Y-38825D01*
X14888Y-38825D01*
X14775Y-38825D01*
X14775Y-38854D01*
X14775Y-38883D01*
X14879Y-38883D01*
X14983Y-38883D01*
X14983Y-38908D01*
X14983Y-38933D01*
X14879Y-38933D01*
X14775Y-38933D01*
X14775Y-38971D01*
X14775Y-39008D01*
X14892Y-39008D01*
X15008Y-39008D01*
X15008Y-39038D01*
X15008Y-39067D01*
X15008Y-39067D01*
X15008Y-39067D01*
G37*
G36*
X15342Y-39067D02*
X15196Y-39067D01*
X15050Y-39067D01*
X15050Y-38917D01*
X15050Y-38767D01*
X15092Y-38767D01*
X15133Y-38767D01*
X15133Y-38888D01*
X15133Y-39008D01*
X15238Y-39008D01*
X15342Y-39008D01*
X15342Y-39038D01*
X15342Y-39067D01*
X15342Y-39067D01*
X15342Y-39067D01*
G37*
G36*
X15458Y-39067D02*
X15417Y-39067D01*
X15375Y-39067D01*
X15375Y-39038D01*
X15375Y-39008D01*
X15417Y-39008D01*
X15458Y-39008D01*
X15458Y-39038D01*
X15458Y-39067D01*
X15458Y-39067D01*
X15458Y-39067D01*
G37*
G36*
X16287Y-39062D02*
X16276Y-39065D01*
X16253Y-39067D01*
X16244Y-39067D01*
X16212Y-39065D01*
X16194Y-39059D01*
X16191Y-39054D01*
X16191Y-38856D01*
X16184Y-38838D01*
X16181Y-38835D01*
X16170Y-38829D01*
X16153Y-38826D01*
X16127Y-38824D01*
X16088Y-38824D01*
X16077Y-38824D01*
X16025Y-38825D01*
X16025Y-38863D01*
X16025Y-38900D01*
X16092Y-38900D01*
X16126Y-38899D01*
X16155Y-38896D01*
X16173Y-38892D01*
X16176Y-38891D01*
X16188Y-38877D01*
X16191Y-38856D01*
X16191Y-39054D01*
X16186Y-39045D01*
X16183Y-39019D01*
X16183Y-39008D01*
X16181Y-38982D01*
X16172Y-38965D01*
X16154Y-38955D01*
X16124Y-38951D01*
X16091Y-38950D01*
X16025Y-38950D01*
X16025Y-39008D01*
X16025Y-39067D01*
X15983Y-39067D01*
X15942Y-39067D01*
X15942Y-38917D01*
X15942Y-38767D01*
X16045Y-38767D01*
X16110Y-38768D01*
X16160Y-38771D01*
X16199Y-38777D01*
X16228Y-38786D01*
X16249Y-38798D01*
X16260Y-38808D01*
X16279Y-38837D01*
X16281Y-38865D01*
X16267Y-38892D01*
X16258Y-38901D01*
X16243Y-38917D01*
X16238Y-38927D01*
X16244Y-38935D01*
X16250Y-38940D01*
X16263Y-38959D01*
X16271Y-38991D01*
X16272Y-39000D01*
X16276Y-39027D01*
X16282Y-39049D01*
X16285Y-39056D01*
X16287Y-39062D01*
X16287Y-39062D01*
X16287Y-39062D01*
G37*
G36*
X15912Y-38308D02*
X15909Y-38420D01*
X15901Y-38521D01*
X15888Y-38617D01*
X15873Y-38692D01*
X15862Y-38738D01*
X15813Y-38663D01*
X15741Y-38566D01*
X15656Y-38480D01*
X15558Y-38404D01*
X15447Y-38338D01*
X15323Y-38283D01*
X15185Y-38236D01*
X15035Y-38200D01*
X14968Y-38188D01*
X14902Y-38176D01*
X14835Y-38167D01*
X14765Y-38158D01*
X14690Y-38150D01*
X14607Y-38143D01*
X14515Y-38136D01*
X14411Y-38130D01*
X14295Y-38124D01*
X14225Y-38121D01*
X14075Y-38113D01*
X13940Y-38106D01*
X13820Y-38098D01*
X13711Y-38090D01*
X13614Y-38080D01*
X13526Y-38070D01*
X13446Y-38059D01*
X13373Y-38047D01*
X13305Y-38033D01*
X13242Y-38018D01*
X13180Y-38001D01*
X13121Y-37983D01*
X12987Y-37931D01*
X12863Y-37868D01*
X12752Y-37795D01*
X12653Y-37713D01*
X12567Y-37621D01*
X12495Y-37520D01*
X12492Y-37516D01*
X12409Y-37392D01*
X12319Y-37283D01*
X12220Y-37187D01*
X12113Y-37103D01*
X11995Y-37030D01*
X11937Y-37000D01*
X11794Y-36938D01*
X11650Y-36892D01*
X11504Y-36862D01*
X11354Y-36848D01*
X11199Y-36850D01*
X11180Y-36851D01*
X11063Y-36863D01*
X10955Y-36882D01*
X10852Y-36909D01*
X10748Y-36946D01*
X10640Y-36995D01*
X10612Y-37008D01*
X10444Y-37098D01*
X10291Y-37193D01*
X10154Y-37293D01*
X10032Y-37399D01*
X9924Y-37510D01*
X9831Y-37626D01*
X9753Y-37749D01*
X9745Y-37762D01*
X9728Y-37792D01*
X9677Y-37717D01*
X9626Y-37642D01*
X9681Y-37569D01*
X9769Y-37465D01*
X9871Y-37363D01*
X9989Y-37263D01*
X10121Y-37167D01*
X10266Y-37076D01*
X10423Y-36988D01*
X10466Y-36966D01*
X10679Y-36866D01*
X10888Y-36781D01*
X11096Y-36711D01*
X11307Y-36653D01*
X11522Y-36608D01*
X11744Y-36575D01*
X11904Y-36558D01*
X11957Y-36555D01*
X12022Y-36553D01*
X12097Y-36551D01*
X12177Y-36550D01*
X12259Y-36550D01*
X12338Y-36551D01*
X12411Y-36553D01*
X12474Y-36556D01*
X12505Y-36558D01*
X12768Y-36587D01*
X13027Y-36632D01*
X13281Y-36693D01*
X13530Y-36770D01*
X13773Y-36862D01*
X14010Y-36969D01*
X14242Y-37092D01*
X14466Y-37229D01*
X14683Y-37382D01*
X14893Y-37549D01*
X15040Y-37678D01*
X15070Y-37705D01*
X15095Y-37728D01*
X15113Y-37743D01*
X15122Y-37750D01*
X15122Y-37744D01*
X15111Y-37726D01*
X15090Y-37696D01*
X15059Y-37653D01*
X15047Y-37638D01*
X14909Y-37470D01*
X14759Y-37312D01*
X14596Y-37166D01*
X14423Y-37030D01*
X14238Y-36905D01*
X14043Y-36793D01*
X13838Y-36692D01*
X13625Y-36604D01*
X13404Y-36529D01*
X13175Y-36467D01*
X13042Y-36438D01*
X12979Y-36426D01*
X12923Y-36416D01*
X12871Y-36407D01*
X12823Y-36400D01*
X12775Y-36394D01*
X12725Y-36390D01*
X12671Y-36387D01*
X12612Y-36385D01*
X12611Y-36384D01*
X12611Y-35859D01*
X12611Y-35843D01*
X12604Y-35782D01*
X12584Y-35732D01*
X12552Y-35691D01*
X12541Y-35682D01*
X12511Y-35664D01*
X12470Y-35649D01*
X12426Y-35638D01*
X12384Y-35633D01*
X12381Y-35633D01*
X12350Y-35633D01*
X12350Y-35825D01*
X12350Y-36016D01*
X12369Y-36016D01*
X12385Y-36015D01*
X12413Y-36013D01*
X12448Y-36010D01*
X12470Y-36008D01*
X12511Y-36003D01*
X12539Y-35998D01*
X12558Y-35992D01*
X12571Y-35983D01*
X12572Y-35982D01*
X12593Y-35953D01*
X12606Y-35912D01*
X12611Y-35859D01*
X12611Y-36384D01*
X12544Y-36383D01*
X12466Y-36382D01*
X12375Y-36382D01*
X12275Y-36382D01*
X12171Y-36382D01*
X12082Y-36383D01*
X12007Y-36384D01*
X11944Y-36385D01*
X11892Y-36386D01*
X11848Y-36388D01*
X11812Y-36391D01*
X11781Y-36394D01*
X11766Y-36395D01*
X11647Y-36413D01*
X11534Y-36433D01*
X11478Y-36445D01*
X11478Y-35833D01*
X11472Y-35776D01*
X11452Y-35725D01*
X11420Y-35683D01*
X11417Y-35680D01*
X11373Y-35650D01*
X11327Y-35636D01*
X11282Y-35635D01*
X11238Y-35646D01*
X11198Y-35670D01*
X11165Y-35703D01*
X11140Y-35746D01*
X11127Y-35798D01*
X11125Y-35828D01*
X11129Y-35884D01*
X11143Y-35928D01*
X11167Y-35967D01*
X11179Y-35980D01*
X11221Y-36012D01*
X11265Y-36028D01*
X11315Y-36029D01*
X11356Y-36021D01*
X11401Y-35999D01*
X11438Y-35964D01*
X11463Y-35919D01*
X11476Y-35864D01*
X11478Y-35833D01*
X11478Y-36445D01*
X11422Y-36457D01*
X11309Y-36486D01*
X11191Y-36520D01*
X11063Y-36561D01*
X10987Y-36587D01*
X10980Y-36587D01*
X10986Y-36579D01*
X11002Y-36564D01*
X11029Y-36543D01*
X11064Y-36517D01*
X11106Y-36487D01*
X11154Y-36454D01*
X11160Y-36450D01*
X11282Y-36368D01*
X11214Y-36358D01*
X11119Y-36337D01*
X11034Y-36303D01*
X10959Y-36257D01*
X10901Y-36203D01*
X10860Y-36156D01*
X10829Y-36110D01*
X10804Y-36059D01*
X10787Y-36011D01*
X10769Y-35942D01*
X10760Y-35864D01*
X10760Y-35785D01*
X10769Y-35713D01*
X10770Y-35708D01*
X10797Y-35618D01*
X10838Y-35536D01*
X10892Y-35464D01*
X10958Y-35402D01*
X11035Y-35352D01*
X11120Y-35315D01*
X11158Y-35304D01*
X11208Y-35294D01*
X11268Y-35290D01*
X11331Y-35290D01*
X11390Y-35294D01*
X11440Y-35303D01*
X11441Y-35303D01*
X11532Y-35335D01*
X11614Y-35380D01*
X11685Y-35437D01*
X11745Y-35507D01*
X11789Y-35578D01*
X11818Y-35652D01*
X11835Y-35734D01*
X11842Y-35821D01*
X11837Y-35908D01*
X11820Y-35992D01*
X11793Y-36070D01*
X11779Y-36097D01*
X11765Y-36123D01*
X11754Y-36143D01*
X11750Y-36153D01*
X11757Y-36152D01*
X11777Y-36147D01*
X11807Y-36138D01*
X11842Y-36128D01*
X11880Y-36117D01*
X11913Y-36108D01*
X11936Y-36102D01*
X11947Y-36100D01*
X11949Y-36098D01*
X11952Y-36090D01*
X11953Y-36076D01*
X11955Y-36054D01*
X11956Y-36022D01*
X11957Y-35980D01*
X11957Y-35927D01*
X11958Y-35860D01*
X11958Y-35780D01*
X11958Y-35699D01*
X11958Y-35298D01*
X12244Y-35302D01*
X12321Y-35303D01*
X12385Y-35304D01*
X12436Y-35305D01*
X12476Y-35306D01*
X12508Y-35308D01*
X12534Y-35311D01*
X12555Y-35314D01*
X12574Y-35318D01*
X12593Y-35323D01*
X12596Y-35323D01*
X12692Y-35356D01*
X12776Y-35400D01*
X12847Y-35455D01*
X12905Y-35519D01*
X12949Y-35593D01*
X12981Y-35677D01*
X12988Y-35705D01*
X12994Y-35739D01*
X12998Y-35776D01*
X12999Y-35819D01*
X12998Y-35874D01*
X12998Y-35884D01*
X12994Y-36000D01*
X13018Y-36000D01*
X13042Y-36000D01*
X13042Y-35650D01*
X13042Y-35300D01*
X13238Y-35300D01*
X13433Y-35300D01*
X13433Y-35674D01*
X13433Y-35764D01*
X13433Y-35839D01*
X13434Y-35900D01*
X13434Y-35948D01*
X13435Y-35986D01*
X13437Y-36014D01*
X13440Y-36033D01*
X13444Y-36046D01*
X13450Y-36054D01*
X13456Y-36057D01*
X13464Y-36058D01*
X13474Y-36058D01*
X13480Y-36058D01*
X13500Y-36058D01*
X13500Y-35679D01*
X13500Y-35300D01*
X13867Y-35300D01*
X14233Y-35300D01*
X14233Y-35446D01*
X14233Y-35591D01*
X14067Y-35591D01*
X13900Y-35591D01*
X13900Y-35646D01*
X13900Y-35700D01*
X14050Y-35700D01*
X14200Y-35700D01*
X14200Y-35837D01*
X14200Y-35975D01*
X14050Y-35975D01*
X13900Y-35975D01*
X13900Y-36033D01*
X13900Y-36091D01*
X14071Y-36091D01*
X14242Y-36091D01*
X14242Y-36186D01*
X14242Y-36227D01*
X14243Y-36254D01*
X14245Y-36271D01*
X14249Y-36281D01*
X14256Y-36287D01*
X14262Y-36290D01*
X14270Y-36294D01*
X14276Y-36295D01*
X14282Y-36294D01*
X14288Y-36286D01*
X14295Y-36272D01*
X14306Y-36248D01*
X14319Y-36214D01*
X14338Y-36167D01*
X14350Y-36136D01*
X14402Y-36001D01*
X14454Y-36037D01*
X14511Y-36071D01*
X14568Y-36095D01*
X14623Y-36110D01*
X14672Y-36114D01*
X14713Y-36107D01*
X14718Y-36106D01*
X14749Y-36087D01*
X14767Y-36064D01*
X14769Y-36038D01*
X14767Y-36031D01*
X14760Y-36016D01*
X14749Y-36005D01*
X14730Y-35996D01*
X14702Y-35988D01*
X14660Y-35980D01*
X14654Y-35979D01*
X14593Y-35966D01*
X14538Y-35951D01*
X14492Y-35935D01*
X14460Y-35919D01*
X14460Y-35919D01*
X14429Y-35896D01*
X14397Y-35867D01*
X14369Y-35836D01*
X14350Y-35808D01*
X14349Y-35806D01*
X14339Y-35780D01*
X14330Y-35746D01*
X14327Y-35727D01*
X14324Y-35649D01*
X14337Y-35576D01*
X14363Y-35508D01*
X14403Y-35448D01*
X14454Y-35395D01*
X14517Y-35351D01*
X14589Y-35318D01*
X14670Y-35295D01*
X14759Y-35284D01*
X14791Y-35283D01*
X14834Y-35284D01*
X14876Y-35287D01*
X14912Y-35291D01*
X14921Y-35292D01*
X14957Y-35301D01*
X14998Y-35313D01*
X15039Y-35328D01*
X15075Y-35343D01*
X15103Y-35358D01*
X15113Y-35364D01*
X15131Y-35379D01*
X15081Y-35508D01*
X15064Y-35551D01*
X15050Y-35589D01*
X15038Y-35618D01*
X15030Y-35636D01*
X15028Y-35641D01*
X15020Y-35639D01*
X15001Y-35631D01*
X14977Y-35618D01*
X14919Y-35592D01*
X14864Y-35575D01*
X14814Y-35568D01*
X14772Y-35571D01*
X14740Y-35584D01*
X14728Y-35595D01*
X14713Y-35614D01*
X14710Y-35627D01*
X14717Y-35642D01*
X14723Y-35650D01*
X14735Y-35659D01*
X14755Y-35669D01*
X14787Y-35679D01*
X14831Y-35692D01*
X14847Y-35696D01*
X14893Y-35708D01*
X14937Y-35722D01*
X14975Y-35734D01*
X15002Y-35745D01*
X15003Y-35746D01*
X15062Y-35783D01*
X15109Y-35831D01*
X15142Y-35888D01*
X15161Y-35954D01*
X15165Y-35994D01*
X15162Y-36071D01*
X15145Y-36142D01*
X15114Y-36206D01*
X15070Y-36261D01*
X15015Y-36308D01*
X14950Y-36346D01*
X14875Y-36375D01*
X14792Y-36392D01*
X14702Y-36399D01*
X14605Y-36394D01*
X14532Y-36383D01*
X14496Y-36376D01*
X14467Y-36371D01*
X14449Y-36367D01*
X14444Y-36366D01*
X14450Y-36370D01*
X14468Y-36380D01*
X14496Y-36395D01*
X14530Y-36413D01*
X14539Y-36417D01*
X14728Y-36523D01*
X14905Y-36636D01*
X15069Y-36756D01*
X15219Y-36883D01*
X15356Y-37016D01*
X15479Y-37154D01*
X15587Y-37298D01*
X15681Y-37447D01*
X15759Y-37600D01*
X15821Y-37757D01*
X15858Y-37877D01*
X15879Y-37966D01*
X15895Y-38048D01*
X15905Y-38128D01*
X15910Y-38214D01*
X15912Y-38308D01*
X15912Y-38308D01*
X15912Y-38308D01*
G37*
G36*
X10966Y-36596D02*
X10962Y-36600D01*
X10958Y-36596D01*
X10962Y-36591D01*
X10966Y-36596D01*
X10966Y-36596D01*
X10966Y-36596D01*
G37*
G36*
X10241Y-36086D02*
X10237Y-36139D01*
X10229Y-36181D01*
X10206Y-36230D01*
X10169Y-36275D01*
X10119Y-36315D01*
X10058Y-36348D01*
X9996Y-36371D01*
X9980Y-36375D01*
X9962Y-36378D01*
X9939Y-36381D01*
X9910Y-36383D01*
X9873Y-36384D01*
X9868Y-36384D01*
X9868Y-36033D01*
X9863Y-36000D01*
X9847Y-35975D01*
X9824Y-35963D01*
X9824Y-35645D01*
X9823Y-35616D01*
X9817Y-35593D01*
X9814Y-35588D01*
X9797Y-35576D01*
X9768Y-35566D01*
X9731Y-35560D01*
X9706Y-35558D01*
X9675Y-35558D01*
X9675Y-35633D01*
X9675Y-35708D01*
X9721Y-35708D01*
X9752Y-35706D01*
X9780Y-35700D01*
X9791Y-35696D01*
X9809Y-35683D01*
X9820Y-35670D01*
X9824Y-35645D01*
X9824Y-35963D01*
X9819Y-35960D01*
X9777Y-35951D01*
X9738Y-35950D01*
X9675Y-35950D01*
X9675Y-36037D01*
X9675Y-36125D01*
X9712Y-36125D01*
X9744Y-36123D01*
X9779Y-36118D01*
X9790Y-36116D01*
X9830Y-36102D01*
X9855Y-36080D01*
X9867Y-36050D01*
X9868Y-36033D01*
X9868Y-36384D01*
X9825Y-36386D01*
X9766Y-36387D01*
X9694Y-36388D01*
X9623Y-36389D01*
X9300Y-36393D01*
X9300Y-35841D01*
X9300Y-35290D01*
X9602Y-35294D01*
X9686Y-35295D01*
X9755Y-35296D01*
X9811Y-35298D01*
X9855Y-35299D01*
X9891Y-35301D01*
X9918Y-35304D01*
X9939Y-35307D01*
X9956Y-35311D01*
X10030Y-35337D01*
X10091Y-35373D01*
X10138Y-35418D01*
X10168Y-35466D01*
X10177Y-35486D01*
X10183Y-35508D01*
X10186Y-35534D01*
X10187Y-35571D01*
X10187Y-35591D01*
X10187Y-35634D01*
X10185Y-35663D01*
X10180Y-35685D01*
X10174Y-35704D01*
X10169Y-35712D01*
X10143Y-35750D01*
X10109Y-35784D01*
X10073Y-35809D01*
X10072Y-35810D01*
X10049Y-35821D01*
X10092Y-35842D01*
X10131Y-35866D01*
X10169Y-35901D01*
X10202Y-35940D01*
X10225Y-35980D01*
X10228Y-35988D01*
X10238Y-36033D01*
X10241Y-36086D01*
X10241Y-36086D01*
X10241Y-36086D01*
G37*
G36*
X10658Y-36391D02*
X10458Y-36391D01*
X10258Y-36391D01*
X10258Y-35841D01*
X10258Y-35291D01*
X10458Y-35291D01*
X10658Y-35291D01*
X10658Y-35841D01*
X10658Y-36391D01*
X10658Y-36391D01*
X10658Y-36391D01*
G37*
G36*
X15958Y-36383D02*
X15592Y-36383D01*
X15225Y-36383D01*
X15225Y-35841D01*
X15225Y-35300D01*
X15588Y-35300D01*
X15950Y-35300D01*
X15950Y-35446D01*
X15950Y-35591D01*
X15783Y-35591D01*
X15617Y-35591D01*
X15617Y-35646D01*
X15617Y-35700D01*
X15767Y-35700D01*
X15917Y-35700D01*
X15917Y-35837D01*
X15917Y-35975D01*
X15767Y-35975D01*
X15617Y-35975D01*
X15617Y-36033D01*
X15617Y-36091D01*
X15788Y-36091D01*
X15958Y-36091D01*
X15958Y-36237D01*
X15958Y-36383D01*
X15958Y-36383D01*
X15958Y-36383D01*
G37*
G36*
X16733Y-36383D02*
X16375Y-36383D01*
X16017Y-36383D01*
X16017Y-35841D01*
X16017Y-35300D01*
X16213Y-35300D01*
X16408Y-35300D01*
X16408Y-35671D01*
X16408Y-36041D01*
X16571Y-36041D01*
X16733Y-36041D01*
X16733Y-36212D01*
X16733Y-36383D01*
X16733Y-36383D01*
X16733Y-36383D01*
G37*
G36*
X15170Y-34676D02*
X15167Y-34737D01*
X15159Y-34789D01*
X15155Y-34808D01*
X15126Y-34889D01*
X15083Y-34964D01*
X15031Y-35030D01*
X14970Y-35084D01*
X14953Y-35096D01*
X14906Y-35122D01*
X14851Y-35146D01*
X14818Y-35157D01*
X14818Y-34662D01*
X14812Y-34610D01*
X14796Y-34561D01*
X14769Y-34518D01*
X14736Y-34488D01*
X14690Y-34466D01*
X14640Y-34458D01*
X14590Y-34465D01*
X14543Y-34485D01*
X14520Y-34502D01*
X14486Y-34541D01*
X14465Y-34587D01*
X14454Y-34637D01*
X14454Y-34689D01*
X14464Y-34739D01*
X14485Y-34783D01*
X14516Y-34820D01*
X14545Y-34839D01*
X14599Y-34859D01*
X14652Y-34862D01*
X14704Y-34849D01*
X14733Y-34835D01*
X14770Y-34803D01*
X14797Y-34761D01*
X14813Y-34713D01*
X14818Y-34662D01*
X14818Y-35157D01*
X14793Y-35165D01*
X14740Y-35177D01*
X14722Y-35180D01*
X14691Y-35182D01*
X14664Y-35185D01*
X14650Y-35186D01*
X14631Y-35187D01*
X14602Y-35185D01*
X14569Y-35183D01*
X14569Y-35182D01*
X14475Y-35166D01*
X14389Y-35134D01*
X14312Y-35089D01*
X14242Y-35029D01*
X14237Y-35023D01*
X14181Y-34953D01*
X14140Y-34876D01*
X14114Y-34791D01*
X14101Y-34699D01*
X14100Y-34658D01*
X14107Y-34562D01*
X14129Y-34472D01*
X14165Y-34389D01*
X14213Y-34316D01*
X14274Y-34252D01*
X14346Y-34200D01*
X14372Y-34185D01*
X14443Y-34153D01*
X14512Y-34134D01*
X14588Y-34124D01*
X14638Y-34122D01*
X14732Y-34129D01*
X14817Y-34148D01*
X14895Y-34182D01*
X14968Y-34230D01*
X15021Y-34278D01*
X15072Y-34336D01*
X15111Y-34393D01*
X15139Y-34457D01*
X15156Y-34509D01*
X15164Y-34556D01*
X15169Y-34614D01*
X15170Y-34676D01*
X15170Y-34676D01*
X15170Y-34676D01*
G37*
G36*
X10146Y-34890D02*
X10140Y-34949D01*
X10124Y-35000D01*
X10090Y-35055D01*
X10044Y-35100D01*
X9985Y-35135D01*
X9929Y-35155D01*
X9912Y-35159D01*
X9892Y-35162D01*
X9866Y-35165D01*
X9832Y-35167D01*
X9822Y-35167D01*
X9822Y-34837D01*
X9816Y-34804D01*
X9815Y-34803D01*
X9793Y-34776D01*
X9783Y-34771D01*
X9783Y-34456D01*
X9778Y-34423D01*
X9761Y-34400D01*
X9732Y-34387D01*
X9689Y-34383D01*
X9688Y-34383D01*
X9633Y-34383D01*
X9633Y-34458D01*
X9633Y-34533D01*
X9679Y-34533D01*
X9709Y-34531D01*
X9734Y-34527D01*
X9744Y-34523D01*
X9769Y-34504D01*
X9781Y-34478D01*
X9783Y-34456D01*
X9783Y-34771D01*
X9758Y-34758D01*
X9710Y-34750D01*
X9689Y-34750D01*
X9633Y-34750D01*
X9633Y-34838D01*
X9633Y-34926D01*
X9703Y-34924D01*
X9739Y-34921D01*
X9763Y-34918D01*
X9780Y-34912D01*
X9793Y-34902D01*
X9795Y-34901D01*
X9815Y-34871D01*
X9822Y-34837D01*
X9822Y-35167D01*
X9789Y-35169D01*
X9735Y-35170D01*
X9668Y-35172D01*
X9600Y-35173D01*
X9533Y-35173D01*
X9472Y-35174D01*
X9418Y-35173D01*
X9373Y-35173D01*
X9340Y-35172D01*
X9319Y-35171D01*
X9314Y-35170D01*
X9313Y-35161D01*
X9312Y-35136D01*
X9311Y-35098D01*
X9310Y-35047D01*
X9310Y-34986D01*
X9309Y-34915D01*
X9309Y-34836D01*
X9308Y-34750D01*
X9308Y-34660D01*
X9308Y-34647D01*
X9308Y-34131D01*
X9573Y-34135D01*
X9655Y-34137D01*
X9722Y-34138D01*
X9777Y-34141D01*
X9822Y-34144D01*
X9858Y-34148D01*
X9888Y-34153D01*
X9914Y-34160D01*
X9938Y-34168D01*
X9962Y-34179D01*
X9969Y-34182D01*
X10011Y-34210D01*
X10048Y-34248D01*
X10077Y-34292D01*
X10087Y-34319D01*
X10095Y-34359D01*
X10099Y-34405D01*
X10098Y-34452D01*
X10093Y-34493D01*
X10088Y-34510D01*
X10068Y-34551D01*
X10040Y-34586D01*
X10009Y-34611D01*
X10003Y-34614D01*
X9985Y-34625D01*
X9975Y-34633D01*
X9975Y-34635D01*
X9982Y-34642D01*
X9999Y-34651D01*
X10003Y-34653D01*
X10040Y-34675D01*
X10077Y-34708D01*
X10108Y-34746D01*
X10125Y-34777D01*
X10141Y-34830D01*
X10146Y-34890D01*
X10146Y-34890D01*
X10146Y-34890D01*
G37*
G36*
X11775Y-35175D02*
X11279Y-35175D01*
X10784Y-35175D01*
X10776Y-35144D01*
X10768Y-35114D01*
X10760Y-35082D01*
X10758Y-35077D01*
X10749Y-35041D01*
X10683Y-35041D01*
X10683Y-34788D01*
X10681Y-34775D01*
X10677Y-34750D01*
X10670Y-34715D01*
X10661Y-34675D01*
X10659Y-34665D01*
X10649Y-34620D01*
X10640Y-34578D01*
X10633Y-34542D01*
X10628Y-34518D01*
X10628Y-34516D01*
X10622Y-34495D01*
X10615Y-34482D01*
X10612Y-34481D01*
X10609Y-34489D01*
X10603Y-34510D01*
X10595Y-34542D01*
X10585Y-34581D01*
X10576Y-34624D01*
X10566Y-34668D01*
X10557Y-34710D01*
X10550Y-34747D01*
X10544Y-34775D01*
X10542Y-34793D01*
X10542Y-34794D01*
X10549Y-34796D01*
X10570Y-34798D01*
X10599Y-34800D01*
X10612Y-34800D01*
X10648Y-34799D01*
X10670Y-34797D01*
X10680Y-34793D01*
X10683Y-34788D01*
X10683Y-35041D01*
X10613Y-35041D01*
X10477Y-35041D01*
X10463Y-35108D01*
X10448Y-35175D01*
X10266Y-35175D01*
X10201Y-35174D01*
X10151Y-35174D01*
X10116Y-35172D01*
X10094Y-35170D01*
X10084Y-35167D01*
X10083Y-35165D01*
X10085Y-35159D01*
X10089Y-35143D01*
X10097Y-35118D01*
X10108Y-35082D01*
X10123Y-35036D01*
X10142Y-34978D01*
X10164Y-34907D01*
X10191Y-34825D01*
X10223Y-34729D01*
X10259Y-34619D01*
X10299Y-34494D01*
X10345Y-34355D01*
X10368Y-34285D01*
X10417Y-34133D01*
X10611Y-34133D01*
X10805Y-34133D01*
X10967Y-34614D01*
X11129Y-35096D01*
X11131Y-34614D01*
X11133Y-34133D01*
X11308Y-34133D01*
X11483Y-34133D01*
X11483Y-34487D01*
X11483Y-34841D01*
X11629Y-34841D01*
X11775Y-34841D01*
X11775Y-35008D01*
X11775Y-35175D01*
X11775Y-35175D01*
X11775Y-35175D01*
G37*
G36*
X12358Y-34469D02*
X12262Y-34464D01*
X12166Y-34459D01*
X12166Y-34817D01*
X12166Y-35175D01*
X11991Y-35175D01*
X11816Y-35175D01*
X11816Y-34817D01*
X11816Y-34460D01*
X11716Y-34464D01*
X11616Y-34469D01*
X11618Y-34303D01*
X11621Y-34137D01*
X11989Y-34135D01*
X12358Y-34133D01*
X12358Y-34301D01*
X12358Y-34469D01*
X12358Y-34469D01*
X12358Y-34469D01*
G37*
G36*
X12767Y-34133D02*
X12764Y-34652D01*
X12762Y-35171D01*
X12589Y-35173D01*
X12416Y-35175D01*
X12416Y-34654D01*
X12416Y-34133D01*
X12591Y-34133D01*
X12767Y-34133D01*
X12767Y-34133D01*
X12767Y-34133D01*
G37*
G36*
X14108Y-35163D02*
X14105Y-35167D01*
X14096Y-35170D01*
X14077Y-35172D01*
X14048Y-35174D01*
X14006Y-35175D01*
X13949Y-35175D01*
X13942Y-35175D01*
X13776Y-35175D01*
X13771Y-35148D01*
X13770Y-35132D01*
X13767Y-35103D01*
X13763Y-35061D01*
X13759Y-35011D01*
X13754Y-34955D01*
X13750Y-34904D01*
X13743Y-34824D01*
X13738Y-34759D01*
X13734Y-34708D01*
X13730Y-34669D01*
X13727Y-34641D01*
X13724Y-34621D01*
X13722Y-34610D01*
X13719Y-34604D01*
X13717Y-34604D01*
X13717Y-34604D01*
X13712Y-34614D01*
X13706Y-34634D01*
X13705Y-34640D01*
X13702Y-34656D01*
X13694Y-34686D01*
X13682Y-34727D01*
X13668Y-34777D01*
X13651Y-34834D01*
X13633Y-34895D01*
X13629Y-34909D01*
X13611Y-34970D01*
X13594Y-35025D01*
X13579Y-35074D01*
X13567Y-35114D01*
X13558Y-35143D01*
X13554Y-35159D01*
X13553Y-35160D01*
X13550Y-35167D01*
X13542Y-35171D01*
X13528Y-35173D01*
X13503Y-35174D01*
X13466Y-35173D01*
X13447Y-35173D01*
X13346Y-35171D01*
X13278Y-34937D01*
X13260Y-34875D01*
X13244Y-34816D01*
X13229Y-34762D01*
X13217Y-34716D01*
X13209Y-34680D01*
X13204Y-34658D01*
X13204Y-34656D01*
X13200Y-34629D01*
X13195Y-34610D01*
X13191Y-34604D01*
X13189Y-34603D01*
X13186Y-34605D01*
X13184Y-34612D01*
X13181Y-34624D01*
X13178Y-34645D01*
X13175Y-34674D01*
X13171Y-34714D01*
X13166Y-34765D01*
X13160Y-34831D01*
X13153Y-34911D01*
X13153Y-34914D01*
X13130Y-35175D01*
X12960Y-35175D01*
X12790Y-35175D01*
X12795Y-35148D01*
X12797Y-35135D01*
X12801Y-35107D01*
X12807Y-35065D01*
X12816Y-35012D01*
X12825Y-34949D01*
X12836Y-34877D01*
X12848Y-34798D01*
X12861Y-34714D01*
X12870Y-34650D01*
X12884Y-34563D01*
X12896Y-34480D01*
X12908Y-34403D01*
X12918Y-34334D01*
X12928Y-34274D01*
X12935Y-34224D01*
X12941Y-34187D01*
X12945Y-34163D01*
X12946Y-34156D01*
X12951Y-34133D01*
X13132Y-34135D01*
X13312Y-34137D01*
X13378Y-34408D01*
X13393Y-34473D01*
X13408Y-34532D01*
X13421Y-34584D01*
X13432Y-34627D01*
X13440Y-34659D01*
X13445Y-34678D01*
X13447Y-34682D01*
X13452Y-34683D01*
X13458Y-34671D01*
X13464Y-34645D01*
X13467Y-34624D01*
X13472Y-34601D01*
X13480Y-34566D01*
X13491Y-34519D01*
X13505Y-34465D01*
X13520Y-34407D01*
X13535Y-34352D01*
X13594Y-34133D01*
X13771Y-34133D01*
X13949Y-34133D01*
X13953Y-34156D01*
X13956Y-34170D01*
X13960Y-34198D01*
X13967Y-34238D01*
X13975Y-34290D01*
X13984Y-34350D01*
X13995Y-34418D01*
X14006Y-34491D01*
X14018Y-34568D01*
X14030Y-34647D01*
X14042Y-34726D01*
X14054Y-34804D01*
X14066Y-34878D01*
X14076Y-34948D01*
X14086Y-35011D01*
X14094Y-35065D01*
X14101Y-35109D01*
X14105Y-35141D01*
X14108Y-35160D01*
X14108Y-35163D01*
X14108Y-35163D01*
X14108Y-35163D01*
G37*
G36*
X16742Y-35175D02*
X16227Y-35175D01*
X15713Y-35175D01*
X15689Y-35124D01*
X15689Y-34494D01*
X15682Y-34461D01*
X15667Y-34438D01*
X15642Y-34425D01*
X15604Y-34418D01*
X15596Y-34418D01*
X15542Y-34414D01*
X15542Y-34502D01*
X15542Y-34538D01*
X15544Y-34568D01*
X15546Y-34589D01*
X15548Y-34595D01*
X15559Y-34597D01*
X15581Y-34596D01*
X15608Y-34593D01*
X15633Y-34588D01*
X15651Y-34582D01*
X15652Y-34582D01*
X15676Y-34560D01*
X15689Y-34528D01*
X15689Y-34494D01*
X15689Y-35124D01*
X15636Y-35010D01*
X15613Y-34962D01*
X15593Y-34919D01*
X15575Y-34884D01*
X15561Y-34858D01*
X15552Y-34845D01*
X15551Y-34843D01*
X15547Y-34848D01*
X15545Y-34866D01*
X15543Y-34898D01*
X15542Y-34944D01*
X15542Y-35006D01*
X15542Y-35007D01*
X15542Y-35175D01*
X15371Y-35175D01*
X15200Y-35175D01*
X15200Y-34653D01*
X15200Y-34132D01*
X15465Y-34135D01*
X15540Y-34136D01*
X15601Y-34138D01*
X15649Y-34139D01*
X15687Y-34141D01*
X15717Y-34143D01*
X15741Y-34146D01*
X15760Y-34149D01*
X15778Y-34154D01*
X15784Y-34155D01*
X15849Y-34180D01*
X15903Y-34212D01*
X15950Y-34255D01*
X15953Y-34258D01*
X15984Y-34298D01*
X16006Y-34338D01*
X16020Y-34382D01*
X16027Y-34436D01*
X16029Y-34491D01*
X16028Y-34536D01*
X16027Y-34568D01*
X16023Y-34592D01*
X16017Y-34613D01*
X16009Y-34631D01*
X15980Y-34679D01*
X15938Y-34718D01*
X15885Y-34747D01*
X15840Y-34767D01*
X15876Y-34806D01*
X15893Y-34827D01*
X15915Y-34858D01*
X15942Y-34897D01*
X15971Y-34940D01*
X15992Y-34974D01*
X16071Y-35102D01*
X16073Y-34618D01*
X16075Y-34133D01*
X16400Y-34133D01*
X16725Y-34133D01*
X16725Y-34275D01*
X16725Y-34416D01*
X16575Y-34416D01*
X16425Y-34416D01*
X16425Y-34466D01*
X16425Y-34516D01*
X16563Y-34516D01*
X16700Y-34516D01*
X16700Y-34650D01*
X16700Y-34783D01*
X16565Y-34785D01*
X16429Y-34787D01*
X16427Y-34839D01*
X16424Y-34891D01*
X16583Y-34891D01*
X16742Y-34891D01*
X16742Y-35033D01*
X16742Y-35175D01*
X16742Y-35175D01*
X16742Y-35175D01*
G37*
G54D15*
X22009Y-5780D02*
X22257Y-5780D01*
X22123Y-5933D01*
X22180Y-5933D01*
X22219Y-5952D01*
X22238Y-5971D01*
X22257Y-6009D01*
X22257Y-6104D01*
X22238Y-6142D01*
X22219Y-6161D01*
X22180Y-6180D01*
X22066Y-6180D01*
X22028Y-6161D01*
X22009Y-6142D01*
X22428Y-6142D02*
X22447Y-6161D01*
X22428Y-6180D01*
X22409Y-6161D01*
X22428Y-6142D01*
X22428Y-6180D01*
X22580Y-5780D02*
X22828Y-5780D01*
X22695Y-5933D01*
X22752Y-5933D01*
X22790Y-5952D01*
X22809Y-5971D01*
X22828Y-6009D01*
X22828Y-6104D01*
X22809Y-6142D01*
X22790Y-6161D01*
X22752Y-6180D01*
X22638Y-6180D01*
X22600Y-6161D01*
X22580Y-6142D01*
X22942Y-5780D02*
X23076Y-6180D01*
X23209Y-5780D01*
X22295Y-6800D02*
X22257Y-6780D01*
X22200Y-6780D01*
X22142Y-6800D01*
X22104Y-6838D01*
X22085Y-6876D01*
X22066Y-6952D01*
X22066Y-7009D01*
X22085Y-7085D01*
X22104Y-7123D01*
X22142Y-7161D01*
X22200Y-7180D01*
X22238Y-7180D01*
X22295Y-7161D01*
X22314Y-7142D01*
X22314Y-7009D01*
X22238Y-7009D01*
X22485Y-7180D02*
X22485Y-6780D01*
X22714Y-7180D01*
X22714Y-6780D01*
X22904Y-7180D02*
X22904Y-6780D01*
X23000Y-6780D01*
X23057Y-6800D01*
X23095Y-6838D01*
X23114Y-6876D01*
X23133Y-6952D01*
X23133Y-7009D01*
X23114Y-7085D01*
X23095Y-7123D01*
X23057Y-7161D01*
X23000Y-7180D01*
X22904Y-7180D01*
X35895Y-6800D02*
X35857Y-6780D01*
X35800Y-6780D01*
X35742Y-6800D01*
X35704Y-6838D01*
X35685Y-6876D01*
X35666Y-6952D01*
X35666Y-7009D01*
X35685Y-7085D01*
X35704Y-7123D01*
X35742Y-7161D01*
X35800Y-7180D01*
X35838Y-7180D01*
X35895Y-7161D01*
X35914Y-7142D01*
X35914Y-7009D01*
X35838Y-7009D01*
X36085Y-7180D02*
X36085Y-6780D01*
X36314Y-7180D01*
X36314Y-6780D01*
X36504Y-7180D02*
X36504Y-6780D01*
X36600Y-6780D01*
X36657Y-6800D01*
X36695Y-6838D01*
X36714Y-6876D01*
X36733Y-6952D01*
X36733Y-7009D01*
X36714Y-7085D01*
X36695Y-7123D01*
X36657Y-7161D01*
X36600Y-7180D01*
X36504Y-7180D01*
X36095Y-33800D02*
X36057Y-33780D01*
X36000Y-33780D01*
X35942Y-33800D01*
X35904Y-33838D01*
X35885Y-33876D01*
X35866Y-33952D01*
X35866Y-34009D01*
X35885Y-34085D01*
X35904Y-34123D01*
X35942Y-34161D01*
X36000Y-34180D01*
X36038Y-34180D01*
X36095Y-34161D01*
X36114Y-34142D01*
X36114Y-34009D01*
X36038Y-34009D01*
X36285Y-34180D02*
X36285Y-33780D01*
X36514Y-34180D01*
X36514Y-33780D01*
X36704Y-34180D02*
X36704Y-33780D01*
X36800Y-33780D01*
X36857Y-33800D01*
X36895Y-33838D01*
X36914Y-33876D01*
X36933Y-33952D01*
X36933Y-34009D01*
X36914Y-34085D01*
X36895Y-34123D01*
X36857Y-34161D01*
X36800Y-34180D01*
X36704Y-34180D01*
X35885Y-35228D02*
X36190Y-35228D01*
X36038Y-35380D02*
X36038Y-35076D01*
X36571Y-34980D02*
X36380Y-34980D01*
X36361Y-35171D01*
X36380Y-35152D01*
X36419Y-35133D01*
X36514Y-35133D01*
X36552Y-35152D01*
X36571Y-35171D01*
X36590Y-35209D01*
X36590Y-35304D01*
X36571Y-35342D01*
X36552Y-35361D01*
X36514Y-35380D01*
X36419Y-35380D01*
X36380Y-35361D01*
X36361Y-35342D01*
X36704Y-34980D02*
X36838Y-35380D01*
X36971Y-34980D01*
X18751Y-29825D02*
X18980Y-29825D01*
X18866Y-30225D02*
X18866Y-29825D01*
X19056Y-29825D02*
X19285Y-29825D01*
X19170Y-30225D02*
X19170Y-29825D01*
X19609Y-30225D02*
X19418Y-30225D01*
X19418Y-29825D01*
X19742Y-30073D02*
X20047Y-30073D01*
X20466Y-30225D02*
X20332Y-30035D01*
X20237Y-30225D02*
X20237Y-29825D01*
X20390Y-29825D01*
X20428Y-29845D01*
X20447Y-29864D01*
X20466Y-29902D01*
X20466Y-29959D01*
X20447Y-29997D01*
X20428Y-30016D01*
X20390Y-30035D01*
X20237Y-30035D01*
X20599Y-30225D02*
X20809Y-29959D01*
X20599Y-29959D02*
X20809Y-30225D01*
X18799Y-30840D02*
X19028Y-30840D01*
X18913Y-31240D02*
X18913Y-30840D01*
X19104Y-30840D02*
X19332Y-30840D01*
X19218Y-31240D02*
X19218Y-30840D01*
X19656Y-31240D02*
X19466Y-31240D01*
X19466Y-30840D01*
X19790Y-31088D02*
X20094Y-31088D01*
X20228Y-30840D02*
X20456Y-30840D01*
X20342Y-31240D02*
X20342Y-30840D01*
X20551Y-31240D02*
X20761Y-30974D01*
X20551Y-30974D02*
X20761Y-31240D01*
X19905Y-31805D02*
X19867Y-31785D01*
X19810Y-31785D01*
X19752Y-31805D01*
X19714Y-31843D01*
X19695Y-31881D01*
X19676Y-31957D01*
X19676Y-32014D01*
X19695Y-32090D01*
X19714Y-32128D01*
X19752Y-32166D01*
X19810Y-32185D01*
X19848Y-32185D01*
X19905Y-32166D01*
X19924Y-32147D01*
X19924Y-32014D01*
X19848Y-32014D01*
X20095Y-32185D02*
X20095Y-31785D01*
X20324Y-32185D01*
X20324Y-31785D01*
X20514Y-32185D02*
X20514Y-31785D01*
X20610Y-31785D01*
X20667Y-31805D01*
X20705Y-31843D01*
X20724Y-31881D01*
X20743Y-31957D01*
X20743Y-32014D01*
X20724Y-32090D01*
X20705Y-32128D01*
X20667Y-32166D01*
X20610Y-32185D01*
X20514Y-32185D01*
X19362Y-32940D02*
X19609Y-32940D01*
X19476Y-33093D01*
X19533Y-33093D01*
X19571Y-33112D01*
X19590Y-33131D01*
X19609Y-33169D01*
X19609Y-33264D01*
X19590Y-33302D01*
X19571Y-33321D01*
X19533Y-33340D01*
X19419Y-33340D01*
X19381Y-33321D01*
X19362Y-33302D01*
X19781Y-33302D02*
X19800Y-33321D01*
X19781Y-33340D01*
X19762Y-33321D01*
X19781Y-33302D01*
X19781Y-33340D01*
X19933Y-32940D02*
X20181Y-32940D01*
X20047Y-33093D01*
X20105Y-33093D01*
X20143Y-33112D01*
X20162Y-33131D01*
X20181Y-33169D01*
X20181Y-33264D01*
X20162Y-33302D01*
X20143Y-33321D01*
X20105Y-33340D01*
X19990Y-33340D01*
X19952Y-33321D01*
X19933Y-33302D01*
X20600Y-32940D02*
X20733Y-33340D01*
X20866Y-32940D01*
X19905Y-33905D02*
X19867Y-33885D01*
X19810Y-33885D01*
X19752Y-33905D01*
X19714Y-33943D01*
X19695Y-33981D01*
X19676Y-34057D01*
X19676Y-34114D01*
X19695Y-34190D01*
X19714Y-34228D01*
X19752Y-34266D01*
X19810Y-34285D01*
X19848Y-34285D01*
X19905Y-34266D01*
X19924Y-34247D01*
X19924Y-34114D01*
X19848Y-34114D01*
X20095Y-34285D02*
X20095Y-33885D01*
X20324Y-34285D01*
X20324Y-33885D01*
X20514Y-34285D02*
X20514Y-33885D01*
X20610Y-33885D01*
X20667Y-33905D01*
X20705Y-33943D01*
X20724Y-33981D01*
X20743Y-34057D01*
X20743Y-34114D01*
X20724Y-34190D01*
X20705Y-34228D01*
X20667Y-34266D01*
X20610Y-34285D01*
X20514Y-34285D01*
X19695Y-35183D02*
X20000Y-35183D01*
X19848Y-35335D02*
X19848Y-35031D01*
X20381Y-34935D02*
X20190Y-34935D01*
X20171Y-35126D01*
X20190Y-35107D01*
X20229Y-35088D01*
X20324Y-35088D01*
X20362Y-35107D01*
X20381Y-35126D01*
X20400Y-35164D01*
X20400Y-35259D01*
X20381Y-35297D01*
X20362Y-35316D01*
X20324Y-35335D01*
X20229Y-35335D01*
X20190Y-35316D01*
X20171Y-35297D01*
X20514Y-34935D02*
X20648Y-35335D01*
X20781Y-34935D01*
X25431Y-5901D02*
X25545Y-5901D01*
X25602Y-5930D01*
X25660Y-5987D01*
X25688Y-6101D01*
X25688Y-6301D01*
X25660Y-6415D01*
X25602Y-6472D01*
X25545Y-6501D01*
X25431Y-6501D01*
X25374Y-6472D01*
X25317Y-6415D01*
X25288Y-6301D01*
X25288Y-6101D01*
X25317Y-5987D01*
X25374Y-5930D01*
X25431Y-5901D01*
X26231Y-6501D02*
X25945Y-6501D01*
X25945Y-5901D01*
X26431Y-6501D02*
X26431Y-6101D01*
X26431Y-5901D02*
X26402Y-5930D01*
X26431Y-5958D01*
X26460Y-5930D01*
X26431Y-5901D01*
X26431Y-5958D01*
X26717Y-6101D02*
X26717Y-6501D01*
X26717Y-6158D02*
X26745Y-6130D01*
X26802Y-6101D01*
X26888Y-6101D01*
X26945Y-6130D01*
X26974Y-6187D01*
X26974Y-6501D01*
X27517Y-6101D02*
X27517Y-6501D01*
X27260Y-6101D02*
X27260Y-6415D01*
X27288Y-6472D01*
X27345Y-6501D01*
X27431Y-6501D01*
X27488Y-6472D01*
X27517Y-6444D01*
X27745Y-5901D02*
X28145Y-6501D01*
X28145Y-5901D02*
X27745Y-6501D01*
X28374Y-6501D02*
X28374Y-6101D01*
X28374Y-5901D02*
X28345Y-5930D01*
X28374Y-5958D01*
X28402Y-5930D01*
X28374Y-5901D01*
X28374Y-5958D01*
X28660Y-6101D02*
X28660Y-6501D01*
X28660Y-6158D02*
X28688Y-6130D01*
X28745Y-6101D01*
X28831Y-6101D01*
X28888Y-6130D01*
X28917Y-6187D01*
X28917Y-6501D01*
X29288Y-6501D02*
X29231Y-6472D01*
X29202Y-6444D01*
X29174Y-6387D01*
X29174Y-6215D01*
X29202Y-6158D01*
X29231Y-6130D01*
X29288Y-6101D01*
X29374Y-6101D01*
X29431Y-6130D01*
X29460Y-6158D01*
X29488Y-6215D01*
X29488Y-6387D01*
X29460Y-6444D01*
X29431Y-6472D01*
X29374Y-6501D01*
X29288Y-6501D01*
X29745Y-6272D02*
X30202Y-6272D01*
X30488Y-6501D02*
X30488Y-5901D01*
X30688Y-6330D01*
X30888Y-5901D01*
X30888Y-6501D01*
X31174Y-6501D02*
X31174Y-5901D01*
X31802Y-6444D02*
X31774Y-6472D01*
X31688Y-6501D01*
X31631Y-6501D01*
X31545Y-6472D01*
X31488Y-6415D01*
X31459Y-6358D01*
X31431Y-6244D01*
X31431Y-6158D01*
X31459Y-6044D01*
X31488Y-5987D01*
X31545Y-5930D01*
X31631Y-5901D01*
X31688Y-5901D01*
X31774Y-5930D01*
X31802Y-5958D01*
X32402Y-6501D02*
X32202Y-6215D01*
X32059Y-6501D02*
X32059Y-5901D01*
X32288Y-5901D01*
X32345Y-5930D01*
X32374Y-5958D01*
X32402Y-6015D01*
X32402Y-6101D01*
X32374Y-6158D01*
X32345Y-6187D01*
X32288Y-6215D01*
X32059Y-6215D01*
X32774Y-5901D02*
X32888Y-5901D01*
X32945Y-5930D01*
X33002Y-5987D01*
X33031Y-6101D01*
X33031Y-6301D01*
X33002Y-6415D01*
X32945Y-6472D01*
X32888Y-6501D01*
X32774Y-6501D01*
X32717Y-6472D01*
X32659Y-6415D01*
X32631Y-6301D01*
X32631Y-6101D01*
X32659Y-5987D01*
X32717Y-5930D01*
X32774Y-5901D01*
X38666Y-9680D02*
X38666Y-9966D01*
X38647Y-10023D01*
X38609Y-10061D01*
X38552Y-10080D01*
X38514Y-10080D01*
X39028Y-9680D02*
X38952Y-9680D01*
X38914Y-9700D01*
X38895Y-9719D01*
X38857Y-9776D01*
X38838Y-9852D01*
X38838Y-10004D01*
X38857Y-10042D01*
X38876Y-10061D01*
X38914Y-10080D01*
X38990Y-10080D01*
X39028Y-10061D01*
X39047Y-10042D01*
X39066Y-10004D01*
X39066Y-9909D01*
X39047Y-9871D01*
X39028Y-9852D01*
X38990Y-9833D01*
X38914Y-9833D01*
X38876Y-9852D01*
X38857Y-9871D01*
X38838Y-9909D01*
X38242Y-6080D02*
X38242Y-5680D01*
X38414Y-6061D02*
X38471Y-6080D01*
X38566Y-6080D01*
X38604Y-6061D01*
X38623Y-6042D01*
X38642Y-6004D01*
X38642Y-5966D01*
X38623Y-5928D01*
X38604Y-5909D01*
X38566Y-5890D01*
X38490Y-5871D01*
X38452Y-5852D01*
X38433Y-5833D01*
X38414Y-5795D01*
X38414Y-5757D01*
X38433Y-5719D01*
X38452Y-5700D01*
X38490Y-5680D01*
X38585Y-5680D01*
X38642Y-5700D01*
X38814Y-6080D02*
X38814Y-5680D01*
X38966Y-5680D01*
X39004Y-5700D01*
X39023Y-5719D01*
X39042Y-5757D01*
X39042Y-5814D01*
X39023Y-5852D01*
X39004Y-5871D01*
X38966Y-5890D01*
X38814Y-5890D01*
X39519Y-6080D02*
X39519Y-5680D01*
X39519Y-5871D02*
X39747Y-5871D01*
X39747Y-6080D02*
X39747Y-5680D01*
X40109Y-6080D02*
X40109Y-5680D01*
X40109Y-6061D02*
X40071Y-6080D01*
X39995Y-6080D01*
X39957Y-6061D01*
X39938Y-6042D01*
X39919Y-6004D01*
X39919Y-5890D01*
X39938Y-5852D01*
X39957Y-5833D01*
X39995Y-5814D01*
X40071Y-5814D01*
X40109Y-5833D01*
X40300Y-6080D02*
X40300Y-5814D01*
X40300Y-5890D02*
X40319Y-5852D01*
X40338Y-5833D01*
X40376Y-5814D01*
X40414Y-5814D01*
X38374Y-7000D02*
X38145Y-7000D01*
X38260Y-7000D02*
X38260Y-6600D01*
X38221Y-6658D01*
X38183Y-6696D01*
X38145Y-6715D01*
X33780Y-18066D02*
X33590Y-18199D01*
X33780Y-18295D02*
X33380Y-18295D01*
X33380Y-18142D01*
X33400Y-18104D01*
X33419Y-18085D01*
X33457Y-18066D01*
X33514Y-18066D01*
X33552Y-18085D01*
X33571Y-18104D01*
X33590Y-18142D01*
X33590Y-18295D01*
X33419Y-17914D02*
X33400Y-17895D01*
X33380Y-17857D01*
X33380Y-17761D01*
X33400Y-17723D01*
X33419Y-17704D01*
X33457Y-17685D01*
X33495Y-17685D01*
X33552Y-17704D01*
X33780Y-17933D01*
X33780Y-17685D01*
X32880Y-18066D02*
X32690Y-18199D01*
X32880Y-18295D02*
X32480Y-18295D01*
X32480Y-18142D01*
X32500Y-18104D01*
X32519Y-18085D01*
X32557Y-18066D01*
X32614Y-18066D01*
X32652Y-18085D01*
X32671Y-18104D01*
X32690Y-18142D01*
X32690Y-18295D01*
X32880Y-17685D02*
X32880Y-17914D01*
X32880Y-17799D02*
X32480Y-17799D01*
X32538Y-17838D01*
X32576Y-17876D01*
X32595Y-17914D01*
X26997Y-21612D02*
X27016Y-21631D01*
X27035Y-21688D01*
X27035Y-21726D01*
X27016Y-21784D01*
X26978Y-21822D01*
X26940Y-21841D01*
X26864Y-21860D01*
X26807Y-21860D01*
X26731Y-21841D01*
X26693Y-21822D01*
X26655Y-21784D01*
X26635Y-21726D01*
X26635Y-21688D01*
X26655Y-21631D01*
X26674Y-21612D01*
X27035Y-21441D02*
X26635Y-21441D01*
X26788Y-21441D02*
X26769Y-21403D01*
X26769Y-21326D01*
X26788Y-21288D01*
X26807Y-21269D01*
X26845Y-21250D01*
X26959Y-21250D01*
X26997Y-21269D01*
X27016Y-21288D01*
X27035Y-21326D01*
X27035Y-21403D01*
X27016Y-21441D01*
X26674Y-21098D02*
X26655Y-21079D01*
X26635Y-21041D01*
X26635Y-20945D01*
X26655Y-20907D01*
X26674Y-20888D01*
X26712Y-20869D01*
X26750Y-20869D01*
X26807Y-20888D01*
X27035Y-21117D01*
X27035Y-20869D01*
X31942Y-18066D02*
X31961Y-18085D01*
X31980Y-18142D01*
X31980Y-18180D01*
X31961Y-18238D01*
X31923Y-18276D01*
X31885Y-18295D01*
X31809Y-18314D01*
X31752Y-18314D01*
X31676Y-18295D01*
X31638Y-18276D01*
X31600Y-18238D01*
X31580Y-18180D01*
X31580Y-18142D01*
X31600Y-18085D01*
X31619Y-18066D01*
X31980Y-17685D02*
X31980Y-17914D01*
X31980Y-17799D02*
X31580Y-17799D01*
X31638Y-17838D01*
X31676Y-17876D01*
X31695Y-17914D01*
X29052Y-18842D02*
X29033Y-18861D01*
X28976Y-18880D01*
X28938Y-18880D01*
X28880Y-18861D01*
X28842Y-18823D01*
X28823Y-18785D01*
X28804Y-18709D01*
X28804Y-18652D01*
X28823Y-18576D01*
X28842Y-18538D01*
X28880Y-18500D01*
X28938Y-18480D01*
X28976Y-18480D01*
X29033Y-18500D01*
X29052Y-18519D01*
X29223Y-18880D02*
X29223Y-18480D01*
X29223Y-18633D02*
X29261Y-18614D01*
X29338Y-18614D01*
X29376Y-18633D01*
X29395Y-18652D01*
X29414Y-18690D01*
X29414Y-18804D01*
X29395Y-18842D01*
X29376Y-18861D01*
X29338Y-18880D01*
X29261Y-18880D01*
X29223Y-18861D01*
X29757Y-18614D02*
X29757Y-18880D01*
X29661Y-18461D02*
X29566Y-18747D01*
X29814Y-18747D01*
X29152Y-19742D02*
X29133Y-19761D01*
X29076Y-19780D01*
X29038Y-19780D01*
X28980Y-19761D01*
X28942Y-19723D01*
X28923Y-19685D01*
X28904Y-19609D01*
X28904Y-19552D01*
X28923Y-19476D01*
X28942Y-19438D01*
X28980Y-19400D01*
X29038Y-19380D01*
X29076Y-19380D01*
X29133Y-19400D01*
X29152Y-19419D01*
X29323Y-19780D02*
X29323Y-19380D01*
X29323Y-19533D02*
X29361Y-19514D01*
X29438Y-19514D01*
X29476Y-19533D01*
X29495Y-19552D01*
X29514Y-19590D01*
X29514Y-19704D01*
X29495Y-19742D01*
X29476Y-19761D01*
X29438Y-19780D01*
X29361Y-19780D01*
X29323Y-19761D01*
X29895Y-19780D02*
X29666Y-19780D01*
X29780Y-19780D02*
X29780Y-19380D01*
X29742Y-19438D01*
X29704Y-19476D01*
X29666Y-19495D01*
X42616Y-14830D02*
X42616Y-15116D01*
X42597Y-15173D01*
X42559Y-15211D01*
X42502Y-15230D01*
X42464Y-15230D01*
X42769Y-14830D02*
X43016Y-14830D01*
X42883Y-14983D01*
X42940Y-14983D01*
X42978Y-15002D01*
X42997Y-15021D01*
X43016Y-15059D01*
X43016Y-15154D01*
X42997Y-15192D01*
X42978Y-15211D01*
X42940Y-15230D01*
X42826Y-15230D01*
X42788Y-15211D01*
X42769Y-15192D01*
X43504Y-14380D02*
X43504Y-13980D01*
X43638Y-14266D01*
X43771Y-13980D01*
X43771Y-14380D01*
X43904Y-13980D02*
X44133Y-13980D01*
X44019Y-14380D02*
X44019Y-13980D01*
X44266Y-14380D02*
X44266Y-13980D01*
X44495Y-14380D01*
X44495Y-13980D01*
X43695Y-11800D02*
X43657Y-11780D01*
X43600Y-11780D01*
X43542Y-11800D01*
X43504Y-11838D01*
X43485Y-11876D01*
X43466Y-11952D01*
X43466Y-12009D01*
X43485Y-12085D01*
X43504Y-12123D01*
X43542Y-12161D01*
X43600Y-12180D01*
X43638Y-12180D01*
X43695Y-12161D01*
X43714Y-12142D01*
X43714Y-12009D01*
X43638Y-12009D01*
X43885Y-12180D02*
X43885Y-11780D01*
X44114Y-12180D01*
X44114Y-11780D01*
X44304Y-12180D02*
X44304Y-11780D01*
X44400Y-11780D01*
X44457Y-11800D01*
X44495Y-11838D01*
X44514Y-11876D01*
X44533Y-11952D01*
X44533Y-12009D01*
X44514Y-12085D01*
X44495Y-12123D01*
X44457Y-12161D01*
X44400Y-12180D01*
X44304Y-12180D01*
X43485Y-13128D02*
X43790Y-13128D01*
X43638Y-13280D02*
X43638Y-12976D01*
X44171Y-12880D02*
X43980Y-12880D01*
X43961Y-13071D01*
X43980Y-13052D01*
X44019Y-13033D01*
X44114Y-13033D01*
X44152Y-13052D01*
X44171Y-13071D01*
X44190Y-13109D01*
X44190Y-13204D01*
X44171Y-13242D01*
X44152Y-13261D01*
X44114Y-13280D01*
X44019Y-13280D01*
X43980Y-13261D01*
X43961Y-13242D01*
X44304Y-12880D02*
X44438Y-13280D01*
X44571Y-12880D01*
X40766Y-13710D02*
X40766Y-13996D01*
X40747Y-14053D01*
X40709Y-14091D01*
X40652Y-14110D01*
X40614Y-14110D01*
X40919Y-13710D02*
X41185Y-13710D01*
X41014Y-14110D01*
X40526Y-12114D02*
X40026Y-12114D01*
X40526Y-11828D02*
X40240Y-12042D01*
X40026Y-11828D02*
X40311Y-12114D01*
X40502Y-11423D02*
X40526Y-11471D01*
X40526Y-11566D01*
X40502Y-11614D01*
X40454Y-11638D01*
X40264Y-11638D01*
X40216Y-11614D01*
X40192Y-11566D01*
X40192Y-11471D01*
X40216Y-11423D01*
X40264Y-11400D01*
X40311Y-11400D01*
X40359Y-11638D01*
X40192Y-11233D02*
X40526Y-11114D01*
X40192Y-10995D02*
X40526Y-11114D01*
X40645Y-11161D01*
X40669Y-11185D01*
X40692Y-11233D01*
X40192Y-10804D02*
X40692Y-10804D01*
X40216Y-10804D02*
X40192Y-10757D01*
X40192Y-10661D01*
X40216Y-10614D01*
X40240Y-10590D01*
X40288Y-10566D01*
X40430Y-10566D01*
X40478Y-10590D01*
X40502Y-10614D01*
X40526Y-10661D01*
X40526Y-10757D01*
X40502Y-10804D01*
X40526Y-10138D02*
X40264Y-10138D01*
X40216Y-10161D01*
X40192Y-10209D01*
X40192Y-10304D01*
X40216Y-10352D01*
X40502Y-10138D02*
X40526Y-10185D01*
X40526Y-10304D01*
X40502Y-10352D01*
X40454Y-10376D01*
X40407Y-10376D01*
X40359Y-10352D01*
X40335Y-10304D01*
X40335Y-10185D01*
X40311Y-10138D01*
X40526Y-9685D02*
X40026Y-9685D01*
X40502Y-9685D02*
X40526Y-9733D01*
X40526Y-9828D01*
X40502Y-9876D01*
X40478Y-9900D01*
X40430Y-9923D01*
X40288Y-9923D01*
X40240Y-9900D01*
X40216Y-9876D01*
X40192Y-9828D01*
X40192Y-9733D01*
X40216Y-9685D01*
X40614Y-13230D02*
X40385Y-13230D01*
X40500Y-13230D02*
X40500Y-12830D01*
X40461Y-12888D01*
X40423Y-12926D01*
X40385Y-12945D01*
X41320Y-18766D02*
X41130Y-18899D01*
X41320Y-18995D02*
X40920Y-18995D01*
X40920Y-18842D01*
X40940Y-18804D01*
X40959Y-18785D01*
X40997Y-18766D01*
X41054Y-18766D01*
X41092Y-18785D01*
X41111Y-18804D01*
X41130Y-18842D01*
X41130Y-18995D01*
X40920Y-18423D02*
X40920Y-18499D01*
X40940Y-18538D01*
X40959Y-18557D01*
X41016Y-18595D01*
X41092Y-18614D01*
X41244Y-18614D01*
X41282Y-18595D01*
X41301Y-18576D01*
X41320Y-18538D01*
X41320Y-18461D01*
X41301Y-18423D01*
X41282Y-18404D01*
X41244Y-18385D01*
X41149Y-18385D01*
X41111Y-18404D01*
X41092Y-18423D01*
X41073Y-18461D01*
X41073Y-18538D01*
X41092Y-18576D01*
X41111Y-18595D01*
X41149Y-18614D01*
X43280Y-18795D02*
X43280Y-18985D01*
X42880Y-18985D01*
X43242Y-18433D02*
X43261Y-18452D01*
X43280Y-18509D01*
X43280Y-18547D01*
X43261Y-18604D01*
X43223Y-18642D01*
X43185Y-18661D01*
X43109Y-18680D01*
X43052Y-18680D01*
X42976Y-18661D01*
X42938Y-18642D01*
X42900Y-18604D01*
X42880Y-18547D01*
X42880Y-18509D01*
X42900Y-18452D01*
X42919Y-18433D01*
X43280Y-18261D02*
X42880Y-18261D01*
X42880Y-18166D01*
X42900Y-18109D01*
X42938Y-18071D01*
X42976Y-18052D01*
X43052Y-18033D01*
X43109Y-18033D01*
X43185Y-18052D01*
X43223Y-18071D01*
X43261Y-18109D01*
X43280Y-18166D01*
X43280Y-18261D01*
X43242Y-17328D02*
X43261Y-17347D01*
X43280Y-17404D01*
X43280Y-17442D01*
X43261Y-17499D01*
X43223Y-17538D01*
X43185Y-17557D01*
X43109Y-17576D01*
X43052Y-17576D01*
X42976Y-17557D01*
X42938Y-17538D01*
X42900Y-17499D01*
X42880Y-17442D01*
X42880Y-17404D01*
X42900Y-17347D01*
X42919Y-17328D01*
X43014Y-17157D02*
X43280Y-17157D01*
X43052Y-17157D02*
X43033Y-17138D01*
X43014Y-17099D01*
X43014Y-17042D01*
X43033Y-17004D01*
X43071Y-16985D01*
X43280Y-16985D01*
X43014Y-16852D02*
X43014Y-16699D01*
X42880Y-16795D02*
X43223Y-16795D01*
X43261Y-16776D01*
X43280Y-16738D01*
X43280Y-16699D01*
X43261Y-16585D02*
X43280Y-16547D01*
X43280Y-16471D01*
X43261Y-16433D01*
X43223Y-16414D01*
X43204Y-16414D01*
X43166Y-16433D01*
X43147Y-16471D01*
X43147Y-16528D01*
X43128Y-16566D01*
X43090Y-16585D01*
X43071Y-16585D01*
X43033Y-16566D01*
X43014Y-16528D01*
X43014Y-16471D01*
X43033Y-16433D01*
X43014Y-16300D02*
X43014Y-16147D01*
X42880Y-16242D02*
X43223Y-16242D01*
X43261Y-16223D01*
X43280Y-16185D01*
X43280Y-16147D01*
X43242Y-16014D02*
X43261Y-15995D01*
X43280Y-16014D01*
X43261Y-16033D01*
X43242Y-16014D01*
X43280Y-16014D01*
X47433Y-26540D02*
X47300Y-26350D01*
X47204Y-26540D02*
X47204Y-26140D01*
X47357Y-26140D01*
X47395Y-26160D01*
X47414Y-26179D01*
X47433Y-26217D01*
X47433Y-26274D01*
X47414Y-26312D01*
X47395Y-26331D01*
X47357Y-26350D01*
X47204Y-26350D01*
X47661Y-26312D02*
X47623Y-26293D01*
X47604Y-26274D01*
X47585Y-26236D01*
X47585Y-26217D01*
X47604Y-26179D01*
X47623Y-26160D01*
X47661Y-26140D01*
X47738Y-26140D01*
X47776Y-26160D01*
X47795Y-26179D01*
X47814Y-26217D01*
X47814Y-26236D01*
X47795Y-26274D01*
X47776Y-26293D01*
X47738Y-26312D01*
X47661Y-26312D01*
X47623Y-26331D01*
X47604Y-26350D01*
X47585Y-26388D01*
X47585Y-26464D01*
X47604Y-26502D01*
X47623Y-26521D01*
X47661Y-26540D01*
X47738Y-26540D01*
X47776Y-26521D01*
X47795Y-26502D01*
X47814Y-26464D01*
X47814Y-26388D01*
X47795Y-26350D01*
X47776Y-26331D01*
X47738Y-26312D01*
X46780Y-13866D02*
X46590Y-13999D01*
X46780Y-14095D02*
X46380Y-14095D01*
X46380Y-13942D01*
X46400Y-13904D01*
X46419Y-13885D01*
X46457Y-13866D01*
X46514Y-13866D01*
X46552Y-13885D01*
X46571Y-13904D01*
X46590Y-13942D01*
X46590Y-14095D01*
X46780Y-13676D02*
X46780Y-13599D01*
X46761Y-13561D01*
X46742Y-13542D01*
X46685Y-13504D01*
X46609Y-13485D01*
X46457Y-13485D01*
X46419Y-13504D01*
X46400Y-13523D01*
X46380Y-13561D01*
X46380Y-13638D01*
X46400Y-13676D01*
X46419Y-13695D01*
X46457Y-13714D01*
X46552Y-13714D01*
X46590Y-13695D01*
X46609Y-13676D01*
X46628Y-13638D01*
X46628Y-13561D01*
X46609Y-13523D01*
X46590Y-13504D01*
X46552Y-13485D01*
X46319Y-22088D02*
X46300Y-22126D01*
X46261Y-22164D01*
X46204Y-22221D01*
X46185Y-22259D01*
X46185Y-22297D01*
X46280Y-22278D02*
X46261Y-22316D01*
X46223Y-22354D01*
X46147Y-22373D01*
X46014Y-22373D01*
X45938Y-22354D01*
X45900Y-22316D01*
X45880Y-22278D01*
X45880Y-22202D01*
X45900Y-22164D01*
X45938Y-22126D01*
X46014Y-22107D01*
X46147Y-22107D01*
X46223Y-22126D01*
X46261Y-22164D01*
X46280Y-22202D01*
X46280Y-22278D01*
X46014Y-21764D02*
X46280Y-21764D01*
X45861Y-21859D02*
X46147Y-21954D01*
X46147Y-21707D01*
X45411Y-11019D02*
X45373Y-11000D01*
X45335Y-10961D01*
X45278Y-10904D01*
X45240Y-10885D01*
X45202Y-10885D01*
X45221Y-10980D02*
X45183Y-10961D01*
X45145Y-10923D01*
X45126Y-10847D01*
X45126Y-10714D01*
X45145Y-10638D01*
X45183Y-10600D01*
X45221Y-10580D01*
X45297Y-10580D01*
X45335Y-10600D01*
X45373Y-10638D01*
X45392Y-10714D01*
X45392Y-10847D01*
X45373Y-10923D01*
X45335Y-10961D01*
X45297Y-10980D01*
X45221Y-10980D01*
X45545Y-10619D02*
X45564Y-10600D01*
X45602Y-10580D01*
X45697Y-10580D01*
X45735Y-10600D01*
X45754Y-10619D01*
X45773Y-10657D01*
X45773Y-10695D01*
X45754Y-10752D01*
X45526Y-10980D01*
X45773Y-10980D01*
X45561Y-7519D02*
X45523Y-7500D01*
X45485Y-7461D01*
X45428Y-7404D01*
X45390Y-7385D01*
X45352Y-7385D01*
X45371Y-7480D02*
X45333Y-7461D01*
X45295Y-7423D01*
X45276Y-7347D01*
X45276Y-7214D01*
X45295Y-7138D01*
X45333Y-7100D01*
X45371Y-7080D01*
X45447Y-7080D01*
X45485Y-7100D01*
X45523Y-7138D01*
X45542Y-7214D01*
X45542Y-7347D01*
X45523Y-7423D01*
X45485Y-7461D01*
X45447Y-7480D01*
X45371Y-7480D01*
X45923Y-7480D02*
X45695Y-7480D01*
X45809Y-7480D02*
X45809Y-7080D01*
X45771Y-7138D01*
X45733Y-7176D01*
X45695Y-7195D01*
X41269Y-20238D02*
X41250Y-20276D01*
X41211Y-20314D01*
X41154Y-20371D01*
X41135Y-20409D01*
X41135Y-20447D01*
X41230Y-20428D02*
X41211Y-20466D01*
X41173Y-20504D01*
X41097Y-20523D01*
X40964Y-20523D01*
X40888Y-20504D01*
X40850Y-20466D01*
X40830Y-20428D01*
X40830Y-20352D01*
X40850Y-20314D01*
X40888Y-20276D01*
X40964Y-20257D01*
X41097Y-20257D01*
X41173Y-20276D01*
X41211Y-20314D01*
X41230Y-20352D01*
X41230Y-20428D01*
X40830Y-20123D02*
X40830Y-19876D01*
X40983Y-20009D01*
X40983Y-19952D01*
X41002Y-19914D01*
X41021Y-19895D01*
X41059Y-19876D01*
X41154Y-19876D01*
X41192Y-19895D01*
X41211Y-19914D01*
X41230Y-19952D01*
X41230Y-20066D01*
X41211Y-20104D01*
X41192Y-20123D01*
X39166Y-23480D02*
X39166Y-23766D01*
X39147Y-23823D01*
X39109Y-23861D01*
X39052Y-23880D01*
X39014Y-23880D01*
X39566Y-23880D02*
X39338Y-23880D01*
X39452Y-23880D02*
X39452Y-23480D01*
X39414Y-23538D01*
X39376Y-23576D01*
X39338Y-23595D01*
X38754Y-15226D02*
X38516Y-15226D01*
X38516Y-14726D01*
X39207Y-15178D02*
X39183Y-15202D01*
X39111Y-15226D01*
X39064Y-15226D01*
X38992Y-15202D01*
X38945Y-15154D01*
X38921Y-15107D01*
X38897Y-15011D01*
X38897Y-14940D01*
X38921Y-14845D01*
X38945Y-14797D01*
X38992Y-14750D01*
X39064Y-14726D01*
X39111Y-14726D01*
X39183Y-14750D01*
X39207Y-14773D01*
X39421Y-15226D02*
X39421Y-14726D01*
X39540Y-14726D01*
X39611Y-14750D01*
X39659Y-14797D01*
X39683Y-14845D01*
X39707Y-14940D01*
X39707Y-15011D01*
X39683Y-15107D01*
X39659Y-15154D01*
X39611Y-15202D01*
X39540Y-15226D01*
X39421Y-15226D01*
X38304Y-16090D02*
X38075Y-16090D01*
X38190Y-16090D02*
X38190Y-15690D01*
X38151Y-15748D01*
X38113Y-15786D01*
X38075Y-15805D01*
X42476Y-10680D02*
X42476Y-10966D01*
X42457Y-11023D01*
X42419Y-11061D01*
X42361Y-11080D01*
X42323Y-11080D01*
X42876Y-11080D02*
X42647Y-11080D01*
X42761Y-11080D02*
X42761Y-10680D01*
X42723Y-10738D01*
X42685Y-10776D01*
X42647Y-10795D01*
X43123Y-10680D02*
X43161Y-10680D01*
X43200Y-10700D01*
X43219Y-10719D01*
X43238Y-10757D01*
X43257Y-10833D01*
X43257Y-10928D01*
X43238Y-11004D01*
X43219Y-11042D01*
X43200Y-11061D01*
X43161Y-11080D01*
X43123Y-11080D01*
X43085Y-11061D01*
X43066Y-11042D01*
X43047Y-11004D01*
X43028Y-10928D01*
X43028Y-10833D01*
X43047Y-10757D01*
X43066Y-10719D01*
X43085Y-10700D01*
X43123Y-10680D01*
X43785Y-10028D02*
X44090Y-10028D01*
X43938Y-10180D02*
X43938Y-9876D01*
X44471Y-9780D02*
X44280Y-9780D01*
X44261Y-9971D01*
X44280Y-9952D01*
X44319Y-9933D01*
X44414Y-9933D01*
X44452Y-9952D01*
X44471Y-9971D01*
X44490Y-10009D01*
X44490Y-10104D01*
X44471Y-10142D01*
X44452Y-10161D01*
X44414Y-10180D01*
X44319Y-10180D01*
X44280Y-10161D01*
X44261Y-10142D01*
X44604Y-9780D02*
X44738Y-10180D01*
X44871Y-9780D01*
X43614Y-9066D02*
X43804Y-9066D01*
X43576Y-9180D02*
X43709Y-8780D01*
X43842Y-9180D01*
X43976Y-9180D02*
X43976Y-8780D01*
X44071Y-8780D01*
X44128Y-8800D01*
X44166Y-8838D01*
X44185Y-8876D01*
X44204Y-8952D01*
X44204Y-9009D01*
X44185Y-9085D01*
X44166Y-9123D01*
X44128Y-9161D01*
X44071Y-9180D01*
X43976Y-9180D01*
X44604Y-9142D02*
X44585Y-9161D01*
X44528Y-9180D01*
X44490Y-9180D01*
X44433Y-9161D01*
X44395Y-9123D01*
X44376Y-9085D01*
X44357Y-9009D01*
X44357Y-8952D01*
X44376Y-8876D01*
X44395Y-8838D01*
X44433Y-8800D01*
X44490Y-8780D01*
X44528Y-8780D01*
X44585Y-8800D01*
X44604Y-8819D01*
X44738Y-8780D02*
X44985Y-8780D01*
X44852Y-8933D01*
X44909Y-8933D01*
X44947Y-8952D01*
X44966Y-8971D01*
X44985Y-9009D01*
X44985Y-9104D01*
X44966Y-9142D01*
X44947Y-9161D01*
X44909Y-9180D01*
X44795Y-9180D01*
X44757Y-9161D01*
X44738Y-9142D01*
X43614Y-8066D02*
X43804Y-8066D01*
X43576Y-8180D02*
X43709Y-7780D01*
X43842Y-8180D01*
X43976Y-8180D02*
X43976Y-7780D01*
X44071Y-7780D01*
X44128Y-7800D01*
X44166Y-7838D01*
X44185Y-7876D01*
X44204Y-7952D01*
X44204Y-8009D01*
X44185Y-8085D01*
X44166Y-8123D01*
X44128Y-8161D01*
X44071Y-8180D01*
X43976Y-8180D01*
X44604Y-8142D02*
X44585Y-8161D01*
X44528Y-8180D01*
X44490Y-8180D01*
X44433Y-8161D01*
X44395Y-8123D01*
X44376Y-8085D01*
X44357Y-8009D01*
X44357Y-7952D01*
X44376Y-7876D01*
X44395Y-7838D01*
X44433Y-7800D01*
X44490Y-7780D01*
X44528Y-7780D01*
X44585Y-7800D01*
X44604Y-7819D01*
X44757Y-7819D02*
X44776Y-7800D01*
X44814Y-7780D01*
X44909Y-7780D01*
X44947Y-7800D01*
X44966Y-7819D01*
X44985Y-7857D01*
X44985Y-7895D01*
X44966Y-7952D01*
X44738Y-8180D01*
X44985Y-8180D01*
X43614Y-7066D02*
X43804Y-7066D01*
X43576Y-7180D02*
X43709Y-6780D01*
X43842Y-7180D01*
X43976Y-7180D02*
X43976Y-6780D01*
X44071Y-6780D01*
X44128Y-6800D01*
X44166Y-6838D01*
X44185Y-6876D01*
X44204Y-6952D01*
X44204Y-7009D01*
X44185Y-7085D01*
X44166Y-7123D01*
X44128Y-7161D01*
X44071Y-7180D01*
X43976Y-7180D01*
X44604Y-7142D02*
X44585Y-7161D01*
X44528Y-7180D01*
X44490Y-7180D01*
X44433Y-7161D01*
X44395Y-7123D01*
X44376Y-7085D01*
X44357Y-7009D01*
X44357Y-6952D01*
X44376Y-6876D01*
X44395Y-6838D01*
X44433Y-6800D01*
X44490Y-6780D01*
X44528Y-6780D01*
X44585Y-6800D01*
X44604Y-6819D01*
X44985Y-7180D02*
X44757Y-7180D01*
X44871Y-7180D02*
X44871Y-6780D01*
X44833Y-6838D01*
X44795Y-6876D01*
X44757Y-6895D01*
X43795Y-5800D02*
X43757Y-5780D01*
X43700Y-5780D01*
X43642Y-5800D01*
X43604Y-5838D01*
X43585Y-5876D01*
X43566Y-5952D01*
X43566Y-6009D01*
X43585Y-6085D01*
X43604Y-6123D01*
X43642Y-6161D01*
X43700Y-6180D01*
X43738Y-6180D01*
X43795Y-6161D01*
X43814Y-6142D01*
X43814Y-6009D01*
X43738Y-6009D01*
X43985Y-6180D02*
X43985Y-5780D01*
X44214Y-6180D01*
X44214Y-5780D01*
X44404Y-6180D02*
X44404Y-5780D01*
X44500Y-5780D01*
X44557Y-5800D01*
X44595Y-5838D01*
X44614Y-5876D01*
X44633Y-5952D01*
X44633Y-6009D01*
X44614Y-6085D01*
X44595Y-6123D01*
X44557Y-6161D01*
X44500Y-6180D01*
X44404Y-6180D01*
X30895Y-22880D02*
X30895Y-23204D01*
X30914Y-23242D01*
X30933Y-23261D01*
X30971Y-23280D01*
X31047Y-23280D01*
X31085Y-23261D01*
X31104Y-23242D01*
X31123Y-23204D01*
X31123Y-22880D01*
X31295Y-22919D02*
X31314Y-22900D01*
X31352Y-22880D01*
X31447Y-22880D01*
X31485Y-22900D01*
X31504Y-22919D01*
X31523Y-22957D01*
X31523Y-22995D01*
X31504Y-23052D01*
X31276Y-23280D01*
X31523Y-23280D01*
X7525Y-32750D02*
X7525Y-33074D01*
X7544Y-33112D01*
X7563Y-33131D01*
X7601Y-33150D01*
X7677Y-33150D01*
X7715Y-33131D01*
X7734Y-33112D01*
X7753Y-33074D01*
X7753Y-32750D01*
X8153Y-33150D02*
X7925Y-33150D01*
X8039Y-33150D02*
X8039Y-32750D01*
X8001Y-32808D01*
X7963Y-32846D01*
X7925Y-32865D01*
X30300Y-33409D02*
X30624Y-33409D01*
X30662Y-33390D01*
X30681Y-33371D01*
X30700Y-33333D01*
X30700Y-33257D01*
X30681Y-33219D01*
X30662Y-33200D01*
X30624Y-33181D01*
X30300Y-33181D01*
X30434Y-32819D02*
X30700Y-32819D01*
X30281Y-32914D02*
X30567Y-33009D01*
X30567Y-32762D01*
X34991Y-24246D02*
X34858Y-24246D01*
X34858Y-24455D02*
X34858Y-24055D01*
X35048Y-24055D01*
X35334Y-24246D02*
X35391Y-24265D01*
X35410Y-24284D01*
X35429Y-24322D01*
X35429Y-24379D01*
X35410Y-24417D01*
X35391Y-24436D01*
X35353Y-24455D01*
X35201Y-24455D01*
X35201Y-24055D01*
X35334Y-24055D01*
X35372Y-24075D01*
X35391Y-24094D01*
X35410Y-24132D01*
X35410Y-24170D01*
X35391Y-24208D01*
X35372Y-24227D01*
X35334Y-24246D01*
X35201Y-24246D01*
X35810Y-24455D02*
X35582Y-24455D01*
X35696Y-24455D02*
X35696Y-24055D01*
X35658Y-24113D01*
X35620Y-24151D01*
X35582Y-24170D01*
X8433Y-31580D02*
X8300Y-31390D01*
X8204Y-31580D02*
X8204Y-31180D01*
X8357Y-31180D01*
X8395Y-31200D01*
X8414Y-31219D01*
X8433Y-31257D01*
X8433Y-31314D01*
X8414Y-31352D01*
X8395Y-31371D01*
X8357Y-31390D01*
X8204Y-31390D01*
X8795Y-31180D02*
X8604Y-31180D01*
X8585Y-31371D01*
X8604Y-31352D01*
X8642Y-31333D01*
X8738Y-31333D01*
X8776Y-31352D01*
X8795Y-31371D01*
X8814Y-31409D01*
X8814Y-31504D01*
X8795Y-31542D01*
X8776Y-31561D01*
X8738Y-31580D01*
X8642Y-31580D01*
X8604Y-31561D01*
X8585Y-31542D01*
X27062Y-30271D02*
X27081Y-30290D01*
X27100Y-30347D01*
X27100Y-30385D01*
X27081Y-30443D01*
X27043Y-30481D01*
X27005Y-30500D01*
X26929Y-30519D01*
X26872Y-30519D01*
X26796Y-30500D01*
X26758Y-30481D01*
X26720Y-30443D01*
X26700Y-30385D01*
X26700Y-30347D01*
X26720Y-30290D01*
X26739Y-30271D01*
X26700Y-30138D02*
X26700Y-29871D01*
X27100Y-30043D01*
X30953Y-30547D02*
X30934Y-30566D01*
X30877Y-30585D01*
X30839Y-30585D01*
X30781Y-30566D01*
X30743Y-30528D01*
X30724Y-30490D01*
X30705Y-30414D01*
X30705Y-30357D01*
X30724Y-30281D01*
X30743Y-30243D01*
X30781Y-30205D01*
X30839Y-30185D01*
X30877Y-30185D01*
X30934Y-30205D01*
X30953Y-30224D01*
X31181Y-30357D02*
X31143Y-30338D01*
X31124Y-30319D01*
X31105Y-30281D01*
X31105Y-30262D01*
X31124Y-30224D01*
X31143Y-30205D01*
X31181Y-30185D01*
X31258Y-30185D01*
X31296Y-30205D01*
X31315Y-30224D01*
X31334Y-30262D01*
X31334Y-30281D01*
X31315Y-30319D01*
X31296Y-30338D01*
X31258Y-30357D01*
X31181Y-30357D01*
X31143Y-30376D01*
X31124Y-30395D01*
X31105Y-30433D01*
X31105Y-30509D01*
X31124Y-30547D01*
X31143Y-30566D01*
X31181Y-30585D01*
X31258Y-30585D01*
X31296Y-30566D01*
X31315Y-30547D01*
X31334Y-30509D01*
X31334Y-30433D01*
X31315Y-30395D01*
X31296Y-30376D01*
X31258Y-30357D01*
X27862Y-30671D02*
X27881Y-30690D01*
X27900Y-30747D01*
X27900Y-30785D01*
X27881Y-30843D01*
X27843Y-30881D01*
X27805Y-30900D01*
X27729Y-30919D01*
X27672Y-30919D01*
X27596Y-30900D01*
X27558Y-30881D01*
X27520Y-30843D01*
X27500Y-30785D01*
X27500Y-30747D01*
X27520Y-30690D01*
X27539Y-30671D01*
X27900Y-30481D02*
X27900Y-30404D01*
X27881Y-30366D01*
X27862Y-30347D01*
X27805Y-30309D01*
X27729Y-30290D01*
X27577Y-30290D01*
X27539Y-30309D01*
X27520Y-30328D01*
X27500Y-30366D01*
X27500Y-30443D01*
X27520Y-30481D01*
X27539Y-30500D01*
X27577Y-30519D01*
X27672Y-30519D01*
X27710Y-30500D01*
X27729Y-30481D01*
X27748Y-30443D01*
X27748Y-30366D01*
X27729Y-30328D01*
X27710Y-30309D01*
X27672Y-30290D01*
X26162Y-33147D02*
X26143Y-33166D01*
X26086Y-33185D01*
X26048Y-33185D01*
X25991Y-33166D01*
X25953Y-33128D01*
X25934Y-33090D01*
X25915Y-33014D01*
X25915Y-32957D01*
X25934Y-32881D01*
X25953Y-32843D01*
X25991Y-32805D01*
X26048Y-32785D01*
X26086Y-32785D01*
X26143Y-32805D01*
X26162Y-32824D01*
X26543Y-33185D02*
X26315Y-33185D01*
X26429Y-33185D02*
X26429Y-32785D01*
X26391Y-32843D01*
X26353Y-32881D01*
X26315Y-32900D01*
X26791Y-32785D02*
X26829Y-32785D01*
X26867Y-32805D01*
X26886Y-32824D01*
X26905Y-32862D01*
X26924Y-32938D01*
X26924Y-33033D01*
X26905Y-33109D01*
X26886Y-33147D01*
X26867Y-33166D01*
X26829Y-33185D01*
X26791Y-33185D01*
X26753Y-33166D01*
X26734Y-33147D01*
X26715Y-33109D01*
X26696Y-33033D01*
X26696Y-32938D01*
X26715Y-32862D01*
X26734Y-32824D01*
X26753Y-32805D01*
X26791Y-32785D01*
X26162Y-33947D02*
X26143Y-33966D01*
X26086Y-33985D01*
X26048Y-33985D01*
X25991Y-33966D01*
X25953Y-33928D01*
X25934Y-33890D01*
X25915Y-33814D01*
X25915Y-33757D01*
X25934Y-33681D01*
X25953Y-33643D01*
X25991Y-33605D01*
X26048Y-33585D01*
X26086Y-33585D01*
X26143Y-33605D01*
X26162Y-33624D01*
X26543Y-33985D02*
X26315Y-33985D01*
X26429Y-33985D02*
X26429Y-33585D01*
X26391Y-33643D01*
X26353Y-33681D01*
X26315Y-33700D01*
X26924Y-33985D02*
X26696Y-33985D01*
X26810Y-33985D02*
X26810Y-33585D01*
X26772Y-33643D01*
X26734Y-33681D01*
X26696Y-33700D01*
X47503Y-28950D02*
X47370Y-28760D01*
X47274Y-28950D02*
X47274Y-28550D01*
X47427Y-28550D01*
X47465Y-28570D01*
X47484Y-28589D01*
X47503Y-28627D01*
X47503Y-28684D01*
X47484Y-28722D01*
X47465Y-28741D01*
X47427Y-28760D01*
X47274Y-28760D01*
X47636Y-28550D02*
X47903Y-28550D01*
X47731Y-28950D01*
X35233Y-22942D02*
X35214Y-22961D01*
X35157Y-22980D01*
X35119Y-22980D01*
X35061Y-22961D01*
X35023Y-22923D01*
X35004Y-22885D01*
X34985Y-22809D01*
X34985Y-22752D01*
X35004Y-22676D01*
X35023Y-22638D01*
X35061Y-22600D01*
X35119Y-22580D01*
X35157Y-22580D01*
X35214Y-22600D01*
X35233Y-22619D01*
X35595Y-22580D02*
X35404Y-22580D01*
X35385Y-22771D01*
X35404Y-22752D01*
X35442Y-22733D01*
X35538Y-22733D01*
X35576Y-22752D01*
X35595Y-22771D01*
X35614Y-22809D01*
X35614Y-22904D01*
X35595Y-22942D01*
X35576Y-22961D01*
X35538Y-22980D01*
X35442Y-22980D01*
X35404Y-22961D01*
X35385Y-22942D01*
X23942Y-21957D02*
X23961Y-21976D01*
X23980Y-22033D01*
X23980Y-22071D01*
X23961Y-22128D01*
X23923Y-22166D01*
X23885Y-22185D01*
X23809Y-22204D01*
X23752Y-22204D01*
X23676Y-22185D01*
X23638Y-22166D01*
X23600Y-22128D01*
X23580Y-22071D01*
X23580Y-22033D01*
X23600Y-21976D01*
X23619Y-21957D01*
X23980Y-21576D02*
X23980Y-21804D01*
X23980Y-21690D02*
X23580Y-21690D01*
X23638Y-21728D01*
X23676Y-21766D01*
X23695Y-21804D01*
X23980Y-21385D02*
X23980Y-21309D01*
X23961Y-21271D01*
X23942Y-21252D01*
X23885Y-21214D01*
X23809Y-21195D01*
X23657Y-21195D01*
X23619Y-21214D01*
X23600Y-21233D01*
X23580Y-21271D01*
X23580Y-21347D01*
X23600Y-21385D01*
X23619Y-21404D01*
X23657Y-21423D01*
X23752Y-21423D01*
X23790Y-21404D01*
X23809Y-21385D01*
X23828Y-21347D01*
X23828Y-21271D01*
X23809Y-21233D01*
X23790Y-21214D01*
X23752Y-21195D01*
X23942Y-26157D02*
X23961Y-26176D01*
X23980Y-26233D01*
X23980Y-26271D01*
X23961Y-26328D01*
X23923Y-26366D01*
X23885Y-26385D01*
X23809Y-26404D01*
X23752Y-26404D01*
X23676Y-26385D01*
X23638Y-26366D01*
X23600Y-26328D01*
X23580Y-26271D01*
X23580Y-26233D01*
X23600Y-26176D01*
X23619Y-26157D01*
X23619Y-26004D02*
X23600Y-25985D01*
X23580Y-25947D01*
X23580Y-25852D01*
X23600Y-25814D01*
X23619Y-25795D01*
X23657Y-25776D01*
X23695Y-25776D01*
X23752Y-25795D01*
X23980Y-26023D01*
X23980Y-25776D01*
X23580Y-25528D02*
X23580Y-25490D01*
X23600Y-25452D01*
X23619Y-25433D01*
X23657Y-25414D01*
X23733Y-25395D01*
X23828Y-25395D01*
X23904Y-25414D01*
X23942Y-25433D01*
X23961Y-25452D01*
X23980Y-25490D01*
X23980Y-25528D01*
X23961Y-25566D01*
X23942Y-25585D01*
X23904Y-25604D01*
X23828Y-25623D01*
X23733Y-25623D01*
X23657Y-25604D01*
X23619Y-25585D01*
X23600Y-25566D01*
X23580Y-25528D01*
X41400Y-14906D02*
X41210Y-15039D01*
X41400Y-15135D02*
X41000Y-15135D01*
X41000Y-14982D01*
X41020Y-14944D01*
X41039Y-14925D01*
X41077Y-14906D01*
X41134Y-14906D01*
X41172Y-14925D01*
X41191Y-14944D01*
X41210Y-14982D01*
X41210Y-15135D01*
X41000Y-14773D02*
X41000Y-14525D01*
X41153Y-14659D01*
X41153Y-14601D01*
X41172Y-14563D01*
X41191Y-14544D01*
X41229Y-14525D01*
X41324Y-14525D01*
X41362Y-14544D01*
X41381Y-14563D01*
X41400Y-14601D01*
X41400Y-14716D01*
X41381Y-14754D01*
X41362Y-14773D01*
G54D22*
X49607Y-5627D02*
X49607Y-6113D01*
X49586Y-6210D01*
X49546Y-6275D01*
X49485Y-6308D01*
X49444Y-6308D01*
X49872Y-5918D02*
X49831Y-5886D01*
X49811Y-5854D01*
X49790Y-5789D01*
X49790Y-5756D01*
X49811Y-5691D01*
X49831Y-5659D01*
X49872Y-5627D01*
X49953Y-5627D01*
X49994Y-5659D01*
X50014Y-5691D01*
X50035Y-5756D01*
X50035Y-5789D01*
X50014Y-5854D01*
X49994Y-5886D01*
X49953Y-5918D01*
X49872Y-5918D01*
X49831Y-5951D01*
X49811Y-5983D01*
X49790Y-6048D01*
X49790Y-6178D01*
X49811Y-6243D01*
X49831Y-6275D01*
X49872Y-6308D01*
X49953Y-6308D01*
X49994Y-6275D01*
X50014Y-6243D01*
X50035Y-6178D01*
X50035Y-6048D01*
X50014Y-5983D01*
X49994Y-5951D01*
X49953Y-5918D01*
G54D18*
X28750Y-37171D02*
X28750Y-37600D01*
X28721Y-37685D01*
X28664Y-37742D01*
X28578Y-37771D01*
X28521Y-37771D01*
X29007Y-37228D02*
X29035Y-37200D01*
X29092Y-37171D01*
X29235Y-37171D01*
X29292Y-37200D01*
X29321Y-37228D01*
X29350Y-37285D01*
X29350Y-37342D01*
X29321Y-37428D01*
X28978Y-37771D01*
X29350Y-37771D01*
G54D15*
X25180Y-23823D02*
X25580Y-23557D01*
X25180Y-23557D02*
X25580Y-23823D01*
X25580Y-23195D02*
X25580Y-23423D01*
X25580Y-23309D02*
X25180Y-23309D01*
X25238Y-23347D01*
X25276Y-23385D01*
X25295Y-23423D01*
G54D14*
X40878Y-31158D02*
X40854Y-31182D01*
X40783Y-31206D01*
X40735Y-31206D01*
X40664Y-31182D01*
X40616Y-31134D01*
X40592Y-31087D01*
X40569Y-30991D01*
X40569Y-30920D01*
X40592Y-30825D01*
X40616Y-30777D01*
X40664Y-30730D01*
X40735Y-30706D01*
X40783Y-30706D01*
X40854Y-30730D01*
X40878Y-30753D01*
X41354Y-31206D02*
X41069Y-31206D01*
X41211Y-31206D02*
X41211Y-30706D01*
X41164Y-30777D01*
X41116Y-30825D01*
X41069Y-30849D01*
X41521Y-30706D02*
X41830Y-30706D01*
X41664Y-30896D01*
X41735Y-30896D01*
X41783Y-30920D01*
X41807Y-30944D01*
X41830Y-30991D01*
X41830Y-31110D01*
X41807Y-31158D01*
X41783Y-31182D01*
X41735Y-31206D01*
X41592Y-31206D01*
X41545Y-31182D01*
X41521Y-31158D01*
X42598Y-33798D02*
X42574Y-33822D01*
X42503Y-33846D01*
X42455Y-33846D01*
X42384Y-33822D01*
X42336Y-33774D01*
X42312Y-33727D01*
X42289Y-33631D01*
X42289Y-33560D01*
X42312Y-33465D01*
X42336Y-33417D01*
X42384Y-33370D01*
X42455Y-33346D01*
X42503Y-33346D01*
X42574Y-33370D01*
X42598Y-33393D01*
X43074Y-33846D02*
X42789Y-33846D01*
X42931Y-33846D02*
X42931Y-33346D01*
X42884Y-33417D01*
X42836Y-33465D01*
X42789Y-33489D01*
X43265Y-33393D02*
X43289Y-33370D01*
X43336Y-33346D01*
X43455Y-33346D01*
X43503Y-33370D01*
X43527Y-33393D01*
X43550Y-33441D01*
X43550Y-33489D01*
X43527Y-33560D01*
X43241Y-33846D01*
X43550Y-33846D01*
X40878Y-26658D02*
X40854Y-26682D01*
X40783Y-26706D01*
X40735Y-26706D01*
X40664Y-26682D01*
X40616Y-26634D01*
X40592Y-26587D01*
X40569Y-26491D01*
X40569Y-26420D01*
X40592Y-26325D01*
X40616Y-26277D01*
X40664Y-26230D01*
X40735Y-26206D01*
X40783Y-26206D01*
X40854Y-26230D01*
X40878Y-26253D01*
X41354Y-26706D02*
X41069Y-26706D01*
X41211Y-26706D02*
X41211Y-26206D01*
X41164Y-26277D01*
X41116Y-26325D01*
X41069Y-26349D01*
X41783Y-26372D02*
X41783Y-26706D01*
X41664Y-26182D02*
X41545Y-26539D01*
X41854Y-26539D01*
X44378Y-26978D02*
X44354Y-27002D01*
X44283Y-27026D01*
X44235Y-27026D01*
X44164Y-27002D01*
X44116Y-26954D01*
X44092Y-26907D01*
X44069Y-26811D01*
X44069Y-26740D01*
X44092Y-26645D01*
X44116Y-26597D01*
X44164Y-26550D01*
X44235Y-26526D01*
X44283Y-26526D01*
X44354Y-26550D01*
X44378Y-26573D01*
X44854Y-27026D02*
X44569Y-27026D01*
X44711Y-27026D02*
X44711Y-26526D01*
X44664Y-26597D01*
X44616Y-26645D01*
X44569Y-26669D01*
X45307Y-26526D02*
X45069Y-26526D01*
X45045Y-26764D01*
X45069Y-26740D01*
X45116Y-26716D01*
X45235Y-26716D01*
X45283Y-26740D01*
X45307Y-26764D01*
X45330Y-26811D01*
X45330Y-26930D01*
X45307Y-26978D01*
X45283Y-27002D01*
X45235Y-27026D01*
X45116Y-27026D01*
X45069Y-27002D01*
X45045Y-26978D01*
X48628Y-32528D02*
X48604Y-32552D01*
X48533Y-32576D01*
X48485Y-32576D01*
X48414Y-32552D01*
X48366Y-32504D01*
X48342Y-32457D01*
X48319Y-32361D01*
X48319Y-32290D01*
X48342Y-32195D01*
X48366Y-32147D01*
X48414Y-32100D01*
X48485Y-32076D01*
X48533Y-32076D01*
X48604Y-32100D01*
X48628Y-32123D01*
X49104Y-32576D02*
X48819Y-32576D01*
X48961Y-32576D02*
X48961Y-32076D01*
X48914Y-32147D01*
X48866Y-32195D01*
X48819Y-32219D01*
X49271Y-32076D02*
X49604Y-32076D01*
X49390Y-32576D01*
X43778Y-30621D02*
X43802Y-30645D01*
X43826Y-30716D01*
X43826Y-30764D01*
X43802Y-30835D01*
X43754Y-30883D01*
X43707Y-30907D01*
X43611Y-30930D01*
X43540Y-30930D01*
X43445Y-30907D01*
X43397Y-30883D01*
X43350Y-30835D01*
X43326Y-30764D01*
X43326Y-30716D01*
X43350Y-30645D01*
X43373Y-30621D01*
X43826Y-30145D02*
X43826Y-30430D01*
X43826Y-30288D02*
X43326Y-30288D01*
X43397Y-30335D01*
X43445Y-30383D01*
X43469Y-30430D01*
X43326Y-29716D02*
X43326Y-29811D01*
X43350Y-29859D01*
X43373Y-29883D01*
X43445Y-29930D01*
X43540Y-29954D01*
X43730Y-29954D01*
X43778Y-29930D01*
X43802Y-29907D01*
X43826Y-29859D01*
X43826Y-29764D01*
X43802Y-29716D01*
X43778Y-29692D01*
X43730Y-29669D01*
X43611Y-29669D01*
X43564Y-29692D01*
X43540Y-29716D01*
X43516Y-29764D01*
X43516Y-29859D01*
X43540Y-29907D01*
X43564Y-29930D01*
X43611Y-29954D01*
G54D15*
X29152Y-26442D02*
X29133Y-26461D01*
X29076Y-26480D01*
X29038Y-26480D01*
X28980Y-26461D01*
X28942Y-26423D01*
X28923Y-26385D01*
X28904Y-26309D01*
X28904Y-26252D01*
X28923Y-26176D01*
X28942Y-26138D01*
X28980Y-26100D01*
X29038Y-26080D01*
X29076Y-26080D01*
X29133Y-26100D01*
X29152Y-26119D01*
X29323Y-26480D02*
X29323Y-26080D01*
X29323Y-26233D02*
X29361Y-26214D01*
X29438Y-26214D01*
X29476Y-26233D01*
X29495Y-26252D01*
X29514Y-26290D01*
X29514Y-26404D01*
X29495Y-26442D01*
X29476Y-26461D01*
X29438Y-26480D01*
X29361Y-26480D01*
X29323Y-26461D01*
X29647Y-26080D02*
X29895Y-26080D01*
X29761Y-26233D01*
X29819Y-26233D01*
X29857Y-26252D01*
X29876Y-26271D01*
X29895Y-26309D01*
X29895Y-26404D01*
X29876Y-26442D01*
X29857Y-26461D01*
X29819Y-26480D01*
X29704Y-26480D01*
X29666Y-26461D01*
X29647Y-26442D01*
G54D14*
X48284Y-34951D02*
X48284Y-34351D01*
X48380Y-34351D01*
X48437Y-34380D01*
X48475Y-34437D01*
X48494Y-34494D01*
X48513Y-34608D01*
X48513Y-34694D01*
X48494Y-34808D01*
X48475Y-34865D01*
X48437Y-34922D01*
X48380Y-34951D01*
X48284Y-34951D01*
X48875Y-34351D02*
X48684Y-34351D01*
X48665Y-34637D01*
X48684Y-34608D01*
X48722Y-34580D01*
X48818Y-34580D01*
X48856Y-34608D01*
X48875Y-34637D01*
X48894Y-34694D01*
X48894Y-34837D01*
X48875Y-34894D01*
X48856Y-34922D01*
X48818Y-34951D01*
X48722Y-34951D01*
X48684Y-34922D01*
X48665Y-34894D01*
G54D18*
G54D14*
X12804Y-32271D02*
X12804Y-31671D01*
X12900Y-31671D01*
X12957Y-31700D01*
X12995Y-31757D01*
X13014Y-31814D01*
X13033Y-31928D01*
X13033Y-32014D01*
X13014Y-32128D01*
X12995Y-32185D01*
X12957Y-32242D01*
X12900Y-32271D01*
X12804Y-32271D01*
X13414Y-32271D02*
X13185Y-32271D01*
X13300Y-32271D02*
X13300Y-31671D01*
X13261Y-31757D01*
X13223Y-31814D01*
X13185Y-31842D01*
G54D18*
G54D14*
X45331Y-17215D02*
X44731Y-17215D01*
X44731Y-17119D01*
X44760Y-17062D01*
X44817Y-17024D01*
X44874Y-17005D01*
X44988Y-16986D01*
X45074Y-16986D01*
X45188Y-17005D01*
X45245Y-17024D01*
X45302Y-17062D01*
X45331Y-17119D01*
X45331Y-17215D01*
X44931Y-16643D02*
X45331Y-16643D01*
X44702Y-16739D02*
X45131Y-16834D01*
X45131Y-16586D01*
G54D18*
G54D14*
X47481Y-18995D02*
X46881Y-18995D01*
X46881Y-18899D01*
X46910Y-18842D01*
X46967Y-18804D01*
X47024Y-18785D01*
X47138Y-18766D01*
X47224Y-18766D01*
X47338Y-18785D01*
X47395Y-18804D01*
X47452Y-18842D01*
X47481Y-18899D01*
X47481Y-18995D01*
X46881Y-18633D02*
X46881Y-18385D01*
X47110Y-18519D01*
X47110Y-18461D01*
X47138Y-18423D01*
X47167Y-18404D01*
X47224Y-18385D01*
X47367Y-18385D01*
X47424Y-18404D01*
X47452Y-18423D01*
X47481Y-18461D01*
X47481Y-18576D01*
X47452Y-18614D01*
X47424Y-18633D01*
G54D18*
G54D14*
X47671Y-9945D02*
X47071Y-9945D01*
X47071Y-9849D01*
X47100Y-9792D01*
X47157Y-9754D01*
X47214Y-9735D01*
X47328Y-9716D01*
X47414Y-9716D01*
X47528Y-9735D01*
X47585Y-9754D01*
X47642Y-9792D01*
X47671Y-9849D01*
X47671Y-9945D01*
X47128Y-9564D02*
X47100Y-9545D01*
X47071Y-9507D01*
X47071Y-9411D01*
X47100Y-9373D01*
X47128Y-9354D01*
X47185Y-9335D01*
X47242Y-9335D01*
X47328Y-9354D01*
X47671Y-9583D01*
X47671Y-9335D01*
G54D18*
G54D15*
X11842Y-8172D02*
X11823Y-8191D01*
X11766Y-8210D01*
X11728Y-8210D01*
X11671Y-8191D01*
X11633Y-8153D01*
X11614Y-8115D01*
X11595Y-8039D01*
X11595Y-7982D01*
X11614Y-7906D01*
X11633Y-7868D01*
X11671Y-7830D01*
X11728Y-7810D01*
X11766Y-7810D01*
X11823Y-7830D01*
X11842Y-7849D01*
X11995Y-7849D02*
X12014Y-7830D01*
X12052Y-7810D01*
X12147Y-7810D01*
X12185Y-7830D01*
X12204Y-7849D01*
X12223Y-7887D01*
X12223Y-7925D01*
X12204Y-7982D01*
X11976Y-8210D01*
X12223Y-8210D01*
X12604Y-8210D02*
X12376Y-8210D01*
X12490Y-8210D02*
X12490Y-7810D01*
X12452Y-7868D01*
X12414Y-7906D01*
X12376Y-7925D01*
X12502Y-6430D02*
X12369Y-6240D01*
X12274Y-6430D02*
X12274Y-6030D01*
X12426Y-6030D01*
X12464Y-6050D01*
X12483Y-6069D01*
X12502Y-6107D01*
X12502Y-6164D01*
X12483Y-6202D01*
X12464Y-6221D01*
X12426Y-6240D01*
X12274Y-6240D01*
X12883Y-6430D02*
X12655Y-6430D01*
X12769Y-6430D02*
X12769Y-6030D01*
X12731Y-6088D01*
X12693Y-6126D01*
X12655Y-6145D01*
X13131Y-6030D02*
X13169Y-6030D01*
X13207Y-6050D01*
X13226Y-6069D01*
X13245Y-6107D01*
X13264Y-6183D01*
X13264Y-6278D01*
X13245Y-6354D01*
X13226Y-6392D01*
X13207Y-6411D01*
X13169Y-6430D01*
X13131Y-6430D01*
X13093Y-6411D01*
X13074Y-6392D01*
X13055Y-6354D01*
X13036Y-6278D01*
X13036Y-6183D01*
X13055Y-6107D01*
X13074Y-6069D01*
X13093Y-6050D01*
X13131Y-6030D01*
X11716Y-10130D02*
X11716Y-10416D01*
X11697Y-10473D01*
X11659Y-10511D01*
X11602Y-10530D01*
X11564Y-10530D01*
X12078Y-10264D02*
X12078Y-10530D01*
X11983Y-10111D02*
X11888Y-10397D01*
X12135Y-10397D01*
X50182Y-37607D02*
X50201Y-37626D01*
X50220Y-37683D01*
X50220Y-37721D01*
X50201Y-37778D01*
X50163Y-37816D01*
X50125Y-37835D01*
X50049Y-37854D01*
X49992Y-37854D01*
X49916Y-37835D01*
X49878Y-37816D01*
X49840Y-37778D01*
X49820Y-37721D01*
X49820Y-37683D01*
X49840Y-37626D01*
X49859Y-37607D01*
X49859Y-37454D02*
X49840Y-37435D01*
X49820Y-37397D01*
X49820Y-37302D01*
X49840Y-37264D01*
X49859Y-37245D01*
X49897Y-37226D01*
X49935Y-37226D01*
X49992Y-37245D01*
X50220Y-37473D01*
X50220Y-37226D01*
X49859Y-37073D02*
X49840Y-37054D01*
X49820Y-37016D01*
X49820Y-36921D01*
X49840Y-36883D01*
X49859Y-36864D01*
X49897Y-36845D01*
X49935Y-36845D01*
X49992Y-36864D01*
X50220Y-37092D01*
X50220Y-36845D01*
X44602Y-37627D02*
X44621Y-37646D01*
X44640Y-37703D01*
X44640Y-37741D01*
X44621Y-37798D01*
X44583Y-37836D01*
X44545Y-37855D01*
X44469Y-37874D01*
X44412Y-37874D01*
X44336Y-37855D01*
X44298Y-37836D01*
X44260Y-37798D01*
X44240Y-37741D01*
X44240Y-37703D01*
X44260Y-37646D01*
X44279Y-37627D01*
X44279Y-37474D02*
X44260Y-37455D01*
X44240Y-37417D01*
X44240Y-37322D01*
X44260Y-37284D01*
X44279Y-37265D01*
X44317Y-37246D01*
X44355Y-37246D01*
X44412Y-37265D01*
X44640Y-37493D01*
X44640Y-37246D01*
X44240Y-37112D02*
X44240Y-36865D01*
X44393Y-36998D01*
X44393Y-36941D01*
X44412Y-36903D01*
X44431Y-36884D01*
X44469Y-36865D01*
X44564Y-36865D01*
X44602Y-36884D01*
X44621Y-36903D01*
X44640Y-36941D01*
X44640Y-37055D01*
X44621Y-37093D01*
X44602Y-37112D01*
X46835Y-37210D02*
X46835Y-37534D01*
X46854Y-37572D01*
X46873Y-37591D01*
X46911Y-37610D01*
X46987Y-37610D01*
X47025Y-37591D01*
X47044Y-37572D01*
X47063Y-37534D01*
X47063Y-37210D01*
X47444Y-37210D02*
X47254Y-37210D01*
X47235Y-37401D01*
X47254Y-37382D01*
X47292Y-37363D01*
X47387Y-37363D01*
X47425Y-37382D01*
X47444Y-37401D01*
X47463Y-37439D01*
X47463Y-37534D01*
X47444Y-37572D01*
X47425Y-37591D01*
X47387Y-37610D01*
X47292Y-37610D01*
X47254Y-37591D01*
X47235Y-37572D01*
X33742Y-24947D02*
X33761Y-24966D01*
X33780Y-25023D01*
X33780Y-25061D01*
X33761Y-25119D01*
X33723Y-25157D01*
X33685Y-25176D01*
X33609Y-25195D01*
X33552Y-25195D01*
X33476Y-25176D01*
X33438Y-25157D01*
X33400Y-25119D01*
X33380Y-25061D01*
X33380Y-25023D01*
X33400Y-24966D01*
X33419Y-24947D01*
X33780Y-24776D02*
X33380Y-24776D01*
X33533Y-24776D02*
X33514Y-24738D01*
X33514Y-24661D01*
X33533Y-24623D01*
X33552Y-24604D01*
X33590Y-24585D01*
X33704Y-24585D01*
X33742Y-24604D01*
X33761Y-24623D01*
X33780Y-24661D01*
X33780Y-24738D01*
X33761Y-24776D01*
X33380Y-24223D02*
X33380Y-24414D01*
X33571Y-24433D01*
X33552Y-24414D01*
X33533Y-24376D01*
X33533Y-24280D01*
X33552Y-24242D01*
X33571Y-24223D01*
X33609Y-24204D01*
X33704Y-24204D01*
X33742Y-24223D01*
X33761Y-24242D01*
X33780Y-24280D01*
X33780Y-24376D01*
X33761Y-24414D01*
X33742Y-24433D01*
X25542Y-15447D02*
X25561Y-15466D01*
X25580Y-15523D01*
X25580Y-15561D01*
X25561Y-15619D01*
X25523Y-15657D01*
X25485Y-15676D01*
X25409Y-15695D01*
X25352Y-15695D01*
X25276Y-15676D01*
X25238Y-15657D01*
X25200Y-15619D01*
X25180Y-15561D01*
X25180Y-15523D01*
X25200Y-15466D01*
X25219Y-15447D01*
X25580Y-15276D02*
X25180Y-15276D01*
X25333Y-15276D02*
X25314Y-15238D01*
X25314Y-15161D01*
X25333Y-15123D01*
X25352Y-15104D01*
X25390Y-15085D01*
X25504Y-15085D01*
X25542Y-15104D01*
X25561Y-15123D01*
X25580Y-15161D01*
X25580Y-15238D01*
X25561Y-15276D01*
X25180Y-14742D02*
X25180Y-14819D01*
X25200Y-14857D01*
X25219Y-14876D01*
X25276Y-14914D01*
X25352Y-14933D01*
X25504Y-14933D01*
X25542Y-14914D01*
X25561Y-14895D01*
X25580Y-14857D01*
X25580Y-14780D01*
X25561Y-14742D01*
X25542Y-14723D01*
X25504Y-14704D01*
X25409Y-14704D01*
X25371Y-14723D01*
X25352Y-14742D01*
X25333Y-14780D01*
X25333Y-14857D01*
X25352Y-14895D01*
X25371Y-14914D01*
X25409Y-14933D01*
X25561Y-31174D02*
X25523Y-31155D01*
X25485Y-31116D01*
X25428Y-31059D01*
X25390Y-31040D01*
X25352Y-31040D01*
X25371Y-31135D02*
X25333Y-31116D01*
X25295Y-31078D01*
X25276Y-31002D01*
X25276Y-30869D01*
X25295Y-30793D01*
X25333Y-30755D01*
X25371Y-30735D01*
X25447Y-30735D01*
X25485Y-30755D01*
X25523Y-30793D01*
X25542Y-30869D01*
X25542Y-31002D01*
X25523Y-31078D01*
X25485Y-31116D01*
X25447Y-31135D01*
X25371Y-31135D01*
X25904Y-30735D02*
X25714Y-30735D01*
X25695Y-30926D01*
X25714Y-30907D01*
X25752Y-30888D01*
X25847Y-30888D01*
X25885Y-30907D01*
X25904Y-30926D01*
X25923Y-30964D01*
X25923Y-31059D01*
X25904Y-31097D01*
X25885Y-31116D01*
X25847Y-31135D01*
X25752Y-31135D01*
X25714Y-31116D01*
X25695Y-31097D01*
X24826Y-33949D02*
X24788Y-33930D01*
X24750Y-33891D01*
X24693Y-33834D01*
X24655Y-33815D01*
X24617Y-33815D01*
X24636Y-33910D02*
X24598Y-33891D01*
X24560Y-33853D01*
X24541Y-33777D01*
X24541Y-33644D01*
X24560Y-33568D01*
X24598Y-33530D01*
X24636Y-33510D01*
X24712Y-33510D01*
X24750Y-33530D01*
X24788Y-33568D01*
X24807Y-33644D01*
X24807Y-33777D01*
X24788Y-33853D01*
X24750Y-33891D01*
X24712Y-33910D01*
X24636Y-33910D01*
X25150Y-33510D02*
X25074Y-33510D01*
X25036Y-33530D01*
X25017Y-33549D01*
X24979Y-33606D01*
X24960Y-33682D01*
X24960Y-33834D01*
X24979Y-33872D01*
X24998Y-33891D01*
X25036Y-33910D01*
X25112Y-33910D01*
X25150Y-33891D01*
X25169Y-33872D01*
X25188Y-33834D01*
X25188Y-33739D01*
X25169Y-33701D01*
X25150Y-33682D01*
X25112Y-33663D01*
X25036Y-33663D01*
X24998Y-33682D01*
X24979Y-33701D01*
X24960Y-33739D01*
X23410Y-30567D02*
X23220Y-30700D01*
X23410Y-30795D02*
X23010Y-30795D01*
X23010Y-30643D01*
X23030Y-30605D01*
X23049Y-30586D01*
X23087Y-30567D01*
X23144Y-30567D01*
X23182Y-30586D01*
X23201Y-30605D01*
X23220Y-30643D01*
X23220Y-30795D01*
X23410Y-30186D02*
X23410Y-30414D01*
X23410Y-30300D02*
X23010Y-30300D01*
X23068Y-30338D01*
X23106Y-30376D01*
X23125Y-30414D01*
X23410Y-29805D02*
X23410Y-30033D01*
X23410Y-29919D02*
X23010Y-29919D01*
X23068Y-29957D01*
X23106Y-29995D01*
X23125Y-30033D01*
X26117Y-29425D02*
X25984Y-29235D01*
X25889Y-29425D02*
X25889Y-29025D01*
X26041Y-29025D01*
X26079Y-29045D01*
X26098Y-29064D01*
X26117Y-29102D01*
X26117Y-29159D01*
X26098Y-29197D01*
X26079Y-29216D01*
X26041Y-29235D01*
X25889Y-29235D01*
X26498Y-29425D02*
X26270Y-29425D01*
X26384Y-29425D02*
X26384Y-29025D01*
X26346Y-29083D01*
X26308Y-29121D01*
X26270Y-29140D01*
X26651Y-29064D02*
X26670Y-29045D01*
X26708Y-29025D01*
X26803Y-29025D01*
X26841Y-29045D01*
X26860Y-29064D01*
X26879Y-29102D01*
X26879Y-29140D01*
X26860Y-29197D01*
X26632Y-29425D01*
X26879Y-29425D01*
X23395Y-33012D02*
X23205Y-33145D01*
X23395Y-33240D02*
X22995Y-33240D01*
X22995Y-33088D01*
X23015Y-33050D01*
X23034Y-33031D01*
X23072Y-33012D01*
X23129Y-33012D01*
X23167Y-33031D01*
X23186Y-33050D01*
X23205Y-33088D01*
X23205Y-33240D01*
X23395Y-32631D02*
X23395Y-32859D01*
X23395Y-32745D02*
X22995Y-32745D01*
X23053Y-32783D01*
X23091Y-32821D01*
X23110Y-32859D01*
X22995Y-32497D02*
X22995Y-32250D01*
X23148Y-32383D01*
X23148Y-32326D01*
X23167Y-32288D01*
X23186Y-32269D01*
X23224Y-32250D01*
X23319Y-32250D01*
X23357Y-32269D01*
X23376Y-32288D01*
X23395Y-32326D01*
X23395Y-32440D01*
X23376Y-32478D01*
X23357Y-32497D01*
X23512Y-31870D02*
X23379Y-31680D01*
X23284Y-31870D02*
X23284Y-31470D01*
X23436Y-31470D01*
X23474Y-31490D01*
X23493Y-31509D01*
X23512Y-31547D01*
X23512Y-31604D01*
X23493Y-31642D01*
X23474Y-31661D01*
X23436Y-31680D01*
X23284Y-31680D01*
X23893Y-31870D02*
X23665Y-31870D01*
X23779Y-31870D02*
X23779Y-31470D01*
X23741Y-31528D01*
X23703Y-31566D01*
X23665Y-31585D01*
X24236Y-31604D02*
X24236Y-31870D01*
X24141Y-31451D02*
X24046Y-31737D01*
X24293Y-31737D01*
X52142Y-33657D02*
X52161Y-33676D01*
X52180Y-33733D01*
X52180Y-33771D01*
X52161Y-33828D01*
X52123Y-33866D01*
X52085Y-33885D01*
X52009Y-33904D01*
X51952Y-33904D01*
X51876Y-33885D01*
X51838Y-33866D01*
X51800Y-33828D01*
X51780Y-33771D01*
X51780Y-33733D01*
X51800Y-33676D01*
X51819Y-33657D01*
X52180Y-33276D02*
X52180Y-33504D01*
X52180Y-33390D02*
X51780Y-33390D01*
X51838Y-33428D01*
X51876Y-33466D01*
X51895Y-33504D01*
X51952Y-33047D02*
X51933Y-33085D01*
X51914Y-33104D01*
X51876Y-33123D01*
X51857Y-33123D01*
X51819Y-33104D01*
X51800Y-33085D01*
X51780Y-33047D01*
X51780Y-32971D01*
X51800Y-32933D01*
X51819Y-32914D01*
X51857Y-32895D01*
X51876Y-32895D01*
X51914Y-32914D01*
X51933Y-32933D01*
X51952Y-32971D01*
X51952Y-33047D01*
X51971Y-33085D01*
X51990Y-33104D01*
X52028Y-33123D01*
X52104Y-33123D01*
X52142Y-33104D01*
X52161Y-33085D01*
X52180Y-33047D01*
X52180Y-32971D01*
X52161Y-32933D01*
X52142Y-32914D01*
X52104Y-32895D01*
X52028Y-32895D01*
X51990Y-32914D01*
X51971Y-32933D01*
X51952Y-32971D01*
M02*
