G04 (created by PCBNEW (2013-mar-13)-testing) date Sun 04 Aug 2013 11:03:18 AM EDT*
%MOIN*%
G04 Gerber Fmt 3.4, Leading zero omitted, Abs format*
%FSLAX34Y34*%
G01*
G70*
G90*
G04 APERTURE LIST*
%ADD10C,0.005906*%
G04 APERTURE END LIST*
G54D10*
G36*
X7719Y-27433D02*
X7717Y-27586D01*
X7686Y-27721D01*
X7632Y-27843D01*
X7552Y-27957D01*
X7455Y-28049D01*
X7338Y-28124D01*
X7213Y-28172D01*
X7076Y-28196D01*
X6943Y-28193D01*
X6807Y-28163D01*
X6685Y-28110D01*
X6570Y-28030D01*
X6477Y-27935D01*
X6402Y-27817D01*
X6353Y-27694D01*
X6328Y-27556D01*
X6330Y-27423D01*
X6359Y-27287D01*
X6411Y-27164D01*
X6490Y-27049D01*
X6585Y-26956D01*
X6702Y-26880D01*
X6825Y-26830D01*
X6962Y-26804D01*
X7095Y-26805D01*
X7232Y-26833D01*
X7355Y-26884D01*
X7471Y-26962D01*
X7564Y-27057D01*
X7642Y-27173D01*
X7692Y-27296D01*
X7692Y-27298D01*
X7719Y-27433D01*
X7719Y-27433D01*
G37*
G36*
X7895Y-6913D02*
X7892Y-7111D01*
X7853Y-7285D01*
X7782Y-7443D01*
X7679Y-7588D01*
X7554Y-7707D01*
X7404Y-7803D01*
X7243Y-7865D01*
X7067Y-7896D01*
X6895Y-7893D01*
X6720Y-7854D01*
X6562Y-7785D01*
X6415Y-7683D01*
X6296Y-7559D01*
X6199Y-7409D01*
X6135Y-7249D01*
X6103Y-7073D01*
X6105Y-6901D01*
X6143Y-6726D01*
X6210Y-6568D01*
X6312Y-6420D01*
X6434Y-6300D01*
X6584Y-6202D01*
X6744Y-6137D01*
X6920Y-6104D01*
X7092Y-6105D01*
X7267Y-6141D01*
X7426Y-6207D01*
X7574Y-6308D01*
X7695Y-6430D01*
X7795Y-6579D01*
X7860Y-6738D01*
X7895Y-6912D01*
X7895Y-6913D01*
X7895Y-6913D01*
G37*
G36*
X7895Y-41913D02*
X7892Y-42111D01*
X7853Y-42285D01*
X7782Y-42443D01*
X7679Y-42588D01*
X7554Y-42707D01*
X7404Y-42803D01*
X7243Y-42865D01*
X7067Y-42896D01*
X6895Y-42893D01*
X6720Y-42854D01*
X6562Y-42785D01*
X6415Y-42683D01*
X6296Y-42559D01*
X6199Y-42409D01*
X6135Y-42249D01*
X6103Y-42073D01*
X6105Y-41901D01*
X6143Y-41726D01*
X6210Y-41568D01*
X6312Y-41420D01*
X6434Y-41300D01*
X6584Y-41202D01*
X6744Y-41137D01*
X6920Y-41104D01*
X7092Y-41105D01*
X7267Y-41141D01*
X7426Y-41207D01*
X7574Y-41308D01*
X7695Y-41430D01*
X7795Y-41579D01*
X7860Y-41738D01*
X7895Y-41912D01*
X7895Y-41913D01*
X7895Y-41913D01*
G37*
G36*
X9070Y-9470D02*
X9069Y-9538D01*
X9054Y-9602D01*
X9030Y-9657D01*
X8992Y-9711D01*
X8949Y-9752D01*
X8893Y-9787D01*
X8837Y-9809D01*
X8773Y-9820D01*
X8713Y-9819D01*
X8649Y-9805D01*
X8594Y-9781D01*
X8540Y-9743D01*
X8498Y-9701D01*
X8463Y-9645D01*
X8441Y-9590D01*
X8429Y-9525D01*
X8430Y-9465D01*
X8443Y-9401D01*
X8467Y-9346D01*
X8504Y-9291D01*
X8547Y-9250D01*
X8602Y-9214D01*
X8657Y-9191D01*
X8722Y-9179D01*
X8781Y-9179D01*
X8846Y-9193D01*
X8901Y-9216D01*
X8956Y-9253D01*
X8998Y-9295D01*
X9034Y-9350D01*
X9057Y-9405D01*
X9070Y-9470D01*
X9070Y-9470D01*
G37*
G36*
X9255Y-27433D02*
X9253Y-27586D01*
X9222Y-27721D01*
X9167Y-27843D01*
X9087Y-27957D01*
X8991Y-28049D01*
X8873Y-28124D01*
X8749Y-28172D01*
X8611Y-28196D01*
X8478Y-28193D01*
X8342Y-28163D01*
X8220Y-28110D01*
X8105Y-28030D01*
X8013Y-27935D01*
X7937Y-27817D01*
X7888Y-27694D01*
X7863Y-27556D01*
X7865Y-27423D01*
X7894Y-27287D01*
X7946Y-27164D01*
X8025Y-27049D01*
X8120Y-26956D01*
X8237Y-26880D01*
X8360Y-26830D01*
X8498Y-26804D01*
X8631Y-26805D01*
X8768Y-26833D01*
X8890Y-26884D01*
X9006Y-26962D01*
X9099Y-27057D01*
X9177Y-27173D01*
X9228Y-27296D01*
X9228Y-27298D01*
X9255Y-27433D01*
X9255Y-27433D01*
G37*
G36*
X9262Y-15941D02*
X9260Y-16053D01*
X9237Y-16154D01*
X9198Y-16243D01*
X9138Y-16327D01*
X9068Y-16394D01*
X8980Y-16450D01*
X8889Y-16485D01*
X8787Y-16503D01*
X8690Y-16501D01*
X8589Y-16479D01*
X8500Y-16440D01*
X8415Y-16381D01*
X8347Y-16311D01*
X8291Y-16223D01*
X8255Y-16133D01*
X8236Y-16031D01*
X8238Y-15934D01*
X8259Y-15832D01*
X8298Y-15743D01*
X8356Y-15657D01*
X8426Y-15590D01*
X8513Y-15533D01*
X8602Y-15496D01*
X8705Y-15477D01*
X8801Y-15478D01*
X8904Y-15498D01*
X8993Y-15536D01*
X9079Y-15594D01*
X9147Y-15663D01*
X9205Y-15750D01*
X9242Y-15839D01*
X9262Y-15941D01*
X9262Y-15941D01*
G37*
G36*
X9262Y-17524D02*
X9260Y-17635D01*
X9237Y-17736D01*
X9198Y-17825D01*
X9138Y-17910D01*
X9068Y-17977D01*
X8980Y-18032D01*
X8889Y-18068D01*
X8787Y-18086D01*
X8690Y-18084D01*
X8589Y-18061D01*
X8500Y-18022D01*
X8415Y-17963D01*
X8347Y-17893D01*
X8291Y-17806D01*
X8255Y-17716D01*
X8236Y-17614D01*
X8238Y-17517D01*
X8259Y-17415D01*
X8298Y-17326D01*
X8356Y-17240D01*
X8426Y-17172D01*
X8513Y-17115D01*
X8602Y-17079D01*
X8705Y-17060D01*
X8801Y-17060D01*
X8904Y-17081D01*
X8993Y-17119D01*
X9079Y-17177D01*
X9147Y-17245D01*
X9205Y-17332D01*
X9242Y-17422D01*
X9262Y-17524D01*
X9262Y-17524D01*
G37*
G36*
X10790Y-27433D02*
X10788Y-27586D01*
X10757Y-27721D01*
X10703Y-27843D01*
X10623Y-27957D01*
X10526Y-28049D01*
X10408Y-28124D01*
X10284Y-28172D01*
X10147Y-28196D01*
X10014Y-28193D01*
X9877Y-28163D01*
X9755Y-28110D01*
X9641Y-28030D01*
X9548Y-27935D01*
X9473Y-27817D01*
X9424Y-27694D01*
X9399Y-27556D01*
X9400Y-27423D01*
X9429Y-27287D01*
X9482Y-27164D01*
X9561Y-27049D01*
X9656Y-26956D01*
X9773Y-26880D01*
X9896Y-26830D01*
X10033Y-26804D01*
X10166Y-26805D01*
X10303Y-26833D01*
X10425Y-26884D01*
X10542Y-26962D01*
X10635Y-27057D01*
X10712Y-27173D01*
X10763Y-27296D01*
X10763Y-27298D01*
X10790Y-27433D01*
X10790Y-27433D01*
G37*
G36*
X12995Y-24126D02*
X12993Y-24279D01*
X12962Y-24414D01*
X12908Y-24536D01*
X12827Y-24650D01*
X12731Y-24742D01*
X12613Y-24817D01*
X12489Y-24865D01*
X12352Y-24889D01*
X12218Y-24886D01*
X12082Y-24856D01*
X11960Y-24803D01*
X11846Y-24723D01*
X11753Y-24628D01*
X11677Y-24510D01*
X11628Y-24387D01*
X11603Y-24249D01*
X11605Y-24116D01*
X11634Y-23980D01*
X11687Y-23857D01*
X11766Y-23742D01*
X11860Y-23649D01*
X11977Y-23573D01*
X12101Y-23523D01*
X12238Y-23497D01*
X12371Y-23498D01*
X12508Y-23526D01*
X12630Y-23577D01*
X12746Y-23655D01*
X12840Y-23749D01*
X12917Y-23866D01*
X12968Y-23989D01*
X12968Y-23991D01*
X12995Y-24126D01*
X12995Y-24126D01*
G37*
G36*
X12995Y-30740D02*
X12993Y-30893D01*
X12962Y-31028D01*
X12908Y-31150D01*
X12827Y-31264D01*
X12731Y-31356D01*
X12613Y-31431D01*
X12489Y-31479D01*
X12352Y-31503D01*
X12218Y-31500D01*
X12082Y-31470D01*
X11960Y-31417D01*
X11846Y-31337D01*
X11753Y-31242D01*
X11677Y-31124D01*
X11628Y-31001D01*
X11603Y-30863D01*
X11605Y-30730D01*
X11634Y-30594D01*
X11687Y-30472D01*
X11766Y-30356D01*
X11860Y-30263D01*
X11977Y-30187D01*
X12101Y-30137D01*
X12238Y-30111D01*
X12371Y-30112D01*
X12508Y-30140D01*
X12630Y-30191D01*
X12746Y-30270D01*
X12840Y-30364D01*
X12917Y-30480D01*
X12968Y-30603D01*
X12968Y-30605D01*
X12995Y-30740D01*
X12995Y-30740D01*
G37*
G36*
X13262Y-19878D02*
X13260Y-19990D01*
X13237Y-20091D01*
X13198Y-20180D01*
X13138Y-20264D01*
X13068Y-20331D01*
X12980Y-20387D01*
X12889Y-20422D01*
X12787Y-20440D01*
X12690Y-20438D01*
X12589Y-20416D01*
X12500Y-20377D01*
X12415Y-20318D01*
X12347Y-20248D01*
X12291Y-20160D01*
X12255Y-20070D01*
X12236Y-19968D01*
X12238Y-19871D01*
X12259Y-19769D01*
X12298Y-19680D01*
X12356Y-19594D01*
X12426Y-19527D01*
X12513Y-19470D01*
X12602Y-19433D01*
X12705Y-19414D01*
X12801Y-19415D01*
X12904Y-19435D01*
X12993Y-19473D01*
X13079Y-19531D01*
X13147Y-19600D01*
X13205Y-19687D01*
X13242Y-19776D01*
X13262Y-19878D01*
X13262Y-19878D01*
G37*
G36*
X13262Y-21461D02*
X13260Y-21572D01*
X13237Y-21673D01*
X13198Y-21762D01*
X13138Y-21847D01*
X13068Y-21914D01*
X12980Y-21969D01*
X12889Y-22005D01*
X12787Y-22023D01*
X12690Y-22021D01*
X12589Y-21998D01*
X12500Y-21959D01*
X12415Y-21900D01*
X12347Y-21830D01*
X12291Y-21743D01*
X12255Y-21653D01*
X12236Y-21551D01*
X12238Y-21454D01*
X12259Y-21352D01*
X12298Y-21263D01*
X12356Y-21177D01*
X12426Y-21109D01*
X12513Y-21052D01*
X12602Y-21016D01*
X12705Y-20997D01*
X12801Y-20997D01*
X12904Y-21018D01*
X12993Y-21056D01*
X13079Y-21114D01*
X13147Y-21183D01*
X13205Y-21269D01*
X13242Y-21359D01*
X13262Y-21461D01*
X13262Y-21461D01*
G37*
G36*
X13262Y-12502D02*
X12237Y-12502D01*
X12237Y-11477D01*
X13262Y-11477D01*
X13262Y-12502D01*
X13262Y-12502D01*
G37*
G36*
X13262Y-14085D02*
X12237Y-14085D01*
X12237Y-13060D01*
X13262Y-13060D01*
X13262Y-14085D01*
X13262Y-14085D01*
G37*
G36*
X13570Y-9470D02*
X13569Y-9538D01*
X13554Y-9602D01*
X13530Y-9657D01*
X13492Y-9711D01*
X13449Y-9752D01*
X13393Y-9787D01*
X13337Y-9809D01*
X13273Y-9820D01*
X13213Y-9819D01*
X13149Y-9805D01*
X13094Y-9781D01*
X13040Y-9743D01*
X12998Y-9701D01*
X12963Y-9645D01*
X12941Y-9590D01*
X12929Y-9525D01*
X12930Y-9465D01*
X12943Y-9401D01*
X12967Y-9346D01*
X13004Y-9291D01*
X13047Y-9250D01*
X13102Y-9214D01*
X13157Y-9191D01*
X13222Y-9179D01*
X13281Y-9179D01*
X13346Y-9193D01*
X13401Y-9216D01*
X13456Y-9253D01*
X13498Y-9295D01*
X13534Y-9350D01*
X13557Y-9405D01*
X13570Y-9470D01*
X13570Y-9470D01*
G37*
G36*
X15097Y-38664D02*
X14268Y-38664D01*
X14268Y-37835D01*
X15097Y-37835D01*
X15097Y-38664D01*
X15097Y-38664D01*
G37*
G36*
X15370Y-7612D02*
X15369Y-7692D01*
X15352Y-7766D01*
X15324Y-7829D01*
X15280Y-7891D01*
X15230Y-7939D01*
X15166Y-7979D01*
X15101Y-8005D01*
X15026Y-8018D01*
X14957Y-8016D01*
X14883Y-8000D01*
X14819Y-7972D01*
X14757Y-7929D01*
X14709Y-7879D01*
X14668Y-7815D01*
X14642Y-7751D01*
X14629Y-7676D01*
X14630Y-7607D01*
X14645Y-7533D01*
X14673Y-7469D01*
X14716Y-7406D01*
X14765Y-7358D01*
X14829Y-7316D01*
X14893Y-7290D01*
X14968Y-7276D01*
X15037Y-7277D01*
X15111Y-7292D01*
X15175Y-7319D01*
X15238Y-7361D01*
X15287Y-7410D01*
X15329Y-7474D01*
X15355Y-7537D01*
X15370Y-7612D01*
X15370Y-7612D01*
G37*
G36*
X15370Y-13517D02*
X15369Y-13597D01*
X15352Y-13671D01*
X15324Y-13735D01*
X15280Y-13796D01*
X15230Y-13844D01*
X15166Y-13885D01*
X15101Y-13910D01*
X15026Y-13923D01*
X14957Y-13922D01*
X14883Y-13906D01*
X14819Y-13878D01*
X14757Y-13834D01*
X14709Y-13785D01*
X14668Y-13721D01*
X14642Y-13656D01*
X14629Y-13582D01*
X14630Y-13512D01*
X14645Y-13438D01*
X14673Y-13375D01*
X14716Y-13312D01*
X14765Y-13263D01*
X14829Y-13222D01*
X14893Y-13196D01*
X14968Y-13182D01*
X15037Y-13182D01*
X15111Y-13197D01*
X15175Y-13224D01*
X15238Y-13267D01*
X15287Y-13316D01*
X15329Y-13379D01*
X15355Y-13443D01*
X15370Y-13517D01*
X15370Y-13517D01*
G37*
G36*
X16302Y-25897D02*
X16300Y-26050D01*
X16269Y-26186D01*
X16215Y-26308D01*
X16134Y-26422D01*
X16038Y-26514D01*
X15920Y-26588D01*
X15796Y-26636D01*
X15659Y-26661D01*
X15525Y-26658D01*
X15389Y-26628D01*
X15267Y-26575D01*
X15153Y-26495D01*
X15060Y-26399D01*
X14985Y-26282D01*
X14936Y-26158D01*
X14910Y-26021D01*
X14912Y-25888D01*
X14941Y-25751D01*
X14994Y-25629D01*
X15073Y-25514D01*
X15168Y-25421D01*
X15285Y-25344D01*
X15408Y-25294D01*
X15545Y-25268D01*
X15678Y-25269D01*
X15815Y-25297D01*
X15937Y-25349D01*
X16053Y-25427D01*
X16147Y-25521D01*
X16224Y-25638D01*
X16275Y-25760D01*
X16275Y-25762D01*
X16302Y-25897D01*
X16302Y-25897D01*
G37*
G36*
X16302Y-27433D02*
X16300Y-27586D01*
X16269Y-27721D01*
X16215Y-27843D01*
X16134Y-27957D01*
X16038Y-28049D01*
X15920Y-28124D01*
X15796Y-28172D01*
X15659Y-28196D01*
X15525Y-28193D01*
X15389Y-28163D01*
X15267Y-28110D01*
X15153Y-28030D01*
X15060Y-27935D01*
X14985Y-27817D01*
X14936Y-27694D01*
X14910Y-27556D01*
X14912Y-27423D01*
X14941Y-27287D01*
X14994Y-27164D01*
X15073Y-27049D01*
X15168Y-26956D01*
X15285Y-26880D01*
X15408Y-26830D01*
X15545Y-26804D01*
X15678Y-26805D01*
X15815Y-26833D01*
X15937Y-26884D01*
X16053Y-26962D01*
X16147Y-27057D01*
X16224Y-27173D01*
X16275Y-27296D01*
X16275Y-27298D01*
X16302Y-27433D01*
X16302Y-27433D01*
G37*
G36*
X16302Y-28968D02*
X16300Y-29121D01*
X16269Y-29257D01*
X16215Y-29379D01*
X16134Y-29492D01*
X16038Y-29584D01*
X15920Y-29659D01*
X15796Y-29707D01*
X15659Y-29732D01*
X15525Y-29729D01*
X15389Y-29699D01*
X15267Y-29645D01*
X15153Y-29566D01*
X15060Y-29470D01*
X14985Y-29353D01*
X14936Y-29229D01*
X14910Y-29092D01*
X14912Y-28959D01*
X14941Y-28822D01*
X14994Y-28700D01*
X15073Y-28585D01*
X15168Y-28492D01*
X15285Y-28415D01*
X15408Y-28365D01*
X15545Y-28339D01*
X15678Y-28340D01*
X15815Y-28368D01*
X15937Y-28420D01*
X16053Y-28498D01*
X16147Y-28592D01*
X16224Y-28709D01*
X16275Y-28831D01*
X16275Y-28833D01*
X16302Y-28968D01*
X16302Y-28968D01*
G37*
G36*
X16471Y-17486D02*
X16471Y-17501D01*
X16470Y-17505D01*
X16470Y-17505D01*
X16447Y-17715D01*
X16447Y-17715D01*
X16447Y-17715D01*
X16383Y-17916D01*
X16281Y-18102D01*
X16145Y-18263D01*
X15980Y-18396D01*
X15793Y-18494D01*
X15590Y-18553D01*
X15380Y-18573D01*
X15169Y-18551D01*
X14968Y-18488D01*
X14782Y-18387D01*
X14619Y-18253D01*
X14485Y-18089D01*
X14386Y-17902D01*
X14325Y-17700D01*
X14304Y-17486D01*
X14304Y-15940D01*
X14304Y-15925D01*
X14304Y-15921D01*
X14304Y-15921D01*
X14328Y-15711D01*
X14328Y-15711D01*
X14328Y-15711D01*
X14392Y-15510D01*
X14494Y-15324D01*
X14629Y-15162D01*
X14794Y-15030D01*
X14981Y-14932D01*
X15185Y-14872D01*
X15395Y-14853D01*
X15605Y-14875D01*
X15807Y-14938D01*
X15993Y-15038D01*
X16156Y-15173D01*
X16289Y-15337D01*
X16389Y-15523D01*
X16450Y-15726D01*
X16471Y-15940D01*
X16471Y-17486D01*
X16471Y-17486D01*
G37*
G36*
X16471Y-21659D02*
X16471Y-21674D01*
X16470Y-21678D01*
X16470Y-21678D01*
X16447Y-21888D01*
X16447Y-21888D01*
X16447Y-21888D01*
X16383Y-22089D01*
X16281Y-22275D01*
X16145Y-22437D01*
X15980Y-22569D01*
X15793Y-22667D01*
X15590Y-22727D01*
X15380Y-22746D01*
X15169Y-22724D01*
X14968Y-22661D01*
X14782Y-22561D01*
X14619Y-22426D01*
X14485Y-22262D01*
X14386Y-22076D01*
X14325Y-21873D01*
X14304Y-21659D01*
X14304Y-20113D01*
X14304Y-20098D01*
X14304Y-20094D01*
X14304Y-20094D01*
X14328Y-19884D01*
X14328Y-19884D01*
X14328Y-19884D01*
X14392Y-19683D01*
X14494Y-19497D01*
X14629Y-19336D01*
X14794Y-19203D01*
X14981Y-19105D01*
X15185Y-19046D01*
X15395Y-19026D01*
X15605Y-19048D01*
X15807Y-19111D01*
X15993Y-19212D01*
X16156Y-19346D01*
X16289Y-19510D01*
X16389Y-19697D01*
X16450Y-19899D01*
X16471Y-20113D01*
X16471Y-21659D01*
X16471Y-21659D01*
G37*
G36*
X16494Y-38208D02*
X16493Y-38303D01*
X16473Y-38388D01*
X16440Y-38463D01*
X16389Y-38535D01*
X16330Y-38592D01*
X16256Y-38639D01*
X16179Y-38669D01*
X16092Y-38684D01*
X16010Y-38682D01*
X15924Y-38663D01*
X15849Y-38631D01*
X15777Y-38580D01*
X15720Y-38521D01*
X15672Y-38447D01*
X15642Y-38371D01*
X15626Y-38284D01*
X15627Y-38203D01*
X15646Y-38116D01*
X15678Y-38041D01*
X15728Y-37968D01*
X15786Y-37911D01*
X15860Y-37863D01*
X15936Y-37832D01*
X16023Y-37815D01*
X16104Y-37816D01*
X16191Y-37834D01*
X16266Y-37865D01*
X16340Y-37915D01*
X16397Y-37973D01*
X16446Y-38047D01*
X16477Y-38122D01*
X16494Y-38208D01*
X16494Y-38208D01*
G37*
G36*
X17820Y-7470D02*
X17819Y-7538D01*
X17804Y-7602D01*
X17780Y-7657D01*
X17742Y-7711D01*
X17699Y-7752D01*
X17643Y-7787D01*
X17587Y-7809D01*
X17523Y-7820D01*
X17463Y-7819D01*
X17399Y-7805D01*
X17344Y-7781D01*
X17290Y-7743D01*
X17248Y-7701D01*
X17213Y-7645D01*
X17191Y-7590D01*
X17179Y-7525D01*
X17180Y-7465D01*
X17193Y-7401D01*
X17217Y-7346D01*
X17254Y-7291D01*
X17297Y-7250D01*
X17352Y-7214D01*
X17407Y-7191D01*
X17472Y-7179D01*
X17531Y-7179D01*
X17596Y-7193D01*
X17651Y-7216D01*
X17706Y-7253D01*
X17748Y-7295D01*
X17784Y-7350D01*
X17807Y-7405D01*
X17820Y-7470D01*
X17820Y-7470D01*
G37*
G36*
X17820Y-8820D02*
X17179Y-8820D01*
X17179Y-8179D01*
X17820Y-8179D01*
X17820Y-8820D01*
X17820Y-8820D01*
G37*
G36*
X17872Y-38208D02*
X17871Y-38303D01*
X17851Y-38388D01*
X17818Y-38463D01*
X17767Y-38535D01*
X17708Y-38592D01*
X17634Y-38639D01*
X17557Y-38669D01*
X17470Y-38684D01*
X17388Y-38682D01*
X17302Y-38663D01*
X17227Y-38631D01*
X17155Y-38580D01*
X17098Y-38521D01*
X17050Y-38447D01*
X17020Y-38371D01*
X17004Y-38284D01*
X17005Y-38203D01*
X17024Y-38116D01*
X17056Y-38041D01*
X17106Y-37968D01*
X17164Y-37911D01*
X17238Y-37863D01*
X17314Y-37832D01*
X17401Y-37815D01*
X17482Y-37816D01*
X17569Y-37834D01*
X17644Y-37865D01*
X17718Y-37915D01*
X17775Y-37973D01*
X17824Y-38047D01*
X17855Y-38122D01*
X17872Y-38208D01*
X17872Y-38208D01*
G37*
G36*
X18820Y-7470D02*
X18819Y-7538D01*
X18804Y-7602D01*
X18780Y-7657D01*
X18742Y-7711D01*
X18699Y-7752D01*
X18643Y-7787D01*
X18587Y-7809D01*
X18523Y-7820D01*
X18463Y-7819D01*
X18399Y-7805D01*
X18344Y-7781D01*
X18290Y-7743D01*
X18248Y-7701D01*
X18213Y-7645D01*
X18191Y-7590D01*
X18179Y-7525D01*
X18180Y-7465D01*
X18193Y-7401D01*
X18217Y-7346D01*
X18254Y-7291D01*
X18297Y-7250D01*
X18352Y-7214D01*
X18407Y-7191D01*
X18472Y-7179D01*
X18531Y-7179D01*
X18596Y-7193D01*
X18651Y-7216D01*
X18706Y-7253D01*
X18748Y-7295D01*
X18784Y-7350D01*
X18807Y-7405D01*
X18820Y-7470D01*
X18820Y-7470D01*
G37*
G36*
X18820Y-8470D02*
X18819Y-8538D01*
X18804Y-8602D01*
X18780Y-8657D01*
X18742Y-8711D01*
X18699Y-8752D01*
X18643Y-8787D01*
X18587Y-8809D01*
X18523Y-8820D01*
X18463Y-8819D01*
X18399Y-8805D01*
X18344Y-8781D01*
X18290Y-8743D01*
X18248Y-8701D01*
X18213Y-8645D01*
X18191Y-8590D01*
X18179Y-8525D01*
X18180Y-8465D01*
X18193Y-8401D01*
X18217Y-8346D01*
X18254Y-8291D01*
X18297Y-8250D01*
X18352Y-8214D01*
X18407Y-8191D01*
X18472Y-8179D01*
X18531Y-8179D01*
X18596Y-8193D01*
X18651Y-8216D01*
X18706Y-8253D01*
X18748Y-8295D01*
X18784Y-8350D01*
X18807Y-8405D01*
X18820Y-8470D01*
X18820Y-8470D01*
G37*
G36*
X19250Y-38208D02*
X19249Y-38303D01*
X19229Y-38388D01*
X19196Y-38463D01*
X19145Y-38535D01*
X19086Y-38592D01*
X19011Y-38639D01*
X18935Y-38669D01*
X18848Y-38684D01*
X18766Y-38682D01*
X18680Y-38663D01*
X18605Y-38631D01*
X18533Y-38580D01*
X18476Y-38521D01*
X18428Y-38447D01*
X18398Y-38371D01*
X18382Y-38284D01*
X18383Y-38203D01*
X18402Y-38116D01*
X18434Y-38041D01*
X18484Y-37968D01*
X18542Y-37911D01*
X18616Y-37863D01*
X18692Y-37832D01*
X18779Y-37815D01*
X18860Y-37816D01*
X18947Y-37834D01*
X19022Y-37865D01*
X19096Y-37915D01*
X19153Y-37973D01*
X19202Y-38047D01*
X19233Y-38122D01*
X19250Y-38208D01*
X19250Y-38208D01*
G37*
G36*
X19820Y-7470D02*
X19819Y-7538D01*
X19804Y-7602D01*
X19780Y-7657D01*
X19742Y-7711D01*
X19699Y-7752D01*
X19643Y-7787D01*
X19587Y-7809D01*
X19523Y-7820D01*
X19463Y-7819D01*
X19399Y-7805D01*
X19344Y-7781D01*
X19290Y-7743D01*
X19248Y-7701D01*
X19213Y-7645D01*
X19191Y-7590D01*
X19179Y-7525D01*
X19180Y-7465D01*
X19193Y-7401D01*
X19217Y-7346D01*
X19254Y-7291D01*
X19297Y-7250D01*
X19352Y-7214D01*
X19407Y-7191D01*
X19472Y-7179D01*
X19531Y-7179D01*
X19596Y-7193D01*
X19651Y-7216D01*
X19706Y-7253D01*
X19748Y-7295D01*
X19784Y-7350D01*
X19807Y-7405D01*
X19820Y-7470D01*
X19820Y-7470D01*
G37*
G36*
X19820Y-8470D02*
X19819Y-8538D01*
X19804Y-8602D01*
X19780Y-8657D01*
X19742Y-8711D01*
X19699Y-8752D01*
X19643Y-8787D01*
X19587Y-8809D01*
X19523Y-8820D01*
X19463Y-8819D01*
X19399Y-8805D01*
X19344Y-8781D01*
X19290Y-8743D01*
X19248Y-8701D01*
X19213Y-8645D01*
X19191Y-8590D01*
X19179Y-8525D01*
X19180Y-8465D01*
X19193Y-8401D01*
X19217Y-8346D01*
X19254Y-8291D01*
X19297Y-8250D01*
X19352Y-8214D01*
X19407Y-8191D01*
X19472Y-8179D01*
X19531Y-8179D01*
X19596Y-8193D01*
X19651Y-8216D01*
X19706Y-8253D01*
X19748Y-8295D01*
X19784Y-8350D01*
X19807Y-8405D01*
X19820Y-8470D01*
X19820Y-8470D01*
G37*
G36*
X21183Y-37718D02*
X21182Y-37790D01*
X21167Y-37857D01*
X21141Y-37915D01*
X21102Y-37971D01*
X21056Y-38014D01*
X20998Y-38051D01*
X20940Y-38073D01*
X20872Y-38085D01*
X20810Y-38084D01*
X20742Y-38069D01*
X20685Y-38044D01*
X20628Y-38005D01*
X20585Y-37960D01*
X20548Y-37902D01*
X20525Y-37844D01*
X20512Y-37776D01*
X20513Y-37714D01*
X20527Y-37646D01*
X20552Y-37589D01*
X20591Y-37532D01*
X20636Y-37488D01*
X20693Y-37450D01*
X20751Y-37427D01*
X20819Y-37414D01*
X20881Y-37414D01*
X20949Y-37428D01*
X21006Y-37452D01*
X21064Y-37491D01*
X21108Y-37535D01*
X21146Y-37593D01*
X21170Y-37650D01*
X21183Y-37717D01*
X21183Y-37718D01*
X21183Y-37718D01*
G37*
G36*
X21400Y-12781D02*
X21397Y-12961D01*
X21361Y-13121D01*
X21297Y-13265D01*
X21202Y-13399D01*
X21088Y-13508D01*
X20950Y-13596D01*
X20803Y-13653D01*
X20641Y-13681D01*
X20483Y-13678D01*
X20323Y-13643D01*
X20179Y-13580D01*
X20044Y-13486D01*
X19935Y-13373D01*
X19846Y-13235D01*
X19788Y-13088D01*
X19758Y-12927D01*
X19760Y-12769D01*
X19794Y-12609D01*
X19856Y-12464D01*
X19949Y-12328D01*
X20062Y-12218D01*
X20199Y-12128D01*
X20345Y-12069D01*
X20507Y-12039D01*
X20664Y-12040D01*
X20825Y-12073D01*
X20970Y-12134D01*
X21106Y-12226D01*
X21217Y-12337D01*
X21308Y-12474D01*
X21368Y-12619D01*
X21400Y-12781D01*
X21400Y-12781D01*
G37*
G36*
X21695Y-7072D02*
X21694Y-7135D01*
X21680Y-7194D01*
X21658Y-7245D01*
X21623Y-7294D01*
X21583Y-7332D01*
X21532Y-7365D01*
X21481Y-7385D01*
X21421Y-7395D01*
X21366Y-7394D01*
X21306Y-7381D01*
X21256Y-7359D01*
X21206Y-7324D01*
X21168Y-7285D01*
X21135Y-7234D01*
X21115Y-7183D01*
X21104Y-7123D01*
X21105Y-7068D01*
X21117Y-7008D01*
X21139Y-6958D01*
X21173Y-6908D01*
X21212Y-6869D01*
X21264Y-6836D01*
X21314Y-6815D01*
X21374Y-6804D01*
X21429Y-6804D01*
X21489Y-6817D01*
X21539Y-6838D01*
X21590Y-6872D01*
X21628Y-6911D01*
X21662Y-6962D01*
X21683Y-7012D01*
X21683Y-7014D01*
X21695Y-7071D01*
X21695Y-7072D01*
X21695Y-7072D01*
G37*
G36*
X21695Y-8072D02*
X21694Y-8135D01*
X21680Y-8194D01*
X21658Y-8245D01*
X21623Y-8294D01*
X21583Y-8332D01*
X21532Y-8365D01*
X21481Y-8385D01*
X21421Y-8395D01*
X21366Y-8394D01*
X21306Y-8381D01*
X21256Y-8359D01*
X21206Y-8324D01*
X21168Y-8285D01*
X21135Y-8234D01*
X21115Y-8183D01*
X21104Y-8123D01*
X21105Y-8068D01*
X21117Y-8008D01*
X21139Y-7958D01*
X21173Y-7908D01*
X21212Y-7869D01*
X21264Y-7836D01*
X21314Y-7815D01*
X21374Y-7804D01*
X21429Y-7804D01*
X21489Y-7817D01*
X21539Y-7838D01*
X21590Y-7872D01*
X21628Y-7911D01*
X21662Y-7962D01*
X21683Y-8012D01*
X21683Y-8014D01*
X21695Y-8071D01*
X21695Y-8072D01*
X21695Y-8072D01*
G37*
G36*
X21695Y-31072D02*
X21694Y-31135D01*
X21680Y-31194D01*
X21658Y-31245D01*
X21623Y-31294D01*
X21583Y-31332D01*
X21532Y-31365D01*
X21481Y-31385D01*
X21421Y-31395D01*
X21366Y-31394D01*
X21306Y-31381D01*
X21256Y-31359D01*
X21206Y-31324D01*
X21168Y-31285D01*
X21135Y-31234D01*
X21115Y-31183D01*
X21104Y-31123D01*
X21105Y-31068D01*
X21117Y-31008D01*
X21139Y-30958D01*
X21173Y-30908D01*
X21212Y-30869D01*
X21264Y-30836D01*
X21314Y-30815D01*
X21374Y-30804D01*
X21429Y-30804D01*
X21489Y-30817D01*
X21539Y-30838D01*
X21590Y-30872D01*
X21628Y-30911D01*
X21662Y-30962D01*
X21683Y-31012D01*
X21683Y-31014D01*
X21695Y-31071D01*
X21695Y-31072D01*
X21695Y-31072D01*
G37*
G36*
X21695Y-32072D02*
X21694Y-32135D01*
X21680Y-32194D01*
X21658Y-32245D01*
X21623Y-32294D01*
X21583Y-32332D01*
X21532Y-32365D01*
X21481Y-32385D01*
X21421Y-32395D01*
X21366Y-32394D01*
X21306Y-32381D01*
X21256Y-32359D01*
X21206Y-32324D01*
X21168Y-32285D01*
X21135Y-32234D01*
X21115Y-32183D01*
X21104Y-32123D01*
X21105Y-32068D01*
X21117Y-32008D01*
X21139Y-31958D01*
X21173Y-31908D01*
X21212Y-31869D01*
X21264Y-31836D01*
X21314Y-31815D01*
X21374Y-31804D01*
X21429Y-31804D01*
X21489Y-31817D01*
X21539Y-31838D01*
X21590Y-31872D01*
X21628Y-31911D01*
X21662Y-31962D01*
X21683Y-32012D01*
X21683Y-32014D01*
X21695Y-32071D01*
X21695Y-32072D01*
X21695Y-32072D01*
G37*
G36*
X21695Y-33072D02*
X21694Y-33135D01*
X21680Y-33194D01*
X21658Y-33245D01*
X21623Y-33294D01*
X21583Y-33332D01*
X21532Y-33365D01*
X21481Y-33385D01*
X21421Y-33395D01*
X21366Y-33394D01*
X21306Y-33381D01*
X21256Y-33359D01*
X21206Y-33324D01*
X21168Y-33285D01*
X21135Y-33234D01*
X21115Y-33183D01*
X21104Y-33123D01*
X21105Y-33068D01*
X21117Y-33008D01*
X21139Y-32958D01*
X21173Y-32908D01*
X21212Y-32869D01*
X21264Y-32836D01*
X21314Y-32815D01*
X21374Y-32804D01*
X21429Y-32804D01*
X21489Y-32817D01*
X21539Y-32838D01*
X21590Y-32872D01*
X21628Y-32911D01*
X21662Y-32962D01*
X21683Y-33012D01*
X21683Y-33014D01*
X21695Y-33071D01*
X21695Y-33072D01*
X21695Y-33072D01*
G37*
G36*
X21695Y-34072D02*
X21694Y-34135D01*
X21680Y-34194D01*
X21658Y-34245D01*
X21623Y-34294D01*
X21583Y-34332D01*
X21532Y-34365D01*
X21481Y-34385D01*
X21421Y-34395D01*
X21366Y-34394D01*
X21306Y-34381D01*
X21256Y-34359D01*
X21206Y-34324D01*
X21168Y-34285D01*
X21135Y-34234D01*
X21115Y-34183D01*
X21104Y-34123D01*
X21105Y-34068D01*
X21117Y-34008D01*
X21139Y-33958D01*
X21173Y-33908D01*
X21212Y-33869D01*
X21264Y-33836D01*
X21314Y-33815D01*
X21374Y-33804D01*
X21429Y-33804D01*
X21489Y-33817D01*
X21539Y-33838D01*
X21590Y-33872D01*
X21628Y-33911D01*
X21662Y-33962D01*
X21683Y-34012D01*
X21683Y-34014D01*
X21695Y-34071D01*
X21695Y-34072D01*
X21695Y-34072D01*
G37*
G36*
X21695Y-35072D02*
X21694Y-35135D01*
X21680Y-35194D01*
X21658Y-35245D01*
X21623Y-35294D01*
X21583Y-35332D01*
X21532Y-35365D01*
X21481Y-35385D01*
X21421Y-35395D01*
X21366Y-35394D01*
X21306Y-35381D01*
X21256Y-35359D01*
X21206Y-35324D01*
X21168Y-35285D01*
X21135Y-35234D01*
X21115Y-35183D01*
X21104Y-35123D01*
X21105Y-35068D01*
X21117Y-35008D01*
X21139Y-34958D01*
X21173Y-34908D01*
X21212Y-34869D01*
X21264Y-34836D01*
X21314Y-34815D01*
X21374Y-34804D01*
X21429Y-34804D01*
X21489Y-34817D01*
X21539Y-34838D01*
X21590Y-34872D01*
X21628Y-34911D01*
X21662Y-34962D01*
X21683Y-35012D01*
X21683Y-35014D01*
X21695Y-35071D01*
X21695Y-35072D01*
X21695Y-35072D01*
G37*
G36*
X21695Y-36395D02*
X21104Y-36395D01*
X21104Y-35804D01*
X21695Y-35804D01*
X21695Y-36395D01*
X21695Y-36395D01*
G37*
G36*
X21971Y-37230D02*
X21970Y-37293D01*
X21956Y-37353D01*
X21934Y-37403D01*
X21899Y-37453D01*
X21859Y-37491D01*
X21807Y-37523D01*
X21756Y-37543D01*
X21696Y-37554D01*
X21641Y-37553D01*
X21581Y-37540D01*
X21531Y-37518D01*
X21481Y-37483D01*
X21443Y-37443D01*
X21410Y-37392D01*
X21389Y-37341D01*
X21378Y-37281D01*
X21379Y-37226D01*
X21392Y-37166D01*
X21413Y-37116D01*
X21448Y-37065D01*
X21487Y-37027D01*
X21539Y-36993D01*
X21589Y-36973D01*
X21650Y-36961D01*
X21704Y-36962D01*
X21764Y-36974D01*
X21814Y-36995D01*
X21866Y-37030D01*
X21904Y-37068D01*
X21938Y-37120D01*
X21959Y-37170D01*
X21971Y-37230D01*
X21971Y-37230D01*
G37*
G36*
X21971Y-38538D02*
X21379Y-38538D01*
X21379Y-37946D01*
X21971Y-37946D01*
X21971Y-38538D01*
X21971Y-38538D01*
G37*
G36*
X23545Y-37230D02*
X23545Y-37293D01*
X23531Y-37353D01*
X23509Y-37403D01*
X23473Y-37453D01*
X23434Y-37491D01*
X23382Y-37523D01*
X23331Y-37543D01*
X23271Y-37554D01*
X23216Y-37553D01*
X23156Y-37540D01*
X23106Y-37518D01*
X23056Y-37483D01*
X23018Y-37443D01*
X22984Y-37392D01*
X22964Y-37341D01*
X22953Y-37281D01*
X22954Y-37226D01*
X22967Y-37166D01*
X22988Y-37116D01*
X23023Y-37065D01*
X23062Y-37027D01*
X23113Y-36993D01*
X23164Y-36973D01*
X23224Y-36961D01*
X23279Y-36962D01*
X23339Y-36974D01*
X23389Y-36995D01*
X23440Y-37030D01*
X23479Y-37068D01*
X23513Y-37120D01*
X23533Y-37170D01*
X23545Y-37230D01*
X23545Y-37230D01*
G37*
G36*
X23545Y-38214D02*
X23545Y-38277D01*
X23531Y-38337D01*
X23509Y-38387D01*
X23473Y-38437D01*
X23434Y-38475D01*
X23382Y-38508D01*
X23331Y-38527D01*
X23271Y-38538D01*
X23216Y-38537D01*
X23156Y-38524D01*
X23106Y-38502D01*
X23056Y-38467D01*
X23018Y-38427D01*
X22984Y-38376D01*
X22964Y-38325D01*
X22953Y-38265D01*
X22954Y-38210D01*
X22967Y-38150D01*
X22988Y-38100D01*
X23023Y-38049D01*
X23062Y-38011D01*
X23113Y-37977D01*
X23164Y-37957D01*
X23224Y-37945D01*
X23279Y-37946D01*
X23339Y-37958D01*
X23389Y-37979D01*
X23440Y-38014D01*
X23479Y-38052D01*
X23513Y-38104D01*
X23533Y-38154D01*
X23545Y-38214D01*
X23545Y-38214D01*
G37*
G36*
X23820Y-6970D02*
X23819Y-7038D01*
X23804Y-7102D01*
X23780Y-7157D01*
X23742Y-7211D01*
X23699Y-7252D01*
X23643Y-7287D01*
X23587Y-7309D01*
X23523Y-7320D01*
X23463Y-7319D01*
X23399Y-7305D01*
X23344Y-7281D01*
X23290Y-7243D01*
X23248Y-7201D01*
X23213Y-7145D01*
X23191Y-7090D01*
X23179Y-7025D01*
X23180Y-6965D01*
X23193Y-6901D01*
X23217Y-6846D01*
X23254Y-6791D01*
X23297Y-6750D01*
X23352Y-6714D01*
X23407Y-6691D01*
X23472Y-6679D01*
X23531Y-6679D01*
X23596Y-6693D01*
X23651Y-6716D01*
X23706Y-6753D01*
X23748Y-6795D01*
X23784Y-6850D01*
X23807Y-6905D01*
X23820Y-6970D01*
X23820Y-6970D01*
G37*
G36*
X23820Y-8320D02*
X23179Y-8320D01*
X23179Y-7679D01*
X23820Y-7679D01*
X23820Y-8320D01*
X23820Y-8320D01*
G37*
G36*
X24128Y-18018D02*
X24127Y-18086D01*
X24113Y-18149D01*
X24089Y-18203D01*
X24052Y-18256D01*
X24009Y-18297D01*
X23954Y-18331D01*
X23899Y-18353D01*
X23835Y-18364D01*
X23776Y-18363D01*
X23713Y-18349D01*
X23659Y-18325D01*
X23606Y-18288D01*
X23565Y-18246D01*
X23530Y-18191D01*
X23508Y-18137D01*
X23496Y-18072D01*
X23497Y-18014D01*
X23511Y-17950D01*
X23534Y-17896D01*
X23571Y-17842D01*
X23612Y-17801D01*
X23667Y-17766D01*
X23721Y-17744D01*
X23786Y-17731D01*
X23844Y-17732D01*
X23908Y-17745D01*
X23962Y-17768D01*
X24016Y-17804D01*
X24057Y-17846D01*
X24093Y-17900D01*
X24116Y-17954D01*
X24128Y-18018D01*
X24128Y-18018D01*
G37*
G36*
X24128Y-18770D02*
X24127Y-18838D01*
X24113Y-18901D01*
X24089Y-18955D01*
X24052Y-19008D01*
X24009Y-19049D01*
X23954Y-19083D01*
X23899Y-19105D01*
X23835Y-19116D01*
X23776Y-19115D01*
X23713Y-19101D01*
X23659Y-19077D01*
X23606Y-19040D01*
X23565Y-18998D01*
X23530Y-18943D01*
X23508Y-18889D01*
X23496Y-18824D01*
X23497Y-18766D01*
X23511Y-18702D01*
X23534Y-18648D01*
X23571Y-18594D01*
X23612Y-18553D01*
X23667Y-18518D01*
X23721Y-18496D01*
X23786Y-18483D01*
X23844Y-18484D01*
X23908Y-18497D01*
X23962Y-18520D01*
X24016Y-18556D01*
X24057Y-18598D01*
X24093Y-18652D01*
X24116Y-18706D01*
X24128Y-18770D01*
X24128Y-18770D01*
G37*
G36*
X24128Y-19522D02*
X24127Y-19590D01*
X24113Y-19653D01*
X24089Y-19707D01*
X24052Y-19760D01*
X24009Y-19801D01*
X23954Y-19835D01*
X23899Y-19857D01*
X23835Y-19868D01*
X23776Y-19867D01*
X23713Y-19853D01*
X23659Y-19829D01*
X23606Y-19792D01*
X23565Y-19750D01*
X23530Y-19695D01*
X23508Y-19641D01*
X23496Y-19576D01*
X23497Y-19518D01*
X23511Y-19454D01*
X23534Y-19400D01*
X23571Y-19346D01*
X23612Y-19305D01*
X23667Y-19270D01*
X23721Y-19248D01*
X23786Y-19235D01*
X23844Y-19236D01*
X23908Y-19249D01*
X23962Y-19272D01*
X24016Y-19308D01*
X24057Y-19350D01*
X24093Y-19404D01*
X24116Y-19458D01*
X24128Y-19522D01*
X24128Y-19522D01*
G37*
G36*
X24333Y-37230D02*
X24332Y-37293D01*
X24318Y-37353D01*
X24296Y-37403D01*
X24261Y-37453D01*
X24221Y-37491D01*
X24170Y-37523D01*
X24118Y-37543D01*
X24058Y-37554D01*
X24003Y-37553D01*
X23944Y-37540D01*
X23893Y-37518D01*
X23843Y-37483D01*
X23805Y-37443D01*
X23772Y-37392D01*
X23752Y-37341D01*
X23741Y-37281D01*
X23741Y-37226D01*
X23754Y-37166D01*
X23776Y-37116D01*
X23810Y-37065D01*
X23849Y-37027D01*
X23901Y-36993D01*
X23951Y-36973D01*
X24012Y-36961D01*
X24066Y-36962D01*
X24127Y-36974D01*
X24177Y-36995D01*
X24228Y-37030D01*
X24266Y-37068D01*
X24300Y-37120D01*
X24321Y-37170D01*
X24333Y-37230D01*
X24333Y-37230D01*
G37*
G36*
X24333Y-38214D02*
X24332Y-38277D01*
X24318Y-38337D01*
X24296Y-38387D01*
X24261Y-38437D01*
X24221Y-38475D01*
X24170Y-38508D01*
X24118Y-38527D01*
X24058Y-38538D01*
X24003Y-38537D01*
X23944Y-38524D01*
X23893Y-38502D01*
X23843Y-38467D01*
X23805Y-38427D01*
X23772Y-38376D01*
X23752Y-38325D01*
X23741Y-38265D01*
X23741Y-38210D01*
X23754Y-38150D01*
X23776Y-38100D01*
X23810Y-38049D01*
X23849Y-38011D01*
X23901Y-37977D01*
X23951Y-37957D01*
X24012Y-37945D01*
X24066Y-37946D01*
X24127Y-37958D01*
X24177Y-37979D01*
X24228Y-38014D01*
X24266Y-38052D01*
X24300Y-38104D01*
X24321Y-38154D01*
X24333Y-38214D01*
X24333Y-38214D01*
G37*
G36*
X24820Y-6970D02*
X24819Y-7038D01*
X24804Y-7102D01*
X24780Y-7157D01*
X24742Y-7211D01*
X24699Y-7252D01*
X24643Y-7287D01*
X24587Y-7309D01*
X24523Y-7320D01*
X24463Y-7319D01*
X24399Y-7305D01*
X24344Y-7281D01*
X24290Y-7243D01*
X24248Y-7201D01*
X24213Y-7145D01*
X24191Y-7090D01*
X24179Y-7025D01*
X24180Y-6965D01*
X24193Y-6901D01*
X24217Y-6846D01*
X24254Y-6791D01*
X24297Y-6750D01*
X24352Y-6714D01*
X24407Y-6691D01*
X24472Y-6679D01*
X24531Y-6679D01*
X24596Y-6693D01*
X24651Y-6716D01*
X24706Y-6753D01*
X24748Y-6795D01*
X24784Y-6850D01*
X24807Y-6905D01*
X24820Y-6970D01*
X24820Y-6970D01*
G37*
G36*
X24820Y-7970D02*
X24819Y-8038D01*
X24804Y-8102D01*
X24780Y-8157D01*
X24742Y-8211D01*
X24699Y-8252D01*
X24643Y-8287D01*
X24587Y-8309D01*
X24523Y-8320D01*
X24463Y-8319D01*
X24399Y-8305D01*
X24344Y-8281D01*
X24290Y-8243D01*
X24248Y-8201D01*
X24213Y-8145D01*
X24191Y-8090D01*
X24179Y-8025D01*
X24180Y-7965D01*
X24193Y-7901D01*
X24217Y-7846D01*
X24254Y-7791D01*
X24297Y-7750D01*
X24352Y-7714D01*
X24407Y-7691D01*
X24472Y-7679D01*
X24531Y-7679D01*
X24596Y-7693D01*
X24651Y-7716D01*
X24706Y-7753D01*
X24748Y-7795D01*
X24784Y-7850D01*
X24807Y-7905D01*
X24820Y-7970D01*
X24820Y-7970D01*
G37*
G36*
X25120Y-37230D02*
X25119Y-37293D01*
X25106Y-37353D01*
X25083Y-37403D01*
X25048Y-37453D01*
X25008Y-37491D01*
X24957Y-37523D01*
X24906Y-37543D01*
X24846Y-37554D01*
X24791Y-37553D01*
X24731Y-37540D01*
X24681Y-37518D01*
X24630Y-37483D01*
X24592Y-37443D01*
X24559Y-37392D01*
X24539Y-37341D01*
X24528Y-37281D01*
X24529Y-37226D01*
X24542Y-37166D01*
X24563Y-37116D01*
X24598Y-37065D01*
X24637Y-37027D01*
X24688Y-36993D01*
X24739Y-36973D01*
X24799Y-36961D01*
X24854Y-36962D01*
X24914Y-36974D01*
X24964Y-36995D01*
X25015Y-37030D01*
X25053Y-37068D01*
X25088Y-37120D01*
X25108Y-37170D01*
X25120Y-37230D01*
X25120Y-37230D01*
G37*
G36*
X25120Y-38214D02*
X25119Y-38277D01*
X25106Y-38337D01*
X25083Y-38387D01*
X25048Y-38437D01*
X25008Y-38475D01*
X24957Y-38508D01*
X24906Y-38527D01*
X24846Y-38538D01*
X24791Y-38537D01*
X24731Y-38524D01*
X24681Y-38502D01*
X24630Y-38467D01*
X24592Y-38427D01*
X24559Y-38376D01*
X24539Y-38325D01*
X24528Y-38265D01*
X24529Y-38210D01*
X24542Y-38150D01*
X24563Y-38100D01*
X24598Y-38049D01*
X24637Y-38011D01*
X24688Y-37977D01*
X24739Y-37957D01*
X24799Y-37945D01*
X24854Y-37946D01*
X24914Y-37958D01*
X24964Y-37979D01*
X25015Y-38014D01*
X25053Y-38052D01*
X25088Y-38104D01*
X25108Y-38154D01*
X25120Y-38214D01*
X25120Y-38214D01*
G37*
G36*
X25820Y-6970D02*
X25819Y-7038D01*
X25804Y-7102D01*
X25780Y-7157D01*
X25742Y-7211D01*
X25699Y-7252D01*
X25643Y-7287D01*
X25587Y-7309D01*
X25523Y-7320D01*
X25463Y-7319D01*
X25399Y-7305D01*
X25344Y-7281D01*
X25290Y-7243D01*
X25248Y-7201D01*
X25213Y-7145D01*
X25191Y-7090D01*
X25179Y-7025D01*
X25180Y-6965D01*
X25193Y-6901D01*
X25217Y-6846D01*
X25254Y-6791D01*
X25297Y-6750D01*
X25352Y-6714D01*
X25407Y-6691D01*
X25472Y-6679D01*
X25531Y-6679D01*
X25596Y-6693D01*
X25651Y-6716D01*
X25706Y-6753D01*
X25748Y-6795D01*
X25784Y-6850D01*
X25807Y-6905D01*
X25820Y-6970D01*
X25820Y-6970D01*
G37*
G36*
X25820Y-7970D02*
X25819Y-8038D01*
X25804Y-8102D01*
X25780Y-8157D01*
X25742Y-8211D01*
X25699Y-8252D01*
X25643Y-8287D01*
X25587Y-8309D01*
X25523Y-8320D01*
X25463Y-8319D01*
X25399Y-8305D01*
X25344Y-8281D01*
X25290Y-8243D01*
X25248Y-8201D01*
X25213Y-8145D01*
X25191Y-8090D01*
X25179Y-8025D01*
X25180Y-7965D01*
X25193Y-7901D01*
X25217Y-7846D01*
X25254Y-7791D01*
X25297Y-7750D01*
X25352Y-7714D01*
X25407Y-7691D01*
X25472Y-7679D01*
X25531Y-7679D01*
X25596Y-7693D01*
X25651Y-7716D01*
X25706Y-7753D01*
X25748Y-7795D01*
X25784Y-7850D01*
X25807Y-7905D01*
X25820Y-7970D01*
X25820Y-7970D01*
G37*
G36*
X25986Y-37718D02*
X25985Y-37790D01*
X25970Y-37857D01*
X25945Y-37915D01*
X25905Y-37971D01*
X25860Y-38014D01*
X25802Y-38051D01*
X25743Y-38073D01*
X25675Y-38085D01*
X25613Y-38084D01*
X25546Y-38069D01*
X25488Y-38044D01*
X25432Y-38005D01*
X25388Y-37960D01*
X25351Y-37902D01*
X25328Y-37844D01*
X25315Y-37776D01*
X25316Y-37714D01*
X25331Y-37646D01*
X25355Y-37589D01*
X25394Y-37532D01*
X25439Y-37488D01*
X25497Y-37450D01*
X25554Y-37427D01*
X25622Y-37414D01*
X25684Y-37414D01*
X25752Y-37428D01*
X25810Y-37452D01*
X25867Y-37491D01*
X25911Y-37535D01*
X25949Y-37593D01*
X25973Y-37650D01*
X25986Y-37717D01*
X25986Y-37718D01*
X25986Y-37718D01*
G37*
G36*
X26820Y-6970D02*
X26819Y-7038D01*
X26804Y-7102D01*
X26780Y-7157D01*
X26742Y-7211D01*
X26699Y-7252D01*
X26643Y-7287D01*
X26587Y-7309D01*
X26523Y-7320D01*
X26463Y-7319D01*
X26399Y-7305D01*
X26344Y-7281D01*
X26290Y-7243D01*
X26248Y-7201D01*
X26213Y-7145D01*
X26191Y-7090D01*
X26179Y-7025D01*
X26180Y-6965D01*
X26193Y-6901D01*
X26217Y-6846D01*
X26254Y-6791D01*
X26297Y-6750D01*
X26352Y-6714D01*
X26407Y-6691D01*
X26472Y-6679D01*
X26531Y-6679D01*
X26596Y-6693D01*
X26651Y-6716D01*
X26706Y-6753D01*
X26748Y-6795D01*
X26784Y-6850D01*
X26807Y-6905D01*
X26820Y-6970D01*
X26820Y-6970D01*
G37*
G36*
X26820Y-7970D02*
X26819Y-8038D01*
X26804Y-8102D01*
X26780Y-8157D01*
X26742Y-8211D01*
X26699Y-8252D01*
X26643Y-8287D01*
X26587Y-8309D01*
X26523Y-8320D01*
X26463Y-8319D01*
X26399Y-8305D01*
X26344Y-8281D01*
X26290Y-8243D01*
X26248Y-8201D01*
X26213Y-8145D01*
X26191Y-8090D01*
X26179Y-8025D01*
X26180Y-7965D01*
X26193Y-7901D01*
X26217Y-7846D01*
X26254Y-7791D01*
X26297Y-7750D01*
X26352Y-7714D01*
X26407Y-7691D01*
X26472Y-7679D01*
X26531Y-7679D01*
X26596Y-7693D01*
X26651Y-7716D01*
X26706Y-7753D01*
X26748Y-7795D01*
X26784Y-7850D01*
X26807Y-7905D01*
X26820Y-7970D01*
X26820Y-7970D01*
G37*
G36*
X27870Y-38025D02*
X27867Y-38195D01*
X27833Y-38345D01*
X27773Y-38480D01*
X27684Y-38606D01*
X27577Y-38708D01*
X27447Y-38791D01*
X27309Y-38844D01*
X27157Y-38871D01*
X27009Y-38868D01*
X26859Y-38835D01*
X26723Y-38776D01*
X26597Y-38688D01*
X26494Y-38581D01*
X26410Y-38452D01*
X26356Y-38314D01*
X26328Y-38163D01*
X26330Y-38015D01*
X26362Y-37864D01*
X26420Y-37728D01*
X26508Y-37601D01*
X26613Y-37497D01*
X26743Y-37413D01*
X26879Y-37358D01*
X27031Y-37329D01*
X27179Y-37330D01*
X27330Y-37361D01*
X27466Y-37418D01*
X27594Y-37504D01*
X27698Y-37609D01*
X27784Y-37738D01*
X27840Y-37874D01*
X27870Y-38025D01*
X27870Y-38025D01*
G37*
G36*
X28820Y-6970D02*
X28819Y-7038D01*
X28804Y-7102D01*
X28780Y-7157D01*
X28742Y-7211D01*
X28699Y-7252D01*
X28643Y-7287D01*
X28587Y-7309D01*
X28523Y-7320D01*
X28463Y-7319D01*
X28399Y-7305D01*
X28344Y-7281D01*
X28290Y-7243D01*
X28248Y-7201D01*
X28213Y-7145D01*
X28191Y-7090D01*
X28179Y-7025D01*
X28180Y-6965D01*
X28193Y-6901D01*
X28217Y-6846D01*
X28254Y-6791D01*
X28297Y-6750D01*
X28352Y-6714D01*
X28407Y-6691D01*
X28472Y-6679D01*
X28531Y-6679D01*
X28596Y-6693D01*
X28651Y-6716D01*
X28706Y-6753D01*
X28748Y-6795D01*
X28784Y-6850D01*
X28807Y-6905D01*
X28820Y-6970D01*
X28820Y-6970D01*
G37*
G36*
X28820Y-8320D02*
X28179Y-8320D01*
X28179Y-7679D01*
X28820Y-7679D01*
X28820Y-8320D01*
X28820Y-8320D01*
G37*
G36*
X29820Y-6970D02*
X29819Y-7038D01*
X29804Y-7102D01*
X29780Y-7157D01*
X29742Y-7211D01*
X29699Y-7252D01*
X29643Y-7287D01*
X29587Y-7309D01*
X29523Y-7320D01*
X29463Y-7319D01*
X29399Y-7305D01*
X29344Y-7281D01*
X29290Y-7243D01*
X29248Y-7201D01*
X29213Y-7145D01*
X29191Y-7090D01*
X29179Y-7025D01*
X29180Y-6965D01*
X29193Y-6901D01*
X29217Y-6846D01*
X29254Y-6791D01*
X29297Y-6750D01*
X29352Y-6714D01*
X29407Y-6691D01*
X29472Y-6679D01*
X29531Y-6679D01*
X29596Y-6693D01*
X29651Y-6716D01*
X29706Y-6753D01*
X29748Y-6795D01*
X29784Y-6850D01*
X29807Y-6905D01*
X29820Y-6970D01*
X29820Y-6970D01*
G37*
G36*
X29820Y-7970D02*
X29819Y-8038D01*
X29804Y-8102D01*
X29780Y-8157D01*
X29742Y-8211D01*
X29699Y-8252D01*
X29643Y-8287D01*
X29587Y-8309D01*
X29523Y-8320D01*
X29463Y-8319D01*
X29399Y-8305D01*
X29344Y-8281D01*
X29290Y-8243D01*
X29248Y-8201D01*
X29213Y-8145D01*
X29191Y-8090D01*
X29179Y-8025D01*
X29180Y-7965D01*
X29193Y-7901D01*
X29217Y-7846D01*
X29254Y-7791D01*
X29297Y-7750D01*
X29352Y-7714D01*
X29407Y-7691D01*
X29472Y-7679D01*
X29531Y-7679D01*
X29596Y-7693D01*
X29651Y-7716D01*
X29706Y-7753D01*
X29748Y-7795D01*
X29784Y-7850D01*
X29807Y-7905D01*
X29820Y-7970D01*
X29820Y-7970D01*
G37*
G36*
X30170Y-37520D02*
X30169Y-37588D01*
X30154Y-37652D01*
X30130Y-37707D01*
X30092Y-37761D01*
X30049Y-37802D01*
X29993Y-37837D01*
X29937Y-37859D01*
X29873Y-37870D01*
X29813Y-37869D01*
X29749Y-37855D01*
X29694Y-37831D01*
X29640Y-37793D01*
X29598Y-37751D01*
X29563Y-37695D01*
X29541Y-37640D01*
X29529Y-37575D01*
X29530Y-37515D01*
X29543Y-37451D01*
X29567Y-37396D01*
X29604Y-37341D01*
X29647Y-37300D01*
X29702Y-37264D01*
X29757Y-37241D01*
X29822Y-37229D01*
X29881Y-37229D01*
X29946Y-37243D01*
X30001Y-37266D01*
X30056Y-37303D01*
X30098Y-37345D01*
X30134Y-37400D01*
X30157Y-37455D01*
X30170Y-37520D01*
X30170Y-37520D01*
G37*
G36*
X30720Y-38620D02*
X30719Y-38688D01*
X30704Y-38752D01*
X30680Y-38807D01*
X30642Y-38861D01*
X30599Y-38902D01*
X30543Y-38937D01*
X30487Y-38959D01*
X30423Y-38970D01*
X30363Y-38969D01*
X30299Y-38955D01*
X30244Y-38931D01*
X30190Y-38893D01*
X30148Y-38851D01*
X30113Y-38795D01*
X30091Y-38740D01*
X30079Y-38675D01*
X30080Y-38615D01*
X30093Y-38551D01*
X30117Y-38496D01*
X30154Y-38441D01*
X30197Y-38400D01*
X30252Y-38364D01*
X30307Y-38341D01*
X30372Y-38329D01*
X30431Y-38329D01*
X30496Y-38343D01*
X30551Y-38366D01*
X30606Y-38403D01*
X30648Y-38445D01*
X30684Y-38500D01*
X30707Y-38555D01*
X30720Y-38620D01*
X30720Y-38620D01*
G37*
G36*
X30820Y-6970D02*
X30819Y-7038D01*
X30804Y-7102D01*
X30780Y-7157D01*
X30742Y-7211D01*
X30699Y-7252D01*
X30643Y-7287D01*
X30587Y-7309D01*
X30523Y-7320D01*
X30463Y-7319D01*
X30399Y-7305D01*
X30344Y-7281D01*
X30290Y-7243D01*
X30248Y-7201D01*
X30213Y-7145D01*
X30191Y-7090D01*
X30179Y-7025D01*
X30180Y-6965D01*
X30193Y-6901D01*
X30217Y-6846D01*
X30254Y-6791D01*
X30297Y-6750D01*
X30352Y-6714D01*
X30407Y-6691D01*
X30472Y-6679D01*
X30531Y-6679D01*
X30596Y-6693D01*
X30651Y-6716D01*
X30706Y-6753D01*
X30748Y-6795D01*
X30784Y-6850D01*
X30807Y-6905D01*
X30820Y-6970D01*
X30820Y-6970D01*
G37*
G36*
X30820Y-7970D02*
X30819Y-8038D01*
X30804Y-8102D01*
X30780Y-8157D01*
X30742Y-8211D01*
X30699Y-8252D01*
X30643Y-8287D01*
X30587Y-8309D01*
X30523Y-8320D01*
X30463Y-8319D01*
X30399Y-8305D01*
X30344Y-8281D01*
X30290Y-8243D01*
X30248Y-8201D01*
X30213Y-8145D01*
X30191Y-8090D01*
X30179Y-8025D01*
X30180Y-7965D01*
X30193Y-7901D01*
X30217Y-7846D01*
X30254Y-7791D01*
X30297Y-7750D01*
X30352Y-7714D01*
X30407Y-7691D01*
X30472Y-7679D01*
X30531Y-7679D01*
X30596Y-7693D01*
X30651Y-7716D01*
X30706Y-7753D01*
X30748Y-7795D01*
X30784Y-7850D01*
X30807Y-7905D01*
X30820Y-7970D01*
X30820Y-7970D01*
G37*
G36*
X31270Y-37520D02*
X31269Y-37588D01*
X31254Y-37652D01*
X31230Y-37707D01*
X31192Y-37761D01*
X31149Y-37802D01*
X31093Y-37837D01*
X31037Y-37859D01*
X30973Y-37870D01*
X30913Y-37869D01*
X30849Y-37855D01*
X30794Y-37831D01*
X30740Y-37793D01*
X30698Y-37751D01*
X30663Y-37695D01*
X30641Y-37640D01*
X30629Y-37575D01*
X30630Y-37515D01*
X30643Y-37451D01*
X30667Y-37396D01*
X30704Y-37341D01*
X30747Y-37300D01*
X30802Y-37264D01*
X30857Y-37241D01*
X30922Y-37229D01*
X30981Y-37229D01*
X31046Y-37243D01*
X31101Y-37266D01*
X31156Y-37303D01*
X31198Y-37345D01*
X31234Y-37400D01*
X31257Y-37455D01*
X31270Y-37520D01*
X31270Y-37520D01*
G37*
G36*
X31820Y-6970D02*
X31819Y-7038D01*
X31804Y-7102D01*
X31780Y-7157D01*
X31742Y-7211D01*
X31699Y-7252D01*
X31643Y-7287D01*
X31587Y-7309D01*
X31523Y-7320D01*
X31463Y-7319D01*
X31399Y-7305D01*
X31344Y-7281D01*
X31290Y-7243D01*
X31248Y-7201D01*
X31213Y-7145D01*
X31191Y-7090D01*
X31179Y-7025D01*
X31180Y-6965D01*
X31193Y-6901D01*
X31217Y-6846D01*
X31254Y-6791D01*
X31297Y-6750D01*
X31352Y-6714D01*
X31407Y-6691D01*
X31472Y-6679D01*
X31531Y-6679D01*
X31596Y-6693D01*
X31651Y-6716D01*
X31706Y-6753D01*
X31748Y-6795D01*
X31784Y-6850D01*
X31807Y-6905D01*
X31820Y-6970D01*
X31820Y-6970D01*
G37*
G36*
X31820Y-7970D02*
X31819Y-8038D01*
X31804Y-8102D01*
X31780Y-8157D01*
X31742Y-8211D01*
X31699Y-8252D01*
X31643Y-8287D01*
X31587Y-8309D01*
X31523Y-8320D01*
X31463Y-8319D01*
X31399Y-8305D01*
X31344Y-8281D01*
X31290Y-8243D01*
X31248Y-8201D01*
X31213Y-8145D01*
X31191Y-8090D01*
X31179Y-8025D01*
X31180Y-7965D01*
X31193Y-7901D01*
X31217Y-7846D01*
X31254Y-7791D01*
X31297Y-7750D01*
X31352Y-7714D01*
X31407Y-7691D01*
X31472Y-7679D01*
X31531Y-7679D01*
X31596Y-7693D01*
X31651Y-7716D01*
X31706Y-7753D01*
X31748Y-7795D01*
X31784Y-7850D01*
X31807Y-7905D01*
X31820Y-7970D01*
X31820Y-7970D01*
G37*
G36*
X31820Y-38620D02*
X31819Y-38688D01*
X31804Y-38752D01*
X31780Y-38807D01*
X31742Y-38861D01*
X31699Y-38902D01*
X31643Y-38937D01*
X31587Y-38959D01*
X31523Y-38970D01*
X31463Y-38969D01*
X31399Y-38955D01*
X31344Y-38931D01*
X31290Y-38893D01*
X31248Y-38851D01*
X31213Y-38795D01*
X31191Y-38740D01*
X31179Y-38675D01*
X31180Y-38615D01*
X31193Y-38551D01*
X31217Y-38496D01*
X31254Y-38441D01*
X31297Y-38400D01*
X31352Y-38364D01*
X31407Y-38341D01*
X31472Y-38329D01*
X31531Y-38329D01*
X31596Y-38343D01*
X31651Y-38366D01*
X31706Y-38403D01*
X31748Y-38445D01*
X31784Y-38500D01*
X31807Y-38555D01*
X31820Y-38620D01*
X31820Y-38620D01*
G37*
G36*
X32320Y-37520D02*
X32319Y-37588D01*
X32304Y-37652D01*
X32280Y-37707D01*
X32242Y-37761D01*
X32199Y-37802D01*
X32143Y-37837D01*
X32087Y-37859D01*
X32023Y-37870D01*
X31963Y-37869D01*
X31899Y-37855D01*
X31844Y-37831D01*
X31790Y-37793D01*
X31748Y-37751D01*
X31713Y-37695D01*
X31691Y-37640D01*
X31679Y-37575D01*
X31680Y-37515D01*
X31693Y-37451D01*
X31717Y-37396D01*
X31754Y-37341D01*
X31797Y-37300D01*
X31852Y-37264D01*
X31907Y-37241D01*
X31972Y-37229D01*
X32031Y-37229D01*
X32096Y-37243D01*
X32151Y-37266D01*
X32206Y-37303D01*
X32248Y-37345D01*
X32284Y-37400D01*
X32307Y-37455D01*
X32320Y-37520D01*
X32320Y-37520D01*
G37*
G36*
X32820Y-6970D02*
X32819Y-7038D01*
X32804Y-7102D01*
X32780Y-7157D01*
X32742Y-7211D01*
X32699Y-7252D01*
X32643Y-7287D01*
X32587Y-7309D01*
X32523Y-7320D01*
X32463Y-7319D01*
X32399Y-7305D01*
X32344Y-7281D01*
X32290Y-7243D01*
X32248Y-7201D01*
X32213Y-7145D01*
X32191Y-7090D01*
X32179Y-7025D01*
X32180Y-6965D01*
X32193Y-6901D01*
X32217Y-6846D01*
X32254Y-6791D01*
X32297Y-6750D01*
X32352Y-6714D01*
X32407Y-6691D01*
X32472Y-6679D01*
X32531Y-6679D01*
X32596Y-6693D01*
X32651Y-6716D01*
X32706Y-6753D01*
X32748Y-6795D01*
X32784Y-6850D01*
X32807Y-6905D01*
X32820Y-6970D01*
X32820Y-6970D01*
G37*
G36*
X32820Y-7970D02*
X32819Y-8038D01*
X32804Y-8102D01*
X32780Y-8157D01*
X32742Y-8211D01*
X32699Y-8252D01*
X32643Y-8287D01*
X32587Y-8309D01*
X32523Y-8320D01*
X32463Y-8319D01*
X32399Y-8305D01*
X32344Y-8281D01*
X32290Y-8243D01*
X32248Y-8201D01*
X32213Y-8145D01*
X32191Y-8090D01*
X32179Y-8025D01*
X32180Y-7965D01*
X32193Y-7901D01*
X32217Y-7846D01*
X32254Y-7791D01*
X32297Y-7750D01*
X32352Y-7714D01*
X32407Y-7691D01*
X32472Y-7679D01*
X32531Y-7679D01*
X32596Y-7693D01*
X32651Y-7716D01*
X32706Y-7753D01*
X32748Y-7795D01*
X32784Y-7850D01*
X32807Y-7905D01*
X32820Y-7970D01*
X32820Y-7970D01*
G37*
G36*
X32870Y-38620D02*
X32869Y-38688D01*
X32854Y-38752D01*
X32830Y-38807D01*
X32792Y-38861D01*
X32749Y-38902D01*
X32693Y-38937D01*
X32637Y-38959D01*
X32573Y-38970D01*
X32513Y-38969D01*
X32449Y-38955D01*
X32394Y-38931D01*
X32340Y-38893D01*
X32298Y-38851D01*
X32263Y-38795D01*
X32241Y-38740D01*
X32229Y-38675D01*
X32230Y-38615D01*
X32243Y-38551D01*
X32267Y-38496D01*
X32304Y-38441D01*
X32347Y-38400D01*
X32402Y-38364D01*
X32457Y-38341D01*
X32522Y-38329D01*
X32581Y-38329D01*
X32646Y-38343D01*
X32701Y-38366D01*
X32756Y-38403D01*
X32798Y-38445D01*
X32834Y-38500D01*
X32857Y-38555D01*
X32870Y-38620D01*
X32870Y-38620D01*
G37*
G36*
X33420Y-37520D02*
X33419Y-37588D01*
X33404Y-37652D01*
X33380Y-37707D01*
X33342Y-37761D01*
X33299Y-37802D01*
X33243Y-37837D01*
X33187Y-37859D01*
X33123Y-37870D01*
X33063Y-37869D01*
X32999Y-37855D01*
X32944Y-37831D01*
X32890Y-37793D01*
X32848Y-37751D01*
X32813Y-37695D01*
X32791Y-37640D01*
X32779Y-37575D01*
X32780Y-37515D01*
X32793Y-37451D01*
X32817Y-37396D01*
X32854Y-37341D01*
X32897Y-37300D01*
X32952Y-37264D01*
X33007Y-37241D01*
X33072Y-37229D01*
X33131Y-37229D01*
X33196Y-37243D01*
X33251Y-37266D01*
X33306Y-37303D01*
X33348Y-37345D01*
X33384Y-37400D01*
X33407Y-37455D01*
X33420Y-37520D01*
X33420Y-37520D01*
G37*
G36*
X33820Y-6970D02*
X33819Y-7038D01*
X33804Y-7102D01*
X33780Y-7157D01*
X33742Y-7211D01*
X33699Y-7252D01*
X33643Y-7287D01*
X33587Y-7309D01*
X33523Y-7320D01*
X33463Y-7319D01*
X33399Y-7305D01*
X33344Y-7281D01*
X33290Y-7243D01*
X33248Y-7201D01*
X33213Y-7145D01*
X33191Y-7090D01*
X33179Y-7025D01*
X33180Y-6965D01*
X33193Y-6901D01*
X33217Y-6846D01*
X33254Y-6791D01*
X33297Y-6750D01*
X33352Y-6714D01*
X33407Y-6691D01*
X33472Y-6679D01*
X33531Y-6679D01*
X33596Y-6693D01*
X33651Y-6716D01*
X33706Y-6753D01*
X33748Y-6795D01*
X33784Y-6850D01*
X33807Y-6905D01*
X33820Y-6970D01*
X33820Y-6970D01*
G37*
G36*
X33820Y-7970D02*
X33819Y-8038D01*
X33804Y-8102D01*
X33780Y-8157D01*
X33742Y-8211D01*
X33699Y-8252D01*
X33643Y-8287D01*
X33587Y-8309D01*
X33523Y-8320D01*
X33463Y-8319D01*
X33399Y-8305D01*
X33344Y-8281D01*
X33290Y-8243D01*
X33248Y-8201D01*
X33213Y-8145D01*
X33191Y-8090D01*
X33179Y-8025D01*
X33180Y-7965D01*
X33193Y-7901D01*
X33217Y-7846D01*
X33254Y-7791D01*
X33297Y-7750D01*
X33352Y-7714D01*
X33407Y-7691D01*
X33472Y-7679D01*
X33531Y-7679D01*
X33596Y-7693D01*
X33651Y-7716D01*
X33706Y-7753D01*
X33748Y-7795D01*
X33784Y-7850D01*
X33807Y-7905D01*
X33820Y-7970D01*
X33820Y-7970D01*
G37*
G36*
X33970Y-38620D02*
X33969Y-38688D01*
X33954Y-38752D01*
X33930Y-38807D01*
X33892Y-38861D01*
X33849Y-38902D01*
X33793Y-38937D01*
X33737Y-38959D01*
X33673Y-38970D01*
X33613Y-38969D01*
X33549Y-38955D01*
X33494Y-38931D01*
X33440Y-38893D01*
X33398Y-38851D01*
X33363Y-38795D01*
X33341Y-38740D01*
X33329Y-38675D01*
X33330Y-38615D01*
X33343Y-38551D01*
X33367Y-38496D01*
X33404Y-38441D01*
X33447Y-38400D01*
X33502Y-38364D01*
X33557Y-38341D01*
X33622Y-38329D01*
X33681Y-38329D01*
X33746Y-38343D01*
X33801Y-38366D01*
X33856Y-38403D01*
X33898Y-38445D01*
X33934Y-38500D01*
X33957Y-38555D01*
X33970Y-38620D01*
X33970Y-38620D01*
G37*
G36*
X34470Y-37870D02*
X33829Y-37870D01*
X33829Y-37229D01*
X34470Y-37229D01*
X34470Y-37870D01*
X34470Y-37870D01*
G37*
G36*
X34820Y-6970D02*
X34819Y-7038D01*
X34804Y-7102D01*
X34780Y-7157D01*
X34742Y-7211D01*
X34699Y-7252D01*
X34643Y-7287D01*
X34587Y-7309D01*
X34523Y-7320D01*
X34463Y-7319D01*
X34399Y-7305D01*
X34344Y-7281D01*
X34290Y-7243D01*
X34248Y-7201D01*
X34213Y-7145D01*
X34191Y-7090D01*
X34179Y-7025D01*
X34180Y-6965D01*
X34193Y-6901D01*
X34217Y-6846D01*
X34254Y-6791D01*
X34297Y-6750D01*
X34352Y-6714D01*
X34407Y-6691D01*
X34472Y-6679D01*
X34531Y-6679D01*
X34596Y-6693D01*
X34651Y-6716D01*
X34706Y-6753D01*
X34748Y-6795D01*
X34784Y-6850D01*
X34807Y-6905D01*
X34820Y-6970D01*
X34820Y-6970D01*
G37*
G36*
X34820Y-7970D02*
X34819Y-8038D01*
X34804Y-8102D01*
X34780Y-8157D01*
X34742Y-8211D01*
X34699Y-8252D01*
X34643Y-8287D01*
X34587Y-8309D01*
X34523Y-8320D01*
X34463Y-8319D01*
X34399Y-8305D01*
X34344Y-8281D01*
X34290Y-8243D01*
X34248Y-8201D01*
X34213Y-8145D01*
X34191Y-8090D01*
X34179Y-8025D01*
X34180Y-7965D01*
X34193Y-7901D01*
X34217Y-7846D01*
X34254Y-7791D01*
X34297Y-7750D01*
X34352Y-7714D01*
X34407Y-7691D01*
X34472Y-7679D01*
X34531Y-7679D01*
X34596Y-7693D01*
X34651Y-7716D01*
X34706Y-7753D01*
X34748Y-7795D01*
X34784Y-7850D01*
X34807Y-7905D01*
X34820Y-7970D01*
X34820Y-7970D01*
G37*
G36*
X35820Y-6970D02*
X35819Y-7038D01*
X35804Y-7102D01*
X35780Y-7157D01*
X35742Y-7211D01*
X35699Y-7252D01*
X35643Y-7287D01*
X35587Y-7309D01*
X35523Y-7320D01*
X35463Y-7319D01*
X35399Y-7305D01*
X35344Y-7281D01*
X35290Y-7243D01*
X35248Y-7201D01*
X35213Y-7145D01*
X35191Y-7090D01*
X35179Y-7025D01*
X35180Y-6965D01*
X35193Y-6901D01*
X35217Y-6846D01*
X35254Y-6791D01*
X35297Y-6750D01*
X35352Y-6714D01*
X35407Y-6691D01*
X35472Y-6679D01*
X35531Y-6679D01*
X35596Y-6693D01*
X35651Y-6716D01*
X35706Y-6753D01*
X35748Y-6795D01*
X35784Y-6850D01*
X35807Y-6905D01*
X35820Y-6970D01*
X35820Y-6970D01*
G37*
G36*
X35820Y-7970D02*
X35819Y-8038D01*
X35804Y-8102D01*
X35780Y-8157D01*
X35742Y-8211D01*
X35699Y-8252D01*
X35643Y-8287D01*
X35587Y-8309D01*
X35523Y-8320D01*
X35463Y-8319D01*
X35399Y-8305D01*
X35344Y-8281D01*
X35290Y-8243D01*
X35248Y-8201D01*
X35213Y-8145D01*
X35191Y-8090D01*
X35179Y-8025D01*
X35180Y-7965D01*
X35193Y-7901D01*
X35217Y-7846D01*
X35254Y-7791D01*
X35297Y-7750D01*
X35352Y-7714D01*
X35407Y-7691D01*
X35472Y-7679D01*
X35531Y-7679D01*
X35596Y-7693D01*
X35651Y-7716D01*
X35706Y-7753D01*
X35748Y-7795D01*
X35784Y-7850D01*
X35807Y-7905D01*
X35820Y-7970D01*
X35820Y-7970D01*
G37*
G36*
X37695Y-7072D02*
X37694Y-7135D01*
X37680Y-7194D01*
X37658Y-7245D01*
X37623Y-7294D01*
X37583Y-7332D01*
X37532Y-7365D01*
X37481Y-7385D01*
X37421Y-7395D01*
X37366Y-7394D01*
X37306Y-7381D01*
X37256Y-7359D01*
X37206Y-7324D01*
X37168Y-7285D01*
X37135Y-7234D01*
X37115Y-7183D01*
X37104Y-7123D01*
X37105Y-7068D01*
X37117Y-7008D01*
X37139Y-6958D01*
X37173Y-6908D01*
X37212Y-6869D01*
X37264Y-6836D01*
X37314Y-6815D01*
X37374Y-6804D01*
X37429Y-6804D01*
X37489Y-6817D01*
X37539Y-6838D01*
X37590Y-6872D01*
X37628Y-6911D01*
X37662Y-6962D01*
X37683Y-7012D01*
X37683Y-7014D01*
X37695Y-7071D01*
X37695Y-7072D01*
X37695Y-7072D01*
G37*
G36*
X37695Y-8072D02*
X37694Y-8135D01*
X37680Y-8194D01*
X37658Y-8245D01*
X37623Y-8294D01*
X37583Y-8332D01*
X37532Y-8365D01*
X37481Y-8385D01*
X37421Y-8395D01*
X37366Y-8394D01*
X37306Y-8381D01*
X37256Y-8359D01*
X37206Y-8324D01*
X37168Y-8285D01*
X37135Y-8234D01*
X37115Y-8183D01*
X37104Y-8123D01*
X37105Y-8068D01*
X37117Y-8008D01*
X37139Y-7958D01*
X37173Y-7908D01*
X37212Y-7869D01*
X37264Y-7836D01*
X37314Y-7815D01*
X37374Y-7804D01*
X37429Y-7804D01*
X37489Y-7817D01*
X37539Y-7838D01*
X37590Y-7872D01*
X37628Y-7911D01*
X37662Y-7962D01*
X37683Y-8012D01*
X37683Y-8014D01*
X37695Y-8071D01*
X37695Y-8072D01*
X37695Y-8072D01*
G37*
G36*
X37695Y-35072D02*
X37694Y-35135D01*
X37680Y-35194D01*
X37658Y-35245D01*
X37623Y-35294D01*
X37583Y-35332D01*
X37532Y-35365D01*
X37481Y-35385D01*
X37421Y-35395D01*
X37366Y-35394D01*
X37306Y-35381D01*
X37256Y-35359D01*
X37206Y-35324D01*
X37168Y-35285D01*
X37135Y-35234D01*
X37115Y-35183D01*
X37104Y-35123D01*
X37105Y-35068D01*
X37117Y-35008D01*
X37139Y-34958D01*
X37173Y-34908D01*
X37212Y-34869D01*
X37264Y-34836D01*
X37314Y-34815D01*
X37374Y-34804D01*
X37429Y-34804D01*
X37489Y-34817D01*
X37539Y-34838D01*
X37590Y-34872D01*
X37628Y-34911D01*
X37662Y-34962D01*
X37683Y-35012D01*
X37683Y-35014D01*
X37695Y-35071D01*
X37695Y-35072D01*
X37695Y-35072D01*
G37*
G36*
X37695Y-36395D02*
X37104Y-36395D01*
X37104Y-35804D01*
X37695Y-35804D01*
X37695Y-36395D01*
X37695Y-36395D01*
G37*
G36*
X37720Y-38025D02*
X37717Y-38195D01*
X37683Y-38345D01*
X37623Y-38480D01*
X37534Y-38606D01*
X37427Y-38708D01*
X37297Y-38791D01*
X37159Y-38844D01*
X37007Y-38871D01*
X36859Y-38868D01*
X36709Y-38835D01*
X36573Y-38776D01*
X36447Y-38688D01*
X36344Y-38581D01*
X36260Y-38452D01*
X36206Y-38314D01*
X36178Y-38163D01*
X36180Y-38015D01*
X36212Y-37864D01*
X36270Y-37728D01*
X36358Y-37601D01*
X36463Y-37497D01*
X36593Y-37413D01*
X36729Y-37358D01*
X36881Y-37329D01*
X37029Y-37330D01*
X37180Y-37361D01*
X37316Y-37418D01*
X37444Y-37504D01*
X37548Y-37609D01*
X37634Y-37738D01*
X37690Y-37874D01*
X37720Y-38025D01*
X37720Y-38025D01*
G37*
G36*
X39040Y-29721D02*
X39037Y-29901D01*
X39001Y-30061D01*
X38937Y-30205D01*
X38842Y-30339D01*
X38728Y-30448D01*
X38590Y-30536D01*
X38443Y-30593D01*
X38281Y-30621D01*
X38123Y-30618D01*
X37963Y-30583D01*
X37819Y-30520D01*
X37684Y-30426D01*
X37575Y-30313D01*
X37486Y-30175D01*
X37428Y-30028D01*
X37398Y-29867D01*
X37400Y-29709D01*
X37434Y-29549D01*
X37496Y-29404D01*
X37589Y-29268D01*
X37702Y-29158D01*
X37839Y-29068D01*
X37985Y-29009D01*
X38147Y-28979D01*
X38304Y-28980D01*
X38465Y-29013D01*
X38610Y-29074D01*
X38746Y-29166D01*
X38857Y-29277D01*
X38948Y-29414D01*
X39008Y-29559D01*
X39040Y-29721D01*
X39040Y-29721D01*
G37*
G36*
X39921Y-7060D02*
X39920Y-7151D01*
X39901Y-7235D01*
X39869Y-7308D01*
X39819Y-7377D01*
X39762Y-7432D01*
X39689Y-7478D01*
X39615Y-7507D01*
X39530Y-7522D01*
X39451Y-7520D01*
X39367Y-7502D01*
X39294Y-7470D01*
X39224Y-7421D01*
X39168Y-7364D01*
X39122Y-7292D01*
X39093Y-7218D01*
X39077Y-7133D01*
X39078Y-7054D01*
X39096Y-6970D01*
X39127Y-6897D01*
X39176Y-6826D01*
X39233Y-6770D01*
X39305Y-6723D01*
X39378Y-6694D01*
X39463Y-6677D01*
X39542Y-6678D01*
X39627Y-6695D01*
X39699Y-6726D01*
X39771Y-6774D01*
X39827Y-6830D01*
X39875Y-6902D01*
X39905Y-6975D01*
X39921Y-7060D01*
X39921Y-7060D01*
G37*
G36*
X40921Y-6060D02*
X40920Y-6151D01*
X40901Y-6235D01*
X40869Y-6308D01*
X40819Y-6377D01*
X40762Y-6432D01*
X40689Y-6478D01*
X40615Y-6507D01*
X40530Y-6522D01*
X40451Y-6520D01*
X40367Y-6502D01*
X40294Y-6470D01*
X40224Y-6421D01*
X40168Y-6364D01*
X40122Y-6292D01*
X40093Y-6218D01*
X40077Y-6133D01*
X40078Y-6054D01*
X40096Y-5970D01*
X40127Y-5897D01*
X40176Y-5826D01*
X40233Y-5770D01*
X40305Y-5723D01*
X40378Y-5694D01*
X40463Y-5677D01*
X40542Y-5678D01*
X40627Y-5695D01*
X40699Y-5726D01*
X40771Y-5774D01*
X40827Y-5830D01*
X40875Y-5902D01*
X40905Y-5975D01*
X40921Y-6060D01*
X40921Y-6060D01*
G37*
G36*
X41170Y-11265D02*
X41169Y-11345D01*
X41152Y-11418D01*
X41124Y-11482D01*
X41080Y-11544D01*
X41030Y-11592D01*
X40966Y-11632D01*
X40901Y-11657D01*
X40826Y-11670D01*
X40757Y-11669D01*
X40683Y-11653D01*
X40619Y-11625D01*
X40557Y-11582D01*
X40509Y-11532D01*
X40468Y-11468D01*
X40442Y-11404D01*
X40429Y-11329D01*
X40430Y-11260D01*
X40445Y-11185D01*
X40473Y-11122D01*
X40516Y-11059D01*
X40565Y-11011D01*
X40629Y-10969D01*
X40693Y-10943D01*
X40768Y-10929D01*
X40837Y-10929D01*
X40911Y-10945D01*
X40975Y-10971D01*
X41038Y-11014D01*
X41087Y-11063D01*
X41129Y-11127D01*
X41155Y-11190D01*
X41170Y-11265D01*
X41170Y-11265D01*
G37*
G36*
X41170Y-15765D02*
X41169Y-15845D01*
X41152Y-15918D01*
X41124Y-15982D01*
X41080Y-16044D01*
X41030Y-16092D01*
X40966Y-16132D01*
X40901Y-16157D01*
X40826Y-16170D01*
X40757Y-16169D01*
X40683Y-16153D01*
X40619Y-16125D01*
X40557Y-16082D01*
X40509Y-16032D01*
X40468Y-15968D01*
X40442Y-15904D01*
X40429Y-15829D01*
X40430Y-15760D01*
X40445Y-15685D01*
X40473Y-15622D01*
X40516Y-15559D01*
X40565Y-15511D01*
X40629Y-15469D01*
X40693Y-15443D01*
X40768Y-15429D01*
X40837Y-15429D01*
X40911Y-15445D01*
X40975Y-15471D01*
X41038Y-15514D01*
X41087Y-15563D01*
X41129Y-15627D01*
X41155Y-15690D01*
X41170Y-15765D01*
X41170Y-15765D01*
G37*
G36*
X41170Y-20265D02*
X41169Y-20345D01*
X41152Y-20418D01*
X41124Y-20482D01*
X41080Y-20544D01*
X41030Y-20592D01*
X40966Y-20632D01*
X40901Y-20657D01*
X40826Y-20670D01*
X40757Y-20669D01*
X40683Y-20653D01*
X40619Y-20625D01*
X40557Y-20582D01*
X40509Y-20532D01*
X40468Y-20468D01*
X40442Y-20404D01*
X40429Y-20329D01*
X40430Y-20260D01*
X40445Y-20185D01*
X40473Y-20122D01*
X40516Y-20059D01*
X40565Y-20011D01*
X40629Y-19969D01*
X40693Y-19943D01*
X40768Y-19929D01*
X40837Y-19929D01*
X40911Y-19945D01*
X40975Y-19971D01*
X41038Y-20014D01*
X41087Y-20063D01*
X41129Y-20127D01*
X41155Y-20190D01*
X41170Y-20265D01*
X41170Y-20265D01*
G37*
G36*
X41170Y-24765D02*
X41169Y-24845D01*
X41152Y-24918D01*
X41124Y-24982D01*
X41080Y-25044D01*
X41030Y-25092D01*
X40966Y-25132D01*
X40901Y-25157D01*
X40826Y-25170D01*
X40757Y-25169D01*
X40683Y-25153D01*
X40619Y-25125D01*
X40557Y-25082D01*
X40509Y-25032D01*
X40468Y-24968D01*
X40442Y-24904D01*
X40429Y-24829D01*
X40430Y-24760D01*
X40445Y-24685D01*
X40473Y-24622D01*
X40516Y-24559D01*
X40565Y-24511D01*
X40629Y-24469D01*
X40693Y-24443D01*
X40768Y-24429D01*
X40837Y-24429D01*
X40911Y-24445D01*
X40975Y-24471D01*
X41038Y-24514D01*
X41087Y-24563D01*
X41129Y-24627D01*
X41155Y-24690D01*
X41170Y-24765D01*
X41170Y-24765D01*
G37*
G36*
X41170Y-33765D02*
X41169Y-33845D01*
X41152Y-33918D01*
X41124Y-33982D01*
X41080Y-34044D01*
X41030Y-34092D01*
X40966Y-34132D01*
X40901Y-34157D01*
X40826Y-34170D01*
X40757Y-34169D01*
X40683Y-34153D01*
X40619Y-34125D01*
X40557Y-34082D01*
X40509Y-34032D01*
X40468Y-33968D01*
X40442Y-33904D01*
X40429Y-33829D01*
X40430Y-33760D01*
X40445Y-33685D01*
X40473Y-33622D01*
X40516Y-33559D01*
X40565Y-33511D01*
X40629Y-33469D01*
X40693Y-33443D01*
X40768Y-33429D01*
X40837Y-33429D01*
X40911Y-33445D01*
X40975Y-33471D01*
X41038Y-33514D01*
X41087Y-33563D01*
X41129Y-33627D01*
X41155Y-33690D01*
X41170Y-33765D01*
X41170Y-33765D01*
G37*
G36*
X41170Y-9670D02*
X40429Y-9670D01*
X40429Y-8929D01*
X41170Y-8929D01*
X41170Y-9670D01*
X41170Y-9670D01*
G37*
G36*
X41170Y-14170D02*
X40429Y-14170D01*
X40429Y-13429D01*
X41170Y-13429D01*
X41170Y-14170D01*
X41170Y-14170D01*
G37*
G36*
X41170Y-18670D02*
X40429Y-18670D01*
X40429Y-17929D01*
X41170Y-17929D01*
X41170Y-18670D01*
X41170Y-18670D01*
G37*
G36*
X41170Y-23170D02*
X40429Y-23170D01*
X40429Y-22429D01*
X41170Y-22429D01*
X41170Y-23170D01*
X41170Y-23170D01*
G37*
G36*
X41170Y-32170D02*
X40429Y-32170D01*
X40429Y-31429D01*
X41170Y-31429D01*
X41170Y-32170D01*
X41170Y-32170D01*
G37*
G36*
X41470Y-36565D02*
X41469Y-36645D01*
X41452Y-36718D01*
X41424Y-36782D01*
X41380Y-36844D01*
X41330Y-36892D01*
X41266Y-36932D01*
X41201Y-36957D01*
X41126Y-36970D01*
X41057Y-36969D01*
X40983Y-36953D01*
X40919Y-36925D01*
X40857Y-36882D01*
X40809Y-36832D01*
X40768Y-36768D01*
X40742Y-36704D01*
X40729Y-36629D01*
X40730Y-36560D01*
X40745Y-36485D01*
X40773Y-36422D01*
X40816Y-36359D01*
X40865Y-36311D01*
X40929Y-36269D01*
X40993Y-36243D01*
X41068Y-36229D01*
X41137Y-36229D01*
X41211Y-36245D01*
X41275Y-36271D01*
X41338Y-36314D01*
X41387Y-36363D01*
X41429Y-36427D01*
X41455Y-36490D01*
X41470Y-36565D01*
X41470Y-36565D01*
G37*
G36*
X41921Y-7521D02*
X41078Y-7521D01*
X41078Y-6678D01*
X41921Y-6678D01*
X41921Y-7521D01*
X41921Y-7521D01*
G37*
G36*
X42170Y-29265D02*
X42169Y-29345D01*
X42152Y-29418D01*
X42124Y-29482D01*
X42080Y-29544D01*
X42030Y-29592D01*
X41966Y-29632D01*
X41901Y-29657D01*
X41826Y-29670D01*
X41757Y-29669D01*
X41683Y-29653D01*
X41619Y-29625D01*
X41557Y-29582D01*
X41509Y-29532D01*
X41468Y-29468D01*
X41442Y-29404D01*
X41429Y-29329D01*
X41430Y-29260D01*
X41445Y-29185D01*
X41473Y-29122D01*
X41516Y-29059D01*
X41565Y-29011D01*
X41629Y-28969D01*
X41693Y-28943D01*
X41768Y-28929D01*
X41837Y-28929D01*
X41911Y-28945D01*
X41975Y-28971D01*
X42038Y-29014D01*
X42087Y-29063D01*
X42129Y-29127D01*
X42155Y-29190D01*
X42170Y-29265D01*
X42170Y-29265D01*
G37*
G36*
X42170Y-27670D02*
X41429Y-27670D01*
X41429Y-26929D01*
X42170Y-26929D01*
X42170Y-27670D01*
X42170Y-27670D01*
G37*
G36*
X42470Y-36970D02*
X41729Y-36970D01*
X41729Y-36229D01*
X42470Y-36229D01*
X42470Y-36970D01*
X42470Y-36970D01*
G37*
G36*
X43470Y-36565D02*
X43469Y-36645D01*
X43452Y-36718D01*
X43424Y-36782D01*
X43380Y-36844D01*
X43330Y-36892D01*
X43266Y-36932D01*
X43201Y-36957D01*
X43126Y-36970D01*
X43057Y-36969D01*
X42983Y-36953D01*
X42919Y-36925D01*
X42857Y-36882D01*
X42809Y-36832D01*
X42768Y-36768D01*
X42742Y-36704D01*
X42729Y-36629D01*
X42730Y-36560D01*
X42745Y-36485D01*
X42773Y-36422D01*
X42816Y-36359D01*
X42865Y-36311D01*
X42929Y-36269D01*
X42993Y-36243D01*
X43068Y-36229D01*
X43137Y-36229D01*
X43211Y-36245D01*
X43275Y-36271D01*
X43338Y-36314D01*
X43387Y-36363D01*
X43429Y-36427D01*
X43455Y-36490D01*
X43470Y-36565D01*
X43470Y-36565D01*
G37*
G36*
X43644Y-40858D02*
X43643Y-40953D01*
X43623Y-41038D01*
X43590Y-41113D01*
X43539Y-41185D01*
X43480Y-41242D01*
X43406Y-41289D01*
X43329Y-41319D01*
X43242Y-41334D01*
X43160Y-41332D01*
X43074Y-41313D01*
X42999Y-41281D01*
X42927Y-41230D01*
X42870Y-41171D01*
X42822Y-41097D01*
X42792Y-41021D01*
X42776Y-40934D01*
X42777Y-40853D01*
X42796Y-40766D01*
X42828Y-40691D01*
X42878Y-40618D01*
X42936Y-40561D01*
X43010Y-40513D01*
X43086Y-40482D01*
X43173Y-40465D01*
X43254Y-40466D01*
X43341Y-40484D01*
X43416Y-40515D01*
X43490Y-40565D01*
X43547Y-40623D01*
X43596Y-40697D01*
X43627Y-40772D01*
X43644Y-40858D01*
X43644Y-40858D01*
G37*
G36*
X44120Y-6620D02*
X43479Y-6620D01*
X43479Y-5979D01*
X44120Y-5979D01*
X44120Y-6620D01*
X44120Y-6620D01*
G37*
G36*
X44903Y-15497D02*
X44902Y-15561D01*
X44889Y-15620D01*
X44866Y-15670D01*
X44831Y-15720D01*
X44791Y-15758D01*
X44740Y-15791D01*
X44689Y-15811D01*
X44629Y-15821D01*
X44574Y-15820D01*
X44514Y-15807D01*
X44464Y-15785D01*
X44414Y-15750D01*
X44375Y-15711D01*
X44342Y-15659D01*
X44322Y-15608D01*
X44311Y-15548D01*
X44312Y-15493D01*
X44325Y-15433D01*
X44346Y-15383D01*
X44381Y-15332D01*
X44420Y-15294D01*
X44471Y-15260D01*
X44522Y-15240D01*
X44582Y-15229D01*
X44637Y-15229D01*
X44697Y-15241D01*
X44747Y-15262D01*
X44798Y-15297D01*
X44836Y-15335D01*
X44871Y-15387D01*
X44891Y-15437D01*
X44903Y-15497D01*
X44903Y-15497D01*
G37*
G36*
X44903Y-16285D02*
X44902Y-16348D01*
X44889Y-16407D01*
X44866Y-16458D01*
X44831Y-16507D01*
X44791Y-16545D01*
X44740Y-16578D01*
X44689Y-16598D01*
X44629Y-16609D01*
X44574Y-16607D01*
X44514Y-16594D01*
X44464Y-16572D01*
X44414Y-16537D01*
X44375Y-16498D01*
X44342Y-16446D01*
X44322Y-16396D01*
X44311Y-16335D01*
X44312Y-16281D01*
X44325Y-16221D01*
X44346Y-16170D01*
X44381Y-16120D01*
X44420Y-16082D01*
X44471Y-16048D01*
X44522Y-16027D01*
X44582Y-16016D01*
X44637Y-16016D01*
X44697Y-16029D01*
X44747Y-16050D01*
X44798Y-16084D01*
X44836Y-16123D01*
X44871Y-16174D01*
X44891Y-16224D01*
X44903Y-16285D01*
X44903Y-16285D01*
G37*
G36*
X44903Y-17072D02*
X44902Y-17135D01*
X44889Y-17195D01*
X44866Y-17245D01*
X44831Y-17295D01*
X44791Y-17333D01*
X44740Y-17365D01*
X44689Y-17385D01*
X44629Y-17396D01*
X44574Y-17395D01*
X44514Y-17382D01*
X44464Y-17360D01*
X44414Y-17325D01*
X44375Y-17285D01*
X44342Y-17234D01*
X44322Y-17183D01*
X44311Y-17123D01*
X44312Y-17068D01*
X44325Y-17008D01*
X44346Y-16958D01*
X44381Y-16907D01*
X44420Y-16869D01*
X44471Y-16835D01*
X44522Y-16815D01*
X44582Y-16803D01*
X44637Y-16804D01*
X44697Y-16816D01*
X44747Y-16837D01*
X44798Y-16872D01*
X44836Y-16910D01*
X44871Y-16962D01*
X44891Y-17012D01*
X44903Y-17072D01*
X44903Y-17072D01*
G37*
G36*
X44903Y-18647D02*
X44902Y-18710D01*
X44889Y-18769D01*
X44866Y-18820D01*
X44831Y-18870D01*
X44791Y-18908D01*
X44740Y-18940D01*
X44689Y-18960D01*
X44629Y-18971D01*
X44574Y-18970D01*
X44514Y-18956D01*
X44464Y-18934D01*
X44414Y-18900D01*
X44375Y-18860D01*
X44342Y-18809D01*
X44322Y-18758D01*
X44311Y-18697D01*
X44312Y-18643D01*
X44325Y-18583D01*
X44346Y-18533D01*
X44381Y-18482D01*
X44420Y-18444D01*
X44471Y-18410D01*
X44522Y-18390D01*
X44582Y-18378D01*
X44637Y-18379D01*
X44697Y-18391D01*
X44747Y-18412D01*
X44798Y-18447D01*
X44836Y-18485D01*
X44871Y-18536D01*
X44891Y-18587D01*
X44903Y-18647D01*
X44903Y-18647D01*
G37*
G36*
X45003Y-41314D02*
X44174Y-41314D01*
X44174Y-40485D01*
X45003Y-40485D01*
X45003Y-41314D01*
X45003Y-41314D01*
G37*
G36*
X45120Y-6270D02*
X45119Y-6338D01*
X45104Y-6402D01*
X45080Y-6457D01*
X45042Y-6511D01*
X44999Y-6552D01*
X44943Y-6587D01*
X44887Y-6609D01*
X44823Y-6620D01*
X44763Y-6619D01*
X44699Y-6605D01*
X44644Y-6581D01*
X44590Y-6543D01*
X44548Y-6501D01*
X44513Y-6445D01*
X44491Y-6390D01*
X44479Y-6325D01*
X44480Y-6265D01*
X44493Y-6201D01*
X44517Y-6146D01*
X44554Y-6091D01*
X44597Y-6050D01*
X44652Y-6014D01*
X44707Y-5991D01*
X44772Y-5979D01*
X44831Y-5979D01*
X44896Y-5993D01*
X44951Y-6016D01*
X45006Y-6053D01*
X45048Y-6095D01*
X45084Y-6150D01*
X45107Y-6205D01*
X45120Y-6270D01*
X45120Y-6270D01*
G37*
G36*
X45435Y-14667D02*
X45434Y-14739D01*
X45419Y-14806D01*
X45393Y-14863D01*
X45353Y-14919D01*
X45308Y-14962D01*
X45250Y-14999D01*
X45192Y-15022D01*
X45124Y-15034D01*
X45061Y-15032D01*
X44994Y-15018D01*
X44937Y-14993D01*
X44880Y-14953D01*
X44837Y-14908D01*
X44799Y-14850D01*
X44776Y-14792D01*
X44764Y-14724D01*
X44765Y-14662D01*
X44779Y-14594D01*
X44804Y-14537D01*
X44843Y-14480D01*
X44887Y-14437D01*
X44945Y-14399D01*
X45003Y-14375D01*
X45071Y-14362D01*
X45133Y-14363D01*
X45201Y-14377D01*
X45258Y-14401D01*
X45316Y-14440D01*
X45359Y-14484D01*
X45398Y-14542D01*
X45421Y-14599D01*
X45434Y-14665D01*
X45435Y-14667D01*
X45435Y-14667D01*
G37*
G36*
X45435Y-19470D02*
X45434Y-19542D01*
X45419Y-19609D01*
X45393Y-19666D01*
X45353Y-19722D01*
X45308Y-19766D01*
X45250Y-19802D01*
X45192Y-19825D01*
X45124Y-19837D01*
X45061Y-19836D01*
X44994Y-19821D01*
X44937Y-19796D01*
X44880Y-19756D01*
X44837Y-19712D01*
X44799Y-19654D01*
X44776Y-19595D01*
X44764Y-19528D01*
X44765Y-19465D01*
X44779Y-19398D01*
X44804Y-19340D01*
X44843Y-19283D01*
X44887Y-19240D01*
X44945Y-19202D01*
X45003Y-19179D01*
X45071Y-19166D01*
X45133Y-19166D01*
X45201Y-19180D01*
X45258Y-19204D01*
X45316Y-19243D01*
X45359Y-19287D01*
X45398Y-19345D01*
X45421Y-19402D01*
X45434Y-19468D01*
X45435Y-19470D01*
X45435Y-19470D01*
G37*
G36*
X45888Y-15497D02*
X45887Y-15561D01*
X45873Y-15620D01*
X45851Y-15670D01*
X45816Y-15720D01*
X45776Y-15758D01*
X45724Y-15791D01*
X45673Y-15811D01*
X45613Y-15821D01*
X45558Y-15820D01*
X45498Y-15807D01*
X45448Y-15785D01*
X45398Y-15750D01*
X45360Y-15711D01*
X45327Y-15659D01*
X45306Y-15608D01*
X45295Y-15548D01*
X45296Y-15493D01*
X45309Y-15433D01*
X45330Y-15383D01*
X45365Y-15332D01*
X45404Y-15294D01*
X45456Y-15260D01*
X45506Y-15240D01*
X45567Y-15229D01*
X45621Y-15229D01*
X45681Y-15241D01*
X45731Y-15262D01*
X45783Y-15297D01*
X45821Y-15335D01*
X45855Y-15387D01*
X45876Y-15437D01*
X45888Y-15497D01*
X45888Y-15497D01*
G37*
G36*
X45888Y-16285D02*
X45887Y-16348D01*
X45873Y-16407D01*
X45851Y-16458D01*
X45816Y-16507D01*
X45776Y-16545D01*
X45724Y-16578D01*
X45673Y-16598D01*
X45613Y-16609D01*
X45558Y-16607D01*
X45498Y-16594D01*
X45448Y-16572D01*
X45398Y-16537D01*
X45360Y-16498D01*
X45327Y-16446D01*
X45306Y-16396D01*
X45295Y-16335D01*
X45296Y-16281D01*
X45309Y-16221D01*
X45330Y-16170D01*
X45365Y-16120D01*
X45404Y-16082D01*
X45456Y-16048D01*
X45506Y-16027D01*
X45567Y-16016D01*
X45621Y-16016D01*
X45681Y-16029D01*
X45731Y-16050D01*
X45783Y-16084D01*
X45821Y-16123D01*
X45855Y-16174D01*
X45876Y-16224D01*
X45888Y-16285D01*
X45888Y-16285D01*
G37*
G36*
X45888Y-17072D02*
X45887Y-17135D01*
X45873Y-17195D01*
X45851Y-17245D01*
X45816Y-17295D01*
X45776Y-17333D01*
X45724Y-17365D01*
X45673Y-17385D01*
X45613Y-17396D01*
X45558Y-17395D01*
X45498Y-17382D01*
X45448Y-17360D01*
X45398Y-17325D01*
X45360Y-17285D01*
X45327Y-17234D01*
X45306Y-17183D01*
X45295Y-17123D01*
X45296Y-17068D01*
X45309Y-17008D01*
X45330Y-16958D01*
X45365Y-16907D01*
X45404Y-16869D01*
X45456Y-16835D01*
X45506Y-16815D01*
X45567Y-16803D01*
X45621Y-16804D01*
X45681Y-16816D01*
X45731Y-16837D01*
X45783Y-16872D01*
X45821Y-16910D01*
X45855Y-16962D01*
X45876Y-17012D01*
X45888Y-17072D01*
X45888Y-17072D01*
G37*
G36*
X45888Y-18970D02*
X45296Y-18970D01*
X45296Y-18378D01*
X45888Y-18378D01*
X45888Y-18970D01*
X45888Y-18970D01*
G37*
G36*
X46120Y-6270D02*
X46119Y-6338D01*
X46104Y-6402D01*
X46080Y-6457D01*
X46042Y-6511D01*
X45999Y-6552D01*
X45943Y-6587D01*
X45887Y-6609D01*
X45823Y-6620D01*
X45763Y-6619D01*
X45699Y-6605D01*
X45644Y-6581D01*
X45590Y-6543D01*
X45548Y-6501D01*
X45513Y-6445D01*
X45491Y-6390D01*
X45479Y-6325D01*
X45480Y-6265D01*
X45493Y-6201D01*
X45517Y-6146D01*
X45554Y-6091D01*
X45597Y-6050D01*
X45652Y-6014D01*
X45707Y-5991D01*
X45772Y-5979D01*
X45831Y-5979D01*
X45896Y-5993D01*
X45951Y-6016D01*
X46006Y-6053D01*
X46048Y-6095D01*
X46084Y-6150D01*
X46107Y-6205D01*
X46120Y-6270D01*
X46120Y-6270D01*
G37*
G36*
X48320Y-6620D02*
X47679Y-6620D01*
X47679Y-5979D01*
X48320Y-5979D01*
X48320Y-6620D01*
X48320Y-6620D01*
G37*
G36*
X49320Y-6270D02*
X49319Y-6338D01*
X49304Y-6402D01*
X49280Y-6457D01*
X49242Y-6511D01*
X49199Y-6552D01*
X49143Y-6587D01*
X49087Y-6609D01*
X49023Y-6620D01*
X48963Y-6619D01*
X48899Y-6605D01*
X48844Y-6581D01*
X48790Y-6543D01*
X48748Y-6501D01*
X48713Y-6445D01*
X48691Y-6390D01*
X48679Y-6325D01*
X48680Y-6265D01*
X48693Y-6201D01*
X48717Y-6146D01*
X48754Y-6091D01*
X48797Y-6050D01*
X48852Y-6014D01*
X48907Y-5991D01*
X48972Y-5979D01*
X49031Y-5979D01*
X49096Y-5993D01*
X49151Y-6016D01*
X49206Y-6053D01*
X49248Y-6095D01*
X49284Y-6150D01*
X49307Y-6205D01*
X49320Y-6270D01*
X49320Y-6270D01*
G37*
G36*
X50320Y-6270D02*
X50319Y-6338D01*
X50304Y-6402D01*
X50280Y-6457D01*
X50242Y-6511D01*
X50199Y-6552D01*
X50143Y-6587D01*
X50087Y-6609D01*
X50023Y-6620D01*
X49963Y-6619D01*
X49899Y-6605D01*
X49844Y-6581D01*
X49790Y-6543D01*
X49748Y-6501D01*
X49713Y-6445D01*
X49691Y-6390D01*
X49679Y-6325D01*
X49680Y-6265D01*
X49693Y-6201D01*
X49717Y-6146D01*
X49754Y-6091D01*
X49797Y-6050D01*
X49852Y-6014D01*
X49907Y-5991D01*
X49972Y-5979D01*
X50031Y-5979D01*
X50096Y-5993D01*
X50151Y-6016D01*
X50206Y-6053D01*
X50248Y-6095D01*
X50284Y-6150D01*
X50307Y-6205D01*
X50320Y-6270D01*
X50320Y-6270D01*
G37*
G36*
X51320Y-6270D02*
X51319Y-6338D01*
X51304Y-6402D01*
X51280Y-6457D01*
X51242Y-6511D01*
X51199Y-6552D01*
X51143Y-6587D01*
X51087Y-6609D01*
X51023Y-6620D01*
X50963Y-6619D01*
X50899Y-6605D01*
X50844Y-6581D01*
X50790Y-6543D01*
X50748Y-6501D01*
X50713Y-6445D01*
X50691Y-6390D01*
X50679Y-6325D01*
X50680Y-6265D01*
X50693Y-6201D01*
X50717Y-6146D01*
X50754Y-6091D01*
X50797Y-6050D01*
X50852Y-6014D01*
X50907Y-5991D01*
X50972Y-5979D01*
X51031Y-5979D01*
X51096Y-5993D01*
X51151Y-6016D01*
X51206Y-6053D01*
X51248Y-6095D01*
X51284Y-6150D01*
X51307Y-6205D01*
X51320Y-6270D01*
X51320Y-6270D01*
G37*
G36*
X54114Y-11153D02*
X53285Y-11153D01*
X53285Y-10324D01*
X54114Y-10324D01*
X54114Y-11153D01*
X54114Y-11153D01*
G37*
G36*
X54114Y-15653D02*
X53285Y-15653D01*
X53285Y-14824D01*
X54114Y-14824D01*
X54114Y-15653D01*
X54114Y-15653D01*
G37*
G36*
X54114Y-23781D02*
X53285Y-23781D01*
X53285Y-22952D01*
X54114Y-22952D01*
X54114Y-23781D01*
X54114Y-23781D01*
G37*
G36*
X54114Y-31531D02*
X53285Y-31531D01*
X53285Y-30702D01*
X54114Y-30702D01*
X54114Y-31531D01*
X54114Y-31531D01*
G37*
G36*
X54114Y-40681D02*
X53285Y-40681D01*
X53285Y-39852D01*
X54114Y-39852D01*
X54114Y-40681D01*
X54114Y-40681D01*
G37*
G36*
X54133Y-9319D02*
X54132Y-9414D01*
X54112Y-9499D01*
X54079Y-9574D01*
X54028Y-9646D01*
X53969Y-9703D01*
X53895Y-9750D01*
X53818Y-9780D01*
X53731Y-9795D01*
X53649Y-9793D01*
X53563Y-9774D01*
X53488Y-9742D01*
X53416Y-9691D01*
X53359Y-9632D01*
X53311Y-9558D01*
X53281Y-9482D01*
X53265Y-9395D01*
X53266Y-9314D01*
X53285Y-9227D01*
X53317Y-9152D01*
X53367Y-9079D01*
X53425Y-9022D01*
X53499Y-8974D01*
X53575Y-8943D01*
X53662Y-8926D01*
X53743Y-8927D01*
X53830Y-8945D01*
X53905Y-8976D01*
X53979Y-9026D01*
X54036Y-9084D01*
X54085Y-9158D01*
X54116Y-9233D01*
X54133Y-9319D01*
X54133Y-9319D01*
G37*
G36*
X54133Y-13819D02*
X54132Y-13914D01*
X54112Y-13999D01*
X54079Y-14074D01*
X54028Y-14146D01*
X53969Y-14203D01*
X53895Y-14250D01*
X53818Y-14280D01*
X53731Y-14295D01*
X53649Y-14293D01*
X53563Y-14274D01*
X53488Y-14242D01*
X53416Y-14191D01*
X53359Y-14132D01*
X53311Y-14058D01*
X53281Y-13982D01*
X53265Y-13895D01*
X53266Y-13814D01*
X53285Y-13727D01*
X53317Y-13652D01*
X53367Y-13579D01*
X53425Y-13522D01*
X53499Y-13474D01*
X53575Y-13443D01*
X53662Y-13426D01*
X53743Y-13427D01*
X53830Y-13445D01*
X53905Y-13476D01*
X53979Y-13526D01*
X54036Y-13584D01*
X54085Y-13658D01*
X54116Y-13733D01*
X54133Y-13819D01*
X54133Y-13819D01*
G37*
G36*
X54133Y-19192D02*
X54132Y-19286D01*
X54112Y-19371D01*
X54079Y-19446D01*
X54028Y-19518D01*
X53969Y-19575D01*
X53895Y-19622D01*
X53818Y-19652D01*
X53731Y-19667D01*
X53649Y-19665D01*
X53563Y-19646D01*
X53488Y-19614D01*
X53416Y-19563D01*
X53359Y-19504D01*
X53311Y-19430D01*
X53281Y-19354D01*
X53265Y-19267D01*
X53266Y-19186D01*
X53285Y-19099D01*
X53317Y-19024D01*
X53367Y-18951D01*
X53425Y-18894D01*
X53499Y-18846D01*
X53575Y-18815D01*
X53662Y-18799D01*
X53743Y-18799D01*
X53830Y-18817D01*
X53905Y-18848D01*
X53979Y-18898D01*
X54036Y-18956D01*
X54085Y-19030D01*
X54116Y-19105D01*
X54133Y-19192D01*
X54133Y-19192D01*
G37*
G36*
X54133Y-20569D02*
X54132Y-20664D01*
X54112Y-20749D01*
X54079Y-20824D01*
X54028Y-20896D01*
X53969Y-20953D01*
X53895Y-21000D01*
X53818Y-21030D01*
X53731Y-21045D01*
X53649Y-21043D01*
X53563Y-21024D01*
X53488Y-20992D01*
X53416Y-20941D01*
X53359Y-20882D01*
X53311Y-20808D01*
X53281Y-20732D01*
X53265Y-20645D01*
X53266Y-20564D01*
X53285Y-20477D01*
X53317Y-20402D01*
X53367Y-20329D01*
X53425Y-20272D01*
X53499Y-20224D01*
X53575Y-20193D01*
X53662Y-20176D01*
X53743Y-20177D01*
X53830Y-20195D01*
X53905Y-20226D01*
X53979Y-20276D01*
X54036Y-20334D01*
X54085Y-20408D01*
X54116Y-20483D01*
X54133Y-20569D01*
X54133Y-20569D01*
G37*
G36*
X54133Y-21947D02*
X54132Y-22042D01*
X54112Y-22127D01*
X54079Y-22202D01*
X54028Y-22274D01*
X53969Y-22331D01*
X53895Y-22378D01*
X53818Y-22408D01*
X53731Y-22423D01*
X53649Y-22421D01*
X53563Y-22402D01*
X53488Y-22370D01*
X53416Y-22319D01*
X53359Y-22260D01*
X53311Y-22186D01*
X53281Y-22110D01*
X53265Y-22023D01*
X53266Y-21942D01*
X53285Y-21855D01*
X53317Y-21780D01*
X53367Y-21707D01*
X53425Y-21650D01*
X53499Y-21602D01*
X53575Y-21571D01*
X53662Y-21554D01*
X53743Y-21555D01*
X53830Y-21573D01*
X53905Y-21604D01*
X53979Y-21654D01*
X54036Y-21712D01*
X54085Y-21786D01*
X54116Y-21861D01*
X54133Y-21947D01*
X54133Y-21947D01*
G37*
G36*
X54133Y-26942D02*
X54132Y-27036D01*
X54112Y-27121D01*
X54079Y-27196D01*
X54028Y-27268D01*
X53969Y-27325D01*
X53895Y-27372D01*
X53818Y-27402D01*
X53731Y-27417D01*
X53649Y-27415D01*
X53563Y-27396D01*
X53488Y-27364D01*
X53416Y-27313D01*
X53359Y-27254D01*
X53311Y-27180D01*
X53281Y-27104D01*
X53265Y-27017D01*
X53266Y-26936D01*
X53285Y-26849D01*
X53317Y-26774D01*
X53367Y-26701D01*
X53425Y-26644D01*
X53499Y-26596D01*
X53575Y-26565D01*
X53662Y-26549D01*
X53743Y-26549D01*
X53830Y-26567D01*
X53905Y-26598D01*
X53979Y-26648D01*
X54036Y-26706D01*
X54085Y-26780D01*
X54116Y-26855D01*
X54133Y-26942D01*
X54133Y-26942D01*
G37*
G36*
X54133Y-28319D02*
X54132Y-28414D01*
X54112Y-28499D01*
X54079Y-28574D01*
X54028Y-28646D01*
X53969Y-28703D01*
X53895Y-28750D01*
X53818Y-28780D01*
X53731Y-28795D01*
X53649Y-28793D01*
X53563Y-28774D01*
X53488Y-28742D01*
X53416Y-28691D01*
X53359Y-28632D01*
X53311Y-28558D01*
X53281Y-28482D01*
X53265Y-28395D01*
X53266Y-28314D01*
X53285Y-28227D01*
X53317Y-28152D01*
X53367Y-28079D01*
X53425Y-28022D01*
X53499Y-27974D01*
X53575Y-27943D01*
X53662Y-27926D01*
X53743Y-27927D01*
X53830Y-27945D01*
X53905Y-27976D01*
X53979Y-28026D01*
X54036Y-28084D01*
X54085Y-28158D01*
X54116Y-28233D01*
X54133Y-28319D01*
X54133Y-28319D01*
G37*
G36*
X54133Y-29697D02*
X54132Y-29792D01*
X54112Y-29877D01*
X54079Y-29952D01*
X54028Y-30024D01*
X53969Y-30081D01*
X53895Y-30128D01*
X53818Y-30158D01*
X53731Y-30173D01*
X53649Y-30171D01*
X53563Y-30152D01*
X53488Y-30120D01*
X53416Y-30069D01*
X53359Y-30010D01*
X53311Y-29936D01*
X53281Y-29860D01*
X53265Y-29773D01*
X53266Y-29692D01*
X53285Y-29605D01*
X53317Y-29530D01*
X53367Y-29457D01*
X53425Y-29400D01*
X53499Y-29352D01*
X53575Y-29321D01*
X53662Y-29304D01*
X53743Y-29305D01*
X53830Y-29323D01*
X53905Y-29354D01*
X53979Y-29404D01*
X54036Y-29462D01*
X54085Y-29536D01*
X54116Y-29611D01*
X54133Y-29697D01*
X54133Y-29697D01*
G37*
G36*
X54133Y-36092D02*
X54132Y-36186D01*
X54112Y-36271D01*
X54079Y-36346D01*
X54028Y-36418D01*
X53969Y-36475D01*
X53895Y-36522D01*
X53818Y-36552D01*
X53731Y-36567D01*
X53649Y-36565D01*
X53563Y-36546D01*
X53488Y-36514D01*
X53416Y-36463D01*
X53359Y-36404D01*
X53311Y-36330D01*
X53281Y-36254D01*
X53265Y-36167D01*
X53266Y-36086D01*
X53285Y-35999D01*
X53317Y-35924D01*
X53367Y-35851D01*
X53425Y-35794D01*
X53499Y-35746D01*
X53575Y-35715D01*
X53662Y-35699D01*
X53743Y-35699D01*
X53830Y-35717D01*
X53905Y-35748D01*
X53979Y-35798D01*
X54036Y-35856D01*
X54085Y-35930D01*
X54116Y-36005D01*
X54133Y-36092D01*
X54133Y-36092D01*
G37*
G36*
X54133Y-37469D02*
X54132Y-37564D01*
X54112Y-37649D01*
X54079Y-37724D01*
X54028Y-37796D01*
X53969Y-37853D01*
X53895Y-37900D01*
X53818Y-37930D01*
X53731Y-37945D01*
X53649Y-37943D01*
X53563Y-37924D01*
X53488Y-37892D01*
X53416Y-37841D01*
X53359Y-37782D01*
X53311Y-37708D01*
X53281Y-37632D01*
X53265Y-37545D01*
X53266Y-37464D01*
X53285Y-37377D01*
X53317Y-37302D01*
X53367Y-37229D01*
X53425Y-37172D01*
X53499Y-37124D01*
X53575Y-37093D01*
X53662Y-37076D01*
X53743Y-37077D01*
X53830Y-37095D01*
X53905Y-37126D01*
X53979Y-37176D01*
X54036Y-37234D01*
X54085Y-37308D01*
X54116Y-37383D01*
X54133Y-37469D01*
X54133Y-37469D01*
G37*
G36*
X54133Y-38847D02*
X54132Y-38942D01*
X54112Y-39027D01*
X54079Y-39102D01*
X54028Y-39174D01*
X53969Y-39231D01*
X53895Y-39278D01*
X53818Y-39308D01*
X53731Y-39323D01*
X53649Y-39321D01*
X53563Y-39302D01*
X53488Y-39270D01*
X53416Y-39219D01*
X53359Y-39160D01*
X53311Y-39086D01*
X53281Y-39010D01*
X53265Y-38923D01*
X53266Y-38842D01*
X53285Y-38755D01*
X53317Y-38680D01*
X53367Y-38607D01*
X53425Y-38550D01*
X53499Y-38502D01*
X53575Y-38471D01*
X53662Y-38454D01*
X53743Y-38455D01*
X53830Y-38473D01*
X53905Y-38504D01*
X53979Y-38554D01*
X54036Y-38612D01*
X54085Y-38686D01*
X54116Y-38761D01*
X54133Y-38847D01*
X54133Y-38847D01*
G37*
G36*
X56895Y-6913D02*
X56892Y-7111D01*
X56853Y-7285D01*
X56782Y-7443D01*
X56679Y-7588D01*
X56554Y-7707D01*
X56404Y-7803D01*
X56243Y-7865D01*
X56067Y-7896D01*
X55895Y-7893D01*
X55720Y-7854D01*
X55562Y-7785D01*
X55415Y-7683D01*
X55296Y-7559D01*
X55199Y-7409D01*
X55135Y-7249D01*
X55103Y-7073D01*
X55105Y-6901D01*
X55143Y-6726D01*
X55210Y-6568D01*
X55312Y-6420D01*
X55434Y-6300D01*
X55584Y-6202D01*
X55744Y-6137D01*
X55920Y-6104D01*
X56092Y-6105D01*
X56267Y-6141D01*
X56426Y-6207D01*
X56574Y-6308D01*
X56695Y-6430D01*
X56795Y-6579D01*
X56860Y-6738D01*
X56895Y-6912D01*
X56895Y-6913D01*
X56895Y-6913D01*
G37*
G36*
X56895Y-41913D02*
X56892Y-42111D01*
X56853Y-42285D01*
X56782Y-42443D01*
X56679Y-42588D01*
X56554Y-42707D01*
X56404Y-42803D01*
X56243Y-42865D01*
X56067Y-42896D01*
X55895Y-42893D01*
X55720Y-42854D01*
X55562Y-42785D01*
X55415Y-42683D01*
X55296Y-42559D01*
X55199Y-42409D01*
X55135Y-42249D01*
X55103Y-42073D01*
X55105Y-41901D01*
X55143Y-41726D01*
X55210Y-41568D01*
X55312Y-41420D01*
X55434Y-41300D01*
X55584Y-41202D01*
X55744Y-41137D01*
X55920Y-41104D01*
X56092Y-41105D01*
X56267Y-41141D01*
X56426Y-41207D01*
X56574Y-41308D01*
X56695Y-41430D01*
X56795Y-41579D01*
X56860Y-41738D01*
X56895Y-41912D01*
X56895Y-41913D01*
X56895Y-41913D01*
G37*
G36*
X56970Y-12180D02*
X56968Y-12339D01*
X56936Y-12479D01*
X56879Y-12606D01*
X56796Y-12723D01*
X56696Y-12819D01*
X56574Y-12896D01*
X56446Y-12946D01*
X56303Y-12971D01*
X56165Y-12968D01*
X56024Y-12937D01*
X55898Y-12882D01*
X55779Y-12800D01*
X55683Y-12700D01*
X55605Y-12579D01*
X55554Y-12451D01*
X55528Y-12308D01*
X55530Y-12171D01*
X55560Y-12029D01*
X55615Y-11902D01*
X55696Y-11783D01*
X55795Y-11687D01*
X55916Y-11607D01*
X56043Y-11556D01*
X56186Y-11529D01*
X56323Y-11530D01*
X56465Y-11559D01*
X56592Y-11612D01*
X56712Y-11693D01*
X56809Y-11791D01*
X56889Y-11911D01*
X56942Y-12038D01*
X56970Y-12180D01*
X56970Y-12180D01*
G37*
G36*
X56970Y-17180D02*
X56968Y-17339D01*
X56936Y-17479D01*
X56879Y-17606D01*
X56796Y-17723D01*
X56696Y-17819D01*
X56574Y-17896D01*
X56446Y-17946D01*
X56303Y-17971D01*
X56165Y-17968D01*
X56024Y-17937D01*
X55898Y-17882D01*
X55779Y-17800D01*
X55683Y-17700D01*
X55605Y-17579D01*
X55554Y-17451D01*
X55528Y-17308D01*
X55530Y-17171D01*
X55560Y-17029D01*
X55615Y-16902D01*
X55696Y-16783D01*
X55795Y-16687D01*
X55916Y-16607D01*
X56043Y-16556D01*
X56186Y-16529D01*
X56323Y-16530D01*
X56465Y-16559D01*
X56592Y-16612D01*
X56712Y-16693D01*
X56809Y-16791D01*
X56889Y-16911D01*
X56942Y-17038D01*
X56970Y-17180D01*
X56970Y-17180D01*
G37*
G36*
X56970Y-25180D02*
X56968Y-25339D01*
X56936Y-25479D01*
X56879Y-25606D01*
X56796Y-25723D01*
X56696Y-25819D01*
X56574Y-25896D01*
X56446Y-25946D01*
X56303Y-25971D01*
X56165Y-25968D01*
X56024Y-25937D01*
X55898Y-25882D01*
X55779Y-25800D01*
X55683Y-25700D01*
X55605Y-25579D01*
X55554Y-25451D01*
X55528Y-25308D01*
X55530Y-25171D01*
X55560Y-25029D01*
X55615Y-24902D01*
X55696Y-24783D01*
X55795Y-24687D01*
X55916Y-24607D01*
X56043Y-24556D01*
X56186Y-24529D01*
X56323Y-24530D01*
X56465Y-24559D01*
X56592Y-24612D01*
X56712Y-24693D01*
X56809Y-24791D01*
X56889Y-24911D01*
X56942Y-25038D01*
X56970Y-25180D01*
X56970Y-25180D01*
G37*
G36*
X56970Y-33430D02*
X56968Y-33589D01*
X56936Y-33729D01*
X56879Y-33856D01*
X56796Y-33973D01*
X56696Y-34069D01*
X56574Y-34146D01*
X56446Y-34196D01*
X56303Y-34221D01*
X56165Y-34218D01*
X56024Y-34187D01*
X55898Y-34132D01*
X55779Y-34050D01*
X55683Y-33950D01*
X55605Y-33829D01*
X55554Y-33701D01*
X55528Y-33558D01*
X55530Y-33421D01*
X55560Y-33279D01*
X55615Y-33152D01*
X55696Y-33033D01*
X55795Y-32937D01*
X55916Y-32857D01*
X56043Y-32806D01*
X56186Y-32779D01*
X56323Y-32780D01*
X56465Y-32809D01*
X56592Y-32862D01*
X56712Y-32943D01*
X56809Y-33041D01*
X56889Y-33161D01*
X56942Y-33288D01*
X56970Y-33430D01*
X56970Y-33430D01*
G37*
M02*
