G04 (created by PCBNEW (2013-mar-13)-testing) date Sat 12 Oct 2013 12:16:49 AM EDT*
%MOIN*%
G04 Gerber Fmt 3.4, Leading zero omitted, Abs format*
%FSLAX34Y34*%
G01*
G70*
G90*
G04 APERTURE LIST*
%ADD10C,0.005906*%
G04 APERTURE END LIST*
G54D10*
G36*
X7045Y-33538D02*
X6454Y-33538D01*
X6454Y-33261D01*
X7045Y-33261D01*
X7045Y-33538D01*
X7045Y-33538D01*
G37*
G36*
X7045Y-34538D02*
X6454Y-34538D01*
X6454Y-34261D01*
X7045Y-34261D01*
X7045Y-34538D01*
X7045Y-34538D01*
G37*
G36*
X7220Y-32895D02*
X6829Y-32895D01*
X6829Y-32304D01*
X7220Y-32304D01*
X7220Y-32895D01*
X7220Y-32895D01*
G37*
G36*
X7719Y-27433D02*
X7717Y-27586D01*
X7686Y-27721D01*
X7632Y-27843D01*
X7552Y-27957D01*
X7455Y-28049D01*
X7338Y-28124D01*
X7213Y-28172D01*
X7076Y-28196D01*
X6943Y-28193D01*
X6807Y-28163D01*
X6685Y-28110D01*
X6570Y-28030D01*
X6477Y-27935D01*
X6402Y-27817D01*
X6353Y-27694D01*
X6328Y-27556D01*
X6330Y-27423D01*
X6359Y-27287D01*
X6411Y-27164D01*
X6490Y-27049D01*
X6585Y-26956D01*
X6702Y-26880D01*
X6825Y-26830D01*
X6962Y-26804D01*
X7095Y-26805D01*
X7232Y-26833D01*
X7355Y-26884D01*
X7471Y-26962D01*
X7564Y-27057D01*
X7642Y-27173D01*
X7692Y-27296D01*
X7692Y-27298D01*
X7719Y-27433D01*
X7719Y-27433D01*
G37*
G36*
X7895Y-6913D02*
X7892Y-7111D01*
X7853Y-7285D01*
X7782Y-7443D01*
X7679Y-7588D01*
X7554Y-7707D01*
X7404Y-7803D01*
X7243Y-7865D01*
X7067Y-7896D01*
X6895Y-7893D01*
X6720Y-7854D01*
X6562Y-7785D01*
X6415Y-7683D01*
X6296Y-7559D01*
X6199Y-7409D01*
X6135Y-7249D01*
X6103Y-7073D01*
X6105Y-6901D01*
X6143Y-6726D01*
X6210Y-6568D01*
X6312Y-6420D01*
X6434Y-6300D01*
X6584Y-6202D01*
X6744Y-6137D01*
X6920Y-6104D01*
X7092Y-6105D01*
X7267Y-6141D01*
X7426Y-6207D01*
X7574Y-6308D01*
X7695Y-6430D01*
X7795Y-6579D01*
X7860Y-6738D01*
X7895Y-6912D01*
X7895Y-6913D01*
X7895Y-6913D01*
G37*
G36*
X7895Y-41913D02*
X7892Y-42111D01*
X7853Y-42285D01*
X7782Y-42443D01*
X7679Y-42588D01*
X7554Y-42707D01*
X7404Y-42803D01*
X7243Y-42865D01*
X7067Y-42896D01*
X6895Y-42893D01*
X6720Y-42854D01*
X6562Y-42785D01*
X6415Y-42683D01*
X6296Y-42559D01*
X6199Y-42409D01*
X6135Y-42249D01*
X6103Y-42073D01*
X6105Y-41901D01*
X6143Y-41726D01*
X6210Y-41568D01*
X6312Y-41420D01*
X6434Y-41300D01*
X6584Y-41202D01*
X6744Y-41137D01*
X6920Y-41104D01*
X7092Y-41105D01*
X7267Y-41141D01*
X7426Y-41207D01*
X7574Y-41308D01*
X7695Y-41430D01*
X7795Y-41579D01*
X7860Y-41738D01*
X7895Y-41912D01*
X7895Y-41913D01*
X7895Y-41913D01*
G37*
G36*
X7970Y-32895D02*
X7579Y-32895D01*
X7579Y-32304D01*
X7970Y-32304D01*
X7970Y-32895D01*
X7970Y-32895D01*
G37*
G36*
X9070Y-9470D02*
X9069Y-9538D01*
X9054Y-9602D01*
X9030Y-9657D01*
X8992Y-9711D01*
X8949Y-9752D01*
X8893Y-9787D01*
X8837Y-9809D01*
X8773Y-9820D01*
X8713Y-9819D01*
X8649Y-9805D01*
X8594Y-9781D01*
X8540Y-9743D01*
X8498Y-9701D01*
X8463Y-9645D01*
X8441Y-9590D01*
X8429Y-9525D01*
X8430Y-9465D01*
X8443Y-9401D01*
X8467Y-9346D01*
X8504Y-9291D01*
X8547Y-9250D01*
X8602Y-9214D01*
X8657Y-9191D01*
X8722Y-9179D01*
X8781Y-9179D01*
X8846Y-9193D01*
X8901Y-9216D01*
X8956Y-9253D01*
X8998Y-9295D01*
X9034Y-9350D01*
X9057Y-9405D01*
X9070Y-9470D01*
X9070Y-9470D01*
G37*
G36*
X9145Y-33538D02*
X8554Y-33538D01*
X8554Y-33261D01*
X9145Y-33261D01*
X9145Y-33538D01*
X9145Y-33538D01*
G37*
G36*
X9145Y-34538D02*
X8554Y-34538D01*
X8554Y-34261D01*
X9145Y-34261D01*
X9145Y-34538D01*
X9145Y-34538D01*
G37*
G36*
X9255Y-27433D02*
X9253Y-27586D01*
X9222Y-27721D01*
X9167Y-27843D01*
X9087Y-27957D01*
X8991Y-28049D01*
X8873Y-28124D01*
X8749Y-28172D01*
X8611Y-28196D01*
X8478Y-28193D01*
X8342Y-28163D01*
X8220Y-28110D01*
X8105Y-28030D01*
X8013Y-27935D01*
X7937Y-27817D01*
X7888Y-27694D01*
X7863Y-27556D01*
X7865Y-27423D01*
X7894Y-27287D01*
X7946Y-27164D01*
X8025Y-27049D01*
X8120Y-26956D01*
X8237Y-26880D01*
X8360Y-26830D01*
X8498Y-26804D01*
X8631Y-26805D01*
X8768Y-26833D01*
X8890Y-26884D01*
X9006Y-26962D01*
X9099Y-27057D01*
X9177Y-27173D01*
X9228Y-27296D01*
X9228Y-27298D01*
X9255Y-27433D01*
X9255Y-27433D01*
G37*
G36*
X9262Y-15941D02*
X9260Y-16053D01*
X9237Y-16154D01*
X9198Y-16243D01*
X9138Y-16327D01*
X9068Y-16394D01*
X8980Y-16450D01*
X8889Y-16485D01*
X8787Y-16503D01*
X8690Y-16501D01*
X8589Y-16479D01*
X8500Y-16440D01*
X8415Y-16381D01*
X8347Y-16311D01*
X8291Y-16223D01*
X8255Y-16133D01*
X8236Y-16031D01*
X8238Y-15934D01*
X8259Y-15832D01*
X8298Y-15743D01*
X8356Y-15657D01*
X8426Y-15590D01*
X8513Y-15533D01*
X8602Y-15496D01*
X8705Y-15477D01*
X8801Y-15478D01*
X8904Y-15498D01*
X8993Y-15536D01*
X9079Y-15594D01*
X9147Y-15663D01*
X9205Y-15750D01*
X9242Y-15839D01*
X9262Y-15941D01*
X9262Y-15941D01*
G37*
G36*
X9262Y-17524D02*
X9260Y-17635D01*
X9237Y-17736D01*
X9198Y-17825D01*
X9138Y-17910D01*
X9068Y-17977D01*
X8980Y-18032D01*
X8889Y-18068D01*
X8787Y-18086D01*
X8690Y-18084D01*
X8589Y-18061D01*
X8500Y-18022D01*
X8415Y-17963D01*
X8347Y-17893D01*
X8291Y-17806D01*
X8255Y-17716D01*
X8236Y-17614D01*
X8238Y-17517D01*
X8259Y-17415D01*
X8298Y-17326D01*
X8356Y-17240D01*
X8426Y-17172D01*
X8513Y-17115D01*
X8602Y-17079D01*
X8705Y-17060D01*
X8801Y-17060D01*
X8904Y-17081D01*
X8993Y-17119D01*
X9079Y-17177D01*
X9147Y-17245D01*
X9205Y-17332D01*
X9242Y-17422D01*
X9262Y-17524D01*
X9262Y-17524D01*
G37*
G36*
X10790Y-27433D02*
X10788Y-27586D01*
X10757Y-27721D01*
X10703Y-27843D01*
X10623Y-27957D01*
X10526Y-28049D01*
X10408Y-28124D01*
X10284Y-28172D01*
X10147Y-28196D01*
X10014Y-28193D01*
X9877Y-28163D01*
X9755Y-28110D01*
X9641Y-28030D01*
X9548Y-27935D01*
X9473Y-27817D01*
X9424Y-27694D01*
X9399Y-27556D01*
X9400Y-27423D01*
X9429Y-27287D01*
X9482Y-27164D01*
X9561Y-27049D01*
X9656Y-26956D01*
X9773Y-26880D01*
X9896Y-26830D01*
X10033Y-26804D01*
X10166Y-26805D01*
X10303Y-26833D01*
X10425Y-26884D01*
X10542Y-26962D01*
X10635Y-27057D01*
X10712Y-27173D01*
X10763Y-27296D01*
X10763Y-27298D01*
X10790Y-27433D01*
X10790Y-27433D01*
G37*
G36*
X11796Y-34250D02*
X11047Y-34250D01*
X11047Y-32949D01*
X11796Y-32949D01*
X11796Y-34250D01*
X11796Y-34250D01*
G37*
G36*
X12995Y-24126D02*
X12993Y-24279D01*
X12962Y-24414D01*
X12908Y-24536D01*
X12827Y-24650D01*
X12731Y-24742D01*
X12613Y-24817D01*
X12489Y-24865D01*
X12352Y-24889D01*
X12218Y-24886D01*
X12082Y-24856D01*
X11960Y-24803D01*
X11846Y-24723D01*
X11753Y-24628D01*
X11677Y-24510D01*
X11628Y-24387D01*
X11603Y-24249D01*
X11605Y-24116D01*
X11634Y-23980D01*
X11687Y-23857D01*
X11766Y-23742D01*
X11860Y-23649D01*
X11977Y-23573D01*
X12101Y-23523D01*
X12238Y-23497D01*
X12371Y-23498D01*
X12508Y-23526D01*
X12630Y-23577D01*
X12746Y-23655D01*
X12840Y-23749D01*
X12917Y-23866D01*
X12968Y-23989D01*
X12968Y-23991D01*
X12995Y-24126D01*
X12995Y-24126D01*
G37*
G36*
X12995Y-30740D02*
X12993Y-30893D01*
X12962Y-31028D01*
X12908Y-31150D01*
X12827Y-31264D01*
X12731Y-31356D01*
X12613Y-31431D01*
X12489Y-31479D01*
X12352Y-31503D01*
X12218Y-31500D01*
X12082Y-31470D01*
X11960Y-31417D01*
X11846Y-31337D01*
X11753Y-31242D01*
X11677Y-31124D01*
X11628Y-31001D01*
X11603Y-30863D01*
X11605Y-30730D01*
X11634Y-30594D01*
X11687Y-30472D01*
X11766Y-30356D01*
X11860Y-30263D01*
X11977Y-30187D01*
X12101Y-30137D01*
X12238Y-30111D01*
X12371Y-30112D01*
X12508Y-30140D01*
X12630Y-30191D01*
X12746Y-30270D01*
X12840Y-30364D01*
X12917Y-30480D01*
X12968Y-30603D01*
X12968Y-30605D01*
X12995Y-30740D01*
X12995Y-30740D01*
G37*
G36*
X13262Y-19878D02*
X13260Y-19990D01*
X13237Y-20091D01*
X13198Y-20180D01*
X13138Y-20264D01*
X13068Y-20331D01*
X12980Y-20387D01*
X12889Y-20422D01*
X12787Y-20440D01*
X12690Y-20438D01*
X12589Y-20416D01*
X12500Y-20377D01*
X12415Y-20318D01*
X12347Y-20248D01*
X12291Y-20160D01*
X12255Y-20070D01*
X12236Y-19968D01*
X12238Y-19871D01*
X12259Y-19769D01*
X12298Y-19680D01*
X12356Y-19594D01*
X12426Y-19527D01*
X12513Y-19470D01*
X12602Y-19433D01*
X12705Y-19414D01*
X12801Y-19415D01*
X12904Y-19435D01*
X12993Y-19473D01*
X13079Y-19531D01*
X13147Y-19600D01*
X13205Y-19687D01*
X13242Y-19776D01*
X13262Y-19878D01*
X13262Y-19878D01*
G37*
G36*
X13262Y-21461D02*
X13260Y-21572D01*
X13237Y-21673D01*
X13198Y-21762D01*
X13138Y-21847D01*
X13068Y-21914D01*
X12980Y-21969D01*
X12889Y-22005D01*
X12787Y-22023D01*
X12690Y-22021D01*
X12589Y-21998D01*
X12500Y-21959D01*
X12415Y-21900D01*
X12347Y-21830D01*
X12291Y-21743D01*
X12255Y-21653D01*
X12236Y-21551D01*
X12238Y-21454D01*
X12259Y-21352D01*
X12298Y-21263D01*
X12356Y-21177D01*
X12426Y-21109D01*
X12513Y-21052D01*
X12602Y-21016D01*
X12705Y-20997D01*
X12801Y-20997D01*
X12904Y-21018D01*
X12993Y-21056D01*
X13079Y-21114D01*
X13147Y-21183D01*
X13205Y-21269D01*
X13242Y-21359D01*
X13262Y-21461D01*
X13262Y-21461D01*
G37*
G36*
X13262Y-12502D02*
X12237Y-12502D01*
X12237Y-11477D01*
X13262Y-11477D01*
X13262Y-12502D01*
X13262Y-12502D01*
G37*
G36*
X13262Y-14085D02*
X12237Y-14085D01*
X12237Y-13060D01*
X13262Y-13060D01*
X13262Y-14085D01*
X13262Y-14085D01*
G37*
G36*
X13570Y-9470D02*
X13569Y-9538D01*
X13554Y-9602D01*
X13530Y-9657D01*
X13492Y-9711D01*
X13449Y-9752D01*
X13393Y-9787D01*
X13337Y-9809D01*
X13273Y-9820D01*
X13213Y-9819D01*
X13149Y-9805D01*
X13094Y-9781D01*
X13040Y-9743D01*
X12998Y-9701D01*
X12963Y-9645D01*
X12941Y-9590D01*
X12929Y-9525D01*
X12930Y-9465D01*
X12943Y-9401D01*
X12967Y-9346D01*
X13004Y-9291D01*
X13047Y-9250D01*
X13102Y-9214D01*
X13157Y-9191D01*
X13222Y-9179D01*
X13281Y-9179D01*
X13346Y-9193D01*
X13401Y-9216D01*
X13456Y-9253D01*
X13498Y-9295D01*
X13534Y-9350D01*
X13557Y-9405D01*
X13570Y-9470D01*
X13570Y-9470D01*
G37*
G36*
X14552Y-34250D02*
X13803Y-34250D01*
X13803Y-32949D01*
X14552Y-32949D01*
X14552Y-34250D01*
X14552Y-34250D01*
G37*
G36*
X15097Y-38664D02*
X14268Y-38664D01*
X14268Y-37835D01*
X15097Y-37835D01*
X15097Y-38664D01*
X15097Y-38664D01*
G37*
G36*
X15470Y-7112D02*
X15469Y-7192D01*
X15452Y-7266D01*
X15424Y-7329D01*
X15380Y-7391D01*
X15330Y-7439D01*
X15266Y-7479D01*
X15201Y-7505D01*
X15126Y-7518D01*
X15057Y-7516D01*
X14983Y-7500D01*
X14919Y-7472D01*
X14857Y-7429D01*
X14809Y-7379D01*
X14768Y-7315D01*
X14742Y-7251D01*
X14729Y-7176D01*
X14730Y-7107D01*
X14745Y-7033D01*
X14773Y-6969D01*
X14816Y-6906D01*
X14865Y-6858D01*
X14929Y-6816D01*
X14993Y-6790D01*
X15068Y-6776D01*
X15137Y-6777D01*
X15211Y-6792D01*
X15275Y-6819D01*
X15338Y-6861D01*
X15387Y-6910D01*
X15429Y-6974D01*
X15455Y-7037D01*
X15470Y-7112D01*
X15470Y-7112D01*
G37*
G36*
X15470Y-13017D02*
X15469Y-13097D01*
X15452Y-13171D01*
X15424Y-13235D01*
X15380Y-13296D01*
X15330Y-13344D01*
X15266Y-13385D01*
X15201Y-13410D01*
X15126Y-13423D01*
X15057Y-13422D01*
X14983Y-13406D01*
X14919Y-13378D01*
X14857Y-13334D01*
X14809Y-13285D01*
X14768Y-13221D01*
X14742Y-13156D01*
X14729Y-13082D01*
X14730Y-13012D01*
X14745Y-12938D01*
X14773Y-12875D01*
X14816Y-12812D01*
X14865Y-12763D01*
X14929Y-12722D01*
X14993Y-12696D01*
X15068Y-12682D01*
X15137Y-12682D01*
X15211Y-12697D01*
X15275Y-12724D01*
X15338Y-12767D01*
X15387Y-12816D01*
X15429Y-12879D01*
X15455Y-12943D01*
X15470Y-13017D01*
X15470Y-13017D01*
G37*
G36*
X16302Y-25897D02*
X16300Y-26050D01*
X16269Y-26186D01*
X16215Y-26308D01*
X16134Y-26422D01*
X16038Y-26514D01*
X15920Y-26588D01*
X15796Y-26636D01*
X15659Y-26661D01*
X15525Y-26658D01*
X15389Y-26628D01*
X15267Y-26575D01*
X15153Y-26495D01*
X15060Y-26399D01*
X14985Y-26282D01*
X14936Y-26158D01*
X14910Y-26021D01*
X14912Y-25888D01*
X14941Y-25751D01*
X14994Y-25629D01*
X15073Y-25514D01*
X15168Y-25421D01*
X15285Y-25344D01*
X15408Y-25294D01*
X15545Y-25268D01*
X15678Y-25269D01*
X15815Y-25297D01*
X15937Y-25349D01*
X16053Y-25427D01*
X16147Y-25521D01*
X16224Y-25638D01*
X16275Y-25760D01*
X16275Y-25762D01*
X16302Y-25897D01*
X16302Y-25897D01*
G37*
G36*
X16302Y-27433D02*
X16300Y-27586D01*
X16269Y-27721D01*
X16215Y-27843D01*
X16134Y-27957D01*
X16038Y-28049D01*
X15920Y-28124D01*
X15796Y-28172D01*
X15659Y-28196D01*
X15525Y-28193D01*
X15389Y-28163D01*
X15267Y-28110D01*
X15153Y-28030D01*
X15060Y-27935D01*
X14985Y-27817D01*
X14936Y-27694D01*
X14910Y-27556D01*
X14912Y-27423D01*
X14941Y-27287D01*
X14994Y-27164D01*
X15073Y-27049D01*
X15168Y-26956D01*
X15285Y-26880D01*
X15408Y-26830D01*
X15545Y-26804D01*
X15678Y-26805D01*
X15815Y-26833D01*
X15937Y-26884D01*
X16053Y-26962D01*
X16147Y-27057D01*
X16224Y-27173D01*
X16275Y-27296D01*
X16275Y-27298D01*
X16302Y-27433D01*
X16302Y-27433D01*
G37*
G36*
X16302Y-28968D02*
X16300Y-29121D01*
X16269Y-29257D01*
X16215Y-29379D01*
X16134Y-29492D01*
X16038Y-29584D01*
X15920Y-29659D01*
X15796Y-29707D01*
X15659Y-29732D01*
X15525Y-29729D01*
X15389Y-29699D01*
X15267Y-29645D01*
X15153Y-29566D01*
X15060Y-29470D01*
X14985Y-29353D01*
X14936Y-29229D01*
X14910Y-29092D01*
X14912Y-28959D01*
X14941Y-28822D01*
X14994Y-28700D01*
X15073Y-28585D01*
X15168Y-28492D01*
X15285Y-28415D01*
X15408Y-28365D01*
X15545Y-28339D01*
X15678Y-28340D01*
X15815Y-28368D01*
X15937Y-28420D01*
X16053Y-28498D01*
X16147Y-28592D01*
X16224Y-28709D01*
X16275Y-28831D01*
X16275Y-28833D01*
X16302Y-28968D01*
X16302Y-28968D01*
G37*
G36*
X16471Y-17486D02*
X16471Y-17501D01*
X16470Y-17505D01*
X16470Y-17505D01*
X16447Y-17715D01*
X16447Y-17715D01*
X16447Y-17715D01*
X16383Y-17916D01*
X16281Y-18102D01*
X16145Y-18263D01*
X15980Y-18396D01*
X15793Y-18494D01*
X15590Y-18553D01*
X15380Y-18573D01*
X15169Y-18551D01*
X14968Y-18488D01*
X14782Y-18387D01*
X14619Y-18253D01*
X14485Y-18089D01*
X14386Y-17902D01*
X14325Y-17700D01*
X14304Y-17486D01*
X14304Y-15940D01*
X14304Y-15925D01*
X14304Y-15921D01*
X14304Y-15921D01*
X14328Y-15711D01*
X14328Y-15711D01*
X14328Y-15711D01*
X14392Y-15510D01*
X14494Y-15324D01*
X14629Y-15162D01*
X14794Y-15030D01*
X14981Y-14932D01*
X15185Y-14872D01*
X15395Y-14853D01*
X15605Y-14875D01*
X15807Y-14938D01*
X15993Y-15038D01*
X16156Y-15173D01*
X16289Y-15337D01*
X16389Y-15523D01*
X16450Y-15726D01*
X16471Y-15940D01*
X16471Y-17486D01*
X16471Y-17486D01*
G37*
G36*
X16471Y-21659D02*
X16471Y-21674D01*
X16470Y-21678D01*
X16470Y-21678D01*
X16447Y-21888D01*
X16447Y-21888D01*
X16447Y-21888D01*
X16383Y-22089D01*
X16281Y-22275D01*
X16145Y-22437D01*
X15980Y-22569D01*
X15793Y-22667D01*
X15590Y-22727D01*
X15380Y-22746D01*
X15169Y-22724D01*
X14968Y-22661D01*
X14782Y-22561D01*
X14619Y-22426D01*
X14485Y-22262D01*
X14386Y-22076D01*
X14325Y-21873D01*
X14304Y-21659D01*
X14304Y-20113D01*
X14304Y-20098D01*
X14304Y-20094D01*
X14304Y-20094D01*
X14328Y-19884D01*
X14328Y-19884D01*
X14328Y-19884D01*
X14392Y-19683D01*
X14494Y-19497D01*
X14629Y-19336D01*
X14794Y-19203D01*
X14981Y-19105D01*
X15185Y-19046D01*
X15395Y-19026D01*
X15605Y-19048D01*
X15807Y-19111D01*
X15993Y-19212D01*
X16156Y-19346D01*
X16289Y-19510D01*
X16389Y-19697D01*
X16450Y-19899D01*
X16471Y-20113D01*
X16471Y-21659D01*
X16471Y-21659D01*
G37*
G36*
X16494Y-38208D02*
X16493Y-38303D01*
X16473Y-38388D01*
X16440Y-38463D01*
X16389Y-38535D01*
X16330Y-38592D01*
X16256Y-38639D01*
X16179Y-38669D01*
X16092Y-38684D01*
X16010Y-38682D01*
X15924Y-38663D01*
X15849Y-38631D01*
X15777Y-38580D01*
X15720Y-38521D01*
X15672Y-38447D01*
X15642Y-38371D01*
X15626Y-38284D01*
X15627Y-38203D01*
X15646Y-38116D01*
X15678Y-38041D01*
X15728Y-37968D01*
X15786Y-37911D01*
X15860Y-37863D01*
X15936Y-37832D01*
X16023Y-37815D01*
X16104Y-37816D01*
X16191Y-37834D01*
X16266Y-37865D01*
X16340Y-37915D01*
X16397Y-37973D01*
X16446Y-38047D01*
X16477Y-38122D01*
X16494Y-38208D01*
X16494Y-38208D01*
G37*
G36*
X17320Y-42230D02*
X17318Y-42389D01*
X17286Y-42529D01*
X17229Y-42656D01*
X17146Y-42773D01*
X17046Y-42869D01*
X16924Y-42946D01*
X16796Y-42996D01*
X16653Y-43021D01*
X16515Y-43018D01*
X16374Y-42987D01*
X16248Y-42932D01*
X16129Y-42850D01*
X16033Y-42750D01*
X15955Y-42629D01*
X15904Y-42501D01*
X15878Y-42358D01*
X15880Y-42221D01*
X15910Y-42079D01*
X15965Y-41952D01*
X16046Y-41833D01*
X16145Y-41737D01*
X16266Y-41657D01*
X16393Y-41606D01*
X16536Y-41579D01*
X16673Y-41580D01*
X16815Y-41609D01*
X16942Y-41662D01*
X17062Y-41743D01*
X17159Y-41841D01*
X17239Y-41961D01*
X17292Y-42088D01*
X17320Y-42230D01*
X17320Y-42230D01*
G37*
G36*
X17820Y-7470D02*
X17819Y-7538D01*
X17804Y-7602D01*
X17780Y-7657D01*
X17742Y-7711D01*
X17699Y-7752D01*
X17643Y-7787D01*
X17587Y-7809D01*
X17523Y-7820D01*
X17463Y-7819D01*
X17399Y-7805D01*
X17344Y-7781D01*
X17290Y-7743D01*
X17248Y-7701D01*
X17213Y-7645D01*
X17191Y-7590D01*
X17179Y-7525D01*
X17180Y-7465D01*
X17193Y-7401D01*
X17217Y-7346D01*
X17254Y-7291D01*
X17297Y-7250D01*
X17352Y-7214D01*
X17407Y-7191D01*
X17472Y-7179D01*
X17531Y-7179D01*
X17596Y-7193D01*
X17651Y-7216D01*
X17706Y-7253D01*
X17748Y-7295D01*
X17784Y-7350D01*
X17807Y-7405D01*
X17820Y-7470D01*
X17820Y-7470D01*
G37*
G36*
X17820Y-8820D02*
X17179Y-8820D01*
X17179Y-8179D01*
X17820Y-8179D01*
X17820Y-8820D01*
X17820Y-8820D01*
G37*
G36*
X17872Y-38208D02*
X17871Y-38303D01*
X17851Y-38388D01*
X17818Y-38463D01*
X17767Y-38535D01*
X17708Y-38592D01*
X17634Y-38639D01*
X17557Y-38669D01*
X17470Y-38684D01*
X17388Y-38682D01*
X17302Y-38663D01*
X17227Y-38631D01*
X17155Y-38580D01*
X17098Y-38521D01*
X17050Y-38447D01*
X17020Y-38371D01*
X17004Y-38284D01*
X17005Y-38203D01*
X17024Y-38116D01*
X17056Y-38041D01*
X17106Y-37968D01*
X17164Y-37911D01*
X17238Y-37863D01*
X17314Y-37832D01*
X17401Y-37815D01*
X17482Y-37816D01*
X17569Y-37834D01*
X17644Y-37865D01*
X17718Y-37915D01*
X17775Y-37973D01*
X17824Y-38047D01*
X17855Y-38122D01*
X17872Y-38208D01*
X17872Y-38208D01*
G37*
G36*
X18820Y-7470D02*
X18819Y-7538D01*
X18804Y-7602D01*
X18780Y-7657D01*
X18742Y-7711D01*
X18699Y-7752D01*
X18643Y-7787D01*
X18587Y-7809D01*
X18523Y-7820D01*
X18463Y-7819D01*
X18399Y-7805D01*
X18344Y-7781D01*
X18290Y-7743D01*
X18248Y-7701D01*
X18213Y-7645D01*
X18191Y-7590D01*
X18179Y-7525D01*
X18180Y-7465D01*
X18193Y-7401D01*
X18217Y-7346D01*
X18254Y-7291D01*
X18297Y-7250D01*
X18352Y-7214D01*
X18407Y-7191D01*
X18472Y-7179D01*
X18531Y-7179D01*
X18596Y-7193D01*
X18651Y-7216D01*
X18706Y-7253D01*
X18748Y-7295D01*
X18784Y-7350D01*
X18807Y-7405D01*
X18820Y-7470D01*
X18820Y-7470D01*
G37*
G36*
X18820Y-8470D02*
X18819Y-8538D01*
X18804Y-8602D01*
X18780Y-8657D01*
X18742Y-8711D01*
X18699Y-8752D01*
X18643Y-8787D01*
X18587Y-8809D01*
X18523Y-8820D01*
X18463Y-8819D01*
X18399Y-8805D01*
X18344Y-8781D01*
X18290Y-8743D01*
X18248Y-8701D01*
X18213Y-8645D01*
X18191Y-8590D01*
X18179Y-8525D01*
X18180Y-8465D01*
X18193Y-8401D01*
X18217Y-8346D01*
X18254Y-8291D01*
X18297Y-8250D01*
X18352Y-8214D01*
X18407Y-8191D01*
X18472Y-8179D01*
X18531Y-8179D01*
X18596Y-8193D01*
X18651Y-8216D01*
X18706Y-8253D01*
X18748Y-8295D01*
X18784Y-8350D01*
X18807Y-8405D01*
X18820Y-8470D01*
X18820Y-8470D01*
G37*
G36*
X19250Y-38208D02*
X19249Y-38303D01*
X19229Y-38388D01*
X19196Y-38463D01*
X19145Y-38535D01*
X19086Y-38592D01*
X19011Y-38639D01*
X18935Y-38669D01*
X18848Y-38684D01*
X18766Y-38682D01*
X18680Y-38663D01*
X18605Y-38631D01*
X18533Y-38580D01*
X18476Y-38521D01*
X18428Y-38447D01*
X18398Y-38371D01*
X18382Y-38284D01*
X18383Y-38203D01*
X18402Y-38116D01*
X18434Y-38041D01*
X18484Y-37968D01*
X18542Y-37911D01*
X18616Y-37863D01*
X18692Y-37832D01*
X18779Y-37815D01*
X18860Y-37816D01*
X18947Y-37834D01*
X19022Y-37865D01*
X19096Y-37915D01*
X19153Y-37973D01*
X19202Y-38047D01*
X19233Y-38122D01*
X19250Y-38208D01*
X19250Y-38208D01*
G37*
G36*
X19820Y-7470D02*
X19819Y-7538D01*
X19804Y-7602D01*
X19780Y-7657D01*
X19742Y-7711D01*
X19699Y-7752D01*
X19643Y-7787D01*
X19587Y-7809D01*
X19523Y-7820D01*
X19463Y-7819D01*
X19399Y-7805D01*
X19344Y-7781D01*
X19290Y-7743D01*
X19248Y-7701D01*
X19213Y-7645D01*
X19191Y-7590D01*
X19179Y-7525D01*
X19180Y-7465D01*
X19193Y-7401D01*
X19217Y-7346D01*
X19254Y-7291D01*
X19297Y-7250D01*
X19352Y-7214D01*
X19407Y-7191D01*
X19472Y-7179D01*
X19531Y-7179D01*
X19596Y-7193D01*
X19651Y-7216D01*
X19706Y-7253D01*
X19748Y-7295D01*
X19784Y-7350D01*
X19807Y-7405D01*
X19820Y-7470D01*
X19820Y-7470D01*
G37*
G36*
X19820Y-8470D02*
X19819Y-8538D01*
X19804Y-8602D01*
X19780Y-8657D01*
X19742Y-8711D01*
X19699Y-8752D01*
X19643Y-8787D01*
X19587Y-8809D01*
X19523Y-8820D01*
X19463Y-8819D01*
X19399Y-8805D01*
X19344Y-8781D01*
X19290Y-8743D01*
X19248Y-8701D01*
X19213Y-8645D01*
X19191Y-8590D01*
X19179Y-8525D01*
X19180Y-8465D01*
X19193Y-8401D01*
X19217Y-8346D01*
X19254Y-8291D01*
X19297Y-8250D01*
X19352Y-8214D01*
X19407Y-8191D01*
X19472Y-8179D01*
X19531Y-8179D01*
X19596Y-8193D01*
X19651Y-8216D01*
X19706Y-8253D01*
X19748Y-8295D01*
X19784Y-8350D01*
X19807Y-8405D01*
X19820Y-8470D01*
X19820Y-8470D01*
G37*
G36*
X21233Y-38068D02*
X21232Y-38140D01*
X21217Y-38207D01*
X21191Y-38265D01*
X21152Y-38321D01*
X21106Y-38364D01*
X21048Y-38401D01*
X20990Y-38423D01*
X20922Y-38435D01*
X20860Y-38434D01*
X20792Y-38419D01*
X20735Y-38394D01*
X20678Y-38355D01*
X20635Y-38310D01*
X20598Y-38252D01*
X20575Y-38194D01*
X20562Y-38126D01*
X20563Y-38064D01*
X20577Y-37996D01*
X20602Y-37939D01*
X20641Y-37882D01*
X20686Y-37838D01*
X20743Y-37800D01*
X20801Y-37777D01*
X20869Y-37764D01*
X20931Y-37764D01*
X20999Y-37778D01*
X21056Y-37802D01*
X21114Y-37841D01*
X21158Y-37885D01*
X21196Y-37943D01*
X21220Y-38000D01*
X21233Y-38067D01*
X21233Y-38068D01*
X21233Y-38068D01*
G37*
G36*
X21400Y-12721D02*
X21397Y-12901D01*
X21361Y-13061D01*
X21297Y-13205D01*
X21202Y-13339D01*
X21088Y-13448D01*
X20950Y-13536D01*
X20803Y-13593D01*
X20641Y-13621D01*
X20483Y-13618D01*
X20323Y-13583D01*
X20179Y-13520D01*
X20044Y-13426D01*
X19935Y-13313D01*
X19846Y-13175D01*
X19788Y-13028D01*
X19758Y-12867D01*
X19760Y-12709D01*
X19794Y-12549D01*
X19856Y-12404D01*
X19949Y-12268D01*
X20062Y-12158D01*
X20199Y-12068D01*
X20345Y-12009D01*
X20507Y-11979D01*
X20664Y-11980D01*
X20825Y-12013D01*
X20970Y-12074D01*
X21106Y-12166D01*
X21217Y-12277D01*
X21308Y-12414D01*
X21368Y-12559D01*
X21400Y-12721D01*
X21400Y-12721D01*
G37*
G36*
X21695Y-7072D02*
X21694Y-7135D01*
X21680Y-7194D01*
X21658Y-7245D01*
X21623Y-7294D01*
X21583Y-7332D01*
X21532Y-7365D01*
X21481Y-7385D01*
X21421Y-7395D01*
X21366Y-7394D01*
X21306Y-7381D01*
X21256Y-7359D01*
X21206Y-7324D01*
X21168Y-7285D01*
X21135Y-7234D01*
X21115Y-7183D01*
X21104Y-7123D01*
X21105Y-7068D01*
X21117Y-7008D01*
X21139Y-6958D01*
X21173Y-6908D01*
X21212Y-6869D01*
X21264Y-6836D01*
X21314Y-6815D01*
X21374Y-6804D01*
X21429Y-6804D01*
X21489Y-6817D01*
X21539Y-6838D01*
X21590Y-6872D01*
X21628Y-6911D01*
X21662Y-6962D01*
X21683Y-7012D01*
X21683Y-7014D01*
X21695Y-7071D01*
X21695Y-7072D01*
X21695Y-7072D01*
G37*
G36*
X21695Y-8072D02*
X21694Y-8135D01*
X21680Y-8194D01*
X21658Y-8245D01*
X21623Y-8294D01*
X21583Y-8332D01*
X21532Y-8365D01*
X21481Y-8385D01*
X21421Y-8395D01*
X21366Y-8394D01*
X21306Y-8381D01*
X21256Y-8359D01*
X21206Y-8324D01*
X21168Y-8285D01*
X21135Y-8234D01*
X21115Y-8183D01*
X21104Y-8123D01*
X21105Y-8068D01*
X21117Y-8008D01*
X21139Y-7958D01*
X21173Y-7908D01*
X21212Y-7869D01*
X21264Y-7836D01*
X21314Y-7815D01*
X21374Y-7804D01*
X21429Y-7804D01*
X21489Y-7817D01*
X21539Y-7838D01*
X21590Y-7872D01*
X21628Y-7911D01*
X21662Y-7962D01*
X21683Y-8012D01*
X21683Y-8014D01*
X21695Y-8071D01*
X21695Y-8072D01*
X21695Y-8072D01*
G37*
G36*
X21695Y-31072D02*
X21694Y-31135D01*
X21680Y-31194D01*
X21658Y-31245D01*
X21623Y-31294D01*
X21583Y-31332D01*
X21532Y-31365D01*
X21481Y-31385D01*
X21421Y-31395D01*
X21366Y-31394D01*
X21306Y-31381D01*
X21256Y-31359D01*
X21206Y-31324D01*
X21168Y-31285D01*
X21135Y-31234D01*
X21115Y-31183D01*
X21104Y-31123D01*
X21105Y-31068D01*
X21117Y-31008D01*
X21139Y-30958D01*
X21173Y-30908D01*
X21212Y-30869D01*
X21264Y-30836D01*
X21314Y-30815D01*
X21374Y-30804D01*
X21429Y-30804D01*
X21489Y-30817D01*
X21539Y-30838D01*
X21590Y-30872D01*
X21628Y-30911D01*
X21662Y-30962D01*
X21683Y-31012D01*
X21683Y-31014D01*
X21695Y-31071D01*
X21695Y-31072D01*
X21695Y-31072D01*
G37*
G36*
X21695Y-32072D02*
X21694Y-32135D01*
X21680Y-32194D01*
X21658Y-32245D01*
X21623Y-32294D01*
X21583Y-32332D01*
X21532Y-32365D01*
X21481Y-32385D01*
X21421Y-32395D01*
X21366Y-32394D01*
X21306Y-32381D01*
X21256Y-32359D01*
X21206Y-32324D01*
X21168Y-32285D01*
X21135Y-32234D01*
X21115Y-32183D01*
X21104Y-32123D01*
X21105Y-32068D01*
X21117Y-32008D01*
X21139Y-31958D01*
X21173Y-31908D01*
X21212Y-31869D01*
X21264Y-31836D01*
X21314Y-31815D01*
X21374Y-31804D01*
X21429Y-31804D01*
X21489Y-31817D01*
X21539Y-31838D01*
X21590Y-31872D01*
X21628Y-31911D01*
X21662Y-31962D01*
X21683Y-32012D01*
X21683Y-32014D01*
X21695Y-32071D01*
X21695Y-32072D01*
X21695Y-32072D01*
G37*
G36*
X21695Y-33072D02*
X21694Y-33135D01*
X21680Y-33194D01*
X21658Y-33245D01*
X21623Y-33294D01*
X21583Y-33332D01*
X21532Y-33365D01*
X21481Y-33385D01*
X21421Y-33395D01*
X21366Y-33394D01*
X21306Y-33381D01*
X21256Y-33359D01*
X21206Y-33324D01*
X21168Y-33285D01*
X21135Y-33234D01*
X21115Y-33183D01*
X21104Y-33123D01*
X21105Y-33068D01*
X21117Y-33008D01*
X21139Y-32958D01*
X21173Y-32908D01*
X21212Y-32869D01*
X21264Y-32836D01*
X21314Y-32815D01*
X21374Y-32804D01*
X21429Y-32804D01*
X21489Y-32817D01*
X21539Y-32838D01*
X21590Y-32872D01*
X21628Y-32911D01*
X21662Y-32962D01*
X21683Y-33012D01*
X21683Y-33014D01*
X21695Y-33071D01*
X21695Y-33072D01*
X21695Y-33072D01*
G37*
G36*
X21695Y-34072D02*
X21694Y-34135D01*
X21680Y-34194D01*
X21658Y-34245D01*
X21623Y-34294D01*
X21583Y-34332D01*
X21532Y-34365D01*
X21481Y-34385D01*
X21421Y-34395D01*
X21366Y-34394D01*
X21306Y-34381D01*
X21256Y-34359D01*
X21206Y-34324D01*
X21168Y-34285D01*
X21135Y-34234D01*
X21115Y-34183D01*
X21104Y-34123D01*
X21105Y-34068D01*
X21117Y-34008D01*
X21139Y-33958D01*
X21173Y-33908D01*
X21212Y-33869D01*
X21264Y-33836D01*
X21314Y-33815D01*
X21374Y-33804D01*
X21429Y-33804D01*
X21489Y-33817D01*
X21539Y-33838D01*
X21590Y-33872D01*
X21628Y-33911D01*
X21662Y-33962D01*
X21683Y-34012D01*
X21683Y-34014D01*
X21695Y-34071D01*
X21695Y-34072D01*
X21695Y-34072D01*
G37*
G36*
X21695Y-35072D02*
X21694Y-35135D01*
X21680Y-35194D01*
X21658Y-35245D01*
X21623Y-35294D01*
X21583Y-35332D01*
X21532Y-35365D01*
X21481Y-35385D01*
X21421Y-35395D01*
X21366Y-35394D01*
X21306Y-35381D01*
X21256Y-35359D01*
X21206Y-35324D01*
X21168Y-35285D01*
X21135Y-35234D01*
X21115Y-35183D01*
X21104Y-35123D01*
X21105Y-35068D01*
X21117Y-35008D01*
X21139Y-34958D01*
X21173Y-34908D01*
X21212Y-34869D01*
X21264Y-34836D01*
X21314Y-34815D01*
X21374Y-34804D01*
X21429Y-34804D01*
X21489Y-34817D01*
X21539Y-34838D01*
X21590Y-34872D01*
X21628Y-34911D01*
X21662Y-34962D01*
X21683Y-35012D01*
X21683Y-35014D01*
X21695Y-35071D01*
X21695Y-35072D01*
X21695Y-35072D01*
G37*
G36*
X21695Y-36395D02*
X21104Y-36395D01*
X21104Y-35804D01*
X21695Y-35804D01*
X21695Y-36395D01*
X21695Y-36395D01*
G37*
G36*
X22021Y-37580D02*
X22020Y-37643D01*
X22006Y-37703D01*
X21984Y-37753D01*
X21949Y-37803D01*
X21909Y-37841D01*
X21857Y-37873D01*
X21806Y-37893D01*
X21746Y-37904D01*
X21691Y-37903D01*
X21631Y-37890D01*
X21581Y-37868D01*
X21531Y-37833D01*
X21493Y-37793D01*
X21460Y-37742D01*
X21439Y-37691D01*
X21428Y-37631D01*
X21429Y-37576D01*
X21442Y-37516D01*
X21463Y-37466D01*
X21498Y-37415D01*
X21537Y-37377D01*
X21589Y-37343D01*
X21639Y-37323D01*
X21700Y-37311D01*
X21754Y-37312D01*
X21814Y-37324D01*
X21864Y-37345D01*
X21916Y-37380D01*
X21954Y-37418D01*
X21988Y-37470D01*
X22009Y-37520D01*
X22021Y-37580D01*
X22021Y-37580D01*
G37*
G36*
X22021Y-38888D02*
X21429Y-38888D01*
X21429Y-38296D01*
X22021Y-38296D01*
X22021Y-38888D01*
X22021Y-38888D01*
G37*
G36*
X22995Y-31120D02*
X22404Y-31120D01*
X22404Y-30729D01*
X22995Y-30729D01*
X22995Y-31120D01*
X22995Y-31120D01*
G37*
G36*
X22995Y-31870D02*
X22404Y-31870D01*
X22404Y-31479D01*
X22995Y-31479D01*
X22995Y-31870D01*
X22995Y-31870D01*
G37*
G36*
X22995Y-32820D02*
X22404Y-32820D01*
X22404Y-32429D01*
X22995Y-32429D01*
X22995Y-32820D01*
X22995Y-32820D01*
G37*
G36*
X22995Y-33570D02*
X22404Y-33570D01*
X22404Y-33179D01*
X22995Y-33179D01*
X22995Y-33570D01*
X22995Y-33570D01*
G37*
G36*
X23595Y-37580D02*
X23595Y-37643D01*
X23581Y-37703D01*
X23559Y-37753D01*
X23523Y-37803D01*
X23484Y-37841D01*
X23432Y-37873D01*
X23381Y-37893D01*
X23321Y-37904D01*
X23266Y-37903D01*
X23206Y-37890D01*
X23156Y-37868D01*
X23106Y-37833D01*
X23068Y-37793D01*
X23034Y-37742D01*
X23014Y-37691D01*
X23003Y-37631D01*
X23004Y-37576D01*
X23017Y-37516D01*
X23038Y-37466D01*
X23073Y-37415D01*
X23112Y-37377D01*
X23163Y-37343D01*
X23214Y-37323D01*
X23274Y-37311D01*
X23329Y-37312D01*
X23389Y-37324D01*
X23439Y-37345D01*
X23490Y-37380D01*
X23529Y-37418D01*
X23563Y-37470D01*
X23583Y-37520D01*
X23595Y-37580D01*
X23595Y-37580D01*
G37*
G36*
X23595Y-38564D02*
X23595Y-38627D01*
X23581Y-38687D01*
X23559Y-38737D01*
X23523Y-38787D01*
X23484Y-38825D01*
X23432Y-38858D01*
X23381Y-38877D01*
X23321Y-38888D01*
X23266Y-38887D01*
X23206Y-38874D01*
X23156Y-38852D01*
X23106Y-38817D01*
X23068Y-38777D01*
X23034Y-38726D01*
X23014Y-38675D01*
X23003Y-38615D01*
X23004Y-38560D01*
X23017Y-38500D01*
X23038Y-38450D01*
X23073Y-38399D01*
X23112Y-38361D01*
X23163Y-38327D01*
X23214Y-38307D01*
X23274Y-38295D01*
X23329Y-38296D01*
X23389Y-38308D01*
X23439Y-38329D01*
X23490Y-38364D01*
X23529Y-38402D01*
X23563Y-38454D01*
X23583Y-38504D01*
X23595Y-38564D01*
X23595Y-38564D01*
G37*
G36*
X23784Y-31102D02*
X23349Y-31102D01*
X23349Y-30747D01*
X23784Y-30747D01*
X23784Y-31102D01*
X23784Y-31102D01*
G37*
G36*
X23784Y-31852D02*
X23349Y-31852D01*
X23349Y-31497D01*
X23784Y-31497D01*
X23784Y-31852D01*
X23784Y-31852D01*
G37*
G36*
X23784Y-32802D02*
X23349Y-32802D01*
X23349Y-32447D01*
X23784Y-32447D01*
X23784Y-32802D01*
X23784Y-32802D01*
G37*
G36*
X23784Y-33552D02*
X23349Y-33552D01*
X23349Y-33197D01*
X23784Y-33197D01*
X23784Y-33552D01*
X23784Y-33552D01*
G37*
G36*
X23820Y-6970D02*
X23819Y-7038D01*
X23804Y-7102D01*
X23780Y-7157D01*
X23742Y-7211D01*
X23699Y-7252D01*
X23643Y-7287D01*
X23587Y-7309D01*
X23523Y-7320D01*
X23463Y-7319D01*
X23399Y-7305D01*
X23344Y-7281D01*
X23290Y-7243D01*
X23248Y-7201D01*
X23213Y-7145D01*
X23191Y-7090D01*
X23179Y-7025D01*
X23180Y-6965D01*
X23193Y-6901D01*
X23217Y-6846D01*
X23254Y-6791D01*
X23297Y-6750D01*
X23352Y-6714D01*
X23407Y-6691D01*
X23472Y-6679D01*
X23531Y-6679D01*
X23596Y-6693D01*
X23651Y-6716D01*
X23706Y-6753D01*
X23748Y-6795D01*
X23784Y-6850D01*
X23807Y-6905D01*
X23820Y-6970D01*
X23820Y-6970D01*
G37*
G36*
X23820Y-8320D02*
X23179Y-8320D01*
X23179Y-7679D01*
X23820Y-7679D01*
X23820Y-8320D01*
X23820Y-8320D01*
G37*
G36*
X24095Y-23820D02*
X23504Y-23820D01*
X23504Y-23429D01*
X24095Y-23429D01*
X24095Y-23820D01*
X24095Y-23820D01*
G37*
G36*
X24095Y-24570D02*
X23504Y-24570D01*
X23504Y-24179D01*
X24095Y-24179D01*
X24095Y-24570D01*
X24095Y-24570D01*
G37*
G36*
X24095Y-25420D02*
X23504Y-25420D01*
X23504Y-25029D01*
X24095Y-25029D01*
X24095Y-25420D01*
X24095Y-25420D01*
G37*
G36*
X24095Y-26170D02*
X23504Y-26170D01*
X23504Y-25779D01*
X24095Y-25779D01*
X24095Y-26170D01*
X24095Y-26170D01*
G37*
G36*
X24128Y-18018D02*
X24127Y-18086D01*
X24113Y-18149D01*
X24089Y-18203D01*
X24052Y-18256D01*
X24009Y-18297D01*
X23954Y-18331D01*
X23899Y-18353D01*
X23835Y-18364D01*
X23776Y-18363D01*
X23713Y-18349D01*
X23659Y-18325D01*
X23606Y-18288D01*
X23565Y-18246D01*
X23530Y-18191D01*
X23508Y-18137D01*
X23496Y-18072D01*
X23497Y-18014D01*
X23511Y-17950D01*
X23534Y-17896D01*
X23571Y-17842D01*
X23612Y-17801D01*
X23667Y-17766D01*
X23721Y-17744D01*
X23786Y-17731D01*
X23844Y-17732D01*
X23908Y-17745D01*
X23962Y-17768D01*
X24016Y-17804D01*
X24057Y-17846D01*
X24093Y-17900D01*
X24116Y-17954D01*
X24128Y-18018D01*
X24128Y-18018D01*
G37*
G36*
X24128Y-18770D02*
X24127Y-18838D01*
X24113Y-18901D01*
X24089Y-18955D01*
X24052Y-19008D01*
X24009Y-19049D01*
X23954Y-19083D01*
X23899Y-19105D01*
X23835Y-19116D01*
X23776Y-19115D01*
X23713Y-19101D01*
X23659Y-19077D01*
X23606Y-19040D01*
X23565Y-18998D01*
X23530Y-18943D01*
X23508Y-18889D01*
X23496Y-18824D01*
X23497Y-18766D01*
X23511Y-18702D01*
X23534Y-18648D01*
X23571Y-18594D01*
X23612Y-18553D01*
X23667Y-18518D01*
X23721Y-18496D01*
X23786Y-18483D01*
X23844Y-18484D01*
X23908Y-18497D01*
X23962Y-18520D01*
X24016Y-18556D01*
X24057Y-18598D01*
X24093Y-18652D01*
X24116Y-18706D01*
X24128Y-18770D01*
X24128Y-18770D01*
G37*
G36*
X24128Y-19522D02*
X24127Y-19590D01*
X24113Y-19653D01*
X24089Y-19707D01*
X24052Y-19760D01*
X24009Y-19801D01*
X23954Y-19835D01*
X23899Y-19857D01*
X23835Y-19868D01*
X23776Y-19867D01*
X23713Y-19853D01*
X23659Y-19829D01*
X23606Y-19792D01*
X23565Y-19750D01*
X23530Y-19695D01*
X23508Y-19641D01*
X23496Y-19576D01*
X23497Y-19518D01*
X23511Y-19454D01*
X23534Y-19400D01*
X23571Y-19346D01*
X23612Y-19305D01*
X23667Y-19270D01*
X23721Y-19248D01*
X23786Y-19235D01*
X23844Y-19236D01*
X23908Y-19249D01*
X23962Y-19272D01*
X24016Y-19308D01*
X24057Y-19350D01*
X24093Y-19404D01*
X24116Y-19458D01*
X24128Y-19522D01*
X24128Y-19522D01*
G37*
G36*
X24383Y-37580D02*
X24382Y-37643D01*
X24368Y-37703D01*
X24346Y-37753D01*
X24311Y-37803D01*
X24271Y-37841D01*
X24220Y-37873D01*
X24168Y-37893D01*
X24108Y-37904D01*
X24053Y-37903D01*
X23994Y-37890D01*
X23943Y-37868D01*
X23893Y-37833D01*
X23855Y-37793D01*
X23822Y-37742D01*
X23802Y-37691D01*
X23791Y-37631D01*
X23791Y-37576D01*
X23804Y-37516D01*
X23826Y-37466D01*
X23860Y-37415D01*
X23899Y-37377D01*
X23951Y-37343D01*
X24001Y-37323D01*
X24062Y-37311D01*
X24116Y-37312D01*
X24177Y-37324D01*
X24227Y-37345D01*
X24278Y-37380D01*
X24316Y-37418D01*
X24350Y-37470D01*
X24371Y-37520D01*
X24383Y-37580D01*
X24383Y-37580D01*
G37*
G36*
X24383Y-38564D02*
X24382Y-38627D01*
X24368Y-38687D01*
X24346Y-38737D01*
X24311Y-38787D01*
X24271Y-38825D01*
X24220Y-38858D01*
X24168Y-38877D01*
X24108Y-38888D01*
X24053Y-38887D01*
X23994Y-38874D01*
X23943Y-38852D01*
X23893Y-38817D01*
X23855Y-38777D01*
X23822Y-38726D01*
X23802Y-38675D01*
X23791Y-38615D01*
X23791Y-38560D01*
X23804Y-38500D01*
X23826Y-38450D01*
X23860Y-38399D01*
X23899Y-38361D01*
X23951Y-38327D01*
X24001Y-38307D01*
X24062Y-38295D01*
X24116Y-38296D01*
X24177Y-38308D01*
X24227Y-38329D01*
X24278Y-38364D01*
X24316Y-38402D01*
X24350Y-38454D01*
X24371Y-38504D01*
X24383Y-38564D01*
X24383Y-38564D01*
G37*
G36*
X24650Y-31477D02*
X24215Y-31477D01*
X24215Y-31122D01*
X24650Y-31122D01*
X24650Y-31477D01*
X24650Y-31477D01*
G37*
G36*
X24650Y-33177D02*
X24215Y-33177D01*
X24215Y-32822D01*
X24650Y-32822D01*
X24650Y-33177D01*
X24650Y-33177D01*
G37*
G36*
X24820Y-6970D02*
X24819Y-7038D01*
X24804Y-7102D01*
X24780Y-7157D01*
X24742Y-7211D01*
X24699Y-7252D01*
X24643Y-7287D01*
X24587Y-7309D01*
X24523Y-7320D01*
X24463Y-7319D01*
X24399Y-7305D01*
X24344Y-7281D01*
X24290Y-7243D01*
X24248Y-7201D01*
X24213Y-7145D01*
X24191Y-7090D01*
X24179Y-7025D01*
X24180Y-6965D01*
X24193Y-6901D01*
X24217Y-6846D01*
X24254Y-6791D01*
X24297Y-6750D01*
X24352Y-6714D01*
X24407Y-6691D01*
X24472Y-6679D01*
X24531Y-6679D01*
X24596Y-6693D01*
X24651Y-6716D01*
X24706Y-6753D01*
X24748Y-6795D01*
X24784Y-6850D01*
X24807Y-6905D01*
X24820Y-6970D01*
X24820Y-6970D01*
G37*
G36*
X24820Y-7970D02*
X24819Y-8038D01*
X24804Y-8102D01*
X24780Y-8157D01*
X24742Y-8211D01*
X24699Y-8252D01*
X24643Y-8287D01*
X24587Y-8309D01*
X24523Y-8320D01*
X24463Y-8319D01*
X24399Y-8305D01*
X24344Y-8281D01*
X24290Y-8243D01*
X24248Y-8201D01*
X24213Y-8145D01*
X24191Y-8090D01*
X24179Y-8025D01*
X24180Y-7965D01*
X24193Y-7901D01*
X24217Y-7846D01*
X24254Y-7791D01*
X24297Y-7750D01*
X24352Y-7714D01*
X24407Y-7691D01*
X24472Y-7679D01*
X24531Y-7679D01*
X24596Y-7693D01*
X24651Y-7716D01*
X24706Y-7753D01*
X24748Y-7795D01*
X24784Y-7850D01*
X24807Y-7905D01*
X24820Y-7970D01*
X24820Y-7970D01*
G37*
G36*
X24895Y-18220D02*
X24304Y-18220D01*
X24304Y-17829D01*
X24895Y-17829D01*
X24895Y-18220D01*
X24895Y-18220D01*
G37*
G36*
X24895Y-18970D02*
X24304Y-18970D01*
X24304Y-18579D01*
X24895Y-18579D01*
X24895Y-18970D01*
X24895Y-18970D01*
G37*
G36*
X25170Y-37580D02*
X25169Y-37643D01*
X25156Y-37703D01*
X25133Y-37753D01*
X25098Y-37803D01*
X25058Y-37841D01*
X25007Y-37873D01*
X24956Y-37893D01*
X24896Y-37904D01*
X24841Y-37903D01*
X24781Y-37890D01*
X24731Y-37868D01*
X24680Y-37833D01*
X24642Y-37793D01*
X24609Y-37742D01*
X24589Y-37691D01*
X24578Y-37631D01*
X24579Y-37576D01*
X24592Y-37516D01*
X24613Y-37466D01*
X24648Y-37415D01*
X24687Y-37377D01*
X24738Y-37343D01*
X24789Y-37323D01*
X24849Y-37311D01*
X24904Y-37312D01*
X24964Y-37324D01*
X25014Y-37345D01*
X25065Y-37380D01*
X25103Y-37418D01*
X25138Y-37470D01*
X25158Y-37520D01*
X25170Y-37580D01*
X25170Y-37580D01*
G37*
G36*
X25170Y-38564D02*
X25169Y-38627D01*
X25156Y-38687D01*
X25133Y-38737D01*
X25098Y-38787D01*
X25058Y-38825D01*
X25007Y-38858D01*
X24956Y-38877D01*
X24896Y-38888D01*
X24841Y-38887D01*
X24781Y-38874D01*
X24731Y-38852D01*
X24680Y-38817D01*
X24642Y-38777D01*
X24609Y-38726D01*
X24589Y-38675D01*
X24578Y-38615D01*
X24579Y-38560D01*
X24592Y-38500D01*
X24613Y-38450D01*
X24648Y-38399D01*
X24687Y-38361D01*
X24738Y-38327D01*
X24789Y-38307D01*
X24849Y-38295D01*
X24904Y-38296D01*
X24964Y-38308D01*
X25014Y-38329D01*
X25065Y-38364D01*
X25103Y-38402D01*
X25138Y-38454D01*
X25158Y-38504D01*
X25170Y-38564D01*
X25170Y-38564D01*
G37*
G36*
X25220Y-31695D02*
X24829Y-31695D01*
X24829Y-31104D01*
X25220Y-31104D01*
X25220Y-31695D01*
X25220Y-31695D01*
G37*
G36*
X25220Y-33295D02*
X24829Y-33295D01*
X24829Y-32704D01*
X25220Y-32704D01*
X25220Y-33295D01*
X25220Y-33295D01*
G37*
G36*
X25820Y-6970D02*
X25819Y-7038D01*
X25804Y-7102D01*
X25780Y-7157D01*
X25742Y-7211D01*
X25699Y-7252D01*
X25643Y-7287D01*
X25587Y-7309D01*
X25523Y-7320D01*
X25463Y-7319D01*
X25399Y-7305D01*
X25344Y-7281D01*
X25290Y-7243D01*
X25248Y-7201D01*
X25213Y-7145D01*
X25191Y-7090D01*
X25179Y-7025D01*
X25180Y-6965D01*
X25193Y-6901D01*
X25217Y-6846D01*
X25254Y-6791D01*
X25297Y-6750D01*
X25352Y-6714D01*
X25407Y-6691D01*
X25472Y-6679D01*
X25531Y-6679D01*
X25596Y-6693D01*
X25651Y-6716D01*
X25706Y-6753D01*
X25748Y-6795D01*
X25784Y-6850D01*
X25807Y-6905D01*
X25820Y-6970D01*
X25820Y-6970D01*
G37*
G36*
X25820Y-7970D02*
X25819Y-8038D01*
X25804Y-8102D01*
X25780Y-8157D01*
X25742Y-8211D01*
X25699Y-8252D01*
X25643Y-8287D01*
X25587Y-8309D01*
X25523Y-8320D01*
X25463Y-8319D01*
X25399Y-8305D01*
X25344Y-8281D01*
X25290Y-8243D01*
X25248Y-8201D01*
X25213Y-8145D01*
X25191Y-8090D01*
X25179Y-8025D01*
X25180Y-7965D01*
X25193Y-7901D01*
X25217Y-7846D01*
X25254Y-7791D01*
X25297Y-7750D01*
X25352Y-7714D01*
X25407Y-7691D01*
X25472Y-7679D01*
X25531Y-7679D01*
X25596Y-7693D01*
X25651Y-7716D01*
X25706Y-7753D01*
X25748Y-7795D01*
X25784Y-7850D01*
X25807Y-7905D01*
X25820Y-7970D01*
X25820Y-7970D01*
G37*
G36*
X25903Y-23803D02*
X25036Y-23803D01*
X25036Y-21558D01*
X25903Y-21558D01*
X25903Y-23803D01*
X25903Y-23803D01*
G37*
G36*
X25903Y-27621D02*
X25036Y-27621D01*
X25036Y-25376D01*
X25903Y-25376D01*
X25903Y-27621D01*
X25903Y-27621D01*
G37*
G36*
X25970Y-31695D02*
X25579Y-31695D01*
X25579Y-31104D01*
X25970Y-31104D01*
X25970Y-31695D01*
X25970Y-31695D01*
G37*
G36*
X25970Y-33295D02*
X25579Y-33295D01*
X25579Y-32704D01*
X25970Y-32704D01*
X25970Y-33295D01*
X25970Y-33295D01*
G37*
G36*
X26036Y-38068D02*
X26035Y-38140D01*
X26020Y-38207D01*
X25995Y-38265D01*
X25955Y-38321D01*
X25910Y-38364D01*
X25852Y-38401D01*
X25793Y-38423D01*
X25725Y-38435D01*
X25663Y-38434D01*
X25596Y-38419D01*
X25538Y-38394D01*
X25482Y-38355D01*
X25438Y-38310D01*
X25401Y-38252D01*
X25378Y-38194D01*
X25365Y-38126D01*
X25366Y-38064D01*
X25381Y-37996D01*
X25405Y-37939D01*
X25444Y-37882D01*
X25489Y-37838D01*
X25547Y-37800D01*
X25604Y-37777D01*
X25672Y-37764D01*
X25734Y-37764D01*
X25802Y-37778D01*
X25860Y-37802D01*
X25917Y-37841D01*
X25961Y-37885D01*
X25999Y-37943D01*
X26023Y-38000D01*
X26036Y-38067D01*
X26036Y-38068D01*
X26036Y-38068D01*
G37*
G36*
X26820Y-6970D02*
X26819Y-7038D01*
X26804Y-7102D01*
X26780Y-7157D01*
X26742Y-7211D01*
X26699Y-7252D01*
X26643Y-7287D01*
X26587Y-7309D01*
X26523Y-7320D01*
X26463Y-7319D01*
X26399Y-7305D01*
X26344Y-7281D01*
X26290Y-7243D01*
X26248Y-7201D01*
X26213Y-7145D01*
X26191Y-7090D01*
X26179Y-7025D01*
X26180Y-6965D01*
X26193Y-6901D01*
X26217Y-6846D01*
X26254Y-6791D01*
X26297Y-6750D01*
X26352Y-6714D01*
X26407Y-6691D01*
X26472Y-6679D01*
X26531Y-6679D01*
X26596Y-6693D01*
X26651Y-6716D01*
X26706Y-6753D01*
X26748Y-6795D01*
X26784Y-6850D01*
X26807Y-6905D01*
X26820Y-6970D01*
X26820Y-6970D01*
G37*
G36*
X26820Y-7970D02*
X26819Y-8038D01*
X26804Y-8102D01*
X26780Y-8157D01*
X26742Y-8211D01*
X26699Y-8252D01*
X26643Y-8287D01*
X26587Y-8309D01*
X26523Y-8320D01*
X26463Y-8319D01*
X26399Y-8305D01*
X26344Y-8281D01*
X26290Y-8243D01*
X26248Y-8201D01*
X26213Y-8145D01*
X26191Y-8090D01*
X26179Y-8025D01*
X26180Y-7965D01*
X26193Y-7901D01*
X26217Y-7846D01*
X26254Y-7791D01*
X26297Y-7750D01*
X26352Y-7714D01*
X26407Y-7691D01*
X26472Y-7679D01*
X26531Y-7679D01*
X26596Y-7693D01*
X26651Y-7716D01*
X26706Y-7753D01*
X26748Y-7795D01*
X26784Y-7850D01*
X26807Y-7905D01*
X26820Y-7970D01*
X26820Y-7970D01*
G37*
G36*
X27195Y-20520D02*
X26604Y-20520D01*
X26604Y-20129D01*
X27195Y-20129D01*
X27195Y-20520D01*
X27195Y-20520D01*
G37*
G36*
X27195Y-21270D02*
X26604Y-21270D01*
X26604Y-20879D01*
X27195Y-20879D01*
X27195Y-21270D01*
X27195Y-21270D01*
G37*
G36*
X27195Y-22020D02*
X26604Y-22020D01*
X26604Y-21629D01*
X27195Y-21629D01*
X27195Y-22020D01*
X27195Y-22020D01*
G37*
G36*
X27195Y-22770D02*
X26604Y-22770D01*
X26604Y-22379D01*
X27195Y-22379D01*
X27195Y-22770D01*
X27195Y-22770D01*
G37*
G36*
X27195Y-23420D02*
X26604Y-23420D01*
X26604Y-23029D01*
X27195Y-23029D01*
X27195Y-23420D01*
X27195Y-23420D01*
G37*
G36*
X27195Y-24170D02*
X26604Y-24170D01*
X26604Y-23779D01*
X27195Y-23779D01*
X27195Y-24170D01*
X27195Y-24170D01*
G37*
G36*
X27215Y-32225D02*
X26624Y-32225D01*
X26624Y-31834D01*
X27215Y-31834D01*
X27215Y-32225D01*
X27215Y-32225D01*
G37*
G36*
X27215Y-32975D02*
X26624Y-32975D01*
X26624Y-32584D01*
X27215Y-32584D01*
X27215Y-32975D01*
X27215Y-32975D01*
G37*
G36*
X27540Y-34300D02*
X27149Y-34300D01*
X27149Y-33709D01*
X27540Y-33709D01*
X27540Y-34300D01*
X27540Y-34300D01*
G37*
G36*
X27540Y-35100D02*
X27149Y-35100D01*
X27149Y-34509D01*
X27540Y-34509D01*
X27540Y-35100D01*
X27540Y-35100D01*
G37*
G36*
X27870Y-38025D02*
X27867Y-38195D01*
X27833Y-38345D01*
X27773Y-38480D01*
X27684Y-38606D01*
X27577Y-38708D01*
X27447Y-38791D01*
X27309Y-38844D01*
X27157Y-38871D01*
X27009Y-38868D01*
X26859Y-38835D01*
X26723Y-38776D01*
X26597Y-38688D01*
X26494Y-38581D01*
X26410Y-38452D01*
X26356Y-38314D01*
X26328Y-38163D01*
X26330Y-38015D01*
X26362Y-37864D01*
X26420Y-37728D01*
X26508Y-37601D01*
X26613Y-37497D01*
X26743Y-37413D01*
X26879Y-37358D01*
X27031Y-37329D01*
X27179Y-37330D01*
X27330Y-37361D01*
X27466Y-37418D01*
X27594Y-37504D01*
X27698Y-37609D01*
X27784Y-37738D01*
X27840Y-37874D01*
X27870Y-38025D01*
X27870Y-38025D01*
G37*
G36*
X28015Y-32625D02*
X27424Y-32625D01*
X27424Y-32234D01*
X28015Y-32234D01*
X28015Y-32625D01*
X28015Y-32625D01*
G37*
G36*
X28015Y-33375D02*
X27424Y-33375D01*
X27424Y-32984D01*
X28015Y-32984D01*
X28015Y-33375D01*
X28015Y-33375D01*
G37*
G36*
X28290Y-34300D02*
X27899Y-34300D01*
X27899Y-33709D01*
X28290Y-33709D01*
X28290Y-34300D01*
X28290Y-34300D01*
G37*
G36*
X28290Y-35100D02*
X27899Y-35100D01*
X27899Y-34509D01*
X28290Y-34509D01*
X28290Y-35100D01*
X28290Y-35100D01*
G37*
G36*
X28520Y-22575D02*
X27879Y-22575D01*
X27879Y-22374D01*
X28520Y-22374D01*
X28520Y-22575D01*
X28520Y-22575D01*
G37*
G36*
X28520Y-22890D02*
X27879Y-22890D01*
X27879Y-22689D01*
X28520Y-22689D01*
X28520Y-22890D01*
X28520Y-22890D01*
G37*
G36*
X28520Y-23205D02*
X27879Y-23205D01*
X27879Y-23004D01*
X28520Y-23004D01*
X28520Y-23205D01*
X28520Y-23205D01*
G37*
G36*
X28520Y-23520D02*
X27879Y-23520D01*
X27879Y-23319D01*
X28520Y-23319D01*
X28520Y-23520D01*
X28520Y-23520D01*
G37*
G36*
X28520Y-23835D02*
X27879Y-23835D01*
X27879Y-23634D01*
X28520Y-23634D01*
X28520Y-23835D01*
X28520Y-23835D01*
G37*
G36*
X28520Y-24150D02*
X27879Y-24150D01*
X27879Y-23949D01*
X28520Y-23949D01*
X28520Y-24150D01*
X28520Y-24150D01*
G37*
G36*
X28520Y-24465D02*
X27879Y-24465D01*
X27879Y-24264D01*
X28520Y-24264D01*
X28520Y-24465D01*
X28520Y-24465D01*
G37*
G36*
X28520Y-24780D02*
X27879Y-24780D01*
X27879Y-24579D01*
X28520Y-24579D01*
X28520Y-24780D01*
X28520Y-24780D01*
G37*
G36*
X28520Y-25095D02*
X27879Y-25095D01*
X27879Y-24894D01*
X28520Y-24894D01*
X28520Y-25095D01*
X28520Y-25095D01*
G37*
G36*
X28520Y-25410D02*
X27879Y-25410D01*
X27879Y-25209D01*
X28520Y-25209D01*
X28520Y-25410D01*
X28520Y-25410D01*
G37*
G36*
X28520Y-25725D02*
X27879Y-25725D01*
X27879Y-25524D01*
X28520Y-25524D01*
X28520Y-25725D01*
X28520Y-25725D01*
G37*
G36*
X28820Y-6970D02*
X28819Y-7038D01*
X28804Y-7102D01*
X28780Y-7157D01*
X28742Y-7211D01*
X28699Y-7252D01*
X28643Y-7287D01*
X28587Y-7309D01*
X28523Y-7320D01*
X28463Y-7319D01*
X28399Y-7305D01*
X28344Y-7281D01*
X28290Y-7243D01*
X28248Y-7201D01*
X28213Y-7145D01*
X28191Y-7090D01*
X28179Y-7025D01*
X28180Y-6965D01*
X28193Y-6901D01*
X28217Y-6846D01*
X28254Y-6791D01*
X28297Y-6750D01*
X28352Y-6714D01*
X28407Y-6691D01*
X28472Y-6679D01*
X28531Y-6679D01*
X28596Y-6693D01*
X28651Y-6716D01*
X28706Y-6753D01*
X28748Y-6795D01*
X28784Y-6850D01*
X28807Y-6905D01*
X28820Y-6970D01*
X28820Y-6970D01*
G37*
G36*
X28820Y-8320D02*
X28179Y-8320D01*
X28179Y-7679D01*
X28820Y-7679D01*
X28820Y-8320D01*
X28820Y-8320D01*
G37*
G36*
X28975Y-22120D02*
X28774Y-22120D01*
X28774Y-21479D01*
X28975Y-21479D01*
X28975Y-22120D01*
X28975Y-22120D01*
G37*
G36*
X28975Y-26620D02*
X28774Y-26620D01*
X28774Y-25979D01*
X28975Y-25979D01*
X28975Y-26620D01*
X28975Y-26620D01*
G37*
G36*
X29015Y-32425D02*
X28524Y-32425D01*
X28524Y-32184D01*
X29015Y-32184D01*
X29015Y-32425D01*
X29015Y-32425D01*
G37*
G36*
X29015Y-32925D02*
X28524Y-32925D01*
X28524Y-32684D01*
X29015Y-32684D01*
X29015Y-32925D01*
X29015Y-32925D01*
G37*
G36*
X29015Y-33425D02*
X28524Y-33425D01*
X28524Y-33184D01*
X29015Y-33184D01*
X29015Y-33425D01*
X29015Y-33425D01*
G37*
G36*
X29015Y-33925D02*
X28524Y-33925D01*
X28524Y-33684D01*
X29015Y-33684D01*
X29015Y-33925D01*
X29015Y-33925D01*
G37*
G36*
X29015Y-34425D02*
X28524Y-34425D01*
X28524Y-34184D01*
X29015Y-34184D01*
X29015Y-34425D01*
X29015Y-34425D01*
G37*
G36*
X29015Y-34925D02*
X28524Y-34925D01*
X28524Y-34684D01*
X29015Y-34684D01*
X29015Y-34925D01*
X29015Y-34925D01*
G37*
G36*
X29015Y-35425D02*
X28524Y-35425D01*
X28524Y-35184D01*
X29015Y-35184D01*
X29015Y-35425D01*
X29015Y-35425D01*
G37*
G36*
X29015Y-35925D02*
X28524Y-35925D01*
X28524Y-35684D01*
X29015Y-35684D01*
X29015Y-35925D01*
X29015Y-35925D01*
G37*
G36*
X29290Y-22120D02*
X29089Y-22120D01*
X29089Y-21479D01*
X29290Y-21479D01*
X29290Y-22120D01*
X29290Y-22120D01*
G37*
G36*
X29290Y-26620D02*
X29089Y-26620D01*
X29089Y-25979D01*
X29290Y-25979D01*
X29290Y-26620D01*
X29290Y-26620D01*
G37*
G36*
X29605Y-22120D02*
X29404Y-22120D01*
X29404Y-21479D01*
X29605Y-21479D01*
X29605Y-22120D01*
X29605Y-22120D01*
G37*
G36*
X29605Y-26620D02*
X29404Y-26620D01*
X29404Y-25979D01*
X29605Y-25979D01*
X29605Y-26620D01*
X29605Y-26620D01*
G37*
G36*
X29820Y-6970D02*
X29819Y-7038D01*
X29804Y-7102D01*
X29780Y-7157D01*
X29742Y-7211D01*
X29699Y-7252D01*
X29643Y-7287D01*
X29587Y-7309D01*
X29523Y-7320D01*
X29463Y-7319D01*
X29399Y-7305D01*
X29344Y-7281D01*
X29290Y-7243D01*
X29248Y-7201D01*
X29213Y-7145D01*
X29191Y-7090D01*
X29179Y-7025D01*
X29180Y-6965D01*
X29193Y-6901D01*
X29217Y-6846D01*
X29254Y-6791D01*
X29297Y-6750D01*
X29352Y-6714D01*
X29407Y-6691D01*
X29472Y-6679D01*
X29531Y-6679D01*
X29596Y-6693D01*
X29651Y-6716D01*
X29706Y-6753D01*
X29748Y-6795D01*
X29784Y-6850D01*
X29807Y-6905D01*
X29820Y-6970D01*
X29820Y-6970D01*
G37*
G36*
X29820Y-7970D02*
X29819Y-8038D01*
X29804Y-8102D01*
X29780Y-8157D01*
X29742Y-8211D01*
X29699Y-8252D01*
X29643Y-8287D01*
X29587Y-8309D01*
X29523Y-8320D01*
X29463Y-8319D01*
X29399Y-8305D01*
X29344Y-8281D01*
X29290Y-8243D01*
X29248Y-8201D01*
X29213Y-8145D01*
X29191Y-8090D01*
X29179Y-8025D01*
X29180Y-7965D01*
X29193Y-7901D01*
X29217Y-7846D01*
X29254Y-7791D01*
X29297Y-7750D01*
X29352Y-7714D01*
X29407Y-7691D01*
X29472Y-7679D01*
X29531Y-7679D01*
X29596Y-7693D01*
X29651Y-7716D01*
X29706Y-7753D01*
X29748Y-7795D01*
X29784Y-7850D01*
X29807Y-7905D01*
X29820Y-7970D01*
X29820Y-7970D01*
G37*
G36*
X29820Y-31595D02*
X29429Y-31595D01*
X29429Y-31004D01*
X29820Y-31004D01*
X29820Y-31595D01*
X29820Y-31595D01*
G37*
G36*
X29920Y-22120D02*
X29719Y-22120D01*
X29719Y-21479D01*
X29920Y-21479D01*
X29920Y-22120D01*
X29920Y-22120D01*
G37*
G36*
X29920Y-26620D02*
X29719Y-26620D01*
X29719Y-25979D01*
X29920Y-25979D01*
X29920Y-26620D01*
X29920Y-26620D01*
G37*
G36*
X30170Y-37520D02*
X30169Y-37588D01*
X30154Y-37652D01*
X30130Y-37707D01*
X30092Y-37761D01*
X30049Y-37802D01*
X29993Y-37837D01*
X29937Y-37859D01*
X29873Y-37870D01*
X29813Y-37869D01*
X29749Y-37855D01*
X29694Y-37831D01*
X29640Y-37793D01*
X29598Y-37751D01*
X29563Y-37695D01*
X29541Y-37640D01*
X29529Y-37575D01*
X29530Y-37515D01*
X29543Y-37451D01*
X29567Y-37396D01*
X29604Y-37341D01*
X29647Y-37300D01*
X29702Y-37264D01*
X29757Y-37241D01*
X29822Y-37229D01*
X29881Y-37229D01*
X29946Y-37243D01*
X30001Y-37266D01*
X30056Y-37303D01*
X30098Y-37345D01*
X30134Y-37400D01*
X30157Y-37455D01*
X30170Y-37520D01*
X30170Y-37520D01*
G37*
G36*
X30235Y-22120D02*
X30034Y-22120D01*
X30034Y-21479D01*
X30235Y-21479D01*
X30235Y-22120D01*
X30235Y-22120D01*
G37*
G36*
X30235Y-26620D02*
X30034Y-26620D01*
X30034Y-25979D01*
X30235Y-25979D01*
X30235Y-26620D01*
X30235Y-26620D01*
G37*
G36*
X30420Y-19995D02*
X30029Y-19995D01*
X30029Y-19404D01*
X30420Y-19404D01*
X30420Y-19995D01*
X30420Y-19995D01*
G37*
G36*
X30420Y-20895D02*
X30029Y-20895D01*
X30029Y-20304D01*
X30420Y-20304D01*
X30420Y-20895D01*
X30420Y-20895D01*
G37*
G36*
X30475Y-27605D02*
X30084Y-27605D01*
X30084Y-27014D01*
X30475Y-27014D01*
X30475Y-27605D01*
X30475Y-27605D01*
G37*
G36*
X30550Y-22120D02*
X30349Y-22120D01*
X30349Y-21479D01*
X30550Y-21479D01*
X30550Y-22120D01*
X30550Y-22120D01*
G37*
G36*
X30550Y-26620D02*
X30349Y-26620D01*
X30349Y-25979D01*
X30550Y-25979D01*
X30550Y-26620D01*
X30550Y-26620D01*
G37*
G36*
X30570Y-31595D02*
X30179Y-31595D01*
X30179Y-31004D01*
X30570Y-31004D01*
X30570Y-31595D01*
X30570Y-31595D01*
G37*
G36*
X30720Y-38620D02*
X30719Y-38688D01*
X30704Y-38752D01*
X30680Y-38807D01*
X30642Y-38861D01*
X30599Y-38902D01*
X30543Y-38937D01*
X30487Y-38959D01*
X30423Y-38970D01*
X30363Y-38969D01*
X30299Y-38955D01*
X30244Y-38931D01*
X30190Y-38893D01*
X30148Y-38851D01*
X30113Y-38795D01*
X30091Y-38740D01*
X30079Y-38675D01*
X30080Y-38615D01*
X30093Y-38551D01*
X30117Y-38496D01*
X30154Y-38441D01*
X30197Y-38400D01*
X30252Y-38364D01*
X30307Y-38341D01*
X30372Y-38329D01*
X30431Y-38329D01*
X30496Y-38343D01*
X30551Y-38366D01*
X30606Y-38403D01*
X30648Y-38445D01*
X30684Y-38500D01*
X30707Y-38555D01*
X30720Y-38620D01*
X30720Y-38620D01*
G37*
G36*
X30820Y-6970D02*
X30819Y-7038D01*
X30804Y-7102D01*
X30780Y-7157D01*
X30742Y-7211D01*
X30699Y-7252D01*
X30643Y-7287D01*
X30587Y-7309D01*
X30523Y-7320D01*
X30463Y-7319D01*
X30399Y-7305D01*
X30344Y-7281D01*
X30290Y-7243D01*
X30248Y-7201D01*
X30213Y-7145D01*
X30191Y-7090D01*
X30179Y-7025D01*
X30180Y-6965D01*
X30193Y-6901D01*
X30217Y-6846D01*
X30254Y-6791D01*
X30297Y-6750D01*
X30352Y-6714D01*
X30407Y-6691D01*
X30472Y-6679D01*
X30531Y-6679D01*
X30596Y-6693D01*
X30651Y-6716D01*
X30706Y-6753D01*
X30748Y-6795D01*
X30784Y-6850D01*
X30807Y-6905D01*
X30820Y-6970D01*
X30820Y-6970D01*
G37*
G36*
X30820Y-7970D02*
X30819Y-8038D01*
X30804Y-8102D01*
X30780Y-8157D01*
X30742Y-8211D01*
X30699Y-8252D01*
X30643Y-8287D01*
X30587Y-8309D01*
X30523Y-8320D01*
X30463Y-8319D01*
X30399Y-8305D01*
X30344Y-8281D01*
X30290Y-8243D01*
X30248Y-8201D01*
X30213Y-8145D01*
X30191Y-8090D01*
X30179Y-8025D01*
X30180Y-7965D01*
X30193Y-7901D01*
X30217Y-7846D01*
X30254Y-7791D01*
X30297Y-7750D01*
X30352Y-7714D01*
X30407Y-7691D01*
X30472Y-7679D01*
X30531Y-7679D01*
X30596Y-7693D01*
X30651Y-7716D01*
X30706Y-7753D01*
X30748Y-7795D01*
X30784Y-7850D01*
X30807Y-7905D01*
X30820Y-7970D01*
X30820Y-7970D01*
G37*
G36*
X30865Y-22120D02*
X30664Y-22120D01*
X30664Y-21479D01*
X30865Y-21479D01*
X30865Y-22120D01*
X30865Y-22120D01*
G37*
G36*
X30865Y-26620D02*
X30664Y-26620D01*
X30664Y-25979D01*
X30865Y-25979D01*
X30865Y-26620D01*
X30865Y-26620D01*
G37*
G36*
X31170Y-19995D02*
X30779Y-19995D01*
X30779Y-19404D01*
X31170Y-19404D01*
X31170Y-19995D01*
X31170Y-19995D01*
G37*
G36*
X31170Y-20895D02*
X30779Y-20895D01*
X30779Y-20304D01*
X31170Y-20304D01*
X31170Y-20895D01*
X31170Y-20895D01*
G37*
G36*
X31180Y-22120D02*
X30979Y-22120D01*
X30979Y-21479D01*
X31180Y-21479D01*
X31180Y-22120D01*
X31180Y-22120D01*
G37*
G36*
X31180Y-26620D02*
X30979Y-26620D01*
X30979Y-25979D01*
X31180Y-25979D01*
X31180Y-26620D01*
X31180Y-26620D01*
G37*
G36*
X31225Y-27605D02*
X30834Y-27605D01*
X30834Y-27014D01*
X31225Y-27014D01*
X31225Y-27605D01*
X31225Y-27605D01*
G37*
G36*
X31270Y-37520D02*
X31269Y-37588D01*
X31254Y-37652D01*
X31230Y-37707D01*
X31192Y-37761D01*
X31149Y-37802D01*
X31093Y-37837D01*
X31037Y-37859D01*
X30973Y-37870D01*
X30913Y-37869D01*
X30849Y-37855D01*
X30794Y-37831D01*
X30740Y-37793D01*
X30698Y-37751D01*
X30663Y-37695D01*
X30641Y-37640D01*
X30629Y-37575D01*
X30630Y-37515D01*
X30643Y-37451D01*
X30667Y-37396D01*
X30704Y-37341D01*
X30747Y-37300D01*
X30802Y-37264D01*
X30857Y-37241D01*
X30922Y-37229D01*
X30981Y-37229D01*
X31046Y-37243D01*
X31101Y-37266D01*
X31156Y-37303D01*
X31198Y-37345D01*
X31234Y-37400D01*
X31257Y-37455D01*
X31270Y-37520D01*
X31270Y-37520D01*
G37*
G36*
X31495Y-22120D02*
X31294Y-22120D01*
X31294Y-21479D01*
X31495Y-21479D01*
X31495Y-22120D01*
X31495Y-22120D01*
G37*
G36*
X31495Y-26620D02*
X31294Y-26620D01*
X31294Y-25979D01*
X31495Y-25979D01*
X31495Y-26620D01*
X31495Y-26620D01*
G37*
G36*
X31515Y-32425D02*
X31024Y-32425D01*
X31024Y-32184D01*
X31515Y-32184D01*
X31515Y-32425D01*
X31515Y-32425D01*
G37*
G36*
X31515Y-32925D02*
X31024Y-32925D01*
X31024Y-32684D01*
X31515Y-32684D01*
X31515Y-32925D01*
X31515Y-32925D01*
G37*
G36*
X31515Y-33425D02*
X31024Y-33425D01*
X31024Y-33184D01*
X31515Y-33184D01*
X31515Y-33425D01*
X31515Y-33425D01*
G37*
G36*
X31515Y-33925D02*
X31024Y-33925D01*
X31024Y-33684D01*
X31515Y-33684D01*
X31515Y-33925D01*
X31515Y-33925D01*
G37*
G36*
X31515Y-34425D02*
X31024Y-34425D01*
X31024Y-34184D01*
X31515Y-34184D01*
X31515Y-34425D01*
X31515Y-34425D01*
G37*
G36*
X31515Y-34925D02*
X31024Y-34925D01*
X31024Y-34684D01*
X31515Y-34684D01*
X31515Y-34925D01*
X31515Y-34925D01*
G37*
G36*
X31515Y-35425D02*
X31024Y-35425D01*
X31024Y-35184D01*
X31515Y-35184D01*
X31515Y-35425D01*
X31515Y-35425D01*
G37*
G36*
X31515Y-35925D02*
X31024Y-35925D01*
X31024Y-35684D01*
X31515Y-35684D01*
X31515Y-35925D01*
X31515Y-35925D01*
G37*
G36*
X31810Y-22120D02*
X31609Y-22120D01*
X31609Y-21479D01*
X31810Y-21479D01*
X31810Y-22120D01*
X31810Y-22120D01*
G37*
G36*
X31810Y-26620D02*
X31609Y-26620D01*
X31609Y-25979D01*
X31810Y-25979D01*
X31810Y-26620D01*
X31810Y-26620D01*
G37*
G36*
X31820Y-6970D02*
X31819Y-7038D01*
X31804Y-7102D01*
X31780Y-7157D01*
X31742Y-7211D01*
X31699Y-7252D01*
X31643Y-7287D01*
X31587Y-7309D01*
X31523Y-7320D01*
X31463Y-7319D01*
X31399Y-7305D01*
X31344Y-7281D01*
X31290Y-7243D01*
X31248Y-7201D01*
X31213Y-7145D01*
X31191Y-7090D01*
X31179Y-7025D01*
X31180Y-6965D01*
X31193Y-6901D01*
X31217Y-6846D01*
X31254Y-6791D01*
X31297Y-6750D01*
X31352Y-6714D01*
X31407Y-6691D01*
X31472Y-6679D01*
X31531Y-6679D01*
X31596Y-6693D01*
X31651Y-6716D01*
X31706Y-6753D01*
X31748Y-6795D01*
X31784Y-6850D01*
X31807Y-6905D01*
X31820Y-6970D01*
X31820Y-6970D01*
G37*
G36*
X31820Y-7970D02*
X31819Y-8038D01*
X31804Y-8102D01*
X31780Y-8157D01*
X31742Y-8211D01*
X31699Y-8252D01*
X31643Y-8287D01*
X31587Y-8309D01*
X31523Y-8320D01*
X31463Y-8319D01*
X31399Y-8305D01*
X31344Y-8281D01*
X31290Y-8243D01*
X31248Y-8201D01*
X31213Y-8145D01*
X31191Y-8090D01*
X31179Y-8025D01*
X31180Y-7965D01*
X31193Y-7901D01*
X31217Y-7846D01*
X31254Y-7791D01*
X31297Y-7750D01*
X31352Y-7714D01*
X31407Y-7691D01*
X31472Y-7679D01*
X31531Y-7679D01*
X31596Y-7693D01*
X31651Y-7716D01*
X31706Y-7753D01*
X31748Y-7795D01*
X31784Y-7850D01*
X31807Y-7905D01*
X31820Y-7970D01*
X31820Y-7970D01*
G37*
G36*
X31820Y-38620D02*
X31819Y-38688D01*
X31804Y-38752D01*
X31780Y-38807D01*
X31742Y-38861D01*
X31699Y-38902D01*
X31643Y-38937D01*
X31587Y-38959D01*
X31523Y-38970D01*
X31463Y-38969D01*
X31399Y-38955D01*
X31344Y-38931D01*
X31290Y-38893D01*
X31248Y-38851D01*
X31213Y-38795D01*
X31191Y-38740D01*
X31179Y-38675D01*
X31180Y-38615D01*
X31193Y-38551D01*
X31217Y-38496D01*
X31254Y-38441D01*
X31297Y-38400D01*
X31352Y-38364D01*
X31407Y-38341D01*
X31472Y-38329D01*
X31531Y-38329D01*
X31596Y-38343D01*
X31651Y-38366D01*
X31706Y-38403D01*
X31748Y-38445D01*
X31784Y-38500D01*
X31807Y-38555D01*
X31820Y-38620D01*
X31820Y-38620D01*
G37*
G36*
X32095Y-19920D02*
X31504Y-19920D01*
X31504Y-19529D01*
X32095Y-19529D01*
X32095Y-19920D01*
X32095Y-19920D01*
G37*
G36*
X32095Y-20670D02*
X31504Y-20670D01*
X31504Y-20279D01*
X32095Y-20279D01*
X32095Y-20670D01*
X32095Y-20670D01*
G37*
G36*
X32125Y-22120D02*
X31924Y-22120D01*
X31924Y-21479D01*
X32125Y-21479D01*
X32125Y-22120D01*
X32125Y-22120D01*
G37*
G36*
X32125Y-26620D02*
X31924Y-26620D01*
X31924Y-25979D01*
X32125Y-25979D01*
X32125Y-26620D01*
X32125Y-26620D01*
G37*
G36*
X32320Y-37520D02*
X32319Y-37588D01*
X32304Y-37652D01*
X32280Y-37707D01*
X32242Y-37761D01*
X32199Y-37802D01*
X32143Y-37837D01*
X32087Y-37859D01*
X32023Y-37870D01*
X31963Y-37869D01*
X31899Y-37855D01*
X31844Y-37831D01*
X31790Y-37793D01*
X31748Y-37751D01*
X31713Y-37695D01*
X31691Y-37640D01*
X31679Y-37575D01*
X31680Y-37515D01*
X31693Y-37451D01*
X31717Y-37396D01*
X31754Y-37341D01*
X31797Y-37300D01*
X31852Y-37264D01*
X31907Y-37241D01*
X31972Y-37229D01*
X32031Y-37229D01*
X32096Y-37243D01*
X32151Y-37266D01*
X32206Y-37303D01*
X32248Y-37345D01*
X32284Y-37400D01*
X32307Y-37455D01*
X32320Y-37520D01*
X32320Y-37520D01*
G37*
G36*
X32820Y-6970D02*
X32819Y-7038D01*
X32804Y-7102D01*
X32780Y-7157D01*
X32742Y-7211D01*
X32699Y-7252D01*
X32643Y-7287D01*
X32587Y-7309D01*
X32523Y-7320D01*
X32463Y-7319D01*
X32399Y-7305D01*
X32344Y-7281D01*
X32290Y-7243D01*
X32248Y-7201D01*
X32213Y-7145D01*
X32191Y-7090D01*
X32179Y-7025D01*
X32180Y-6965D01*
X32193Y-6901D01*
X32217Y-6846D01*
X32254Y-6791D01*
X32297Y-6750D01*
X32352Y-6714D01*
X32407Y-6691D01*
X32472Y-6679D01*
X32531Y-6679D01*
X32596Y-6693D01*
X32651Y-6716D01*
X32706Y-6753D01*
X32748Y-6795D01*
X32784Y-6850D01*
X32807Y-6905D01*
X32820Y-6970D01*
X32820Y-6970D01*
G37*
G36*
X32820Y-7970D02*
X32819Y-8038D01*
X32804Y-8102D01*
X32780Y-8157D01*
X32742Y-8211D01*
X32699Y-8252D01*
X32643Y-8287D01*
X32587Y-8309D01*
X32523Y-8320D01*
X32463Y-8319D01*
X32399Y-8305D01*
X32344Y-8281D01*
X32290Y-8243D01*
X32248Y-8201D01*
X32213Y-8145D01*
X32191Y-8090D01*
X32179Y-8025D01*
X32180Y-7965D01*
X32193Y-7901D01*
X32217Y-7846D01*
X32254Y-7791D01*
X32297Y-7750D01*
X32352Y-7714D01*
X32407Y-7691D01*
X32472Y-7679D01*
X32531Y-7679D01*
X32596Y-7693D01*
X32651Y-7716D01*
X32706Y-7753D01*
X32748Y-7795D01*
X32784Y-7850D01*
X32807Y-7905D01*
X32820Y-7970D01*
X32820Y-7970D01*
G37*
G36*
X32870Y-38620D02*
X32869Y-38688D01*
X32854Y-38752D01*
X32830Y-38807D01*
X32792Y-38861D01*
X32749Y-38902D01*
X32693Y-38937D01*
X32637Y-38959D01*
X32573Y-38970D01*
X32513Y-38969D01*
X32449Y-38955D01*
X32394Y-38931D01*
X32340Y-38893D01*
X32298Y-38851D01*
X32263Y-38795D01*
X32241Y-38740D01*
X32229Y-38675D01*
X32230Y-38615D01*
X32243Y-38551D01*
X32267Y-38496D01*
X32304Y-38441D01*
X32347Y-38400D01*
X32402Y-38364D01*
X32457Y-38341D01*
X32522Y-38329D01*
X32581Y-38329D01*
X32646Y-38343D01*
X32701Y-38366D01*
X32756Y-38403D01*
X32798Y-38445D01*
X32834Y-38500D01*
X32857Y-38555D01*
X32870Y-38620D01*
X32870Y-38620D01*
G37*
G36*
X32970Y-19920D02*
X32379Y-19920D01*
X32379Y-19529D01*
X32970Y-19529D01*
X32970Y-19920D01*
X32970Y-19920D01*
G37*
G36*
X32970Y-20670D02*
X32379Y-20670D01*
X32379Y-20279D01*
X32970Y-20279D01*
X32970Y-20670D01*
X32970Y-20670D01*
G37*
G36*
X33020Y-22575D02*
X32379Y-22575D01*
X32379Y-22374D01*
X33020Y-22374D01*
X33020Y-22575D01*
X33020Y-22575D01*
G37*
G36*
X33020Y-22890D02*
X32379Y-22890D01*
X32379Y-22689D01*
X33020Y-22689D01*
X33020Y-22890D01*
X33020Y-22890D01*
G37*
G36*
X33020Y-23205D02*
X32379Y-23205D01*
X32379Y-23004D01*
X33020Y-23004D01*
X33020Y-23205D01*
X33020Y-23205D01*
G37*
G36*
X33020Y-23520D02*
X32379Y-23520D01*
X32379Y-23319D01*
X33020Y-23319D01*
X33020Y-23520D01*
X33020Y-23520D01*
G37*
G36*
X33020Y-23835D02*
X32379Y-23835D01*
X32379Y-23634D01*
X33020Y-23634D01*
X33020Y-23835D01*
X33020Y-23835D01*
G37*
G36*
X33020Y-24150D02*
X32379Y-24150D01*
X32379Y-23949D01*
X33020Y-23949D01*
X33020Y-24150D01*
X33020Y-24150D01*
G37*
G36*
X33020Y-24465D02*
X32379Y-24465D01*
X32379Y-24264D01*
X33020Y-24264D01*
X33020Y-24465D01*
X33020Y-24465D01*
G37*
G36*
X33020Y-24780D02*
X32379Y-24780D01*
X32379Y-24579D01*
X33020Y-24579D01*
X33020Y-24780D01*
X33020Y-24780D01*
G37*
G36*
X33020Y-25095D02*
X32379Y-25095D01*
X32379Y-24894D01*
X33020Y-24894D01*
X33020Y-25095D01*
X33020Y-25095D01*
G37*
G36*
X33020Y-25410D02*
X32379Y-25410D01*
X32379Y-25209D01*
X33020Y-25209D01*
X33020Y-25410D01*
X33020Y-25410D01*
G37*
G36*
X33020Y-25725D02*
X32379Y-25725D01*
X32379Y-25524D01*
X33020Y-25524D01*
X33020Y-25725D01*
X33020Y-25725D01*
G37*
G36*
X33420Y-37520D02*
X33419Y-37588D01*
X33404Y-37652D01*
X33380Y-37707D01*
X33342Y-37761D01*
X33299Y-37802D01*
X33243Y-37837D01*
X33187Y-37859D01*
X33123Y-37870D01*
X33063Y-37869D01*
X32999Y-37855D01*
X32944Y-37831D01*
X32890Y-37793D01*
X32848Y-37751D01*
X32813Y-37695D01*
X32791Y-37640D01*
X32779Y-37575D01*
X32780Y-37515D01*
X32793Y-37451D01*
X32817Y-37396D01*
X32854Y-37341D01*
X32897Y-37300D01*
X32952Y-37264D01*
X33007Y-37241D01*
X33072Y-37229D01*
X33131Y-37229D01*
X33196Y-37243D01*
X33251Y-37266D01*
X33306Y-37303D01*
X33348Y-37345D01*
X33384Y-37400D01*
X33407Y-37455D01*
X33420Y-37520D01*
X33420Y-37520D01*
G37*
G36*
X33820Y-6970D02*
X33819Y-7038D01*
X33804Y-7102D01*
X33780Y-7157D01*
X33742Y-7211D01*
X33699Y-7252D01*
X33643Y-7287D01*
X33587Y-7309D01*
X33523Y-7320D01*
X33463Y-7319D01*
X33399Y-7305D01*
X33344Y-7281D01*
X33290Y-7243D01*
X33248Y-7201D01*
X33213Y-7145D01*
X33191Y-7090D01*
X33179Y-7025D01*
X33180Y-6965D01*
X33193Y-6901D01*
X33217Y-6846D01*
X33254Y-6791D01*
X33297Y-6750D01*
X33352Y-6714D01*
X33407Y-6691D01*
X33472Y-6679D01*
X33531Y-6679D01*
X33596Y-6693D01*
X33651Y-6716D01*
X33706Y-6753D01*
X33748Y-6795D01*
X33784Y-6850D01*
X33807Y-6905D01*
X33820Y-6970D01*
X33820Y-6970D01*
G37*
G36*
X33820Y-7970D02*
X33819Y-8038D01*
X33804Y-8102D01*
X33780Y-8157D01*
X33742Y-8211D01*
X33699Y-8252D01*
X33643Y-8287D01*
X33587Y-8309D01*
X33523Y-8320D01*
X33463Y-8319D01*
X33399Y-8305D01*
X33344Y-8281D01*
X33290Y-8243D01*
X33248Y-8201D01*
X33213Y-8145D01*
X33191Y-8090D01*
X33179Y-8025D01*
X33180Y-7965D01*
X33193Y-7901D01*
X33217Y-7846D01*
X33254Y-7791D01*
X33297Y-7750D01*
X33352Y-7714D01*
X33407Y-7691D01*
X33472Y-7679D01*
X33531Y-7679D01*
X33596Y-7693D01*
X33651Y-7716D01*
X33706Y-7753D01*
X33748Y-7795D01*
X33784Y-7850D01*
X33807Y-7905D01*
X33820Y-7970D01*
X33820Y-7970D01*
G37*
G36*
X33895Y-19920D02*
X33304Y-19920D01*
X33304Y-19529D01*
X33895Y-19529D01*
X33895Y-19920D01*
X33895Y-19920D01*
G37*
G36*
X33895Y-20670D02*
X33304Y-20670D01*
X33304Y-20279D01*
X33895Y-20279D01*
X33895Y-20670D01*
X33895Y-20670D01*
G37*
G36*
X33970Y-38620D02*
X33969Y-38688D01*
X33954Y-38752D01*
X33930Y-38807D01*
X33892Y-38861D01*
X33849Y-38902D01*
X33793Y-38937D01*
X33737Y-38959D01*
X33673Y-38970D01*
X33613Y-38969D01*
X33549Y-38955D01*
X33494Y-38931D01*
X33440Y-38893D01*
X33398Y-38851D01*
X33363Y-38795D01*
X33341Y-38740D01*
X33329Y-38675D01*
X33330Y-38615D01*
X33343Y-38551D01*
X33367Y-38496D01*
X33404Y-38441D01*
X33447Y-38400D01*
X33502Y-38364D01*
X33557Y-38341D01*
X33622Y-38329D01*
X33681Y-38329D01*
X33746Y-38343D01*
X33801Y-38366D01*
X33856Y-38403D01*
X33898Y-38445D01*
X33934Y-38500D01*
X33957Y-38555D01*
X33970Y-38620D01*
X33970Y-38620D01*
G37*
G36*
X34020Y-24095D02*
X33629Y-24095D01*
X33629Y-23504D01*
X34020Y-23504D01*
X34020Y-24095D01*
X34020Y-24095D01*
G37*
G36*
X34470Y-37870D02*
X33829Y-37870D01*
X33829Y-37229D01*
X34470Y-37229D01*
X34470Y-37870D01*
X34470Y-37870D01*
G37*
G36*
X34495Y-25520D02*
X33904Y-25520D01*
X33904Y-25129D01*
X34495Y-25129D01*
X34495Y-25520D01*
X34495Y-25520D01*
G37*
G36*
X34495Y-26270D02*
X33904Y-26270D01*
X33904Y-25879D01*
X34495Y-25879D01*
X34495Y-26270D01*
X34495Y-26270D01*
G37*
G36*
X34620Y-24895D02*
X34229Y-24895D01*
X34229Y-24304D01*
X34620Y-24304D01*
X34620Y-24895D01*
X34620Y-24895D01*
G37*
G36*
X34770Y-24095D02*
X34379Y-24095D01*
X34379Y-23504D01*
X34770Y-23504D01*
X34770Y-24095D01*
X34770Y-24095D01*
G37*
G36*
X34820Y-6970D02*
X34819Y-7038D01*
X34804Y-7102D01*
X34780Y-7157D01*
X34742Y-7211D01*
X34699Y-7252D01*
X34643Y-7287D01*
X34587Y-7309D01*
X34523Y-7320D01*
X34463Y-7319D01*
X34399Y-7305D01*
X34344Y-7281D01*
X34290Y-7243D01*
X34248Y-7201D01*
X34213Y-7145D01*
X34191Y-7090D01*
X34179Y-7025D01*
X34180Y-6965D01*
X34193Y-6901D01*
X34217Y-6846D01*
X34254Y-6791D01*
X34297Y-6750D01*
X34352Y-6714D01*
X34407Y-6691D01*
X34472Y-6679D01*
X34531Y-6679D01*
X34596Y-6693D01*
X34651Y-6716D01*
X34706Y-6753D01*
X34748Y-6795D01*
X34784Y-6850D01*
X34807Y-6905D01*
X34820Y-6970D01*
X34820Y-6970D01*
G37*
G36*
X34820Y-7970D02*
X34819Y-8038D01*
X34804Y-8102D01*
X34780Y-8157D01*
X34742Y-8211D01*
X34699Y-8252D01*
X34643Y-8287D01*
X34587Y-8309D01*
X34523Y-8320D01*
X34463Y-8319D01*
X34399Y-8305D01*
X34344Y-8281D01*
X34290Y-8243D01*
X34248Y-8201D01*
X34213Y-8145D01*
X34191Y-8090D01*
X34179Y-8025D01*
X34180Y-7965D01*
X34193Y-7901D01*
X34217Y-7846D01*
X34254Y-7791D01*
X34297Y-7750D01*
X34352Y-7714D01*
X34407Y-7691D01*
X34472Y-7679D01*
X34531Y-7679D01*
X34596Y-7693D01*
X34651Y-7716D01*
X34706Y-7753D01*
X34748Y-7795D01*
X34784Y-7850D01*
X34807Y-7905D01*
X34820Y-7970D01*
X34820Y-7970D01*
G37*
G36*
X35370Y-24895D02*
X34979Y-24895D01*
X34979Y-24304D01*
X35370Y-24304D01*
X35370Y-24895D01*
X35370Y-24895D01*
G37*
G36*
X35402Y-9950D02*
X35047Y-9950D01*
X35047Y-9515D01*
X35402Y-9515D01*
X35402Y-9950D01*
X35402Y-9950D01*
G37*
G36*
X35777Y-9084D02*
X35422Y-9084D01*
X35422Y-8649D01*
X35777Y-8649D01*
X35777Y-9084D01*
X35777Y-9084D01*
G37*
G36*
X35820Y-6970D02*
X35819Y-7038D01*
X35804Y-7102D01*
X35780Y-7157D01*
X35742Y-7211D01*
X35699Y-7252D01*
X35643Y-7287D01*
X35587Y-7309D01*
X35523Y-7320D01*
X35463Y-7319D01*
X35399Y-7305D01*
X35344Y-7281D01*
X35290Y-7243D01*
X35248Y-7201D01*
X35213Y-7145D01*
X35191Y-7090D01*
X35179Y-7025D01*
X35180Y-6965D01*
X35193Y-6901D01*
X35217Y-6846D01*
X35254Y-6791D01*
X35297Y-6750D01*
X35352Y-6714D01*
X35407Y-6691D01*
X35472Y-6679D01*
X35531Y-6679D01*
X35596Y-6693D01*
X35651Y-6716D01*
X35706Y-6753D01*
X35748Y-6795D01*
X35784Y-6850D01*
X35807Y-6905D01*
X35820Y-6970D01*
X35820Y-6970D01*
G37*
G36*
X35820Y-7970D02*
X35819Y-8038D01*
X35804Y-8102D01*
X35780Y-8157D01*
X35742Y-8211D01*
X35699Y-8252D01*
X35643Y-8287D01*
X35587Y-8309D01*
X35523Y-8320D01*
X35463Y-8319D01*
X35399Y-8305D01*
X35344Y-8281D01*
X35290Y-8243D01*
X35248Y-8201D01*
X35213Y-8145D01*
X35191Y-8090D01*
X35179Y-8025D01*
X35180Y-7965D01*
X35193Y-7901D01*
X35217Y-7846D01*
X35254Y-7791D01*
X35297Y-7750D01*
X35352Y-7714D01*
X35407Y-7691D01*
X35472Y-7679D01*
X35531Y-7679D01*
X35596Y-7693D01*
X35651Y-7716D01*
X35706Y-7753D01*
X35748Y-7795D01*
X35784Y-7850D01*
X35807Y-7905D01*
X35820Y-7970D01*
X35820Y-7970D01*
G37*
G36*
X36152Y-9950D02*
X35797Y-9950D01*
X35797Y-9515D01*
X36152Y-9515D01*
X36152Y-9950D01*
X36152Y-9950D01*
G37*
G36*
X37695Y-7072D02*
X37694Y-7135D01*
X37680Y-7194D01*
X37658Y-7245D01*
X37623Y-7294D01*
X37583Y-7332D01*
X37532Y-7365D01*
X37481Y-7385D01*
X37421Y-7395D01*
X37366Y-7394D01*
X37306Y-7381D01*
X37256Y-7359D01*
X37206Y-7324D01*
X37168Y-7285D01*
X37135Y-7234D01*
X37115Y-7183D01*
X37104Y-7123D01*
X37105Y-7068D01*
X37117Y-7008D01*
X37139Y-6958D01*
X37173Y-6908D01*
X37212Y-6869D01*
X37264Y-6836D01*
X37314Y-6815D01*
X37374Y-6804D01*
X37429Y-6804D01*
X37489Y-6817D01*
X37539Y-6838D01*
X37590Y-6872D01*
X37628Y-6911D01*
X37662Y-6962D01*
X37683Y-7012D01*
X37683Y-7014D01*
X37695Y-7071D01*
X37695Y-7072D01*
X37695Y-7072D01*
G37*
G36*
X37695Y-8072D02*
X37694Y-8135D01*
X37680Y-8194D01*
X37658Y-8245D01*
X37623Y-8294D01*
X37583Y-8332D01*
X37532Y-8365D01*
X37481Y-8385D01*
X37421Y-8395D01*
X37366Y-8394D01*
X37306Y-8381D01*
X37256Y-8359D01*
X37206Y-8324D01*
X37168Y-8285D01*
X37135Y-8234D01*
X37115Y-8183D01*
X37104Y-8123D01*
X37105Y-8068D01*
X37117Y-8008D01*
X37139Y-7958D01*
X37173Y-7908D01*
X37212Y-7869D01*
X37264Y-7836D01*
X37314Y-7815D01*
X37374Y-7804D01*
X37429Y-7804D01*
X37489Y-7817D01*
X37539Y-7838D01*
X37590Y-7872D01*
X37628Y-7911D01*
X37662Y-7962D01*
X37683Y-8012D01*
X37683Y-8014D01*
X37695Y-8071D01*
X37695Y-8072D01*
X37695Y-8072D01*
G37*
G36*
X37695Y-35072D02*
X37694Y-35135D01*
X37680Y-35194D01*
X37658Y-35245D01*
X37623Y-35294D01*
X37583Y-35332D01*
X37532Y-35365D01*
X37481Y-35385D01*
X37421Y-35395D01*
X37366Y-35394D01*
X37306Y-35381D01*
X37256Y-35359D01*
X37206Y-35324D01*
X37168Y-35285D01*
X37135Y-35234D01*
X37115Y-35183D01*
X37104Y-35123D01*
X37105Y-35068D01*
X37117Y-35008D01*
X37139Y-34958D01*
X37173Y-34908D01*
X37212Y-34869D01*
X37264Y-34836D01*
X37314Y-34815D01*
X37374Y-34804D01*
X37429Y-34804D01*
X37489Y-34817D01*
X37539Y-34838D01*
X37590Y-34872D01*
X37628Y-34911D01*
X37662Y-34962D01*
X37683Y-35012D01*
X37683Y-35014D01*
X37695Y-35071D01*
X37695Y-35072D01*
X37695Y-35072D01*
G37*
G36*
X37695Y-36395D02*
X37104Y-36395D01*
X37104Y-35804D01*
X37695Y-35804D01*
X37695Y-36395D01*
X37695Y-36395D01*
G37*
G36*
X37720Y-38025D02*
X37717Y-38195D01*
X37683Y-38345D01*
X37623Y-38480D01*
X37534Y-38606D01*
X37427Y-38708D01*
X37297Y-38791D01*
X37159Y-38844D01*
X37007Y-38871D01*
X36859Y-38868D01*
X36709Y-38835D01*
X36573Y-38776D01*
X36447Y-38688D01*
X36344Y-38581D01*
X36260Y-38452D01*
X36206Y-38314D01*
X36178Y-38163D01*
X36180Y-38015D01*
X36212Y-37864D01*
X36270Y-37728D01*
X36358Y-37601D01*
X36463Y-37497D01*
X36593Y-37413D01*
X36729Y-37358D01*
X36881Y-37329D01*
X37029Y-37330D01*
X37180Y-37361D01*
X37316Y-37418D01*
X37444Y-37504D01*
X37548Y-37609D01*
X37634Y-37738D01*
X37690Y-37874D01*
X37720Y-38025D01*
X37720Y-38025D01*
G37*
G36*
X39040Y-29821D02*
X39037Y-30001D01*
X39001Y-30161D01*
X38937Y-30305D01*
X38842Y-30439D01*
X38728Y-30548D01*
X38590Y-30636D01*
X38443Y-30693D01*
X38281Y-30721D01*
X38123Y-30718D01*
X37963Y-30683D01*
X37819Y-30620D01*
X37684Y-30526D01*
X37575Y-30413D01*
X37486Y-30275D01*
X37428Y-30128D01*
X37398Y-29967D01*
X37400Y-29809D01*
X37434Y-29649D01*
X37496Y-29504D01*
X37589Y-29368D01*
X37702Y-29258D01*
X37839Y-29168D01*
X37985Y-29109D01*
X38147Y-29079D01*
X38304Y-29080D01*
X38465Y-29113D01*
X38610Y-29174D01*
X38746Y-29266D01*
X38857Y-29377D01*
X38948Y-29514D01*
X39008Y-29659D01*
X39040Y-29821D01*
X39040Y-29821D01*
G37*
G36*
X39220Y-39695D02*
X38829Y-39695D01*
X38829Y-39104D01*
X39220Y-39104D01*
X39220Y-39695D01*
X39220Y-39695D01*
G37*
G36*
X39921Y-7060D02*
X39920Y-7151D01*
X39901Y-7235D01*
X39869Y-7308D01*
X39819Y-7377D01*
X39762Y-7432D01*
X39689Y-7478D01*
X39615Y-7507D01*
X39530Y-7522D01*
X39451Y-7520D01*
X39367Y-7502D01*
X39294Y-7470D01*
X39224Y-7421D01*
X39168Y-7364D01*
X39122Y-7292D01*
X39093Y-7218D01*
X39077Y-7133D01*
X39078Y-7054D01*
X39096Y-6970D01*
X39127Y-6897D01*
X39176Y-6826D01*
X39233Y-6770D01*
X39305Y-6723D01*
X39378Y-6694D01*
X39463Y-6677D01*
X39542Y-6678D01*
X39627Y-6695D01*
X39699Y-6726D01*
X39771Y-6774D01*
X39827Y-6830D01*
X39875Y-6902D01*
X39905Y-6975D01*
X39921Y-7060D01*
X39921Y-7060D01*
G37*
G36*
X39970Y-36265D02*
X39969Y-36345D01*
X39952Y-36418D01*
X39924Y-36482D01*
X39880Y-36544D01*
X39830Y-36592D01*
X39766Y-36632D01*
X39701Y-36657D01*
X39626Y-36670D01*
X39557Y-36669D01*
X39483Y-36653D01*
X39419Y-36625D01*
X39357Y-36582D01*
X39309Y-36532D01*
X39268Y-36468D01*
X39242Y-36404D01*
X39229Y-36329D01*
X39230Y-36260D01*
X39245Y-36185D01*
X39273Y-36122D01*
X39316Y-36059D01*
X39365Y-36011D01*
X39429Y-35969D01*
X39493Y-35943D01*
X39568Y-35929D01*
X39637Y-35929D01*
X39711Y-35945D01*
X39775Y-35971D01*
X39838Y-36014D01*
X39887Y-36063D01*
X39929Y-36127D01*
X39955Y-36190D01*
X39970Y-36265D01*
X39970Y-36265D01*
G37*
G36*
X39970Y-39695D02*
X39579Y-39695D01*
X39579Y-39104D01*
X39970Y-39104D01*
X39970Y-39695D01*
X39970Y-39695D01*
G37*
G36*
X40620Y-39695D02*
X40229Y-39695D01*
X40229Y-39104D01*
X40620Y-39104D01*
X40620Y-39695D01*
X40620Y-39695D01*
G37*
G36*
X40921Y-6060D02*
X40920Y-6151D01*
X40901Y-6235D01*
X40869Y-6308D01*
X40819Y-6377D01*
X40762Y-6432D01*
X40689Y-6478D01*
X40615Y-6507D01*
X40530Y-6522D01*
X40451Y-6520D01*
X40367Y-6502D01*
X40294Y-6470D01*
X40224Y-6421D01*
X40168Y-6364D01*
X40122Y-6292D01*
X40093Y-6218D01*
X40077Y-6133D01*
X40078Y-6054D01*
X40096Y-5970D01*
X40127Y-5897D01*
X40176Y-5826D01*
X40233Y-5770D01*
X40305Y-5723D01*
X40378Y-5694D01*
X40463Y-5677D01*
X40542Y-5678D01*
X40627Y-5695D01*
X40699Y-5726D01*
X40771Y-5774D01*
X40827Y-5830D01*
X40875Y-5902D01*
X40905Y-5975D01*
X40921Y-6060D01*
X40921Y-6060D01*
G37*
G36*
X40970Y-36670D02*
X40229Y-36670D01*
X40229Y-35929D01*
X40970Y-35929D01*
X40970Y-36670D01*
X40970Y-36670D01*
G37*
G36*
X41170Y-11365D02*
X41169Y-11445D01*
X41152Y-11518D01*
X41124Y-11582D01*
X41080Y-11644D01*
X41030Y-11692D01*
X40966Y-11732D01*
X40901Y-11757D01*
X40826Y-11770D01*
X40757Y-11769D01*
X40683Y-11753D01*
X40619Y-11725D01*
X40557Y-11682D01*
X40509Y-11632D01*
X40468Y-11568D01*
X40442Y-11504D01*
X40429Y-11429D01*
X40430Y-11360D01*
X40445Y-11285D01*
X40473Y-11222D01*
X40516Y-11159D01*
X40565Y-11111D01*
X40629Y-11069D01*
X40693Y-11043D01*
X40768Y-11029D01*
X40837Y-11029D01*
X40911Y-11045D01*
X40975Y-11071D01*
X41038Y-11114D01*
X41087Y-11163D01*
X41129Y-11227D01*
X41155Y-11290D01*
X41170Y-11365D01*
X41170Y-11365D01*
G37*
G36*
X41170Y-15865D02*
X41169Y-15945D01*
X41152Y-16018D01*
X41124Y-16082D01*
X41080Y-16144D01*
X41030Y-16192D01*
X40966Y-16232D01*
X40901Y-16257D01*
X40826Y-16270D01*
X40757Y-16269D01*
X40683Y-16253D01*
X40619Y-16225D01*
X40557Y-16182D01*
X40509Y-16132D01*
X40468Y-16068D01*
X40442Y-16004D01*
X40429Y-15929D01*
X40430Y-15860D01*
X40445Y-15785D01*
X40473Y-15722D01*
X40516Y-15659D01*
X40565Y-15611D01*
X40629Y-15569D01*
X40693Y-15543D01*
X40768Y-15529D01*
X40837Y-15529D01*
X40911Y-15545D01*
X40975Y-15571D01*
X41038Y-15614D01*
X41087Y-15663D01*
X41129Y-15727D01*
X41155Y-15790D01*
X41170Y-15865D01*
X41170Y-15865D01*
G37*
G36*
X41170Y-20365D02*
X41169Y-20445D01*
X41152Y-20518D01*
X41124Y-20582D01*
X41080Y-20644D01*
X41030Y-20692D01*
X40966Y-20732D01*
X40901Y-20757D01*
X40826Y-20770D01*
X40757Y-20769D01*
X40683Y-20753D01*
X40619Y-20725D01*
X40557Y-20682D01*
X40509Y-20632D01*
X40468Y-20568D01*
X40442Y-20504D01*
X40429Y-20429D01*
X40430Y-20360D01*
X40445Y-20285D01*
X40473Y-20222D01*
X40516Y-20159D01*
X40565Y-20111D01*
X40629Y-20069D01*
X40693Y-20043D01*
X40768Y-20029D01*
X40837Y-20029D01*
X40911Y-20045D01*
X40975Y-20071D01*
X41038Y-20114D01*
X41087Y-20163D01*
X41129Y-20227D01*
X41155Y-20290D01*
X41170Y-20365D01*
X41170Y-20365D01*
G37*
G36*
X41170Y-24865D02*
X41169Y-24945D01*
X41152Y-25018D01*
X41124Y-25082D01*
X41080Y-25144D01*
X41030Y-25192D01*
X40966Y-25232D01*
X40901Y-25257D01*
X40826Y-25270D01*
X40757Y-25269D01*
X40683Y-25253D01*
X40619Y-25225D01*
X40557Y-25182D01*
X40509Y-25132D01*
X40468Y-25068D01*
X40442Y-25004D01*
X40429Y-24929D01*
X40430Y-24860D01*
X40445Y-24785D01*
X40473Y-24722D01*
X40516Y-24659D01*
X40565Y-24611D01*
X40629Y-24569D01*
X40693Y-24543D01*
X40768Y-24529D01*
X40837Y-24529D01*
X40911Y-24545D01*
X40975Y-24571D01*
X41038Y-24614D01*
X41087Y-24663D01*
X41129Y-24727D01*
X41155Y-24790D01*
X41170Y-24865D01*
X41170Y-24865D01*
G37*
G36*
X41170Y-33765D02*
X41169Y-33845D01*
X41152Y-33918D01*
X41124Y-33982D01*
X41080Y-34044D01*
X41030Y-34092D01*
X40966Y-34132D01*
X40901Y-34157D01*
X40826Y-34170D01*
X40757Y-34169D01*
X40683Y-34153D01*
X40619Y-34125D01*
X40557Y-34082D01*
X40509Y-34032D01*
X40468Y-33968D01*
X40442Y-33904D01*
X40429Y-33829D01*
X40430Y-33760D01*
X40445Y-33685D01*
X40473Y-33622D01*
X40516Y-33559D01*
X40565Y-33511D01*
X40629Y-33469D01*
X40693Y-33443D01*
X40768Y-33429D01*
X40837Y-33429D01*
X40911Y-33445D01*
X40975Y-33471D01*
X41038Y-33514D01*
X41087Y-33563D01*
X41129Y-33627D01*
X41155Y-33690D01*
X41170Y-33765D01*
X41170Y-33765D01*
G37*
G36*
X41170Y-9770D02*
X40429Y-9770D01*
X40429Y-9029D01*
X41170Y-9029D01*
X41170Y-9770D01*
X41170Y-9770D01*
G37*
G36*
X41170Y-14270D02*
X40429Y-14270D01*
X40429Y-13529D01*
X41170Y-13529D01*
X41170Y-14270D01*
X41170Y-14270D01*
G37*
G36*
X41170Y-18770D02*
X40429Y-18770D01*
X40429Y-18029D01*
X41170Y-18029D01*
X41170Y-18770D01*
X41170Y-18770D01*
G37*
G36*
X41170Y-23270D02*
X40429Y-23270D01*
X40429Y-22529D01*
X41170Y-22529D01*
X41170Y-23270D01*
X41170Y-23270D01*
G37*
G36*
X41170Y-32170D02*
X40429Y-32170D01*
X40429Y-31429D01*
X41170Y-31429D01*
X41170Y-32170D01*
X41170Y-32170D01*
G37*
G36*
X41370Y-39695D02*
X40979Y-39695D01*
X40979Y-39104D01*
X41370Y-39104D01*
X41370Y-39695D01*
X41370Y-39695D01*
G37*
G36*
X41921Y-7521D02*
X41078Y-7521D01*
X41078Y-6678D01*
X41921Y-6678D01*
X41921Y-7521D01*
X41921Y-7521D01*
G37*
G36*
X41970Y-36265D02*
X41969Y-36345D01*
X41952Y-36418D01*
X41924Y-36482D01*
X41880Y-36544D01*
X41830Y-36592D01*
X41766Y-36632D01*
X41701Y-36657D01*
X41626Y-36670D01*
X41557Y-36669D01*
X41483Y-36653D01*
X41419Y-36625D01*
X41357Y-36582D01*
X41309Y-36532D01*
X41268Y-36468D01*
X41242Y-36404D01*
X41229Y-36329D01*
X41230Y-36260D01*
X41245Y-36185D01*
X41273Y-36122D01*
X41316Y-36059D01*
X41365Y-36011D01*
X41429Y-35969D01*
X41493Y-35943D01*
X41568Y-35929D01*
X41637Y-35929D01*
X41711Y-35945D01*
X41775Y-35971D01*
X41838Y-36014D01*
X41887Y-36063D01*
X41929Y-36127D01*
X41955Y-36190D01*
X41970Y-36265D01*
X41970Y-36265D01*
G37*
G36*
X42170Y-29265D02*
X42169Y-29345D01*
X42152Y-29418D01*
X42124Y-29482D01*
X42080Y-29544D01*
X42030Y-29592D01*
X41966Y-29632D01*
X41901Y-29657D01*
X41826Y-29670D01*
X41757Y-29669D01*
X41683Y-29653D01*
X41619Y-29625D01*
X41557Y-29582D01*
X41509Y-29532D01*
X41468Y-29468D01*
X41442Y-29404D01*
X41429Y-29329D01*
X41430Y-29260D01*
X41445Y-29185D01*
X41473Y-29122D01*
X41516Y-29059D01*
X41565Y-29011D01*
X41629Y-28969D01*
X41693Y-28943D01*
X41768Y-28929D01*
X41837Y-28929D01*
X41911Y-28945D01*
X41975Y-28971D01*
X42038Y-29014D01*
X42087Y-29063D01*
X42129Y-29127D01*
X42155Y-29190D01*
X42170Y-29265D01*
X42170Y-29265D01*
G37*
G36*
X42170Y-27670D02*
X41429Y-27670D01*
X41429Y-26929D01*
X42170Y-26929D01*
X42170Y-27670D01*
X42170Y-27670D01*
G37*
G36*
X42844Y-40858D02*
X42843Y-40953D01*
X42823Y-41038D01*
X42790Y-41113D01*
X42739Y-41185D01*
X42680Y-41242D01*
X42606Y-41289D01*
X42529Y-41319D01*
X42442Y-41334D01*
X42360Y-41332D01*
X42274Y-41313D01*
X42199Y-41281D01*
X42127Y-41230D01*
X42070Y-41171D01*
X42022Y-41097D01*
X41992Y-41021D01*
X41976Y-40934D01*
X41977Y-40853D01*
X41996Y-40766D01*
X42028Y-40691D01*
X42078Y-40618D01*
X42136Y-40561D01*
X42210Y-40513D01*
X42286Y-40482D01*
X42373Y-40465D01*
X42454Y-40466D01*
X42541Y-40484D01*
X42616Y-40515D01*
X42690Y-40565D01*
X42747Y-40623D01*
X42796Y-40697D01*
X42827Y-40772D01*
X42844Y-40858D01*
X42844Y-40858D01*
G37*
G36*
X43695Y-33620D02*
X43104Y-33620D01*
X43104Y-33229D01*
X43695Y-33229D01*
X43695Y-33620D01*
X43695Y-33620D01*
G37*
G36*
X43695Y-34370D02*
X43104Y-34370D01*
X43104Y-33979D01*
X43695Y-33979D01*
X43695Y-34370D01*
X43695Y-34370D01*
G37*
G36*
X43696Y-9950D02*
X42947Y-9950D01*
X42947Y-8649D01*
X43696Y-8649D01*
X43696Y-9950D01*
X43696Y-9950D01*
G37*
G36*
X43795Y-30720D02*
X43204Y-30720D01*
X43204Y-30329D01*
X43795Y-30329D01*
X43795Y-30720D01*
X43795Y-30720D01*
G37*
G36*
X43795Y-31470D02*
X43204Y-31470D01*
X43204Y-31079D01*
X43795Y-31079D01*
X43795Y-31470D01*
X43795Y-31470D01*
G37*
G36*
X43795Y-32220D02*
X43204Y-32220D01*
X43204Y-31829D01*
X43795Y-31829D01*
X43795Y-32220D01*
X43795Y-32220D01*
G37*
G36*
X43795Y-32970D02*
X43204Y-32970D01*
X43204Y-32579D01*
X43795Y-32579D01*
X43795Y-32970D01*
X43795Y-32970D01*
G37*
G36*
X44120Y-6620D02*
X43479Y-6620D01*
X43479Y-5979D01*
X44120Y-5979D01*
X44120Y-6620D01*
X44120Y-6620D01*
G37*
G36*
X44203Y-41314D02*
X43374Y-41314D01*
X43374Y-40485D01*
X44203Y-40485D01*
X44203Y-41314D01*
X44203Y-41314D01*
G37*
G36*
X44203Y-12297D02*
X44202Y-12361D01*
X44189Y-12420D01*
X44166Y-12470D01*
X44131Y-12520D01*
X44091Y-12558D01*
X44040Y-12591D01*
X43989Y-12611D01*
X43929Y-12621D01*
X43874Y-12620D01*
X43814Y-12607D01*
X43764Y-12585D01*
X43714Y-12550D01*
X43675Y-12511D01*
X43642Y-12459D01*
X43622Y-12408D01*
X43611Y-12348D01*
X43612Y-12293D01*
X43625Y-12233D01*
X43646Y-12183D01*
X43681Y-12132D01*
X43720Y-12094D01*
X43771Y-12060D01*
X43822Y-12040D01*
X43882Y-12029D01*
X43937Y-12029D01*
X43997Y-12041D01*
X44047Y-12062D01*
X44098Y-12097D01*
X44136Y-12135D01*
X44171Y-12187D01*
X44191Y-12237D01*
X44203Y-12297D01*
X44203Y-12297D01*
G37*
G36*
X44203Y-13085D02*
X44202Y-13148D01*
X44189Y-13207D01*
X44166Y-13258D01*
X44131Y-13307D01*
X44091Y-13345D01*
X44040Y-13378D01*
X43989Y-13398D01*
X43929Y-13409D01*
X43874Y-13407D01*
X43814Y-13394D01*
X43764Y-13372D01*
X43714Y-13337D01*
X43675Y-13298D01*
X43642Y-13246D01*
X43622Y-13196D01*
X43611Y-13135D01*
X43612Y-13081D01*
X43625Y-13021D01*
X43646Y-12970D01*
X43681Y-12920D01*
X43720Y-12882D01*
X43771Y-12848D01*
X43822Y-12827D01*
X43882Y-12816D01*
X43937Y-12816D01*
X43997Y-12829D01*
X44047Y-12850D01*
X44098Y-12884D01*
X44136Y-12923D01*
X44171Y-12974D01*
X44191Y-13024D01*
X44203Y-13085D01*
X44203Y-13085D01*
G37*
G36*
X44203Y-13872D02*
X44202Y-13935D01*
X44189Y-13995D01*
X44166Y-14045D01*
X44131Y-14095D01*
X44091Y-14133D01*
X44040Y-14165D01*
X43989Y-14185D01*
X43929Y-14196D01*
X43874Y-14195D01*
X43814Y-14182D01*
X43764Y-14160D01*
X43714Y-14125D01*
X43675Y-14085D01*
X43642Y-14034D01*
X43622Y-13983D01*
X43611Y-13923D01*
X43612Y-13868D01*
X43625Y-13808D01*
X43646Y-13758D01*
X43681Y-13707D01*
X43720Y-13669D01*
X43771Y-13635D01*
X43822Y-13615D01*
X43882Y-13603D01*
X43937Y-13604D01*
X43997Y-13616D01*
X44047Y-13637D01*
X44098Y-13672D01*
X44136Y-13710D01*
X44171Y-13762D01*
X44191Y-13812D01*
X44203Y-13872D01*
X44203Y-13872D01*
G37*
G36*
X44203Y-15447D02*
X44202Y-15510D01*
X44189Y-15569D01*
X44166Y-15620D01*
X44131Y-15670D01*
X44091Y-15708D01*
X44040Y-15740D01*
X43989Y-15760D01*
X43929Y-15771D01*
X43874Y-15770D01*
X43814Y-15756D01*
X43764Y-15734D01*
X43714Y-15700D01*
X43675Y-15660D01*
X43642Y-15609D01*
X43622Y-15558D01*
X43611Y-15497D01*
X43612Y-15443D01*
X43625Y-15383D01*
X43646Y-15333D01*
X43681Y-15282D01*
X43720Y-15244D01*
X43771Y-15210D01*
X43822Y-15190D01*
X43882Y-15178D01*
X43937Y-15179D01*
X43997Y-15191D01*
X44047Y-15212D01*
X44098Y-15247D01*
X44136Y-15285D01*
X44171Y-15336D01*
X44191Y-15387D01*
X44203Y-15447D01*
X44203Y-15447D01*
G37*
G36*
X44320Y-34695D02*
X43929Y-34695D01*
X43929Y-34104D01*
X44320Y-34104D01*
X44320Y-34695D01*
X44320Y-34695D01*
G37*
G36*
X44320Y-35595D02*
X43929Y-35595D01*
X43929Y-35004D01*
X44320Y-35004D01*
X44320Y-35595D01*
X44320Y-35595D01*
G37*
G36*
X44388Y-31545D02*
X44111Y-31545D01*
X44111Y-30954D01*
X44388Y-30954D01*
X44388Y-31545D01*
X44388Y-31545D01*
G37*
G36*
X44388Y-33645D02*
X44111Y-33645D01*
X44111Y-33054D01*
X44388Y-33054D01*
X44388Y-33645D01*
X44388Y-33645D01*
G37*
G36*
X44520Y-30695D02*
X44129Y-30695D01*
X44129Y-30104D01*
X44520Y-30104D01*
X44520Y-30695D01*
X44520Y-30695D01*
G37*
G36*
X44720Y-7495D02*
X44329Y-7495D01*
X44329Y-6904D01*
X44720Y-6904D01*
X44720Y-7495D01*
X44720Y-7495D01*
G37*
G36*
X44735Y-11467D02*
X44734Y-11539D01*
X44719Y-11606D01*
X44693Y-11663D01*
X44653Y-11719D01*
X44608Y-11762D01*
X44550Y-11799D01*
X44492Y-11822D01*
X44424Y-11834D01*
X44361Y-11832D01*
X44294Y-11818D01*
X44237Y-11793D01*
X44180Y-11753D01*
X44137Y-11708D01*
X44099Y-11650D01*
X44076Y-11592D01*
X44064Y-11524D01*
X44065Y-11462D01*
X44079Y-11394D01*
X44104Y-11337D01*
X44143Y-11280D01*
X44187Y-11237D01*
X44245Y-11199D01*
X44303Y-11175D01*
X44371Y-11162D01*
X44433Y-11163D01*
X44501Y-11177D01*
X44558Y-11201D01*
X44616Y-11240D01*
X44659Y-11284D01*
X44698Y-11342D01*
X44721Y-11399D01*
X44734Y-11465D01*
X44735Y-11467D01*
X44735Y-11467D01*
G37*
G36*
X44735Y-16270D02*
X44734Y-16342D01*
X44719Y-16409D01*
X44693Y-16466D01*
X44653Y-16522D01*
X44608Y-16566D01*
X44550Y-16602D01*
X44492Y-16625D01*
X44424Y-16637D01*
X44361Y-16636D01*
X44294Y-16621D01*
X44237Y-16596D01*
X44180Y-16556D01*
X44137Y-16512D01*
X44099Y-16454D01*
X44076Y-16395D01*
X44064Y-16328D01*
X44065Y-16265D01*
X44079Y-16198D01*
X44104Y-16140D01*
X44143Y-16083D01*
X44187Y-16040D01*
X44245Y-16002D01*
X44303Y-15979D01*
X44371Y-15966D01*
X44433Y-15966D01*
X44501Y-15980D01*
X44558Y-16004D01*
X44616Y-16043D01*
X44659Y-16087D01*
X44698Y-16145D01*
X44721Y-16202D01*
X44734Y-16268D01*
X44735Y-16270D01*
X44735Y-16270D01*
G37*
G36*
X44888Y-31545D02*
X44611Y-31545D01*
X44611Y-30954D01*
X44888Y-30954D01*
X44888Y-31545D01*
X44888Y-31545D01*
G37*
G36*
X44888Y-33645D02*
X44611Y-33645D01*
X44611Y-33054D01*
X44888Y-33054D01*
X44888Y-33645D01*
X44888Y-33645D01*
G37*
G36*
X45070Y-34695D02*
X44679Y-34695D01*
X44679Y-34104D01*
X45070Y-34104D01*
X45070Y-34695D01*
X45070Y-34695D01*
G37*
G36*
X45070Y-35595D02*
X44679Y-35595D01*
X44679Y-35004D01*
X45070Y-35004D01*
X45070Y-35595D01*
X45070Y-35595D01*
G37*
G36*
X45095Y-20920D02*
X44504Y-20920D01*
X44504Y-20529D01*
X45095Y-20529D01*
X45095Y-20920D01*
X45095Y-20920D01*
G37*
G36*
X45095Y-21670D02*
X44504Y-21670D01*
X44504Y-21279D01*
X45095Y-21279D01*
X45095Y-21670D01*
X45095Y-21670D01*
G37*
G36*
X45120Y-6270D02*
X45119Y-6338D01*
X45104Y-6402D01*
X45080Y-6457D01*
X45042Y-6511D01*
X44999Y-6552D01*
X44943Y-6587D01*
X44887Y-6609D01*
X44823Y-6620D01*
X44763Y-6619D01*
X44699Y-6605D01*
X44644Y-6581D01*
X44590Y-6543D01*
X44548Y-6501D01*
X44513Y-6445D01*
X44491Y-6390D01*
X44479Y-6325D01*
X44480Y-6265D01*
X44493Y-6201D01*
X44517Y-6146D01*
X44554Y-6091D01*
X44597Y-6050D01*
X44652Y-6014D01*
X44707Y-5991D01*
X44772Y-5979D01*
X44831Y-5979D01*
X44896Y-5993D01*
X44951Y-6016D01*
X45006Y-6053D01*
X45048Y-6095D01*
X45084Y-6150D01*
X45107Y-6205D01*
X45120Y-6270D01*
X45120Y-6270D01*
G37*
G36*
X45188Y-12297D02*
X45187Y-12361D01*
X45173Y-12420D01*
X45151Y-12470D01*
X45116Y-12520D01*
X45076Y-12558D01*
X45024Y-12591D01*
X44973Y-12611D01*
X44913Y-12621D01*
X44858Y-12620D01*
X44798Y-12607D01*
X44748Y-12585D01*
X44698Y-12550D01*
X44660Y-12511D01*
X44627Y-12459D01*
X44606Y-12408D01*
X44595Y-12348D01*
X44596Y-12293D01*
X44609Y-12233D01*
X44630Y-12183D01*
X44665Y-12132D01*
X44704Y-12094D01*
X44756Y-12060D01*
X44806Y-12040D01*
X44867Y-12029D01*
X44921Y-12029D01*
X44981Y-12041D01*
X45031Y-12062D01*
X45083Y-12097D01*
X45121Y-12135D01*
X45155Y-12187D01*
X45176Y-12237D01*
X45188Y-12297D01*
X45188Y-12297D01*
G37*
G36*
X45188Y-13085D02*
X45187Y-13148D01*
X45173Y-13207D01*
X45151Y-13258D01*
X45116Y-13307D01*
X45076Y-13345D01*
X45024Y-13378D01*
X44973Y-13398D01*
X44913Y-13409D01*
X44858Y-13407D01*
X44798Y-13394D01*
X44748Y-13372D01*
X44698Y-13337D01*
X44660Y-13298D01*
X44627Y-13246D01*
X44606Y-13196D01*
X44595Y-13135D01*
X44596Y-13081D01*
X44609Y-13021D01*
X44630Y-12970D01*
X44665Y-12920D01*
X44704Y-12882D01*
X44756Y-12848D01*
X44806Y-12827D01*
X44867Y-12816D01*
X44921Y-12816D01*
X44981Y-12829D01*
X45031Y-12850D01*
X45083Y-12884D01*
X45121Y-12923D01*
X45155Y-12974D01*
X45176Y-13024D01*
X45188Y-13085D01*
X45188Y-13085D01*
G37*
G36*
X45188Y-13872D02*
X45187Y-13935D01*
X45173Y-13995D01*
X45151Y-14045D01*
X45116Y-14095D01*
X45076Y-14133D01*
X45024Y-14165D01*
X44973Y-14185D01*
X44913Y-14196D01*
X44858Y-14195D01*
X44798Y-14182D01*
X44748Y-14160D01*
X44698Y-14125D01*
X44660Y-14085D01*
X44627Y-14034D01*
X44606Y-13983D01*
X44595Y-13923D01*
X44596Y-13868D01*
X44609Y-13808D01*
X44630Y-13758D01*
X44665Y-13707D01*
X44704Y-13669D01*
X44756Y-13635D01*
X44806Y-13615D01*
X44867Y-13603D01*
X44921Y-13604D01*
X44981Y-13616D01*
X45031Y-13637D01*
X45083Y-13672D01*
X45121Y-13710D01*
X45155Y-13762D01*
X45176Y-13812D01*
X45188Y-13872D01*
X45188Y-13872D01*
G37*
G36*
X45188Y-15770D02*
X44596Y-15770D01*
X44596Y-15178D01*
X45188Y-15178D01*
X45188Y-15770D01*
X45188Y-15770D01*
G37*
G36*
X45270Y-30695D02*
X44879Y-30695D01*
X44879Y-30104D01*
X45270Y-30104D01*
X45270Y-30695D01*
X45270Y-30695D01*
G37*
G36*
X45388Y-31545D02*
X45111Y-31545D01*
X45111Y-30954D01*
X45388Y-30954D01*
X45388Y-31545D01*
X45388Y-31545D01*
G37*
G36*
X45388Y-33645D02*
X45111Y-33645D01*
X45111Y-33054D01*
X45388Y-33054D01*
X45388Y-33645D01*
X45388Y-33645D01*
G37*
G36*
X45470Y-7495D02*
X45079Y-7495D01*
X45079Y-6904D01*
X45470Y-6904D01*
X45470Y-7495D01*
X45470Y-7495D01*
G37*
G36*
X45788Y-20345D02*
X45511Y-20345D01*
X45511Y-19754D01*
X45788Y-19754D01*
X45788Y-20345D01*
X45788Y-20345D01*
G37*
G36*
X45788Y-22445D02*
X45511Y-22445D01*
X45511Y-21854D01*
X45788Y-21854D01*
X45788Y-22445D01*
X45788Y-22445D01*
G37*
G36*
X45820Y-34595D02*
X45429Y-34595D01*
X45429Y-34004D01*
X45820Y-34004D01*
X45820Y-34595D01*
X45820Y-34595D01*
G37*
G36*
X45888Y-31545D02*
X45611Y-31545D01*
X45611Y-30954D01*
X45888Y-30954D01*
X45888Y-31545D01*
X45888Y-31545D01*
G37*
G36*
X45888Y-33645D02*
X45611Y-33645D01*
X45611Y-33054D01*
X45888Y-33054D01*
X45888Y-33645D01*
X45888Y-33645D01*
G37*
G36*
X45895Y-18720D02*
X45304Y-18720D01*
X45304Y-18329D01*
X45895Y-18329D01*
X45895Y-18720D01*
X45895Y-18720D01*
G37*
G36*
X45895Y-19470D02*
X45304Y-19470D01*
X45304Y-19079D01*
X45895Y-19079D01*
X45895Y-19470D01*
X45895Y-19470D01*
G37*
G36*
X45895Y-24020D02*
X45304Y-24020D01*
X45304Y-23629D01*
X45895Y-23629D01*
X45895Y-24020D01*
X45895Y-24020D01*
G37*
G36*
X45895Y-24770D02*
X45304Y-24770D01*
X45304Y-24379D01*
X45895Y-24379D01*
X45895Y-24770D01*
X45895Y-24770D01*
G37*
G36*
X45920Y-23295D02*
X45529Y-23295D01*
X45529Y-22704D01*
X45920Y-22704D01*
X45920Y-23295D01*
X45920Y-23295D01*
G37*
G36*
X46120Y-6270D02*
X46119Y-6338D01*
X46104Y-6402D01*
X46080Y-6457D01*
X46042Y-6511D01*
X45999Y-6552D01*
X45943Y-6587D01*
X45887Y-6609D01*
X45823Y-6620D01*
X45763Y-6619D01*
X45699Y-6605D01*
X45644Y-6581D01*
X45590Y-6543D01*
X45548Y-6501D01*
X45513Y-6445D01*
X45491Y-6390D01*
X45479Y-6325D01*
X45480Y-6265D01*
X45493Y-6201D01*
X45517Y-6146D01*
X45554Y-6091D01*
X45597Y-6050D01*
X45652Y-6014D01*
X45707Y-5991D01*
X45772Y-5979D01*
X45831Y-5979D01*
X45896Y-5993D01*
X45951Y-6016D01*
X46006Y-6053D01*
X46048Y-6095D01*
X46084Y-6150D01*
X46107Y-6205D01*
X46120Y-6270D01*
X46120Y-6270D01*
G37*
G36*
X46288Y-20345D02*
X46011Y-20345D01*
X46011Y-19754D01*
X46288Y-19754D01*
X46288Y-20345D01*
X46288Y-20345D01*
G37*
G36*
X46288Y-22445D02*
X46011Y-22445D01*
X46011Y-21854D01*
X46288Y-21854D01*
X46288Y-22445D01*
X46288Y-22445D01*
G37*
G36*
X46370Y-17345D02*
X45979Y-17345D01*
X45979Y-16754D01*
X46370Y-16754D01*
X46370Y-17345D01*
X46370Y-17345D01*
G37*
G36*
X46452Y-9950D02*
X45703Y-9950D01*
X45703Y-8649D01*
X46452Y-8649D01*
X46452Y-9950D01*
X46452Y-9950D01*
G37*
G36*
X46570Y-34595D02*
X46179Y-34595D01*
X46179Y-34004D01*
X46570Y-34004D01*
X46570Y-34595D01*
X46570Y-34595D01*
G37*
G36*
X46620Y-18695D02*
X46229Y-18695D01*
X46229Y-18104D01*
X46620Y-18104D01*
X46620Y-18695D01*
X46620Y-18695D01*
G37*
G36*
X46620Y-19495D02*
X46229Y-19495D01*
X46229Y-18904D01*
X46620Y-18904D01*
X46620Y-19495D01*
X46620Y-19495D01*
G37*
G36*
X46670Y-23295D02*
X46279Y-23295D01*
X46279Y-22704D01*
X46670Y-22704D01*
X46670Y-23295D01*
X46670Y-23295D01*
G37*
G36*
X46788Y-20345D02*
X46511Y-20345D01*
X46511Y-19754D01*
X46788Y-19754D01*
X46788Y-20345D01*
X46788Y-20345D01*
G37*
G36*
X46788Y-22445D02*
X46511Y-22445D01*
X46511Y-21854D01*
X46788Y-21854D01*
X46788Y-22445D01*
X46788Y-22445D01*
G37*
G36*
X46850Y-37396D02*
X45549Y-37396D01*
X45549Y-36647D01*
X46850Y-36647D01*
X46850Y-37396D01*
X46850Y-37396D01*
G37*
G36*
X46850Y-40152D02*
X45549Y-40152D01*
X45549Y-39403D01*
X46850Y-39403D01*
X46850Y-40152D01*
X46850Y-40152D01*
G37*
G36*
X46895Y-24020D02*
X46304Y-24020D01*
X46304Y-23629D01*
X46895Y-23629D01*
X46895Y-24020D01*
X46895Y-24020D01*
G37*
G36*
X46895Y-24770D02*
X46304Y-24770D01*
X46304Y-24379D01*
X46895Y-24379D01*
X46895Y-24770D01*
X46895Y-24770D01*
G37*
G36*
X47120Y-17345D02*
X46729Y-17345D01*
X46729Y-16754D01*
X47120Y-16754D01*
X47120Y-17345D01*
X47120Y-17345D01*
G37*
G36*
X47288Y-20345D02*
X47011Y-20345D01*
X47011Y-19754D01*
X47288Y-19754D01*
X47288Y-20345D01*
X47288Y-20345D01*
G37*
G36*
X47288Y-22445D02*
X47011Y-22445D01*
X47011Y-21854D01*
X47288Y-21854D01*
X47288Y-22445D01*
X47288Y-22445D01*
G37*
G36*
X47370Y-18695D02*
X46979Y-18695D01*
X46979Y-18104D01*
X47370Y-18104D01*
X47370Y-18695D01*
X47370Y-18695D01*
G37*
G36*
X47370Y-19495D02*
X46979Y-19495D01*
X46979Y-18904D01*
X47370Y-18904D01*
X47370Y-19495D01*
X47370Y-19495D01*
G37*
G36*
X47384Y-33702D02*
X46949Y-33702D01*
X46949Y-33347D01*
X47384Y-33347D01*
X47384Y-33702D01*
X47384Y-33702D01*
G37*
G36*
X47384Y-34452D02*
X46949Y-34452D01*
X46949Y-34097D01*
X47384Y-34097D01*
X47384Y-34452D01*
X47384Y-34452D01*
G37*
G36*
X47620Y-35595D02*
X47229Y-35595D01*
X47229Y-35004D01*
X47620Y-35004D01*
X47620Y-35595D01*
X47620Y-35595D01*
G37*
G36*
X47620Y-36495D02*
X47229Y-36495D01*
X47229Y-35904D01*
X47620Y-35904D01*
X47620Y-36495D01*
X47620Y-36495D01*
G37*
G36*
X48250Y-34077D02*
X47815Y-34077D01*
X47815Y-33722D01*
X48250Y-33722D01*
X48250Y-34077D01*
X48250Y-34077D01*
G37*
G36*
X48309Y-21427D02*
X47874Y-21427D01*
X47874Y-21072D01*
X48309Y-21072D01*
X48309Y-21427D01*
X48309Y-21427D01*
G37*
G36*
X48320Y-6620D02*
X47679Y-6620D01*
X47679Y-5979D01*
X48320Y-5979D01*
X48320Y-6620D01*
X48320Y-6620D01*
G37*
G36*
X48320Y-26495D02*
X47929Y-26495D01*
X47929Y-25904D01*
X48320Y-25904D01*
X48320Y-26495D01*
X48320Y-26495D01*
G37*
G36*
X48320Y-27395D02*
X47929Y-27395D01*
X47929Y-26804D01*
X48320Y-26804D01*
X48320Y-27395D01*
X48320Y-27395D01*
G37*
G36*
X48370Y-35595D02*
X47979Y-35595D01*
X47979Y-35004D01*
X48370Y-35004D01*
X48370Y-35595D01*
X48370Y-35595D01*
G37*
G36*
X48370Y-36495D02*
X47979Y-36495D01*
X47979Y-35904D01*
X48370Y-35904D01*
X48370Y-36495D01*
X48370Y-36495D01*
G37*
G36*
X48520Y-18145D02*
X48129Y-18145D01*
X48129Y-17554D01*
X48520Y-17554D01*
X48520Y-18145D01*
X48520Y-18145D01*
G37*
G36*
X48520Y-18945D02*
X48129Y-18945D01*
X48129Y-18354D01*
X48520Y-18354D01*
X48520Y-18945D01*
X48520Y-18945D01*
G37*
G36*
X48520Y-19745D02*
X48129Y-19745D01*
X48129Y-19154D01*
X48520Y-19154D01*
X48520Y-19745D01*
X48520Y-19745D01*
G37*
G36*
X48520Y-20545D02*
X48129Y-20545D01*
X48129Y-19954D01*
X48520Y-19954D01*
X48520Y-20545D01*
X48520Y-20545D01*
G37*
G36*
X48520Y-22595D02*
X48129Y-22595D01*
X48129Y-22004D01*
X48520Y-22004D01*
X48520Y-22595D01*
X48520Y-22595D01*
G37*
G36*
X48520Y-23395D02*
X48129Y-23395D01*
X48129Y-22804D01*
X48520Y-22804D01*
X48520Y-23395D01*
X48520Y-23395D01*
G37*
G36*
X48520Y-24195D02*
X48129Y-24195D01*
X48129Y-23604D01*
X48520Y-23604D01*
X48520Y-24195D01*
X48520Y-24195D01*
G37*
G36*
X48520Y-24995D02*
X48129Y-24995D01*
X48129Y-24404D01*
X48520Y-24404D01*
X48520Y-24995D01*
X48520Y-24995D01*
G37*
G36*
X49020Y-12745D02*
X47779Y-12745D01*
X47779Y-12054D01*
X49020Y-12054D01*
X49020Y-12745D01*
X49020Y-12745D01*
G37*
G36*
X49020Y-14545D02*
X47779Y-14545D01*
X47779Y-13854D01*
X49020Y-13854D01*
X49020Y-14545D01*
X49020Y-14545D01*
G37*
G36*
X49020Y-29345D02*
X47779Y-29345D01*
X47779Y-28654D01*
X49020Y-28654D01*
X49020Y-29345D01*
X49020Y-29345D01*
G37*
G36*
X49020Y-31145D02*
X47779Y-31145D01*
X47779Y-30454D01*
X49020Y-30454D01*
X49020Y-31145D01*
X49020Y-31145D01*
G37*
G36*
X49020Y-38645D02*
X47779Y-38645D01*
X47779Y-37954D01*
X49020Y-37954D01*
X49020Y-38645D01*
X49020Y-38645D01*
G37*
G36*
X49020Y-40445D02*
X47779Y-40445D01*
X47779Y-39754D01*
X49020Y-39754D01*
X49020Y-40445D01*
X49020Y-40445D01*
G37*
G36*
X49070Y-26495D02*
X48679Y-26495D01*
X48679Y-25904D01*
X49070Y-25904D01*
X49070Y-26495D01*
X49070Y-26495D01*
G37*
G36*
X49070Y-27395D02*
X48679Y-27395D01*
X48679Y-26804D01*
X49070Y-26804D01*
X49070Y-27395D01*
X49070Y-27395D01*
G37*
G36*
X49175Y-21052D02*
X48740Y-21052D01*
X48740Y-20697D01*
X49175Y-20697D01*
X49175Y-21052D01*
X49175Y-21052D01*
G37*
G36*
X49175Y-21802D02*
X48740Y-21802D01*
X48740Y-21447D01*
X49175Y-21447D01*
X49175Y-21802D01*
X49175Y-21802D01*
G37*
G36*
X49270Y-18145D02*
X48879Y-18145D01*
X48879Y-17554D01*
X49270Y-17554D01*
X49270Y-18145D01*
X49270Y-18145D01*
G37*
G36*
X49270Y-18945D02*
X48879Y-18945D01*
X48879Y-18354D01*
X49270Y-18354D01*
X49270Y-18945D01*
X49270Y-18945D01*
G37*
G36*
X49270Y-19745D02*
X48879Y-19745D01*
X48879Y-19154D01*
X49270Y-19154D01*
X49270Y-19745D01*
X49270Y-19745D01*
G37*
G36*
X49270Y-20545D02*
X48879Y-20545D01*
X48879Y-19954D01*
X49270Y-19954D01*
X49270Y-20545D01*
X49270Y-20545D01*
G37*
G36*
X49270Y-22595D02*
X48879Y-22595D01*
X48879Y-22004D01*
X49270Y-22004D01*
X49270Y-22595D01*
X49270Y-22595D01*
G37*
G36*
X49270Y-23395D02*
X48879Y-23395D01*
X48879Y-22804D01*
X49270Y-22804D01*
X49270Y-23395D01*
X49270Y-23395D01*
G37*
G36*
X49270Y-24195D02*
X48879Y-24195D01*
X48879Y-23604D01*
X49270Y-23604D01*
X49270Y-24195D01*
X49270Y-24195D01*
G37*
G36*
X49270Y-24995D02*
X48879Y-24995D01*
X48879Y-24404D01*
X49270Y-24404D01*
X49270Y-24995D01*
X49270Y-24995D01*
G37*
G36*
X49314Y-11613D02*
X48486Y-11613D01*
X48486Y-9486D01*
X49314Y-9486D01*
X49314Y-11613D01*
X49314Y-11613D01*
G37*
G36*
X49320Y-6270D02*
X49319Y-6338D01*
X49304Y-6402D01*
X49280Y-6457D01*
X49242Y-6511D01*
X49199Y-6552D01*
X49143Y-6587D01*
X49087Y-6609D01*
X49023Y-6620D01*
X48963Y-6619D01*
X48899Y-6605D01*
X48844Y-6581D01*
X48790Y-6543D01*
X48748Y-6501D01*
X48713Y-6445D01*
X48691Y-6390D01*
X48679Y-6325D01*
X48680Y-6265D01*
X48693Y-6201D01*
X48717Y-6146D01*
X48754Y-6091D01*
X48797Y-6050D01*
X48852Y-6014D01*
X48907Y-5991D01*
X48972Y-5979D01*
X49031Y-5979D01*
X49096Y-5993D01*
X49151Y-6016D01*
X49206Y-6053D01*
X49248Y-6095D01*
X49284Y-6150D01*
X49307Y-6205D01*
X49320Y-6270D01*
X49320Y-6270D01*
G37*
G36*
X49396Y-16750D02*
X48647Y-16750D01*
X48647Y-15449D01*
X49396Y-15449D01*
X49396Y-16750D01*
X49396Y-16750D01*
G37*
G36*
X49596Y-33450D02*
X48847Y-33450D01*
X48847Y-32149D01*
X49596Y-32149D01*
X49596Y-33450D01*
X49596Y-33450D01*
G37*
G36*
X49596Y-42650D02*
X48847Y-42650D01*
X48847Y-41349D01*
X49596Y-41349D01*
X49596Y-42650D01*
X49596Y-42650D01*
G37*
G36*
X49834Y-8903D02*
X49085Y-8903D01*
X49085Y-7996D01*
X49834Y-7996D01*
X49834Y-8903D01*
X49834Y-8903D01*
G37*
G36*
X50320Y-6270D02*
X50319Y-6338D01*
X50304Y-6402D01*
X50280Y-6457D01*
X50242Y-6511D01*
X50199Y-6552D01*
X50143Y-6587D01*
X50087Y-6609D01*
X50023Y-6620D01*
X49963Y-6619D01*
X49899Y-6605D01*
X49844Y-6581D01*
X49790Y-6543D01*
X49748Y-6501D01*
X49713Y-6445D01*
X49691Y-6390D01*
X49679Y-6325D01*
X49680Y-6265D01*
X49693Y-6201D01*
X49717Y-6146D01*
X49754Y-6091D01*
X49797Y-6050D01*
X49852Y-6014D01*
X49907Y-5991D01*
X49972Y-5979D01*
X50031Y-5979D01*
X50096Y-5993D01*
X50151Y-6016D01*
X50206Y-6053D01*
X50248Y-6095D01*
X50284Y-6150D01*
X50307Y-6205D01*
X50320Y-6270D01*
X50320Y-6270D01*
G37*
G36*
X50384Y-37416D02*
X49555Y-37416D01*
X49555Y-34383D01*
X50384Y-34383D01*
X50384Y-37416D01*
X50384Y-37416D01*
G37*
G36*
X50684Y-20916D02*
X49855Y-20916D01*
X49855Y-17883D01*
X50684Y-17883D01*
X50684Y-20916D01*
X50684Y-20916D01*
G37*
G36*
X50684Y-24416D02*
X49855Y-24416D01*
X49855Y-21383D01*
X50684Y-21383D01*
X50684Y-24416D01*
X50684Y-24416D01*
G37*
G36*
X50784Y-28216D02*
X49955Y-28216D01*
X49955Y-25183D01*
X50784Y-25183D01*
X50784Y-28216D01*
X50784Y-28216D01*
G37*
G36*
X51320Y-6270D02*
X51319Y-6338D01*
X51304Y-6402D01*
X51280Y-6457D01*
X51242Y-6511D01*
X51199Y-6552D01*
X51143Y-6587D01*
X51087Y-6609D01*
X51023Y-6620D01*
X50963Y-6619D01*
X50899Y-6605D01*
X50844Y-6581D01*
X50790Y-6543D01*
X50748Y-6501D01*
X50713Y-6445D01*
X50691Y-6390D01*
X50679Y-6325D01*
X50680Y-6265D01*
X50693Y-6201D01*
X50717Y-6146D01*
X50754Y-6091D01*
X50797Y-6050D01*
X50852Y-6014D01*
X50907Y-5991D01*
X50972Y-5979D01*
X51031Y-5979D01*
X51096Y-5993D01*
X51151Y-6016D01*
X51206Y-6053D01*
X51248Y-6095D01*
X51284Y-6150D01*
X51307Y-6205D01*
X51320Y-6270D01*
X51320Y-6270D01*
G37*
G36*
X51414Y-8903D02*
X50665Y-8903D01*
X50665Y-7996D01*
X51414Y-7996D01*
X51414Y-8903D01*
X51414Y-8903D01*
G37*
G36*
X51644Y-37416D02*
X50815Y-37416D01*
X50815Y-34383D01*
X51644Y-34383D01*
X51644Y-37416D01*
X51644Y-37416D01*
G37*
G36*
X51913Y-11613D02*
X51085Y-11613D01*
X51085Y-9486D01*
X51913Y-9486D01*
X51913Y-11613D01*
X51913Y-11613D01*
G37*
G36*
X51944Y-20916D02*
X51115Y-20916D01*
X51115Y-17883D01*
X51944Y-17883D01*
X51944Y-20916D01*
X51944Y-20916D01*
G37*
G36*
X51944Y-24416D02*
X51115Y-24416D01*
X51115Y-21383D01*
X51944Y-21383D01*
X51944Y-24416D01*
X51944Y-24416D01*
G37*
G36*
X52044Y-28216D02*
X51215Y-28216D01*
X51215Y-25183D01*
X52044Y-25183D01*
X52044Y-28216D01*
X52044Y-28216D01*
G37*
G36*
X52120Y-14520D02*
X49679Y-14520D01*
X49679Y-12079D01*
X52120Y-12079D01*
X52120Y-14520D01*
X52120Y-14520D01*
G37*
G36*
X52120Y-31120D02*
X49679Y-31120D01*
X49679Y-28679D01*
X52120Y-28679D01*
X52120Y-31120D01*
X52120Y-31120D01*
G37*
G36*
X52120Y-40420D02*
X49679Y-40420D01*
X49679Y-37979D01*
X52120Y-37979D01*
X52120Y-40420D01*
X52120Y-40420D01*
G37*
G36*
X52152Y-16750D02*
X51403Y-16750D01*
X51403Y-15449D01*
X52152Y-15449D01*
X52152Y-16750D01*
X52152Y-16750D01*
G37*
G36*
X52352Y-33450D02*
X51603Y-33450D01*
X51603Y-32149D01*
X52352Y-32149D01*
X52352Y-33450D01*
X52352Y-33450D01*
G37*
G36*
X52352Y-42650D02*
X51603Y-42650D01*
X51603Y-41349D01*
X52352Y-41349D01*
X52352Y-42650D01*
X52352Y-42650D01*
G37*
G36*
X54114Y-11153D02*
X53285Y-11153D01*
X53285Y-10324D01*
X54114Y-10324D01*
X54114Y-11153D01*
X54114Y-11153D01*
G37*
G36*
X54114Y-15653D02*
X53285Y-15653D01*
X53285Y-14824D01*
X54114Y-14824D01*
X54114Y-15653D01*
X54114Y-15653D01*
G37*
G36*
X54114Y-23881D02*
X53285Y-23881D01*
X53285Y-23052D01*
X54114Y-23052D01*
X54114Y-23881D01*
X54114Y-23881D01*
G37*
G36*
X54114Y-31981D02*
X53285Y-31981D01*
X53285Y-31152D01*
X54114Y-31152D01*
X54114Y-31981D01*
X54114Y-31981D01*
G37*
G36*
X54114Y-39681D02*
X53285Y-39681D01*
X53285Y-38852D01*
X54114Y-38852D01*
X54114Y-39681D01*
X54114Y-39681D01*
G37*
G36*
X54133Y-9319D02*
X54132Y-9414D01*
X54112Y-9499D01*
X54079Y-9574D01*
X54028Y-9646D01*
X53969Y-9703D01*
X53895Y-9750D01*
X53818Y-9780D01*
X53731Y-9795D01*
X53649Y-9793D01*
X53563Y-9774D01*
X53488Y-9742D01*
X53416Y-9691D01*
X53359Y-9632D01*
X53311Y-9558D01*
X53281Y-9482D01*
X53265Y-9395D01*
X53266Y-9314D01*
X53285Y-9227D01*
X53317Y-9152D01*
X53367Y-9079D01*
X53425Y-9022D01*
X53499Y-8974D01*
X53575Y-8943D01*
X53662Y-8926D01*
X53743Y-8927D01*
X53830Y-8945D01*
X53905Y-8976D01*
X53979Y-9026D01*
X54036Y-9084D01*
X54085Y-9158D01*
X54116Y-9233D01*
X54133Y-9319D01*
X54133Y-9319D01*
G37*
G36*
X54133Y-13819D02*
X54132Y-13914D01*
X54112Y-13999D01*
X54079Y-14074D01*
X54028Y-14146D01*
X53969Y-14203D01*
X53895Y-14250D01*
X53818Y-14280D01*
X53731Y-14295D01*
X53649Y-14293D01*
X53563Y-14274D01*
X53488Y-14242D01*
X53416Y-14191D01*
X53359Y-14132D01*
X53311Y-14058D01*
X53281Y-13982D01*
X53265Y-13895D01*
X53266Y-13814D01*
X53285Y-13727D01*
X53317Y-13652D01*
X53367Y-13579D01*
X53425Y-13522D01*
X53499Y-13474D01*
X53575Y-13443D01*
X53662Y-13426D01*
X53743Y-13427D01*
X53830Y-13445D01*
X53905Y-13476D01*
X53979Y-13526D01*
X54036Y-13584D01*
X54085Y-13658D01*
X54116Y-13733D01*
X54133Y-13819D01*
X54133Y-13819D01*
G37*
G36*
X54133Y-19292D02*
X54132Y-19386D01*
X54112Y-19471D01*
X54079Y-19546D01*
X54028Y-19618D01*
X53969Y-19675D01*
X53895Y-19722D01*
X53818Y-19752D01*
X53731Y-19767D01*
X53649Y-19765D01*
X53563Y-19746D01*
X53488Y-19714D01*
X53416Y-19663D01*
X53359Y-19604D01*
X53311Y-19530D01*
X53281Y-19454D01*
X53265Y-19367D01*
X53266Y-19286D01*
X53285Y-19199D01*
X53317Y-19124D01*
X53367Y-19051D01*
X53425Y-18994D01*
X53499Y-18946D01*
X53575Y-18915D01*
X53662Y-18899D01*
X53743Y-18899D01*
X53830Y-18917D01*
X53905Y-18948D01*
X53979Y-18998D01*
X54036Y-19056D01*
X54085Y-19130D01*
X54116Y-19205D01*
X54133Y-19292D01*
X54133Y-19292D01*
G37*
G36*
X54133Y-20669D02*
X54132Y-20764D01*
X54112Y-20849D01*
X54079Y-20924D01*
X54028Y-20996D01*
X53969Y-21053D01*
X53895Y-21100D01*
X53818Y-21130D01*
X53731Y-21145D01*
X53649Y-21143D01*
X53563Y-21124D01*
X53488Y-21092D01*
X53416Y-21041D01*
X53359Y-20982D01*
X53311Y-20908D01*
X53281Y-20832D01*
X53265Y-20745D01*
X53266Y-20664D01*
X53285Y-20577D01*
X53317Y-20502D01*
X53367Y-20429D01*
X53425Y-20372D01*
X53499Y-20324D01*
X53575Y-20293D01*
X53662Y-20276D01*
X53743Y-20277D01*
X53830Y-20295D01*
X53905Y-20326D01*
X53979Y-20376D01*
X54036Y-20434D01*
X54085Y-20508D01*
X54116Y-20583D01*
X54133Y-20669D01*
X54133Y-20669D01*
G37*
G36*
X54133Y-22047D02*
X54132Y-22142D01*
X54112Y-22227D01*
X54079Y-22302D01*
X54028Y-22374D01*
X53969Y-22431D01*
X53895Y-22478D01*
X53818Y-22508D01*
X53731Y-22523D01*
X53649Y-22521D01*
X53563Y-22502D01*
X53488Y-22470D01*
X53416Y-22419D01*
X53359Y-22360D01*
X53311Y-22286D01*
X53281Y-22210D01*
X53265Y-22123D01*
X53266Y-22042D01*
X53285Y-21955D01*
X53317Y-21880D01*
X53367Y-21807D01*
X53425Y-21750D01*
X53499Y-21702D01*
X53575Y-21671D01*
X53662Y-21654D01*
X53743Y-21655D01*
X53830Y-21673D01*
X53905Y-21704D01*
X53979Y-21754D01*
X54036Y-21812D01*
X54085Y-21886D01*
X54116Y-21961D01*
X54133Y-22047D01*
X54133Y-22047D01*
G37*
G36*
X54133Y-27392D02*
X54132Y-27486D01*
X54112Y-27571D01*
X54079Y-27646D01*
X54028Y-27718D01*
X53969Y-27775D01*
X53895Y-27822D01*
X53818Y-27852D01*
X53731Y-27867D01*
X53649Y-27865D01*
X53563Y-27846D01*
X53488Y-27814D01*
X53416Y-27763D01*
X53359Y-27704D01*
X53311Y-27630D01*
X53281Y-27554D01*
X53265Y-27467D01*
X53266Y-27386D01*
X53285Y-27299D01*
X53317Y-27224D01*
X53367Y-27151D01*
X53425Y-27094D01*
X53499Y-27046D01*
X53575Y-27015D01*
X53662Y-26999D01*
X53743Y-26999D01*
X53830Y-27017D01*
X53905Y-27048D01*
X53979Y-27098D01*
X54036Y-27156D01*
X54085Y-27230D01*
X54116Y-27305D01*
X54133Y-27392D01*
X54133Y-27392D01*
G37*
G36*
X54133Y-28769D02*
X54132Y-28864D01*
X54112Y-28949D01*
X54079Y-29024D01*
X54028Y-29096D01*
X53969Y-29153D01*
X53895Y-29200D01*
X53818Y-29230D01*
X53731Y-29245D01*
X53649Y-29243D01*
X53563Y-29224D01*
X53488Y-29192D01*
X53416Y-29141D01*
X53359Y-29082D01*
X53311Y-29008D01*
X53281Y-28932D01*
X53265Y-28845D01*
X53266Y-28764D01*
X53285Y-28677D01*
X53317Y-28602D01*
X53367Y-28529D01*
X53425Y-28472D01*
X53499Y-28424D01*
X53575Y-28393D01*
X53662Y-28376D01*
X53743Y-28377D01*
X53830Y-28395D01*
X53905Y-28426D01*
X53979Y-28476D01*
X54036Y-28534D01*
X54085Y-28608D01*
X54116Y-28683D01*
X54133Y-28769D01*
X54133Y-28769D01*
G37*
G36*
X54133Y-30147D02*
X54132Y-30242D01*
X54112Y-30327D01*
X54079Y-30402D01*
X54028Y-30474D01*
X53969Y-30531D01*
X53895Y-30578D01*
X53818Y-30608D01*
X53731Y-30623D01*
X53649Y-30621D01*
X53563Y-30602D01*
X53488Y-30570D01*
X53416Y-30519D01*
X53359Y-30460D01*
X53311Y-30386D01*
X53281Y-30310D01*
X53265Y-30223D01*
X53266Y-30142D01*
X53285Y-30055D01*
X53317Y-29980D01*
X53367Y-29907D01*
X53425Y-29850D01*
X53499Y-29802D01*
X53575Y-29771D01*
X53662Y-29754D01*
X53743Y-29755D01*
X53830Y-29773D01*
X53905Y-29804D01*
X53979Y-29854D01*
X54036Y-29912D01*
X54085Y-29986D01*
X54116Y-30061D01*
X54133Y-30147D01*
X54133Y-30147D01*
G37*
G36*
X54133Y-35092D02*
X54132Y-35186D01*
X54112Y-35271D01*
X54079Y-35346D01*
X54028Y-35418D01*
X53969Y-35475D01*
X53895Y-35522D01*
X53818Y-35552D01*
X53731Y-35567D01*
X53649Y-35565D01*
X53563Y-35546D01*
X53488Y-35514D01*
X53416Y-35463D01*
X53359Y-35404D01*
X53311Y-35330D01*
X53281Y-35254D01*
X53265Y-35167D01*
X53266Y-35086D01*
X53285Y-34999D01*
X53317Y-34924D01*
X53367Y-34851D01*
X53425Y-34794D01*
X53499Y-34746D01*
X53575Y-34715D01*
X53662Y-34699D01*
X53743Y-34699D01*
X53830Y-34717D01*
X53905Y-34748D01*
X53979Y-34798D01*
X54036Y-34856D01*
X54085Y-34930D01*
X54116Y-35005D01*
X54133Y-35092D01*
X54133Y-35092D01*
G37*
G36*
X54133Y-36469D02*
X54132Y-36564D01*
X54112Y-36649D01*
X54079Y-36724D01*
X54028Y-36796D01*
X53969Y-36853D01*
X53895Y-36900D01*
X53818Y-36930D01*
X53731Y-36945D01*
X53649Y-36943D01*
X53563Y-36924D01*
X53488Y-36892D01*
X53416Y-36841D01*
X53359Y-36782D01*
X53311Y-36708D01*
X53281Y-36632D01*
X53265Y-36545D01*
X53266Y-36464D01*
X53285Y-36377D01*
X53317Y-36302D01*
X53367Y-36229D01*
X53425Y-36172D01*
X53499Y-36124D01*
X53575Y-36093D01*
X53662Y-36076D01*
X53743Y-36077D01*
X53830Y-36095D01*
X53905Y-36126D01*
X53979Y-36176D01*
X54036Y-36234D01*
X54085Y-36308D01*
X54116Y-36383D01*
X54133Y-36469D01*
X54133Y-36469D01*
G37*
G36*
X54133Y-37847D02*
X54132Y-37942D01*
X54112Y-38027D01*
X54079Y-38102D01*
X54028Y-38174D01*
X53969Y-38231D01*
X53895Y-38278D01*
X53818Y-38308D01*
X53731Y-38323D01*
X53649Y-38321D01*
X53563Y-38302D01*
X53488Y-38270D01*
X53416Y-38219D01*
X53359Y-38160D01*
X53311Y-38086D01*
X53281Y-38010D01*
X53265Y-37923D01*
X53266Y-37842D01*
X53285Y-37755D01*
X53317Y-37680D01*
X53367Y-37607D01*
X53425Y-37550D01*
X53499Y-37502D01*
X53575Y-37471D01*
X53662Y-37454D01*
X53743Y-37455D01*
X53830Y-37473D01*
X53905Y-37504D01*
X53979Y-37554D01*
X54036Y-37612D01*
X54085Y-37686D01*
X54116Y-37761D01*
X54133Y-37847D01*
X54133Y-37847D01*
G37*
G36*
X56895Y-6913D02*
X56892Y-7111D01*
X56853Y-7285D01*
X56782Y-7443D01*
X56679Y-7588D01*
X56554Y-7707D01*
X56404Y-7803D01*
X56243Y-7865D01*
X56067Y-7896D01*
X55895Y-7893D01*
X55720Y-7854D01*
X55562Y-7785D01*
X55415Y-7683D01*
X55296Y-7559D01*
X55199Y-7409D01*
X55135Y-7249D01*
X55103Y-7073D01*
X55105Y-6901D01*
X55143Y-6726D01*
X55210Y-6568D01*
X55312Y-6420D01*
X55434Y-6300D01*
X55584Y-6202D01*
X55744Y-6137D01*
X55920Y-6104D01*
X56092Y-6105D01*
X56267Y-6141D01*
X56426Y-6207D01*
X56574Y-6308D01*
X56695Y-6430D01*
X56795Y-6579D01*
X56860Y-6738D01*
X56895Y-6912D01*
X56895Y-6913D01*
X56895Y-6913D01*
G37*
G36*
X56895Y-41913D02*
X56892Y-42111D01*
X56853Y-42285D01*
X56782Y-42443D01*
X56679Y-42588D01*
X56554Y-42707D01*
X56404Y-42803D01*
X56243Y-42865D01*
X56067Y-42896D01*
X55895Y-42893D01*
X55720Y-42854D01*
X55562Y-42785D01*
X55415Y-42683D01*
X55296Y-42559D01*
X55199Y-42409D01*
X55135Y-42249D01*
X55103Y-42073D01*
X55105Y-41901D01*
X55143Y-41726D01*
X55210Y-41568D01*
X55312Y-41420D01*
X55434Y-41300D01*
X55584Y-41202D01*
X55744Y-41137D01*
X55920Y-41104D01*
X56092Y-41105D01*
X56267Y-41141D01*
X56426Y-41207D01*
X56574Y-41308D01*
X56695Y-41430D01*
X56795Y-41579D01*
X56860Y-41738D01*
X56895Y-41912D01*
X56895Y-41913D01*
X56895Y-41913D01*
G37*
G36*
X57020Y-12130D02*
X57018Y-12289D01*
X56986Y-12429D01*
X56929Y-12556D01*
X56846Y-12673D01*
X56746Y-12769D01*
X56624Y-12846D01*
X56496Y-12896D01*
X56353Y-12921D01*
X56215Y-12918D01*
X56074Y-12887D01*
X55948Y-12832D01*
X55829Y-12750D01*
X55733Y-12650D01*
X55655Y-12529D01*
X55604Y-12401D01*
X55578Y-12258D01*
X55580Y-12121D01*
X55610Y-11979D01*
X55665Y-11852D01*
X55746Y-11733D01*
X55845Y-11637D01*
X55966Y-11557D01*
X56093Y-11506D01*
X56236Y-11479D01*
X56373Y-11480D01*
X56515Y-11509D01*
X56642Y-11562D01*
X56762Y-11643D01*
X56859Y-11741D01*
X56939Y-11861D01*
X56992Y-11988D01*
X57020Y-12130D01*
X57020Y-12130D01*
G37*
G36*
X57020Y-17030D02*
X57018Y-17189D01*
X56986Y-17329D01*
X56929Y-17456D01*
X56846Y-17573D01*
X56746Y-17669D01*
X56624Y-17746D01*
X56496Y-17796D01*
X56353Y-17821D01*
X56215Y-17818D01*
X56074Y-17787D01*
X55948Y-17732D01*
X55829Y-17650D01*
X55733Y-17550D01*
X55655Y-17429D01*
X55604Y-17301D01*
X55578Y-17158D01*
X55580Y-17021D01*
X55610Y-16879D01*
X55665Y-16752D01*
X55746Y-16633D01*
X55845Y-16537D01*
X55966Y-16457D01*
X56093Y-16406D01*
X56236Y-16379D01*
X56373Y-16380D01*
X56515Y-16409D01*
X56642Y-16462D01*
X56762Y-16543D01*
X56859Y-16641D01*
X56939Y-16761D01*
X56992Y-16888D01*
X57020Y-17030D01*
X57020Y-17030D01*
G37*
G36*
X57020Y-25430D02*
X57018Y-25589D01*
X56986Y-25729D01*
X56929Y-25856D01*
X56846Y-25973D01*
X56746Y-26069D01*
X56624Y-26146D01*
X56496Y-26196D01*
X56353Y-26221D01*
X56215Y-26218D01*
X56074Y-26187D01*
X55948Y-26132D01*
X55829Y-26050D01*
X55733Y-25950D01*
X55655Y-25829D01*
X55604Y-25701D01*
X55578Y-25558D01*
X55580Y-25421D01*
X55610Y-25279D01*
X55665Y-25152D01*
X55746Y-25033D01*
X55845Y-24937D01*
X55966Y-24857D01*
X56093Y-24806D01*
X56236Y-24779D01*
X56373Y-24780D01*
X56515Y-24809D01*
X56642Y-24862D01*
X56762Y-24943D01*
X56859Y-25041D01*
X56939Y-25161D01*
X56992Y-25288D01*
X57020Y-25430D01*
X57020Y-25430D01*
G37*
G36*
X57020Y-33130D02*
X57018Y-33289D01*
X56986Y-33429D01*
X56929Y-33556D01*
X56846Y-33673D01*
X56746Y-33769D01*
X56624Y-33846D01*
X56496Y-33896D01*
X56353Y-33921D01*
X56215Y-33918D01*
X56074Y-33887D01*
X55948Y-33832D01*
X55829Y-33750D01*
X55733Y-33650D01*
X55655Y-33529D01*
X55604Y-33401D01*
X55578Y-33258D01*
X55580Y-33121D01*
X55610Y-32979D01*
X55665Y-32852D01*
X55746Y-32733D01*
X55845Y-32637D01*
X55966Y-32557D01*
X56093Y-32506D01*
X56236Y-32479D01*
X56373Y-32480D01*
X56515Y-32509D01*
X56642Y-32562D01*
X56762Y-32643D01*
X56859Y-32741D01*
X56939Y-32861D01*
X56992Y-32988D01*
X57020Y-33130D01*
X57020Y-33130D01*
G37*
M02*
