G04 (created by PCBNEW (2013-mar-13)-testing) date Sun 04 Aug 2013 11:03:18 AM EDT*
%MOIN*%
G04 Gerber Fmt 3.4, Leading zero omitted, Abs format*
%FSLAX34Y34*%
G01*
G70*
G90*
G04 APERTURE LIST*
%ADD10C,0.005906*%
%ADD11R,0.053100X0.021600*%
%ADD12R,0.043000X0.018000*%
%ADD13R,0.021600X0.053100*%
%ADD14R,0.076740X0.297213*%
%ADD15R,0.076700X0.297213*%
%ADD16R,0.037400X0.029500*%
%ADD17R,0.053000X0.033000*%
%ADD18R,0.033000X0.053000*%
%ADD19R,0.080700X0.218500*%
%ADD20R,0.068900X0.084600*%
%ADD21R,0.076740X0.206661*%
%ADD22R,0.118000X0.063000*%
%ADD23R,0.238000X0.238000*%
%ADD24R,0.029500X0.037400*%
%ADD25R,0.068900X0.123984*%
%ADD26R,0.123984X0.068900*%
%ADD27R,0.014000X0.058000*%
%ADD28R,0.058000X0.014000*%
G04 APERTURE END LIST*
G54D10*
G54D11*
X6750Y-33300D03*
X6750Y-34300D03*
X8850Y-33300D03*
X8850Y-34300D03*
G54D12*
X31270Y-32305D03*
X31270Y-33305D03*
X31270Y-33805D03*
X31270Y-34305D03*
X31270Y-34805D03*
X31270Y-35305D03*
X31270Y-35805D03*
X28770Y-35805D03*
X28770Y-35305D03*
X28770Y-34805D03*
X28770Y-34305D03*
X28770Y-33805D03*
X28770Y-33305D03*
X28770Y-32805D03*
X28770Y-32305D03*
X31270Y-32805D03*
G54D13*
X44700Y-21500D03*
X44700Y-23600D03*
X45200Y-21500D03*
X45700Y-21500D03*
X46200Y-21500D03*
X45200Y-23600D03*
X45700Y-23600D03*
X46200Y-23600D03*
X44150Y-32150D03*
X44150Y-34250D03*
X44650Y-32150D03*
X45150Y-32150D03*
X45650Y-32150D03*
X44650Y-34250D03*
X45150Y-34250D03*
X45650Y-34250D03*
G54D14*
X49019Y-22800D03*
G54D15*
X51381Y-22800D03*
G54D14*
X49019Y-19200D03*
G54D15*
X51381Y-19200D03*
G54D14*
X49019Y-26550D03*
G54D15*
X51381Y-26550D03*
G54D14*
X49019Y-35700D03*
G54D15*
X51381Y-35700D03*
G54D16*
X47133Y-33800D03*
X46267Y-34175D03*
X46267Y-33425D03*
X47017Y-21300D03*
X47883Y-20925D03*
X47883Y-21675D03*
G54D17*
X33600Y-20475D03*
X33600Y-19725D03*
X32675Y-19725D03*
X32675Y-20475D03*
X26900Y-23225D03*
X26900Y-23975D03*
G54D18*
X30225Y-19700D03*
X30975Y-19700D03*
X30225Y-20600D03*
X30975Y-20600D03*
X35175Y-24600D03*
X34425Y-24600D03*
X7025Y-32400D03*
X7775Y-32400D03*
G54D17*
X26920Y-32780D03*
X26920Y-32030D03*
G54D18*
X30375Y-31300D03*
X29625Y-31300D03*
G54D17*
X27720Y-32430D03*
X27720Y-33180D03*
G54D18*
X27345Y-34005D03*
X28095Y-34005D03*
X27345Y-34805D03*
X28095Y-34805D03*
G54D17*
X26900Y-21825D03*
X26900Y-22575D03*
G54D18*
X34575Y-23800D03*
X33825Y-23800D03*
G54D17*
X23800Y-23625D03*
X23800Y-24375D03*
X23800Y-25225D03*
X23800Y-25975D03*
G54D18*
X44525Y-7200D03*
X45275Y-7200D03*
X30280Y-27310D03*
X31030Y-27310D03*
X40575Y-39600D03*
X39825Y-39600D03*
X41225Y-39600D03*
X41975Y-39600D03*
G54D17*
X34200Y-25325D03*
X34200Y-26075D03*
X24600Y-18775D03*
X24600Y-18025D03*
X22700Y-33375D03*
X22700Y-32625D03*
G54D18*
X25025Y-30500D03*
X25775Y-30500D03*
G54D17*
X22700Y-31675D03*
X22700Y-30925D03*
G54D18*
X25025Y-31400D03*
X25775Y-31400D03*
X47125Y-14150D03*
X46375Y-14150D03*
G54D17*
X26900Y-20325D03*
X26900Y-21075D03*
X43700Y-22925D03*
X43700Y-22175D03*
G54D18*
X44825Y-24550D03*
X45575Y-24550D03*
X44175Y-25800D03*
X43425Y-25800D03*
X46475Y-25800D03*
X45725Y-25800D03*
X45075Y-20550D03*
X44325Y-20550D03*
X45825Y-20550D03*
X46575Y-20550D03*
X44775Y-31300D03*
X44025Y-31300D03*
X45425Y-31300D03*
X46175Y-31300D03*
G54D17*
X43400Y-33475D03*
X43400Y-32725D03*
G54D18*
X44325Y-35100D03*
X45075Y-35100D03*
X47975Y-22600D03*
X47225Y-22600D03*
X47975Y-20000D03*
X47225Y-20000D03*
X46325Y-32550D03*
X47075Y-32550D03*
X46325Y-35050D03*
X47075Y-35050D03*
G54D17*
X31800Y-19725D03*
X31800Y-20475D03*
G54D19*
X25470Y-22681D03*
X25470Y-26499D03*
G54D20*
X51040Y-8450D03*
X49460Y-8450D03*
G54D21*
X48900Y-10550D03*
X51499Y-10550D03*
G54D22*
X48200Y-38050D03*
G54D23*
X50700Y-38950D03*
G54D22*
X48200Y-39850D03*
X48200Y-28900D03*
G54D23*
X50700Y-29800D03*
G54D22*
X48200Y-30700D03*
X48200Y-12400D03*
G54D23*
X50700Y-13300D03*
G54D22*
X48200Y-14200D03*
G54D24*
X35600Y-8867D03*
X35975Y-9733D03*
X35225Y-9733D03*
G54D25*
X51577Y-16050D03*
X48822Y-16050D03*
X46077Y-9300D03*
X43322Y-9300D03*
G54D26*
X45900Y-36322D03*
X45900Y-39077D03*
G54D25*
X14477Y-33000D03*
X11722Y-33000D03*
X51577Y-32550D03*
X48822Y-32550D03*
X51577Y-41700D03*
X48822Y-41700D03*
G54D27*
X30450Y-21800D03*
X30135Y-21800D03*
X29820Y-21800D03*
X29505Y-21800D03*
X29190Y-21800D03*
X28875Y-21800D03*
X30765Y-21800D03*
X31080Y-21800D03*
X31395Y-21800D03*
X31710Y-21800D03*
X32025Y-21800D03*
X30450Y-26300D03*
X30135Y-26300D03*
X29820Y-26300D03*
X29505Y-26300D03*
X29190Y-26300D03*
X28875Y-26300D03*
X30765Y-26300D03*
X31080Y-26300D03*
X31395Y-26300D03*
X31710Y-26300D03*
X32025Y-26300D03*
G54D28*
X28200Y-24050D03*
X32700Y-24050D03*
X28200Y-24365D03*
X32700Y-24365D03*
X32700Y-24680D03*
X28200Y-24680D03*
X28200Y-24995D03*
X32700Y-24995D03*
X32700Y-25310D03*
X28200Y-25310D03*
X28200Y-25625D03*
X32700Y-25625D03*
X32700Y-23735D03*
X28200Y-23735D03*
X28200Y-23420D03*
X32700Y-23420D03*
X32700Y-23105D03*
X28200Y-23105D03*
X28200Y-22790D03*
X32700Y-22790D03*
X32700Y-22475D03*
X28200Y-22475D03*
G54D16*
X24433Y-31300D03*
X23567Y-31675D03*
X23567Y-30925D03*
X24433Y-33000D03*
X23567Y-33375D03*
X23567Y-32625D03*
M02*
