G04 (created by PCBNEW (2013-mar-13)-testing) date Sun 30 Jun 2013 11:26:14 PM EDT*
%MOIN*%
G04 Gerber Fmt 3.4, Leading zero omitted, Abs format*
%FSLAX34Y34*%
G01*
G70*
G90*
G04 APERTURE LIST*
%ADD10C,0.005906*%
%ADD11C,0.055000*%
%ADD12R,0.055000X0.055000*%
%ADD13R,0.060000X0.060000*%
%ADD14C,0.060000*%
%ADD15C,0.130500*%
%ADD16C,0.080300*%
%ADD17R,0.080300X0.080300*%
%ADD18C,0.065000*%
%ADD19C,0.059100*%
%ADD20O,0.212598X0.366142*%
%ADD21R,0.078740X0.078740*%
%ADD22C,0.082677*%
%ADD23C,0.150000*%
%ADD24R,0.070000X0.070000*%
%ADD25C,0.070000*%
%ADD26C,0.085000*%
%ADD27R,0.085000X0.085000*%
%ADD28R,0.098425X0.098425*%
%ADD29C,0.098425*%
%ADD30C,0.160000*%
%ADD31C,0.035000*%
%ADD32C,0.075000*%
%ADD33C,0.030000*%
%ADD34C,0.020000*%
%ADD35C,0.050000*%
%ADD36C,0.015000*%
%ADD37C,0.100000*%
%ADD38C,0.010000*%
G04 APERTURE END LIST*
G54D10*
G54D11*
X37400Y-34100D03*
G54D12*
X37400Y-35100D03*
X21400Y-35100D03*
G54D11*
X21400Y-34100D03*
X21400Y-33100D03*
X21400Y-32100D03*
X21400Y-31100D03*
X21400Y-30100D03*
X21400Y-7100D03*
X21400Y-6100D03*
X37400Y-7100D03*
X37400Y-6100D03*
G54D13*
X39000Y-6900D03*
G54D14*
X40000Y-6900D03*
X39000Y-7900D03*
X40000Y-7900D03*
X39000Y-8900D03*
X40000Y-8900D03*
G54D15*
X8559Y-26500D03*
X12300Y-23192D03*
X12300Y-29807D03*
X15607Y-26500D03*
X15607Y-24964D03*
X15607Y-28035D03*
X7024Y-26500D03*
X10095Y-26500D03*
G54D13*
X42800Y-12100D03*
G54D14*
X42800Y-13100D03*
X42800Y-14100D03*
G54D13*
X41300Y-13000D03*
G54D14*
X41300Y-12000D03*
X41300Y-11000D03*
X41300Y-10000D03*
X41300Y-9000D03*
X41300Y-8000D03*
X41300Y-7000D03*
X41300Y-6000D03*
G54D16*
X41100Y-17500D03*
G54D17*
X42100Y-16500D03*
G54D16*
X42100Y-18500D03*
G54D18*
X45200Y-22000D03*
X45200Y-22900D03*
X45200Y-21100D03*
X45400Y-12400D03*
X45400Y-13300D03*
X45400Y-11500D03*
X45600Y-8900D03*
X45600Y-9800D03*
X45600Y-8000D03*
X41000Y-22000D03*
X41000Y-22900D03*
X41000Y-21100D03*
G54D13*
X38800Y-15900D03*
G54D14*
X39800Y-15900D03*
X38800Y-16900D03*
X39800Y-16900D03*
X38800Y-17900D03*
X39800Y-17900D03*
X38800Y-18900D03*
X39800Y-18900D03*
X38800Y-19900D03*
X39800Y-19900D03*
X38800Y-20900D03*
X39800Y-20900D03*
X38800Y-21900D03*
X39800Y-21900D03*
X38800Y-22900D03*
X39800Y-22900D03*
G54D13*
X42800Y-6000D03*
G54D14*
X42800Y-7000D03*
X42800Y-8000D03*
X42800Y-9000D03*
X42800Y-10000D03*
G54D19*
X23713Y-15600D03*
X23713Y-16352D03*
X23713Y-14848D03*
G54D20*
X15287Y-17686D03*
X15287Y-13513D03*
G54D21*
X49800Y-7465D03*
G54D22*
X49800Y-8843D03*
X49800Y-10221D03*
X49800Y-11599D03*
X49800Y-12977D03*
X49800Y-14355D03*
X49800Y-15733D03*
X49800Y-17111D03*
X49800Y-18488D03*
X49800Y-19866D03*
X49800Y-21244D03*
X49800Y-22622D03*
X49800Y-24000D03*
X49800Y-25378D03*
X49800Y-26756D03*
X49800Y-28134D03*
G54D23*
X27100Y-37100D03*
X36950Y-37100D03*
G54D13*
X34150Y-36550D03*
G54D14*
X33100Y-36550D03*
X32000Y-36550D03*
X30950Y-36550D03*
X29850Y-36550D03*
X33650Y-37650D03*
X32550Y-37650D03*
X31500Y-37650D03*
X30400Y-37650D03*
G54D24*
X40200Y-31980D03*
G54D25*
X40200Y-29980D03*
G54D24*
X43920Y-34620D03*
G54D25*
X41920Y-34620D03*
G54D24*
X40200Y-27480D03*
G54D25*
X40200Y-25480D03*
G54D24*
X43700Y-25800D03*
G54D25*
X45700Y-25800D03*
G54D24*
X47950Y-31350D03*
G54D25*
X49950Y-31350D03*
G54D24*
X44600Y-29300D03*
G54D25*
X44600Y-31300D03*
G54D26*
X51380Y-34680D03*
G54D27*
X45780Y-34680D03*
G54D26*
X15900Y-32000D03*
G54D27*
X10300Y-32000D03*
G54D26*
X47200Y-22100D03*
G54D27*
X47200Y-16500D03*
G54D26*
X45000Y-14400D03*
G54D27*
X45000Y-20000D03*
G54D26*
X47300Y-12400D03*
G54D27*
X47300Y-6800D03*
G54D11*
X8797Y-8000D03*
X14702Y-8000D03*
G54D14*
X14750Y-6250D03*
X10750Y-6250D03*
G54D28*
X7050Y-20359D03*
X7050Y-18777D03*
G54D29*
X11050Y-16359D03*
X11050Y-14777D03*
X7050Y-12422D03*
X7050Y-10840D03*
G54D25*
X48250Y-38500D03*
G54D24*
X47250Y-38500D03*
G54D25*
X46250Y-38500D03*
G54D30*
X6500Y-6500D03*
X52500Y-6500D03*
X52500Y-39500D03*
X6500Y-39500D03*
G54D31*
X26400Y-16600D03*
X32400Y-16600D03*
X18200Y-31000D03*
X9570Y-33310D03*
X48100Y-28000D03*
X48100Y-27100D03*
X34800Y-8200D03*
X35300Y-30500D03*
X30250Y-27350D03*
X35625Y-23500D03*
X31150Y-17675D03*
X32430Y-30560D03*
X24070Y-31720D03*
X24085Y-29260D03*
X34100Y-33100D03*
X43450Y-23400D03*
X34500Y-32650D03*
X42950Y-23250D03*
X26900Y-33800D03*
X26200Y-27050D03*
X23150Y-25900D03*
X27250Y-22960D03*
X26550Y-24110D03*
X24300Y-27050D03*
X23800Y-23850D03*
X19700Y-33300D03*
X24050Y-20150D03*
X26265Y-20155D03*
X17030Y-33290D03*
X29860Y-19195D03*
X32200Y-18200D03*
X33325Y-23000D03*
X34200Y-25700D03*
X31820Y-31805D03*
X29020Y-30405D03*
X26920Y-30455D03*
X34500Y-22200D03*
X31500Y-26500D03*
X23150Y-23850D03*
X23100Y-21150D03*
X11800Y-15800D03*
X12200Y-16600D03*
X13700Y-15100D03*
X12200Y-15100D03*
X12950Y-14350D03*
X9950Y-12850D03*
X11450Y-12850D03*
X12950Y-12850D03*
X8450Y-12850D03*
X9200Y-12100D03*
X10700Y-12100D03*
X12200Y-12100D03*
X13700Y-12100D03*
X9200Y-16600D03*
X9950Y-15850D03*
X8450Y-15850D03*
X9200Y-15100D03*
X9950Y-14350D03*
X8450Y-14350D03*
X9200Y-13600D03*
X10700Y-13600D03*
X12200Y-13600D03*
X13700Y-13600D03*
X16700Y-15100D03*
X18200Y-15100D03*
X19700Y-15100D03*
X18950Y-14350D03*
X17450Y-14350D03*
X16700Y-13600D03*
X18200Y-13600D03*
X19700Y-13600D03*
X18950Y-12850D03*
X17450Y-12850D03*
X11450Y-11350D03*
X12950Y-11350D03*
X14450Y-11350D03*
X15950Y-11350D03*
X17450Y-11350D03*
X18950Y-11350D03*
X19700Y-12100D03*
X18200Y-12100D03*
X16700Y-12100D03*
X8450Y-11350D03*
X9950Y-11350D03*
X32520Y-32305D03*
X32420Y-32805D03*
X16700Y-16600D03*
X18200Y-16600D03*
X19700Y-16600D03*
X18950Y-17350D03*
X17450Y-17350D03*
X16700Y-18100D03*
X18200Y-18100D03*
X19700Y-18100D03*
X18950Y-18850D03*
X17450Y-18850D03*
X13700Y-23350D03*
X15200Y-23350D03*
X15950Y-23350D03*
X17450Y-23350D03*
X18950Y-23350D03*
X19700Y-22600D03*
X18200Y-22600D03*
X16700Y-22600D03*
X13700Y-18850D03*
X14450Y-19600D03*
X16700Y-19600D03*
X18200Y-19600D03*
X19700Y-19600D03*
X18950Y-20350D03*
X17450Y-20350D03*
X15950Y-20350D03*
X15200Y-20350D03*
X13700Y-20350D03*
X14450Y-21100D03*
X16700Y-21100D03*
X18200Y-21100D03*
X19700Y-21100D03*
X18950Y-21850D03*
X17450Y-21850D03*
X15950Y-21850D03*
X15200Y-21850D03*
X13700Y-21850D03*
X14450Y-22600D03*
X19700Y-28600D03*
X18200Y-28600D03*
X16700Y-28600D03*
X17450Y-27850D03*
X18950Y-27850D03*
X19700Y-27100D03*
X18200Y-27100D03*
X16700Y-27100D03*
X17450Y-26350D03*
X18950Y-26350D03*
X19700Y-25600D03*
X18200Y-25600D03*
X16700Y-25600D03*
X17450Y-24850D03*
X18950Y-24850D03*
X19700Y-24100D03*
X18200Y-24100D03*
X16700Y-24100D03*
X14450Y-24100D03*
X13700Y-24850D03*
X14450Y-25600D03*
X13700Y-26350D03*
X14450Y-27100D03*
X13700Y-27850D03*
X14450Y-28600D03*
X6500Y-18450D03*
X6500Y-19950D03*
X8750Y-20700D03*
X10250Y-20700D03*
X11000Y-19950D03*
X9500Y-19950D03*
X8000Y-19950D03*
X8750Y-19200D03*
X10250Y-19200D03*
X11000Y-18450D03*
X9500Y-18450D03*
X8000Y-18450D03*
X6500Y-21450D03*
X8000Y-21450D03*
X9500Y-21450D03*
X11000Y-21450D03*
X10250Y-22200D03*
X8750Y-22200D03*
X7250Y-22200D03*
X6500Y-22950D03*
X8000Y-22950D03*
X9500Y-22950D03*
X11000Y-22950D03*
X10250Y-23700D03*
X8750Y-23700D03*
X7250Y-23700D03*
X6500Y-24450D03*
X8000Y-24450D03*
X9500Y-24450D03*
X11000Y-24450D03*
X10250Y-25200D03*
X8750Y-25200D03*
X7250Y-25200D03*
X6500Y-25950D03*
X8000Y-25950D03*
X9500Y-25950D03*
X11000Y-25950D03*
X11000Y-27450D03*
X9500Y-27450D03*
X8000Y-27450D03*
X6500Y-27450D03*
X33620Y-17120D03*
X36200Y-21250D03*
X42350Y-23750D03*
X35050Y-21725D03*
X23775Y-27600D03*
X39320Y-22420D03*
X37270Y-22945D03*
X36595Y-21580D03*
X36550Y-23700D03*
X36200Y-24400D03*
X42150Y-22450D03*
X30150Y-28850D03*
X28975Y-28800D03*
X22225Y-31075D03*
X28425Y-28850D03*
X25450Y-28750D03*
X23305Y-29965D03*
X23275Y-32440D03*
G54D32*
X45000Y-18800D02*
X45100Y-18800D01*
X45100Y-18800D02*
X46300Y-20000D01*
G54D33*
X26400Y-16600D02*
X32400Y-16600D01*
X16457Y-40197D02*
X16457Y-35742D01*
X16457Y-35742D02*
X18200Y-34000D01*
X18200Y-34000D02*
X18200Y-31000D01*
G54D32*
X16801Y-40197D02*
X16457Y-40197D01*
X16457Y-40197D02*
X9570Y-33310D01*
X38000Y-40199D02*
X48670Y-40199D01*
X48670Y-40199D02*
X53300Y-35570D01*
X16801Y-40197D02*
X17094Y-40197D01*
X17094Y-40197D02*
X38000Y-40199D01*
X38000Y-40199D02*
X40250Y-40199D01*
X49800Y-10221D02*
X49178Y-10221D01*
X48300Y-15400D02*
X47200Y-16500D01*
X48300Y-11100D02*
X48300Y-15400D01*
X49178Y-10221D02*
X48300Y-11100D01*
X49800Y-10221D02*
X51700Y-10221D01*
X51800Y-10300D02*
X51700Y-10300D01*
X51778Y-10300D02*
X51800Y-10300D01*
X51700Y-10221D02*
X51778Y-10300D01*
X49800Y-7465D02*
X50765Y-7465D01*
X53300Y-31900D02*
X53300Y-35570D01*
X51700Y-30300D02*
X53300Y-31900D01*
X51700Y-8400D02*
X51700Y-10300D01*
X51700Y-10300D02*
X51700Y-30300D01*
X50765Y-7465D02*
X51700Y-8400D01*
X49800Y-7465D02*
X49165Y-7465D01*
X48500Y-6800D02*
X47300Y-6800D01*
X49165Y-7465D02*
X48500Y-6800D01*
X45000Y-20000D02*
X46300Y-20000D01*
X46300Y-20000D02*
X48555Y-20000D01*
X48555Y-20000D02*
X49800Y-21244D01*
X47200Y-16500D02*
X46200Y-16500D01*
X45000Y-17700D02*
X45000Y-18800D01*
X45000Y-18800D02*
X45000Y-20000D01*
X46200Y-16500D02*
X45000Y-17700D01*
X51380Y-34680D02*
X51380Y-34680D01*
X51380Y-34680D02*
X49860Y-36200D01*
X49860Y-36200D02*
X44150Y-36200D01*
X40250Y-40199D02*
X44150Y-36200D01*
G54D34*
X48100Y-27100D02*
X48300Y-27100D01*
X48300Y-27100D02*
X48700Y-27500D01*
X48700Y-27500D02*
X48700Y-28700D01*
X48700Y-28700D02*
X49500Y-29500D01*
G54D32*
X50774Y-28974D02*
X50774Y-30774D01*
X50774Y-30774D02*
X50800Y-30800D01*
X49950Y-29950D02*
X49950Y-29799D01*
X49950Y-29799D02*
X50774Y-28974D01*
X50774Y-28974D02*
X50849Y-28900D01*
X50849Y-28900D02*
X50849Y-23200D01*
X50849Y-23200D02*
X50849Y-23150D01*
X49800Y-24000D02*
X49999Y-24000D01*
X49999Y-24000D02*
X50849Y-23150D01*
X50849Y-23150D02*
X50800Y-23200D01*
G54D35*
X42800Y-13100D02*
X43155Y-13100D01*
X43155Y-13100D02*
X43520Y-13465D01*
G54D32*
X50299Y-37250D02*
X46900Y-37250D01*
X46900Y-37250D02*
X46250Y-37900D01*
X46250Y-37900D02*
X46250Y-38500D01*
X50299Y-37250D02*
X52400Y-35149D01*
G54D34*
X48100Y-29050D02*
X48100Y-28000D01*
X48100Y-29050D02*
X48550Y-29500D01*
X48550Y-29500D02*
X49500Y-29500D01*
X49500Y-29500D02*
X49950Y-29950D01*
G54D32*
X49950Y-29950D02*
X50800Y-30800D01*
X50800Y-30800D02*
X52400Y-32400D01*
X52400Y-32400D02*
X52400Y-35149D01*
X42740Y-18500D02*
X42740Y-21640D01*
X44950Y-24600D02*
X48999Y-24600D01*
X48999Y-24600D02*
X49800Y-24000D01*
X44250Y-23900D02*
X44950Y-24600D01*
X44250Y-23150D02*
X44250Y-23900D01*
X42740Y-21640D02*
X44250Y-23150D01*
G54D34*
X34800Y-8200D02*
X34800Y-15800D01*
X23713Y-14848D02*
X33848Y-14848D01*
X33848Y-14848D02*
X34800Y-15800D01*
G54D33*
X34800Y-15800D02*
X34800Y-17700D01*
G54D35*
X35300Y-30500D02*
X35300Y-27250D01*
X32430Y-30560D02*
X35240Y-30560D01*
X35240Y-30560D02*
X35300Y-30500D01*
X30500Y-27600D02*
X33425Y-27600D01*
X33425Y-27600D02*
X33950Y-27600D01*
X30250Y-27350D02*
X30500Y-27600D01*
X30250Y-27350D02*
X30250Y-27350D01*
X33950Y-27600D02*
X34950Y-27600D01*
X35625Y-26925D02*
X35625Y-23500D01*
X34950Y-27600D02*
X35300Y-27250D01*
X35300Y-27250D02*
X35625Y-26925D01*
X35625Y-23500D02*
X35650Y-23475D01*
X35650Y-23475D02*
X35650Y-18550D01*
X35650Y-18550D02*
X34800Y-17700D01*
X34800Y-17700D02*
X34750Y-17650D01*
X34750Y-17650D02*
X31175Y-17650D01*
X31175Y-17650D02*
X31150Y-17675D01*
G54D33*
X24085Y-29260D02*
X24200Y-29375D01*
X32430Y-30560D02*
X32430Y-29680D01*
X24200Y-29375D02*
X32125Y-29375D01*
X32125Y-29375D02*
X32430Y-29680D01*
X24087Y-29262D02*
X24085Y-29260D01*
X24070Y-31720D02*
X24085Y-31705D01*
X24085Y-31705D02*
X24085Y-29260D01*
G54D35*
X42800Y-10900D02*
X43520Y-11620D01*
X42800Y-10000D02*
X42800Y-10900D01*
X43520Y-11600D02*
X43520Y-13465D01*
X43520Y-13465D02*
X43520Y-17720D01*
X43520Y-17720D02*
X42740Y-18500D01*
G54D32*
X42100Y-18500D02*
X42740Y-18500D01*
G54D33*
X42100Y-18500D02*
X41500Y-18500D01*
X41500Y-18500D02*
X41000Y-19000D01*
X39800Y-22900D02*
X40000Y-22900D01*
X40000Y-22900D02*
X40400Y-22500D01*
X40400Y-22500D02*
X40400Y-19600D01*
X40400Y-19600D02*
X41000Y-19000D01*
X38800Y-15600D02*
X38800Y-15900D01*
X41000Y-19000D02*
X40400Y-18400D01*
X40400Y-18400D02*
X40400Y-15400D01*
X40400Y-15400D02*
X40200Y-15200D01*
X40200Y-15200D02*
X39200Y-15200D01*
X39200Y-15200D02*
X38800Y-15600D01*
G54D32*
X50800Y-23200D02*
X50800Y-14636D01*
X50800Y-14636D02*
X49800Y-14355D01*
G54D36*
X43450Y-23400D02*
X43450Y-24500D01*
X43450Y-24500D02*
X43230Y-24720D01*
X34100Y-33100D02*
X34650Y-33100D01*
X34650Y-33100D02*
X36400Y-31350D01*
X36400Y-31350D02*
X36400Y-26600D01*
X36400Y-26600D02*
X38280Y-24720D01*
X38280Y-24720D02*
X43230Y-24720D01*
X43365Y-23400D02*
X43450Y-23400D01*
X42850Y-24400D02*
X43050Y-24200D01*
X42850Y-24400D02*
X38200Y-24400D01*
X38200Y-24400D02*
X36100Y-26500D01*
X36100Y-26500D02*
X36100Y-31250D01*
X34700Y-32650D02*
X36100Y-31250D01*
X34500Y-32650D02*
X34700Y-32650D01*
X42900Y-23350D02*
X43050Y-23500D01*
X43050Y-23500D02*
X43050Y-24200D01*
X42900Y-23350D02*
X42950Y-23250D01*
X42950Y-23250D02*
X42950Y-23369D01*
X42950Y-23250D02*
X42950Y-23230D01*
G54D37*
X37400Y-34100D02*
X38260Y-34100D01*
X37818Y-39000D02*
X29300Y-38986D01*
X37818Y-39000D02*
X38900Y-38100D01*
X38260Y-34100D02*
X38900Y-34740D01*
X38900Y-34740D02*
X38900Y-38100D01*
G54D34*
X42800Y-6000D02*
X42800Y-5700D01*
X39300Y-9600D02*
X40000Y-8900D01*
X38800Y-9600D02*
X39300Y-9600D01*
X38300Y-9100D02*
X38800Y-9600D01*
X38300Y-7200D02*
X38300Y-9100D01*
X38300Y-5800D02*
X38300Y-7200D01*
X38700Y-5400D02*
X38300Y-5800D01*
X42500Y-5400D02*
X38700Y-5400D01*
X42800Y-5700D02*
X42500Y-5400D01*
G54D35*
X29850Y-36550D02*
X29850Y-35550D01*
G54D38*
X29850Y-35550D02*
X29900Y-35500D01*
G54D33*
X22250Y-21150D02*
X21400Y-22000D01*
X21400Y-22000D02*
X21300Y-22000D01*
X21300Y-22000D02*
X21400Y-22000D01*
X21400Y-20700D02*
X21800Y-20700D01*
X21800Y-20700D02*
X22250Y-21150D01*
G54D35*
X23100Y-21150D02*
X22250Y-21150D01*
G54D33*
X22250Y-21150D02*
X21450Y-21150D01*
X21450Y-21150D02*
X21400Y-21200D01*
G54D35*
X23800Y-23850D02*
X23800Y-23800D01*
G54D32*
X21400Y-8500D02*
X21500Y-8500D01*
X21500Y-8500D02*
X22900Y-7100D01*
G54D35*
X29850Y-36550D02*
X29300Y-37100D01*
X29300Y-37100D02*
X29300Y-38986D01*
X29300Y-38986D02*
X29300Y-39100D01*
X29300Y-39100D02*
X29300Y-38986D01*
G54D32*
X19700Y-33300D02*
X19805Y-33300D01*
X19805Y-33300D02*
X19700Y-33300D01*
X19700Y-33300D02*
X19805Y-33300D01*
X15900Y-32000D02*
X14392Y-31900D01*
X14392Y-31900D02*
X12300Y-29807D01*
X21400Y-34100D02*
X19805Y-34100D01*
X19805Y-34100D02*
X19800Y-34100D01*
X19800Y-34100D02*
X19805Y-34100D01*
X21400Y-32100D02*
X19805Y-32100D01*
X19805Y-32100D02*
X19800Y-32105D01*
X19800Y-32105D02*
X19800Y-32200D01*
X19800Y-32200D02*
X19805Y-32200D01*
G54D37*
X23221Y-38975D02*
X29300Y-38986D01*
X19805Y-34100D02*
X19805Y-35505D01*
X19805Y-35505D02*
X23221Y-38975D01*
X21400Y-28710D02*
X19805Y-30305D01*
X21400Y-21200D02*
X21400Y-22000D01*
X21400Y-22000D02*
X21400Y-28710D01*
X19805Y-30305D02*
X19805Y-32200D01*
X19805Y-32200D02*
X19805Y-33300D01*
X19805Y-33300D02*
X19805Y-34100D01*
G54D34*
X23713Y-15600D02*
X23300Y-15600D01*
X23100Y-21150D02*
X23100Y-21150D01*
X23100Y-15800D02*
X23100Y-21150D01*
X23300Y-15600D02*
X23100Y-15800D01*
G54D37*
X21400Y-7100D02*
X21400Y-8500D01*
X21400Y-8500D02*
X21400Y-20700D01*
X21400Y-20700D02*
X21400Y-21200D01*
X37400Y-7100D02*
X22900Y-7100D01*
X22900Y-7100D02*
X21400Y-7100D01*
G54D33*
X17037Y-33282D02*
X17042Y-33282D01*
X17030Y-33290D02*
X17037Y-33282D01*
X15900Y-32000D02*
X15900Y-32140D01*
G54D32*
X15900Y-32140D02*
X17042Y-33282D01*
G54D36*
X33325Y-23000D02*
X33325Y-22980D01*
G54D32*
X49800Y-18488D02*
X49800Y-19866D01*
G54D33*
X23150Y-23850D02*
X23100Y-23800D01*
G54D32*
X45600Y-8900D02*
X49743Y-8900D01*
X49743Y-8900D02*
X49800Y-8843D01*
X45600Y-8900D02*
X45100Y-9000D01*
X44700Y-14400D02*
X45000Y-14400D01*
X44550Y-13750D02*
X44700Y-14400D01*
X44550Y-9550D02*
X44550Y-13750D01*
X45100Y-9000D02*
X44550Y-9550D01*
G54D37*
X14702Y-8000D02*
X14702Y-6202D01*
X14702Y-6202D02*
X14750Y-6250D01*
X7050Y-10840D02*
X7050Y-9050D01*
X8100Y-8000D02*
X8797Y-8000D01*
X7050Y-9050D02*
X8100Y-8000D01*
X7050Y-10840D02*
X7050Y-12422D01*
G54D38*
X11800Y-15800D02*
X12200Y-16200D01*
X12200Y-16200D02*
X12200Y-16600D01*
G54D37*
X10750Y-6250D02*
X10750Y-12050D01*
X10750Y-12050D02*
X10700Y-12100D01*
G54D38*
X12950Y-14350D02*
X12200Y-15100D01*
X11450Y-12850D02*
X12950Y-12850D01*
X10700Y-12100D02*
X9200Y-12100D01*
X13700Y-12100D02*
X12200Y-12100D01*
X8450Y-12850D02*
X9950Y-12850D01*
X9950Y-15850D02*
X9200Y-16600D01*
X9200Y-15100D02*
X8450Y-15850D01*
X8450Y-14350D02*
X9950Y-14350D01*
X10700Y-13600D02*
X9200Y-13600D01*
X13700Y-13600D02*
X12200Y-13600D01*
X18200Y-15100D02*
X16700Y-15100D01*
X18950Y-14350D02*
X19700Y-15100D01*
X16700Y-13600D02*
X17450Y-14350D01*
X19700Y-13600D02*
X18200Y-13600D01*
X17450Y-12850D02*
X18950Y-12850D01*
X12950Y-11350D02*
X14450Y-11350D01*
X15950Y-11350D02*
X17450Y-11350D01*
X18950Y-11350D02*
X19700Y-12100D01*
X18200Y-12100D02*
X16700Y-12100D01*
X9950Y-11350D02*
X11450Y-11350D01*
X9950Y-11350D02*
X8450Y-11350D01*
G54D34*
X33120Y-32905D02*
X32520Y-32305D01*
X33100Y-36550D02*
X33120Y-32905D01*
X32000Y-36550D02*
X32720Y-35905D01*
X32520Y-32805D02*
X32420Y-32805D01*
X32720Y-33105D02*
X32520Y-32805D01*
X32720Y-35905D02*
X32720Y-33105D01*
G54D32*
X40200Y-25480D02*
X43700Y-25800D01*
G54D38*
X18200Y-16600D02*
X16700Y-16600D01*
X18950Y-17350D02*
X19700Y-16600D01*
X16700Y-18100D02*
X17450Y-17350D01*
X19700Y-18100D02*
X18200Y-18100D01*
X17450Y-18850D02*
X18950Y-18850D01*
X13700Y-23350D02*
X15200Y-23350D01*
X15950Y-23350D02*
X17450Y-23350D01*
X18950Y-23350D02*
X19700Y-22600D01*
X18200Y-22600D02*
X16700Y-22600D01*
X14450Y-19600D02*
X13700Y-18850D01*
X18200Y-19600D02*
X16700Y-19600D01*
X18950Y-20350D02*
X19700Y-19600D01*
X15950Y-20350D02*
X17450Y-20350D01*
X13700Y-20350D02*
X15200Y-20350D01*
X16700Y-21100D02*
X14450Y-21100D01*
X19700Y-21100D02*
X18200Y-21100D01*
X17450Y-21850D02*
X18950Y-21850D01*
X15200Y-21850D02*
X15950Y-21850D01*
X14450Y-22600D02*
X13700Y-21850D01*
X15607Y-28035D02*
X15014Y-28035D01*
X18200Y-28600D02*
X19700Y-28600D01*
X17450Y-27850D02*
X16700Y-28600D01*
X19700Y-27100D02*
X18950Y-27850D01*
X16700Y-27100D02*
X18200Y-27100D01*
X18950Y-26350D02*
X17450Y-26350D01*
X18200Y-25600D02*
X19700Y-25600D01*
X17450Y-24850D02*
X16700Y-25600D01*
X19700Y-24100D02*
X18950Y-24850D01*
X16700Y-24100D02*
X18200Y-24100D01*
X13700Y-24850D02*
X14450Y-24100D01*
X13700Y-26350D02*
X14450Y-25600D01*
X13700Y-27850D02*
X14450Y-27100D01*
X15014Y-28035D02*
X14450Y-28600D01*
G54D32*
X10300Y-32000D02*
X10300Y-29700D01*
X12300Y-27700D02*
X12300Y-23192D01*
X10300Y-29700D02*
X12300Y-27700D01*
X45780Y-34680D02*
X43920Y-34620D01*
X40200Y-27480D02*
X40200Y-29980D01*
X41920Y-34620D02*
X40200Y-31980D01*
X44600Y-29300D02*
X45700Y-25800D01*
X44600Y-31300D02*
X47950Y-31350D01*
G54D38*
X6500Y-19950D02*
X6500Y-18450D01*
X7050Y-18777D02*
X7672Y-18777D01*
X8750Y-20700D02*
X8000Y-21450D01*
X11000Y-19950D02*
X10250Y-20700D01*
X8000Y-19950D02*
X9500Y-19950D01*
X10250Y-19200D02*
X8750Y-19200D01*
X9500Y-18450D02*
X11000Y-18450D01*
X7672Y-18777D02*
X8000Y-18450D01*
X8000Y-21450D02*
X6500Y-21450D01*
X8000Y-21450D02*
X9500Y-21450D01*
X11000Y-21450D02*
X10250Y-22200D01*
X8750Y-22200D02*
X7250Y-22200D01*
X6500Y-22950D02*
X8000Y-22950D01*
X9500Y-22950D02*
X11000Y-22950D01*
X10250Y-23700D02*
X8750Y-23700D01*
X7250Y-23700D02*
X6500Y-24450D01*
X8000Y-24450D02*
X9500Y-24450D01*
X11000Y-24450D02*
X10250Y-25200D01*
X8750Y-25200D02*
X7250Y-25200D01*
X6500Y-25950D02*
X8000Y-25950D01*
X9500Y-25950D02*
X11000Y-25950D01*
X11000Y-27450D02*
X9500Y-27450D01*
X8000Y-27450D02*
X6500Y-27450D01*
X33620Y-17120D02*
X24481Y-17120D01*
X24481Y-17120D02*
X23713Y-16352D01*
X36200Y-21700D02*
X36200Y-24050D01*
X36200Y-21250D02*
X36200Y-21700D01*
X42350Y-23750D02*
X37100Y-23750D01*
X37100Y-23750D02*
X36800Y-24050D01*
X36800Y-24050D02*
X36200Y-24050D01*
G54D36*
X35050Y-21725D02*
X35050Y-26575D01*
X26550Y-27600D02*
X23775Y-27600D01*
X27230Y-26920D02*
X26550Y-27600D01*
X34705Y-26920D02*
X27230Y-26920D01*
X35050Y-26575D02*
X34705Y-26920D01*
G54D38*
X40000Y-7900D02*
X41200Y-7900D01*
X41200Y-7900D02*
X41300Y-8000D01*
X41300Y-7000D02*
X40940Y-7000D01*
X39510Y-7410D02*
X39000Y-6900D01*
X40530Y-7410D02*
X39510Y-7410D01*
X40940Y-7000D02*
X40530Y-7410D01*
X39275Y-21425D02*
X39800Y-20900D01*
X39275Y-22375D02*
X39275Y-21425D01*
X39320Y-22420D02*
X39275Y-22375D01*
X38800Y-21900D02*
X38315Y-21900D01*
X37270Y-22945D02*
X38315Y-21900D01*
X37405Y-19295D02*
X38800Y-17900D01*
X37405Y-20790D02*
X37405Y-19295D01*
X36595Y-21580D02*
X37405Y-20790D01*
X36550Y-23700D02*
X36750Y-23500D01*
X41750Y-21850D02*
X41000Y-21100D01*
X41750Y-23250D02*
X41750Y-21850D01*
X41500Y-23500D02*
X41750Y-23250D01*
X36750Y-23500D02*
X41500Y-23500D01*
X42120Y-24160D02*
X42540Y-24160D01*
X42540Y-24160D02*
X42750Y-23950D01*
G54D36*
X42150Y-22450D02*
X42653Y-23527D01*
X42653Y-23527D02*
X42750Y-23623D01*
X42750Y-23623D02*
X42750Y-23950D01*
G54D38*
X36200Y-24400D02*
X36760Y-24400D01*
X41920Y-23960D02*
X42120Y-24160D01*
X37200Y-23960D02*
X41920Y-23960D01*
X36760Y-24400D02*
X37200Y-23960D01*
X42150Y-22450D02*
X42150Y-22400D01*
X30150Y-28850D02*
X30100Y-28800D01*
X30100Y-28800D02*
X28975Y-28800D01*
G54D32*
X45500Y-12410D02*
X47195Y-12504D01*
X47195Y-12504D02*
X47300Y-12400D01*
G54D34*
X21400Y-30250D02*
X21400Y-30100D01*
X22225Y-31075D02*
X21400Y-30250D01*
G54D38*
X25550Y-28850D02*
X28425Y-28850D01*
X25450Y-28750D02*
X25550Y-28850D01*
G54D34*
X22615Y-33100D02*
X22615Y-30655D01*
X22615Y-30655D02*
X23305Y-29965D01*
X21400Y-33100D02*
X22615Y-33100D01*
X22615Y-33100D02*
X23275Y-32440D01*
G54D10*
G36*
X34650Y-25945D02*
X34595Y-26217D01*
X34444Y-26444D01*
X34218Y-26595D01*
X27230Y-26595D01*
X27230Y-26594D01*
X27105Y-26619D01*
X27013Y-26680D01*
X27013Y-26680D01*
X26978Y-26686D01*
X26760Y-26793D01*
X26587Y-26959D01*
X26537Y-27023D01*
X26381Y-27173D01*
X26190Y-27267D01*
X26139Y-27275D01*
X24439Y-27275D01*
X24293Y-27245D01*
X24062Y-27091D01*
X23157Y-26186D01*
X23044Y-26039D01*
X22974Y-25870D01*
X22950Y-25686D01*
X22950Y-21307D01*
X23001Y-21041D01*
X23149Y-20813D01*
X25512Y-18366D01*
X25661Y-18248D01*
X25833Y-18175D01*
X26021Y-18150D01*
X31024Y-18150D01*
X31150Y-18175D01*
X31275Y-18150D01*
X33945Y-18150D01*
X34217Y-18204D01*
X34444Y-18355D01*
X34595Y-18582D01*
X34650Y-18854D01*
X34650Y-21580D01*
X34625Y-21640D01*
X34624Y-21809D01*
X34650Y-21869D01*
X34650Y-25945D01*
X34650Y-25945D01*
G37*
G54D38*
X34650Y-25945D02*
X34595Y-26217D01*
X34444Y-26444D01*
X34218Y-26595D01*
X27230Y-26595D01*
X27230Y-26594D01*
X27105Y-26619D01*
X27013Y-26680D01*
X27013Y-26680D01*
X26978Y-26686D01*
X26760Y-26793D01*
X26587Y-26959D01*
X26537Y-27023D01*
X26381Y-27173D01*
X26190Y-27267D01*
X26139Y-27275D01*
X24439Y-27275D01*
X24293Y-27245D01*
X24062Y-27091D01*
X23157Y-26186D01*
X23044Y-26039D01*
X22974Y-25870D01*
X22950Y-25686D01*
X22950Y-21307D01*
X23001Y-21041D01*
X23149Y-20813D01*
X25512Y-18366D01*
X25661Y-18248D01*
X25833Y-18175D01*
X26021Y-18150D01*
X31024Y-18150D01*
X31150Y-18175D01*
X31275Y-18150D01*
X33945Y-18150D01*
X34217Y-18204D01*
X34444Y-18355D01*
X34595Y-18582D01*
X34650Y-18854D01*
X34650Y-21580D01*
X34625Y-21640D01*
X34624Y-21809D01*
X34650Y-21869D01*
X34650Y-25945D01*
G54D10*
G36*
X31970Y-34950D02*
X31915Y-35222D01*
X31764Y-35449D01*
X31537Y-35600D01*
X31265Y-35655D01*
X26974Y-35655D01*
X26702Y-35600D01*
X26475Y-35449D01*
X26324Y-35222D01*
X26270Y-34950D01*
X26270Y-30459D01*
X26324Y-30187D01*
X26475Y-29960D01*
X26702Y-29809D01*
X26874Y-29775D01*
X31365Y-29775D01*
X31537Y-29809D01*
X31764Y-29960D01*
X31915Y-30187D01*
X31959Y-30409D01*
X31930Y-30560D01*
X31968Y-30751D01*
X31970Y-30754D01*
X31970Y-34950D01*
X31970Y-34950D01*
G37*
G54D38*
X31970Y-34950D02*
X31915Y-35222D01*
X31764Y-35449D01*
X31537Y-35600D01*
X31265Y-35655D01*
X26974Y-35655D01*
X26702Y-35600D01*
X26475Y-35449D01*
X26324Y-35222D01*
X26270Y-34950D01*
X26270Y-30459D01*
X26324Y-30187D01*
X26475Y-29960D01*
X26702Y-29809D01*
X26874Y-29775D01*
X31365Y-29775D01*
X31537Y-29809D01*
X31764Y-29960D01*
X31915Y-30187D01*
X31959Y-30409D01*
X31930Y-30560D01*
X31968Y-30751D01*
X31970Y-30754D01*
X31970Y-34950D01*
G54D10*
G36*
X19950Y-14545D02*
X19895Y-14817D01*
X19744Y-15044D01*
X19517Y-15195D01*
X19245Y-15250D01*
X13545Y-15250D01*
X13243Y-15309D01*
X12983Y-15483D01*
X12809Y-15743D01*
X12750Y-16045D01*
X12750Y-16545D01*
X12695Y-16817D01*
X12544Y-17044D01*
X12317Y-17195D01*
X12045Y-17250D01*
X9054Y-17250D01*
X8782Y-17195D01*
X8555Y-17044D01*
X8404Y-16817D01*
X8350Y-16545D01*
X8350Y-10154D01*
X8404Y-9882D01*
X8555Y-9655D01*
X8782Y-9504D01*
X9054Y-9450D01*
X19245Y-9450D01*
X19517Y-9504D01*
X19744Y-9655D01*
X19895Y-9882D01*
X19950Y-10154D01*
X19950Y-14545D01*
X19950Y-14545D01*
G37*
G54D38*
X19950Y-14545D02*
X19895Y-14817D01*
X19744Y-15044D01*
X19517Y-15195D01*
X19245Y-15250D01*
X13545Y-15250D01*
X13243Y-15309D01*
X12983Y-15483D01*
X12809Y-15743D01*
X12750Y-16045D01*
X12750Y-16545D01*
X12695Y-16817D01*
X12544Y-17044D01*
X12317Y-17195D01*
X12045Y-17250D01*
X9054Y-17250D01*
X8782Y-17195D01*
X8555Y-17044D01*
X8404Y-16817D01*
X8350Y-16545D01*
X8350Y-10154D01*
X8404Y-9882D01*
X8555Y-9655D01*
X8782Y-9504D01*
X9054Y-9450D01*
X19245Y-9450D01*
X19517Y-9504D01*
X19744Y-9655D01*
X19895Y-9882D01*
X19950Y-10154D01*
X19950Y-14545D01*
G54D10*
G36*
X19950Y-28156D02*
X19921Y-28355D01*
X19839Y-28535D01*
X19708Y-28688D01*
X19382Y-28973D01*
X19164Y-29104D01*
X18913Y-29150D01*
X14154Y-29150D01*
X13882Y-29095D01*
X13655Y-28944D01*
X13504Y-28717D01*
X13450Y-28445D01*
X13450Y-16554D01*
X13504Y-16282D01*
X13655Y-16055D01*
X13882Y-15904D01*
X14154Y-15850D01*
X19245Y-15850D01*
X19517Y-15904D01*
X19744Y-16055D01*
X19895Y-16282D01*
X19950Y-16554D01*
X19950Y-28156D01*
X19950Y-28156D01*
G37*
G54D38*
X19950Y-28156D02*
X19921Y-28355D01*
X19839Y-28535D01*
X19708Y-28688D01*
X19382Y-28973D01*
X19164Y-29104D01*
X18913Y-29150D01*
X14154Y-29150D01*
X13882Y-29095D01*
X13655Y-28944D01*
X13504Y-28717D01*
X13450Y-28445D01*
X13450Y-16554D01*
X13504Y-16282D01*
X13655Y-16055D01*
X13882Y-15904D01*
X14154Y-15850D01*
X19245Y-15850D01*
X19517Y-15904D01*
X19744Y-16055D01*
X19895Y-16282D01*
X19950Y-16554D01*
X19950Y-28156D01*
G54D10*
G36*
X11050Y-27145D02*
X10995Y-27417D01*
X10844Y-27644D01*
X10617Y-27795D01*
X10345Y-27850D01*
X6854Y-27850D01*
X6582Y-27795D01*
X6355Y-27644D01*
X6204Y-27417D01*
X6150Y-27145D01*
X6150Y-18654D01*
X6204Y-18382D01*
X6355Y-18155D01*
X6582Y-18004D01*
X6854Y-17950D01*
X10345Y-17950D01*
X10617Y-18004D01*
X10844Y-18155D01*
X10995Y-18382D01*
X11050Y-18654D01*
X11050Y-27145D01*
X11050Y-27145D01*
G37*
G54D38*
X11050Y-27145D02*
X10995Y-27417D01*
X10844Y-27644D01*
X10617Y-27795D01*
X10345Y-27850D01*
X6854Y-27850D01*
X6582Y-27795D01*
X6355Y-27644D01*
X6204Y-27417D01*
X6150Y-27145D01*
X6150Y-18654D01*
X6204Y-18382D01*
X6355Y-18155D01*
X6582Y-18004D01*
X6854Y-17950D01*
X10345Y-17950D01*
X10617Y-18004D01*
X10844Y-18155D01*
X10995Y-18382D01*
X11050Y-18654D01*
X11050Y-27145D01*
M02*
