M48
INCH,TZ
T1C0.020
T2C0.025
T3C0.031
T4C0.032
T5C0.035
T6C0.037
T7C0.038
T8C0.040
T9C0.045
T10C0.047
T11C0.060
T12C0.078
T13C0.088
T14C0.091
T15C0.120
T16C0.150
%
G90
G05
T1
X14700Y-16300
X14700Y-16800
X14700Y-17300
X14700Y-20300
X14700Y-20800
X14700Y-21300
X14700Y-21800
X14800Y-15800
X14800Y-17800
X14800Y-19800
X15100Y-15400
X15100Y-18200
X15100Y-19400
X15100Y-22200
X15600Y-15400
X15600Y-18200
X15600Y-19400
X15600Y-22200
X16000Y-19800
X16100Y-15800
X16100Y-16300
X16100Y-16800
X16100Y-17300
X16100Y-17900
X16100Y-20300
X16100Y-20800
X16100Y-21300
X16100Y-21800
T2
X6750Y-15000
X6750Y-16500
X6750Y-18000
X6750Y-20250
X6750Y-21750
X6750Y-23250
X6750Y-24750
X6750Y-26250
X7500Y-15750
X7500Y-17250
X7500Y-19500
X7500Y-21000
X7500Y-22500
X7500Y-24000
X7500Y-25500
X7500Y-28500
X8000Y-9000
X8000Y-9750
X8000Y-11250
X8000Y-12750
X8000Y-14250
X8250Y-15000
X8250Y-18000
X8250Y-20250
X8250Y-21750
X8250Y-23250
X8250Y-24750
X8250Y-26250
X8750Y-10500
X8750Y-12000
X8750Y-13500
X9000Y-19500
X9000Y-21000
X9000Y-22500
X9000Y-24000
X9000Y-25500
X9000Y-28500
X9400Y-33400
X9500Y-9000
X9500Y-9750
X9500Y-11250
X9500Y-12750
X9500Y-14250
X9750Y-15000
X9750Y-16500
X9750Y-18000
X9750Y-20250
X9750Y-21750
X9750Y-23250
X9750Y-24750
X9750Y-26250
X10500Y-15750
X10500Y-17250
X10500Y-19500
X10500Y-21000
X10500Y-22500
X10500Y-24000
X10500Y-25500
X10500Y-28500
X11000Y-23250
X11000Y-24750
X11000Y-26250
X11250Y-15000
X11250Y-16500
X11250Y-18000
X11250Y-20250
X11250Y-21750
X12000Y-15750
X12000Y-17250
X12000Y-19500
X12000Y-21000
X12000Y-22500
X12750Y-15000
X12750Y-16500
X12750Y-18000
X13500Y-15750
X13500Y-16500
X13500Y-17250
X13500Y-40100
X14200Y-21400
X14200Y-22800
X14200Y-24400
X14200Y-25800
X14200Y-27400
X14200Y-28800
X14250Y-15000
X14250Y-18000
X14450Y-23600
X14450Y-25100
X14450Y-26600
X14450Y-28100
X14450Y-29600
X15100Y-33400
X15200Y-22850
X15200Y-24350
X15950Y-22850
X15950Y-24350
X16500Y-15000
X16500Y-16500
X16500Y-18000
X16600Y-19200
X16700Y-20600
X16700Y-22100
X16700Y-23600
X16700Y-25100
X16700Y-26600
X16700Y-28100
X16700Y-29600
X17030Y-34290
X17250Y-15750
X17250Y-17250
X17450Y-19850
X17450Y-21350
X17450Y-22850
X17450Y-24350
X17450Y-25850
X17450Y-27350
X17450Y-28850
X18000Y-15000
X18000Y-16500
X18000Y-18000
X18200Y-19200
X18200Y-20600
X18200Y-22100
X18200Y-23600
X18200Y-25100
X18200Y-26600
X18200Y-28100
X18200Y-29600
X18200Y-32000
X18500Y-9400
X18750Y-15750
X18750Y-17250
X18950Y-19850
X18950Y-21350
X18950Y-22850
X18950Y-24350
X18950Y-25850
X18950Y-27350
X18950Y-28850
X19000Y-11100
X19500Y-15000
X19500Y-16500
X19500Y-29600
X19600Y-19200
X19700Y-20600
X19700Y-22100
X19700Y-23600
X19700Y-25100
X19700Y-26600
X19700Y-28100
X19700Y-34300
X22200Y-30000
X22600Y-29200
X22700Y-36500
X22900Y-34000
X22900Y-36000
X23000Y-34600
X23100Y-22150
X23150Y-24850
X23150Y-26900
X23200Y-31300
X23200Y-32200
X23775Y-28600
X23800Y-24850
X24050Y-21150
X24300Y-28050
X24700Y-11500
X25050Y-10750
X25100Y-9700
X25100Y-18000
X25250Y-11500
X25600Y-9700
X25600Y-10750
X26200Y-28050
X26265Y-21155
X26550Y-25110
X26900Y-19900
X26900Y-34800
X26920Y-31455
X27000Y-17600
X27250Y-23960
X27500Y-8000
X28800Y-29800
X29000Y-31300
X29860Y-20195
X30250Y-28350
X30300Y-29900
X30500Y-8800
X31150Y-18675
X31500Y-27500
X31820Y-32805
X31850Y-32350
X32200Y-19200
X32400Y-17600
X32420Y-33805
X32430Y-31560
X32520Y-33305
X33325Y-24000
X33620Y-18120
X34000Y-8800
X34200Y-26700
X34500Y-23200
X34800Y-16200
X35000Y-31200
X35000Y-31800
X35050Y-22800
X35100Y-15400
X35300Y-16200
X35300Y-31500
X35400Y-11700
X35600Y-31200
X35600Y-31800
X35625Y-24500
X35800Y-12300
X36200Y-21700
X36450Y-24500
X36600Y-32300
X36700Y-24900
X36950Y-24500
X37450Y-14600
X38000Y-28000
X38000Y-35900
X38000Y-37000
X38300Y-28500
X38300Y-32300
X38400Y-36500
X38800Y-26400
X38800Y-27000
X38800Y-35900
X38800Y-37000
X39700Y-40500
X39700Y-41500
X40200Y-41000
X40200Y-42000
X40700Y-40500
X40700Y-41500
X41200Y-41000
X41200Y-42000
X41700Y-40500
X41700Y-41500
X41950Y-9300
X42200Y-42000
X42500Y-35900
X42500Y-36900
X42800Y-24600
X42800Y-41500
X42900Y-33400
X42900Y-35900
X42900Y-36900
X42900Y-40500
X43100Y-32600
X43500Y-29800
X43600Y-28300
X43600Y-35300
X43800Y-34700
X44000Y-38700
X44800Y-22000
X45000Y-23800
X45700Y-18200
X45900Y-33700
X46100Y-34300
X46400Y-26500
X46400Y-33100
X46700Y-18300
X47000Y-35400
X47100Y-12400
X47200Y-32900
X47400Y-16900
X47550Y-24275
X47600Y-26300
X47700Y-22000
X47900Y-30200
X47900Y-40800
X48200Y-17300
X48300Y-14800
X48400Y-16100
X48500Y-27800
X48500Y-33900
X48600Y-30200
X48600Y-40800
X51600Y-8400
T3
X21725Y-37608
X21725Y-38592
X23300Y-37608
X23300Y-38592
X24087Y-37608
X24087Y-38592
X24875Y-37608
X24875Y-38592
X43908Y-12325
X43908Y-13113
X43908Y-13900
X43908Y-15475
X44892Y-12325
X44892Y-13113
X44892Y-13900
X44892Y-15475
T4
X21400Y-7100
X21400Y-8100
X21400Y-31100
X21400Y-32100
X21400Y-33100
X21400Y-34100
X21400Y-35100
X21400Y-36100
X37400Y-7100
X37400Y-8100
X37400Y-35100
X37400Y-36100
T5
X23813Y-18048
X23813Y-18800
X23813Y-19552
T6
X8750Y-9500
X13250Y-9500
T7
X15100Y-7147
X15100Y-13053
X39500Y-7100
X40500Y-6100
X41500Y-7100
T8
X17500Y-7500
X17500Y-8500
X18500Y-7500
X18500Y-8500
X19500Y-7500
X19500Y-8500
X23500Y-7000
X23500Y-8000
X24500Y-7000
X24500Y-8000
X25500Y-7000
X25500Y-8000
X26500Y-7000
X26500Y-8000
X28500Y-7000
X28500Y-8000
X29500Y-7000
X29500Y-8000
X29850Y-37550
X30400Y-38650
X30500Y-7000
X30500Y-8000
X30950Y-37550
X31500Y-7000
X31500Y-8000
X31500Y-38650
X32000Y-37550
X32500Y-7000
X32500Y-8000
X32550Y-38650
X33100Y-37550
X33500Y-7000
X33500Y-8000
X33650Y-38650
X34150Y-37550
X34500Y-7000
X34500Y-8000
X35500Y-7000
X35500Y-8000
X40800Y-9400
X40800Y-11400
X40800Y-13900
X40800Y-15900
X40800Y-18400
X40800Y-20400
X40800Y-22900
X40800Y-24900
X40800Y-31800
X40800Y-33800
X41800Y-27300
X41800Y-29300
X43800Y-6300
X44800Y-6300
X45800Y-6300
X48000Y-6300
X49000Y-6300
X50000Y-6300
X51000Y-6300
T9
X39600Y-36300
X40600Y-36300
X41600Y-36300
T10
X14683Y-38250
X16061Y-38250
X17439Y-38250
X18817Y-38250
X20898Y-38100
X25702Y-38100
X42411Y-40900
X43789Y-40900
X44400Y-11498
X44400Y-16302
X53700Y-9361
X53700Y-10739
X53700Y-13861
X53700Y-15239
X53700Y-19333
X53700Y-20711
X53700Y-22089
X53700Y-23467
X53700Y-27433
X53700Y-28811
X53700Y-30189
X53700Y-31567
X53700Y-35133
X53700Y-36511
X53700Y-37889
X53700Y-39267
T11
X8750Y-15990
X8750Y-17573
X12750Y-11990
X12750Y-13573
X12750Y-19927
X12750Y-21510
T13
X7024Y-27500
X8560Y-27500
X10095Y-27500
X15607Y-25965
X15607Y-27500
X15607Y-29035
T14
X12300Y-24193
X12300Y-30807
T15
X7000Y-7000
X7000Y-42000
X16600Y-42300
X27100Y-38100
X36950Y-38100
X56000Y-7000
X56000Y-42000
X56300Y-12200
X56300Y-17100
X56300Y-25500
X56300Y-33200
T16
X20580Y-12800
X38220Y-29900
T12
X15388Y-16046G85X15388Y-17616
G05
X15388Y-19984G85X15388Y-21554
G05
T0
M30
