G04 (created by PCBNEW (2013-mar-13)-testing) date Tue 02 Jul 2013 01:17:31 PM EDT*
%MOIN*%
G04 Gerber Fmt 3.4, Leading zero omitted, Abs format*
%FSLAX34Y34*%
G01*
G70*
G90*
G04 APERTURE LIST*
%ADD10C,0.005906*%
%ADD11R,0.053000X0.033000*%
%ADD12R,0.033000X0.053000*%
%ADD13R,0.014000X0.058000*%
%ADD14R,0.058000X0.014000*%
%ADD15R,0.053100X0.021600*%
%ADD16R,0.043000X0.018000*%
%ADD17R,0.080700X0.218500*%
%ADD18R,0.037400X0.029500*%
G04 APERTURE END LIST*
G54D10*
X5000Y-5000D02*
G75*
G03X5000Y-5000I0J0D01*
G74*
G01*
X4999Y-5000D02*
X5000Y-5000D01*
X5000Y-4999D02*
X5000Y-5000D01*
X5000Y-41000D02*
X5000Y-5000D01*
X54000Y-41000D02*
X5000Y-41000D01*
X54000Y-5000D02*
X54000Y-41000D01*
X5000Y-5000D02*
X54000Y-5000D01*
G54D11*
X33600Y-19475D03*
X33600Y-18725D03*
X32675Y-18725D03*
X32675Y-19475D03*
X26805Y-22290D03*
X26805Y-23040D03*
X31800Y-18725D03*
X31800Y-19475D03*
G54D12*
X30225Y-18700D03*
X30975Y-18700D03*
X30225Y-19600D03*
X30975Y-19600D03*
X47075Y-27100D03*
X47825Y-27100D03*
G54D11*
X47300Y-13425D03*
X47300Y-14175D03*
G54D13*
X30450Y-20800D03*
X30135Y-20800D03*
X29820Y-20800D03*
X29505Y-20800D03*
X29190Y-20800D03*
X28875Y-20800D03*
X30765Y-20800D03*
X31080Y-20800D03*
X31395Y-20800D03*
X31710Y-20800D03*
X32025Y-20800D03*
X30450Y-25300D03*
X30135Y-25300D03*
X29820Y-25300D03*
X29505Y-25300D03*
X29190Y-25300D03*
X28875Y-25300D03*
X30765Y-25300D03*
X31080Y-25300D03*
X31395Y-25300D03*
X31710Y-25300D03*
X32025Y-25300D03*
G54D14*
X28200Y-23050D03*
X32700Y-23050D03*
X28200Y-23365D03*
X32700Y-23365D03*
X32700Y-23680D03*
X28200Y-23680D03*
X28200Y-23995D03*
X32700Y-23995D03*
X32700Y-24310D03*
X28200Y-24310D03*
X28200Y-24625D03*
X32700Y-24625D03*
X32700Y-22735D03*
X28200Y-22735D03*
X28200Y-22420D03*
X32700Y-22420D03*
X32700Y-22105D03*
X28200Y-22105D03*
X28200Y-21790D03*
X32700Y-21790D03*
X32700Y-21475D03*
X28200Y-21475D03*
G54D15*
X6750Y-32300D03*
X6750Y-33300D03*
X8850Y-32300D03*
X8850Y-33300D03*
G54D16*
X31270Y-31305D03*
X31270Y-32305D03*
X31270Y-32805D03*
X31270Y-33305D03*
X31270Y-33805D03*
X31270Y-34305D03*
X31270Y-34805D03*
X28770Y-34805D03*
X28770Y-34305D03*
X28770Y-33805D03*
X28770Y-33305D03*
X28770Y-32805D03*
X28770Y-32305D03*
X28770Y-31805D03*
X28770Y-31305D03*
X31270Y-31805D03*
G54D12*
X35175Y-23600D03*
X34425Y-23600D03*
X7025Y-31400D03*
X7775Y-31400D03*
G54D11*
X26920Y-31780D03*
X26920Y-31030D03*
G54D12*
X30295Y-30405D03*
X29545Y-30405D03*
G54D11*
X27720Y-31430D03*
X27720Y-32180D03*
G54D12*
X27345Y-33005D03*
X28095Y-33005D03*
X27345Y-33805D03*
X28095Y-33805D03*
X47075Y-28000D03*
X47825Y-28000D03*
X34575Y-22800D03*
X33825Y-22800D03*
G54D11*
X23800Y-22625D03*
X23800Y-23375D03*
X23800Y-24225D03*
X23800Y-24975D03*
X41875Y-15190D03*
X41875Y-14440D03*
G54D17*
X25470Y-21681D03*
X25470Y-25499D03*
G54D12*
X30280Y-26310D03*
X31030Y-26310D03*
G54D11*
X50000Y-39125D03*
X50000Y-38375D03*
X44500Y-39125D03*
X44500Y-38375D03*
X34200Y-24325D03*
X34200Y-25075D03*
X24700Y-15575D03*
X24700Y-14825D03*
G54D18*
X25583Y-30310D03*
X24717Y-30685D03*
X24717Y-29935D03*
X25583Y-32800D03*
X24717Y-33175D03*
X24717Y-32425D03*
G54D11*
X23965Y-30685D03*
X23965Y-29935D03*
G54D12*
X25450Y-29245D03*
X24700Y-29245D03*
G54D11*
X23920Y-33175D03*
X23920Y-32425D03*
G54D12*
X25420Y-31705D03*
X24670Y-31705D03*
G54D11*
X51300Y-32925D03*
X51300Y-33675D03*
M02*
