G04 (created by PCBNEW (2013-mar-13)-testing) date Sun 30 Jun 2013 11:26:14 PM EDT*
%MOIN*%
G04 Gerber Fmt 3.4, Leading zero omitted, Abs format*
%FSLAX34Y34*%
G01*
G70*
G90*
G04 APERTURE LIST*
%ADD10C,0.005906*%
%ADD11C,0.055000*%
%ADD12R,0.055000X0.055000*%
%ADD13R,0.060000X0.060000*%
%ADD14C,0.060000*%
%ADD15C,0.130500*%
%ADD16R,0.055000X0.035000*%
%ADD17R,0.035000X0.055000*%
%ADD18C,0.080300*%
%ADD19R,0.080300X0.080300*%
%ADD20C,0.065000*%
%ADD21C,0.059100*%
%ADD22O,0.212598X0.366142*%
%ADD23R,0.016000X0.060000*%
%ADD24R,0.060000X0.016000*%
%ADD25R,0.055100X0.023600*%
%ADD26R,0.045000X0.020000*%
%ADD27R,0.078740X0.078740*%
%ADD28C,0.082677*%
%ADD29C,0.150000*%
%ADD30R,0.082700X0.220500*%
%ADD31R,0.070000X0.070000*%
%ADD32C,0.070000*%
%ADD33C,0.085000*%
%ADD34R,0.085000X0.085000*%
%ADD35R,0.098425X0.098425*%
%ADD36C,0.098425*%
%ADD37R,0.039400X0.031500*%
%ADD38C,0.160000*%
%ADD39C,0.035000*%
%ADD40C,0.030000*%
%ADD41C,0.050000*%
%ADD42C,0.020000*%
%ADD43C,0.015000*%
%ADD44C,0.075000*%
%ADD45C,0.010000*%
%ADD46C,0.060000*%
%ADD47C,0.100000*%
G04 APERTURE END LIST*
G54D10*
G54D11*
X37400Y-34100D03*
G54D12*
X37400Y-35100D03*
X21400Y-35100D03*
G54D11*
X21400Y-34100D03*
X21400Y-33100D03*
X21400Y-32100D03*
X21400Y-31100D03*
X21400Y-30100D03*
X21400Y-7100D03*
X21400Y-6100D03*
X37400Y-7100D03*
X37400Y-6100D03*
G54D13*
X39000Y-6900D03*
G54D14*
X40000Y-6900D03*
X39000Y-7900D03*
X40000Y-7900D03*
X39000Y-8900D03*
X40000Y-8900D03*
G54D15*
X8559Y-26500D03*
X12300Y-23192D03*
X12300Y-29807D03*
X15607Y-26500D03*
X15607Y-24964D03*
X15607Y-28035D03*
X7024Y-26500D03*
X10095Y-26500D03*
G54D16*
X33600Y-19475D03*
X33600Y-18725D03*
X32675Y-18725D03*
X32675Y-19475D03*
X26805Y-22290D03*
X26805Y-23040D03*
X31800Y-18725D03*
X31800Y-19475D03*
G54D17*
X30225Y-18700D03*
X30975Y-18700D03*
X30225Y-19600D03*
X30975Y-19600D03*
G54D13*
X42800Y-12100D03*
G54D14*
X42800Y-13100D03*
X42800Y-14100D03*
G54D13*
X41300Y-13000D03*
G54D14*
X41300Y-12000D03*
X41300Y-11000D03*
X41300Y-10000D03*
X41300Y-9000D03*
X41300Y-8000D03*
X41300Y-7000D03*
X41300Y-6000D03*
G54D18*
X41100Y-17500D03*
G54D19*
X42100Y-16500D03*
G54D18*
X42100Y-18500D03*
G54D17*
X47075Y-27100D03*
X47825Y-27100D03*
G54D16*
X47300Y-13425D03*
X47300Y-14175D03*
G54D20*
X45200Y-22000D03*
X45200Y-22900D03*
X45200Y-21100D03*
X45400Y-12400D03*
X45400Y-13300D03*
X45400Y-11500D03*
X45600Y-8900D03*
X45600Y-9800D03*
X45600Y-8000D03*
X41000Y-22000D03*
X41000Y-22900D03*
X41000Y-21100D03*
G54D13*
X38800Y-15900D03*
G54D14*
X39800Y-15900D03*
X38800Y-16900D03*
X39800Y-16900D03*
X38800Y-17900D03*
X39800Y-17900D03*
X38800Y-18900D03*
X39800Y-18900D03*
X38800Y-19900D03*
X39800Y-19900D03*
X38800Y-20900D03*
X39800Y-20900D03*
X38800Y-21900D03*
X39800Y-21900D03*
X38800Y-22900D03*
X39800Y-22900D03*
G54D13*
X42800Y-6000D03*
G54D14*
X42800Y-7000D03*
X42800Y-8000D03*
X42800Y-9000D03*
X42800Y-10000D03*
G54D21*
X23713Y-15600D03*
X23713Y-16352D03*
X23713Y-14848D03*
G54D22*
X15287Y-17686D03*
X15287Y-13513D03*
G54D23*
X30450Y-20800D03*
X30135Y-20800D03*
X29820Y-20800D03*
X29505Y-20800D03*
X29190Y-20800D03*
X28875Y-20800D03*
X30765Y-20800D03*
X31080Y-20800D03*
X31395Y-20800D03*
X31710Y-20800D03*
X32025Y-20800D03*
X30450Y-25300D03*
X30135Y-25300D03*
X29820Y-25300D03*
X29505Y-25300D03*
X29190Y-25300D03*
X28875Y-25300D03*
X30765Y-25300D03*
X31080Y-25300D03*
X31395Y-25300D03*
X31710Y-25300D03*
X32025Y-25300D03*
G54D24*
X28200Y-23050D03*
X32700Y-23050D03*
X28200Y-23365D03*
X32700Y-23365D03*
X32700Y-23680D03*
X28200Y-23680D03*
X28200Y-23995D03*
X32700Y-23995D03*
X32700Y-24310D03*
X28200Y-24310D03*
X28200Y-24625D03*
X32700Y-24625D03*
X32700Y-22735D03*
X28200Y-22735D03*
X28200Y-22420D03*
X32700Y-22420D03*
X32700Y-22105D03*
X28200Y-22105D03*
X28200Y-21790D03*
X32700Y-21790D03*
X32700Y-21475D03*
X28200Y-21475D03*
G54D25*
X6750Y-32300D03*
X6750Y-33300D03*
X8850Y-32300D03*
X8850Y-33300D03*
G54D26*
X31270Y-31305D03*
X31270Y-32305D03*
X31270Y-32805D03*
X31270Y-33305D03*
X31270Y-33805D03*
X31270Y-34305D03*
X31270Y-34805D03*
X28770Y-34805D03*
X28770Y-34305D03*
X28770Y-33805D03*
X28770Y-33305D03*
X28770Y-32805D03*
X28770Y-32305D03*
X28770Y-31805D03*
X28770Y-31305D03*
X31270Y-31805D03*
G54D17*
X35175Y-23600D03*
X34425Y-23600D03*
X7025Y-31400D03*
X7775Y-31400D03*
G54D16*
X26920Y-31780D03*
X26920Y-31030D03*
G54D17*
X30295Y-30405D03*
X29545Y-30405D03*
G54D16*
X27720Y-31430D03*
X27720Y-32180D03*
G54D17*
X27345Y-33005D03*
X28095Y-33005D03*
X27345Y-33805D03*
X28095Y-33805D03*
X47075Y-28000D03*
X47825Y-28000D03*
X34575Y-22800D03*
X33825Y-22800D03*
G54D16*
X23800Y-22625D03*
X23800Y-23375D03*
X23800Y-24225D03*
X23800Y-24975D03*
X41875Y-15190D03*
X41875Y-14440D03*
G54D27*
X49800Y-7465D03*
G54D28*
X49800Y-8843D03*
X49800Y-10221D03*
X49800Y-11599D03*
X49800Y-12977D03*
X49800Y-14355D03*
X49800Y-15733D03*
X49800Y-17111D03*
X49800Y-18488D03*
X49800Y-19866D03*
X49800Y-21244D03*
X49800Y-22622D03*
X49800Y-24000D03*
X49800Y-25378D03*
X49800Y-26756D03*
X49800Y-28134D03*
G54D29*
X27100Y-37100D03*
X36950Y-37100D03*
G54D13*
X34150Y-36550D03*
G54D14*
X33100Y-36550D03*
X32000Y-36550D03*
X30950Y-36550D03*
X29850Y-36550D03*
X33650Y-37650D03*
X32550Y-37650D03*
X31500Y-37650D03*
X30400Y-37650D03*
G54D30*
X25470Y-21681D03*
X25470Y-25499D03*
G54D31*
X40200Y-31980D03*
G54D32*
X40200Y-29980D03*
G54D31*
X43920Y-34620D03*
G54D32*
X41920Y-34620D03*
G54D31*
X40200Y-27480D03*
G54D32*
X40200Y-25480D03*
G54D31*
X43700Y-25800D03*
G54D32*
X45700Y-25800D03*
G54D31*
X47950Y-31350D03*
G54D32*
X49950Y-31350D03*
G54D31*
X44600Y-29300D03*
G54D32*
X44600Y-31300D03*
G54D17*
X30280Y-26310D03*
X31030Y-26310D03*
G54D33*
X51380Y-34680D03*
G54D34*
X45780Y-34680D03*
G54D33*
X15900Y-32000D03*
G54D34*
X10300Y-32000D03*
G54D33*
X47200Y-22100D03*
G54D34*
X47200Y-16500D03*
G54D33*
X45000Y-14400D03*
G54D34*
X45000Y-20000D03*
G54D33*
X47300Y-12400D03*
G54D34*
X47300Y-6800D03*
G54D11*
X8797Y-8000D03*
X14702Y-8000D03*
G54D14*
X14750Y-6250D03*
X10750Y-6250D03*
G54D35*
X7050Y-20359D03*
X7050Y-18777D03*
G54D36*
X11050Y-16359D03*
X11050Y-14777D03*
X7050Y-12422D03*
X7050Y-10840D03*
G54D16*
X50000Y-39125D03*
X50000Y-38375D03*
X44500Y-39125D03*
X44500Y-38375D03*
G54D32*
X48250Y-38500D03*
G54D31*
X47250Y-38500D03*
G54D32*
X46250Y-38500D03*
G54D16*
X34200Y-24325D03*
X34200Y-25075D03*
X24700Y-15575D03*
X24700Y-14825D03*
G54D37*
X25583Y-30310D03*
X24717Y-30685D03*
X24717Y-29935D03*
X25583Y-32800D03*
X24717Y-33175D03*
X24717Y-32425D03*
G54D16*
X23965Y-30685D03*
X23965Y-29935D03*
G54D17*
X25450Y-29245D03*
X24700Y-29245D03*
G54D16*
X23920Y-33175D03*
X23920Y-32425D03*
G54D17*
X25420Y-31705D03*
X24670Y-31705D03*
G54D16*
X51300Y-32925D03*
X51300Y-33675D03*
G54D38*
X6500Y-6500D03*
X52500Y-6500D03*
X52500Y-39500D03*
X6500Y-39500D03*
G54D39*
X26400Y-16600D03*
X32400Y-16600D03*
X18200Y-31000D03*
X9570Y-33310D03*
X48100Y-28000D03*
X48100Y-27100D03*
X34800Y-8200D03*
X35300Y-30500D03*
X30250Y-27350D03*
X35625Y-23500D03*
X31150Y-17675D03*
X32430Y-30560D03*
X24070Y-31720D03*
X24085Y-29260D03*
X34100Y-33100D03*
X43450Y-23400D03*
X34500Y-32650D03*
X42950Y-23250D03*
X26900Y-33800D03*
X26200Y-27050D03*
X23150Y-25900D03*
X27250Y-22960D03*
X26550Y-24110D03*
X24300Y-27050D03*
X23800Y-23850D03*
X19700Y-33300D03*
X24050Y-20150D03*
X26265Y-20155D03*
X17030Y-33290D03*
X29860Y-19195D03*
X32200Y-18200D03*
X33325Y-23000D03*
X34200Y-25700D03*
X31820Y-31805D03*
X29020Y-30405D03*
X26920Y-30455D03*
X34500Y-22200D03*
X31500Y-26500D03*
X23150Y-23850D03*
X23100Y-21150D03*
X11800Y-15800D03*
X12200Y-16600D03*
X13700Y-15100D03*
X12200Y-15100D03*
X12950Y-14350D03*
X9950Y-12850D03*
X11450Y-12850D03*
X12950Y-12850D03*
X8450Y-12850D03*
X9200Y-12100D03*
X10700Y-12100D03*
X12200Y-12100D03*
X13700Y-12100D03*
X9200Y-16600D03*
X9950Y-15850D03*
X8450Y-15850D03*
X9200Y-15100D03*
X9950Y-14350D03*
X8450Y-14350D03*
X9200Y-13600D03*
X10700Y-13600D03*
X12200Y-13600D03*
X13700Y-13600D03*
X16700Y-15100D03*
X18200Y-15100D03*
X19700Y-15100D03*
X18950Y-14350D03*
X17450Y-14350D03*
X16700Y-13600D03*
X18200Y-13600D03*
X19700Y-13600D03*
X18950Y-12850D03*
X17450Y-12850D03*
X11450Y-11350D03*
X12950Y-11350D03*
X14450Y-11350D03*
X15950Y-11350D03*
X17450Y-11350D03*
X18950Y-11350D03*
X19700Y-12100D03*
X18200Y-12100D03*
X16700Y-12100D03*
X8450Y-11350D03*
X9950Y-11350D03*
X32520Y-32305D03*
X32420Y-32805D03*
X16700Y-16600D03*
X18200Y-16600D03*
X19700Y-16600D03*
X18950Y-17350D03*
X17450Y-17350D03*
X16700Y-18100D03*
X18200Y-18100D03*
X19700Y-18100D03*
X18950Y-18850D03*
X17450Y-18850D03*
X13700Y-23350D03*
X15200Y-23350D03*
X15950Y-23350D03*
X17450Y-23350D03*
X18950Y-23350D03*
X19700Y-22600D03*
X18200Y-22600D03*
X16700Y-22600D03*
X13700Y-18850D03*
X14450Y-19600D03*
X16700Y-19600D03*
X18200Y-19600D03*
X19700Y-19600D03*
X18950Y-20350D03*
X17450Y-20350D03*
X15950Y-20350D03*
X15200Y-20350D03*
X13700Y-20350D03*
X14450Y-21100D03*
X16700Y-21100D03*
X18200Y-21100D03*
X19700Y-21100D03*
X18950Y-21850D03*
X17450Y-21850D03*
X15950Y-21850D03*
X15200Y-21850D03*
X13700Y-21850D03*
X14450Y-22600D03*
X19700Y-28600D03*
X18200Y-28600D03*
X16700Y-28600D03*
X17450Y-27850D03*
X18950Y-27850D03*
X19700Y-27100D03*
X18200Y-27100D03*
X16700Y-27100D03*
X17450Y-26350D03*
X18950Y-26350D03*
X19700Y-25600D03*
X18200Y-25600D03*
X16700Y-25600D03*
X17450Y-24850D03*
X18950Y-24850D03*
X19700Y-24100D03*
X18200Y-24100D03*
X16700Y-24100D03*
X14450Y-24100D03*
X13700Y-24850D03*
X14450Y-25600D03*
X13700Y-26350D03*
X14450Y-27100D03*
X13700Y-27850D03*
X14450Y-28600D03*
X6500Y-18450D03*
X6500Y-19950D03*
X8750Y-20700D03*
X10250Y-20700D03*
X11000Y-19950D03*
X9500Y-19950D03*
X8000Y-19950D03*
X8750Y-19200D03*
X10250Y-19200D03*
X11000Y-18450D03*
X9500Y-18450D03*
X8000Y-18450D03*
X6500Y-21450D03*
X8000Y-21450D03*
X9500Y-21450D03*
X11000Y-21450D03*
X10250Y-22200D03*
X8750Y-22200D03*
X7250Y-22200D03*
X6500Y-22950D03*
X8000Y-22950D03*
X9500Y-22950D03*
X11000Y-22950D03*
X10250Y-23700D03*
X8750Y-23700D03*
X7250Y-23700D03*
X6500Y-24450D03*
X8000Y-24450D03*
X9500Y-24450D03*
X11000Y-24450D03*
X10250Y-25200D03*
X8750Y-25200D03*
X7250Y-25200D03*
X6500Y-25950D03*
X8000Y-25950D03*
X9500Y-25950D03*
X11000Y-25950D03*
X11000Y-27450D03*
X9500Y-27450D03*
X8000Y-27450D03*
X6500Y-27450D03*
X33620Y-17120D03*
X36200Y-21250D03*
X42350Y-23750D03*
X35050Y-21725D03*
X23775Y-27600D03*
X39320Y-22420D03*
X37270Y-22945D03*
X36595Y-21580D03*
X36550Y-23700D03*
X36200Y-24400D03*
X42150Y-22450D03*
X30150Y-28850D03*
X28975Y-28800D03*
X22225Y-31075D03*
X28425Y-28850D03*
X25450Y-28750D03*
X23305Y-29965D03*
X23275Y-32440D03*
G54D40*
X33600Y-18725D02*
X33600Y-17900D01*
X33600Y-17900D02*
X32400Y-16700D01*
X32400Y-16700D02*
X32400Y-16600D01*
X18200Y-31000D02*
X21200Y-28000D01*
X21200Y-28000D02*
X21200Y-21800D01*
X21200Y-21800D02*
X26400Y-16600D01*
X26400Y-16600D02*
X26400Y-16600D01*
G54D41*
X8850Y-33300D02*
X9560Y-33300D01*
X9560Y-33300D02*
X9570Y-33310D01*
X51300Y-33675D02*
X51300Y-34600D01*
X51300Y-34600D02*
X51380Y-34680D01*
X46250Y-38500D02*
X46250Y-38250D01*
X44500Y-38250D02*
X44500Y-38375D01*
X46250Y-38250D02*
X44500Y-38250D01*
G54D42*
X47300Y-14175D02*
X49619Y-14175D01*
X49619Y-14175D02*
X49800Y-14355D01*
G54D43*
X47825Y-28000D02*
X48100Y-28000D01*
X47825Y-27100D02*
X48100Y-27100D01*
G54D42*
X40000Y-6900D02*
X40000Y-6000D01*
X40000Y-6000D02*
X39400Y-5400D01*
X39400Y-5400D02*
X36000Y-5400D01*
X36000Y-5400D02*
X34800Y-6600D01*
X34800Y-6600D02*
X34800Y-8200D01*
G54D41*
X35300Y-35900D02*
X35300Y-35800D01*
X35300Y-35800D02*
X36000Y-35100D01*
X36000Y-35100D02*
X37400Y-35100D01*
X35300Y-37300D02*
X35300Y-35900D01*
X35300Y-35900D02*
X35300Y-35500D01*
X35300Y-35100D02*
X37400Y-35100D01*
X37400Y-35100D02*
X36100Y-35100D01*
X36100Y-35100D02*
X35300Y-34300D01*
X37400Y-35100D02*
X36200Y-35100D01*
X35300Y-30500D02*
X35300Y-34300D01*
X35300Y-34300D02*
X35300Y-35100D01*
X35300Y-35100D02*
X35300Y-35500D01*
X35300Y-37300D02*
X34000Y-38600D01*
X21400Y-36500D02*
X23500Y-38600D01*
X23500Y-38600D02*
X34000Y-38600D01*
X21400Y-35100D02*
X21400Y-36500D01*
G54D44*
X46250Y-38500D02*
X46287Y-38447D01*
X46287Y-38447D02*
X43910Y-36070D01*
X43910Y-36070D02*
X41810Y-36070D01*
X41810Y-36070D02*
X36240Y-30500D01*
X36240Y-30500D02*
X35300Y-30500D01*
G54D41*
X30255Y-26560D02*
X30275Y-27325D01*
X30250Y-27350D02*
X30275Y-27325D01*
G54D42*
X30450Y-25300D02*
X30430Y-26385D01*
X30430Y-26385D02*
X30255Y-26560D01*
G54D41*
X35175Y-23600D02*
X35175Y-23450D01*
X35175Y-23450D02*
X35625Y-23500D01*
X30975Y-17850D02*
X30975Y-18700D01*
X31150Y-17675D02*
X30975Y-17850D01*
G54D40*
X32427Y-30562D02*
X32430Y-30560D01*
X31127Y-30562D02*
X32427Y-30562D01*
X24670Y-31705D02*
X24085Y-31705D01*
X24085Y-31705D02*
X24070Y-31720D01*
X24100Y-29245D02*
X24700Y-29245D01*
X24085Y-29260D02*
X24100Y-29245D01*
G54D43*
X28200Y-22735D02*
X27553Y-22735D01*
X27115Y-22290D02*
X26805Y-22290D01*
X27355Y-22530D02*
X27115Y-22290D01*
X27355Y-22536D02*
X27355Y-22530D01*
X27553Y-22735D02*
X27355Y-22536D01*
G54D42*
X24800Y-14825D02*
X23736Y-14825D01*
X23736Y-14825D02*
X23713Y-14848D01*
X30295Y-30405D02*
X30970Y-30405D01*
X31270Y-30705D02*
X31270Y-31305D01*
X30970Y-30405D02*
X31127Y-30562D01*
X31127Y-30562D02*
X31270Y-30705D01*
G54D41*
X30975Y-19600D02*
X30975Y-18725D01*
X30975Y-18725D02*
X31000Y-18700D01*
G54D42*
X30765Y-20800D02*
X30764Y-21400D01*
G54D41*
X30764Y-21400D02*
X29300Y-23150D01*
X29300Y-23150D02*
X29300Y-23550D01*
X29300Y-23550D02*
X30450Y-24700D01*
G54D42*
X30450Y-24700D02*
X30450Y-25300D01*
X28200Y-22735D02*
X28880Y-22722D01*
G54D41*
X28880Y-22722D02*
X29300Y-23150D01*
G54D42*
X29300Y-23150D02*
X29300Y-23150D01*
X30765Y-20800D02*
X30765Y-19999D01*
X31018Y-19656D02*
X30975Y-19600D01*
X31018Y-19657D02*
X31018Y-19656D01*
X30765Y-19999D02*
X31018Y-19657D01*
G54D45*
X42800Y-7000D02*
X42550Y-7000D01*
G54D43*
X31710Y-20360D02*
X31910Y-20160D01*
X31910Y-20160D02*
X34000Y-20160D01*
X34000Y-20160D02*
X34460Y-19700D01*
X34460Y-19700D02*
X34460Y-17730D01*
X31710Y-20360D02*
X31710Y-20800D01*
G54D45*
X34460Y-16170D02*
X34460Y-17730D01*
X37135Y-13495D02*
X34460Y-16170D01*
X41635Y-13495D02*
X37135Y-13495D01*
X41790Y-13340D02*
X41635Y-13495D01*
X41790Y-7760D02*
X41790Y-13340D01*
X42550Y-7000D02*
X41790Y-7760D01*
X42800Y-8000D02*
X42450Y-8000D01*
G54D43*
X32025Y-20575D02*
X32180Y-20420D01*
X32180Y-20420D02*
X34100Y-20420D01*
X34100Y-20420D02*
X34720Y-19800D01*
X34720Y-19800D02*
X34720Y-17720D01*
X32025Y-20575D02*
X32025Y-20800D01*
G54D45*
X34720Y-16192D02*
X34720Y-17720D01*
X37207Y-13705D02*
X34720Y-16192D01*
X41725Y-13705D02*
X37207Y-13705D01*
X41990Y-13439D02*
X41725Y-13705D01*
X41990Y-8459D02*
X41990Y-13439D01*
X42450Y-8000D02*
X41990Y-8459D01*
G54D43*
X42700Y-7900D02*
X42800Y-8000D01*
G54D45*
X42800Y-9000D02*
X42650Y-9000D01*
G54D43*
X32700Y-20870D02*
X32890Y-20680D01*
X32890Y-20680D02*
X34200Y-20680D01*
X34200Y-20680D02*
X34980Y-19900D01*
X34980Y-19900D02*
X34980Y-17720D01*
X32700Y-20870D02*
X32700Y-21475D01*
G54D45*
X34980Y-16235D02*
X34980Y-17720D01*
X37300Y-13915D02*
X34980Y-16235D01*
X41815Y-13915D02*
X37300Y-13915D01*
X42205Y-13525D02*
X41815Y-13915D01*
X42205Y-9445D02*
X42205Y-13525D01*
X42650Y-9000D02*
X42205Y-9445D01*
G54D46*
X45200Y-22000D02*
X45700Y-22000D01*
X45700Y-22000D02*
X45800Y-22100D01*
G54D44*
X45800Y-22100D02*
X47200Y-22100D01*
X49800Y-22622D02*
X47722Y-22622D01*
X47722Y-22622D02*
X47200Y-22100D01*
G54D43*
X49800Y-17111D02*
X48388Y-17111D01*
X45800Y-17900D02*
X44100Y-19600D01*
X47600Y-17900D02*
X45800Y-17900D01*
X48388Y-17111D02*
X47600Y-17900D01*
X43455Y-23395D02*
X43450Y-23400D01*
X44100Y-22791D02*
X43455Y-23395D01*
X44100Y-19600D02*
X44100Y-22791D01*
X43455Y-23395D02*
X43455Y-23395D01*
X34100Y-33100D02*
X34100Y-33380D01*
X30675Y-35200D02*
X30675Y-35160D01*
X30675Y-35190D02*
X30675Y-35200D01*
X30665Y-35200D02*
X30675Y-35190D01*
X32280Y-35200D02*
X30665Y-35200D01*
X34100Y-33380D02*
X32280Y-35200D01*
X29820Y-34305D02*
X30675Y-35160D01*
X28770Y-34305D02*
X29820Y-34305D01*
X34100Y-33100D02*
X34100Y-33070D01*
X49800Y-15733D02*
X48566Y-15733D01*
X47500Y-17600D02*
X45550Y-17600D01*
X47900Y-17200D02*
X47500Y-17600D01*
X47900Y-16400D02*
X47900Y-17200D01*
X48566Y-15733D02*
X47900Y-16400D01*
X34500Y-32650D02*
X34500Y-33460D01*
X32480Y-35480D02*
X34500Y-33460D01*
X29820Y-34805D02*
X28770Y-34805D01*
X29820Y-34805D02*
X30495Y-35480D01*
X30495Y-35480D02*
X32480Y-35480D01*
X34565Y-32715D02*
X34500Y-32650D01*
X43000Y-23200D02*
X43000Y-23200D01*
X45550Y-17600D02*
X43800Y-19350D01*
X43800Y-19350D02*
X43800Y-22310D01*
X43800Y-22310D02*
X43000Y-23200D01*
X43000Y-23200D02*
X42950Y-23250D01*
X47300Y-13425D02*
X47075Y-13425D01*
X43500Y-16250D02*
X44550Y-15200D01*
X42145Y-23400D02*
X42150Y-23400D01*
G54D45*
X41495Y-24050D02*
X42145Y-23400D01*
X38635Y-24765D02*
X39350Y-24050D01*
X39350Y-24050D02*
X41495Y-24050D01*
X36580Y-28020D02*
X38635Y-25965D01*
X29820Y-25640D02*
X29820Y-25300D01*
X29620Y-27760D02*
X29880Y-28020D01*
X29620Y-25840D02*
X29620Y-27760D01*
X29820Y-25640D02*
X29620Y-25840D01*
X29880Y-28020D02*
X36580Y-28020D01*
X38635Y-25965D02*
X38635Y-24765D01*
G54D43*
X43500Y-22050D02*
X43500Y-17550D01*
X42150Y-23400D02*
X43500Y-22050D01*
X43500Y-17550D02*
X43500Y-16250D01*
X45300Y-15200D02*
X44550Y-15200D01*
X47075Y-13425D02*
X45300Y-15200D01*
X49800Y-12977D02*
X49622Y-12977D01*
X49175Y-13425D02*
X47300Y-13425D01*
X49622Y-12977D02*
X49175Y-13425D01*
X39600Y-24600D02*
X45574Y-24600D01*
X45574Y-24600D02*
X45574Y-24600D01*
X46525Y-25550D02*
X46525Y-27450D01*
X46525Y-27450D02*
X47075Y-28000D01*
X47075Y-28000D02*
X47075Y-28475D01*
X47075Y-28475D02*
X47600Y-29000D01*
X47600Y-29000D02*
X50000Y-29000D01*
X49800Y-26756D02*
X49800Y-27300D01*
X50500Y-28500D02*
X50000Y-29000D01*
X50500Y-27800D02*
X50500Y-28500D01*
X50100Y-27400D02*
X50500Y-27800D01*
X49900Y-27400D02*
X50100Y-27400D01*
X49800Y-27300D02*
X49900Y-27400D01*
G54D45*
X39075Y-26325D02*
X39075Y-25125D01*
X39075Y-26325D02*
X36925Y-28475D01*
X29575Y-28475D02*
X36925Y-28475D01*
G54D43*
X45574Y-24600D02*
X46525Y-25550D01*
G54D45*
X39075Y-25125D02*
X39600Y-24600D01*
X29160Y-28060D02*
X29600Y-28500D01*
X29190Y-25590D02*
X29160Y-25620D01*
X29160Y-25620D02*
X29160Y-28060D01*
X29190Y-25590D02*
X29190Y-25300D01*
G54D43*
X45730Y-24330D02*
X39470Y-24330D01*
G54D45*
X39470Y-24330D02*
X39500Y-24300D01*
G54D43*
X49800Y-28134D02*
X49134Y-28134D01*
X49134Y-28134D02*
X48500Y-27500D01*
X48500Y-27500D02*
X48500Y-26950D01*
X46800Y-25400D02*
X46800Y-26450D01*
G54D45*
X38850Y-26150D02*
X36765Y-28235D01*
X29775Y-28235D02*
X36765Y-28235D01*
G54D43*
X45730Y-24330D02*
X46800Y-25400D01*
G54D45*
X38850Y-24950D02*
X39500Y-24300D01*
X38850Y-26150D02*
X38850Y-24950D01*
G54D43*
X46800Y-26450D02*
X47075Y-26725D01*
X48500Y-26950D02*
X48100Y-26550D01*
X48100Y-26550D02*
X47200Y-26550D01*
X47200Y-26550D02*
X47075Y-26675D01*
X47075Y-26675D02*
X47075Y-26725D01*
X47075Y-26725D02*
X47075Y-27100D01*
G54D45*
X49800Y-28134D02*
X49715Y-28134D01*
X29505Y-25615D02*
X29380Y-25740D01*
X29380Y-25740D02*
X29380Y-27840D01*
X29380Y-27840D02*
X29775Y-28235D01*
X29505Y-25300D02*
X29505Y-25615D01*
X29770Y-28230D02*
X29775Y-28235D01*
G54D44*
X37400Y-34100D02*
X38200Y-34100D01*
X43500Y-39400D02*
X44500Y-39400D01*
X38200Y-34100D02*
X43500Y-39400D01*
G54D42*
X27345Y-33805D02*
X26905Y-33805D01*
X26905Y-33805D02*
X26900Y-33800D01*
G54D40*
X40400Y-18900D02*
X40400Y-18860D01*
X40400Y-18860D02*
X40900Y-18360D01*
G54D44*
X42800Y-6000D02*
X44350Y-6000D01*
G54D40*
X24300Y-27050D02*
X26200Y-27050D01*
X23150Y-25900D02*
X23150Y-24300D01*
X26200Y-27050D02*
X26550Y-26700D01*
X26550Y-26700D02*
X26550Y-24110D01*
X23150Y-25900D02*
X24300Y-27050D01*
G54D45*
X26805Y-23040D02*
X27170Y-23040D01*
X27170Y-23040D02*
X27250Y-22960D01*
G54D41*
X23150Y-23850D02*
X23800Y-23850D01*
X23800Y-24225D02*
X23150Y-24225D01*
X23150Y-24225D02*
X23100Y-24275D01*
X23100Y-24275D02*
X23100Y-24300D01*
X23100Y-24300D02*
X23150Y-24300D01*
X23800Y-23375D02*
X23150Y-23375D01*
X23150Y-23375D02*
X23200Y-23325D01*
X23200Y-23325D02*
X23200Y-23300D01*
X23200Y-23300D02*
X23150Y-23300D01*
X23800Y-23375D02*
X23800Y-24225D01*
X23800Y-24225D02*
X23525Y-24225D01*
X23525Y-24225D02*
X23150Y-23850D01*
X23800Y-23375D02*
X23625Y-23375D01*
X23625Y-23375D02*
X23150Y-23850D01*
G54D40*
X43450Y-11450D02*
X42800Y-12100D01*
G54D44*
X45600Y-9800D02*
X46500Y-9800D01*
X46500Y-9800D02*
X46700Y-9600D01*
X46700Y-9600D02*
X46700Y-7900D01*
X46700Y-7900D02*
X45900Y-7100D01*
X45900Y-7100D02*
X45900Y-5800D01*
X51100Y-26400D02*
X51100Y-25200D01*
X51100Y-25200D02*
X50800Y-24900D01*
G54D40*
X41875Y-15190D02*
X41875Y-16275D01*
X41875Y-16275D02*
X42100Y-16500D01*
G54D44*
X17030Y-33290D02*
X19690Y-33290D01*
X19690Y-33290D02*
X19700Y-33300D01*
X50900Y-31350D02*
X50900Y-31600D01*
X50900Y-31600D02*
X52225Y-32925D01*
G54D41*
X51300Y-32925D02*
X52225Y-32925D01*
X52225Y-32925D02*
X52390Y-32925D01*
X52390Y-32925D02*
X52400Y-32915D01*
X52400Y-32915D02*
X52400Y-32900D01*
X52400Y-32900D02*
X52390Y-32900D01*
X51300Y-32925D02*
X51300Y-32700D01*
X51300Y-32700D02*
X49950Y-31350D01*
G54D43*
X50000Y-39125D02*
X50000Y-39400D01*
X50000Y-39400D02*
X50000Y-39500D01*
X50000Y-39500D02*
X50000Y-39400D01*
X44500Y-39125D02*
X44500Y-39400D01*
X44500Y-39400D02*
X44500Y-39500D01*
X44500Y-39500D02*
X44500Y-39400D01*
G54D46*
X45200Y-22900D02*
X45600Y-23300D01*
G54D44*
X45600Y-23300D02*
X46600Y-23300D01*
X46600Y-23300D02*
X48678Y-25378D01*
X48678Y-25378D02*
X49800Y-25378D01*
X50800Y-18500D02*
X50800Y-20600D01*
X49800Y-19200D02*
X50100Y-19200D01*
X50100Y-19200D02*
X50800Y-18500D01*
X49800Y-18488D02*
X49800Y-19200D01*
X49800Y-19200D02*
X49800Y-19866D01*
X49800Y-18488D02*
X50111Y-18488D01*
X50111Y-18488D02*
X50800Y-17800D01*
G54D40*
X27250Y-22960D02*
X26515Y-22960D01*
X26515Y-22960D02*
X26265Y-22710D01*
X26265Y-22710D02*
X26265Y-20155D01*
X24050Y-20150D02*
X26265Y-20155D01*
X23100Y-21150D02*
X24050Y-20150D01*
G54D44*
X47250Y-39400D02*
X47250Y-38500D01*
X47800Y-39400D02*
X50000Y-39400D01*
X50000Y-39400D02*
X50250Y-39400D01*
X50250Y-39400D02*
X50900Y-38750D01*
X50900Y-38750D02*
X50900Y-36600D01*
X50900Y-36600D02*
X52390Y-35110D01*
X45400Y-13300D02*
X45900Y-13300D01*
X45800Y-9800D02*
X45600Y-9800D01*
X46300Y-10300D02*
X45800Y-9800D01*
X46300Y-12900D02*
X46300Y-10300D01*
X45900Y-13300D02*
X46300Y-12900D01*
X52390Y-35110D02*
X52390Y-32900D01*
X52390Y-32900D02*
X52390Y-32290D01*
X51450Y-31350D02*
X50900Y-31350D01*
X50900Y-31350D02*
X49950Y-31350D01*
X52390Y-32290D02*
X51450Y-31350D01*
X49950Y-31350D02*
X49950Y-29950D01*
X49950Y-29950D02*
X51100Y-28800D01*
X51100Y-28800D02*
X51100Y-26400D01*
X51100Y-26400D02*
X51100Y-26200D01*
X51100Y-26200D02*
X50278Y-25378D01*
X49800Y-19866D02*
X50066Y-19866D01*
X50066Y-19866D02*
X50800Y-20600D01*
X50800Y-20600D02*
X50800Y-24900D01*
X50800Y-24900D02*
X50321Y-25378D01*
X50321Y-25378D02*
X50278Y-25378D01*
X50278Y-25378D02*
X49800Y-25378D01*
X49800Y-19866D02*
X50133Y-19866D01*
X50133Y-19866D02*
X50800Y-19200D01*
X44350Y-6000D02*
X44385Y-6000D01*
X44585Y-5800D02*
X45450Y-5800D01*
X45450Y-5800D02*
X45900Y-5800D01*
X45900Y-5800D02*
X46900Y-5800D01*
X44385Y-6000D02*
X44585Y-5800D01*
X50800Y-19200D02*
X50800Y-18500D01*
X50800Y-18500D02*
X50800Y-17800D01*
X50800Y-17800D02*
X50800Y-6800D01*
X50800Y-6800D02*
X49800Y-5800D01*
X49800Y-5800D02*
X46900Y-5800D01*
G54D40*
X42100Y-16500D02*
X42100Y-16000D01*
X42100Y-16000D02*
X43450Y-14650D01*
X43450Y-14650D02*
X43450Y-11450D01*
X44350Y-6000D02*
X44350Y-6100D01*
X44350Y-6100D02*
X43450Y-7000D01*
X43450Y-7000D02*
X43450Y-11450D01*
G54D44*
X44500Y-39400D02*
X47250Y-39400D01*
X47250Y-39400D02*
X47800Y-39400D01*
G54D40*
X6750Y-33300D02*
X6750Y-33770D01*
X16080Y-34240D02*
X17030Y-33290D01*
X7220Y-34240D02*
X16080Y-34240D01*
X6750Y-33770D02*
X7220Y-34240D01*
X42100Y-16500D02*
X42100Y-17510D01*
X42100Y-17510D02*
X41250Y-18360D01*
X41250Y-18360D02*
X40900Y-18360D01*
X40900Y-18360D02*
X40360Y-18360D01*
X29860Y-19195D02*
X29860Y-19065D01*
X30225Y-19600D02*
X29860Y-19195D01*
X29860Y-19065D02*
X30225Y-18700D01*
X42100Y-16500D02*
X40400Y-16500D01*
X40400Y-16500D02*
X39800Y-15900D01*
X41000Y-22900D02*
X40900Y-22900D01*
X40900Y-22900D02*
X40400Y-22400D01*
X40400Y-22400D02*
X40400Y-18900D01*
X40400Y-18900D02*
X40400Y-18400D01*
X40400Y-18400D02*
X40360Y-18360D01*
X39900Y-17900D02*
X39800Y-17900D01*
X40360Y-18360D02*
X39900Y-17900D01*
G54D43*
X32675Y-18725D02*
X32675Y-18675D01*
X32675Y-18675D02*
X32200Y-18200D01*
X32200Y-18200D02*
X31800Y-18725D01*
G54D40*
X39800Y-15900D02*
X39700Y-15900D01*
X39300Y-17400D02*
X39800Y-17900D01*
G54D43*
X39300Y-16300D02*
X39300Y-17400D01*
G54D42*
X39700Y-15900D02*
X39300Y-16300D01*
G54D43*
X32700Y-23050D02*
X33050Y-23050D01*
X33050Y-23050D02*
X33100Y-23000D01*
X33100Y-23000D02*
X33325Y-23000D01*
X33315Y-23010D02*
X33325Y-23000D01*
G54D42*
X34200Y-25075D02*
X34200Y-25700D01*
X24800Y-15575D02*
X23738Y-15575D01*
X23738Y-15575D02*
X23713Y-15600D01*
X31270Y-31805D02*
X31820Y-31805D01*
X29545Y-30405D02*
X29020Y-30405D01*
X26920Y-31030D02*
X26920Y-30455D01*
X28200Y-23050D02*
X27300Y-23050D01*
X27300Y-23050D02*
X27250Y-22960D01*
G54D40*
X34575Y-22800D02*
X34500Y-22200D01*
X31005Y-26560D02*
X31500Y-26500D01*
X23150Y-24300D02*
X23150Y-23850D01*
X23150Y-23850D02*
X23150Y-23300D01*
X23150Y-23300D02*
X23150Y-21200D01*
X23150Y-21200D02*
X23100Y-21150D01*
X23150Y-23850D02*
X23200Y-23800D01*
X23800Y-23800D02*
X23200Y-23800D01*
G54D42*
X23800Y-23750D02*
X23850Y-23750D01*
X23850Y-23750D02*
X23800Y-23800D01*
X30450Y-20800D02*
X30450Y-19950D01*
X30225Y-19725D02*
X30225Y-19600D01*
X30450Y-19950D02*
X30225Y-19725D01*
X31005Y-26560D02*
X31005Y-26385D01*
X31005Y-26385D02*
X30765Y-25865D01*
X30765Y-25865D02*
X30765Y-25300D01*
X23800Y-23375D02*
X23800Y-23750D01*
X23800Y-23750D02*
X23800Y-24225D01*
X41000Y-22000D02*
X41600Y-22420D01*
X39400Y-23500D02*
X38800Y-22900D01*
X41200Y-23500D02*
X39400Y-23500D01*
X41600Y-23100D02*
X41200Y-23500D01*
X41600Y-22420D02*
X41600Y-23100D01*
G54D47*
X14750Y-6250D02*
X14700Y-8002D01*
X14700Y-8002D02*
X14702Y-8000D01*
X7050Y-10840D02*
X7050Y-9050D01*
X8100Y-8000D02*
X8797Y-8000D01*
X7050Y-9050D02*
X8100Y-8000D01*
X7050Y-12422D02*
X7050Y-10840D01*
G54D45*
X11050Y-16359D02*
X11240Y-16359D01*
X11240Y-16359D02*
X11800Y-15800D01*
G54D47*
X10750Y-6250D02*
X10750Y-12050D01*
X10750Y-12050D02*
X10700Y-12100D01*
G54D45*
X12200Y-13600D02*
X12950Y-14350D01*
X12200Y-15100D02*
X13700Y-15100D01*
X12950Y-12850D02*
X13700Y-13600D01*
X9950Y-12850D02*
X11450Y-12850D01*
X9200Y-12100D02*
X8450Y-12850D01*
X12200Y-12100D02*
X10700Y-12100D01*
X16700Y-12100D02*
X13700Y-12100D01*
X8450Y-15850D02*
X9950Y-15850D01*
X9950Y-14350D02*
X9200Y-15100D01*
X9200Y-13600D02*
X8450Y-14350D01*
X12200Y-13600D02*
X10700Y-13600D01*
X16700Y-12100D02*
X17450Y-12850D01*
X19700Y-15100D02*
X18200Y-15100D01*
X17450Y-14350D02*
X18950Y-14350D01*
X18200Y-13600D02*
X16700Y-13600D01*
X18950Y-12850D02*
X19700Y-13600D01*
X11450Y-11350D02*
X12950Y-11350D01*
X14450Y-11350D02*
X15950Y-11350D01*
X17450Y-11350D02*
X18950Y-11350D01*
X19700Y-12100D02*
X18200Y-12100D01*
X8450Y-11350D02*
X9950Y-11350D01*
X32700Y-22735D02*
X33090Y-22735D01*
X33675Y-22650D02*
X33825Y-22800D01*
X33175Y-22650D02*
X33675Y-22650D01*
X33090Y-22735D02*
X33175Y-22650D01*
G54D42*
X6750Y-32300D02*
X6850Y-31575D01*
X6850Y-31575D02*
X7025Y-31400D01*
X32520Y-32305D02*
X31270Y-32305D01*
X32420Y-32805D02*
X31270Y-32805D01*
G54D45*
X28095Y-33805D02*
X28220Y-33805D01*
X28320Y-33805D02*
X28770Y-33805D01*
X28220Y-33805D02*
X28320Y-33805D01*
G54D44*
X43700Y-25800D02*
X40200Y-25480D01*
G54D45*
X16700Y-19600D02*
X17450Y-18850D01*
X19700Y-16600D02*
X18200Y-16600D01*
X17450Y-17350D02*
X18950Y-17350D01*
X18200Y-18100D02*
X16700Y-18100D01*
X18950Y-18850D02*
X19700Y-18100D01*
X16700Y-22600D02*
X14450Y-22600D01*
X15200Y-23350D02*
X15950Y-23350D01*
X17450Y-23350D02*
X18950Y-23350D01*
X19700Y-22600D02*
X18200Y-22600D01*
X14450Y-24100D02*
X13700Y-23350D01*
X16700Y-19600D02*
X14450Y-19600D01*
X19700Y-19600D02*
X18200Y-19600D01*
X17450Y-20350D02*
X18950Y-20350D01*
X15200Y-20350D02*
X15950Y-20350D01*
X14450Y-21100D02*
X13700Y-20350D01*
X18200Y-21100D02*
X16700Y-21100D01*
X18950Y-21850D02*
X19700Y-21100D01*
X15950Y-21850D02*
X17450Y-21850D01*
X13700Y-21850D02*
X15200Y-21850D01*
X16700Y-28600D02*
X18200Y-28600D01*
X18950Y-27850D02*
X17450Y-27850D01*
X18200Y-27100D02*
X19700Y-27100D01*
X17450Y-26350D02*
X16700Y-27100D01*
X19700Y-25600D02*
X18950Y-26350D01*
X16700Y-25600D02*
X18200Y-25600D01*
X18950Y-24850D02*
X17450Y-24850D01*
X18200Y-24100D02*
X19700Y-24100D01*
X14450Y-24100D02*
X16700Y-24100D01*
X14450Y-25600D02*
X13700Y-24850D01*
X14450Y-27100D02*
X13700Y-26350D01*
X14450Y-28600D02*
X13700Y-27850D01*
G54D41*
X8850Y-32300D02*
X10000Y-32300D01*
X10000Y-32300D02*
X10300Y-32000D01*
X48250Y-38500D02*
X48250Y-38250D01*
X50000Y-38250D02*
X50000Y-38375D01*
X48250Y-38250D02*
X50000Y-38250D01*
G54D44*
X48250Y-38500D02*
X48250Y-37250D01*
X48250Y-37250D02*
X45780Y-34780D01*
X45780Y-34780D02*
X45780Y-34680D01*
X45780Y-34680D02*
X43920Y-34620D01*
G54D42*
X41100Y-17500D02*
X40400Y-17500D01*
X40400Y-17500D02*
X39800Y-16900D01*
G54D43*
X32700Y-23365D02*
X33065Y-23365D01*
X33065Y-23365D02*
X33300Y-23600D01*
X33300Y-23600D02*
X34425Y-23600D01*
G54D42*
X34350Y-24300D02*
X34425Y-23600D01*
G54D43*
X33600Y-19475D02*
X32675Y-19475D01*
G54D42*
X31800Y-19475D02*
X32675Y-19475D01*
G54D45*
X31080Y-20800D02*
X31080Y-20160D01*
X31425Y-19850D02*
X31800Y-19475D01*
X31390Y-19850D02*
X31425Y-19850D01*
X31080Y-20160D02*
X31390Y-19850D01*
G54D42*
X31800Y-19475D02*
X31800Y-19425D01*
G54D45*
X23800Y-22625D02*
X24515Y-22625D01*
X25459Y-21681D02*
X25470Y-21681D01*
X24515Y-22625D02*
X25459Y-21681D01*
X28200Y-23375D02*
X26415Y-23375D01*
X25468Y-22428D02*
X25470Y-21681D01*
X26415Y-23375D02*
X25468Y-22428D01*
X23800Y-24975D02*
X24545Y-24975D01*
X25069Y-25499D02*
X25470Y-25499D01*
X24545Y-24975D02*
X25069Y-25499D01*
X25470Y-25499D02*
X25491Y-24638D01*
X26450Y-23680D02*
X28200Y-23680D01*
X25491Y-24638D02*
X26450Y-23680D01*
X28770Y-31805D02*
X26920Y-31780D01*
X27720Y-32180D02*
X28645Y-32180D01*
X28645Y-32180D02*
X28770Y-32305D01*
X28770Y-32805D02*
X28680Y-32805D01*
X27345Y-32600D02*
X27345Y-33005D01*
X27380Y-32565D02*
X27345Y-32600D01*
X28440Y-32565D02*
X27380Y-32565D01*
X28680Y-32805D02*
X28440Y-32565D01*
X28095Y-33005D02*
X28095Y-33080D01*
X28420Y-33305D02*
X28770Y-33305D01*
X28095Y-33080D02*
X28420Y-33305D01*
X28770Y-31305D02*
X28070Y-31305D01*
X27945Y-31430D02*
X27720Y-31430D01*
X28070Y-31305D02*
X27945Y-31430D01*
G54D44*
X40200Y-29980D02*
X40200Y-27480D01*
X40200Y-31980D02*
X41920Y-34620D01*
X45700Y-25800D02*
X44600Y-29300D01*
X47950Y-31350D02*
X44600Y-31300D01*
G54D45*
X6500Y-21450D02*
X6500Y-19950D01*
X10250Y-20700D02*
X8750Y-20700D01*
X9500Y-19950D02*
X11000Y-19950D01*
X8750Y-19200D02*
X8000Y-19950D01*
X11000Y-18450D02*
X10250Y-19200D01*
X8000Y-18450D02*
X9500Y-18450D01*
X6500Y-21450D02*
X8000Y-21450D01*
X9500Y-21450D02*
X11000Y-21450D01*
X10250Y-22200D02*
X8750Y-22200D01*
X7250Y-22200D02*
X6500Y-22950D01*
X8000Y-22950D02*
X9500Y-22950D01*
X11000Y-22950D02*
X10250Y-23700D01*
X8750Y-23700D02*
X7250Y-23700D01*
X6500Y-24450D02*
X8000Y-24450D01*
X9500Y-24450D02*
X11000Y-24450D01*
X10250Y-25200D02*
X8750Y-25200D01*
X7250Y-25200D02*
X6500Y-25950D01*
X8000Y-25950D02*
X9500Y-25950D01*
X11000Y-25950D02*
X11000Y-27450D01*
X9500Y-27450D02*
X8000Y-27450D01*
G54D43*
X31395Y-20800D02*
X31395Y-20305D01*
X34200Y-17700D02*
X33620Y-17120D01*
X34200Y-19600D02*
X34200Y-17700D01*
X33900Y-19900D02*
X34200Y-19600D01*
X31800Y-19900D02*
X33900Y-19900D01*
X31395Y-20305D02*
X31800Y-19900D01*
G54D45*
X41875Y-14440D02*
X38215Y-14440D01*
X38215Y-14440D02*
X38175Y-14480D01*
X34295Y-21000D02*
X35665Y-19630D01*
X35665Y-19630D02*
X35665Y-16990D01*
X35665Y-16990D02*
X38175Y-14480D01*
X33070Y-21790D02*
X32700Y-21790D01*
X33860Y-21000D02*
X34250Y-21000D01*
X33070Y-21790D02*
X33860Y-21000D01*
X34250Y-21000D02*
X34295Y-21000D01*
G54D42*
X41875Y-14440D02*
X42460Y-14440D01*
X42460Y-14440D02*
X42800Y-14100D01*
G54D43*
X42350Y-23750D02*
X42500Y-23900D01*
X45200Y-21100D02*
X45200Y-21100D01*
X44550Y-21750D02*
X45200Y-21100D01*
X44550Y-22950D02*
X44550Y-21750D01*
X43900Y-23600D02*
X44550Y-22950D01*
X43900Y-23600D02*
X43900Y-23600D01*
X43600Y-23900D02*
X43900Y-23600D01*
X42500Y-23900D02*
X43600Y-23900D01*
G54D45*
X33145Y-22105D02*
X33990Y-21260D01*
X32700Y-22105D02*
X33145Y-22105D01*
X35760Y-21260D02*
X36200Y-21250D01*
X33990Y-21260D02*
X35760Y-21260D01*
X42400Y-23750D02*
X42350Y-23750D01*
G54D43*
X15300Y-33800D02*
X15300Y-33800D01*
X15300Y-33800D02*
X16585Y-32515D01*
X23675Y-27700D02*
X22600Y-27700D01*
X33155Y-22420D02*
X33850Y-21725D01*
X33850Y-21725D02*
X35050Y-21725D01*
X32700Y-22420D02*
X33155Y-22420D01*
X23775Y-27600D02*
X23675Y-27700D01*
X16585Y-32515D02*
X17785Y-32515D01*
X17785Y-32515D02*
X22600Y-27700D01*
X8100Y-33800D02*
X15300Y-33800D01*
X7775Y-33475D02*
X8100Y-33800D01*
X7775Y-31400D02*
X7775Y-33475D01*
G54D45*
X41300Y-13000D02*
X35120Y-13000D01*
X30135Y-20195D02*
X30135Y-20800D01*
X29530Y-19590D02*
X30135Y-20195D01*
X29530Y-18590D02*
X29530Y-19590D01*
X35120Y-13000D02*
X29530Y-18590D01*
X29820Y-20800D02*
X29820Y-20250D01*
X40515Y-12785D02*
X41300Y-12000D01*
X35030Y-12785D02*
X40515Y-12785D01*
X29310Y-18505D02*
X35030Y-12785D01*
X29310Y-19740D02*
X29310Y-18505D01*
X29820Y-20250D02*
X29310Y-19740D01*
X41300Y-11000D02*
X41300Y-11155D01*
X29505Y-20245D02*
X29505Y-20800D01*
X29100Y-19840D02*
X29505Y-20245D01*
X29100Y-18432D02*
X29100Y-19840D01*
X34967Y-12565D02*
X29100Y-18432D01*
X39890Y-12565D02*
X34967Y-12565D01*
X41300Y-11155D02*
X39890Y-12565D01*
X29190Y-20800D02*
X29190Y-20260D01*
X40735Y-10565D02*
X41300Y-10000D01*
X40735Y-11437D02*
X40735Y-10565D01*
X39817Y-12355D02*
X40735Y-11437D01*
X34885Y-12355D02*
X39817Y-12355D01*
X28890Y-18350D02*
X34885Y-12355D01*
X28890Y-19960D02*
X28890Y-18350D01*
X29190Y-20260D02*
X28890Y-19960D01*
X41300Y-9000D02*
X41300Y-9210D01*
X28875Y-20227D02*
X28875Y-20800D01*
X28685Y-20037D02*
X28875Y-20227D01*
X28685Y-18270D02*
X28685Y-20037D01*
X34810Y-12145D02*
X28685Y-18270D01*
X39744Y-12145D02*
X34810Y-12145D01*
X40525Y-11364D02*
X39744Y-12145D01*
X40525Y-9985D02*
X40525Y-11364D01*
X41300Y-9210D02*
X40525Y-9985D01*
X28200Y-21475D02*
X28200Y-20160D01*
X40810Y-8490D02*
X41300Y-8000D01*
X40810Y-9417D02*
X40810Y-8490D01*
X40324Y-9902D02*
X40810Y-9417D01*
X40324Y-11281D02*
X40324Y-9902D01*
X39666Y-11940D02*
X40324Y-11281D01*
X34732Y-11940D02*
X39666Y-11940D01*
X28475Y-18197D02*
X34732Y-11940D01*
X28475Y-19885D02*
X28475Y-18197D01*
X28200Y-20160D02*
X28475Y-19885D01*
X28200Y-21475D02*
X27925Y-21475D01*
X28200Y-21790D02*
X27660Y-21790D01*
X40600Y-7700D02*
X41300Y-7000D01*
X40600Y-9329D02*
X40600Y-7700D01*
X40105Y-9824D02*
X40600Y-9329D01*
X40105Y-11218D02*
X40105Y-9824D01*
X39583Y-11739D02*
X40105Y-11218D01*
X34630Y-11739D02*
X39583Y-11739D01*
X28260Y-18110D02*
X34630Y-11739D01*
X28260Y-19770D02*
X28260Y-18110D01*
X27970Y-20060D02*
X28260Y-19770D01*
X27970Y-21035D02*
X27970Y-20060D01*
X27610Y-21395D02*
X27970Y-21035D01*
X27610Y-21740D02*
X27610Y-21395D01*
X27660Y-21790D02*
X27610Y-21740D01*
X39000Y-7900D02*
X39030Y-7900D01*
X40770Y-6530D02*
X41300Y-6000D01*
X40770Y-6920D02*
X40770Y-6530D01*
X40275Y-7415D02*
X40770Y-6920D01*
X39515Y-7415D02*
X40275Y-7415D01*
X39030Y-7900D02*
X39515Y-7415D01*
X34547Y-11539D02*
X39060Y-11539D01*
X27405Y-21880D02*
X27405Y-21264D01*
X27630Y-22105D02*
X27405Y-21880D01*
X28200Y-22105D02*
X27630Y-22105D01*
X28050Y-18037D02*
X34547Y-11539D01*
X28050Y-19680D02*
X28050Y-18037D01*
X27760Y-19970D02*
X28050Y-19680D01*
X27760Y-20910D02*
X27760Y-19970D01*
X27405Y-21264D02*
X27760Y-20910D01*
X39525Y-8425D02*
X39000Y-7900D01*
X39525Y-11075D02*
X39525Y-8425D01*
X39060Y-11539D02*
X39525Y-11075D01*
X33470Y-27570D02*
X36130Y-27570D01*
X31080Y-25620D02*
X31780Y-26320D01*
X31780Y-26320D02*
X32220Y-26320D01*
X32220Y-26320D02*
X33470Y-27570D01*
X31080Y-25300D02*
X31080Y-25620D01*
X38505Y-22420D02*
X39320Y-22420D01*
X38150Y-22775D02*
X38505Y-22420D01*
X38150Y-25550D02*
X38150Y-22775D01*
X36130Y-27570D02*
X38150Y-25550D01*
X37940Y-22320D02*
X37940Y-21760D01*
X35840Y-27360D02*
X37940Y-25260D01*
X37940Y-25260D02*
X37940Y-22320D01*
X31395Y-25635D02*
X31860Y-26100D01*
X31860Y-26100D02*
X32320Y-26100D01*
X32320Y-26100D02*
X33580Y-27360D01*
X31395Y-25300D02*
X31395Y-25635D01*
X33580Y-27360D02*
X35840Y-27360D01*
X37940Y-21760D02*
X38800Y-20900D01*
X35650Y-27150D02*
X33680Y-27150D01*
X37710Y-21105D02*
X38395Y-20420D01*
X38395Y-20420D02*
X39075Y-20420D01*
X39075Y-20420D02*
X39295Y-20640D01*
X39295Y-20640D02*
X39295Y-21395D01*
X39800Y-21900D02*
X39295Y-21395D01*
X37700Y-22120D02*
X37710Y-22130D01*
X37700Y-25099D02*
X37700Y-22120D01*
X35650Y-27150D02*
X37700Y-25099D01*
X37710Y-22130D02*
X37710Y-21105D01*
X31710Y-25660D02*
X31710Y-25300D01*
X31920Y-25870D02*
X31710Y-25660D01*
X32400Y-25870D02*
X31920Y-25870D01*
X33680Y-27150D02*
X32400Y-25870D01*
X33745Y-26925D02*
X35375Y-26925D01*
X37500Y-23175D02*
X37270Y-22945D01*
X37500Y-24800D02*
X37500Y-23175D01*
X32120Y-25300D02*
X33745Y-26925D01*
X32120Y-25300D02*
X32025Y-25300D01*
X35375Y-26925D02*
X37500Y-24800D01*
X35225Y-26675D02*
X33800Y-26675D01*
X37200Y-24700D02*
X37200Y-23400D01*
X35225Y-26675D02*
X37200Y-24700D01*
X36940Y-21775D02*
X36940Y-23140D01*
X37200Y-23400D02*
X36940Y-23140D01*
X32700Y-25575D02*
X32700Y-24625D01*
X33800Y-26675D02*
X32700Y-25575D01*
X38110Y-17845D02*
X38125Y-17845D01*
X38125Y-17845D02*
X38800Y-17170D01*
X38800Y-17170D02*
X38800Y-16900D01*
X36940Y-21775D02*
X36940Y-19015D01*
X36940Y-19015D02*
X38110Y-17845D01*
X36940Y-21775D02*
X36940Y-21775D01*
X36940Y-24560D02*
X36940Y-23589D01*
X33890Y-26470D02*
X35030Y-26470D01*
X33319Y-25899D02*
X33890Y-26470D01*
X32700Y-24310D02*
X33229Y-24310D01*
X33229Y-24310D02*
X33319Y-24400D01*
X33319Y-24400D02*
X33319Y-25899D01*
X35030Y-26470D02*
X36940Y-24560D01*
X36595Y-23244D02*
X36595Y-21580D01*
X36940Y-23589D02*
X36595Y-23244D01*
X36705Y-21690D02*
X36595Y-21580D01*
X36605Y-23755D02*
X36550Y-23700D01*
X33519Y-24160D02*
X33519Y-25799D01*
X32995Y-23995D02*
X33040Y-24040D01*
X33040Y-24040D02*
X33400Y-24040D01*
X33400Y-24040D02*
X33519Y-24160D01*
X32700Y-23995D02*
X32995Y-23995D01*
X33519Y-25799D02*
X33960Y-26240D01*
X34860Y-26240D02*
X36603Y-24496D01*
X33960Y-26240D02*
X34860Y-26240D01*
X36603Y-24496D02*
X36605Y-23755D01*
X34055Y-26035D02*
X34565Y-26035D01*
X33720Y-25700D02*
X34055Y-26035D01*
X32700Y-23680D02*
X33020Y-23680D01*
X33540Y-23840D02*
X33720Y-24020D01*
X33180Y-23840D02*
X33540Y-23840D01*
X33020Y-23680D02*
X33180Y-23840D01*
X33720Y-24020D02*
X33720Y-25700D01*
X34565Y-26035D02*
X36200Y-24400D01*
G54D43*
X45600Y-8000D02*
X44250Y-8100D01*
X44250Y-8100D02*
X43800Y-8550D01*
X43800Y-8550D02*
X43800Y-14850D01*
X43800Y-14850D02*
X42850Y-15800D01*
X42850Y-15800D02*
X42850Y-21890D01*
X42850Y-21890D02*
X42150Y-22450D01*
G54D45*
X36200Y-24400D02*
X36200Y-24400D01*
X36200Y-24400D02*
X36200Y-24440D01*
G54D43*
X43150Y-22000D02*
X43145Y-22000D01*
X43145Y-22000D02*
X41345Y-23800D01*
X44200Y-15100D02*
X43150Y-16150D01*
X43150Y-16150D02*
X43150Y-22000D01*
X38400Y-25800D02*
X38400Y-24500D01*
X45150Y-11600D02*
X44200Y-12550D01*
X44200Y-12550D02*
X44200Y-15100D01*
X45150Y-11600D02*
X45400Y-11500D01*
X38400Y-24500D02*
X39100Y-23800D01*
X39100Y-23800D02*
X41345Y-23800D01*
G54D45*
X29970Y-27790D02*
X36410Y-27790D01*
X30135Y-25715D02*
X29840Y-26010D01*
X29840Y-26010D02*
X29840Y-27660D01*
X29840Y-27660D02*
X29970Y-27790D01*
G54D43*
X30135Y-25300D02*
X30135Y-25715D01*
X36410Y-27790D02*
X38400Y-25800D01*
G54D45*
X26225Y-29875D02*
X32455Y-29875D01*
X32455Y-29875D02*
X32460Y-29880D01*
X26050Y-29700D02*
X26075Y-29700D01*
X27430Y-23995D02*
X26875Y-24550D01*
X26875Y-24550D02*
X26875Y-27050D01*
X26875Y-27050D02*
X26050Y-27875D01*
X28200Y-23995D02*
X27430Y-23995D01*
X26050Y-27875D02*
X26050Y-29700D01*
X26050Y-30050D02*
X26225Y-29875D01*
X26225Y-29875D02*
X26250Y-29875D01*
X25420Y-31405D02*
X25420Y-31705D01*
X26050Y-30775D02*
X25420Y-31405D01*
X26050Y-30775D02*
X26050Y-30050D01*
X26075Y-29700D02*
X26250Y-29875D01*
G54D43*
X25420Y-31705D02*
X25420Y-32637D01*
X25420Y-32637D02*
X25583Y-32800D01*
X32570Y-33305D02*
X32895Y-32980D01*
X31270Y-33305D02*
X32570Y-33305D01*
X32895Y-30315D02*
X32460Y-29880D01*
X32895Y-32980D02*
X32895Y-30315D01*
G54D45*
X31270Y-34805D02*
X32220Y-34805D01*
X32220Y-34805D02*
X33700Y-33325D01*
X33700Y-33325D02*
X33700Y-29800D01*
X33700Y-29800D02*
X32750Y-28850D01*
X32750Y-28850D02*
X30150Y-28850D01*
X28975Y-28800D02*
X28575Y-28400D01*
X28575Y-28400D02*
X28575Y-26050D01*
X28575Y-26050D02*
X28200Y-25675D01*
X28200Y-25675D02*
X28200Y-24625D01*
G54D44*
X49800Y-11599D02*
X47500Y-12199D01*
X47500Y-12199D02*
X47300Y-12400D01*
G54D42*
X23920Y-33175D02*
X23290Y-33175D01*
X22225Y-32110D02*
X22225Y-31075D01*
X23290Y-33175D02*
X22225Y-32110D01*
G54D43*
X23920Y-33175D02*
X24717Y-33175D01*
G54D42*
X23965Y-30685D02*
X21815Y-30685D01*
X21815Y-30685D02*
X21400Y-31100D01*
G54D43*
X24717Y-30685D02*
X23965Y-30685D01*
G54D45*
X28425Y-28850D02*
X28425Y-28850D01*
X27815Y-24310D02*
X28200Y-24310D01*
X27700Y-24425D02*
X27815Y-24310D01*
X27700Y-25550D02*
X27700Y-24425D01*
X28350Y-26200D02*
X27700Y-25550D01*
X28350Y-28775D02*
X28350Y-26200D01*
X28425Y-28850D02*
X28350Y-28775D01*
X25450Y-29245D02*
X25450Y-28850D01*
X28425Y-28850D02*
X29100Y-29525D01*
X25450Y-28850D02*
X25450Y-28750D01*
X29100Y-29525D02*
X29100Y-29550D01*
X29100Y-29550D02*
X29100Y-29525D01*
G54D43*
X25450Y-29245D02*
X25450Y-30177D01*
X25450Y-30177D02*
X25583Y-30310D01*
X32668Y-29525D02*
X29100Y-29525D01*
X31270Y-33805D02*
X32445Y-33805D01*
X33160Y-30016D02*
X32668Y-29525D01*
X33160Y-33090D02*
X33160Y-30016D01*
X32445Y-33805D02*
X33160Y-33090D01*
G54D45*
X31270Y-34305D02*
X32320Y-34305D01*
X32320Y-34305D02*
X33425Y-33200D01*
X33425Y-33200D02*
X33425Y-29900D01*
X33425Y-29900D02*
X32775Y-29250D01*
X32775Y-29250D02*
X30000Y-29250D01*
X30000Y-29250D02*
X28875Y-28125D01*
X28875Y-28125D02*
X28875Y-25300D01*
G54D42*
X23335Y-29935D02*
X23965Y-29935D01*
X23305Y-29965D02*
X23335Y-29935D01*
X23290Y-32425D02*
X23920Y-32425D01*
X23275Y-32440D02*
X23290Y-32425D01*
G54D43*
X23920Y-32425D02*
X24717Y-32425D01*
X24717Y-29935D02*
X23965Y-29935D01*
G54D45*
X27205Y-22000D02*
X27205Y-20095D01*
X27625Y-22420D02*
X27205Y-22000D01*
X28200Y-22420D02*
X27625Y-22420D01*
X39000Y-10350D02*
X39000Y-8900D01*
X38015Y-11335D02*
X39000Y-10350D01*
X34469Y-11335D02*
X38015Y-11335D01*
X27750Y-18054D02*
X34469Y-11335D01*
X27750Y-19550D02*
X27750Y-18054D01*
X27205Y-20095D02*
X27750Y-19550D01*
G54D10*
G36*
X19950Y-28156D02*
X19921Y-28355D01*
X19839Y-28535D01*
X19708Y-28688D01*
X19382Y-28973D01*
X19164Y-29104D01*
X18913Y-29150D01*
X14154Y-29150D01*
X13882Y-29095D01*
X13655Y-28944D01*
X13504Y-28717D01*
X13450Y-28445D01*
X13450Y-16554D01*
X13504Y-16282D01*
X13655Y-16055D01*
X13882Y-15904D01*
X14154Y-15850D01*
X19245Y-15850D01*
X19517Y-15904D01*
X19744Y-16055D01*
X19895Y-16282D01*
X19950Y-16554D01*
X19950Y-28156D01*
X19950Y-28156D01*
G37*
G54D45*
X19950Y-28156D02*
X19921Y-28355D01*
X19839Y-28535D01*
X19708Y-28688D01*
X19382Y-28973D01*
X19164Y-29104D01*
X18913Y-29150D01*
X14154Y-29150D01*
X13882Y-29095D01*
X13655Y-28944D01*
X13504Y-28717D01*
X13450Y-28445D01*
X13450Y-16554D01*
X13504Y-16282D01*
X13655Y-16055D01*
X13882Y-15904D01*
X14154Y-15850D01*
X19245Y-15850D01*
X19517Y-15904D01*
X19744Y-16055D01*
X19895Y-16282D01*
X19950Y-16554D01*
X19950Y-28156D01*
G54D10*
G36*
X19950Y-14545D02*
X19895Y-14817D01*
X19744Y-15044D01*
X19517Y-15195D01*
X19245Y-15250D01*
X13545Y-15250D01*
X13243Y-15309D01*
X12983Y-15483D01*
X12809Y-15743D01*
X12750Y-16045D01*
X12750Y-16545D01*
X12695Y-16817D01*
X12544Y-17044D01*
X12317Y-17195D01*
X12045Y-17250D01*
X9054Y-17250D01*
X8782Y-17195D01*
X8555Y-17044D01*
X8404Y-16817D01*
X8350Y-16545D01*
X8350Y-10154D01*
X8404Y-9882D01*
X8555Y-9655D01*
X8782Y-9504D01*
X9054Y-9450D01*
X19245Y-9450D01*
X19517Y-9504D01*
X19744Y-9655D01*
X19895Y-9882D01*
X19950Y-10154D01*
X19950Y-14545D01*
X19950Y-14545D01*
G37*
G54D45*
X19950Y-14545D02*
X19895Y-14817D01*
X19744Y-15044D01*
X19517Y-15195D01*
X19245Y-15250D01*
X13545Y-15250D01*
X13243Y-15309D01*
X12983Y-15483D01*
X12809Y-15743D01*
X12750Y-16045D01*
X12750Y-16545D01*
X12695Y-16817D01*
X12544Y-17044D01*
X12317Y-17195D01*
X12045Y-17250D01*
X9054Y-17250D01*
X8782Y-17195D01*
X8555Y-17044D01*
X8404Y-16817D01*
X8350Y-16545D01*
X8350Y-10154D01*
X8404Y-9882D01*
X8555Y-9655D01*
X8782Y-9504D01*
X9054Y-9450D01*
X19245Y-9450D01*
X19517Y-9504D01*
X19744Y-9655D01*
X19895Y-9882D01*
X19950Y-10154D01*
X19950Y-14545D01*
G54D10*
G36*
X11050Y-27145D02*
X10995Y-27417D01*
X10844Y-27644D01*
X10617Y-27795D01*
X10345Y-27850D01*
X6854Y-27850D01*
X6582Y-27795D01*
X6355Y-27644D01*
X6204Y-27417D01*
X6150Y-27145D01*
X6150Y-18654D01*
X6204Y-18382D01*
X6355Y-18155D01*
X6582Y-18004D01*
X6854Y-17950D01*
X10345Y-17950D01*
X10617Y-18004D01*
X10844Y-18155D01*
X10995Y-18382D01*
X11050Y-18654D01*
X11050Y-27145D01*
X11050Y-27145D01*
G37*
G54D45*
X11050Y-27145D02*
X10995Y-27417D01*
X10844Y-27644D01*
X10617Y-27795D01*
X10345Y-27850D01*
X6854Y-27850D01*
X6582Y-27795D01*
X6355Y-27644D01*
X6204Y-27417D01*
X6150Y-27145D01*
X6150Y-18654D01*
X6204Y-18382D01*
X6355Y-18155D01*
X6582Y-18004D01*
X6854Y-17950D01*
X10345Y-17950D01*
X10617Y-18004D01*
X10844Y-18155D01*
X10995Y-18382D01*
X11050Y-18654D01*
X11050Y-27145D01*
M02*
