M48
INCH,TZ
T1C0.025
T2C0.032
T3C0.035
T4C0.040
T5C0.045
T6C0.047
T7C0.050
T8C0.060
T9C0.078
T10C0.090
T11C0.120
%
G90
G05
T1
X6500Y-18450
X6500Y-19950
X6500Y-21450
X6500Y-22950
X6500Y-24450
X6500Y-25950
X6500Y-27450
X7250Y-22200
X7250Y-23700
X7250Y-25200
X8000Y-18450
X8000Y-19950
X8000Y-21450
X8000Y-22950
X8000Y-24450
X8000Y-25950
X8000Y-27450
X8450Y-11350
X8450Y-12850
X8450Y-14350
X8450Y-15850
X8750Y-19200
X8750Y-20700
X8750Y-22200
X8750Y-23700
X8750Y-25200
X9200Y-12100
X9200Y-13600
X9200Y-15100
X9200Y-16600
X9500Y-18450
X9500Y-19950
X9500Y-21450
X9500Y-22950
X9500Y-24450
X9500Y-25950
X9500Y-27450
X9570Y-33310
X9950Y-11350
X9950Y-12850
X9950Y-14350
X9950Y-15850
X10250Y-19200
X10250Y-20700
X10250Y-22200
X10250Y-23700
X10250Y-25200
X10700Y-12100
X10700Y-13600
X11000Y-18450
X11000Y-19950
X11000Y-21450
X11000Y-22950
X11000Y-24450
X11000Y-25950
X11000Y-27450
X11450Y-11350
X11450Y-12850
X11800Y-15800
X12200Y-12100
X12200Y-13600
X12200Y-15100
X12200Y-16600
X12950Y-11350
X12950Y-12850
X12950Y-14350
X13700Y-12100
X13700Y-13600
X13700Y-15100
X13700Y-18850
X13700Y-20350
X13700Y-21850
X13700Y-23350
X13700Y-24850
X13700Y-26350
X13700Y-27850
X14450Y-11350
X14450Y-19600
X14450Y-21100
X14450Y-22600
X14450Y-24100
X14450Y-25600
X14450Y-27100
X14450Y-28600
X15200Y-20350
X15200Y-21850
X15200Y-23350
X15950Y-11350
X15950Y-20350
X15950Y-21850
X15950Y-23350
X16700Y-12100
X16700Y-13600
X16700Y-15100
X16700Y-16600
X16700Y-18100
X16700Y-19600
X16700Y-21100
X16700Y-22600
X16700Y-24100
X16700Y-25600
X16700Y-27100
X16700Y-28600
X17030Y-33290
X17450Y-11350
X17450Y-12850
X17450Y-14350
X17450Y-17350
X17450Y-18850
X17450Y-20350
X17450Y-21850
X17450Y-23350
X17450Y-24850
X17450Y-26350
X17450Y-27850
X18200Y-12100
X18200Y-13600
X18200Y-15100
X18200Y-16600
X18200Y-18100
X18200Y-19600
X18200Y-21100
X18200Y-22600
X18200Y-24100
X18200Y-25600
X18200Y-27100
X18200Y-28600
X18200Y-31000
X18950Y-11350
X18950Y-12850
X18950Y-14350
X18950Y-17350
X18950Y-18850
X18950Y-20350
X18950Y-21850
X18950Y-23350
X18950Y-24850
X18950Y-26350
X18950Y-27850
X19700Y-12100
X19700Y-13600
X19700Y-15100
X19700Y-16600
X19700Y-18100
X19700Y-19600
X19700Y-21100
X19700Y-22600
X19700Y-24100
X19700Y-25600
X19700Y-27100
X19700Y-28600
X19700Y-33300
X22225Y-31075
X23100Y-21150
X23150Y-23850
X23150Y-25900
X23275Y-32440
X23305Y-29965
X23775Y-27600
X23800Y-23850
X24050Y-20150
X24070Y-31720
X24085Y-29260
X24300Y-27050
X25450Y-28750
X26200Y-27050
X26265Y-20155
X26400Y-16600
X26550Y-24110
X26920Y-30455
X27250Y-22960
X28425Y-28850
X28975Y-28800
X29020Y-30405
X29860Y-19195
X30150Y-28850
X30250Y-27350
X31150Y-17675
X31500Y-26500
X31820Y-31805
X32200Y-18200
X32400Y-16600
X32420Y-32805
X32430Y-30560
X32520Y-32305
X33325Y-23000
X33620Y-17120
X34100Y-33100
X34200Y-25700
X34500Y-22200
X34500Y-32650
X34800Y-8200
X35050Y-21725
X35300Y-30500
X35625Y-23500
X36200Y-21250
X36200Y-24400
X36550Y-23700
X36595Y-21580
X37270Y-22945
X39320Y-22420
X42150Y-22450
X42350Y-23750
X42950Y-23250
X43450Y-23400
X48100Y-27100
X48100Y-28000
T2
X8797Y-8000
X10750Y-6250
X14703Y-8000
X14750Y-6250
X21400Y-6100
X21400Y-7100
X21400Y-30100
X21400Y-31100
X21400Y-32100
X21400Y-33100
X21400Y-34100
X21400Y-35100
X37400Y-6100
X37400Y-7100
X37400Y-34100
X37400Y-35100
X41100Y-17500
X42100Y-16500
X42100Y-18500
T3
X23713Y-14848
X23713Y-15600
X23713Y-16352
T4
X29850Y-36550
X30400Y-37650
X30950Y-36550
X31500Y-37650
X32000Y-36550
X32550Y-37650
X33100Y-36550
X33650Y-37650
X34150Y-36550
X38800Y-15900
X38800Y-16900
X38800Y-17900
X38800Y-18900
X38800Y-19900
X38800Y-20900
X38800Y-21900
X38800Y-22900
X39000Y-6900
X39000Y-7900
X39000Y-8900
X39800Y-15900
X39800Y-16900
X39800Y-17900
X39800Y-18900
X39800Y-19900
X39800Y-20900
X39800Y-21900
X39800Y-22900
X40000Y-6900
X40000Y-7900
X40000Y-8900
X40200Y-25480
X40200Y-27480
X40200Y-29980
X40200Y-31980
X41000Y-21100
X41000Y-22000
X41000Y-22900
X41300Y-6000
X41300Y-7000
X41300Y-8000
X41300Y-9000
X41300Y-10000
X41300Y-11000
X41300Y-12000
X41300Y-13000
X41920Y-34620
X42800Y-6000
X42800Y-7000
X42800Y-8000
X42800Y-9000
X42800Y-10000
X42800Y-12100
X42800Y-13100
X42800Y-14100
X43700Y-25800
X43920Y-34620
X44600Y-29300
X44600Y-31300
X45200Y-21100
X45200Y-22000
X45200Y-22900
X45400Y-11500
X45400Y-12400
X45400Y-13300
X45600Y-8000
X45600Y-8900
X45600Y-9800
X45700Y-25800
X47950Y-31350
X49950Y-31350
T5
X46250Y-38500
X47250Y-38500
X48250Y-38500
T6
X49800Y-7465
X49800Y-8843
X49800Y-10221
X49800Y-11599
X49800Y-12977
X49800Y-14355
X49800Y-15733
X49800Y-17111
X49800Y-18489
X49800Y-19867
X49800Y-21245
X49800Y-22623
X49800Y-24001
X49800Y-25379
X49800Y-26757
X49800Y-28135
T7
X10300Y-32000
X15900Y-32000
X45000Y-14400
X45000Y-20000
X45780Y-34680
X47200Y-16500
X47200Y-22100
X47300Y-6800
X47300Y-12400
X51380Y-34680
T8
X7050Y-10840
X7050Y-12423
X7050Y-18777
X7050Y-20360
X11050Y-14777
X11050Y-16360
T10
X7024Y-26500
X8560Y-26500
X10095Y-26500
X12300Y-23193
X12300Y-29807
X15607Y-24965
X15607Y-26500
X15607Y-28035
T11
X6500Y-6500
X6500Y-39500
X27100Y-37100
X36950Y-37100
X52500Y-6500
X52500Y-39500
T9
X15288Y-12846G85X15288Y-14416
G05
X15288Y-16784G85X15288Y-18354
G05
T0
M30
