G04 (created by PCBNEW (2013-mar-13)-testing) date Sun 30 Jun 2013 06:19:03 PM EDT*
%MOIN*%
G04 Gerber Fmt 3.4, Leading zero omitted, Abs format*
%FSLAX34Y34*%
G01*
G70*
G90*
G04 APERTURE LIST*
%ADD10C,0.005906*%
%ADD11C,0.055000*%
%ADD12R,0.055000X0.055000*%
%ADD13R,0.060000X0.060000*%
%ADD14C,0.060000*%
%ADD15C,0.080300*%
%ADD16R,0.080300X0.080300*%
%ADD17C,0.065000*%
%ADD18C,0.059100*%
%ADD19O,0.212598X0.366142*%
%ADD20R,0.078740X0.078740*%
%ADD21C,0.082677*%
%ADD22C,0.150000*%
%ADD23R,0.070000X0.070000*%
%ADD24C,0.070000*%
%ADD25C,0.085000*%
%ADD26R,0.085000X0.085000*%
%ADD27R,0.098425X0.098425*%
%ADD28C,0.098425*%
%ADD29C,0.160000*%
G04 APERTURE END LIST*
G54D10*
G54D11*
X37400Y-34100D03*
G54D12*
X37400Y-35100D03*
X21400Y-35100D03*
G54D11*
X21400Y-34100D03*
X21400Y-33100D03*
X21400Y-32100D03*
X21400Y-31100D03*
X21400Y-30100D03*
X21400Y-7100D03*
X21400Y-6100D03*
X37400Y-7100D03*
X37400Y-6100D03*
G54D13*
X39000Y-6900D03*
G54D14*
X40000Y-6900D03*
X39000Y-7900D03*
X40000Y-7900D03*
X39000Y-8900D03*
X40000Y-8900D03*
G54D13*
X42800Y-12100D03*
G54D14*
X42800Y-13100D03*
X42800Y-14100D03*
G54D13*
X41300Y-13000D03*
G54D14*
X41300Y-12000D03*
X41300Y-11000D03*
X41300Y-10000D03*
X41300Y-9000D03*
X41300Y-8000D03*
X41300Y-7000D03*
X41300Y-6000D03*
G54D15*
X41100Y-17500D03*
G54D16*
X42100Y-16500D03*
G54D15*
X42100Y-18500D03*
G54D17*
X45200Y-22000D03*
X45200Y-22900D03*
X45200Y-21100D03*
X45400Y-12400D03*
X45400Y-13300D03*
X45400Y-11500D03*
X45600Y-8900D03*
X45600Y-9800D03*
X45600Y-8000D03*
X41000Y-22000D03*
X41000Y-22900D03*
X41000Y-21100D03*
G54D13*
X38800Y-15900D03*
G54D14*
X39800Y-15900D03*
X38800Y-16900D03*
X39800Y-16900D03*
X38800Y-17900D03*
X39800Y-17900D03*
X38800Y-18900D03*
X39800Y-18900D03*
X38800Y-19900D03*
X39800Y-19900D03*
X38800Y-20900D03*
X39800Y-20900D03*
X38800Y-21900D03*
X39800Y-21900D03*
X38800Y-22900D03*
X39800Y-22900D03*
G54D13*
X42800Y-6000D03*
G54D14*
X42800Y-7000D03*
X42800Y-8000D03*
X42800Y-9000D03*
X42800Y-10000D03*
G54D18*
X23713Y-15600D03*
X23713Y-16352D03*
X23713Y-14848D03*
G54D19*
X15287Y-17686D03*
X15287Y-13513D03*
G54D20*
X49800Y-7465D03*
G54D21*
X49800Y-8843D03*
X49800Y-10221D03*
X49800Y-11599D03*
X49800Y-12977D03*
X49800Y-14355D03*
X49800Y-15733D03*
X49800Y-17111D03*
X49800Y-18488D03*
X49800Y-19866D03*
X49800Y-21244D03*
X49800Y-22622D03*
X49800Y-24000D03*
X49800Y-25378D03*
X49800Y-26756D03*
X49800Y-28134D03*
G54D22*
X27100Y-37100D03*
X36950Y-37100D03*
G54D13*
X34150Y-36550D03*
G54D14*
X33100Y-36550D03*
X32000Y-36550D03*
X30950Y-36550D03*
X29850Y-36550D03*
X33650Y-37650D03*
X32550Y-37650D03*
X31500Y-37650D03*
X30400Y-37650D03*
G54D23*
X40200Y-31980D03*
G54D24*
X40200Y-29980D03*
G54D23*
X43920Y-34620D03*
G54D24*
X41920Y-34620D03*
G54D23*
X40200Y-27480D03*
G54D24*
X40200Y-25480D03*
G54D23*
X43700Y-25800D03*
G54D24*
X45700Y-25800D03*
G54D23*
X47950Y-31350D03*
G54D24*
X49950Y-31350D03*
G54D23*
X44600Y-29300D03*
G54D24*
X44600Y-31300D03*
G54D25*
X51380Y-34680D03*
G54D26*
X45780Y-34680D03*
G54D25*
X15900Y-32000D03*
G54D26*
X10300Y-32000D03*
G54D25*
X47200Y-22100D03*
G54D26*
X47200Y-16500D03*
G54D25*
X45000Y-14400D03*
G54D26*
X45000Y-20000D03*
G54D25*
X47300Y-12400D03*
G54D26*
X47300Y-6800D03*
G54D11*
X8797Y-8000D03*
X14702Y-8000D03*
G54D14*
X14750Y-6250D03*
X10750Y-6250D03*
G54D27*
X7050Y-20359D03*
X7050Y-18777D03*
G54D28*
X11050Y-16359D03*
X11050Y-14777D03*
X7050Y-12422D03*
X7050Y-10840D03*
G54D24*
X48250Y-38500D03*
G54D23*
X47250Y-38500D03*
G54D24*
X46250Y-38500D03*
G54D29*
X6500Y-6500D03*
X52500Y-6500D03*
X52500Y-39500D03*
X6500Y-39500D03*
M02*
